<svg width="24" height="24" viewBox="0 0 24 24" fill="none" xmlns="http://www.w3.org/2000/svg">
<path d="M9 8.45457V6.06817C9 4.37367 10.3432 3 12 3C13.6569 3 15 4.37367 15 6.06818V8.45457M3 6.44001L3 9C3 9.55228 3.44772 10 4 10H6M3 6.44001C3.67379 6.44001 4.22001 5.8938 4.22001 5.22001C4.22001 4.54621 3.67379 4 3 4C2.32621 4 1.78 4.54621 1.78 5.22001C1.78 5.8938 2.32621 6.44001 3 6.44001ZM3 19L3 17C3 16.4477 3.44772 16 4 16H6M3 19C2.32621 19 1.78 19.5462 1.78 20.22C1.78 20.8938 2.32621 21.44 3 21.44C3.67379 21.44 4.22001 20.8938 4.22001 20.22C4.22001 19.5462 3.67379 19 3 19ZM3.44001 13H6M3.44001 13C3.44001 13.6738 2.89379 14.22 2.22 14.22C1.54622 14.22 1 13.6738 1 13C1 12.3262 1.54622 11.78 2.22 11.78C2.89379 11.78 3.44001 12.3262 3.44001 13ZM21 6.44001V9C21 9.55228 20.5523 10 20 10H18M21 6.44001C20.3262 6.44001 19.78 5.8938 19.78 5.22001C19.78 4.54621 20.3262 4 21 4C21.6738 4 22.22 4.54621 22.22 5.22001C22.22 5.8938 21.6738 6.44001 21 6.44001ZM21 19V17C21 16.4477 20.5523 16 20 16H18M21 19C21.6738 19 22.22 19.5462 22.22 20.22C22.22 20.8938 21.6738 21.44 21 21.44C20.3262 21.44 19.78 20.8938 19.78 20.22C19.78 19.5462 20.3262 19 21 19ZM20.56 13H18M20.56 13C20.56 13.6738 21.1062 14.22 21.78 14.22C22.4538 14.22 23 13.6738 23 13C23 12.3262 22.4538 11.78 21.78 11.78C21.1062 11.78 20.56 12.3262 20.56 13ZM14 13.2273C14 14.357 13.1046 15.2727 12 15.2727C10.8954 15.2727 10 14.357 10 13.2273C10 12.0976 10.8954 11.1818 12 11.1818C13.1046 11.1818 14 12.0976 14 13.2273ZM7 8.45457H17C17.5523 8.45457 18 8.90228 18 9.45457V17C18 17.5523 17.5523 18 17 18H7C6.44772 18 6 17.5523 6 17V9.45457C6 8.90228 6.44772 8.45457 7 8.45457Z" stroke="black" stroke-width="1.5" stroke-linecap="round"/>
</svg>
