<svg width="24" height="24" viewBox="0 0 24 24" fill="none" xmlns="http://www.w3.org/2000/svg">
<g clip-path="url(#clip0_1607_7991)">
<path d="M17.3635 11.0803V6.83442C17.3635 6.56845 17.2576 6.31343 17.0691 6.12577L12.2134 1.29135C12.026 1.10476 11.7723 1 11.5079 1L1.99988 1.00002C1.44759 1.00002 0.999879 1.44773 0.999879 2.00002L0.999878 18C0.999878 18.5523 1.44759 19 1.99988 19H13M17.3636 7.29999H11.1C11.0448 7.29999 11 7.25522 11 7.19999V1M4.63622 6.95978H8.70789M4.63622 11.1799H10.7271M4.63622 15.4H8.72713M15.5 15.3637V13.4545C15.5 12.0989 16.6193 11 18 11C19.3807 11 20.5 12.0989 20.5 13.4545V15.3637M19.6667 19.1818C19.6667 20.0856 18.9205 20.8182 18 20.8182C17.0795 20.8182 16.3333 20.0856 16.3333 19.1818C16.3333 18.2781 17.0795 17.5455 18 17.5455C18.9205 17.5455 19.6667 18.2781 19.6667 19.1818ZM14 15.3637H22C22.5523 15.3637 23 15.8114 23 16.3637V22C23 22.5523 22.5523 23 22 23H14C13.4477 23 13 22.5523 13 22V16.3637C13 15.8114 13.4477 15.3637 14 15.3637Z" stroke="black" stroke-width="1.5" stroke-linecap="round"/>
</g>
<defs>
<clipPath id="clip0_1607_7991">
<rect width="24" height="24" fill="white"/>
</clipPath>
</defs>
</svg>
