<svg width="24" height="24" viewBox="0 0 24 24" fill="none" xmlns="http://www.w3.org/2000/svg">
<path d="M7.50001 8.78119V5.5C7.50001 3.01472 9.51473 1 12 1C14.4853 1 16.5 3.01472 16.5 5.5V8.78119M4 23H20C20.5523 23 21 22.5523 21 22V10C21 9.44776 20.5523 9.00005 20 9.00005H4C3.44772 9.00005 3 9.44776 3 10V22C3 22.5523 3.44772 23 4 23ZM15 16C15 17.6569 13.6569 19 12 19C10.3431 19 9 17.6569 9 16C9 14.3432 10.3431 13 12 13C13.6569 13 15 14.3432 15 16Z" stroke="black" stroke-width="1.5" stroke-linecap="round"/>
</svg>
