<svg width="24" height="24" viewBox="0 0 24 24" fill="none" xmlns="http://www.w3.org/2000/svg">
<path d="M18.9297 19C19.6104 17.8233 20 16.4571 20 15V9C20 7.54285 19.6104 6.17669 18.9297 5M8 21.9297C9.17669 22.6104 10.5429 23 12 23C13.4571 23 14.8233 22.6104 16 21.9297M4.58152 18C4.20651 17.0736 4 16.0609 4 15L4 9C4 4.58172 7.58172 1 12 1C13.4571 1 14.8233 1.38958 16 2.07026M7 9L7 15C7 17.7614 9.23858 20 12 20C13.1258 20 14.1647 19.6279 15.0005 19M10 14V10C10 8.89543 10.8954 8 12 8M14 10V14C14 15.1046 13.1046 16 12 16M17 15V9C17 6.23858 14.7614 4 12 4C11.2889 4 10.6125 4.14845 10 4.41604" stroke="black" stroke-width="1.5" stroke-linecap="round" stroke-linejoin="round"/>
</svg>
