<svg width="24" height="24" viewBox="0 0 24 24" fill="none" xmlns="http://www.w3.org/2000/svg">
<path d="M2 8V5C2 2.79086 3.79086 1 6 1C8.20914 1 10 2.79086 10 5V9M8 22H22C22.5523 22 23 21.5605 23 21.0184V9.98159C23 9.43947 22.5523 9 22 9H8C7.44772 9 7 9.43947 7 9.98159V21.0184C7 21.5605 7.44772 22 8 22ZM17 15.5C17 16.6046 16.1046 17.5 15 17.5C13.8954 17.5 13 16.6046 13 15.5C13 14.3954 13.8954 13.5 15 13.5C16.1046 13.5 17 14.3954 17 15.5Z" stroke="black" stroke-width="1.5" stroke-linecap="round" stroke-linejoin="round"/>
</svg>
