<svg width="24" height="24" viewBox="0 0 24 24" fill="none" xmlns="http://www.w3.org/2000/svg">
<path fill-rule="evenodd" clip-rule="evenodd" d="M13 2C13 1.44772 12.5523 1 12 1H6C5.44772 1 5 1.44772 5 2V8C5 8.55228 5.44772 9 6 9H12C12.5523 9 13 8.55228 13 8V2ZM10.6001 5.74988C11.0143 5.74987 11.3501 5.41407 11.3501 4.99985C11.3501 4.58564 11.0143 4.24987 10.6001 4.24988L9.75 4.2499V3.39998C9.75 2.98576 9.41421 2.64998 9 2.64998C8.58579 2.64998 8.25 2.98576 8.25 3.39998V4.24995L7.39996 4.24998C6.98575 4.24999 6.64997 4.58579 6.64998 5C6.64999 5.41421 6.98579 5.74999 7.40001 5.74998L8.25 5.74995V6.59998C8.25 7.01419 8.58579 7.34998 9 7.34998C9.41421 7.34998 9.75 7.01419 9.75 6.59998V5.7499L10.6001 5.74988Z" fill="black"/>
<path fill-rule="evenodd" clip-rule="evenodd" d="M3.5 5H3C2.44772 5 2 5.44772 2 6V22.25H1C0.585786 22.25 0.25 22.5858 0.25 23C0.25 23.4142 0.585786 23.75 1 23.75H23C23.4142 23.75 23.75 23.4142 23.75 23C23.75 22.5858 23.4142 22.25 23 22.25H22V11C22 10.4477 21.5523 10 21 10H17V22.25H16V6C16 5.44772 15.5523 5 15 5H14.5V8C14.5 9.38071 13.3807 10.5 12 10.5H6C4.61929 10.5 3.5 9.38071 3.5 8V5ZM11 17V22.25H7V17C7 16.4477 7.44772 16 8 16H10C10.5523 16 11 16.4477 11 17ZM13.75 13.0001C13.75 12.5858 13.4142 12.2501 13 12.2501C12.5858 12.2501 12.25 12.5858 12.25 13.0001V13.0318C12.25 13.446 12.5858 13.7818 13 13.7818C13.4142 13.7818 13.75 13.446 13.75 13.0318V13.0001ZM5 12.2501C5.41421 12.2501 5.75 12.5858 5.75 13.0001V13.0318C5.75 13.446 5.41421 13.7818 5 13.7818C4.58579 13.7818 4.25 13.446 4.25 13.0318V13.0001C4.25 12.5858 4.58579 12.2501 5 12.2501ZM9.75 13.0001C9.75 12.5858 9.41421 12.2501 9 12.2501C8.58579 12.2501 8.25 12.5858 8.25 13.0001V13.0318C8.25 13.446 8.58579 13.7818 9 13.7818C9.41421 13.7818 9.75 13.446 9.75 13.0318V13.0001Z" fill="black"/>
</svg>
