<svg width="24" height="24" viewBox="0 0 24 24" fill="none" xmlns="http://www.w3.org/2000/svg">
<g clip-path="url(#clip0_1607_10502)">
<path fill-rule="evenodd" clip-rule="evenodd" d="M15.9699 0.25C14.7352 0.25 13.8888 1.49414 14.3422 2.64258L14.9922 4.28928L14.9954 4.29718L15.2637 4.95479C15.2246 5.13029 15.204 5.31274 15.204 5.5C15.204 6.88071 16.3233 8 17.704 8C19.0847 8 20.204 6.88071 20.204 5.5C20.204 5.28695 20.1774 5.08013 20.1272 4.88268L20.3999 4.32587L21.0981 2.68519C21.5892 1.53094 20.7422 0.25 19.4878 0.25H15.9699ZM19.1408 3.45387L19.7178 2.09788C19.788 1.93299 19.667 1.75 19.4878 1.75H15.9699C15.7935 1.75 15.6726 1.92774 15.7374 2.0918L16.2734 3.44956C16.6787 3.16622 17.172 3 17.704 3C18.2388 3 18.7343 3.1679 19.1408 3.45387Z" fill="black"/>
<path fill-rule="evenodd" clip-rule="evenodd" d="M1.75 9C1.75 8.58579 1.41421 8.25 1 8.25C0.585786 8.25 0.25 8.58579 0.25 9V21C0.25 21.4142 0.585787 21.75 1 21.75L3.25 21.75V23C3.25 23.4142 3.58579 23.75 4 23.75C4.41421 23.75 4.75 23.4142 4.75 23V21.75L19.25 21.75V23C19.25 23.4142 19.5858 23.75 20 23.75C20.4142 23.75 20.75 23.4142 20.75 23V21.75L23 21.75C23.4142 21.75 23.75 21.4142 23.75 21V17C23.75 16.0561 23.4747 15.1765 23 14.4372L23 13.874C23 11.1822 20.7256 9 17.92 9C15.7078 9 13.826 10.3566 13.1288 12.25H11C10.0335 12.25 9.25 13.0335 9.25 14V17H9.02361C9.00808 17 8.99277 16.9964 8.97889 16.9894L6.4324 15.7162C7.74576 15.5088 8.75 14.3717 8.75 13C8.75 11.4812 7.51878 10.25 6 10.25C4.48122 10.25 3.25 11.4812 3.25 13C3.25 13.4636 3.36474 13.9005 3.56737 14.2837L1.75 13.375V9ZM12.25 13.75H11C10.8619 13.75 10.75 13.8619 10.75 14V17.5C10.75 17.6381 10.8619 17.75 11 17.75L12.25 17.75V13.75ZM13.75 17.75V13.75H19C20.7949 13.75 22.25 15.2051 22.25 17V17.75L13.75 17.75ZM6 14.25C5.30964 14.25 4.75 13.6904 4.75 13C4.75 12.3096 5.30964 11.75 6 11.75C6.69036 11.75 7.25 12.3096 7.25 13C7.25 13.6904 6.69036 14.25 6 14.25Z" fill="black"/>
</g>
<defs>
<clipPath id="clip0_1607_10502">
<rect width="24" height="24" fill="white"/>
</clipPath>
</defs>
</svg>
