<svg width="24" height="24" viewBox="0 0 24 24" fill="none" xmlns="http://www.w3.org/2000/svg">
<path fill-rule="evenodd" clip-rule="evenodd" d="M16 1C16.5523 1 17 1.44772 17 2V8C17 8.55228 16.5523 9 16 9H8C7.44772 9 7 8.55228 7 8V2C7 1.44772 7.44772 1 8 1H16ZM12 2.64996C12.4142 2.64996 12.75 2.98575 12.75 3.39996V4.24989L13.5996 4.24987C14.0138 4.24985 14.3496 4.58563 14.3496 4.99984C14.3496 5.41406 14.0138 5.74985 13.5996 5.74987L12.75 5.74989V6.59996C12.75 7.01418 12.4142 7.34996 12 7.34996C11.5858 7.34996 11.25 7.01418 11.25 6.59996V5.74994L10.3995 5.74996C9.9853 5.74998 9.64951 5.4142 9.64949 4.99999C9.64948 4.58577 9.98526 4.24998 10.3995 4.24996L11.25 4.24994V3.39996C11.25 2.98575 11.5858 2.64996 12 2.64996Z" fill="black"/>
<path fill-rule="evenodd" clip-rule="evenodd" d="M5.5 5H5C4.44772 5 4 5.44772 4 6V22.25H1C0.585786 22.25 0.25 22.5858 0.25 23C0.25 23.4142 0.585786 23.75 1 23.75H23C23.4142 23.75 23.75 23.4142 23.75 23C23.75 22.5858 23.4142 22.25 23 22.25H20V6C20 5.44772 19.5523 5 19 5H18.5V8C18.5 9.38071 17.3807 10.5 16 10.5H8C6.61929 10.5 5.5 9.38071 5.5 8V5ZM14 18V22.25H10V18C10 17.4477 10.4477 17 11 17H13C13.5523 17 14 17.4477 14 18ZM16.75 13.0001C16.75 12.5858 16.4142 12.2501 16 12.2501C15.5858 12.2501 15.25 12.5858 15.25 13.0001V13.0318C15.25 13.446 15.5858 13.7818 16 13.7818C16.4142 13.7818 16.75 13.446 16.75 13.0318V13.0001ZM8 12.2501C8.41421 12.2501 8.75 12.5858 8.75 13.0001V13.0318C8.75 13.446 8.41421 13.7818 8 13.7818C7.58579 13.7818 7.25 13.446 7.25 13.0318V13.0001C7.25 12.5858 7.58579 12.2501 8 12.2501ZM12.75 13.0001C12.75 12.5858 12.4142 12.2501 12 12.2501C11.5858 12.2501 11.25 12.5858 11.25 13.0001V13.0318C11.25 13.446 11.5858 13.7818 12 13.7818C12.4142 13.7818 12.75 13.446 12.75 13.0318V13.0001Z" fill="black"/>
</svg>
