<svg width="24" height="24" viewBox="0 0 24 24" fill="none" xmlns="http://www.w3.org/2000/svg">
<path fill-rule="evenodd" clip-rule="evenodd" d="M12 9C14.2091 9 16 7.20914 16 5C16 2.79086 14.2091 1 12 1C9.79086 1 8 2.79086 8 5C8 7.20914 9.79086 9 12 9ZM13.6001 5.74988C14.0143 5.74987 14.3501 5.41407 14.3501 4.99985C14.3501 4.58564 14.0143 4.24987 13.6001 4.24988L12.75 4.2499V3.39998C12.75 2.98576 12.4142 2.64998 12 2.64998C11.5858 2.64998 11.25 2.98576 11.25 3.39998V4.24995L10.4 4.24998C9.98575 4.24999 9.64997 4.58579 9.64998 5C9.64999 5.41421 9.98579 5.74999 10.4 5.74998L11.25 5.74995V6.59998C11.25 7.01419 11.5858 7.34998 12 7.34998C12.4142 7.34998 12.75 7.01419 12.75 6.59998V5.7499L13.6001 5.74988Z" fill="black"/>
<path fill-rule="evenodd" clip-rule="evenodd" d="M12 10.5C15.0376 10.5 17.5 8.03757 17.5 5H20C20.5523 5 21 5.44772 21 6V22.25H23C23.4142 22.25 23.75 22.5858 23.75 23C23.75 23.4142 23.4142 23.75 23 23.75H1C0.585786 23.75 0.25 23.4142 0.25 23C0.25 22.5858 0.585786 22.25 1 22.25H3V6C3 5.44772 3.44772 5 4 5H6.5C6.5 8.03757 8.96243 10.5 12 10.5ZM14 18V22.25H10V18C10 17.4477 10.4477 17 11 17H13C13.5523 17 14 17.4477 14 18ZM6.75 13.0001C6.75 12.5858 6.41421 12.2501 6 12.2501C5.58579 12.2501 5.25 12.5858 5.25 13.0001V13.0318C5.25 13.446 5.58579 13.7818 6 13.7818C6.41421 13.7818 6.75 13.446 6.75 13.0318V13.0001ZM6 17.25C6.41421 17.25 6.75 17.5858 6.75 18V18.0318C6.75 18.446 6.41421 18.7818 6 18.7818C5.58579 18.7818 5.25 18.446 5.25 18.0318V18C5.25 17.5858 5.58579 17.25 6 17.25ZM18.75 13.0001C18.75 12.5858 18.4142 12.2501 18 12.2501C17.5858 12.2501 17.25 12.5858 17.25 13.0001V13.0318C17.25 13.446 17.5858 13.7818 18 13.7818C18.4142 13.7818 18.75 13.446 18.75 13.0318V13.0001ZM18 17.25C18.4142 17.25 18.75 17.5858 18.75 18V18.0318C18.75 18.446 18.4142 18.7818 18 18.7818C17.5858 18.7818 17.25 18.446 17.25 18.0318V18C17.25 17.5858 17.5858 17.25 18 17.25ZM12.75 13.0001C12.75 12.5858 12.4142 12.2501 12 12.2501C11.5858 12.2501 11.25 12.5858 11.25 13.0001V13.0318C11.25 13.446 11.5858 13.7818 12 13.7818C12.4142 13.7818 12.75 13.446 12.75 13.0318V13.0001Z" fill="black"/>
</svg>
