<svg width="24" height="24" viewBox="0 0 24 24" fill="none" xmlns="http://www.w3.org/2000/svg">
<path d="M10.604 4.71351V3.79932H11.3293C11.5818 3.79932 11.7864 4.00397 11.7864 4.25641C11.7864 4.50886 11.5818 4.71351 11.3293 4.71351H10.604Z" fill="black"/>
<path fill-rule="evenodd" clip-rule="evenodd" d="M6 2C6 1.44772 6.44772 1 7 1H17C17.5523 1 18 1.44772 18 2V10C18 10.5523 17.5523 11 17 11H7C6.44772 11 5.99956 10.5523 5.99956 10L6 2ZM9.104 3.5858C9.104 2.8753 9.67998 2.29932 10.3905 2.29932H11.3293C12.4102 2.29932 13.2864 3.17554 13.2864 4.25641C13.2864 5.00716 12.8637 5.65918 12.2433 5.98743L12.9388 6.68293L13.6156 6.00616C13.9085 5.71326 14.3833 5.71326 14.6762 6.00616C14.9691 6.29905 14.9691 6.77392 14.6762 7.06682L13.9995 7.74359L14.6762 8.42035C14.9691 8.71325 14.9691 9.18812 14.6762 9.48101C14.3833 9.77391 13.9085 9.77391 13.6156 9.48101L12.9388 8.80425L12.262 9.48101C11.9691 9.77391 11.4943 9.77391 11.2014 9.48101C10.9085 9.18812 10.9085 8.71325 11.2014 8.42035L11.8781 7.74359L10.604 6.46944V7.60946C10.604 8.02368 10.2682 8.35946 9.854 8.35946C9.43979 8.35946 9.104 8.02368 9.104 7.60946V3.5858Z" fill="black"/>
<path fill-rule="evenodd" clip-rule="evenodd" d="M3 15.5V22.25H1C0.585786 22.25 0.25 22.5858 0.25 23C0.25 23.4142 0.585786 23.75 1 23.75H23C23.4142 23.75 23.75 23.4142 23.75 23C23.75 22.5858 23.4142 22.25 23 22.25H21V15.5H3ZM9 17L11.25 17V22.25H8V18C8 17.4477 8.44772 17 9 17ZM16 18V22.25H12.75V17L15 17C15.5523 17 16 17.4477 16 18Z" fill="black"/>
<path d="M3.84674 8H4.49956V10C4.49956 11.3807 5.61884 12.5 6.99956 12.5H16.9996C18.3803 12.5 19.4996 11.3807 19.4996 10V8H20.1525C20.6413 8 21.0585 8.35342 21.1389 8.83561L21.9802 13.8836C21.9903 13.9445 21.9433 14 21.8815 14H2.1176C2.05581 14 2.0088 13.9445 2.01896 13.8836L2.86035 8.83559C2.94072 8.35341 3.35791 8 3.84674 8Z" fill="black"/>
</svg>
