<svg width="24" height="24" viewBox="0 0 24 24" fill="none" xmlns="http://www.w3.org/2000/svg">
<path fill-rule="evenodd" clip-rule="evenodd" d="M23 5.9999V5.70033C23 5.27982 22.7369 4.90424 22.3417 4.76054L12.3417 1.12417C12.121 1.0439 11.879 1.0439 11.6583 1.12417L1.65826 4.76054C1.26307 4.90424 1 5.27982 1 5.70033V5.9999C1 6.55219 1.44772 6.9999 2 6.9999H3.25V17.3387C3.09447 17.5149 3.00011 17.7464 3.00011 18V19.25H21.0001V18C21.0001 17.7463 20.9057 17.5147 20.75 17.3384V6.9999H22C22.5523 6.9999 23 6.55219 23 5.9999ZM19.25 17V6.9999H15.75V17H19.25ZM14.25 17V6.9999H9.75V17H14.25ZM8.25 17V6.9999H4.75V17H8.25ZM12.75 3.99995C12.75 3.58574 12.4142 3.24995 12 3.24995C11.5858 3.24995 11.25 3.58574 11.25 3.99995V4.03168C11.25 4.44589 11.5858 4.78168 12 4.78168C12.4142 4.78168 12.75 4.44589 12.75 4.03168V3.99995Z" fill="black"/>
<path d="M2.03657 21.4453L2.50011 20.75H21.5001L21.9636 21.4453C22.4067 22.1099 21.9303 23 21.1316 23H2.86862C2.06993 23 1.59354 22.1099 2.03657 21.4453Z" fill="black"/>
</svg>
