<svg width="24" height="24" viewBox="0 0 24 24" fill="none" xmlns="http://www.w3.org/2000/svg">
<g clip-path="url(#clip0_1607_9276)">
<path d="M12 3C8.13401 3 5 6.13401 5 10V12.9083C5 12.9589 5.04107 13 5.09174 13H18.9083C18.9589 13 19 12.9589 19 12.9083V10C19 6.13401 15.866 3 12 3ZM12 3V1H13M20 9L4 9M9 19V23M12 19V23M15 19V23M2 13H22C22.5523 13 23 13.4477 23 14V22C23 22.5523 22.5523 23 22 23H2C1.44772 23 1 22.5523 1 22V14C1 13.4477 1.44772 13 2 13ZM7.22261 18.8219L11.9375 15.05C11.9741 15.0208 12.0259 15.0208 12.0625 15.05L16.7774 18.8219C16.8512 18.881 16.8094 19 16.7149 19H7.28508C7.19055 19 7.14879 18.881 7.22261 18.8219Z" stroke="black" stroke-width="1.5" stroke-linecap="round" stroke-linejoin="round"/>
</g>
<defs>
<clipPath id="clip0_1607_9276">
<rect width="24" height="24" fill="white"/>
</clipPath>
</defs>
</svg>
