<svg width="24" height="24" viewBox="0 0 24 24" fill="none" xmlns="http://www.w3.org/2000/svg">
<path d="M14 22V17C14 16.4477 13.5523 16 13 16H11C10.4477 16 10 16.4477 10 17V22M1 22H23M16 13.4683V13.5M8 13.4683V13.5M12 13.4683V13.5M13.5996 5.9998L12 5.99985M12 5.99985L10.3995 5.9999M12 5.99985V7.5999M12 5.99985V4.3999M21 22V8C21 7.44772 20.5523 7 20 7H17M3 22V8C3 7.44772 3.44772 7 4 7H7M7 3V9C7 9.55228 7.44772 10 8 10H16C16.5523 10 17 9.55228 17 9V3C17 2.44772 16.5523 2 16 2H8C7.44772 2 7 2.44772 7 3Z" stroke="black" stroke-width="1.5" stroke-linecap="round"/>
</svg>
