<svg width="24" height="24" viewBox="0 0 24 24" fill="none" xmlns="http://www.w3.org/2000/svg">
<g clip-path="url(#clip0_1607_9298)">
<path d="M21.25 14.3541C21.25 14.7684 21.5858 15.1041 22 15.1041C22.4142 15.1041 22.75 14.7684 22.75 14.3541H21.25ZM15.106 4.57049C15.2585 4.95558 15.6944 5.14408 16.0795 4.99151C16.4646 4.83894 16.6531 4.40308 16.5005 4.01799L15.106 4.57049ZM15.0398 2.36719L14.3422 2.64258L14.3425 2.64344L15.0398 2.36719ZM20.4079 2.39154L19.7178 2.09788L19.7155 2.10345L20.4079 2.39154ZM18.9186 4.01888C18.7595 4.40132 18.9405 4.84033 19.323 4.99943C19.7054 5.15854 20.1444 4.97749 20.3035 4.59505L18.9186 4.01888ZM1.75 9C1.75 8.58579 1.41421 8.25 1 8.25C0.585786 8.25 0.25 8.58579 0.25 9H1.75ZM1 21H0.25C0.25 21.4142 0.585786 21.75 1 21.75L1 21ZM13.75 13C13.75 12.5858 13.4142 12.25 13 12.25C12.5858 12.25 12.25 12.5858 12.25 13H13.75ZM12.25 18C12.25 18.4142 12.5858 18.75 13 18.75C13.4142 18.75 13.75 18.4142 13.75 18H12.25ZM20.75 21C20.75 20.5858 20.4142 20.25 20 20.25C19.5858 20.25 19.25 20.5858 19.25 21H20.75ZM19.25 23C19.25 23.4142 19.5858 23.75 20 23.75C20.4142 23.75 20.75 23.4142 20.75 23H19.25ZM4.75 21C4.75 20.5858 4.41421 20.25 4 20.25C3.58579 20.25 3.25 20.5858 3.25 21H4.75ZM3.25 23C3.25 23.4142 3.58579 23.75 4 23.75C4.41421 23.75 4.75 23.4142 4.75 23H3.25ZM23 17L23.75 17L23.75 17L23 17ZM11 18.5L11 19.25H11V18.5ZM9.00254 16.9895L8.66792 17.6607L9.00254 16.9895ZM19.102 5.29634C19.102 6.06852 18.476 6.69449 17.7038 6.69449V8.19449C19.3044 8.19449 20.602 6.89694 20.602 5.29634H19.102ZM17.7038 6.69449C16.9316 6.69449 16.3057 6.06852 16.3057 5.29634H14.8057C14.8057 6.89694 16.1032 8.19449 17.7038 8.19449V6.69449ZM16.3057 5.29634C16.3057 4.52417 16.9316 3.89819 17.7038 3.89819V2.39819C16.1032 2.39819 14.8057 3.69574 14.8057 5.29634H16.3057ZM17.7038 3.89819C18.476 3.89819 19.102 4.52417 19.102 5.29634H20.602C20.602 3.69574 19.3044 2.39819 17.7038 2.39819V3.89819ZM17.7037 10.3426C19.6622 10.3426 21.25 11.9303 21.25 13.8889H22.75C22.75 11.1019 20.4907 8.84259 17.7037 8.84259V10.3426ZM21.25 13.8889V14.3541H22.75V13.8889H21.25ZM16.5005 4.01799L15.737 2.09094L14.3425 2.64344L15.106 4.57049L16.5005 4.01799ZM19.7155 2.10345L18.9186 4.01888L20.3035 4.59505L21.1004 2.67962L19.7155 2.10345ZM19.4878 1.75C19.667 1.75 19.788 1.93299 19.7178 2.09788L21.0981 2.68519C21.5892 1.53094 20.7422 0.25 19.4878 0.25V1.75ZM15.9699 0.25C14.7352 0.25 13.8888 1.49414 14.3422 2.64258L15.7374 2.0918C15.6726 1.92774 15.7935 1.75 15.9699 1.75V0.25ZM7.25 13C7.25 13.6904 6.69036 14.25 6 14.25L6 15.75C7.51878 15.75 8.75 14.5188 8.75 13L7.25 13ZM6 11.75C6.69036 11.75 7.25 12.3096 7.25 13L8.75 13C8.75 11.4812 7.51878 10.25 6 10.25L6 11.75ZM4.75 13C4.75 12.3096 5.30964 11.75 6 11.75L6 10.25C4.48122 10.25 3.25 11.4812 3.25 13L4.75 13ZM3.25 13C3.25 14.5188 4.48122 15.75 6 15.75L6 14.25C5.30964 14.25 4.75 13.6904 4.75 13L3.25 13ZM0.25 9V21H1.75V9H0.25ZM12.25 13V18H13.75V13H12.25ZM19.25 21V23H20.75V21H19.25ZM3.25 21V23H4.75V21H3.25ZM0.66538 13.6712L8.66792 17.6607L9.33716 16.3183L1.33462 12.3288L0.66538 13.6712ZM9.04715 17.75H10V16.25H9.04715V17.75ZM9.25 14V17.5H10.75V14H9.25ZM11 19.25H23V17.75H11V19.25ZM9.25 17.5C9.25 18.4665 10.0335 19.25 11 19.25L11 17.75C10.8619 17.75 10.75 17.6381 10.75 17.5H9.25ZM10.75 14C10.75 13.8619 10.8619 13.75 11 13.75V12.25C10.0335 12.25 9.25 13.0335 9.25 14H10.75ZM23.75 17C23.75 14.3766 21.6234 12.25 19 12.25V13.75C20.7949 13.75 22.25 15.2051 22.25 17L23.75 17ZM15.9699 1.75H19.4878V0.25H15.9699V1.75ZM19 12.25H13.5V13.75H19V12.25ZM13.5 12.25H11V13.75H13.5V12.25ZM17.7037 8.84259C15.3011 8.84259 13.2949 10.5526 12.7692 12.8314L14.2308 13.1686C14.6082 11.5328 16.0376 10.3426 17.7037 10.3426V8.84259ZM22.25 17C22.25 17.0025 22.25 17.0051 22.25 17.0076C22.25 17.0102 22.25 17.0127 22.25 17.0152C22.25 17.0178 22.25 17.0203 22.25 17.0229C22.25 17.0254 22.25 17.0279 22.25 17.0305C22.25 17.033 22.25 17.0355 22.25 17.0381C22.25 17.0406 22.25 17.0432 22.25 17.0457C22.25 17.0482 22.25 17.0508 22.25 17.0533C22.25 17.0559 22.25 17.0584 22.25 17.0609C22.25 17.0635 22.25 17.066 22.25 17.0686C22.25 17.0711 22.25 17.0736 22.25 17.0762C22.25 17.0787 22.25 17.0813 22.25 17.0838C22.25 17.0863 22.25 17.0889 22.25 17.0914C22.25 17.0939 22.25 17.0965 22.25 17.099C22.25 17.1016 22.25 17.1041 22.25 17.1066C22.25 17.1092 22.25 17.1117 22.25 17.1143C22.25 17.1168 22.25 17.1193 22.25 17.1219C22.25 17.1244 22.25 17.127 22.25 17.1295C22.25 17.132 22.25 17.1346 22.25 17.1371C22.25 17.1396 22.25 17.1422 22.25 17.1447C22.25 17.1473 22.25 17.1498 22.25 17.1523C22.25 17.1549 22.25 17.1574 22.25 17.16C22.25 17.1625 22.25 17.165 22.25 17.1676C22.25 17.1701 22.25 17.1727 22.25 17.1752C22.25 17.1777 22.25 17.1803 22.25 17.1828C22.25 17.1854 22.25 17.1879 22.25 17.1904C22.25 17.193 22.25 17.1955 22.25 17.198C22.25 17.2006 22.25 17.2031 22.25 17.2057C22.25 17.2082 22.25 17.2107 22.25 17.2133C22.25 17.2158 22.25 17.2184 22.25 17.2209C22.25 17.2234 22.25 17.226 22.25 17.2285C22.25 17.2311 22.25 17.2336 22.25 17.2361C22.25 17.2387 22.25 17.2412 22.25 17.2438C22.25 17.2463 22.25 17.2488 22.25 17.2514C22.25 17.2539 22.25 17.2564 22.25 17.259C22.25 17.2615 22.25 17.2641 22.25 17.2666C22.25 17.2691 22.25 17.2717 22.25 17.2742C22.25 17.2768 22.25 17.2793 22.25 17.2818C22.25 17.2844 22.25 17.2869 22.25 17.2895C22.25 17.292 22.25 17.2945 22.25 17.2971C22.25 17.2996 22.25 17.3021 22.25 17.3047C22.25 17.3072 22.25 17.3098 22.25 17.3123C22.25 17.3148 22.25 17.3174 22.25 17.3199C22.25 17.3225 22.25 17.325 22.25 17.3275C22.25 17.3301 22.25 17.3326 22.25 17.3352C22.25 17.3377 22.25 17.3402 22.25 17.3428C22.25 17.3453 22.25 17.3479 22.25 17.3504C22.25 17.3529 22.25 17.3555 22.25 17.358C22.25 17.3605 22.25 17.3631 22.25 17.3656C22.25 17.3682 22.25 17.3707 22.25 17.3732C22.25 17.3758 22.25 17.3783 22.25 17.3809C22.25 17.3834 22.25 17.3859 22.25 17.3885C22.25 17.391 22.25 17.3936 22.25 17.3961C22.25 17.3986 22.25 17.4012 22.25 17.4037C22.25 17.4063 22.25 17.4088 22.25 17.4113C22.25 17.4139 22.25 17.4164 22.25 17.4189C22.25 17.4215 22.25 17.424 22.25 17.4266C22.25 17.4291 22.25 17.4316 22.25 17.4342C22.25 17.4367 22.25 17.4393 22.25 17.4418C22.25 17.4443 22.25 17.4469 22.25 17.4494C22.25 17.452 22.25 17.4545 22.25 17.457C22.25 17.4596 22.25 17.4621 22.25 17.4646C22.25 17.4672 22.25 17.4697 22.25 17.4723C22.25 17.4748 22.25 17.4773 22.25 17.4799C22.25 17.4824 22.25 17.485 22.25 17.4875C22.25 17.49 22.25 17.4926 22.25 17.4951C22.25 17.4977 22.25 17.5002 22.25 17.5027C22.25 17.5053 22.25 17.5078 22.25 17.5104C22.25 17.5129 22.25 17.5154 22.25 17.518C22.25 17.5205 22.25 17.523 22.25 17.5256C22.25 17.5281 22.25 17.5307 22.25 17.5332C22.25 17.5357 22.25 17.5383 22.25 17.5408C22.25 17.5434 22.25 17.5459 22.25 17.5484C22.25 17.551 22.25 17.5535 22.25 17.5561C22.25 17.5586 22.25 17.5611 22.25 17.5637C22.25 17.5662 22.25 17.5688 22.25 17.5713C22.25 17.5738 22.25 17.5764 22.25 17.5789C22.25 17.5814 22.25 17.584 22.25 17.5865C22.25 17.5891 22.25 17.5916 22.25 17.5941C22.25 17.5967 22.25 17.5992 22.25 17.6018C22.25 17.6043 22.25 17.6068 22.25 17.6094C22.25 17.6119 22.25 17.6145 22.25 17.617C22.25 17.6195 22.25 17.6221 22.25 17.6246C22.25 17.6271 22.25 17.6297 22.25 17.6322C22.25 17.6348 22.25 17.6373 22.25 17.6398C22.25 17.6424 22.25 17.6449 22.25 17.6475C22.25 17.65 22.25 17.6525 22.25 17.6551C22.25 17.6576 22.25 17.6602 22.25 17.6627C22.25 17.6652 22.25 17.6678 22.25 17.6703C22.25 17.6729 22.25 17.6754 22.25 17.6779C22.25 17.6805 22.25 17.683 22.25 17.6855C22.25 17.6881 22.25 17.6906 22.25 17.6932C22.25 17.6957 22.25 17.6982 22.25 17.7008C22.25 17.7033 22.25 17.7059 22.25 17.7084C22.25 17.7109 22.25 17.7135 22.25 17.716C22.25 17.7186 22.25 17.7211 22.25 17.7236C22.25 17.7262 22.25 17.7287 22.25 17.7313C22.25 17.7338 22.25 17.7363 22.25 17.7389C22.25 17.7414 22.25 17.7439 22.25 17.7465C22.25 17.749 22.25 17.7516 22.25 17.7541C22.25 17.7566 22.25 17.7592 22.25 17.7617C22.25 17.7643 22.25 17.7668 22.25 17.7693C22.25 17.7719 22.25 17.7744 22.25 17.777C22.25 17.7795 22.25 17.782 22.25 17.7846C22.25 17.7871 22.25 17.7896 22.25 17.7922C22.25 17.7947 22.25 17.7973 22.25 17.7998C22.25 17.8023 22.25 17.8049 22.25 17.8074C22.25 17.81 22.25 17.8125 22.25 17.815C22.25 17.8176 22.25 17.8201 22.25 17.8227C22.25 17.8252 22.25 17.8277 22.25 17.8303C22.25 17.8328 22.25 17.8354 22.25 17.8379C22.25 17.8404 22.25 17.843 22.25 17.8455C22.25 17.848 22.25 17.8506 22.25 17.8531C22.25 17.8557 22.25 17.8582 22.25 17.8607C22.25 17.8633 22.25 17.8658 22.25 17.8684C22.25 17.8709 22.25 17.8734 22.25 17.876C22.25 17.8785 22.25 17.8811 22.25 17.8836C22.25 17.8861 22.25 17.8887 22.25 17.8912C22.25 17.8938 22.25 17.8963 22.25 17.8988C22.25 17.9014 22.25 17.9039 22.25 17.9064C22.25 17.909 22.25 17.9115 22.25 17.9141C22.25 17.9166 22.25 17.9191 22.25 17.9217C22.25 17.9242 22.25 17.9268 22.25 17.9293C22.25 17.9318 22.25 17.9344 22.25 17.9369C22.25 17.9395 22.25 17.942 22.25 17.9445C22.25 17.9471 22.25 17.9496 22.25 17.9521C22.25 17.9547 22.25 17.9572 22.25 17.9598C22.25 17.9623 22.25 17.9648 22.25 17.9674C22.25 17.9699 22.25 17.9725 22.25 17.975C22.25 17.9775 22.25 17.9801 22.25 17.9826C22.25 17.9852 22.25 17.9877 22.25 17.9902C22.25 17.9928 22.25 17.9953 22.25 17.9979C22.25 18.0004 22.25 18.0029 22.25 18.0055C22.25 18.008 22.25 18.0105 22.25 18.0131C22.25 18.0156 22.25 18.0182 22.25 18.0207C22.25 18.0232 22.25 18.0258 22.25 18.0283C22.25 18.0309 22.25 18.0334 22.25 18.0359C22.25 18.0385 22.25 18.041 22.25 18.0436C22.25 18.0461 22.25 18.0486 22.25 18.0512C22.25 18.0537 22.25 18.0563 22.25 18.0588C22.25 18.0613 22.25 18.0639 22.25 18.0664C22.25 18.0689 22.25 18.0715 22.25 18.074C22.25 18.0766 22.25 18.0791 22.25 18.0816C22.25 18.0842 22.25 18.0867 22.25 18.0893C22.25 18.0918 22.25 18.0943 22.25 18.0969C22.25 18.0994 22.25 18.102 22.25 18.1045C22.25 18.107 22.25 18.1096 22.25 18.1121C22.25 18.1146 22.25 18.1172 22.25 18.1197C22.25 18.1223 22.25 18.1248 22.25 18.1273C22.25 18.1299 22.25 18.1324 22.25 18.135C22.25 18.1375 22.25 18.14 22.25 18.1426C22.25 18.1451 22.25 18.1477 22.25 18.1502C22.25 18.1527 22.25 18.1553 22.25 18.1578C22.25 18.1604 22.25 18.1629 22.25 18.1654C22.25 18.168 22.25 18.1705 22.25 18.173C22.25 18.1756 22.25 18.1781 22.25 18.1807C22.25 18.1832 22.25 18.1857 22.25 18.1883C22.25 18.1908 22.25 18.1934 22.25 18.1959C22.25 18.1984 22.25 18.201 22.25 18.2035C22.25 18.2061 22.25 18.2086 22.25 18.2111C22.25 18.2137 22.25 18.2162 22.25 18.2188C22.25 18.2213 22.25 18.2238 22.25 18.2264C22.25 18.2289 22.25 18.2314 22.25 18.234C22.25 18.2365 22.25 18.2391 22.25 18.2416C22.25 18.2441 22.25 18.2467 22.25 18.2492C22.25 18.2518 22.25 18.2543 22.25 18.2568C22.25 18.2594 22.25 18.2619 22.25 18.2645C22.25 18.267 22.25 18.2695 22.25 18.2721C22.25 18.2746 22.25 18.2771 22.25 18.2797C22.25 18.2822 22.25 18.2848 22.25 18.2873C22.25 18.2898 22.25 18.2924 22.25 18.2949C22.25 18.2975 22.25 18.3 22.25 18.3025C22.25 18.3051 22.25 18.3076 22.25 18.3102C22.25 18.3127 22.25 18.3152 22.25 18.3178C22.25 18.3203 22.25 18.3229 22.25 18.3254C22.25 18.3279 22.25 18.3305 22.25 18.333C22.25 18.3355 22.25 18.3381 22.25 18.3406C22.25 18.3432 22.25 18.3457 22.25 18.3482C22.25 18.3508 22.25 18.3533 22.25 18.3559C22.25 18.3584 22.25 18.3609 22.25 18.3635C22.25 18.366 22.25 18.3686 22.25 18.3711C22.25 18.3736 22.25 18.3762 22.25 18.3787C22.25 18.3813 22.25 18.3838 22.25 18.3863C22.25 18.3889 22.25 18.3914 22.25 18.3939C22.25 18.3965 22.25 18.399 22.25 18.4016C22.25 18.4041 22.25 18.4066 22.25 18.4092C22.25 18.4117 22.25 18.4143 22.25 18.4168C22.25 18.4193 22.25 18.4219 22.25 18.4244C22.25 18.427 22.25 18.4295 22.25 18.432C22.25 18.4346 22.25 18.4371 22.25 18.4396C22.25 18.4422 22.25 18.4447 22.25 18.4473C22.25 18.4498 22.25 18.4523 22.25 18.4549C22.25 18.4574 22.25 18.46 22.25 18.4625C22.25 18.465 22.25 18.4676 22.25 18.4701C22.25 18.4727 22.25 18.4752 22.25 18.4777C22.25 18.4803 22.25 18.4828 22.25 18.4854C22.25 18.4879 22.25 18.4904 22.25 18.493C22.25 18.4955 22.25 18.498 22.25 18.5006C22.25 18.5031 22.25 18.5057 22.25 18.5082C22.25 18.5107 22.25 18.5133 22.25 18.5158C22.25 18.5184 22.25 18.5209 22.25 18.5234C22.25 18.526 22.25 18.5285 22.25 18.5311C22.25 18.5336 22.25 18.5361 22.25 18.5387C22.25 18.5412 22.25 18.5438 22.25 18.5463C22.25 18.5488 22.25 18.5514 22.25 18.5539C22.25 18.5564 22.25 18.559 22.25 18.5615C22.25 18.5641 22.25 18.5666 22.25 18.5691C22.25 18.5717 22.25 18.5742 22.25 18.5768C22.25 18.5793 22.25 18.5818 22.25 18.5844C22.25 18.5869 22.25 18.5895 22.25 18.592C22.25 18.5945 22.25 18.5971 22.25 18.5996C22.25 18.6021 22.25 18.6047 22.25 18.6072C22.25 18.6098 22.25 18.6123 22.25 18.6148C22.25 18.6174 22.25 18.6199 22.25 18.6225C22.25 18.625 22.25 18.6275 22.25 18.6301C22.25 18.6326 22.25 18.6352 22.25 18.6377C22.25 18.6402 22.25 18.6428 22.25 18.6453C22.25 18.6479 22.25 18.6504 22.25 18.6529C22.25 18.6555 22.25 18.658 22.25 18.6605C22.25 18.6631 22.25 18.6656 22.25 18.6682C22.25 18.6707 22.25 18.6732 22.25 18.6758C22.25 18.6783 22.25 18.6809 22.25 18.6834C22.25 18.6859 22.25 18.6885 22.25 18.691C22.25 18.6936 22.25 18.6961 22.25 18.6986C22.25 18.7012 22.25 18.7037 22.25 18.7063C22.25 18.7088 22.25 18.7113 22.25 18.7139C22.25 18.7164 22.25 18.7189 22.25 18.7215C22.25 18.724 22.25 18.7266 22.25 18.7291C22.25 18.7316 22.25 18.7342 22.25 18.7367C22.25 18.7393 22.25 18.7418 22.25 18.7443C22.25 18.7469 22.25 18.7494 22.25 18.752C22.25 18.7545 22.25 18.757 22.25 18.7596C22.25 18.7621 22.25 18.7646 22.25 18.7672C22.25 18.7697 22.25 18.7723 22.25 18.7748C22.25 18.7773 22.25 18.7799 22.25 18.7824C22.25 18.785 22.25 18.7875 22.25 18.79C22.25 18.7926 22.25 18.7951 22.25 18.7977C22.25 18.8002 22.25 18.8027 22.25 18.8053C22.25 18.8078 22.25 18.8104 22.25 18.8129C22.25 18.8154 22.25 18.818 22.25 18.8205C22.25 18.823 22.25 18.8256 22.25 18.8281C22.25 18.8307 22.25 18.8332 22.25 18.8357C22.25 18.8383 22.25 18.8408 22.25 18.8434C22.25 18.8459 22.25 18.8484 22.25 18.851C22.25 18.8535 22.25 18.8561 22.25 18.8586C22.25 18.8611 22.25 18.8637 22.25 18.8662C22.25 18.8688 22.25 18.8713 22.25 18.8738C22.25 18.8764 22.25 18.8789 22.25 18.8814C22.25 18.884 22.25 18.8865 22.25 18.8891C22.25 18.8916 22.25 18.8941 22.25 18.8967C22.25 18.8992 22.25 18.9018 22.25 18.9043C22.25 18.9068 22.25 18.9094 22.25 18.9119C22.25 18.9145 22.25 18.917 22.25 18.9195C22.25 18.9221 22.25 18.9246 22.25 18.9271C22.25 18.9297 22.25 18.9322 22.25 18.9348C22.25 18.9373 22.25 18.9398 22.25 18.9424C22.25 18.9449 22.25 18.9475 22.25 18.95C22.25 18.9525 22.25 18.9551 22.25 18.9576C22.25 18.9602 22.25 18.9627 22.25 18.9652C22.25 18.9678 22.25 18.9703 22.25 18.9729C22.25 18.9754 22.25 18.9779 22.25 18.9805C22.25 18.983 22.25 18.9855 22.25 18.9881C22.25 18.9906 22.25 18.9932 22.25 18.9957C22.25 18.9982 22.25 19.0008 22.25 19.0033C22.25 19.0059 22.25 19.0084 22.25 19.0109C22.25 19.0135 22.25 19.016 22.25 19.0186C22.25 19.0211 22.25 19.0236 22.25 19.0262C22.25 19.0287 22.25 19.0313 22.25 19.0338C22.25 19.0363 22.25 19.0389 22.25 19.0414C22.25 19.0439 22.25 19.0465 22.25 19.049C22.25 19.0516 22.25 19.0541 22.25 19.0566C22.25 19.0592 22.25 19.0617 22.25 19.0643C22.25 19.0668 22.25 19.0693 22.25 19.0719C22.25 19.0744 22.25 19.077 22.25 19.0795C22.25 19.082 22.25 19.0846 22.25 19.0871C22.25 19.0896 22.25 19.0922 22.25 19.0947C22.25 19.0973 22.25 19.0998 22.25 19.1023C22.25 19.1049 22.25 19.1074 22.25 19.11C22.25 19.1125 22.25 19.115 22.25 19.1176C22.25 19.1201 22.25 19.1227 22.25 19.1252C22.25 19.1277 22.25 19.1303 22.25 19.1328C22.25 19.1354 22.25 19.1379 22.25 19.1404C22.25 19.143 22.25 19.1455 22.25 19.148C22.25 19.1506 22.25 19.1531 22.25 19.1557C22.25 19.1582 22.25 19.1607 22.25 19.1633C22.25 19.1658 22.25 19.1684 22.25 19.1709C22.25 19.1734 22.25 19.176 22.25 19.1785C22.25 19.1811 22.25 19.1836 22.25 19.1861C22.25 19.1887 22.25 19.1912 22.25 19.1938C22.25 19.1963 22.25 19.1988 22.25 19.2014C22.25 19.2039 22.25 19.2064 22.25 19.209C22.25 19.2115 22.25 19.2141 22.25 19.2166C22.25 19.2191 22.25 19.2217 22.25 19.2242C22.25 19.2268 22.25 19.2293 22.25 19.2318C22.25 19.2344 22.25 19.2369 22.25 19.2395C22.25 19.242 22.25 19.2445 22.25 19.2471C22.25 19.2496 22.25 19.2521 22.25 19.2547C22.25 19.2572 22.25 19.2598 22.25 19.2623C22.25 19.2648 22.25 19.2674 22.25 19.2699C22.25 19.2725 22.25 19.275 22.25 19.2775C22.25 19.2801 22.25 19.2826 22.25 19.2852C22.25 19.2877 22.25 19.2902 22.25 19.2928C22.25 19.2953 22.25 19.2979 22.25 19.3004C22.25 19.3029 22.25 19.3055 22.25 19.308C22.25 19.3105 22.25 19.3131 22.25 19.3156C22.25 19.3182 22.25 19.3207 22.25 19.3232C22.25 19.3258 22.25 19.3283 22.25 19.3309C22.25 19.3334 22.25 19.3359 22.25 19.3385C22.25 19.341 22.25 19.3436 22.25 19.3461C22.25 19.3486 22.25 19.3512 22.25 19.3537C22.25 19.3563 22.25 19.3588 22.25 19.3613C22.25 19.3639 22.25 19.3664 22.25 19.3689C22.25 19.3715 22.25 19.374 22.25 19.3766C22.25 19.3791 22.25 19.3816 22.25 19.3842C22.25 19.3867 22.25 19.3893 22.25 19.3918C22.25 19.3943 22.25 19.3969 22.25 19.3994C22.25 19.402 22.25 19.4045 22.25 19.407C22.25 19.4096 22.25 19.4121 22.25 19.4146C22.25 19.4172 22.25 19.4197 22.25 19.4223C22.25 19.4248 22.25 19.4273 22.25 19.4299C22.25 19.4324 22.25 19.435 22.25 19.4375C22.25 19.44 22.25 19.4426 22.25 19.4451C22.25 19.4477 22.25 19.4502 22.25 19.4527C22.25 19.4553 22.25 19.4578 22.25 19.4604C22.25 19.4629 22.25 19.4654 22.25 19.468C22.25 19.4705 22.25 19.473 22.25 19.4756C22.25 19.4781 22.25 19.4807 22.25 19.4832C22.25 19.4857 22.25 19.4883 22.25 19.4908C22.25 19.4934 22.25 19.4959 22.25 19.4984C22.25 19.501 22.25 19.5035 22.25 19.5061C22.25 19.5086 22.25 19.5111 22.25 19.5137C22.25 19.5162 22.25 19.5188 22.25 19.5213C22.25 19.5238 22.25 19.5264 22.25 19.5289C22.25 19.5314 22.25 19.534 22.25 19.5365C22.25 19.5391 22.25 19.5416 22.25 19.5441C22.25 19.5467 22.25 19.5492 22.25 19.5518C22.25 19.5543 22.25 19.5568 22.25 19.5594C22.25 19.5619 22.25 19.5645 22.25 19.567C22.25 19.5695 22.25 19.5721 22.25 19.5746C22.25 19.5771 22.25 19.5797 22.25 19.5822C22.25 19.5848 22.25 19.5873 22.25 19.5898C22.25 19.5924 22.25 19.5949 22.25 19.5975C22.25 19.6 22.25 19.6025 22.25 19.6051C22.25 19.6076 22.25 19.6102 22.25 19.6127C22.25 19.6152 22.25 19.6178 22.25 19.6203C22.25 19.6229 22.25 19.6254 22.25 19.6279C22.25 19.6305 22.25 19.633 22.25 19.6355C22.25 19.6381 22.25 19.6406 22.25 19.6432C22.25 19.6457 22.25 19.6482 22.25 19.6508C22.25 19.6533 22.25 19.6559 22.25 19.6584C22.25 19.6609 22.25 19.6635 22.25 19.666C22.25 19.6686 22.25 19.6711 22.25 19.6736C22.25 19.6762 22.25 19.6787 22.25 19.6813C22.25 19.6838 22.25 19.6863 22.25 19.6889C22.25 19.6914 22.25 19.6939 22.25 19.6965C22.25 19.699 22.25 19.7016 22.25 19.7041C22.25 19.7066 22.25 19.7092 22.25 19.7117C22.25 19.7143 22.25 19.7168 22.25 19.7193C22.25 19.7219 22.25 19.7244 22.25 19.727C22.25 19.7295 22.25 19.732 22.25 19.7346C22.25 19.7371 22.25 19.7396 22.25 19.7422C22.25 19.7447 22.25 19.7473 22.25 19.7498C22.25 19.7523 22.25 19.7549 22.25 19.7574C22.25 19.76 22.25 19.7625 22.25 19.765C22.25 19.7676 22.25 19.7701 22.25 19.7727C22.25 19.7752 22.25 19.7777 22.25 19.7803C22.25 19.7828 22.25 19.7854 22.25 19.7879C22.25 19.7904 22.25 19.793 22.25 19.7955C22.25 19.798 22.25 19.8006 22.25 19.8031C22.25 19.8057 22.25 19.8082 22.25 19.8107C22.25 19.8133 22.25 19.8158 22.25 19.8184C22.25 19.8209 22.25 19.8234 22.25 19.826C22.25 19.8285 22.25 19.8311 22.25 19.8336C22.25 19.8361 22.25 19.8387 22.25 19.8412C22.25 19.8438 22.25 19.8463 22.25 19.8488C22.25 19.8514 22.25 19.8539 22.25 19.8564C22.25 19.859 22.25 19.8615 22.25 19.8641C22.25 19.8666 22.25 19.8691 22.25 19.8717C22.25 19.8742 22.25 19.8768 22.25 19.8793C22.25 19.8818 22.25 19.8844 22.25 19.8869C22.25 19.8895 22.25 19.892 22.25 19.8945C22.25 19.8971 22.25 19.8996 22.25 19.9021C22.25 19.9047 22.25 19.9072 22.25 19.9098C22.25 19.9123 22.25 19.9148 22.25 19.9174C22.25 19.9199 22.25 19.9225 22.25 19.925C22.25 19.9275 22.25 19.9301 22.25 19.9326C22.25 19.9352 22.25 19.9377 22.25 19.9402C22.25 19.9428 22.25 19.9453 22.25 19.9479C22.25 19.9504 22.25 19.9529 22.25 19.9555C22.25 19.958 22.25 19.9605 22.25 19.9631C22.25 19.9656 22.25 19.9682 22.25 19.9707C22.25 19.9732 22.25 19.9758 22.25 19.9783C22.25 19.9809 22.25 19.9834 22.25 19.9859C22.25 19.9885 22.25 19.991 22.25 19.9936C22.25 19.9961 22.25 19.9986 22.25 20.0012C22.25 20.0037 22.25 20.0063 22.25 20.0088C22.25 20.0113 22.25 20.0139 22.25 20.0164C22.25 20.0189 22.25 20.0215 22.25 20.024C22.25 20.0266 22.25 20.0291 22.25 20.0316C22.25 20.0342 22.25 20.0367 22.25 20.0393C22.25 20.0418 22.25 20.0443 22.25 20.0469C22.25 20.0494 22.25 20.052 22.25 20.0545C22.25 20.057 22.25 20.0596 22.25 20.0621C22.25 20.0646 22.25 20.0672 22.25 20.0697C22.25 20.0723 22.25 20.0748 22.25 20.0773C22.25 20.0799 22.25 20.0824 22.25 20.085C22.25 20.0875 22.25 20.09 22.25 20.0926C22.25 20.0951 22.25 20.0977 22.25 20.1002C22.25 20.1027 22.25 20.1053 22.25 20.1078C22.25 20.1104 22.25 20.1129 22.25 20.1154C22.25 20.118 22.25 20.1205 22.25 20.123C22.25 20.1256 22.25 20.1281 22.25 20.1307C22.25 20.1332 22.25 20.1357 22.25 20.1383C22.25 20.1408 22.25 20.1434 22.25 20.1459C22.25 20.1484 22.25 20.151 22.25 20.1535C22.25 20.1561 22.25 20.1586 22.25 20.1611C22.25 20.1637 22.25 20.1662 22.25 20.1688C22.25 20.1713 22.25 20.1738 22.25 20.1764C22.25 20.1789 22.25 20.1814 22.25 20.184C22.25 20.1865 22.25 20.1891 22.25 20.1916C22.25 20.1941 22.25 20.1967 22.25 20.1992C22.25 20.2018 22.25 20.2043 22.25 20.2068C22.25 20.2094 22.25 20.2119 22.25 20.2145C22.25 20.217 22.25 20.2195 22.25 20.2221C22.25 20.2246 22.25 20.2271 22.25 20.2297C22.25 20.2322 22.25 20.2348 22.25 20.2373C22.25 20.2398 22.25 20.2424 22.25 20.2449C22.25 20.2475 22.25 20.25 22.25 20.2525C22.25 20.2551 22.25 20.2576 22.25 20.2602C22.25 20.2627 22.25 20.2652 22.25 20.2678C22.25 20.2703 22.25 20.2729 22.25 20.2754C22.25 20.2779 22.25 20.2805 22.25 20.283C22.25 20.2855 22.25 20.2881 22.25 20.2906C22.25 20.2932 22.25 20.2957 22.25 20.2982C22.25 20.3008 22.25 20.3033 22.25 20.3059C22.25 20.3084 22.25 20.3109 22.25 20.3135C22.25 20.316 22.25 20.3186 22.25 20.3211C22.25 20.3236 22.25 20.3262 22.25 20.3287C22.25 20.3313 22.25 20.3338 22.25 20.3363C22.25 20.3389 22.25 20.3414 22.25 20.3439C22.25 20.3465 22.25 20.349 22.25 20.3516C22.25 20.3541 22.25 20.3566 22.25 20.3592C22.25 20.3617 22.25 20.3643 22.25 20.3668C22.25 20.3693 22.25 20.3719 22.25 20.3744C22.25 20.377 22.25 20.3795 22.25 20.382C22.25 20.3846 22.25 20.3871 22.25 20.3896C22.25 20.3922 22.25 20.3947 22.25 20.3973C22.25 20.3998 22.25 20.4023 22.25 20.4049C22.25 20.4074 22.25 20.41 22.25 20.4125C22.25 20.415 22.25 20.4176 22.25 20.4201C22.25 20.4227 22.25 20.4252 22.25 20.4277C22.25 20.4303 22.25 20.4328 22.25 20.4354C22.25 20.4379 22.25 20.4404 22.25 20.443C22.25 20.4455 22.25 20.448 22.25 20.4506C22.25 20.4531 22.25 20.4557 22.25 20.4582C22.25 20.4607 22.25 20.4633 22.25 20.4658C22.25 20.4684 22.25 20.4709 22.25 20.4734C22.25 20.476 22.25 20.4785 22.25 20.4811C22.25 20.4836 22.25 20.4861 22.25 20.4887C22.25 20.4912 22.25 20.4938 22.25 20.4963C22.25 20.4988 22.25 20.5014 22.25 20.5039C22.25 20.5064 22.25 20.509 22.25 20.5115C22.25 20.5141 22.25 20.5166 22.25 20.5191C22.25 20.5217 22.25 20.5242 22.25 20.5268C22.25 20.5293 22.25 20.5318 22.25 20.5344C22.25 20.5369 22.25 20.5395 22.25 20.542C22.25 20.5445 22.25 20.5471 22.25 20.5496C22.25 20.5521 22.25 20.5547 22.25 20.5572C22.25 20.5598 22.25 20.5623 22.25 20.5648C22.25 20.5674 22.25 20.5699 22.25 20.5725C22.25 20.575 22.25 20.5775 22.25 20.5801C22.25 20.5826 22.25 20.5852 22.25 20.5877C22.25 20.5902 22.25 20.5928 22.25 20.5953C22.25 20.5979 22.25 20.6004 22.25 20.6029C22.25 20.6055 22.25 20.608 22.25 20.6105C22.25 20.6131 22.25 20.6156 22.25 20.6182C22.25 20.6207 22.25 20.6232 22.25 20.6258C22.25 20.6283 22.25 20.6309 22.25 20.6334C22.25 20.6359 22.25 20.6385 22.25 20.641C22.25 20.6436 22.25 20.6461 22.25 20.6486C22.25 20.6512 22.25 20.6537 22.25 20.6563C22.25 20.6588 22.25 20.6613 22.25 20.6639C22.25 20.6664 22.25 20.6689 22.25 20.6715C22.25 20.674 22.25 20.6766 22.25 20.6791C22.25 20.6816 22.25 20.6842 22.25 20.6867C22.25 20.6893 22.25 20.6918 22.25 20.6943C22.25 20.6969 22.25 20.6994 22.25 20.702C22.25 20.7045 22.25 20.707 22.25 20.7096C22.25 20.7121 22.25 20.7146 22.25 20.7172C22.25 20.7197 22.25 20.7223 22.25 20.7248C22.25 20.7273 22.25 20.7299 22.25 20.7324C22.25 20.735 22.25 20.7375 22.25 20.74C22.25 20.7426 22.25 20.7451 22.25 20.7477C22.25 20.7502 22.25 20.7527 22.25 20.7553C22.25 20.7578 22.25 20.7604 22.25 20.7629C22.25 20.7654 22.25 20.768 22.25 20.7705C22.25 20.773 22.25 20.7756 22.25 20.7781C22.25 20.7807 22.25 20.7832 22.25 20.7857C22.25 20.7883 22.25 20.7908 22.25 20.7934C22.25 20.7959 22.25 20.7984 22.25 20.801C22.25 20.8035 22.25 20.8061 22.25 20.8086C22.25 20.8111 22.25 20.8137 22.25 20.8162C22.25 20.8188 22.25 20.8213 22.25 20.8238C22.25 20.8264 22.25 20.8289 22.25 20.8314C22.25 20.834 22.25 20.8365 22.25 20.8391C22.25 20.8416 22.25 20.8441 22.25 20.8467C22.25 20.8492 22.25 20.8518 22.25 20.8543C22.25 20.8568 22.25 20.8594 22.25 20.8619C22.25 20.8645 22.25 20.867 22.25 20.8695C22.25 20.8721 22.25 20.8746 22.25 20.8771C22.25 20.8797 22.25 20.8822 22.25 20.8848C22.25 20.8873 22.25 20.8898 22.25 20.8924C22.25 20.8949 22.25 20.8975 22.25 20.9H23.75C23.75 20.8975 23.75 20.8949 23.75 20.8924C23.75 20.8898 23.75 20.8873 23.75 20.8848C23.75 20.8822 23.75 20.8797 23.75 20.8771C23.75 20.8746 23.75 20.8721 23.75 20.8695C23.75 20.867 23.75 20.8645 23.75 20.8619C23.75 20.8594 23.75 20.8568 23.75 20.8543C23.75 20.8518 23.75 20.8492 23.75 20.8467C23.75 20.8441 23.75 20.8416 23.75 20.8391C23.75 20.8365 23.75 20.834 23.75 20.8314C23.75 20.8289 23.75 20.8264 23.75 20.8238C23.75 20.8213 23.75 20.8188 23.75 20.8162C23.75 20.8137 23.75 20.8111 23.75 20.8086C23.75 20.8061 23.75 20.8035 23.75 20.801C23.75 20.7984 23.75 20.7959 23.75 20.7934C23.75 20.7908 23.75 20.7883 23.75 20.7857C23.75 20.7832 23.75 20.7807 23.75 20.7781C23.75 20.7756 23.75 20.773 23.75 20.7705C23.75 20.768 23.75 20.7654 23.75 20.7629C23.75 20.7604 23.75 20.7578 23.75 20.7553C23.75 20.7527 23.75 20.7502 23.75 20.7477C23.75 20.7451 23.75 20.7426 23.75 20.74C23.75 20.7375 23.75 20.735 23.75 20.7324C23.75 20.7299 23.75 20.7273 23.75 20.7248C23.75 20.7223 23.75 20.7197 23.75 20.7172C23.75 20.7146 23.75 20.7121 23.75 20.7096C23.75 20.707 23.75 20.7045 23.75 20.702C23.75 20.6994 23.75 20.6969 23.75 20.6943C23.75 20.6918 23.75 20.6893 23.75 20.6867C23.75 20.6842 23.75 20.6816 23.75 20.6791C23.75 20.6766 23.75 20.674 23.75 20.6715C23.75 20.6689 23.75 20.6664 23.75 20.6639C23.75 20.6613 23.75 20.6588 23.75 20.6563C23.75 20.6537 23.75 20.6512 23.75 20.6486C23.75 20.6461 23.75 20.6436 23.75 20.641C23.75 20.6385 23.75 20.6359 23.75 20.6334C23.75 20.6309 23.75 20.6283 23.75 20.6258C23.75 20.6232 23.75 20.6207 23.75 20.6182C23.75 20.6156 23.75 20.6131 23.75 20.6105C23.75 20.608 23.75 20.6055 23.75 20.6029C23.75 20.6004 23.75 20.5979 23.75 20.5953C23.75 20.5928 23.75 20.5902 23.75 20.5877C23.75 20.5852 23.75 20.5826 23.75 20.5801C23.75 20.5775 23.75 20.575 23.75 20.5725C23.75 20.5699 23.75 20.5674 23.75 20.5648C23.75 20.5623 23.75 20.5598 23.75 20.5572C23.75 20.5547 23.75 20.5521 23.75 20.5496C23.75 20.5471 23.75 20.5445 23.75 20.542C23.75 20.5395 23.75 20.5369 23.75 20.5344C23.75 20.5318 23.75 20.5293 23.75 20.5268C23.75 20.5242 23.75 20.5217 23.75 20.5191C23.75 20.5166 23.75 20.5141 23.75 20.5115C23.75 20.509 23.75 20.5064 23.75 20.5039C23.75 20.5014 23.75 20.4988 23.75 20.4963C23.75 20.4938 23.75 20.4912 23.75 20.4887C23.75 20.4861 23.75 20.4836 23.75 20.4811C23.75 20.4785 23.75 20.476 23.75 20.4734C23.75 20.4709 23.75 20.4684 23.75 20.4658C23.75 20.4633 23.75 20.4607 23.75 20.4582C23.75 20.4557 23.75 20.4531 23.75 20.4506C23.75 20.448 23.75 20.4455 23.75 20.443C23.75 20.4404 23.75 20.4379 23.75 20.4354C23.75 20.4328 23.75 20.4303 23.75 20.4277C23.75 20.4252 23.75 20.4227 23.75 20.4201C23.75 20.4176 23.75 20.415 23.75 20.4125C23.75 20.41 23.75 20.4074 23.75 20.4049C23.75 20.4023 23.75 20.3998 23.75 20.3973C23.75 20.3947 23.75 20.3922 23.75 20.3896C23.75 20.3871 23.75 20.3846 23.75 20.382C23.75 20.3795 23.75 20.377 23.75 20.3744C23.75 20.3719 23.75 20.3693 23.75 20.3668C23.75 20.3643 23.75 20.3617 23.75 20.3592C23.75 20.3566 23.75 20.3541 23.75 20.3516C23.75 20.349 23.75 20.3465 23.75 20.3439C23.75 20.3414 23.75 20.3389 23.75 20.3363C23.75 20.3338 23.75 20.3313 23.75 20.3287C23.75 20.3262 23.75 20.3236 23.75 20.3211C23.75 20.3186 23.75 20.316 23.75 20.3135C23.75 20.3109 23.75 20.3084 23.75 20.3059C23.75 20.3033 23.75 20.3008 23.75 20.2982C23.75 20.2957 23.75 20.2932 23.75 20.2906C23.75 20.2881 23.75 20.2855 23.75 20.283C23.75 20.2805 23.75 20.2779 23.75 20.2754C23.75 20.2729 23.75 20.2703 23.75 20.2678C23.75 20.2652 23.75 20.2627 23.75 20.2602C23.75 20.2576 23.75 20.2551 23.75 20.2525C23.75 20.25 23.75 20.2475 23.75 20.2449C23.75 20.2424 23.75 20.2398 23.75 20.2373C23.75 20.2348 23.75 20.2322 23.75 20.2297C23.75 20.2271 23.75 20.2246 23.75 20.2221C23.75 20.2195 23.75 20.217 23.75 20.2145C23.75 20.2119 23.75 20.2094 23.75 20.2068C23.75 20.2043 23.75 20.2018 23.75 20.1992C23.75 20.1967 23.75 20.1941 23.75 20.1916C23.75 20.1891 23.75 20.1865 23.75 20.184C23.75 20.1814 23.75 20.1789 23.75 20.1764C23.75 20.1738 23.75 20.1713 23.75 20.1688C23.75 20.1662 23.75 20.1637 23.75 20.1611C23.75 20.1586 23.75 20.1561 23.75 20.1535C23.75 20.151 23.75 20.1484 23.75 20.1459C23.75 20.1434 23.75 20.1408 23.75 20.1383C23.75 20.1357 23.75 20.1332 23.75 20.1307C23.75 20.1281 23.75 20.1256 23.75 20.123C23.75 20.1205 23.75 20.118 23.75 20.1154C23.75 20.1129 23.75 20.1104 23.75 20.1078C23.75 20.1053 23.75 20.1027 23.75 20.1002C23.75 20.0977 23.75 20.0951 23.75 20.0926C23.75 20.09 23.75 20.0875 23.75 20.085C23.75 20.0824 23.75 20.0799 23.75 20.0773C23.75 20.0748 23.75 20.0723 23.75 20.0697C23.75 20.0672 23.75 20.0646 23.75 20.0621C23.75 20.0596 23.75 20.057 23.75 20.0545C23.75 20.052 23.75 20.0494 23.75 20.0469C23.75 20.0443 23.75 20.0418 23.75 20.0393C23.75 20.0367 23.75 20.0342 23.75 20.0316C23.75 20.0291 23.75 20.0266 23.75 20.024C23.75 20.0215 23.75 20.0189 23.75 20.0164C23.75 20.0139 23.75 20.0113 23.75 20.0088C23.75 20.0063 23.75 20.0037 23.75 20.0012C23.75 19.9986 23.75 19.9961 23.75 19.9936C23.75 19.991 23.75 19.9885 23.75 19.9859C23.75 19.9834 23.75 19.9809 23.75 19.9783C23.75 19.9758 23.75 19.9732 23.75 19.9707C23.75 19.9682 23.75 19.9656 23.75 19.9631C23.75 19.9605 23.75 19.958 23.75 19.9555C23.75 19.9529 23.75 19.9504 23.75 19.9479C23.75 19.9453 23.75 19.9428 23.75 19.9402C23.75 19.9377 23.75 19.9352 23.75 19.9326C23.75 19.9301 23.75 19.9275 23.75 19.925C23.75 19.9225 23.75 19.9199 23.75 19.9174C23.75 19.9148 23.75 19.9123 23.75 19.9098C23.75 19.9072 23.75 19.9047 23.75 19.9021C23.75 19.8996 23.75 19.8971 23.75 19.8945C23.75 19.892 23.75 19.8895 23.75 19.8869C23.75 19.8844 23.75 19.8818 23.75 19.8793C23.75 19.8768 23.75 19.8742 23.75 19.8717C23.75 19.8691 23.75 19.8666 23.75 19.8641C23.75 19.8615 23.75 19.859 23.75 19.8564C23.75 19.8539 23.75 19.8514 23.75 19.8488C23.75 19.8463 23.75 19.8438 23.75 19.8412C23.75 19.8387 23.75 19.8361 23.75 19.8336C23.75 19.8311 23.75 19.8285 23.75 19.826C23.75 19.8234 23.75 19.8209 23.75 19.8184C23.75 19.8158 23.75 19.8133 23.75 19.8107C23.75 19.8082 23.75 19.8057 23.75 19.8031C23.75 19.8006 23.75 19.798 23.75 19.7955C23.75 19.793 23.75 19.7904 23.75 19.7879C23.75 19.7854 23.75 19.7828 23.75 19.7803C23.75 19.7777 23.75 19.7752 23.75 19.7727C23.75 19.7701 23.75 19.7676 23.75 19.765C23.75 19.7625 23.75 19.76 23.75 19.7574C23.75 19.7549 23.75 19.7523 23.75 19.7498C23.75 19.7473 23.75 19.7447 23.75 19.7422C23.75 19.7396 23.75 19.7371 23.75 19.7346C23.75 19.732 23.75 19.7295 23.75 19.727C23.75 19.7244 23.75 19.7219 23.75 19.7193C23.75 19.7168 23.75 19.7143 23.75 19.7117C23.75 19.7092 23.75 19.7066 23.75 19.7041C23.75 19.7016 23.75 19.699 23.75 19.6965C23.75 19.6939 23.75 19.6914 23.75 19.6889C23.75 19.6863 23.75 19.6838 23.75 19.6813C23.75 19.6787 23.75 19.6762 23.75 19.6736C23.75 19.6711 23.75 19.6686 23.75 19.666C23.75 19.6635 23.75 19.6609 23.75 19.6584C23.75 19.6559 23.75 19.6533 23.75 19.6508C23.75 19.6482 23.75 19.6457 23.75 19.6432C23.75 19.6406 23.75 19.6381 23.75 19.6355C23.75 19.633 23.75 19.6305 23.75 19.6279C23.75 19.6254 23.75 19.6229 23.75 19.6203C23.75 19.6178 23.75 19.6152 23.75 19.6127C23.75 19.6102 23.75 19.6076 23.75 19.6051C23.75 19.6025 23.75 19.6 23.75 19.5975C23.75 19.5949 23.75 19.5924 23.75 19.5898C23.75 19.5873 23.75 19.5848 23.75 19.5822C23.75 19.5797 23.75 19.5771 23.75 19.5746C23.75 19.5721 23.75 19.5695 23.75 19.567C23.75 19.5645 23.75 19.5619 23.75 19.5594C23.75 19.5568 23.75 19.5543 23.75 19.5518C23.75 19.5492 23.75 19.5467 23.75 19.5441C23.75 19.5416 23.75 19.5391 23.75 19.5365C23.75 19.534 23.75 19.5314 23.75 19.5289C23.75 19.5264 23.75 19.5238 23.75 19.5213C23.75 19.5188 23.75 19.5162 23.75 19.5137C23.75 19.5111 23.75 19.5086 23.75 19.5061C23.75 19.5035 23.75 19.501 23.75 19.4984C23.75 19.4959 23.75 19.4934 23.75 19.4908C23.75 19.4883 23.75 19.4857 23.75 19.4832C23.75 19.4807 23.75 19.4781 23.75 19.4756C23.75 19.473 23.75 19.4705 23.75 19.468C23.75 19.4654 23.75 19.4629 23.75 19.4604C23.75 19.4578 23.75 19.4553 23.75 19.4527C23.75 19.4502 23.75 19.4477 23.75 19.4451C23.75 19.4426 23.75 19.44 23.75 19.4375C23.75 19.435 23.75 19.4324 23.75 19.4299C23.75 19.4273 23.75 19.4248 23.75 19.4223C23.75 19.4197 23.75 19.4172 23.75 19.4146C23.75 19.4121 23.75 19.4096 23.75 19.407C23.75 19.4045 23.75 19.402 23.75 19.3994C23.75 19.3969 23.75 19.3943 23.75 19.3918C23.75 19.3893 23.75 19.3867 23.75 19.3842C23.75 19.3816 23.75 19.3791 23.75 19.3766C23.75 19.374 23.75 19.3715 23.75 19.3689C23.75 19.3664 23.75 19.3639 23.75 19.3613C23.75 19.3588 23.75 19.3563 23.75 19.3537C23.75 19.3512 23.75 19.3486 23.75 19.3461C23.75 19.3436 23.75 19.341 23.75 19.3385C23.75 19.3359 23.75 19.3334 23.75 19.3309C23.75 19.3283 23.75 19.3258 23.75 19.3232C23.75 19.3207 23.75 19.3182 23.75 19.3156C23.75 19.3131 23.75 19.3105 23.75 19.308C23.75 19.3055 23.75 19.3029 23.75 19.3004C23.75 19.2979 23.75 19.2953 23.75 19.2928C23.75 19.2902 23.75 19.2877 23.75 19.2852C23.75 19.2826 23.75 19.2801 23.75 19.2775C23.75 19.275 23.75 19.2725 23.75 19.2699C23.75 19.2674 23.75 19.2648 23.75 19.2623C23.75 19.2598 23.75 19.2572 23.75 19.2547C23.75 19.2521 23.75 19.2496 23.75 19.2471C23.75 19.2445 23.75 19.242 23.75 19.2395C23.75 19.2369 23.75 19.2344 23.75 19.2318C23.75 19.2293 23.75 19.2268 23.75 19.2242C23.75 19.2217 23.75 19.2191 23.75 19.2166C23.75 19.2141 23.75 19.2115 23.75 19.209C23.75 19.2064 23.75 19.2039 23.75 19.2014C23.75 19.1988 23.75 19.1963 23.75 19.1938C23.75 19.1912 23.75 19.1887 23.75 19.1861C23.75 19.1836 23.75 19.1811 23.75 19.1785C23.75 19.176 23.75 19.1734 23.75 19.1709C23.75 19.1684 23.75 19.1658 23.75 19.1633C23.75 19.1607 23.75 19.1582 23.75 19.1557C23.75 19.1531 23.75 19.1506 23.75 19.148C23.75 19.1455 23.75 19.143 23.75 19.1404C23.75 19.1379 23.75 19.1354 23.75 19.1328C23.75 19.1303 23.75 19.1277 23.75 19.1252C23.75 19.1227 23.75 19.1201 23.75 19.1176C23.75 19.115 23.75 19.1125 23.75 19.11C23.75 19.1074 23.75 19.1049 23.75 19.1023C23.75 19.0998 23.75 19.0973 23.75 19.0947C23.75 19.0922 23.75 19.0896 23.75 19.0871C23.75 19.0846 23.75 19.082 23.75 19.0795C23.75 19.077 23.75 19.0744 23.75 19.0719C23.75 19.0693 23.75 19.0668 23.75 19.0643C23.75 19.0617 23.75 19.0592 23.75 19.0566C23.75 19.0541 23.75 19.0516 23.75 19.049C23.75 19.0465 23.75 19.0439 23.75 19.0414C23.75 19.0389 23.75 19.0363 23.75 19.0338C23.75 19.0313 23.75 19.0287 23.75 19.0262C23.75 19.0236 23.75 19.0211 23.75 19.0186C23.75 19.016 23.75 19.0135 23.75 19.0109C23.75 19.0084 23.75 19.0059 23.75 19.0033C23.75 19.0008 23.75 18.9982 23.75 18.9957C23.75 18.9932 23.75 18.9906 23.75 18.9881C23.75 18.9855 23.75 18.983 23.75 18.9805C23.75 18.9779 23.75 18.9754 23.75 18.9729C23.75 18.9703 23.75 18.9678 23.75 18.9652C23.75 18.9627 23.75 18.9602 23.75 18.9576C23.75 18.9551 23.75 18.9525 23.75 18.95C23.75 18.9475 23.75 18.9449 23.75 18.9424C23.75 18.9398 23.75 18.9373 23.75 18.9348C23.75 18.9322 23.75 18.9297 23.75 18.9271C23.75 18.9246 23.75 18.9221 23.75 18.9195C23.75 18.917 23.75 18.9145 23.75 18.9119C23.75 18.9094 23.75 18.9068 23.75 18.9043C23.75 18.9018 23.75 18.8992 23.75 18.8967C23.75 18.8941 23.75 18.8916 23.75 18.8891C23.75 18.8865 23.75 18.884 23.75 18.8814C23.75 18.8789 23.75 18.8764 23.75 18.8738C23.75 18.8713 23.75 18.8688 23.75 18.8662C23.75 18.8637 23.75 18.8611 23.75 18.8586C23.75 18.8561 23.75 18.8535 23.75 18.851C23.75 18.8484 23.75 18.8459 23.75 18.8434C23.75 18.8408 23.75 18.8383 23.75 18.8357C23.75 18.8332 23.75 18.8307 23.75 18.8281C23.75 18.8256 23.75 18.823 23.75 18.8205C23.75 18.818 23.75 18.8154 23.75 18.8129C23.75 18.8104 23.75 18.8078 23.75 18.8053C23.75 18.8027 23.75 18.8002 23.75 18.7977C23.75 18.7951 23.75 18.7926 23.75 18.79C23.75 18.7875 23.75 18.785 23.75 18.7824C23.75 18.7799 23.75 18.7773 23.75 18.7748C23.75 18.7723 23.75 18.7697 23.75 18.7672C23.75 18.7646 23.75 18.7621 23.75 18.7596C23.75 18.757 23.75 18.7545 23.75 18.752C23.75 18.7494 23.75 18.7469 23.75 18.7443C23.75 18.7418 23.75 18.7393 23.75 18.7367C23.75 18.7342 23.75 18.7316 23.75 18.7291C23.75 18.7266 23.75 18.724 23.75 18.7215C23.75 18.7189 23.75 18.7164 23.75 18.7139C23.75 18.7113 23.75 18.7088 23.75 18.7063C23.75 18.7037 23.75 18.7012 23.75 18.6986C23.75 18.6961 23.75 18.6936 23.75 18.691C23.75 18.6885 23.75 18.6859 23.75 18.6834C23.75 18.6809 23.75 18.6783 23.75 18.6758C23.75 18.6732 23.75 18.6707 23.75 18.6682C23.75 18.6656 23.75 18.6631 23.75 18.6605C23.75 18.658 23.75 18.6555 23.75 18.6529C23.75 18.6504 23.75 18.6479 23.75 18.6453C23.75 18.6428 23.75 18.6402 23.75 18.6377C23.75 18.6352 23.75 18.6326 23.75 18.6301C23.75 18.6275 23.75 18.625 23.75 18.6225C23.75 18.6199 23.75 18.6174 23.75 18.6148C23.75 18.6123 23.75 18.6098 23.75 18.6072C23.75 18.6047 23.75 18.6021 23.75 18.5996C23.75 18.5971 23.75 18.5945 23.75 18.592C23.75 18.5895 23.75 18.5869 23.75 18.5844C23.75 18.5818 23.75 18.5793 23.75 18.5768C23.75 18.5742 23.75 18.5717 23.75 18.5691C23.75 18.5666 23.75 18.5641 23.75 18.5615C23.75 18.559 23.75 18.5564 23.75 18.5539C23.75 18.5514 23.75 18.5488 23.75 18.5463C23.75 18.5438 23.75 18.5412 23.75 18.5387C23.75 18.5361 23.75 18.5336 23.75 18.5311C23.75 18.5285 23.75 18.526 23.75 18.5234C23.75 18.5209 23.75 18.5184 23.75 18.5158C23.75 18.5133 23.75 18.5107 23.75 18.5082C23.75 18.5057 23.75 18.5031 23.75 18.5006C23.75 18.498 23.75 18.4955 23.75 18.493C23.75 18.4904 23.75 18.4879 23.75 18.4854C23.75 18.4828 23.75 18.4803 23.75 18.4777C23.75 18.4752 23.75 18.4727 23.75 18.4701C23.75 18.4676 23.75 18.465 23.75 18.4625C23.75 18.46 23.75 18.4574 23.75 18.4549C23.75 18.4523 23.75 18.4498 23.75 18.4473C23.75 18.4447 23.75 18.4422 23.75 18.4396C23.75 18.4371 23.75 18.4346 23.75 18.432C23.75 18.4295 23.75 18.427 23.75 18.4244C23.75 18.4219 23.75 18.4193 23.75 18.4168C23.75 18.4143 23.75 18.4117 23.75 18.4092C23.75 18.4066 23.75 18.4041 23.75 18.4016C23.75 18.399 23.75 18.3965 23.75 18.3939C23.75 18.3914 23.75 18.3889 23.75 18.3863C23.75 18.3838 23.75 18.3813 23.75 18.3787C23.75 18.3762 23.75 18.3736 23.75 18.3711C23.75 18.3686 23.75 18.366 23.75 18.3635C23.75 18.3609 23.75 18.3584 23.75 18.3559C23.75 18.3533 23.75 18.3508 23.75 18.3482C23.75 18.3457 23.75 18.3432 23.75 18.3406C23.75 18.3381 23.75 18.3355 23.75 18.333C23.75 18.3305 23.75 18.3279 23.75 18.3254C23.75 18.3229 23.75 18.3203 23.75 18.3178C23.75 18.3152 23.75 18.3127 23.75 18.3102C23.75 18.3076 23.75 18.3051 23.75 18.3025C23.75 18.3 23.75 18.2975 23.75 18.2949C23.75 18.2924 23.75 18.2898 23.75 18.2873C23.75 18.2848 23.75 18.2822 23.75 18.2797C23.75 18.2771 23.75 18.2746 23.75 18.2721C23.75 18.2695 23.75 18.267 23.75 18.2645C23.75 18.2619 23.75 18.2594 23.75 18.2568C23.75 18.2543 23.75 18.2518 23.75 18.2492C23.75 18.2467 23.75 18.2441 23.75 18.2416C23.75 18.2391 23.75 18.2365 23.75 18.234C23.75 18.2314 23.75 18.2289 23.75 18.2264C23.75 18.2238 23.75 18.2213 23.75 18.2188C23.75 18.2162 23.75 18.2137 23.75 18.2111C23.75 18.2086 23.75 18.2061 23.75 18.2035C23.75 18.201 23.75 18.1984 23.75 18.1959C23.75 18.1934 23.75 18.1908 23.75 18.1883C23.75 18.1857 23.75 18.1832 23.75 18.1807C23.75 18.1781 23.75 18.1756 23.75 18.173C23.75 18.1705 23.75 18.168 23.75 18.1654C23.75 18.1629 23.75 18.1604 23.75 18.1578C23.75 18.1553 23.75 18.1527 23.75 18.1502C23.75 18.1477 23.75 18.1451 23.75 18.1426C23.75 18.14 23.75 18.1375 23.75 18.135C23.75 18.1324 23.75 18.1299 23.75 18.1273C23.75 18.1248 23.75 18.1223 23.75 18.1197C23.75 18.1172 23.75 18.1146 23.75 18.1121C23.75 18.1096 23.75 18.107 23.75 18.1045C23.75 18.102 23.75 18.0994 23.75 18.0969C23.75 18.0943 23.75 18.0918 23.75 18.0893C23.75 18.0867 23.75 18.0842 23.75 18.0816C23.75 18.0791 23.75 18.0766 23.75 18.074C23.75 18.0715 23.75 18.0689 23.75 18.0664C23.75 18.0639 23.75 18.0613 23.75 18.0588C23.75 18.0563 23.75 18.0537 23.75 18.0512C23.75 18.0486 23.75 18.0461 23.75 18.0436C23.75 18.041 23.75 18.0385 23.75 18.0359C23.75 18.0334 23.75 18.0309 23.75 18.0283C23.75 18.0258 23.75 18.0232 23.75 18.0207C23.75 18.0182 23.75 18.0156 23.75 18.0131C23.75 18.0105 23.75 18.008 23.75 18.0055C23.75 18.0029 23.75 18.0004 23.75 17.9979C23.75 17.9953 23.75 17.9928 23.75 17.9902C23.75 17.9877 23.75 17.9852 23.75 17.9826C23.75 17.9801 23.75 17.9775 23.75 17.975C23.75 17.9725 23.75 17.9699 23.75 17.9674C23.75 17.9648 23.75 17.9623 23.75 17.9598C23.75 17.9572 23.75 17.9547 23.75 17.9521C23.75 17.9496 23.75 17.9471 23.75 17.9445C23.75 17.942 23.75 17.9395 23.75 17.9369C23.75 17.9344 23.75 17.9318 23.75 17.9293C23.75 17.9268 23.75 17.9242 23.75 17.9217C23.75 17.9191 23.75 17.9166 23.75 17.9141C23.75 17.9115 23.75 17.909 23.75 17.9064C23.75 17.9039 23.75 17.9014 23.75 17.8988C23.75 17.8963 23.75 17.8938 23.75 17.8912C23.75 17.8887 23.75 17.8861 23.75 17.8836C23.75 17.8811 23.75 17.8785 23.75 17.876C23.75 17.8734 23.75 17.8709 23.75 17.8684C23.75 17.8658 23.75 17.8633 23.75 17.8607C23.75 17.8582 23.75 17.8557 23.75 17.8531C23.75 17.8506 23.75 17.848 23.75 17.8455C23.75 17.843 23.75 17.8404 23.75 17.8379C23.75 17.8354 23.75 17.8328 23.75 17.8303C23.75 17.8277 23.75 17.8252 23.75 17.8227C23.75 17.8201 23.75 17.8176 23.75 17.815C23.75 17.8125 23.75 17.81 23.75 17.8074C23.75 17.8049 23.75 17.8023 23.75 17.7998C23.75 17.7973 23.75 17.7947 23.75 17.7922C23.75 17.7896 23.75 17.7871 23.75 17.7846C23.75 17.782 23.75 17.7795 23.75 17.777C23.75 17.7744 23.75 17.7719 23.75 17.7693C23.75 17.7668 23.75 17.7643 23.75 17.7617C23.75 17.7592 23.75 17.7566 23.75 17.7541C23.75 17.7516 23.75 17.749 23.75 17.7465C23.75 17.7439 23.75 17.7414 23.75 17.7389C23.75 17.7363 23.75 17.7338 23.75 17.7313C23.75 17.7287 23.75 17.7262 23.75 17.7236C23.75 17.7211 23.75 17.7186 23.75 17.716C23.75 17.7135 23.75 17.7109 23.75 17.7084C23.75 17.7059 23.75 17.7033 23.75 17.7008C23.75 17.6982 23.75 17.6957 23.75 17.6932C23.75 17.6906 23.75 17.6881 23.75 17.6855C23.75 17.683 23.75 17.6805 23.75 17.6779C23.75 17.6754 23.75 17.6729 23.75 17.6703C23.75 17.6678 23.75 17.6652 23.75 17.6627C23.75 17.6602 23.75 17.6576 23.75 17.6551C23.75 17.6525 23.75 17.65 23.75 17.6475C23.75 17.6449 23.75 17.6424 23.75 17.6398C23.75 17.6373 23.75 17.6348 23.75 17.6322C23.75 17.6297 23.75 17.6271 23.75 17.6246C23.75 17.6221 23.75 17.6195 23.75 17.617C23.75 17.6145 23.75 17.6119 23.75 17.6094C23.75 17.6068 23.75 17.6043 23.75 17.6018C23.75 17.5992 23.75 17.5967 23.75 17.5941C23.75 17.5916 23.75 17.5891 23.75 17.5865C23.75 17.584 23.75 17.5814 23.75 17.5789C23.75 17.5764 23.75 17.5738 23.75 17.5713C23.75 17.5688 23.75 17.5662 23.75 17.5637C23.75 17.5611 23.75 17.5586 23.75 17.5561C23.75 17.5535 23.75 17.551 23.75 17.5484C23.75 17.5459 23.75 17.5434 23.75 17.5408C23.75 17.5383 23.75 17.5357 23.75 17.5332C23.75 17.5307 23.75 17.5281 23.75 17.5256C23.75 17.523 23.75 17.5205 23.75 17.518C23.75 17.5154 23.75 17.5129 23.75 17.5104C23.75 17.5078 23.75 17.5053 23.75 17.5027C23.75 17.5002 23.75 17.4977 23.75 17.4951C23.75 17.4926 23.75 17.49 23.75 17.4875C23.75 17.485 23.75 17.4824 23.75 17.4799C23.75 17.4773 23.75 17.4748 23.75 17.4723C23.75 17.4697 23.75 17.4672 23.75 17.4646C23.75 17.4621 23.75 17.4596 23.75 17.457C23.75 17.4545 23.75 17.452 23.75 17.4494C23.75 17.4469 23.75 17.4443 23.75 17.4418C23.75 17.4393 23.75 17.4367 23.75 17.4342C23.75 17.4316 23.75 17.4291 23.75 17.4266C23.75 17.424 23.75 17.4215 23.75 17.4189C23.75 17.4164 23.75 17.4139 23.75 17.4113C23.75 17.4088 23.75 17.4063 23.75 17.4037C23.75 17.4012 23.75 17.3986 23.75 17.3961C23.75 17.3936 23.75 17.391 23.75 17.3885C23.75 17.3859 23.75 17.3834 23.75 17.3809C23.75 17.3783 23.75 17.3758 23.75 17.3732C23.75 17.3707 23.75 17.3682 23.75 17.3656C23.75 17.3631 23.75 17.3605 23.75 17.358C23.75 17.3555 23.75 17.3529 23.75 17.3504C23.75 17.3479 23.75 17.3453 23.75 17.3428C23.75 17.3402 23.75 17.3377 23.75 17.3352C23.75 17.3326 23.75 17.3301 23.75 17.3275C23.75 17.325 23.75 17.3225 23.75 17.3199C23.75 17.3174 23.75 17.3148 23.75 17.3123C23.75 17.3098 23.75 17.3072 23.75 17.3047C23.75 17.3021 23.75 17.2996 23.75 17.2971C23.75 17.2945 23.75 17.292 23.75 17.2895C23.75 17.2869 23.75 17.2844 23.75 17.2818C23.75 17.2793 23.75 17.2768 23.75 17.2742C23.75 17.2717 23.75 17.2691 23.75 17.2666C23.75 17.2641 23.75 17.2615 23.75 17.259C23.75 17.2564 23.75 17.2539 23.75 17.2514C23.75 17.2488 23.75 17.2463 23.75 17.2438C23.75 17.2412 23.75 17.2387 23.75 17.2361C23.75 17.2336 23.75 17.2311 23.75 17.2285C23.75 17.226 23.75 17.2234 23.75 17.2209C23.75 17.2184 23.75 17.2158 23.75 17.2133C23.75 17.2107 23.75 17.2082 23.75 17.2057C23.75 17.2031 23.75 17.2006 23.75 17.198C23.75 17.1955 23.75 17.193 23.75 17.1904C23.75 17.1879 23.75 17.1854 23.75 17.1828C23.75 17.1803 23.75 17.1777 23.75 17.1752C23.75 17.1727 23.75 17.1701 23.75 17.1676C23.75 17.165 23.75 17.1625 23.75 17.16C23.75 17.1574 23.75 17.1549 23.75 17.1523C23.75 17.1498 23.75 17.1473 23.75 17.1447C23.75 17.1422 23.75 17.1396 23.75 17.1371C23.75 17.1346 23.75 17.132 23.75 17.1295C23.75 17.127 23.75 17.1244 23.75 17.1219C23.75 17.1193 23.75 17.1168 23.75 17.1143C23.75 17.1117 23.75 17.1092 23.75 17.1066C23.75 17.1041 23.75 17.1016 23.75 17.099C23.75 17.0965 23.75 17.0939 23.75 17.0914C23.75 17.0889 23.75 17.0863 23.75 17.0838C23.75 17.0813 23.75 17.0787 23.75 17.0762C23.75 17.0736 23.75 17.0711 23.75 17.0686C23.75 17.066 23.75 17.0635 23.75 17.0609C23.75 17.0584 23.75 17.0559 23.75 17.0533C23.75 17.0508 23.75 17.0482 23.75 17.0457C23.75 17.0432 23.75 17.0406 23.75 17.0381C23.75 17.0355 23.75 17.033 23.75 17.0305C23.75 17.0279 23.75 17.0254 23.75 17.0229C23.75 17.0203 23.75 17.0178 23.75 17.0152C23.75 17.0127 23.75 17.0102 23.75 17.0076C23.75 17.0051 23.75 17.0025 23.75 17H22.25ZM22.9 20.25C22.8857 20.25 22.8715 20.25 22.8572 20.25C22.843 20.25 22.8287 20.25 22.8145 20.25C22.8002 20.25 22.7859 20.25 22.7717 20.25C22.7574 20.25 22.7432 20.25 22.7289 20.25C22.7146 20.25 22.7004 20.25 22.6861 20.25C22.6719 20.25 22.6576 20.25 22.6434 20.25C22.6291 20.25 22.6148 20.25 22.6006 20.25C22.5863 20.25 22.5721 20.25 22.5578 20.25C22.5436 20.25 22.5293 20.25 22.515 20.25C22.5008 20.25 22.4865 20.25 22.4723 20.25C22.458 20.25 22.4437 20.25 22.4295 20.25C22.4152 20.25 22.401 20.25 22.3867 20.25C22.3725 20.25 22.3582 20.25 22.3439 20.25C22.3297 20.25 22.3154 20.25 22.3012 20.25C22.2869 20.25 22.2727 20.25 22.2584 20.25C22.2441 20.25 22.2299 20.25 22.2156 20.25C22.2014 20.25 22.1871 20.25 22.1729 20.25C22.1586 20.25 22.1443 20.25 22.1301 20.25C22.1158 20.25 22.1016 20.25 22.0873 20.25C22.073 20.25 22.0588 20.25 22.0445 20.25C22.0303 20.25 22.016 20.25 22.0018 20.25C21.9875 20.25 21.9732 20.25 21.959 20.25C21.9447 20.25 21.9305 20.25 21.9162 20.25C21.902 20.25 21.8877 20.25 21.8734 20.25C21.8592 20.25 21.8449 20.25 21.8307 20.25C21.8164 20.25 21.8021 20.25 21.7879 20.25C21.7736 20.25 21.7594 20.25 21.7451 20.25C21.7309 20.25 21.7166 20.25 21.7023 20.25C21.6881 20.25 21.6738 20.25 21.6596 20.25C21.6453 20.25 21.6311 20.25 21.6168 20.25C21.6025 20.25 21.5883 20.25 21.574 20.25C21.5598 20.25 21.5455 20.25 21.5312 20.25C21.517 20.25 21.5027 20.25 21.4885 20.25C21.4742 20.25 21.46 20.25 21.4457 20.25C21.4314 20.25 21.4172 20.25 21.4029 20.25C21.3887 20.25 21.3744 20.25 21.3602 20.25C21.3459 20.25 21.3316 20.25 21.3174 20.25C21.3031 20.25 21.2889 20.25 21.2746 20.25C21.2604 20.25 21.2461 20.25 21.2318 20.25C21.2176 20.25 21.2033 20.25 21.1891 20.25C21.1748 20.25 21.1605 20.25 21.1463 20.25C21.132 20.25 21.1178 20.25 21.1035 20.25C21.0893 20.25 21.075 20.25 21.0607 20.25C21.0465 20.25 21.0322 20.25 21.018 20.25C21.0037 20.25 20.9895 20.25 20.9752 20.25C20.9609 20.25 20.9467 20.25 20.9324 20.25C20.9182 20.25 20.9039 20.25 20.8896 20.25C20.8754 20.25 20.8611 20.25 20.8469 20.25C20.8326 20.25 20.8184 20.25 20.8041 20.25C20.7898 20.25 20.7756 20.25 20.7613 20.25C20.7471 20.25 20.7328 20.25 20.7186 20.25C20.7043 20.25 20.69 20.25 20.6758 20.25C20.6615 20.25 20.6473 20.25 20.633 20.25C20.6187 20.25 20.6045 20.25 20.5902 20.25C20.576 20.25 20.5617 20.25 20.5475 20.25C20.5332 20.25 20.5189 20.25 20.5047 20.25C20.4904 20.25 20.4762 20.25 20.4619 20.25C20.4477 20.25 20.4334 20.25 20.4191 20.25C20.4049 20.25 20.3906 20.25 20.3764 20.25C20.3621 20.25 20.3479 20.25 20.3336 20.25C20.3193 20.25 20.3051 20.25 20.2908 20.25C20.2766 20.25 20.2623 20.25 20.248 20.25C20.2338 20.25 20.2195 20.25 20.2053 20.25C20.191 20.25 20.1768 20.25 20.1625 20.25C20.1482 20.25 20.134 20.25 20.1197 20.25C20.1055 20.25 20.0912 20.25 20.077 20.25C20.0627 20.25 20.0484 20.25 20.0342 20.25C20.0199 20.25 20.0057 20.25 19.9914 20.25C19.9771 20.25 19.9629 20.25 19.9486 20.25C19.9344 20.25 19.9201 20.25 19.9059 20.25C19.8916 20.25 19.8773 20.25 19.8631 20.25C19.8488 20.25 19.8346 20.25 19.8203 20.25C19.8061 20.25 19.7918 20.25 19.7775 20.25C19.7633 20.25 19.749 20.25 19.7348 20.25C19.7205 20.25 19.7062 20.25 19.692 20.25C19.6777 20.25 19.6635 20.25 19.6492 20.25C19.635 20.25 19.6207 20.25 19.6064 20.25C19.5922 20.25 19.5779 20.25 19.5637 20.25C19.5494 20.25 19.5352 20.25 19.5209 20.25C19.5066 20.25 19.4924 20.25 19.4781 20.25C19.4639 20.25 19.4496 20.25 19.4354 20.25C19.4211 20.25 19.4068 20.25 19.3926 20.25C19.3783 20.25 19.3641 20.25 19.3498 20.25C19.3355 20.25 19.3213 20.25 19.307 20.25C19.2928 20.25 19.2785 20.25 19.2643 20.25C19.25 20.25 19.2357 20.25 19.2215 20.25C19.2072 20.25 19.193 20.25 19.1787 20.25C19.1645 20.25 19.1502 20.25 19.1359 20.25C19.1217 20.25 19.1074 20.25 19.0932 20.25C19.0789 20.25 19.0646 20.25 19.0504 20.25C19.0361 20.25 19.0219 20.25 19.0076 20.25C18.9934 20.25 18.9791 20.25 18.9648 20.25C18.9506 20.25 18.9363 20.25 18.9221 20.25C18.9078 20.25 18.8936 20.25 18.8793 20.25C18.865 20.25 18.8508 20.25 18.8365 20.25C18.8223 20.25 18.808 20.25 18.7937 20.25C18.7795 20.25 18.7652 20.25 18.751 20.25C18.7367 20.25 18.7225 20.25 18.7082 20.25C18.6939 20.25 18.6797 20.25 18.6654 20.25C18.6512 20.25 18.6369 20.25 18.6227 20.25C18.6084 20.25 18.5941 20.25 18.5799 20.25C18.5656 20.25 18.5514 20.25 18.5371 20.25C18.5229 20.25 18.5086 20.25 18.4943 20.25C18.4801 20.25 18.4658 20.25 18.4516 20.25C18.4373 20.25 18.423 20.25 18.4088 20.25C18.3945 20.25 18.3803 20.25 18.366 20.25C18.3518 20.25 18.3375 20.25 18.3232 20.25C18.309 20.25 18.2947 20.25 18.2805 20.25C18.2662 20.25 18.252 20.25 18.2377 20.25C18.2234 20.25 18.2092 20.25 18.1949 20.25C18.1807 20.25 18.1664 20.25 18.1521 20.25C18.1379 20.25 18.1236 20.25 18.1094 20.25C18.0951 20.25 18.0809 20.25 18.0666 20.25C18.0523 20.25 18.0381 20.25 18.0238 20.25C18.0096 20.25 17.9953 20.25 17.9811 20.25C17.9668 20.25 17.9525 20.25 17.9383 20.25C17.924 20.25 17.9098 20.25 17.8955 20.25C17.8812 20.25 17.867 20.25 17.8527 20.25C17.8385 20.25 17.8242 20.25 17.81 20.25C17.7957 20.25 17.7814 20.25 17.7672 20.25C17.7529 20.25 17.7387 20.25 17.7244 20.25C17.7102 20.25 17.6959 20.25 17.6816 20.25C17.6674 20.25 17.6531 20.25 17.6389 20.25C17.6246 20.25 17.6104 20.25 17.5961 20.25C17.5818 20.25 17.5676 20.25 17.5533 20.25C17.5391 20.25 17.5248 20.25 17.5105 20.25C17.4963 20.25 17.482 20.25 17.4678 20.25C17.4535 20.25 17.4393 20.25 17.425 20.25C17.4107 20.25 17.3965 20.25 17.3822 20.25C17.368 20.25 17.3537 20.25 17.3395 20.25C17.3252 20.25 17.3109 20.25 17.2967 20.25C17.2824 20.25 17.2682 20.25 17.2539 20.25C17.2396 20.25 17.2254 20.25 17.2111 20.25C17.1969 20.25 17.1826 20.25 17.1684 20.25C17.1541 20.25 17.1398 20.25 17.1256 20.25C17.1113 20.25 17.0971 20.25 17.0828 20.25C17.0686 20.25 17.0543 20.25 17.04 20.25C17.0258 20.25 17.0115 20.25 16.9973 20.25C16.983 20.25 16.9687 20.25 16.9545 20.25C16.9402 20.25 16.926 20.25 16.9117 20.25C16.8975 20.25 16.8832 20.25 16.8689 20.25C16.8547 20.25 16.8404 20.25 16.8262 20.25C16.8119 20.25 16.7977 20.25 16.7834 20.25C16.7691 20.25 16.7549 20.25 16.7406 20.25C16.7264 20.25 16.7121 20.25 16.6979 20.25C16.6836 20.25 16.6693 20.25 16.6551 20.25C16.6408 20.25 16.6266 20.25 16.6123 20.25C16.598 20.25 16.5838 20.25 16.5695 20.25C16.5553 20.25 16.541 20.25 16.5268 20.25C16.5125 20.25 16.4982 20.25 16.484 20.25C16.4697 20.25 16.4555 20.25 16.4412 20.25C16.427 20.25 16.4127 20.25 16.3984 20.25C16.3842 20.25 16.3699 20.25 16.3557 20.25C16.3414 20.25 16.3271 20.25 16.3129 20.25C16.2986 20.25 16.2844 20.25 16.2701 20.25C16.2559 20.25 16.2416 20.25 16.2273 20.25C16.2131 20.25 16.1988 20.25 16.1846 20.25C16.1703 20.25 16.1561 20.25 16.1418 20.25C16.1275 20.25 16.1133 20.25 16.099 20.25C16.0848 20.25 16.0705 20.25 16.0562 20.25C16.042 20.25 16.0277 20.25 16.0135 20.25C15.9992 20.25 15.985 20.25 15.9707 20.25C15.9564 20.25 15.9422 20.25 15.9279 20.25C15.9137 20.25 15.8994 20.25 15.8852 20.25C15.8709 20.25 15.8566 20.25 15.8424 20.25C15.8281 20.25 15.8139 20.25 15.7996 20.25C15.7854 20.25 15.7711 20.25 15.7568 20.25C15.7426 20.25 15.7283 20.25 15.7141 20.25C15.6998 20.25 15.6855 20.25 15.6713 20.25C15.657 20.25 15.6428 20.25 15.6285 20.25C15.6143 20.25 15.6 20.25 15.5857 20.25C15.5715 20.25 15.5572 20.25 15.543 20.25C15.5287 20.25 15.5145 20.25 15.5002 20.25C15.4859 20.25 15.4717 20.25 15.4574 20.25C15.4432 20.25 15.4289 20.25 15.4146 20.25C15.4004 20.25 15.3861 20.25 15.3719 20.25C15.3576 20.25 15.3434 20.25 15.3291 20.25C15.3148 20.25 15.3006 20.25 15.2863 20.25C15.2721 20.25 15.2578 20.25 15.2436 20.25C15.2293 20.25 15.215 20.25 15.2008 20.25C15.1865 20.25 15.1723 20.25 15.158 20.25C15.1437 20.25 15.1295 20.25 15.1152 20.25C15.101 20.25 15.0867 20.25 15.0725 20.25C15.0582 20.25 15.0439 20.25 15.0297 20.25C15.0154 20.25 15.0012 20.25 14.9869 20.25C14.9727 20.25 14.9584 20.25 14.9441 20.25C14.9299 20.25 14.9156 20.25 14.9014 20.25C14.8871 20.25 14.8729 20.25 14.8586 20.25C14.8443 20.25 14.8301 20.25 14.8158 20.25C14.8016 20.25 14.7873 20.25 14.773 20.25C14.7588 20.25 14.7445 20.25 14.7303 20.25C14.716 20.25 14.7018 20.25 14.6875 20.25C14.6732 20.25 14.659 20.25 14.6447 20.25C14.6305 20.25 14.6162 20.25 14.602 20.25C14.5877 20.25 14.5734 20.25 14.5592 20.25C14.5449 20.25 14.5307 20.25 14.5164 20.25C14.5021 20.25 14.4879 20.25 14.4736 20.25C14.4594 20.25 14.4451 20.25 14.4309 20.25C14.4166 20.25 14.4023 20.25 14.3881 20.25C14.3738 20.25 14.3596 20.25 14.3453 20.25C14.3311 20.25 14.3168 20.25 14.3025 20.25C14.2883 20.25 14.274 20.25 14.2598 20.25C14.2455 20.25 14.2312 20.25 14.217 20.25C14.2027 20.25 14.1885 20.25 14.1742 20.25C14.16 20.25 14.1457 20.25 14.1314 20.25C14.1172 20.25 14.1029 20.25 14.0887 20.25C14.0744 20.25 14.0602 20.25 14.0459 20.25C14.0316 20.25 14.0174 20.25 14.0031 20.25C13.9889 20.25 13.9746 20.25 13.9604 20.25C13.9461 20.25 13.9318 20.25 13.9176 20.25C13.9033 20.25 13.8891 20.25 13.8748 20.25C13.8605 20.25 13.8463 20.25 13.832 20.25C13.8178 20.25 13.8035 20.25 13.7893 20.25C13.775 20.25 13.7607 20.25 13.7465 20.25C13.7322 20.25 13.718 20.25 13.7037 20.25C13.6895 20.25 13.6752 20.25 13.6609 20.25C13.6467 20.25 13.6324 20.25 13.6182 20.25C13.6039 20.25 13.5896 20.25 13.5754 20.25C13.5611 20.25 13.5469 20.25 13.5326 20.25C13.5184 20.25 13.5041 20.25 13.4898 20.25C13.4756 20.25 13.4613 20.25 13.4471 20.25C13.4328 20.25 13.4186 20.25 13.4043 20.25C13.39 20.25 13.3758 20.25 13.3615 20.25C13.3473 20.25 13.333 20.25 13.3187 20.25C13.3045 20.25 13.2902 20.25 13.276 20.25C13.2617 20.25 13.2475 20.25 13.2332 20.25C13.2189 20.25 13.2047 20.25 13.1904 20.25C13.1762 20.25 13.1619 20.25 13.1477 20.25C13.1334 20.25 13.1191 20.25 13.1049 20.25C13.0906 20.25 13.0764 20.25 13.0621 20.25C13.0479 20.25 13.0336 20.25 13.0193 20.25C13.0051 20.25 12.9908 20.25 12.9766 20.25C12.9623 20.25 12.948 20.25 12.9338 20.25C12.9195 20.25 12.9053 20.25 12.891 20.25C12.8768 20.25 12.8625 20.25 12.8482 20.25C12.834 20.25 12.8197 20.25 12.8055 20.25C12.7912 20.25 12.777 20.25 12.7627 20.25C12.7484 20.25 12.7342 20.25 12.7199 20.25C12.7057 20.25 12.6914 20.25 12.6771 20.25C12.6629 20.25 12.6486 20.25 12.6344 20.25C12.6201 20.25 12.6059 20.25 12.5916 20.25C12.5773 20.25 12.5631 20.25 12.5488 20.25C12.5346 20.25 12.5203 20.25 12.5061 20.25C12.4918 20.25 12.4775 20.25 12.4633 20.25C12.449 20.25 12.4348 20.25 12.4205 20.25C12.4062 20.25 12.392 20.25 12.3777 20.25C12.3635 20.25 12.3492 20.25 12.335 20.25C12.3207 20.25 12.3064 20.25 12.2922 20.25C12.2779 20.25 12.2637 20.25 12.2494 20.25C12.2352 20.25 12.2209 20.25 12.2066 20.25C12.1924 20.25 12.1781 20.25 12.1639 20.25C12.1496 20.25 12.1354 20.25 12.1211 20.25C12.1068 20.25 12.0926 20.25 12.0783 20.25C12.0641 20.25 12.0498 20.25 12.0355 20.25C12.0213 20.25 12.007 20.25 11.9928 20.25C11.9785 20.25 11.9643 20.25 11.95 20.25C11.9357 20.25 11.9215 20.25 11.9072 20.25C11.893 20.25 11.8787 20.25 11.8645 20.25C11.8502 20.25 11.8359 20.25 11.8217 20.25C11.8074 20.25 11.7932 20.25 11.7789 20.25C11.7646 20.25 11.7504 20.25 11.7361 20.25C11.7219 20.25 11.7076 20.25 11.6934 20.25C11.6791 20.25 11.6648 20.25 11.6506 20.25C11.6363 20.25 11.6221 20.25 11.6078 20.25C11.5936 20.25 11.5793 20.25 11.565 20.25C11.5508 20.25 11.5365 20.25 11.5223 20.25C11.508 20.25 11.4938 20.25 11.4795 20.25C11.4652 20.25 11.451 20.25 11.4367 20.25C11.4225 20.25 11.4082 20.25 11.3939 20.25C11.3797 20.25 11.3654 20.25 11.3512 20.25C11.3369 20.25 11.3227 20.25 11.3084 20.25C11.2941 20.25 11.2799 20.25 11.2656 20.25C11.2514 20.25 11.2371 20.25 11.2229 20.25C11.2086 20.25 11.1943 20.25 11.1801 20.25C11.1658 20.25 11.1516 20.25 11.1373 20.25C11.123 20.25 11.1088 20.25 11.0945 20.25C11.0803 20.25 11.066 20.25 11.0518 20.25C11.0375 20.25 11.0232 20.25 11.009 20.25C10.9947 20.25 10.9805 20.25 10.9662 20.25C10.952 20.25 10.9377 20.25 10.9234 20.25C10.9092 20.25 10.8949 20.25 10.8807 20.25C10.8664 20.25 10.8521 20.25 10.8379 20.25C10.8236 20.25 10.8094 20.25 10.7951 20.25C10.7809 20.25 10.7666 20.25 10.7523 20.25C10.7381 20.25 10.7238 20.25 10.7096 20.25C10.6953 20.25 10.6811 20.25 10.6668 20.25C10.6525 20.25 10.6383 20.25 10.624 20.25C10.6098 20.25 10.5955 20.25 10.5813 20.25C10.567 20.25 10.5527 20.25 10.5385 20.25C10.5242 20.25 10.51 20.25 10.4957 20.25C10.4814 20.25 10.4672 20.25 10.4529 20.25C10.4387 20.25 10.4244 20.25 10.4102 20.25C10.3959 20.25 10.3816 20.25 10.3674 20.25C10.3531 20.25 10.3389 20.25 10.3246 20.25C10.3104 20.25 10.2961 20.25 10.2818 20.25C10.2676 20.25 10.2533 20.25 10.2391 20.25C10.2248 20.25 10.2105 20.25 10.1963 20.25C10.182 20.25 10.1678 20.25 10.1535 20.25C10.1393 20.25 10.125 20.25 10.1107 20.25C10.0965 20.25 10.0822 20.25 10.068 20.25C10.0537 20.25 10.0395 20.25 10.0252 20.25C10.0109 20.25 9.99668 20.25 9.98242 20.25C9.96816 20.25 9.95391 20.25 9.93965 20.25C9.92539 20.25 9.91113 20.25 9.89688 20.25C9.88262 20.25 9.86836 20.25 9.8541 20.25C9.83984 20.25 9.82559 20.25 9.81133 20.25C9.79707 20.25 9.78281 20.25 9.76855 20.25C9.7543 20.25 9.74004 20.25 9.72578 20.25C9.71152 20.25 9.69727 20.25 9.68301 20.25C9.66875 20.25 9.65449 20.25 9.64023 20.25C9.62598 20.25 9.61172 20.25 9.59746 20.25C9.5832 20.25 9.56895 20.25 9.55469 20.25C9.54043 20.25 9.52617 20.25 9.51191 20.25C9.49766 20.25 9.4834 20.25 9.46914 20.25C9.45488 20.25 9.44063 20.25 9.42637 20.25C9.41211 20.25 9.39785 20.25 9.38359 20.25C9.36934 20.25 9.35508 20.25 9.34082 20.25C9.32656 20.25 9.3123 20.25 9.29805 20.25C9.28379 20.25 9.26953 20.25 9.25527 20.25C9.24102 20.25 9.22676 20.25 9.2125 20.25C9.19824 20.25 9.18398 20.25 9.16973 20.25C9.15547 20.25 9.14121 20.25 9.12695 20.25C9.1127 20.25 9.09844 20.25 9.08418 20.25C9.06992 20.25 9.05566 20.25 9.04141 20.25C9.02715 20.25 9.01289 20.25 8.99863 20.25C8.98438 20.25 8.97012 20.25 8.95586 20.25C8.9416 20.25 8.92734 20.25 8.91309 20.25C8.89883 20.25 8.88457 20.25 8.87031 20.25C8.85605 20.25 8.8418 20.25 8.82754 20.25C8.81328 20.25 8.79902 20.25 8.78477 20.25C8.77051 20.25 8.75625 20.25 8.74199 20.25C8.72773 20.25 8.71348 20.25 8.69922 20.25C8.68496 20.25 8.6707 20.25 8.65645 20.25C8.64219 20.25 8.62793 20.25 8.61367 20.25C8.59941 20.25 8.58516 20.25 8.5709 20.25C8.55664 20.25 8.54238 20.25 8.52813 20.25C8.51387 20.25 8.49961 20.25 8.48535 20.25C8.47109 20.25 8.45684 20.25 8.44258 20.25C8.42832 20.25 8.41406 20.25 8.3998 20.25C8.38555 20.25 8.37129 20.25 8.35703 20.25C8.34277 20.25 8.32852 20.25 8.31426 20.25C8.3 20.25 8.28574 20.25 8.27148 20.25C8.25723 20.25 8.24297 20.25 8.22871 20.25C8.21445 20.25 8.2002 20.25 8.18594 20.25C8.17168 20.25 8.15742 20.25 8.14316 20.25C8.12891 20.25 8.11465 20.25 8.10039 20.25C8.08613 20.25 8.07188 20.25 8.05762 20.25C8.04336 20.25 8.0291 20.25 8.01484 20.25C8.00059 20.25 7.98633 20.25 7.97207 20.25C7.95781 20.25 7.94355 20.25 7.9293 20.25C7.91504 20.25 7.90078 20.25 7.88652 20.25C7.87227 20.25 7.85801 20.25 7.84375 20.25C7.82949 20.25 7.81523 20.25 7.80098 20.25C7.78672 20.25 7.77246 20.25 7.7582 20.25C7.74395 20.25 7.72969 20.25 7.71543 20.25C7.70117 20.25 7.68691 20.25 7.67266 20.25C7.6584 20.25 7.64414 20.25 7.62988 20.25C7.61563 20.25 7.60137 20.25 7.58711 20.25C7.57285 20.25 7.55859 20.25 7.54434 20.25C7.53008 20.25 7.51582 20.25 7.50156 20.25C7.4873 20.25 7.47305 20.25 7.45879 20.25C7.44453 20.25 7.43027 20.25 7.41602 20.25C7.40176 20.25 7.3875 20.25 7.37324 20.25C7.35898 20.25 7.34473 20.25 7.33047 20.25C7.31621 20.25 7.30195 20.25 7.2877 20.25C7.27344 20.25 7.25918 20.25 7.24492 20.25C7.23066 20.25 7.21641 20.25 7.20215 20.25C7.18789 20.25 7.17363 20.25 7.15938 20.25C7.14512 20.25 7.13086 20.25 7.1166 20.25C7.10234 20.25 7.08809 20.25 7.07383 20.25C7.05957 20.25 7.04531 20.25 7.03105 20.25C7.0168 20.25 7.00254 20.25 6.98828 20.25C6.97402 20.25 6.95977 20.25 6.94551 20.25C6.93125 20.25 6.91699 20.25 6.90273 20.25C6.88848 20.25 6.87422 20.25 6.85996 20.25C6.8457 20.25 6.83145 20.25 6.81719 20.25C6.80293 20.25 6.78867 20.25 6.77441 20.25C6.76016 20.25 6.7459 20.25 6.73164 20.25C6.71738 20.25 6.70313 20.25 6.68887 20.25C6.67461 20.25 6.66035 20.25 6.64609 20.25C6.63184 20.25 6.61758 20.25 6.60332 20.25C6.58906 20.25 6.5748 20.25 6.56055 20.25C6.54629 20.25 6.53203 20.25 6.51777 20.25C6.50352 20.25 6.48926 20.25 6.475 20.25C6.46074 20.25 6.44648 20.25 6.43223 20.25C6.41797 20.25 6.40371 20.25 6.38945 20.25C6.3752 20.25 6.36094 20.25 6.34668 20.25C6.33242 20.25 6.31816 20.25 6.30391 20.25C6.28965 20.25 6.27539 20.25 6.26113 20.25C6.24688 20.25 6.23262 20.25 6.21836 20.25C6.2041 20.25 6.18984 20.25 6.17559 20.25C6.16133 20.25 6.14707 20.25 6.13281 20.25C6.11855 20.25 6.1043 20.25 6.09004 20.25C6.07578 20.25 6.06152 20.25 6.04727 20.25C6.03301 20.25 6.01875 20.25 6.00449 20.25C5.99023 20.25 5.97598 20.25 5.96172 20.25C5.94746 20.25 5.9332 20.25 5.91895 20.25C5.90469 20.25 5.89043 20.25 5.87617 20.25C5.86191 20.25 5.84766 20.25 5.8334 20.25C5.81914 20.25 5.80488 20.25 5.79063 20.25C5.77637 20.25 5.76211 20.25 5.74785 20.25C5.73359 20.25 5.71934 20.25 5.70508 20.25C5.69082 20.25 5.67656 20.25 5.6623 20.25C5.64805 20.25 5.63379 20.25 5.61953 20.25C5.60527 20.25 5.59102 20.25 5.57676 20.25C5.5625 20.25 5.54824 20.25 5.53398 20.25C5.51973 20.25 5.50547 20.25 5.49121 20.25C5.47695 20.25 5.4627 20.25 5.44844 20.25C5.43418 20.25 5.41992 20.25 5.40566 20.25C5.39141 20.25 5.37715 20.25 5.36289 20.25C5.34863 20.25 5.33438 20.25 5.32012 20.25C5.30586 20.25 5.2916 20.25 5.27734 20.25C5.26309 20.25 5.24883 20.25 5.23457 20.25C5.22031 20.25 5.20605 20.25 5.1918 20.25C5.17754 20.25 5.16328 20.25 5.14902 20.25C5.13477 20.25 5.12051 20.25 5.10625 20.25C5.09199 20.25 5.07773 20.25 5.06348 20.25C5.04922 20.25 5.03496 20.25 5.0207 20.25C5.00645 20.25 4.99219 20.25 4.97793 20.25C4.96367 20.25 4.94941 20.25 4.93516 20.25C4.9209 20.25 4.90664 20.25 4.89238 20.25C4.87813 20.25 4.86387 20.25 4.84961 20.25C4.83535 20.25 4.82109 20.25 4.80684 20.25C4.79258 20.25 4.77832 20.25 4.76406 20.25C4.7498 20.25 4.73555 20.25 4.72129 20.25C4.70703 20.25 4.69277 20.25 4.67852 20.25C4.66426 20.25 4.65 20.25 4.63574 20.25C4.62148 20.25 4.60723 20.25 4.59297 20.25C4.57871 20.25 4.56445 20.25 4.5502 20.25C4.53594 20.25 4.52168 20.25 4.50742 20.25C4.49316 20.25 4.47891 20.25 4.46465 20.25C4.45039 20.25 4.43613 20.25 4.42188 20.25C4.40762 20.25 4.39336 20.25 4.3791 20.25C4.36484 20.25 4.35059 20.25 4.33633 20.25C4.32207 20.25 4.30781 20.25 4.29355 20.25C4.2793 20.25 4.26504 20.25 4.25078 20.25C4.23652 20.25 4.22227 20.25 4.20801 20.25C4.19375 20.25 4.17949 20.25 4.16523 20.25C4.15098 20.25 4.13672 20.25 4.12246 20.25C4.1082 20.25 4.09395 20.25 4.07969 20.25C4.06543 20.25 4.05117 20.25 4.03691 20.25C4.02266 20.25 4.0084 20.25 3.99414 20.25C3.97988 20.25 3.96563 20.25 3.95137 20.25C3.93711 20.25 3.92285 20.25 3.90859 20.25C3.89434 20.25 3.88008 20.25 3.86582 20.25C3.85156 20.25 3.8373 20.25 3.82305 20.25C3.80879 20.25 3.79453 20.25 3.78027 20.25C3.76602 20.25 3.75176 20.25 3.7375 20.25C3.72324 20.25 3.70898 20.25 3.69473 20.25C3.68047 20.25 3.66621 20.25 3.65195 20.25C3.6377 20.25 3.62344 20.25 3.60918 20.25C3.59492 20.25 3.58066 20.25 3.56641 20.25C3.55215 20.25 3.53789 20.25 3.52363 20.25C3.50938 20.25 3.49512 20.25 3.48086 20.25C3.4666 20.25 3.45234 20.25 3.43809 20.25C3.42383 20.25 3.40957 20.25 3.39531 20.25C3.38105 20.25 3.3668 20.25 3.35254 20.25C3.33828 20.25 3.32402 20.25 3.30977 20.25C3.29551 20.25 3.28125 20.25 3.26699 20.25C3.25273 20.25 3.23848 20.25 3.22422 20.25C3.20996 20.25 3.1957 20.25 3.18145 20.25C3.16719 20.25 3.15293 20.25 3.13867 20.25C3.12441 20.25 3.11016 20.25 3.0959 20.25C3.08164 20.25 3.06738 20.25 3.05313 20.25C3.03887 20.25 3.02461 20.25 3.01035 20.25C2.99609 20.25 2.98184 20.25 2.96758 20.25C2.95332 20.25 2.93906 20.25 2.9248 20.25C2.91055 20.25 2.89629 20.25 2.88203 20.25C2.86777 20.25 2.85352 20.25 2.83926 20.25C2.825 20.25 2.81074 20.25 2.79648 20.25C2.78223 20.25 2.76797 20.25 2.75371 20.25C2.73945 20.25 2.7252 20.25 2.71094 20.25C2.69668 20.25 2.68242 20.25 2.66816 20.25C2.65391 20.25 2.63965 20.25 2.62539 20.25C2.61113 20.25 2.59688 20.25 2.58262 20.25C2.56836 20.25 2.5541 20.25 2.53984 20.25C2.52559 20.25 2.51133 20.25 2.49707 20.25C2.48281 20.25 2.46855 20.25 2.4543 20.25C2.44004 20.25 2.42578 20.25 2.41152 20.25C2.39727 20.25 2.38301 20.25 2.36875 20.25C2.35449 20.25 2.34023 20.25 2.32598 20.25C2.31172 20.25 2.29746 20.25 2.2832 20.25C2.26895 20.25 2.25469 20.25 2.24043 20.25C2.22617 20.25 2.21191 20.25 2.19766 20.25C2.1834 20.25 2.16914 20.25 2.15488 20.25C2.14063 20.25 2.12637 20.25 2.11211 20.25C2.09785 20.25 2.08359 20.25 2.06934 20.25C2.05508 20.25 2.04082 20.25 2.02656 20.25C2.0123 20.25 1.99805 20.25 1.98379 20.25C1.96953 20.25 1.95527 20.25 1.94102 20.25C1.92676 20.25 1.9125 20.25 1.89824 20.25C1.88398 20.25 1.86973 20.25 1.85547 20.25C1.84121 20.25 1.82695 20.25 1.8127 20.25C1.79844 20.25 1.78418 20.25 1.76992 20.25C1.75566 20.25 1.74141 20.25 1.72715 20.25C1.71289 20.25 1.69863 20.25 1.68438 20.25C1.67012 20.25 1.65586 20.25 1.6416 20.25C1.62734 20.25 1.61309 20.25 1.59883 20.25C1.58457 20.25 1.57031 20.25 1.55605 20.25C1.5418 20.25 1.52754 20.25 1.51328 20.25C1.49902 20.25 1.48477 20.25 1.47051 20.25C1.45625 20.25 1.44199 20.25 1.42773 20.25C1.41348 20.25 1.39922 20.25 1.38496 20.25C1.3707 20.25 1.35645 20.25 1.34219 20.25C1.32793 20.25 1.31367 20.25 1.29941 20.25C1.28516 20.25 1.2709 20.25 1.25664 20.25C1.24238 20.25 1.22813 20.25 1.21387 20.25C1.19961 20.25 1.18535 20.25 1.17109 20.25C1.15684 20.25 1.14258 20.25 1.12832 20.25C1.11406 20.25 1.0998 20.25 1.08555 20.25C1.07129 20.25 1.05703 20.25 1.04277 20.25C1.02852 20.25 1.01426 20.25 1 20.25V21.75C1.01426 21.75 1.02852 21.75 1.04277 21.75C1.05703 21.75 1.07129 21.75 1.08555 21.75C1.0998 21.75 1.11406 21.75 1.12832 21.75C1.14258 21.75 1.15684 21.75 1.17109 21.75C1.18535 21.75 1.19961 21.75 1.21387 21.75C1.22813 21.75 1.24238 21.75 1.25664 21.75C1.2709 21.75 1.28516 21.75 1.29941 21.75C1.31367 21.75 1.32793 21.75 1.34219 21.75C1.35645 21.75 1.3707 21.75 1.38496 21.75C1.39922 21.75 1.41348 21.75 1.42773 21.75C1.44199 21.75 1.45625 21.75 1.47051 21.75C1.48477 21.75 1.49902 21.75 1.51328 21.75C1.52754 21.75 1.5418 21.75 1.55605 21.75C1.57031 21.75 1.58457 21.75 1.59883 21.75C1.61309 21.75 1.62734 21.75 1.6416 21.75C1.65586 21.75 1.67012 21.75 1.68438 21.75C1.69863 21.75 1.71289 21.75 1.72715 21.75C1.74141 21.75 1.75566 21.75 1.76992 21.75C1.78418 21.75 1.79844 21.75 1.8127 21.75C1.82695 21.75 1.84121 21.75 1.85547 21.75C1.86973 21.75 1.88398 21.75 1.89824 21.75C1.9125 21.75 1.92676 21.75 1.94102 21.75C1.95527 21.75 1.96953 21.75 1.98379 21.75C1.99805 21.75 2.0123 21.75 2.02656 21.75C2.04082 21.75 2.05508 21.75 2.06934 21.75C2.08359 21.75 2.09785 21.75 2.11211 21.75C2.12637 21.75 2.14063 21.75 2.15488 21.75C2.16914 21.75 2.1834 21.75 2.19766 21.75C2.21191 21.75 2.22617 21.75 2.24043 21.75C2.25469 21.75 2.26895 21.75 2.2832 21.75C2.29746 21.75 2.31172 21.75 2.32598 21.75C2.34023 21.75 2.35449 21.75 2.36875 21.75C2.38301 21.75 2.39727 21.75 2.41152 21.75C2.42578 21.75 2.44004 21.75 2.4543 21.75C2.46855 21.75 2.48281 21.75 2.49707 21.75C2.51133 21.75 2.52559 21.75 2.53984 21.75C2.5541 21.75 2.56836 21.75 2.58262 21.75C2.59688 21.75 2.61113 21.75 2.62539 21.75C2.63965 21.75 2.65391 21.75 2.66816 21.75C2.68242 21.75 2.69668 21.75 2.71094 21.75C2.7252 21.75 2.73945 21.75 2.75371 21.75C2.76797 21.75 2.78223 21.75 2.79648 21.75C2.81074 21.75 2.825 21.75 2.83926 21.75C2.85352 21.75 2.86777 21.75 2.88203 21.75C2.89629 21.75 2.91055 21.75 2.9248 21.75C2.93906 21.75 2.95332 21.75 2.96758 21.75C2.98184 21.75 2.99609 21.75 3.01035 21.75C3.02461 21.75 3.03887 21.75 3.05313 21.75C3.06738 21.75 3.08164 21.75 3.0959 21.75C3.11016 21.75 3.12441 21.75 3.13867 21.75C3.15293 21.75 3.16719 21.75 3.18145 21.75C3.1957 21.75 3.20996 21.75 3.22422 21.75C3.23848 21.75 3.25273 21.75 3.26699 21.75C3.28125 21.75 3.29551 21.75 3.30977 21.75C3.32402 21.75 3.33828 21.75 3.35254 21.75C3.3668 21.75 3.38105 21.75 3.39531 21.75C3.40957 21.75 3.42383 21.75 3.43809 21.75C3.45234 21.75 3.4666 21.75 3.48086 21.75C3.49512 21.75 3.50938 21.75 3.52363 21.75C3.53789 21.75 3.55215 21.75 3.56641 21.75C3.58066 21.75 3.59492 21.75 3.60918 21.75C3.62344 21.75 3.6377 21.75 3.65195 21.75C3.66621 21.75 3.68047 21.75 3.69473 21.75C3.70898 21.75 3.72324 21.75 3.7375 21.75C3.75176 21.75 3.76602 21.75 3.78027 21.75C3.79453 21.75 3.80879 21.75 3.82305 21.75C3.8373 21.75 3.85156 21.75 3.86582 21.75C3.88008 21.75 3.89434 21.75 3.90859 21.75C3.92285 21.75 3.93711 21.75 3.95137 21.75C3.96563 21.75 3.97988 21.75 3.99414 21.75C4.0084 21.75 4.02266 21.75 4.03691 21.75C4.05117 21.75 4.06543 21.75 4.07969 21.75C4.09395 21.75 4.1082 21.75 4.12246 21.75C4.13672 21.75 4.15098 21.75 4.16523 21.75C4.17949 21.75 4.19375 21.75 4.20801 21.75C4.22227 21.75 4.23652 21.75 4.25078 21.75C4.26504 21.75 4.2793 21.75 4.29355 21.75C4.30781 21.75 4.32207 21.75 4.33633 21.75C4.35059 21.75 4.36484 21.75 4.3791 21.75C4.39336 21.75 4.40762 21.75 4.42188 21.75C4.43613 21.75 4.45039 21.75 4.46465 21.75C4.47891 21.75 4.49316 21.75 4.50742 21.75C4.52168 21.75 4.53594 21.75 4.5502 21.75C4.56445 21.75 4.57871 21.75 4.59297 21.75C4.60723 21.75 4.62148 21.75 4.63574 21.75C4.65 21.75 4.66426 21.75 4.67852 21.75C4.69277 21.75 4.70703 21.75 4.72129 21.75C4.73555 21.75 4.7498 21.75 4.76406 21.75C4.77832 21.75 4.79258 21.75 4.80684 21.75C4.82109 21.75 4.83535 21.75 4.84961 21.75C4.86387 21.75 4.87813 21.75 4.89238 21.75C4.90664 21.75 4.9209 21.75 4.93516 21.75C4.94941 21.75 4.96367 21.75 4.97793 21.75C4.99219 21.75 5.00645 21.75 5.0207 21.75C5.03496 21.75 5.04922 21.75 5.06348 21.75C5.07773 21.75 5.09199 21.75 5.10625 21.75C5.12051 21.75 5.13477 21.75 5.14902 21.75C5.16328 21.75 5.17754 21.75 5.1918 21.75C5.20605 21.75 5.22031 21.75 5.23457 21.75C5.24883 21.75 5.26309 21.75 5.27734 21.75C5.2916 21.75 5.30586 21.75 5.32012 21.75C5.33438 21.75 5.34863 21.75 5.36289 21.75C5.37715 21.75 5.39141 21.75 5.40566 21.75C5.41992 21.75 5.43418 21.75 5.44844 21.75C5.4627 21.75 5.47695 21.75 5.49121 21.75C5.50547 21.75 5.51973 21.75 5.53398 21.75C5.54824 21.75 5.5625 21.75 5.57676 21.75C5.59102 21.75 5.60527 21.75 5.61953 21.75C5.63379 21.75 5.64805 21.75 5.6623 21.75C5.67656 21.75 5.69082 21.75 5.70508 21.75C5.71934 21.75 5.73359 21.75 5.74785 21.75C5.76211 21.75 5.77637 21.75 5.79063 21.75C5.80488 21.75 5.81914 21.75 5.8334 21.75C5.84766 21.75 5.86191 21.75 5.87617 21.75C5.89043 21.75 5.90469 21.75 5.91895 21.75C5.9332 21.75 5.94746 21.75 5.96172 21.75C5.97598 21.75 5.99023 21.75 6.00449 21.75C6.01875 21.75 6.03301 21.75 6.04727 21.75C6.06152 21.75 6.07578 21.75 6.09004 21.75C6.1043 21.75 6.11855 21.75 6.13281 21.75C6.14707 21.75 6.16133 21.75 6.17559 21.75C6.18984 21.75 6.2041 21.75 6.21836 21.75C6.23262 21.75 6.24688 21.75 6.26113 21.75C6.27539 21.75 6.28965 21.75 6.30391 21.75C6.31816 21.75 6.33242 21.75 6.34668 21.75C6.36094 21.75 6.3752 21.75 6.38945 21.75C6.40371 21.75 6.41797 21.75 6.43223 21.75C6.44648 21.75 6.46074 21.75 6.475 21.75C6.48926 21.75 6.50352 21.75 6.51777 21.75C6.53203 21.75 6.54629 21.75 6.56055 21.75C6.5748 21.75 6.58906 21.75 6.60332 21.75C6.61758 21.75 6.63184 21.75 6.64609 21.75C6.66035 21.75 6.67461 21.75 6.68887 21.75C6.70313 21.75 6.71738 21.75 6.73164 21.75C6.7459 21.75 6.76016 21.75 6.77441 21.75C6.78867 21.75 6.80293 21.75 6.81719 21.75C6.83145 21.75 6.8457 21.75 6.85996 21.75C6.87422 21.75 6.88848 21.75 6.90273 21.75C6.91699 21.75 6.93125 21.75 6.94551 21.75C6.95977 21.75 6.97402 21.75 6.98828 21.75C7.00254 21.75 7.0168 21.75 7.03105 21.75C7.04531 21.75 7.05957 21.75 7.07383 21.75C7.08809 21.75 7.10234 21.75 7.1166 21.75C7.13086 21.75 7.14512 21.75 7.15938 21.75C7.17363 21.75 7.18789 21.75 7.20215 21.75C7.21641 21.75 7.23066 21.75 7.24492 21.75C7.25918 21.75 7.27344 21.75 7.2877 21.75C7.30195 21.75 7.31621 21.75 7.33047 21.75C7.34473 21.75 7.35898 21.75 7.37324 21.75C7.3875 21.75 7.40176 21.75 7.41602 21.75C7.43027 21.75 7.44453 21.75 7.45879 21.75C7.47305 21.75 7.4873 21.75 7.50156 21.75C7.51582 21.75 7.53008 21.75 7.54434 21.75C7.55859 21.75 7.57285 21.75 7.58711 21.75C7.60137 21.75 7.61563 21.75 7.62988 21.75C7.64414 21.75 7.6584 21.75 7.67266 21.75C7.68691 21.75 7.70117 21.75 7.71543 21.75C7.72969 21.75 7.74395 21.75 7.7582 21.75C7.77246 21.75 7.78672 21.75 7.80098 21.75C7.81523 21.75 7.82949 21.75 7.84375 21.75C7.85801 21.75 7.87227 21.75 7.88652 21.75C7.90078 21.75 7.91504 21.75 7.9293 21.75C7.94355 21.75 7.95781 21.75 7.97207 21.75C7.98633 21.75 8.00059 21.75 8.01484 21.75C8.0291 21.75 8.04336 21.75 8.05762 21.75C8.07188 21.75 8.08613 21.75 8.10039 21.75C8.11465 21.75 8.12891 21.75 8.14316 21.75C8.15742 21.75 8.17168 21.75 8.18594 21.75C8.2002 21.75 8.21445 21.75 8.22871 21.75C8.24297 21.75 8.25723 21.75 8.27148 21.75C8.28574 21.75 8.3 21.75 8.31426 21.75C8.32852 21.75 8.34277 21.75 8.35703 21.75C8.37129 21.75 8.38555 21.75 8.3998 21.75C8.41406 21.75 8.42832 21.75 8.44258 21.75C8.45684 21.75 8.47109 21.75 8.48535 21.75C8.49961 21.75 8.51387 21.75 8.52813 21.75C8.54238 21.75 8.55664 21.75 8.5709 21.75C8.58516 21.75 8.59941 21.75 8.61367 21.75C8.62793 21.75 8.64219 21.75 8.65645 21.75C8.6707 21.75 8.68496 21.75 8.69922 21.75C8.71348 21.75 8.72773 21.75 8.74199 21.75C8.75625 21.75 8.77051 21.75 8.78477 21.75C8.79902 21.75 8.81328 21.75 8.82754 21.75C8.8418 21.75 8.85605 21.75 8.87031 21.75C8.88457 21.75 8.89883 21.75 8.91309 21.75C8.92734 21.75 8.9416 21.75 8.95586 21.75C8.97012 21.75 8.98438 21.75 8.99863 21.75C9.01289 21.75 9.02715 21.75 9.04141 21.75C9.05566 21.75 9.06992 21.75 9.08418 21.75C9.09844 21.75 9.1127 21.75 9.12695 21.75C9.14121 21.75 9.15547 21.75 9.16973 21.75C9.18398 21.75 9.19824 21.75 9.2125 21.75C9.22676 21.75 9.24102 21.75 9.25527 21.75C9.26953 21.75 9.28379 21.75 9.29805 21.75C9.3123 21.75 9.32656 21.75 9.34082 21.75C9.35508 21.75 9.36934 21.75 9.38359 21.75C9.39785 21.75 9.41211 21.75 9.42637 21.75C9.44063 21.75 9.45488 21.75 9.46914 21.75C9.4834 21.75 9.49766 21.75 9.51191 21.75C9.52617 21.75 9.54043 21.75 9.55469 21.75C9.56895 21.75 9.5832 21.75 9.59746 21.75C9.61172 21.75 9.62598 21.75 9.64023 21.75C9.65449 21.75 9.66875 21.75 9.68301 21.75C9.69727 21.75 9.71152 21.75 9.72578 21.75C9.74004 21.75 9.7543 21.75 9.76855 21.75C9.78281 21.75 9.79707 21.75 9.81133 21.75C9.82559 21.75 9.83984 21.75 9.8541 21.75C9.86836 21.75 9.88262 21.75 9.89688 21.75C9.91113 21.75 9.92539 21.75 9.93965 21.75C9.95391 21.75 9.96816 21.75 9.98242 21.75C9.99668 21.75 10.0109 21.75 10.0252 21.75C10.0395 21.75 10.0537 21.75 10.068 21.75C10.0822 21.75 10.0965 21.75 10.1107 21.75C10.125 21.75 10.1393 21.75 10.1535 21.75C10.1678 21.75 10.182 21.75 10.1963 21.75C10.2105 21.75 10.2248 21.75 10.2391 21.75C10.2533 21.75 10.2676 21.75 10.2818 21.75C10.2961 21.75 10.3104 21.75 10.3246 21.75C10.3389 21.75 10.3531 21.75 10.3674 21.75C10.3816 21.75 10.3959 21.75 10.4102 21.75C10.4244 21.75 10.4387 21.75 10.4529 21.75C10.4672 21.75 10.4814 21.75 10.4957 21.75C10.51 21.75 10.5242 21.75 10.5385 21.75C10.5527 21.75 10.567 21.75 10.5813 21.75C10.5955 21.75 10.6098 21.75 10.624 21.75C10.6383 21.75 10.6525 21.75 10.6668 21.75C10.6811 21.75 10.6953 21.75 10.7096 21.75C10.7238 21.75 10.7381 21.75 10.7523 21.75C10.7666 21.75 10.7809 21.75 10.7951 21.75C10.8094 21.75 10.8236 21.75 10.8379 21.75C10.8521 21.75 10.8664 21.75 10.8807 21.75C10.8949 21.75 10.9092 21.75 10.9234 21.75C10.9377 21.75 10.952 21.75 10.9662 21.75C10.9805 21.75 10.9947 21.75 11.009 21.75C11.0232 21.75 11.0375 21.75 11.0518 21.75C11.066 21.75 11.0803 21.75 11.0945 21.75C11.1088 21.75 11.123 21.75 11.1373 21.75C11.1516 21.75 11.1658 21.75 11.1801 21.75C11.1943 21.75 11.2086 21.75 11.2229 21.75C11.2371 21.75 11.2514 21.75 11.2656 21.75C11.2799 21.75 11.2941 21.75 11.3084 21.75C11.3227 21.75 11.3369 21.75 11.3512 21.75C11.3654 21.75 11.3797 21.75 11.3939 21.75C11.4082 21.75 11.4225 21.75 11.4367 21.75C11.451 21.75 11.4652 21.75 11.4795 21.75C11.4938 21.75 11.508 21.75 11.5223 21.75C11.5365 21.75 11.5508 21.75 11.565 21.75C11.5793 21.75 11.5936 21.75 11.6078 21.75C11.6221 21.75 11.6363 21.75 11.6506 21.75C11.6648 21.75 11.6791 21.75 11.6934 21.75C11.7076 21.75 11.7219 21.75 11.7361 21.75C11.7504 21.75 11.7646 21.75 11.7789 21.75C11.7932 21.75 11.8074 21.75 11.8217 21.75C11.8359 21.75 11.8502 21.75 11.8645 21.75C11.8787 21.75 11.893 21.75 11.9072 21.75C11.9215 21.75 11.9357 21.75 11.95 21.75C11.9643 21.75 11.9785 21.75 11.9928 21.75C12.007 21.75 12.0213 21.75 12.0355 21.75C12.0498 21.75 12.0641 21.75 12.0783 21.75C12.0926 21.75 12.1068 21.75 12.1211 21.75C12.1354 21.75 12.1496 21.75 12.1639 21.75C12.1781 21.75 12.1924 21.75 12.2066 21.75C12.2209 21.75 12.2352 21.75 12.2494 21.75C12.2637 21.75 12.2779 21.75 12.2922 21.75C12.3064 21.75 12.3207 21.75 12.335 21.75C12.3492 21.75 12.3635 21.75 12.3777 21.75C12.392 21.75 12.4062 21.75 12.4205 21.75C12.4348 21.75 12.449 21.75 12.4633 21.75C12.4775 21.75 12.4918 21.75 12.5061 21.75C12.5203 21.75 12.5346 21.75 12.5488 21.75C12.5631 21.75 12.5773 21.75 12.5916 21.75C12.6059 21.75 12.6201 21.75 12.6344 21.75C12.6486 21.75 12.6629 21.75 12.6771 21.75C12.6914 21.75 12.7057 21.75 12.7199 21.75C12.7342 21.75 12.7484 21.75 12.7627 21.75C12.777 21.75 12.7912 21.75 12.8055 21.75C12.8197 21.75 12.834 21.75 12.8482 21.75C12.8625 21.75 12.8768 21.75 12.891 21.75C12.9053 21.75 12.9195 21.75 12.9338 21.75C12.948 21.75 12.9623 21.75 12.9766 21.75C12.9908 21.75 13.0051 21.75 13.0193 21.75C13.0336 21.75 13.0479 21.75 13.0621 21.75C13.0764 21.75 13.0906 21.75 13.1049 21.75C13.1191 21.75 13.1334 21.75 13.1477 21.75C13.1619 21.75 13.1762 21.75 13.1904 21.75C13.2047 21.75 13.2189 21.75 13.2332 21.75C13.2475 21.75 13.2617 21.75 13.276 21.75C13.2902 21.75 13.3045 21.75 13.3187 21.75C13.333 21.75 13.3473 21.75 13.3615 21.75C13.3758 21.75 13.39 21.75 13.4043 21.75C13.4186 21.75 13.4328 21.75 13.4471 21.75C13.4613 21.75 13.4756 21.75 13.4898 21.75C13.5041 21.75 13.5184 21.75 13.5326 21.75C13.5469 21.75 13.5611 21.75 13.5754 21.75C13.5896 21.75 13.6039 21.75 13.6182 21.75C13.6324 21.75 13.6467 21.75 13.6609 21.75C13.6752 21.75 13.6895 21.75 13.7037 21.75C13.718 21.75 13.7322 21.75 13.7465 21.75C13.7607 21.75 13.775 21.75 13.7893 21.75C13.8035 21.75 13.8178 21.75 13.832 21.75C13.8463 21.75 13.8605 21.75 13.8748 21.75C13.8891 21.75 13.9033 21.75 13.9176 21.75C13.9318 21.75 13.9461 21.75 13.9604 21.75C13.9746 21.75 13.9889 21.75 14.0031 21.75C14.0174 21.75 14.0316 21.75 14.0459 21.75C14.0602 21.75 14.0744 21.75 14.0887 21.75C14.1029 21.75 14.1172 21.75 14.1314 21.75C14.1457 21.75 14.16 21.75 14.1742 21.75C14.1885 21.75 14.2027 21.75 14.217 21.75C14.2312 21.75 14.2455 21.75 14.2598 21.75C14.274 21.75 14.2883 21.75 14.3025 21.75C14.3168 21.75 14.3311 21.75 14.3453 21.75C14.3596 21.75 14.3738 21.75 14.3881 21.75C14.4023 21.75 14.4166 21.75 14.4309 21.75C14.4451 21.75 14.4594 21.75 14.4736 21.75C14.4879 21.75 14.5021 21.75 14.5164 21.75C14.5307 21.75 14.5449 21.75 14.5592 21.75C14.5734 21.75 14.5877 21.75 14.602 21.75C14.6162 21.75 14.6305 21.75 14.6447 21.75C14.659 21.75 14.6732 21.75 14.6875 21.75C14.7018 21.75 14.716 21.75 14.7303 21.75C14.7445 21.75 14.7588 21.75 14.773 21.75C14.7873 21.75 14.8016 21.75 14.8158 21.75C14.8301 21.75 14.8443 21.75 14.8586 21.75C14.8729 21.75 14.8871 21.75 14.9014 21.75C14.9156 21.75 14.9299 21.75 14.9441 21.75C14.9584 21.75 14.9727 21.75 14.9869 21.75C15.0012 21.75 15.0154 21.75 15.0297 21.75C15.0439 21.75 15.0582 21.75 15.0725 21.75C15.0867 21.75 15.101 21.75 15.1152 21.75C15.1295 21.75 15.1437 21.75 15.158 21.75C15.1723 21.75 15.1865 21.75 15.2008 21.75C15.215 21.75 15.2293 21.75 15.2436 21.75C15.2578 21.75 15.2721 21.75 15.2863 21.75C15.3006 21.75 15.3148 21.75 15.3291 21.75C15.3434 21.75 15.3576 21.75 15.3719 21.75C15.3861 21.75 15.4004 21.75 15.4146 21.75C15.4289 21.75 15.4432 21.75 15.4574 21.75C15.4717 21.75 15.4859 21.75 15.5002 21.75C15.5145 21.75 15.5287 21.75 15.543 21.75C15.5572 21.75 15.5715 21.75 15.5857 21.75C15.6 21.75 15.6143 21.75 15.6285 21.75C15.6428 21.75 15.657 21.75 15.6713 21.75C15.6855 21.75 15.6998 21.75 15.7141 21.75C15.7283 21.75 15.7426 21.75 15.7568 21.75C15.7711 21.75 15.7854 21.75 15.7996 21.75C15.8139 21.75 15.8281 21.75 15.8424 21.75C15.8566 21.75 15.8709 21.75 15.8852 21.75C15.8994 21.75 15.9137 21.75 15.9279 21.75C15.9422 21.75 15.9564 21.75 15.9707 21.75C15.985 21.75 15.9992 21.75 16.0135 21.75C16.0277 21.75 16.042 21.75 16.0562 21.75C16.0705 21.75 16.0848 21.75 16.099 21.75C16.1133 21.75 16.1275 21.75 16.1418 21.75C16.1561 21.75 16.1703 21.75 16.1846 21.75C16.1988 21.75 16.2131 21.75 16.2273 21.75C16.2416 21.75 16.2559 21.75 16.2701 21.75C16.2844 21.75 16.2986 21.75 16.3129 21.75C16.3271 21.75 16.3414 21.75 16.3557 21.75C16.3699 21.75 16.3842 21.75 16.3984 21.75C16.4127 21.75 16.427 21.75 16.4412 21.75C16.4555 21.75 16.4697 21.75 16.484 21.75C16.4982 21.75 16.5125 21.75 16.5268 21.75C16.541 21.75 16.5553 21.75 16.5695 21.75C16.5838 21.75 16.598 21.75 16.6123 21.75C16.6266 21.75 16.6408 21.75 16.6551 21.75C16.6693 21.75 16.6836 21.75 16.6979 21.75C16.7121 21.75 16.7264 21.75 16.7406 21.75C16.7549 21.75 16.7691 21.75 16.7834 21.75C16.7977 21.75 16.8119 21.75 16.8262 21.75C16.8404 21.75 16.8547 21.75 16.8689 21.75C16.8832 21.75 16.8975 21.75 16.9117 21.75C16.926 21.75 16.9402 21.75 16.9545 21.75C16.9687 21.75 16.983 21.75 16.9973 21.75C17.0115 21.75 17.0258 21.75 17.04 21.75C17.0543 21.75 17.0686 21.75 17.0828 21.75C17.0971 21.75 17.1113 21.75 17.1256 21.75C17.1398 21.75 17.1541 21.75 17.1684 21.75C17.1826 21.75 17.1969 21.75 17.2111 21.75C17.2254 21.75 17.2396 21.75 17.2539 21.75C17.2682 21.75 17.2824 21.75 17.2967 21.75C17.3109 21.75 17.3252 21.75 17.3395 21.75C17.3537 21.75 17.368 21.75 17.3822 21.75C17.3965 21.75 17.4107 21.75 17.425 21.75C17.4393 21.75 17.4535 21.75 17.4678 21.75C17.482 21.75 17.4963 21.75 17.5105 21.75C17.5248 21.75 17.5391 21.75 17.5533 21.75C17.5676 21.75 17.5818 21.75 17.5961 21.75C17.6104 21.75 17.6246 21.75 17.6389 21.75C17.6531 21.75 17.6674 21.75 17.6816 21.75C17.6959 21.75 17.7102 21.75 17.7244 21.75C17.7387 21.75 17.7529 21.75 17.7672 21.75C17.7814 21.75 17.7957 21.75 17.81 21.75C17.8242 21.75 17.8385 21.75 17.8527 21.75C17.867 21.75 17.8812 21.75 17.8955 21.75C17.9098 21.75 17.924 21.75 17.9383 21.75C17.9525 21.75 17.9668 21.75 17.9811 21.75C17.9953 21.75 18.0096 21.75 18.0238 21.75C18.0381 21.75 18.0523 21.75 18.0666 21.75C18.0809 21.75 18.0951 21.75 18.1094 21.75C18.1236 21.75 18.1379 21.75 18.1521 21.75C18.1664 21.75 18.1807 21.75 18.1949 21.75C18.2092 21.75 18.2234 21.75 18.2377 21.75C18.252 21.75 18.2662 21.75 18.2805 21.75C18.2947 21.75 18.309 21.75 18.3232 21.75C18.3375 21.75 18.3518 21.75 18.366 21.75C18.3803 21.75 18.3945 21.75 18.4088 21.75C18.423 21.75 18.4373 21.75 18.4516 21.75C18.4658 21.75 18.4801 21.75 18.4943 21.75C18.5086 21.75 18.5229 21.75 18.5371 21.75C18.5514 21.75 18.5656 21.75 18.5799 21.75C18.5941 21.75 18.6084 21.75 18.6227 21.75C18.6369 21.75 18.6512 21.75 18.6654 21.75C18.6797 21.75 18.6939 21.75 18.7082 21.75C18.7225 21.75 18.7367 21.75 18.751 21.75C18.7652 21.75 18.7795 21.75 18.7937 21.75C18.808 21.75 18.8223 21.75 18.8365 21.75C18.8508 21.75 18.865 21.75 18.8793 21.75C18.8936 21.75 18.9078 21.75 18.9221 21.75C18.9363 21.75 18.9506 21.75 18.9648 21.75C18.9791 21.75 18.9934 21.75 19.0076 21.75C19.0219 21.75 19.0361 21.75 19.0504 21.75C19.0646 21.75 19.0789 21.75 19.0932 21.75C19.1074 21.75 19.1217 21.75 19.1359 21.75C19.1502 21.75 19.1645 21.75 19.1787 21.75C19.193 21.75 19.2072 21.75 19.2215 21.75C19.2357 21.75 19.25 21.75 19.2643 21.75C19.2785 21.75 19.2928 21.75 19.307 21.75C19.3213 21.75 19.3355 21.75 19.3498 21.75C19.3641 21.75 19.3783 21.75 19.3926 21.75C19.4068 21.75 19.4211 21.75 19.4354 21.75C19.4496 21.75 19.4639 21.75 19.4781 21.75C19.4924 21.75 19.5066 21.75 19.5209 21.75C19.5352 21.75 19.5494 21.75 19.5637 21.75C19.5779 21.75 19.5922 21.75 19.6064 21.75C19.6207 21.75 19.635 21.75 19.6492 21.75C19.6635 21.75 19.6777 21.75 19.692 21.75C19.7062 21.75 19.7205 21.75 19.7348 21.75C19.749 21.75 19.7633 21.75 19.7775 21.75C19.7918 21.75 19.8061 21.75 19.8203 21.75C19.8346 21.75 19.8488 21.75 19.8631 21.75C19.8773 21.75 19.8916 21.75 19.9059 21.75C19.9201 21.75 19.9344 21.75 19.9486 21.75C19.9629 21.75 19.9771 21.75 19.9914 21.75C20.0057 21.75 20.0199 21.75 20.0342 21.75C20.0484 21.75 20.0627 21.75 20.077 21.75C20.0912 21.75 20.1055 21.75 20.1197 21.75C20.134 21.75 20.1482 21.75 20.1625 21.75C20.1768 21.75 20.191 21.75 20.2053 21.75C20.2195 21.75 20.2338 21.75 20.248 21.75C20.2623 21.75 20.2766 21.75 20.2908 21.75C20.3051 21.75 20.3193 21.75 20.3336 21.75C20.3479 21.75 20.3621 21.75 20.3764 21.75C20.3906 21.75 20.4049 21.75 20.4191 21.75C20.4334 21.75 20.4477 21.75 20.4619 21.75C20.4762 21.75 20.4904 21.75 20.5047 21.75C20.5189 21.75 20.5332 21.75 20.5475 21.75C20.5617 21.75 20.576 21.75 20.5902 21.75C20.6045 21.75 20.6187 21.75 20.633 21.75C20.6473 21.75 20.6615 21.75 20.6758 21.75C20.69 21.75 20.7043 21.75 20.7186 21.75C20.7328 21.75 20.7471 21.75 20.7613 21.75C20.7756 21.75 20.7898 21.75 20.8041 21.75C20.8184 21.75 20.8326 21.75 20.8469 21.75C20.8611 21.75 20.8754 21.75 20.8896 21.75C20.9039 21.75 20.9182 21.75 20.9324 21.75C20.9467 21.75 20.9609 21.75 20.9752 21.75C20.9895 21.75 21.0037 21.75 21.018 21.75C21.0322 21.75 21.0465 21.75 21.0607 21.75C21.075 21.75 21.0893 21.75 21.1035 21.75C21.1178 21.75 21.132 21.75 21.1463 21.75C21.1605 21.75 21.1748 21.75 21.1891 21.75C21.2033 21.75 21.2176 21.75 21.2318 21.75C21.2461 21.75 21.2604 21.75 21.2746 21.75C21.2889 21.75 21.3031 21.75 21.3174 21.75C21.3316 21.75 21.3459 21.75 21.3602 21.75C21.3744 21.75 21.3887 21.75 21.4029 21.75C21.4172 21.75 21.4314 21.75 21.4457 21.75C21.46 21.75 21.4742 21.75 21.4885 21.75C21.5027 21.75 21.517 21.75 21.5312 21.75C21.5455 21.75 21.5598 21.75 21.574 21.75C21.5883 21.75 21.6025 21.75 21.6168 21.75C21.6311 21.75 21.6453 21.75 21.6596 21.75C21.6738 21.75 21.6881 21.75 21.7023 21.75C21.7166 21.75 21.7309 21.75 21.7451 21.75C21.7594 21.75 21.7736 21.75 21.7879 21.75C21.8021 21.75 21.8164 21.75 21.8307 21.75C21.8449 21.75 21.8592 21.75 21.8734 21.75C21.8877 21.75 21.902 21.75 21.9162 21.75C21.9305 21.75 21.9447 21.75 21.959 21.75C21.9732 21.75 21.9875 21.75 22.0018 21.75C22.016 21.75 22.0303 21.75 22.0445 21.75C22.0588 21.75 22.073 21.75 22.0873 21.75C22.1016 21.75 22.1158 21.75 22.1301 21.75C22.1443 21.75 22.1586 21.75 22.1729 21.75C22.1871 21.75 22.2014 21.75 22.2156 21.75C22.2299 21.75 22.2441 21.75 22.2584 21.75C22.2727 21.75 22.2869 21.75 22.3012 21.75C22.3154 21.75 22.3297 21.75 22.3439 21.75C22.3582 21.75 22.3725 21.75 22.3867 21.75C22.401 21.75 22.4152 21.75 22.4295 21.75C22.4437 21.75 22.458 21.75 22.4723 21.75C22.4865 21.75 22.5008 21.75 22.515 21.75C22.5293 21.75 22.5436 21.75 22.5578 21.75C22.5721 21.75 22.5863 21.75 22.6006 21.75C22.6148 21.75 22.6291 21.75 22.6434 21.75C22.6576 21.75 22.6719 21.75 22.6861 21.75C22.7004 21.75 22.7146 21.75 22.7289 21.75C22.7432 21.75 22.7574 21.75 22.7717 21.75C22.7859 21.75 22.8002 21.75 22.8145 21.75C22.8287 21.75 22.843 21.75 22.8572 21.75C22.8715 21.75 22.8857 21.75 22.9 21.75V20.25ZM22.25 20.9C22.25 20.541 22.541 20.25 22.9 20.25V21.75C23.3694 21.75 23.75 21.3694 23.75 20.9H22.25ZM8.66792 17.6607C8.78571 17.7194 8.91554 17.75 9.04715 17.75V16.25C9.1478 16.25 9.24708 16.2734 9.33716 16.3183L8.66792 17.6607Z" fill="black"/>
</g>
<defs>
<clipPath id="clip0_1607_9298">
<rect width="24" height="24" fill="white"/>
</clipPath>
</defs>
</svg>
