<svg width="24" height="24" viewBox="0 0 24 24" fill="none" xmlns="http://www.w3.org/2000/svg">
<g clip-path="url(#clip0_1607_9289)">
<path d="M20 23V6C20 5.44772 19.5523 5 19 5H17M4 23V6C4 5.44772 4.44772 5 5 5H7M14 23V18C14 17.4477 13.5523 17 13 17H11C10.4477 17 10 17.4477 10 18V23M1 23H23M16 13.0001V13.0318M8 13.0001V13.0318M12 13.0001V13.0318M13.6001 4.9998L12.0005 4.99985M12.0005 4.99985L10.4 4.9999M12.0005 4.99985V6.5999M12.0005 4.99985V3.3999M7 2V8C7 8.55228 7.44772 9 8 9H16C16.5523 9 17 8.55228 17 8V2C17 1.44772 16.5523 1 16 1H8C7.44772 1 7 1.44772 7 2Z" stroke="black" stroke-width="1.5" stroke-linecap="round"/>
</g>
<defs>
<clipPath id="clip0_1607_9289">
<rect width="24" height="24" fill="white"/>
</clipPath>
</defs>
</svg>
