<svg width="24" height="24" viewBox="0 0 24 24" fill="none" xmlns="http://www.w3.org/2000/svg">
<g clip-path="url(#clip0_1607_9303)">
<path d="M9 3.66667L9 2.91667H9V3.66667ZM15 3.66667L15 2.91667L15 2.91667L15 3.66667ZM13.4333 3.66667L13.4333 2.91667L13.4333 3.66667ZM10.5667 3.66667L10.5667 4.41667L10.5667 3.66667ZM1.75 9C1.75 8.58579 1.41421 8.25 1 8.25C0.585786 8.25 0.25 8.58579 0.25 9H1.75ZM1 21H0.25C0.25 21.4142 0.585786 21.75 1 21.75L1 21ZM13.75 13C13.75 12.5858 13.4142 12.25 13 12.25C12.5858 12.25 12.25 12.5858 12.25 13H13.75ZM12.25 18.5C12.25 18.9142 12.5858 19.25 13 19.25C13.4142 19.25 13.75 18.9142 13.75 18.5H12.25ZM20.75 21C20.75 20.5858 20.4142 20.25 20 20.25C19.5858 20.25 19.25 20.5858 19.25 21H20.75ZM19.25 23C19.25 23.4142 19.5858 23.75 20 23.75C20.4142 23.75 20.75 23.4142 20.75 23H19.25ZM4.75 21C4.75 20.5858 4.41421 20.25 4 20.25C3.58579 20.25 3.25 20.5858 3.25 21H4.75ZM3.25 23C3.25 23.4142 3.58579 23.75 4 23.75C4.41421 23.75 4.75 23.4142 4.75 23H3.25ZM23 17L23.75 17L23.75 17L23 17ZM8.97889 16.9894L8.64347 17.6603L8.97889 16.9894ZM11 18.5L11 19.25H11V18.5ZM12.3333 1.75C12.4714 1.75 12.5833 1.86193 12.5833 2H14.0833C14.0833 1.0335 13.2998 0.25 12.3333 0.25V1.75ZM11.6667 1.75H12.3333V0.25H11.6667V1.75ZM11.4167 2C11.4167 1.86193 11.5286 1.75 11.6667 1.75V0.25C10.7002 0.25 9.91667 1.0335 9.91667 2H11.4167ZM11.4167 3.56667V2H9.91667V3.56667H11.4167ZM9 4.41667L10.5667 4.41667L10.5667 2.91667L9 2.91667L9 4.41667ZM8.75 4.66667C8.75 4.5286 8.86193 4.41667 9 4.41667V2.91667C8.0335 2.91667 7.25 3.70017 7.25 4.66667H8.75ZM8.75 5.33333V4.66667H7.25V5.33333H8.75ZM9 5.58333C8.86193 5.58333 8.75 5.4714 8.75 5.33333H7.25C7.25 6.29983 8.0335 7.08333 9 7.08333V5.58333ZM10.5667 5.58333H9V7.08333H10.5667V5.58333ZM11.4167 8V6.43333H9.91667V8H11.4167ZM11.6667 8.25C11.5286 8.25 11.4167 8.13807 11.4167 8H9.91667C9.91667 8.9665 10.7002 9.75 11.6667 9.75V8.25ZM12.3333 8.25H11.6667V9.75H12.3333V8.25ZM12.5833 8C12.5833 8.13807 12.4714 8.25 12.3333 8.25V9.75C13.2998 9.75 14.0833 8.9665 14.0833 8H12.5833ZM12.5833 6.43333V8H14.0833V6.43333H12.5833ZM15 5.58333H13.4333V7.08333H15V5.58333ZM15.25 5.33333C15.25 5.4714 15.1381 5.58333 15 5.58333V7.08333C15.9665 7.08333 16.75 6.29983 16.75 5.33333H15.25ZM15.25 4.66667V5.33333H16.75V4.66667H15.25ZM15 4.41667C15.1381 4.41667 15.25 4.5286 15.25 4.66667H16.75C16.75 3.70017 15.9665 2.91667 15 2.91667L15 4.41667ZM13.4333 4.41667L15 4.41667L15 2.91667L13.4333 2.91667L13.4333 4.41667ZM12.5833 2V3.56667H14.0833V2H12.5833ZM13.4333 2.91667C13.7923 2.91667 14.0833 3.20769 14.0833 3.56667H12.5833C12.5833 4.0361 12.9639 4.41667 13.4333 4.41667L13.4333 2.91667ZM14.0833 6.43333C14.0833 6.79232 13.7923 7.08333 13.4333 7.08333V5.58333C12.9639 5.58333 12.5833 5.96389 12.5833 6.43333H14.0833ZM10.5667 7.08333C10.2077 7.08333 9.91667 6.79232 9.91667 6.43333H11.4167C11.4167 5.96389 11.0361 5.58333 10.5667 5.58333V7.08333ZM9.91667 3.56667C9.91667 3.20769 10.2077 2.91667 10.5667 2.91667L10.5667 4.41667C11.0361 4.41667 11.4167 4.0361 11.4167 3.56667H9.91667ZM7.25 13C7.25 13.6904 6.69036 14.25 6 14.25L6 15.75C7.51878 15.75 8.75 14.5188 8.75 13L7.25 13ZM6 11.75C6.69036 11.75 7.25 12.3096 7.25 13L8.75 13C8.75 11.4812 7.51878 10.25 6 10.25L6 11.75ZM4.75 13C4.75 12.3096 5.30964 11.75 6 11.75L6 10.25C4.48122 10.25 3.25 11.4812 3.25 13L4.75 13ZM3.25 13C3.25 14.5188 4.48122 15.75 6 15.75L6 14.25C5.30964 14.25 4.75 13.6904 4.75 13L3.25 13ZM0.25 9V21H1.75V9H0.25ZM12.25 13V18.5H13.75V13H12.25ZM19.25 21V23H20.75V21H19.25ZM3.25 21V23H4.75V21H3.25ZM22.25 17V20.9H23.75V17H22.25ZM0.66459 13.6708L8.64347 17.6603L9.3143 16.3186L1.33541 12.3292L0.66459 13.6708ZM9.02361 17.75H10V16.25H9.02361V17.75ZM8.64347 17.6603C8.76151 17.7193 8.89166 17.75 9.02361 17.75V16.25C9.12451 16.25 9.22403 16.2735 9.3143 16.3186L8.64347 17.6603ZM22.25 20.9C22.25 20.541 22.541 20.25 22.9 20.25V21.75C23.3694 21.75 23.75 21.3694 23.75 20.9H22.25ZM9.25 14V17.5H10.75V14H9.25ZM11 19.25H23V17.75H11V19.25ZM9.25 17.5C9.25 18.4665 10.0335 19.25 11 19.25L11 17.75C10.8619 17.75 10.75 17.6381 10.75 17.5H9.25ZM10.75 14C10.75 13.8619 10.8619 13.75 11 13.75V12.25C10.0335 12.25 9.25 13.0335 9.25 14H10.75ZM23.75 17C23.75 14.3766 21.6234 12.25 19 12.25V13.75C20.7949 13.75 22.25 15.2051 22.25 17L23.75 17ZM19 12.25H11V13.75H19V12.25ZM22.9 20.25C22.8857 20.25 22.8715 20.25 22.8572 20.25C22.843 20.25 22.8287 20.25 22.8145 20.25C22.8002 20.25 22.7859 20.25 22.7717 20.25C22.7574 20.25 22.7432 20.25 22.7289 20.25C22.7146 20.25 22.7004 20.25 22.6861 20.25C22.6719 20.25 22.6576 20.25 22.6434 20.25C22.6291 20.25 22.6148 20.25 22.6006 20.25C22.5863 20.25 22.5721 20.25 22.5578 20.25C22.5436 20.25 22.5293 20.25 22.515 20.25C22.5008 20.25 22.4865 20.25 22.4723 20.25C22.458 20.25 22.4437 20.25 22.4295 20.25C22.4152 20.25 22.401 20.25 22.3867 20.25C22.3725 20.25 22.3582 20.25 22.3439 20.25C22.3297 20.25 22.3154 20.25 22.3012 20.25C22.2869 20.25 22.2727 20.25 22.2584 20.25C22.2441 20.25 22.2299 20.25 22.2156 20.25C22.2014 20.25 22.1871 20.25 22.1729 20.25C22.1586 20.25 22.1443 20.25 22.1301 20.25C22.1158 20.25 22.1016 20.25 22.0873 20.25C22.073 20.25 22.0588 20.25 22.0445 20.25C22.0303 20.25 22.016 20.25 22.0018 20.25C21.9875 20.25 21.9732 20.25 21.959 20.25C21.9447 20.25 21.9305 20.25 21.9162 20.25C21.902 20.25 21.8877 20.25 21.8734 20.25C21.8592 20.25 21.8449 20.25 21.8307 20.25C21.8164 20.25 21.8021 20.25 21.7879 20.25C21.7736 20.25 21.7594 20.25 21.7451 20.25C21.7309 20.25 21.7166 20.25 21.7023 20.25C21.6881 20.25 21.6738 20.25 21.6596 20.25C21.6453 20.25 21.6311 20.25 21.6168 20.25C21.6025 20.25 21.5883 20.25 21.574 20.25C21.5598 20.25 21.5455 20.25 21.5312 20.25C21.517 20.25 21.5027 20.25 21.4885 20.25C21.4742 20.25 21.46 20.25 21.4457 20.25C21.4314 20.25 21.4172 20.25 21.4029 20.25C21.3887 20.25 21.3744 20.25 21.3602 20.25C21.3459 20.25 21.3316 20.25 21.3174 20.25C21.3031 20.25 21.2889 20.25 21.2746 20.25C21.2604 20.25 21.2461 20.25 21.2318 20.25C21.2176 20.25 21.2033 20.25 21.1891 20.25C21.1748 20.25 21.1605 20.25 21.1463 20.25C21.132 20.25 21.1178 20.25 21.1035 20.25C21.0893 20.25 21.075 20.25 21.0607 20.25C21.0465 20.25 21.0322 20.25 21.018 20.25C21.0037 20.25 20.9895 20.25 20.9752 20.25C20.9609 20.25 20.9467 20.25 20.9324 20.25C20.9182 20.25 20.9039 20.25 20.8896 20.25C20.8754 20.25 20.8611 20.25 20.8469 20.25C20.8326 20.25 20.8184 20.25 20.8041 20.25C20.7898 20.25 20.7756 20.25 20.7613 20.25C20.7471 20.25 20.7328 20.25 20.7186 20.25C20.7043 20.25 20.69 20.25 20.6758 20.25C20.6615 20.25 20.6473 20.25 20.633 20.25C20.6187 20.25 20.6045 20.25 20.5902 20.25C20.576 20.25 20.5617 20.25 20.5475 20.25C20.5332 20.25 20.5189 20.25 20.5047 20.25C20.4904 20.25 20.4762 20.25 20.4619 20.25C20.4477 20.25 20.4334 20.25 20.4191 20.25C20.4049 20.25 20.3906 20.25 20.3764 20.25C20.3621 20.25 20.3479 20.25 20.3336 20.25C20.3193 20.25 20.3051 20.25 20.2908 20.25C20.2766 20.25 20.2623 20.25 20.248 20.25C20.2338 20.25 20.2195 20.25 20.2053 20.25C20.191 20.25 20.1768 20.25 20.1625 20.25C20.1482 20.25 20.134 20.25 20.1197 20.25C20.1055 20.25 20.0912 20.25 20.077 20.25C20.0627 20.25 20.0484 20.25 20.0342 20.25C20.0199 20.25 20.0057 20.25 19.9914 20.25C19.9771 20.25 19.9629 20.25 19.9486 20.25C19.9344 20.25 19.9201 20.25 19.9059 20.25C19.8916 20.25 19.8773 20.25 19.8631 20.25C19.8488 20.25 19.8346 20.25 19.8203 20.25C19.8061 20.25 19.7918 20.25 19.7775 20.25C19.7633 20.25 19.749 20.25 19.7348 20.25C19.7205 20.25 19.7062 20.25 19.692 20.25C19.6777 20.25 19.6635 20.25 19.6492 20.25C19.635 20.25 19.6207 20.25 19.6064 20.25C19.5922 20.25 19.5779 20.25 19.5637 20.25C19.5494 20.25 19.5352 20.25 19.5209 20.25C19.5066 20.25 19.4924 20.25 19.4781 20.25C19.4639 20.25 19.4496 20.25 19.4354 20.25C19.4211 20.25 19.4068 20.25 19.3926 20.25C19.3783 20.25 19.3641 20.25 19.3498 20.25C19.3355 20.25 19.3213 20.25 19.307 20.25C19.2928 20.25 19.2785 20.25 19.2643 20.25C19.25 20.25 19.2357 20.25 19.2215 20.25C19.2072 20.25 19.193 20.25 19.1787 20.25C19.1645 20.25 19.1502 20.25 19.1359 20.25C19.1217 20.25 19.1074 20.25 19.0932 20.25C19.0789 20.25 19.0646 20.25 19.0504 20.25C19.0361 20.25 19.0219 20.25 19.0076 20.25C18.9934 20.25 18.9791 20.25 18.9648 20.25C18.9506 20.25 18.9363 20.25 18.9221 20.25C18.9078 20.25 18.8936 20.25 18.8793 20.25C18.865 20.25 18.8508 20.25 18.8365 20.25C18.8223 20.25 18.808 20.25 18.7937 20.25C18.7795 20.25 18.7652 20.25 18.751 20.25C18.7367 20.25 18.7225 20.25 18.7082 20.25C18.6939 20.25 18.6797 20.25 18.6654 20.25C18.6512 20.25 18.6369 20.25 18.6227 20.25C18.6084 20.25 18.5941 20.25 18.5799 20.25C18.5656 20.25 18.5514 20.25 18.5371 20.25C18.5229 20.25 18.5086 20.25 18.4943 20.25C18.4801 20.25 18.4658 20.25 18.4516 20.25C18.4373 20.25 18.423 20.25 18.4088 20.25C18.3945 20.25 18.3803 20.25 18.366 20.25C18.3518 20.25 18.3375 20.25 18.3232 20.25C18.309 20.25 18.2947 20.25 18.2805 20.25C18.2662 20.25 18.252 20.25 18.2377 20.25C18.2234 20.25 18.2092 20.25 18.1949 20.25C18.1807 20.25 18.1664 20.25 18.1521 20.25C18.1379 20.25 18.1236 20.25 18.1094 20.25C18.0951 20.25 18.0809 20.25 18.0666 20.25C18.0523 20.25 18.0381 20.25 18.0238 20.25C18.0096 20.25 17.9953 20.25 17.9811 20.25C17.9668 20.25 17.9525 20.25 17.9383 20.25C17.924 20.25 17.9098 20.25 17.8955 20.25C17.8812 20.25 17.867 20.25 17.8527 20.25C17.8385 20.25 17.8242 20.25 17.81 20.25C17.7957 20.25 17.7814 20.25 17.7672 20.25C17.7529 20.25 17.7387 20.25 17.7244 20.25C17.7102 20.25 17.6959 20.25 17.6816 20.25C17.6674 20.25 17.6531 20.25 17.6389 20.25C17.6246 20.25 17.6104 20.25 17.5961 20.25C17.5818 20.25 17.5676 20.25 17.5533 20.25C17.5391 20.25 17.5248 20.25 17.5105 20.25C17.4963 20.25 17.482 20.25 17.4678 20.25C17.4535 20.25 17.4393 20.25 17.425 20.25C17.4107 20.25 17.3965 20.25 17.3822 20.25C17.368 20.25 17.3537 20.25 17.3395 20.25C17.3252 20.25 17.3109 20.25 17.2967 20.25C17.2824 20.25 17.2682 20.25 17.2539 20.25C17.2396 20.25 17.2254 20.25 17.2111 20.25C17.1969 20.25 17.1826 20.25 17.1684 20.25C17.1541 20.25 17.1398 20.25 17.1256 20.25C17.1113 20.25 17.0971 20.25 17.0828 20.25C17.0686 20.25 17.0543 20.25 17.04 20.25C17.0258 20.25 17.0115 20.25 16.9973 20.25C16.983 20.25 16.9687 20.25 16.9545 20.25C16.9402 20.25 16.926 20.25 16.9117 20.25C16.8975 20.25 16.8832 20.25 16.8689 20.25C16.8547 20.25 16.8404 20.25 16.8262 20.25C16.8119 20.25 16.7977 20.25 16.7834 20.25C16.7691 20.25 16.7549 20.25 16.7406 20.25C16.7264 20.25 16.7121 20.25 16.6979 20.25C16.6836 20.25 16.6693 20.25 16.6551 20.25C16.6408 20.25 16.6266 20.25 16.6123 20.25C16.598 20.25 16.5838 20.25 16.5695 20.25C16.5553 20.25 16.541 20.25 16.5268 20.25C16.5125 20.25 16.4982 20.25 16.484 20.25C16.4697 20.25 16.4555 20.25 16.4412 20.25C16.427 20.25 16.4127 20.25 16.3984 20.25C16.3842 20.25 16.3699 20.25 16.3557 20.25C16.3414 20.25 16.3271 20.25 16.3129 20.25C16.2986 20.25 16.2844 20.25 16.2701 20.25C16.2559 20.25 16.2416 20.25 16.2273 20.25C16.2131 20.25 16.1988 20.25 16.1846 20.25C16.1703 20.25 16.1561 20.25 16.1418 20.25C16.1275 20.25 16.1133 20.25 16.099 20.25C16.0848 20.25 16.0705 20.25 16.0562 20.25C16.042 20.25 16.0277 20.25 16.0135 20.25C15.9992 20.25 15.985 20.25 15.9707 20.25C15.9564 20.25 15.9422 20.25 15.9279 20.25C15.9137 20.25 15.8994 20.25 15.8852 20.25C15.8709 20.25 15.8566 20.25 15.8424 20.25C15.8281 20.25 15.8139 20.25 15.7996 20.25C15.7854 20.25 15.7711 20.25 15.7568 20.25C15.7426 20.25 15.7283 20.25 15.7141 20.25C15.6998 20.25 15.6855 20.25 15.6713 20.25C15.657 20.25 15.6428 20.25 15.6285 20.25C15.6143 20.25 15.6 20.25 15.5857 20.25C15.5715 20.25 15.5572 20.25 15.543 20.25C15.5287 20.25 15.5145 20.25 15.5002 20.25C15.4859 20.25 15.4717 20.25 15.4574 20.25C15.4432 20.25 15.4289 20.25 15.4146 20.25C15.4004 20.25 15.3861 20.25 15.3719 20.25C15.3576 20.25 15.3434 20.25 15.3291 20.25C15.3148 20.25 15.3006 20.25 15.2863 20.25C15.2721 20.25 15.2578 20.25 15.2436 20.25C15.2293 20.25 15.215 20.25 15.2008 20.25C15.1865 20.25 15.1723 20.25 15.158 20.25C15.1437 20.25 15.1295 20.25 15.1152 20.25C15.101 20.25 15.0867 20.25 15.0725 20.25C15.0582 20.25 15.0439 20.25 15.0297 20.25C15.0154 20.25 15.0012 20.25 14.9869 20.25C14.9727 20.25 14.9584 20.25 14.9441 20.25C14.9299 20.25 14.9156 20.25 14.9014 20.25C14.8871 20.25 14.8729 20.25 14.8586 20.25C14.8443 20.25 14.8301 20.25 14.8158 20.25C14.8016 20.25 14.7873 20.25 14.773 20.25C14.7588 20.25 14.7445 20.25 14.7303 20.25C14.716 20.25 14.7018 20.25 14.6875 20.25C14.6732 20.25 14.659 20.25 14.6447 20.25C14.6305 20.25 14.6162 20.25 14.602 20.25C14.5877 20.25 14.5734 20.25 14.5592 20.25C14.5449 20.25 14.5307 20.25 14.5164 20.25C14.5021 20.25 14.4879 20.25 14.4736 20.25C14.4594 20.25 14.4451 20.25 14.4309 20.25C14.4166 20.25 14.4023 20.25 14.3881 20.25C14.3738 20.25 14.3596 20.25 14.3453 20.25C14.3311 20.25 14.3168 20.25 14.3025 20.25C14.2883 20.25 14.274 20.25 14.2598 20.25C14.2455 20.25 14.2312 20.25 14.217 20.25C14.2027 20.25 14.1885 20.25 14.1742 20.25C14.16 20.25 14.1457 20.25 14.1314 20.25C14.1172 20.25 14.1029 20.25 14.0887 20.25C14.0744 20.25 14.0602 20.25 14.0459 20.25C14.0316 20.25 14.0174 20.25 14.0031 20.25C13.9889 20.25 13.9746 20.25 13.9604 20.25C13.9461 20.25 13.9318 20.25 13.9176 20.25C13.9033 20.25 13.8891 20.25 13.8748 20.25C13.8605 20.25 13.8463 20.25 13.832 20.25C13.8178 20.25 13.8035 20.25 13.7893 20.25C13.775 20.25 13.7607 20.25 13.7465 20.25C13.7322 20.25 13.718 20.25 13.7037 20.25C13.6895 20.25 13.6752 20.25 13.6609 20.25C13.6467 20.25 13.6324 20.25 13.6182 20.25C13.6039 20.25 13.5896 20.25 13.5754 20.25C13.5611 20.25 13.5469 20.25 13.5326 20.25C13.5184 20.25 13.5041 20.25 13.4898 20.25C13.4756 20.25 13.4613 20.25 13.4471 20.25C13.4328 20.25 13.4186 20.25 13.4043 20.25C13.39 20.25 13.3758 20.25 13.3615 20.25C13.3473 20.25 13.333 20.25 13.3187 20.25C13.3045 20.25 13.2902 20.25 13.276 20.25C13.2617 20.25 13.2475 20.25 13.2332 20.25C13.2189 20.25 13.2047 20.25 13.1904 20.25C13.1762 20.25 13.1619 20.25 13.1477 20.25C13.1334 20.25 13.1191 20.25 13.1049 20.25C13.0906 20.25 13.0764 20.25 13.0621 20.25C13.0479 20.25 13.0336 20.25 13.0193 20.25C13.0051 20.25 12.9908 20.25 12.9766 20.25C12.9623 20.25 12.948 20.25 12.9338 20.25C12.9195 20.25 12.9053 20.25 12.891 20.25C12.8768 20.25 12.8625 20.25 12.8482 20.25C12.834 20.25 12.8197 20.25 12.8055 20.25C12.7912 20.25 12.777 20.25 12.7627 20.25C12.7484 20.25 12.7342 20.25 12.7199 20.25C12.7057 20.25 12.6914 20.25 12.6771 20.25C12.6629 20.25 12.6486 20.25 12.6344 20.25C12.6201 20.25 12.6059 20.25 12.5916 20.25C12.5773 20.25 12.5631 20.25 12.5488 20.25C12.5346 20.25 12.5203 20.25 12.5061 20.25C12.4918 20.25 12.4775 20.25 12.4633 20.25C12.449 20.25 12.4348 20.25 12.4205 20.25C12.4062 20.25 12.392 20.25 12.3777 20.25C12.3635 20.25 12.3492 20.25 12.335 20.25C12.3207 20.25 12.3064 20.25 12.2922 20.25C12.2779 20.25 12.2637 20.25 12.2494 20.25C12.2352 20.25 12.2209 20.25 12.2066 20.25C12.1924 20.25 12.1781 20.25 12.1639 20.25C12.1496 20.25 12.1354 20.25 12.1211 20.25C12.1068 20.25 12.0926 20.25 12.0783 20.25C12.0641 20.25 12.0498 20.25 12.0355 20.25C12.0213 20.25 12.007 20.25 11.9928 20.25C11.9785 20.25 11.9643 20.25 11.95 20.25C11.9357 20.25 11.9215 20.25 11.9072 20.25C11.893 20.25 11.8787 20.25 11.8645 20.25C11.8502 20.25 11.8359 20.25 11.8217 20.25C11.8074 20.25 11.7932 20.25 11.7789 20.25C11.7646 20.25 11.7504 20.25 11.7361 20.25C11.7219 20.25 11.7076 20.25 11.6934 20.25C11.6791 20.25 11.6648 20.25 11.6506 20.25C11.6363 20.25 11.6221 20.25 11.6078 20.25C11.5936 20.25 11.5793 20.25 11.565 20.25C11.5508 20.25 11.5365 20.25 11.5223 20.25C11.508 20.25 11.4937 20.25 11.4795 20.25C11.4652 20.25 11.451 20.25 11.4367 20.25C11.4225 20.25 11.4082 20.25 11.3939 20.25C11.3797 20.25 11.3654 20.25 11.3512 20.25C11.3369 20.25 11.3227 20.25 11.3084 20.25C11.2941 20.25 11.2799 20.25 11.2656 20.25C11.2514 20.25 11.2371 20.25 11.2229 20.25C11.2086 20.25 11.1943 20.25 11.1801 20.25C11.1658 20.25 11.1516 20.25 11.1373 20.25C11.123 20.25 11.1088 20.25 11.0945 20.25C11.0803 20.25 11.066 20.25 11.0518 20.25C11.0375 20.25 11.0232 20.25 11.009 20.25C10.9947 20.25 10.9805 20.25 10.9662 20.25C10.952 20.25 10.9377 20.25 10.9234 20.25C10.9092 20.25 10.8949 20.25 10.8807 20.25C10.8664 20.25 10.8521 20.25 10.8379 20.25C10.8236 20.25 10.8094 20.25 10.7951 20.25C10.7809 20.25 10.7666 20.25 10.7523 20.25C10.7381 20.25 10.7238 20.25 10.7096 20.25C10.6953 20.25 10.6811 20.25 10.6668 20.25C10.6525 20.25 10.6383 20.25 10.624 20.25C10.6098 20.25 10.5955 20.25 10.5812 20.25C10.567 20.25 10.5527 20.25 10.5385 20.25C10.5242 20.25 10.51 20.25 10.4957 20.25C10.4814 20.25 10.4672 20.25 10.4529 20.25C10.4387 20.25 10.4244 20.25 10.4102 20.25C10.3959 20.25 10.3816 20.25 10.3674 20.25C10.3531 20.25 10.3389 20.25 10.3246 20.25C10.3104 20.25 10.2961 20.25 10.2818 20.25C10.2676 20.25 10.2533 20.25 10.2391 20.25C10.2248 20.25 10.2105 20.25 10.1963 20.25C10.182 20.25 10.1678 20.25 10.1535 20.25C10.1393 20.25 10.125 20.25 10.1107 20.25C10.0965 20.25 10.0822 20.25 10.068 20.25C10.0537 20.25 10.0395 20.25 10.0252 20.25C10.0109 20.25 9.99668 20.25 9.98242 20.25C9.96816 20.25 9.95391 20.25 9.93965 20.25C9.92539 20.25 9.91113 20.25 9.89687 20.25C9.88262 20.25 9.86836 20.25 9.8541 20.25C9.83984 20.25 9.82559 20.25 9.81133 20.25C9.79707 20.25 9.78281 20.25 9.76855 20.25C9.7543 20.25 9.74004 20.25 9.72578 20.25C9.71152 20.25 9.69727 20.25 9.68301 20.25C9.66875 20.25 9.65449 20.25 9.64023 20.25C9.62598 20.25 9.61172 20.25 9.59746 20.25C9.5832 20.25 9.56895 20.25 9.55469 20.25C9.54043 20.25 9.52617 20.25 9.51191 20.25C9.49766 20.25 9.4834 20.25 9.46914 20.25C9.45488 20.25 9.44062 20.25 9.42637 20.25C9.41211 20.25 9.39785 20.25 9.38359 20.25C9.36934 20.25 9.35508 20.25 9.34082 20.25C9.32656 20.25 9.3123 20.25 9.29805 20.25C9.28379 20.25 9.26953 20.25 9.25527 20.25C9.24102 20.25 9.22676 20.25 9.2125 20.25C9.19824 20.25 9.18398 20.25 9.16973 20.25C9.15547 20.25 9.14121 20.25 9.12695 20.25C9.1127 20.25 9.09844 20.25 9.08418 20.25C9.06992 20.25 9.05566 20.25 9.04141 20.25C9.02715 20.25 9.01289 20.25 8.99863 20.25C8.98437 20.25 8.97012 20.25 8.95586 20.25C8.9416 20.25 8.92734 20.25 8.91309 20.25C8.89883 20.25 8.88457 20.25 8.87031 20.25C8.85605 20.25 8.8418 20.25 8.82754 20.25C8.81328 20.25 8.79902 20.25 8.78477 20.25C8.77051 20.25 8.75625 20.25 8.74199 20.25C8.72773 20.25 8.71348 20.25 8.69922 20.25C8.68496 20.25 8.6707 20.25 8.65645 20.25C8.64219 20.25 8.62793 20.25 8.61367 20.25C8.59941 20.25 8.58516 20.25 8.5709 20.25C8.55664 20.25 8.54238 20.25 8.52812 20.25C8.51387 20.25 8.49961 20.25 8.48535 20.25C8.47109 20.25 8.45684 20.25 8.44258 20.25C8.42832 20.25 8.41406 20.25 8.3998 20.25C8.38555 20.25 8.37129 20.25 8.35703 20.25C8.34277 20.25 8.32852 20.25 8.31426 20.25C8.3 20.25 8.28574 20.25 8.27148 20.25C8.25723 20.25 8.24297 20.25 8.22871 20.25C8.21445 20.25 8.2002 20.25 8.18594 20.25C8.17168 20.25 8.15742 20.25 8.14316 20.25C8.12891 20.25 8.11465 20.25 8.10039 20.25C8.08613 20.25 8.07187 20.25 8.05762 20.25C8.04336 20.25 8.0291 20.25 8.01484 20.25C8.00059 20.25 7.98633 20.25 7.97207 20.25C7.95781 20.25 7.94355 20.25 7.9293 20.25C7.91504 20.25 7.90078 20.25 7.88652 20.25C7.87227 20.25 7.85801 20.25 7.84375 20.25C7.82949 20.25 7.81523 20.25 7.80098 20.25C7.78672 20.25 7.77246 20.25 7.7582 20.25C7.74395 20.25 7.72969 20.25 7.71543 20.25C7.70117 20.25 7.68691 20.25 7.67266 20.25C7.6584 20.25 7.64414 20.25 7.62988 20.25C7.61562 20.25 7.60137 20.25 7.58711 20.25C7.57285 20.25 7.55859 20.25 7.54434 20.25C7.53008 20.25 7.51582 20.25 7.50156 20.25C7.4873 20.25 7.47305 20.25 7.45879 20.25C7.44453 20.25 7.43027 20.25 7.41602 20.25C7.40176 20.25 7.3875 20.25 7.37324 20.25C7.35898 20.25 7.34473 20.25 7.33047 20.25C7.31621 20.25 7.30195 20.25 7.2877 20.25C7.27344 20.25 7.25918 20.25 7.24492 20.25C7.23066 20.25 7.21641 20.25 7.20215 20.25C7.18789 20.25 7.17363 20.25 7.15937 20.25C7.14512 20.25 7.13086 20.25 7.1166 20.25C7.10234 20.25 7.08809 20.25 7.07383 20.25C7.05957 20.25 7.04531 20.25 7.03105 20.25C7.0168 20.25 7.00254 20.25 6.98828 20.25C6.97402 20.25 6.95977 20.25 6.94551 20.25C6.93125 20.25 6.91699 20.25 6.90273 20.25C6.88848 20.25 6.87422 20.25 6.85996 20.25C6.8457 20.25 6.83145 20.25 6.81719 20.25C6.80293 20.25 6.78867 20.25 6.77441 20.25C6.76016 20.25 6.7459 20.25 6.73164 20.25C6.71738 20.25 6.70312 20.25 6.68887 20.25C6.67461 20.25 6.66035 20.25 6.64609 20.25C6.63184 20.25 6.61758 20.25 6.60332 20.25C6.58906 20.25 6.5748 20.25 6.56055 20.25C6.54629 20.25 6.53203 20.25 6.51777 20.25C6.50352 20.25 6.48926 20.25 6.475 20.25C6.46074 20.25 6.44648 20.25 6.43223 20.25C6.41797 20.25 6.40371 20.25 6.38945 20.25C6.3752 20.25 6.36094 20.25 6.34668 20.25C6.33242 20.25 6.31816 20.25 6.30391 20.25C6.28965 20.25 6.27539 20.25 6.26113 20.25C6.24687 20.25 6.23262 20.25 6.21836 20.25C6.2041 20.25 6.18984 20.25 6.17559 20.25C6.16133 20.25 6.14707 20.25 6.13281 20.25C6.11855 20.25 6.1043 20.25 6.09004 20.25C6.07578 20.25 6.06152 20.25 6.04727 20.25C6.03301 20.25 6.01875 20.25 6.00449 20.25C5.99023 20.25 5.97598 20.25 5.96172 20.25C5.94746 20.25 5.9332 20.25 5.91895 20.25C5.90469 20.25 5.89043 20.25 5.87617 20.25C5.86191 20.25 5.84766 20.25 5.8334 20.25C5.81914 20.25 5.80488 20.25 5.79062 20.25C5.77637 20.25 5.76211 20.25 5.74785 20.25C5.73359 20.25 5.71934 20.25 5.70508 20.25C5.69082 20.25 5.67656 20.25 5.6623 20.25C5.64805 20.25 5.63379 20.25 5.61953 20.25C5.60527 20.25 5.59102 20.25 5.57676 20.25C5.5625 20.25 5.54824 20.25 5.53398 20.25C5.51973 20.25 5.50547 20.25 5.49121 20.25C5.47695 20.25 5.4627 20.25 5.44844 20.25C5.43418 20.25 5.41992 20.25 5.40566 20.25C5.39141 20.25 5.37715 20.25 5.36289 20.25C5.34863 20.25 5.33437 20.25 5.32012 20.25C5.30586 20.25 5.2916 20.25 5.27734 20.25C5.26309 20.25 5.24883 20.25 5.23457 20.25C5.22031 20.25 5.20605 20.25 5.1918 20.25C5.17754 20.25 5.16328 20.25 5.14902 20.25C5.13477 20.25 5.12051 20.25 5.10625 20.25C5.09199 20.25 5.07773 20.25 5.06348 20.25C5.04922 20.25 5.03496 20.25 5.0207 20.25C5.00645 20.25 4.99219 20.25 4.97793 20.25C4.96367 20.25 4.94941 20.25 4.93516 20.25C4.9209 20.25 4.90664 20.25 4.89238 20.25C4.87812 20.25 4.86387 20.25 4.84961 20.25C4.83535 20.25 4.82109 20.25 4.80684 20.25C4.79258 20.25 4.77832 20.25 4.76406 20.25C4.7498 20.25 4.73555 20.25 4.72129 20.25C4.70703 20.25 4.69277 20.25 4.67852 20.25C4.66426 20.25 4.65 20.25 4.63574 20.25C4.62148 20.25 4.60723 20.25 4.59297 20.25C4.57871 20.25 4.56445 20.25 4.5502 20.25C4.53594 20.25 4.52168 20.25 4.50742 20.25C4.49316 20.25 4.47891 20.25 4.46465 20.25C4.45039 20.25 4.43613 20.25 4.42187 20.25C4.40762 20.25 4.39336 20.25 4.3791 20.25C4.36484 20.25 4.35059 20.25 4.33633 20.25C4.32207 20.25 4.30781 20.25 4.29355 20.25C4.2793 20.25 4.26504 20.25 4.25078 20.25C4.23652 20.25 4.22227 20.25 4.20801 20.25C4.19375 20.25 4.17949 20.25 4.16523 20.25C4.15098 20.25 4.13672 20.25 4.12246 20.25C4.1082 20.25 4.09395 20.25 4.07969 20.25C4.06543 20.25 4.05117 20.25 4.03691 20.25C4.02266 20.25 4.0084 20.25 3.99414 20.25C3.97988 20.25 3.96562 20.25 3.95137 20.25C3.93711 20.25 3.92285 20.25 3.90859 20.25C3.89434 20.25 3.88008 20.25 3.86582 20.25C3.85156 20.25 3.8373 20.25 3.82305 20.25C3.80879 20.25 3.79453 20.25 3.78027 20.25C3.76602 20.25 3.75176 20.25 3.7375 20.25C3.72324 20.25 3.70898 20.25 3.69473 20.25C3.68047 20.25 3.66621 20.25 3.65195 20.25C3.6377 20.25 3.62344 20.25 3.60918 20.25C3.59492 20.25 3.58066 20.25 3.56641 20.25C3.55215 20.25 3.53789 20.25 3.52363 20.25C3.50937 20.25 3.49512 20.25 3.48086 20.25C3.4666 20.25 3.45234 20.25 3.43809 20.25C3.42383 20.25 3.40957 20.25 3.39531 20.25C3.38105 20.25 3.3668 20.25 3.35254 20.25C3.33828 20.25 3.32402 20.25 3.30977 20.25C3.29551 20.25 3.28125 20.25 3.26699 20.25C3.25273 20.25 3.23848 20.25 3.22422 20.25C3.20996 20.25 3.1957 20.25 3.18145 20.25C3.16719 20.25 3.15293 20.25 3.13867 20.25C3.12441 20.25 3.11016 20.25 3.0959 20.25C3.08164 20.25 3.06738 20.25 3.05312 20.25C3.03887 20.25 3.02461 20.25 3.01035 20.25C2.99609 20.25 2.98184 20.25 2.96758 20.25C2.95332 20.25 2.93906 20.25 2.9248 20.25C2.91055 20.25 2.89629 20.25 2.88203 20.25C2.86777 20.25 2.85352 20.25 2.83926 20.25C2.825 20.25 2.81074 20.25 2.79648 20.25C2.78223 20.25 2.76797 20.25 2.75371 20.25C2.73945 20.25 2.7252 20.25 2.71094 20.25C2.69668 20.25 2.68242 20.25 2.66816 20.25C2.65391 20.25 2.63965 20.25 2.62539 20.25C2.61113 20.25 2.59687 20.25 2.58262 20.25C2.56836 20.25 2.5541 20.25 2.53984 20.25C2.52559 20.25 2.51133 20.25 2.49707 20.25C2.48281 20.25 2.46855 20.25 2.4543 20.25C2.44004 20.25 2.42578 20.25 2.41152 20.25C2.39727 20.25 2.38301 20.25 2.36875 20.25C2.35449 20.25 2.34023 20.25 2.32598 20.25C2.31172 20.25 2.29746 20.25 2.2832 20.25C2.26895 20.25 2.25469 20.25 2.24043 20.25C2.22617 20.25 2.21191 20.25 2.19766 20.25C2.1834 20.25 2.16914 20.25 2.15488 20.25C2.14062 20.25 2.12637 20.25 2.11211 20.25C2.09785 20.25 2.08359 20.25 2.06934 20.25C2.05508 20.25 2.04082 20.25 2.02656 20.25C2.0123 20.25 1.99805 20.25 1.98379 20.25C1.96953 20.25 1.95527 20.25 1.94102 20.25C1.92676 20.25 1.9125 20.25 1.89824 20.25C1.88398 20.25 1.86973 20.25 1.85547 20.25C1.84121 20.25 1.82695 20.25 1.8127 20.25C1.79844 20.25 1.78418 20.25 1.76992 20.25C1.75566 20.25 1.74141 20.25 1.72715 20.25C1.71289 20.25 1.69863 20.25 1.68437 20.25C1.67012 20.25 1.65586 20.25 1.6416 20.25C1.62734 20.25 1.61309 20.25 1.59883 20.25C1.58457 20.25 1.57031 20.25 1.55605 20.25C1.5418 20.25 1.52754 20.25 1.51328 20.25C1.49902 20.25 1.48477 20.25 1.47051 20.25C1.45625 20.25 1.44199 20.25 1.42773 20.25C1.41348 20.25 1.39922 20.25 1.38496 20.25C1.3707 20.25 1.35645 20.25 1.34219 20.25C1.32793 20.25 1.31367 20.25 1.29941 20.25C1.28516 20.25 1.2709 20.25 1.25664 20.25C1.24238 20.25 1.22812 20.25 1.21387 20.25C1.19961 20.25 1.18535 20.25 1.17109 20.25C1.15684 20.25 1.14258 20.25 1.12832 20.25C1.11406 20.25 1.0998 20.25 1.08555 20.25C1.07129 20.25 1.05703 20.25 1.04277 20.25C1.02852 20.25 1.01426 20.25 1 20.25V21.75C1.01426 21.75 1.02852 21.75 1.04277 21.75C1.05703 21.75 1.07129 21.75 1.08555 21.75C1.0998 21.75 1.11406 21.75 1.12832 21.75C1.14258 21.75 1.15684 21.75 1.17109 21.75C1.18535 21.75 1.19961 21.75 1.21387 21.75C1.22812 21.75 1.24238 21.75 1.25664 21.75C1.2709 21.75 1.28516 21.75 1.29941 21.75C1.31367 21.75 1.32793 21.75 1.34219 21.75C1.35645 21.75 1.3707 21.75 1.38496 21.75C1.39922 21.75 1.41348 21.75 1.42773 21.75C1.44199 21.75 1.45625 21.75 1.47051 21.75C1.48477 21.75 1.49902 21.75 1.51328 21.75C1.52754 21.75 1.5418 21.75 1.55605 21.75C1.57031 21.75 1.58457 21.75 1.59883 21.75C1.61309 21.75 1.62734 21.75 1.6416 21.75C1.65586 21.75 1.67012 21.75 1.68437 21.75C1.69863 21.75 1.71289 21.75 1.72715 21.75C1.74141 21.75 1.75566 21.75 1.76992 21.75C1.78418 21.75 1.79844 21.75 1.8127 21.75C1.82695 21.75 1.84121 21.75 1.85547 21.75C1.86973 21.75 1.88398 21.75 1.89824 21.75C1.9125 21.75 1.92676 21.75 1.94102 21.75C1.95527 21.75 1.96953 21.75 1.98379 21.75C1.99805 21.75 2.0123 21.75 2.02656 21.75C2.04082 21.75 2.05508 21.75 2.06934 21.75C2.08359 21.75 2.09785 21.75 2.11211 21.75C2.12637 21.75 2.14062 21.75 2.15488 21.75C2.16914 21.75 2.1834 21.75 2.19766 21.75C2.21191 21.75 2.22617 21.75 2.24043 21.75C2.25469 21.75 2.26895 21.75 2.2832 21.75C2.29746 21.75 2.31172 21.75 2.32598 21.75C2.34023 21.75 2.35449 21.75 2.36875 21.75C2.38301 21.75 2.39727 21.75 2.41152 21.75C2.42578 21.75 2.44004 21.75 2.4543 21.75C2.46855 21.75 2.48281 21.75 2.49707 21.75C2.51133 21.75 2.52559 21.75 2.53984 21.75C2.5541 21.75 2.56836 21.75 2.58262 21.75C2.59687 21.75 2.61113 21.75 2.62539 21.75C2.63965 21.75 2.65391 21.75 2.66816 21.75C2.68242 21.75 2.69668 21.75 2.71094 21.75C2.7252 21.75 2.73945 21.75 2.75371 21.75C2.76797 21.75 2.78223 21.75 2.79648 21.75C2.81074 21.75 2.825 21.75 2.83926 21.75C2.85352 21.75 2.86777 21.75 2.88203 21.75C2.89629 21.75 2.91055 21.75 2.9248 21.75C2.93906 21.75 2.95332 21.75 2.96758 21.75C2.98184 21.75 2.99609 21.75 3.01035 21.75C3.02461 21.75 3.03887 21.75 3.05312 21.75C3.06738 21.75 3.08164 21.75 3.0959 21.75C3.11016 21.75 3.12441 21.75 3.13867 21.75C3.15293 21.75 3.16719 21.75 3.18145 21.75C3.1957 21.75 3.20996 21.75 3.22422 21.75C3.23848 21.75 3.25273 21.75 3.26699 21.75C3.28125 21.75 3.29551 21.75 3.30977 21.75C3.32402 21.75 3.33828 21.75 3.35254 21.75C3.3668 21.75 3.38105 21.75 3.39531 21.75C3.40957 21.75 3.42383 21.75 3.43809 21.75C3.45234 21.75 3.4666 21.75 3.48086 21.75C3.49512 21.75 3.50937 21.75 3.52363 21.75C3.53789 21.75 3.55215 21.75 3.56641 21.75C3.58066 21.75 3.59492 21.75 3.60918 21.75C3.62344 21.75 3.6377 21.75 3.65195 21.75C3.66621 21.75 3.68047 21.75 3.69473 21.75C3.70898 21.75 3.72324 21.75 3.7375 21.75C3.75176 21.75 3.76602 21.75 3.78027 21.75C3.79453 21.75 3.80879 21.75 3.82305 21.75C3.8373 21.75 3.85156 21.75 3.86582 21.75C3.88008 21.75 3.89434 21.75 3.90859 21.75C3.92285 21.75 3.93711 21.75 3.95137 21.75C3.96562 21.75 3.97988 21.75 3.99414 21.75C4.0084 21.75 4.02266 21.75 4.03691 21.75C4.05117 21.75 4.06543 21.75 4.07969 21.75C4.09395 21.75 4.1082 21.75 4.12246 21.75C4.13672 21.75 4.15098 21.75 4.16523 21.75C4.17949 21.75 4.19375 21.75 4.20801 21.75C4.22227 21.75 4.23652 21.75 4.25078 21.75C4.26504 21.75 4.2793 21.75 4.29355 21.75C4.30781 21.75 4.32207 21.75 4.33633 21.75C4.35059 21.75 4.36484 21.75 4.3791 21.75C4.39336 21.75 4.40762 21.75 4.42187 21.75C4.43613 21.75 4.45039 21.75 4.46465 21.75C4.47891 21.75 4.49316 21.75 4.50742 21.75C4.52168 21.75 4.53594 21.75 4.5502 21.75C4.56445 21.75 4.57871 21.75 4.59297 21.75C4.60723 21.75 4.62148 21.75 4.63574 21.75C4.65 21.75 4.66426 21.75 4.67852 21.75C4.69277 21.75 4.70703 21.75 4.72129 21.75C4.73555 21.75 4.7498 21.75 4.76406 21.75C4.77832 21.75 4.79258 21.75 4.80684 21.75C4.82109 21.75 4.83535 21.75 4.84961 21.75C4.86387 21.75 4.87812 21.75 4.89238 21.75C4.90664 21.75 4.9209 21.75 4.93516 21.75C4.94941 21.75 4.96367 21.75 4.97793 21.75C4.99219 21.75 5.00645 21.75 5.0207 21.75C5.03496 21.75 5.04922 21.75 5.06348 21.75C5.07773 21.75 5.09199 21.75 5.10625 21.75C5.12051 21.75 5.13477 21.75 5.14902 21.75C5.16328 21.75 5.17754 21.75 5.1918 21.75C5.20605 21.75 5.22031 21.75 5.23457 21.75C5.24883 21.75 5.26309 21.75 5.27734 21.75C5.2916 21.75 5.30586 21.75 5.32012 21.75C5.33437 21.75 5.34863 21.75 5.36289 21.75C5.37715 21.75 5.39141 21.75 5.40566 21.75C5.41992 21.75 5.43418 21.75 5.44844 21.75C5.4627 21.75 5.47695 21.75 5.49121 21.75C5.50547 21.75 5.51973 21.75 5.53398 21.75C5.54824 21.75 5.5625 21.75 5.57676 21.75C5.59102 21.75 5.60527 21.75 5.61953 21.75C5.63379 21.75 5.64805 21.75 5.6623 21.75C5.67656 21.75 5.69082 21.75 5.70508 21.75C5.71934 21.75 5.73359 21.75 5.74785 21.75C5.76211 21.75 5.77637 21.75 5.79062 21.75C5.80488 21.75 5.81914 21.75 5.8334 21.75C5.84766 21.75 5.86191 21.75 5.87617 21.75C5.89043 21.75 5.90469 21.75 5.91895 21.75C5.9332 21.75 5.94746 21.75 5.96172 21.75C5.97598 21.75 5.99023 21.75 6.00449 21.75C6.01875 21.75 6.03301 21.75 6.04727 21.75C6.06152 21.75 6.07578 21.75 6.09004 21.75C6.1043 21.75 6.11855 21.75 6.13281 21.75C6.14707 21.75 6.16133 21.75 6.17559 21.75C6.18984 21.75 6.2041 21.75 6.21836 21.75C6.23262 21.75 6.24687 21.75 6.26113 21.75C6.27539 21.75 6.28965 21.75 6.30391 21.75C6.31816 21.75 6.33242 21.75 6.34668 21.75C6.36094 21.75 6.3752 21.75 6.38945 21.75C6.40371 21.75 6.41797 21.75 6.43223 21.75C6.44648 21.75 6.46074 21.75 6.475 21.75C6.48926 21.75 6.50352 21.75 6.51777 21.75C6.53203 21.75 6.54629 21.75 6.56055 21.75C6.5748 21.75 6.58906 21.75 6.60332 21.75C6.61758 21.75 6.63184 21.75 6.64609 21.75C6.66035 21.75 6.67461 21.75 6.68887 21.75C6.70312 21.75 6.71738 21.75 6.73164 21.75C6.7459 21.75 6.76016 21.75 6.77441 21.75C6.78867 21.75 6.80293 21.75 6.81719 21.75C6.83145 21.75 6.8457 21.75 6.85996 21.75C6.87422 21.75 6.88848 21.75 6.90273 21.75C6.91699 21.75 6.93125 21.75 6.94551 21.75C6.95977 21.75 6.97402 21.75 6.98828 21.75C7.00254 21.75 7.0168 21.75 7.03105 21.75C7.04531 21.75 7.05957 21.75 7.07383 21.75C7.08809 21.75 7.10234 21.75 7.1166 21.75C7.13086 21.75 7.14512 21.75 7.15937 21.75C7.17363 21.75 7.18789 21.75 7.20215 21.75C7.21641 21.75 7.23066 21.75 7.24492 21.75C7.25918 21.75 7.27344 21.75 7.2877 21.75C7.30195 21.75 7.31621 21.75 7.33047 21.75C7.34473 21.75 7.35898 21.75 7.37324 21.75C7.3875 21.75 7.40176 21.75 7.41602 21.75C7.43027 21.75 7.44453 21.75 7.45879 21.75C7.47305 21.75 7.4873 21.75 7.50156 21.75C7.51582 21.75 7.53008 21.75 7.54434 21.75C7.55859 21.75 7.57285 21.75 7.58711 21.75C7.60137 21.75 7.61562 21.75 7.62988 21.75C7.64414 21.75 7.6584 21.75 7.67266 21.75C7.68691 21.75 7.70117 21.75 7.71543 21.75C7.72969 21.75 7.74395 21.75 7.7582 21.75C7.77246 21.75 7.78672 21.75 7.80098 21.75C7.81523 21.75 7.82949 21.75 7.84375 21.75C7.85801 21.75 7.87227 21.75 7.88652 21.75C7.90078 21.75 7.91504 21.75 7.9293 21.75C7.94355 21.75 7.95781 21.75 7.97207 21.75C7.98633 21.75 8.00059 21.75 8.01484 21.75C8.0291 21.75 8.04336 21.75 8.05762 21.75C8.07187 21.75 8.08613 21.75 8.10039 21.75C8.11465 21.75 8.12891 21.75 8.14316 21.75C8.15742 21.75 8.17168 21.75 8.18594 21.75C8.2002 21.75 8.21445 21.75 8.22871 21.75C8.24297 21.75 8.25723 21.75 8.27148 21.75C8.28574 21.75 8.3 21.75 8.31426 21.75C8.32852 21.75 8.34277 21.75 8.35703 21.75C8.37129 21.75 8.38555 21.75 8.3998 21.75C8.41406 21.75 8.42832 21.75 8.44258 21.75C8.45684 21.75 8.47109 21.75 8.48535 21.75C8.49961 21.75 8.51387 21.75 8.52812 21.75C8.54238 21.75 8.55664 21.75 8.5709 21.75C8.58516 21.75 8.59941 21.75 8.61367 21.75C8.62793 21.75 8.64219 21.75 8.65645 21.75C8.6707 21.75 8.68496 21.75 8.69922 21.75C8.71348 21.75 8.72773 21.75 8.74199 21.75C8.75625 21.75 8.77051 21.75 8.78477 21.75C8.79902 21.75 8.81328 21.75 8.82754 21.75C8.8418 21.75 8.85605 21.75 8.87031 21.75C8.88457 21.75 8.89883 21.75 8.91309 21.75C8.92734 21.75 8.9416 21.75 8.95586 21.75C8.97012 21.75 8.98437 21.75 8.99863 21.75C9.01289 21.75 9.02715 21.75 9.04141 21.75C9.05566 21.75 9.06992 21.75 9.08418 21.75C9.09844 21.75 9.1127 21.75 9.12695 21.75C9.14121 21.75 9.15547 21.75 9.16973 21.75C9.18398 21.75 9.19824 21.75 9.2125 21.75C9.22676 21.75 9.24102 21.75 9.25527 21.75C9.26953 21.75 9.28379 21.75 9.29805 21.75C9.3123 21.75 9.32656 21.75 9.34082 21.75C9.35508 21.75 9.36934 21.75 9.38359 21.75C9.39785 21.75 9.41211 21.75 9.42637 21.75C9.44062 21.75 9.45488 21.75 9.46914 21.75C9.4834 21.75 9.49766 21.75 9.51191 21.75C9.52617 21.75 9.54043 21.75 9.55469 21.75C9.56895 21.75 9.5832 21.75 9.59746 21.75C9.61172 21.75 9.62598 21.75 9.64023 21.75C9.65449 21.75 9.66875 21.75 9.68301 21.75C9.69727 21.75 9.71152 21.75 9.72578 21.75C9.74004 21.75 9.7543 21.75 9.76855 21.75C9.78281 21.75 9.79707 21.75 9.81133 21.75C9.82559 21.75 9.83984 21.75 9.8541 21.75C9.86836 21.75 9.88262 21.75 9.89687 21.75C9.91113 21.75 9.92539 21.75 9.93965 21.75C9.95391 21.75 9.96816 21.75 9.98242 21.75C9.99668 21.75 10.0109 21.75 10.0252 21.75C10.0395 21.75 10.0537 21.75 10.068 21.75C10.0822 21.75 10.0965 21.75 10.1107 21.75C10.125 21.75 10.1393 21.75 10.1535 21.75C10.1678 21.75 10.182 21.75 10.1963 21.75C10.2105 21.75 10.2248 21.75 10.2391 21.75C10.2533 21.75 10.2676 21.75 10.2818 21.75C10.2961 21.75 10.3104 21.75 10.3246 21.75C10.3389 21.75 10.3531 21.75 10.3674 21.75C10.3816 21.75 10.3959 21.75 10.4102 21.75C10.4244 21.75 10.4387 21.75 10.4529 21.75C10.4672 21.75 10.4814 21.75 10.4957 21.75C10.51 21.75 10.5242 21.75 10.5385 21.75C10.5527 21.75 10.567 21.75 10.5812 21.75C10.5955 21.75 10.6098 21.75 10.624 21.75C10.6383 21.75 10.6525 21.75 10.6668 21.75C10.6811 21.75 10.6953 21.75 10.7096 21.75C10.7238 21.75 10.7381 21.75 10.7523 21.75C10.7666 21.75 10.7809 21.75 10.7951 21.75C10.8094 21.75 10.8236 21.75 10.8379 21.75C10.8521 21.75 10.8664 21.75 10.8807 21.75C10.8949 21.75 10.9092 21.75 10.9234 21.75C10.9377 21.75 10.952 21.75 10.9662 21.75C10.9805 21.75 10.9947 21.75 11.009 21.75C11.0232 21.75 11.0375 21.75 11.0518 21.75C11.066 21.75 11.0803 21.75 11.0945 21.75C11.1088 21.75 11.123 21.75 11.1373 21.75C11.1516 21.75 11.1658 21.75 11.1801 21.75C11.1943 21.75 11.2086 21.75 11.2229 21.75C11.2371 21.75 11.2514 21.75 11.2656 21.75C11.2799 21.75 11.2941 21.75 11.3084 21.75C11.3227 21.75 11.3369 21.75 11.3512 21.75C11.3654 21.75 11.3797 21.75 11.3939 21.75C11.4082 21.75 11.4225 21.75 11.4367 21.75C11.451 21.75 11.4652 21.75 11.4795 21.75C11.4937 21.75 11.508 21.75 11.5223 21.75C11.5365 21.75 11.5508 21.75 11.565 21.75C11.5793 21.75 11.5936 21.75 11.6078 21.75C11.6221 21.75 11.6363 21.75 11.6506 21.75C11.6648 21.75 11.6791 21.75 11.6934 21.75C11.7076 21.75 11.7219 21.75 11.7361 21.75C11.7504 21.75 11.7646 21.75 11.7789 21.75C11.7932 21.75 11.8074 21.75 11.8217 21.75C11.8359 21.75 11.8502 21.75 11.8645 21.75C11.8787 21.75 11.893 21.75 11.9072 21.75C11.9215 21.75 11.9357 21.75 11.95 21.75C11.9643 21.75 11.9785 21.75 11.9928 21.75C12.007 21.75 12.0213 21.75 12.0355 21.75C12.0498 21.75 12.0641 21.75 12.0783 21.75C12.0926 21.75 12.1068 21.75 12.1211 21.75C12.1354 21.75 12.1496 21.75 12.1639 21.75C12.1781 21.75 12.1924 21.75 12.2066 21.75C12.2209 21.75 12.2352 21.75 12.2494 21.75C12.2637 21.75 12.2779 21.75 12.2922 21.75C12.3064 21.75 12.3207 21.75 12.335 21.75C12.3492 21.75 12.3635 21.75 12.3777 21.75C12.392 21.75 12.4062 21.75 12.4205 21.75C12.4348 21.75 12.449 21.75 12.4633 21.75C12.4775 21.75 12.4918 21.75 12.5061 21.75C12.5203 21.75 12.5346 21.75 12.5488 21.75C12.5631 21.75 12.5773 21.75 12.5916 21.75C12.6059 21.75 12.6201 21.75 12.6344 21.75C12.6486 21.75 12.6629 21.75 12.6771 21.75C12.6914 21.75 12.7057 21.75 12.7199 21.75C12.7342 21.75 12.7484 21.75 12.7627 21.75C12.777 21.75 12.7912 21.75 12.8055 21.75C12.8197 21.75 12.834 21.75 12.8482 21.75C12.8625 21.75 12.8768 21.75 12.891 21.75C12.9053 21.75 12.9195 21.75 12.9338 21.75C12.948 21.75 12.9623 21.75 12.9766 21.75C12.9908 21.75 13.0051 21.75 13.0193 21.75C13.0336 21.75 13.0479 21.75 13.0621 21.75C13.0764 21.75 13.0906 21.75 13.1049 21.75C13.1191 21.75 13.1334 21.75 13.1477 21.75C13.1619 21.75 13.1762 21.75 13.1904 21.75C13.2047 21.75 13.2189 21.75 13.2332 21.75C13.2475 21.75 13.2617 21.75 13.276 21.75C13.2902 21.75 13.3045 21.75 13.3187 21.75C13.333 21.75 13.3473 21.75 13.3615 21.75C13.3758 21.75 13.39 21.75 13.4043 21.75C13.4186 21.75 13.4328 21.75 13.4471 21.75C13.4613 21.75 13.4756 21.75 13.4898 21.75C13.5041 21.75 13.5184 21.75 13.5326 21.75C13.5469 21.75 13.5611 21.75 13.5754 21.75C13.5896 21.75 13.6039 21.75 13.6182 21.75C13.6324 21.75 13.6467 21.75 13.6609 21.75C13.6752 21.75 13.6895 21.75 13.7037 21.75C13.718 21.75 13.7322 21.75 13.7465 21.75C13.7607 21.75 13.775 21.75 13.7893 21.75C13.8035 21.75 13.8178 21.75 13.832 21.75C13.8463 21.75 13.8605 21.75 13.8748 21.75C13.8891 21.75 13.9033 21.75 13.9176 21.75C13.9318 21.75 13.9461 21.75 13.9604 21.75C13.9746 21.75 13.9889 21.75 14.0031 21.75C14.0174 21.75 14.0316 21.75 14.0459 21.75C14.0602 21.75 14.0744 21.75 14.0887 21.75C14.1029 21.75 14.1172 21.75 14.1314 21.75C14.1457 21.75 14.16 21.75 14.1742 21.75C14.1885 21.75 14.2027 21.75 14.217 21.75C14.2312 21.75 14.2455 21.75 14.2598 21.75C14.274 21.75 14.2883 21.75 14.3025 21.75C14.3168 21.75 14.3311 21.75 14.3453 21.75C14.3596 21.75 14.3738 21.75 14.3881 21.75C14.4023 21.75 14.4166 21.75 14.4309 21.75C14.4451 21.75 14.4594 21.75 14.4736 21.75C14.4879 21.75 14.5021 21.75 14.5164 21.75C14.5307 21.75 14.5449 21.75 14.5592 21.75C14.5734 21.75 14.5877 21.75 14.602 21.75C14.6162 21.75 14.6305 21.75 14.6447 21.75C14.659 21.75 14.6732 21.75 14.6875 21.75C14.7018 21.75 14.716 21.75 14.7303 21.75C14.7445 21.75 14.7588 21.75 14.773 21.75C14.7873 21.75 14.8016 21.75 14.8158 21.75C14.8301 21.75 14.8443 21.75 14.8586 21.75C14.8729 21.75 14.8871 21.75 14.9014 21.75C14.9156 21.75 14.9299 21.75 14.9441 21.75C14.9584 21.75 14.9727 21.75 14.9869 21.75C15.0012 21.75 15.0154 21.75 15.0297 21.75C15.0439 21.75 15.0582 21.75 15.0725 21.75C15.0867 21.75 15.101 21.75 15.1152 21.75C15.1295 21.75 15.1437 21.75 15.158 21.75C15.1723 21.75 15.1865 21.75 15.2008 21.75C15.215 21.75 15.2293 21.75 15.2436 21.75C15.2578 21.75 15.2721 21.75 15.2863 21.75C15.3006 21.75 15.3148 21.75 15.3291 21.75C15.3434 21.75 15.3576 21.75 15.3719 21.75C15.3861 21.75 15.4004 21.75 15.4146 21.75C15.4289 21.75 15.4432 21.75 15.4574 21.75C15.4717 21.75 15.4859 21.75 15.5002 21.75C15.5145 21.75 15.5287 21.75 15.543 21.75C15.5572 21.75 15.5715 21.75 15.5857 21.75C15.6 21.75 15.6143 21.75 15.6285 21.75C15.6428 21.75 15.657 21.75 15.6713 21.75C15.6855 21.75 15.6998 21.75 15.7141 21.75C15.7283 21.75 15.7426 21.75 15.7568 21.75C15.7711 21.75 15.7854 21.75 15.7996 21.75C15.8139 21.75 15.8281 21.75 15.8424 21.75C15.8566 21.75 15.8709 21.75 15.8852 21.75C15.8994 21.75 15.9137 21.75 15.9279 21.75C15.9422 21.75 15.9564 21.75 15.9707 21.75C15.985 21.75 15.9992 21.75 16.0135 21.75C16.0277 21.75 16.042 21.75 16.0562 21.75C16.0705 21.75 16.0848 21.75 16.099 21.75C16.1133 21.75 16.1275 21.75 16.1418 21.75C16.1561 21.75 16.1703 21.75 16.1846 21.75C16.1988 21.75 16.2131 21.75 16.2273 21.75C16.2416 21.75 16.2559 21.75 16.2701 21.75C16.2844 21.75 16.2986 21.75 16.3129 21.75C16.3271 21.75 16.3414 21.75 16.3557 21.75C16.3699 21.75 16.3842 21.75 16.3984 21.75C16.4127 21.75 16.427 21.75 16.4412 21.75C16.4555 21.75 16.4697 21.75 16.484 21.75C16.4982 21.75 16.5125 21.75 16.5268 21.75C16.541 21.75 16.5553 21.75 16.5695 21.75C16.5838 21.75 16.598 21.75 16.6123 21.75C16.6266 21.75 16.6408 21.75 16.6551 21.75C16.6693 21.75 16.6836 21.75 16.6979 21.75C16.7121 21.75 16.7264 21.75 16.7406 21.75C16.7549 21.75 16.7691 21.75 16.7834 21.75C16.7977 21.75 16.8119 21.75 16.8262 21.75C16.8404 21.75 16.8547 21.75 16.8689 21.75C16.8832 21.75 16.8975 21.75 16.9117 21.75C16.926 21.75 16.9402 21.75 16.9545 21.75C16.9687 21.75 16.983 21.75 16.9973 21.75C17.0115 21.75 17.0258 21.75 17.04 21.75C17.0543 21.75 17.0686 21.75 17.0828 21.75C17.0971 21.75 17.1113 21.75 17.1256 21.75C17.1398 21.75 17.1541 21.75 17.1684 21.75C17.1826 21.75 17.1969 21.75 17.2111 21.75C17.2254 21.75 17.2396 21.75 17.2539 21.75C17.2682 21.75 17.2824 21.75 17.2967 21.75C17.3109 21.75 17.3252 21.75 17.3395 21.75C17.3537 21.75 17.368 21.75 17.3822 21.75C17.3965 21.75 17.4107 21.75 17.425 21.75C17.4393 21.75 17.4535 21.75 17.4678 21.75C17.482 21.75 17.4963 21.75 17.5105 21.75C17.5248 21.75 17.5391 21.75 17.5533 21.75C17.5676 21.75 17.5818 21.75 17.5961 21.75C17.6104 21.75 17.6246 21.75 17.6389 21.75C17.6531 21.75 17.6674 21.75 17.6816 21.75C17.6959 21.75 17.7102 21.75 17.7244 21.75C17.7387 21.75 17.7529 21.75 17.7672 21.75C17.7814 21.75 17.7957 21.75 17.81 21.75C17.8242 21.75 17.8385 21.75 17.8527 21.75C17.867 21.75 17.8812 21.75 17.8955 21.75C17.9098 21.75 17.924 21.75 17.9383 21.75C17.9525 21.75 17.9668 21.75 17.9811 21.75C17.9953 21.75 18.0096 21.75 18.0238 21.75C18.0381 21.75 18.0523 21.75 18.0666 21.75C18.0809 21.75 18.0951 21.75 18.1094 21.75C18.1236 21.75 18.1379 21.75 18.1521 21.75C18.1664 21.75 18.1807 21.75 18.1949 21.75C18.2092 21.75 18.2234 21.75 18.2377 21.75C18.252 21.75 18.2662 21.75 18.2805 21.75C18.2947 21.75 18.309 21.75 18.3232 21.75C18.3375 21.75 18.3518 21.75 18.366 21.75C18.3803 21.75 18.3945 21.75 18.4088 21.75C18.423 21.75 18.4373 21.75 18.4516 21.75C18.4658 21.75 18.4801 21.75 18.4943 21.75C18.5086 21.75 18.5229 21.75 18.5371 21.75C18.5514 21.75 18.5656 21.75 18.5799 21.75C18.5941 21.75 18.6084 21.75 18.6227 21.75C18.6369 21.75 18.6512 21.75 18.6654 21.75C18.6797 21.75 18.6939 21.75 18.7082 21.75C18.7225 21.75 18.7367 21.75 18.751 21.75C18.7652 21.75 18.7795 21.75 18.7937 21.75C18.808 21.75 18.8223 21.75 18.8365 21.75C18.8508 21.75 18.865 21.75 18.8793 21.75C18.8936 21.75 18.9078 21.75 18.9221 21.75C18.9363 21.75 18.9506 21.75 18.9648 21.75C18.9791 21.75 18.9934 21.75 19.0076 21.75C19.0219 21.75 19.0361 21.75 19.0504 21.75C19.0646 21.75 19.0789 21.75 19.0932 21.75C19.1074 21.75 19.1217 21.75 19.1359 21.75C19.1502 21.75 19.1645 21.75 19.1787 21.75C19.193 21.75 19.2072 21.75 19.2215 21.75C19.2357 21.75 19.25 21.75 19.2643 21.75C19.2785 21.75 19.2928 21.75 19.307 21.75C19.3213 21.75 19.3355 21.75 19.3498 21.75C19.3641 21.75 19.3783 21.75 19.3926 21.75C19.4068 21.75 19.4211 21.75 19.4354 21.75C19.4496 21.75 19.4639 21.75 19.4781 21.75C19.4924 21.75 19.5066 21.75 19.5209 21.75C19.5352 21.75 19.5494 21.75 19.5637 21.75C19.5779 21.75 19.5922 21.75 19.6064 21.75C19.6207 21.75 19.635 21.75 19.6492 21.75C19.6635 21.75 19.6777 21.75 19.692 21.75C19.7062 21.75 19.7205 21.75 19.7348 21.75C19.749 21.75 19.7633 21.75 19.7775 21.75C19.7918 21.75 19.8061 21.75 19.8203 21.75C19.8346 21.75 19.8488 21.75 19.8631 21.75C19.8773 21.75 19.8916 21.75 19.9059 21.75C19.9201 21.75 19.9344 21.75 19.9486 21.75C19.9629 21.75 19.9771 21.75 19.9914 21.75C20.0057 21.75 20.0199 21.75 20.0342 21.75C20.0484 21.75 20.0627 21.75 20.077 21.75C20.0912 21.75 20.1055 21.75 20.1197 21.75C20.134 21.75 20.1482 21.75 20.1625 21.75C20.1768 21.75 20.191 21.75 20.2053 21.75C20.2195 21.75 20.2338 21.75 20.248 21.75C20.2623 21.75 20.2766 21.75 20.2908 21.75C20.3051 21.75 20.3193 21.75 20.3336 21.75C20.3479 21.75 20.3621 21.75 20.3764 21.75C20.3906 21.75 20.4049 21.75 20.4191 21.75C20.4334 21.75 20.4477 21.75 20.4619 21.75C20.4762 21.75 20.4904 21.75 20.5047 21.75C20.5189 21.75 20.5332 21.75 20.5475 21.75C20.5617 21.75 20.576 21.75 20.5902 21.75C20.6045 21.75 20.6187 21.75 20.633 21.75C20.6473 21.75 20.6615 21.75 20.6758 21.75C20.69 21.75 20.7043 21.75 20.7186 21.75C20.7328 21.75 20.7471 21.75 20.7613 21.75C20.7756 21.75 20.7898 21.75 20.8041 21.75C20.8184 21.75 20.8326 21.75 20.8469 21.75C20.8611 21.75 20.8754 21.75 20.8896 21.75C20.9039 21.75 20.9182 21.75 20.9324 21.75C20.9467 21.75 20.9609 21.75 20.9752 21.75C20.9895 21.75 21.0037 21.75 21.018 21.75C21.0322 21.75 21.0465 21.75 21.0607 21.75C21.075 21.75 21.0893 21.75 21.1035 21.75C21.1178 21.75 21.132 21.75 21.1463 21.75C21.1605 21.75 21.1748 21.75 21.1891 21.75C21.2033 21.75 21.2176 21.75 21.2318 21.75C21.2461 21.75 21.2604 21.75 21.2746 21.75C21.2889 21.75 21.3031 21.75 21.3174 21.75C21.3316 21.75 21.3459 21.75 21.3602 21.75C21.3744 21.75 21.3887 21.75 21.4029 21.75C21.4172 21.75 21.4314 21.75 21.4457 21.75C21.46 21.75 21.4742 21.75 21.4885 21.75C21.5027 21.75 21.517 21.75 21.5312 21.75C21.5455 21.75 21.5598 21.75 21.574 21.75C21.5883 21.75 21.6025 21.75 21.6168 21.75C21.6311 21.75 21.6453 21.75 21.6596 21.75C21.6738 21.75 21.6881 21.75 21.7023 21.75C21.7166 21.75 21.7309 21.75 21.7451 21.75C21.7594 21.75 21.7736 21.75 21.7879 21.75C21.8021 21.75 21.8164 21.75 21.8307 21.75C21.8449 21.75 21.8592 21.75 21.8734 21.75C21.8877 21.75 21.902 21.75 21.9162 21.75C21.9305 21.75 21.9447 21.75 21.959 21.75C21.9732 21.75 21.9875 21.75 22.0018 21.75C22.016 21.75 22.0303 21.75 22.0445 21.75C22.0588 21.75 22.073 21.75 22.0873 21.75C22.1016 21.75 22.1158 21.75 22.1301 21.75C22.1443 21.75 22.1586 21.75 22.1729 21.75C22.1871 21.75 22.2014 21.75 22.2156 21.75C22.2299 21.75 22.2441 21.75 22.2584 21.75C22.2727 21.75 22.2869 21.75 22.3012 21.75C22.3154 21.75 22.3297 21.75 22.3439 21.75C22.3582 21.75 22.3725 21.75 22.3867 21.75C22.401 21.75 22.4152 21.75 22.4295 21.75C22.4437 21.75 22.458 21.75 22.4723 21.75C22.4865 21.75 22.5008 21.75 22.515 21.75C22.5293 21.75 22.5436 21.75 22.5578 21.75C22.5721 21.75 22.5863 21.75 22.6006 21.75C22.6148 21.75 22.6291 21.75 22.6434 21.75C22.6576 21.75 22.6719 21.75 22.6861 21.75C22.7004 21.75 22.7146 21.75 22.7289 21.75C22.7432 21.75 22.7574 21.75 22.7717 21.75C22.7859 21.75 22.8002 21.75 22.8145 21.75C22.8287 21.75 22.843 21.75 22.8572 21.75C22.8715 21.75 22.8857 21.75 22.9 21.75V20.25Z" fill="black"/>
</g>
<defs>
<clipPath id="clip0_1607_9303">
<rect width="24" height="24" fill="white"/>
</clipPath>
</defs>
</svg>
