<svg width="24" height="24" viewBox="0 0 24 24" fill="none" xmlns="http://www.w3.org/2000/svg">
<g clip-path="url(#clip0_1607_9321)">
<path d="M21 14H21.75V13.25H21V14ZM21 23V23.75H21.75V23H21ZM3 23H2.25V23.75H3V23ZM3 14V13.25H2.25V14H3ZM21.1392 8.83561L21.879 8.71232L21.879 8.71232L21.1392 8.83561ZM21.9805 13.8836L21.2407 14.0069L21.2407 14.0069L21.9805 13.8836ZM2.01929 13.8836L2.75908 14.0069L2.75908 14.0069L2.01929 13.8836ZM2.86067 8.83559L2.12088 8.71228L2.12088 8.71228L2.86067 8.83559ZM5.99995 8.75C6.41416 8.75 6.74995 8.41421 6.74995 8C6.74995 7.58579 6.41416 7.25 5.99995 7.25V8.75ZM17.9999 7.25C17.5857 7.25 17.2499 7.58579 17.2499 8C17.2499 8.41421 17.5857 8.75 17.9999 8.75V7.25ZM11.25 23C11.25 23.4142 11.5858 23.75 12 23.75C12.4142 23.75 12.75 23.4142 12.75 23H11.25ZM7.25 23C7.25 23.4142 7.58579 23.75 8 23.75C8.41421 23.75 8.75 23.4142 8.75 23H7.25ZM15.25 23C15.25 23.4142 15.5858 23.75 16 23.75C16.4142 23.75 16.75 23.4142 16.75 23H15.25ZM1 22.25C0.585786 22.25 0.25 22.5858 0.25 23C0.25 23.4142 0.585786 23.75 1 23.75V22.25ZM23 23.75C23.4142 23.75 23.75 23.4142 23.75 23C23.75 22.5858 23.4142 22.25 23 22.25V23.75ZM9.104 7.60946C9.104 8.02368 9.43979 8.35946 9.854 8.35946C10.2682 8.35946 10.604 8.02368 10.604 7.60946H9.104ZM14.6762 7.06682C14.9691 6.77392 14.9691 6.29905 14.6762 6.00616C14.3833 5.71326 13.9085 5.71326 13.6156 6.00616L14.6762 7.06682ZM11.2014 8.42035C10.9085 8.71325 10.9085 9.18812 11.2014 9.48101C11.4943 9.77391 11.9691 9.77391 12.262 9.48101L11.2014 8.42035ZM13.6156 9.48101C13.9085 9.77391 14.3833 9.77391 14.6762 9.48101C14.9691 9.18812 14.9691 8.71325 14.6762 8.42035L13.6156 9.48101ZM20.25 14V23H21.75V14H20.25ZM3.75 23V14H2.25V23H3.75ZM3 14.75H21V13.25H3V14.75ZM21 22.25H3V23.75H21V22.25ZM20.3994 8.9589L21.2407 14.0069L22.7203 13.7603L21.879 8.71232L20.3994 8.9589ZM2.75908 14.0069L3.60047 8.9589L2.12088 8.71228L1.27949 13.7603L2.75908 14.0069ZM2.11793 14.75H21.8818V13.25H2.11793V14.75ZM3.84706 8.75H5.99995V7.25H3.84706V8.75ZM17.9999 8.75H20.1528V7.25H17.9999V8.75ZM1.27949 13.7603C1.19313 14.2784 1.59267 14.75 2.11793 14.75V13.25C2.51959 13.25 2.82512 13.6107 2.75908 14.0069L1.27949 13.7603ZM21.2407 14.0069C21.1746 13.6107 21.4802 13.25 21.8818 13.25V14.75C22.4071 14.75 22.8066 14.2784 22.7203 13.7603L21.2407 14.0069ZM21.879 8.71232C21.7384 7.86848 21.0083 7.25 20.1528 7.25V8.75C20.275 8.75 20.3793 8.83836 20.3994 8.9589L21.879 8.71232ZM3.60047 8.9589C3.62056 8.83835 3.72486 8.75 3.84706 8.75V7.25C2.9916 7.25 2.26153 7.86846 2.12088 8.71228L3.60047 8.9589ZM11.25 17V23H12.75V17H11.25ZM8.75 23V18H7.25V23H8.75ZM9 17.75H12V16.25H9V17.75ZM8.75 18C8.75 17.8619 8.86193 17.75 9 17.75V16.25C8.0335 16.25 7.25 17.0335 7.25 18H8.75ZM15.25 18V23H16.75V18H15.25ZM12 17.75H15V16.25H12V17.75ZM16.75 18C16.75 17.0335 15.9665 16.25 15 16.25V17.75C15.1381 17.75 15.25 17.8619 15.25 18H16.75ZM1 23.75H23V22.25H1V23.75ZM7 1.75H17V0.25H7V1.75ZM17.25 2V10H18.75V2H17.25ZM17 10.25H7V11.75H17V10.25ZM6.75 10V2H5.25V10H6.75ZM7 10.25C6.86193 10.25 6.75 10.1381 6.75 10H5.25C5.25 10.9665 6.0335 11.75 7 11.75V10.25ZM17.25 10C17.25 10.1381 17.1381 10.25 17 10.25V11.75C17.9665 11.75 18.75 10.9665 18.75 10H17.25ZM17 1.75C17.1381 1.75 17.25 1.86193 17.25 2H18.75C18.75 1.0335 17.9665 0.25 17 0.25V1.75ZM7 0.25C6.0335 0.25 5.25 1.0335 5.25 2H6.75C6.75 1.86193 6.86193 1.75 7 1.75V0.25ZM10.3905 3.79932H11.3293V2.29932H10.3905V3.79932ZM10.604 7.60946V5.46351H9.104V7.60946H10.604ZM10.604 5.46351V3.5858H9.104V5.46351H10.604ZM13.6156 6.00616L12.4085 7.21326L13.4691 8.27392L14.6762 7.06682L13.6156 6.00616ZM12.4085 7.21326L11.2014 8.42035L12.262 9.48101L13.4691 8.27392L12.4085 7.21326ZM11.3293 4.71351H10.6587V6.21351H11.3293V4.71351ZM10.6587 4.71351H9.854V6.21351H10.6587V4.71351ZM10.1284 5.99384L12.4085 8.27392L13.4691 7.21326L11.1891 4.93318L10.1284 5.99384ZM12.4085 8.27392L13.6156 9.48101L14.6762 8.42035L13.4691 7.21326L12.4085 8.27392ZM11.7864 4.25641C11.7864 4.50886 11.5818 4.71351 11.3293 4.71351V6.21351C12.4102 6.21351 13.2864 5.33729 13.2864 4.25641H11.7864ZM11.3293 3.79932C11.5818 3.79932 11.7864 4.00397 11.7864 4.25641H13.2864C13.2864 3.17554 12.4102 2.29932 11.3293 2.29932V3.79932ZM10.3905 2.29932C9.67998 2.29932 9.104 2.8753 9.104 3.5858H10.604C10.604 3.70372 10.5084 3.79932 10.3905 3.79932V2.29932Z" fill="black"/>
</g>
<defs>
<clipPath id="clip0_1607_9321">
<rect width="24" height="24" fill="white"/>
</clipPath>
</defs>
</svg>
