<svg width="24" height="24" viewBox="0 0 24 24" fill="none" xmlns="http://www.w3.org/2000/svg">
<path d="M0.25 1C0.25 0.585786 0.585786 0.25 1 0.25H23C23.4142 0.25 23.75 0.585786 23.75 1C23.75 1.41421 23.4142 1.75 23 1.75H1C0.585786 1.75 0.25 1.41421 0.25 1Z" fill="black"/>
<path d="M1 8.25C0.585786 8.25 0.25 8.58579 0.25 9C0.25 9.41421 0.585786 9.75 1 9.75H23C23.4142 9.75 23.75 9.41421 23.75 9C23.75 8.58579 23.4142 8.25 23 8.25H1Z" fill="black"/>
<path d="M1 17.25C0.585786 17.25 0.25 17.5858 0.25 18C0.25 18.4142 0.585786 18.75 1 18.75H9C9.41421 18.75 9.75 18.4142 9.75 18C9.75 17.5858 9.41421 17.25 9 17.25H1Z" fill="black"/>
<path fill-rule="evenodd" clip-rule="evenodd" d="M18 23C20.7614 23 23 20.7614 23 18C23 15.2386 20.7614 13 18 13C15.2386 13 13 15.2386 13 18C13 20.7614 15.2386 23 18 23ZM18.75 16C18.75 15.5858 18.4142 15.25 18 15.25C17.5858 15.25 17.25 15.5858 17.25 16V17.25H16C15.5858 17.25 15.25 17.5858 15.25 18C15.25 18.4142 15.5858 18.75 16 18.75H17.25V20C17.25 20.4142 17.5858 20.75 18 20.75C18.4142 20.75 18.75 20.4142 18.75 20V18.75H20C20.4142 18.75 20.75 18.4142 20.75 18C20.75 17.5858 20.4142 17.25 20 17.25H18.75V16Z" fill="black"/>
</svg>
