<svg width="24" height="24" viewBox="0 0 24 24" fill="none" xmlns="http://www.w3.org/2000/svg">
<g clip-path="url(#clip0_1607_6299)">
<path d="M7 1C7 0.447716 6.55228 0 6 0C5.44771 0 5 0.447716 5 1V21.0237L2.60043 19.2219C2.15879 18.8903 1.53194 18.9795 1.20033 19.4212C0.868713 19.8628 0.957914 20.4897 1.39956 20.8213L5.33956 23.7797C5.73084 24.0735 6.26914 24.0735 6.66043 23.7797L10.6004 20.8213C11.0421 20.4897 11.1313 19.8628 10.7997 19.4212C10.4681 18.9795 9.84121 18.8903 9.39956 19.2219L7 21.0237V1Z" fill="black"/>
<path fill-rule="evenodd" clip-rule="evenodd" d="M21.0837 22.4243L20.4707 21.0216H16.5293L15.9163 22.4243C15.6952 22.9304 15.1056 23.1614 14.5996 22.9402C14.0935 22.7191 13.8625 22.1295 14.0837 21.6235L17.5139 13.7739C17.8899 12.9136 19.1101 12.9136 19.4861 13.7739L22.9163 21.6235C23.1375 22.1295 22.9065 22.7191 22.4004 22.9402C21.8944 23.1614 21.3048 22.9304 21.0837 22.4243ZM17.4033 19.0216L18.5 16.5121L19.5967 19.0216H17.4033Z" fill="black"/>
<path d="M15 0C14.4477 0 14 0.447715 14 1C14 1.55228 14.4477 2 15 2H19.0014L14.1997 8.40954C13.9726 8.7126 13.9363 9.11791 14.1057 9.45656C14.2751 9.79521 14.6213 10.0091 15 10.0091H21C21.5523 10.0091 22 9.56139 22 9.0091C22 8.45682 21.5523 8.0091 21 8.0091H16.9986L21.709 1.7215C22.2392 1.01371 21.7365 0 20.8478 0H15Z" fill="black"/>
</g>
<defs>
<clipPath id="clip0_1607_6299">
<rect width="24" height="24" fill="white"/>
</clipPath>
</defs>
</svg>
