<svg width="24" height="24" viewBox="0 0 24 24" fill="none" xmlns="http://www.w3.org/2000/svg">
<g clip-path="url(#clip0_1607_6303)">
<path d="M8 1C8 0.447715 7.55228 0 7 0C6.44771 0 6 0.447715 6 1V21L3.6 19.2C3.15817 18.8686 2.53137 18.9582 2.2 19.4C1.86863 19.8418 1.95817 20.4686 2.4 20.8L6.33999 23.755C6.53555 23.9017 6.76778 23.975 7 23.975C7.23222 23.975 7.46444 23.9017 7.65999 23.755L11.6 20.8C12.0418 20.4686 12.1314 19.8418 11.8 19.4C11.4686 18.9582 10.8418 18.8686 10.4 19.2L8 21V1Z" fill="black"/>
<path fill-rule="evenodd" clip-rule="evenodd" d="M21.7709 16.7473C21.7396 16.8294 21.7053 16.9099 21.6681 16.9889L18.9189 23.3946C18.7011 23.9021 18.1131 24.1369 17.6056 23.9191C17.0981 23.7013 16.8632 23.1133 17.081 22.6058L18.6296 18.9976C18.5866 18.9992 18.5434 19 18.5 19C16.567 19 15 17.433 15 15.5C15 13.567 16.567 12 18.5 12C20.433 12 22 13.567 22 15.5C22 15.9375 21.9192 16.3585 21.7709 16.7473ZM17 15.5C17 14.6716 17.6716 14 18.5 14C19.3284 14 20 14.6716 20 15.5C20 15.6837 19.9674 15.8576 19.9085 16.0177L19.8463 16.1628C19.601 16.66 19.0891 17 18.5 17C17.6716 17 17 16.3284 17 15.5Z" fill="black"/>
<path d="M18 9.99989V2.61792L16.4472 3.39432C15.9532 3.64131 15.3526 3.44108 15.1056 2.9471C14.8586 2.45312 15.0588 1.85245 15.5528 1.60546L18.3875 0.188088C19.1284 -0.182323 20 0.356377 20 1.18465L20 9.99989C20 10.5522 19.5523 10.9999 19 10.9999C18.4477 10.9999 18 10.5522 18 9.99989Z" fill="black"/>
</g>
<defs>
<clipPath id="clip0_1607_6303">
<rect width="24" height="24" fill="white"/>
</clipPath>
</defs>
</svg>
