<svg width="24" height="24" viewBox="0 0 24 24" fill="none" xmlns="http://www.w3.org/2000/svg">
<path d="M8 1C8 0.447715 7.55228 0 7 0C6.44771 0 6 0.447715 6 1V21L3.6 19.2C3.15817 18.8686 2.53137 18.9582 2.2 19.4C1.86863 19.8418 1.95817 20.4686 2.4 20.8L6.33999 23.755C6.53549 23.9016 6.76837 23.975 7 23.975C7.23173 23.975 7.46458 23.9016 7.65999 23.755L11.6 20.8C12.0418 20.4686 12.1314 19.8418 11.8 19.4C11.4686 18.9582 10.8418 18.8686 10.4 19.2L8 21V1Z" fill="black"/>
<path d="M18 23L18 15.618L16.4472 16.3944C15.9532 16.6414 15.3526 16.4412 15.1056 15.9472C14.8586 15.4532 15.0588 14.8526 15.5528 14.6056L18.3875 13.1882C19.1283 12.8178 20 13.3565 20 14.1848L20 23C20 23.5523 19.5523 24 19 24C18.4477 24 18 23.5523 18 23Z" fill="black"/>
<path fill-rule="evenodd" clip-rule="evenodd" d="M21.7709 4.74732C21.7396 4.82935 21.7053 4.90992 21.6682 4.98887L18.9189 11.3946C18.7011 11.9021 18.1131 12.1369 17.6056 11.9191C17.0981 11.7013 16.8632 11.1133 17.081 10.6058L18.6296 6.99765C18.5866 6.99921 18.5434 7 18.5 7C16.567 7 15 5.433 15 3.5C15 1.567 16.567 0 18.5 0C20.433 0 22 1.567 22 3.5C22 3.93753 21.9192 4.35853 21.7709 4.74732ZM17 3.5C17 2.67157 17.6716 2 18.5 2C19.3284 2 20 2.67157 20 3.5C20 3.6837 19.9674 3.85761 19.9085 4.01772L19.8463 4.16278C19.601 4.66 19.0891 5 18.5 5C17.6716 5 17 4.32843 17 3.5Z" fill="black"/>
</svg>
