<svg width="24" height="24" viewBox="0 0 24 24" fill="none" xmlns="http://www.w3.org/2000/svg">
<path fill-rule="evenodd" clip-rule="evenodd" d="M8.125 4C7.83664 4 7.56231 4.12448 7.37242 4.34149L1.24742 11.3415C0.917526 11.7185 0.917525 12.2815 1.24742 12.6585L7.37242 19.6585C7.56231 19.8755 7.83664 20 8.125 20H22C22.5523 20 23 19.5523 23 19V5C23 4.44772 22.5523 4 22 4H8.125ZM11.5303 8.46967C11.2374 8.17678 10.7626 8.17678 10.4697 8.46967C10.1768 8.76256 10.1768 9.23744 10.4697 9.53033L12.9393 12L10.4697 14.4697C10.1768 14.7626 10.1768 15.2374 10.4697 15.5303C10.7626 15.8232 11.2374 15.8232 11.5303 15.5303L14 13.0607L16.4697 15.5303C16.7626 15.8232 17.2374 15.8232 17.5303 15.5303C17.8232 15.2374 17.8232 14.7626 17.5303 14.4697L15.0607 12L17.5303 9.53033C17.8232 9.23744 17.8232 8.76256 17.5303 8.46967C17.2374 8.17678 16.7626 8.17678 16.4697 8.46967L14 10.9393L11.5303 8.46967Z" fill="black"/>
</svg>
