<svg width="24" height="24" viewBox="0 0 24 24" fill="none" xmlns="http://www.w3.org/2000/svg">
<g clip-path="url(#clip0_1607_6324)">
<path fill-rule="evenodd" clip-rule="evenodd" d="M21.1042 2.90956C19.8972 1.69681 17.9402 1.69681 16.7332 2.90956L13.8439 5.81254C12.9043 6.75661 12.6961 8.15729 13.2194 9.30369L15.9629 6.54715C16.3516 6.15662 16.9818 6.15662 17.3705 6.54715C17.7591 6.93767 17.7591 7.57084 17.3705 7.96136L14.5884 10.7566C15.7553 11.3748 17.2332 11.1907 18.2149 10.2043L21.1042 7.3013C22.3112 6.08855 22.3112 4.12231 21.1042 2.90956ZM13.1416 12.2103C15.1219 13.5876 17.859 13.3903 19.6224 11.6185L22.5117 8.71551C24.4961 6.72172 24.4961 3.48914 22.5117 1.49535C20.5273 -0.498449 17.31 -0.498449 15.3256 1.49535L12.4364 4.39832C10.7129 6.12998 10.4863 8.79609 11.7566 10.7735L10.7909 11.7437C8.81637 10.4172 6.12107 10.6298 4.37756 12.3816L1.48829 15.2846C-0.496096 17.2783 -0.496096 20.5109 1.48829 22.5047C3.47267 24.4985 6.68999 24.4985 8.67437 22.5047L11.5636 19.6017C13.3072 17.8499 13.5188 15.1418 12.1985 13.1579L13.1416 12.2103ZM9.33651 13.205L6.51614 16.0387C6.12746 16.4293 6.12746 17.0624 6.51614 17.453C6.90482 17.8435 7.53499 17.8435 7.92367 17.453L10.7441 14.6192C11.3129 15.7793 11.1169 17.2222 10.1561 18.1875L7.26683 21.0905C6.05981 22.3033 4.10284 22.3033 2.89582 21.0905C1.6888 19.8778 1.6888 17.9115 2.89582 16.6988L5.7851 13.7958C6.74588 12.8304 8.18185 12.6335 9.33651 13.205Z" fill="black"/>
</g>
<defs>
<clipPath id="clip0_1607_6324">
<rect width="24" height="24" fill="white"/>
</clipPath>
</defs>
</svg>
