<svg width="24" height="24" viewBox="0 0 24 24" fill="none" xmlns="http://www.w3.org/2000/svg">
<path d="M1 2C1 1.44772 1.44772 1 2 1H22C22.5523 1 23 1.44772 23 2V7.15C23 7.20523 22.9552 7.25 22.9 7.25L1.1 7.25C1.04477 7.25 1 7.20523 1 7.15V2Z" fill="black"/>
<path d="M11.25 8.85C11.25 8.79477 11.2052 8.75 11.15 8.75L1.1 8.75C1.04477 8.75 1 8.79477 1 8.85V22C1 22.5523 1.44772 23 2 23H11.15C11.2052 23 11.25 22.9552 11.25 22.9L11.25 8.85Z" fill="black"/>
<path d="M12.75 22.9C12.75 22.9552 12.7948 23 12.85 23H22C22.5523 23 23 22.5523 23 22V8.85C23 8.79477 22.9552 8.75 22.9 8.75L12.85 8.75C12.7948 8.75 12.75 8.79477 12.75 8.85L12.75 22.9Z" fill="black"/>
</svg>
