<svg width="24" height="24" viewBox="0 0 24 24" fill="none" xmlns="http://www.w3.org/2000/svg">
<path d="M0 4C0 3.44772 0.447715 3 1 3H23C23.5523 3 24 3.44772 24 4C24 4.55228 23.5523 5 23 5H1C0.447715 5 0 4.55228 0 4Z" fill="black"/>
<path d="M4 8C4 7.44772 4.44772 7 5 7H23C23.5523 7 24 7.44772 24 8C24 8.55228 23.5523 9 23 9H5C4.44772 9 4 8.55228 4 8Z" fill="black"/>
<path d="M5 15C4.44772 15 4 15.4477 4 16C4 16.5523 4.44772 17 5 17H23C23.5523 17 24 16.5523 24 16C24 15.4477 23.5523 15 23 15H5Z" fill="black"/>
<path d="M0 12C0 11.4477 0.447715 11 1 11H23C23.5523 11 24 11.4477 24 12C24 12.5523 23.5523 13 23 13H1C0.447715 13 0 12.5523 0 12Z" fill="black"/>
<path d="M1 19C0.447715 19 0 19.4477 0 20C0 20.5523 0.447715 21 1 21H23C23.5523 21 24 20.5523 24 20C24 19.4477 23.5523 19 23 19H1Z" fill="black"/>
</svg>
