<svg width="24" height="24" viewBox="0 0 24 24" fill="none" xmlns="http://www.w3.org/2000/svg">
<path d="M0 4C0 3.44772 0.447715 3 1 3H23C23.5523 3 24 3.44772 24 4C24 4.55228 23.5523 5 23 5H1C0.447715 5 0 4.55228 0 4Z" fill="black"/>
<path d="M0 8C0 7.44772 0.447715 7 1 7H19C19.5523 7 20 7.44772 20 8C20 8.55228 19.5523 9 19 9H1C0.447715 9 0 8.55228 0 8Z" fill="black"/>
<path d="M1 15C0.447715 15 0 15.4477 0 16C0 16.5523 0.447715 17 1 17H19C19.5523 17 20 16.5523 20 16C20 15.4477 19.5523 15 19 15H1Z" fill="black"/>
<path d="M0 12C0 11.4477 0.447715 11 1 11H23C23.5523 11 24 11.4477 24 12C24 12.5523 23.5523 13 23 13H1C0.447715 13 0 12.5523 0 12Z" fill="black"/>
<path d="M1 19C0.447715 19 0 19.4477 0 20C0 20.5523 0.447715 21 1 21H23C23.5523 21 24 20.5523 24 20C24 19.4477 23.5523 19 23 19H1Z" fill="black"/>
</svg>
