<svg width="24" height="24" viewBox="0 0 24 24" fill="none" xmlns="http://www.w3.org/2000/svg">
<path fill-rule="evenodd" clip-rule="evenodd" d="M23 12C23 18.0751 18.0751 23 12 23C5.92487 23 1 18.0751 1 12C1 5.92487 5.92487 1 12 1C18.0751 1 23 5.92487 23 12ZM7.67013 9.70454L8.74236 8.49827C9.01755 8.18868 8.98966 7.71463 8.68008 7.43944C8.37049 7.16425 7.89643 7.19214 7.62125 7.50173L5.43944 9.95627C5.18685 10.2404 5.18685 10.6686 5.43944 10.9528L7.62124 13.4074C7.89643 13.7169 8.37048 13.7448 8.68007 13.4697C8.98966 13.1945 9.01754 12.7204 8.74236 12.4108L7.67012 11.2045H14.8636C16.1816 11.2045 17.25 12.273 17.25 13.5909C17.25 14.9089 16.1816 15.9773 14.8636 15.9773H9.27271C8.8585 15.9773 8.52271 16.3131 8.52271 16.7273C8.52271 17.1415 8.8585 17.4773 9.27271 17.4773H14.8636C17.01 17.4773 18.75 15.7373 18.75 13.5909C18.75 11.4445 17.01 9.70454 14.8636 9.70454H7.67013Z" fill="black"/>
</svg>
