<svg width="24" height="24" viewBox="0 0 24 24" fill="none" xmlns="http://www.w3.org/2000/svg">
<path d="M1 5C1.55228 5 2 4.55228 2 4H4.5V20H2.5C1.94772 20 1.5 20.4477 1.5 21C1.5 21.5523 1.94772 22 2.5 22H8.5C9.05228 22 9.5 21.5523 9.5 21C9.5 20.4477 9.05228 20 8.5 20H6.5V4H9C9 4.55228 9.44771 5 10 5C10.5523 5 11 4.55228 11 4V3.1C11 2.49248 10.5075 2 9.9 2H1.1C0.492486 2 0 2.49249 0 3.1V4C0 4.55228 0.447715 5 1 5Z" fill="black"/>
<path d="M14 5C14.5523 5 15 4.55228 15 4H17.5V20H15.5C14.9477 20 14.5 20.4477 14.5 21C14.5 21.5523 14.9477 22 15.5 22H21.5C22.0523 22 22.5 21.5523 22.5 21C22.5 20.4477 22.0523 20 21.5 20H19.5V4H22C22 4.55228 22.4477 5 23 5C23.5523 5 24 4.55228 24 4V3.1C24 2.49248 23.5075 2 22.9 2H14.1C13.4925 2 13 2.49249 13 3.1V4C13 4.55228 13.4477 5 14 5Z" fill="black"/>
</svg>
