<svg width="24" height="24" viewBox="0 0 24 24" fill="none" xmlns="http://www.w3.org/2000/svg">
<path fill-rule="evenodd" clip-rule="evenodd" d="M7 10C7.55228 10 8 10.4477 8 11V14H10C10.5523 14 11 14.4477 11 15C11 15.5523 10.5523 16 10 16H8V22H9C9.55228 22 10 22.4477 10 23C10 23.5523 9.55228 24 9 24H8C6.89543 24 6 23.1046 6 22V16H4C3.44772 16 3 15.5523 3 15C3 14.4477 3.44772 14 4 14H6V11C6 10.4477 6.44772 10 7 10ZM17 10C17.5523 10 18 10.4477 18 11V14H20C20.5523 14 21 14.4477 21 15C21 15.5523 20.5523 16 20 16H18V22H19C19.5523 22 20 22.4477 20 23C20 23.5523 19.5523 24 19 24H18C16.8954 24 16 23.1046 16 22V16H14C13.4477 16 13 15.5523 13 15C13 14.4477 13.4477 14 14 14H16V11C16 10.4477 16.4477 10 17 10Z" fill="black"/>
</svg>
