<svg width="24" height="24" viewBox="0 0 24 24" fill="none" xmlns="http://www.w3.org/2000/svg">
<path fill-rule="evenodd" clip-rule="evenodd" d="M8 1C8 0.447715 8.44772 0 9 0H10C10.7684 0 11.4692 0.288854 12 0.763894C12.5308 0.288854 13.2316 0 14 0H15C15.5523 0 16 0.447715 16 1C16 1.55228 15.5523 2 15 2H14C13.4477 2 13 2.44772 13 3L13 21C13 21.5523 13.4477 22 14 22H15C15.5523 22 16 22.4477 16 23C16 23.5523 15.5523 24 15 24H14C13.2316 24 12.5308 23.7111 12 23.2361C11.4692 23.7111 10.7684 24 10 24H9C8.44772 24 8 23.5523 8 23C8 22.4477 8.44772 22 9 22H10C10.5523 22 11 21.5523 11 21L11 3C11 2.44772 10.5523 2 10 2H9C8.44772 2 8 1.55228 8 1Z" fill="black"/>
</svg>
