<svg width="24" height="24" viewBox="0 0 24 24" fill="none" xmlns="http://www.w3.org/2000/svg">
<path d="M15.0001 13L15.8408 12.5796C16.5513 12.2244 17.0001 11.4982 17.0001 10.7039V9.91553C17.0001 8.63241 15.6003 7.83985 14.5 8.5M19.1927 13.3832C20.3192 12.071 21 10.365 21 8.5C21 4.35786 17.6421 1 13.5 1C9.35783 1 5.99997 4.35786 5.99997 8.5C5.99997 8.64909 6.00432 8.79716 6.0129 8.94409C6.01393 8.96168 6.01037 8.97924 6.00249 8.995L4.51565 11.9687C4.24351 12.513 4.51654 13.1722 5.09385 13.3646L7.31245 14.1041C7.35329 14.1178 7.38083 14.156 7.38083 14.199V15.4524C7.38083 15.5057 7.42264 15.5497 7.47587 15.5523L13.6487 15.8585C15.2458 15.9378 16.5 17.2558 16.5 18.8549V22.9C16.5 22.9552 16.5448 23 16.6 23H19.891C19.9497 23 19.9957 22.9498 19.9906 22.8913L19.1686 13.4575C19.1663 13.4305 19.175 13.4037 19.1927 13.3832ZM11.7169 20.5883L11.9897 22.9117C11.9956 22.962 12.0383 23 12.089 23H13.8982C13.9541 23 13.9992 22.9541 13.9981 22.8982L13.9258 18.9815C13.9157 18.4365 13.471 18 12.9259 18H7.48412C7.42763 18 7.38235 18.0468 7.38418 18.1032L7.43053 19.5324C7.44803 20.0718 7.89034 20.5 8.43001 20.5H11.6176C11.6683 20.5 11.711 20.538 11.7169 20.5883Z" stroke="black" stroke-width="1.5" stroke-linecap="round"/>
</svg>
