<svg width="24" height="24" viewBox="0 0 24 24" fill="none" xmlns="http://www.w3.org/2000/svg">
<path d="M18.2186 15H11.1998C10.5094 15 9.94978 15.5596 9.94978 16.25C9.94978 16.9404 10.5094 17.5 11.1998 17.5H12.4999C13.0522 17.5 13.4999 17.9477 13.4999 18.5C13.4999 19.0523 13.0522 19.5 12.4999 19.5H9.24988C8.55952 19.5 7.99988 20.0596 7.99988 20.75C7.99988 21.4404 8.55952 22 9.24988 22H17.4999M3 20.2637V17.7393C2 17.5001 2 16.0578 2 16.0578C2 15.7043 2.0974 15.3728 2.26757 15.0872C2.0974 14.8017 2 14.4702 2 14.1166C2 13.7631 2.0974 13.4316 2.26757 13.1461C2.0974 12.8605 2 12.529 2 12.1755C2 11.6783 2.19258 11.2248 2.50929 10.8813C2.19258 10.5379 2 10.0844 2 9.58717C2 8.51509 2.89543 7.646 4 7.646C4.59552 7.646 5.13025 7.89862 5.49664 8.29948C5.49664 8.29948 7.01877 7.99603 8.01877 9.18933C8.30861 9.03068 8.6433 8.94016 8.99978 8.94016C9.36411 8.94016 9.70569 9.03472 9.9999 9.19993C10.2793 9.04303 10.6014 8.94985 10.9452 8.94088M5 20.2637V17.7393C6 17.7393 6 16.0578 6 16.0578C6 15.7043 5.9026 15.3728 5.73243 15.0872C5.9026 14.8017 6 14.4702 6 14.1166C6 13.7631 5.9026 13.4316 5.73243 13.1461C5.9026 12.8605 6 12.529 6 12.1755C6 12.1387 5.99895 12.1022 5.99687 12.066C6.66797 12.4258 7.31396 11.9263 7.31396 11.9263C7.66933 12.4652 8.29157 12.8225 8.99978 12.8225C9.36411 12.8225 9.70569 12.728 9.9999 12.5628C10.2941 12.728 10.6357 12.8225 11 12.8225C11.3642 12.8225 11.7057 12.728 11.9999 12.5629C12.294 12.728 12.6355 12.8225 12.9997 12.8225C13.3641 12.8225 13.7056 12.728 13.9998 12.5628C15.6914 13.336 16.7716 12.9118 17.6858 11.9263C17.7864 11.9814 17.8925 12.0283 18.0031 12.066C18.001 12.1022 17.9999 12.1387 17.9999 12.1754C17.9999 12.529 18.0973 12.8605 18.2675 13.146C18.0973 13.4315 17.9999 13.763 17.9999 14.1166C17.9999 14.4702 18.0973 14.8017 18.2675 15.0872C18.1958 15.2075 18.1371 15.3359 18.0931 15.4707C16.8957 15.7252 15.9995 16.7605 15.9995 17.999C15.9995 19.0225 16.6116 20.2389 17.4998 20.8473L17.5 23M19.5 23L19.4998 21.0395C20.5643 20.5351 21.3328 19.1459 21.3328 17.999C21.3328 17.8425 21.3185 17.6892 21.2911 17.5404C21.7247 17.1843 21.9999 16.6523 21.9999 16.0579C21.9999 15.7043 21.9025 15.3728 21.7323 15.0872C21.9025 14.8017 21.9999 14.4702 21.9999 14.1166C21.9999 13.763 21.9025 13.4315 21.7324 13.146C21.9025 12.8605 21.9999 12.529 21.9999 12.1754C21.9999 11.6783 21.8074 11.2247 21.4907 10.8813C21.8074 10.5379 21.9999 10.0843 21.9999 9.58717C21.9999 8.51509 21.1045 7.646 19.9999 7.646C19.4044 7.646 18.8697 7.89862 18.5033 8.29949C17.8635 8.34973 17.3087 8.69226 16.981 9.18935C16.1578 8.73881 14.7856 8.75834 13.9998 9.19993C13.9663 9.18111 13.9322 9.16321 13.8975 9.14626M7.5293 8.73919C7.5293 7.69374 8.19016 6.78624 9.10319 6.41686C9.29972 5.87947 9.80575 5.31475 10.9446 5.26273C11.6204 5.23186 11.81 4.75285 11.8872 4.14596C10.1177 4.14596 8.64152 2.75067 8.5621 1.00024M10.4994 8.20596C10.5826 8.42903 10.6949 8.63011 10.8317 8.80699L10.9452 8.94088M11 1C11 1.55229 11.4475 2 12 2H12.2948L12.3465 1.93716C13.2125 0.868733 15.1276 0.755826 16.1547 2.00885C17.2951 3.40007 16.6617 6.04078 16.1547 7.06102C15.8422 7.68981 15.2336 8.50773 14.1176 9.04281L13.8975 9.14626M10.9452 8.94088C10.9634 8.9404 10.9817 8.94016 11 8.94016C11.3642 8.94016 11.7057 9.03466 11.9999 9.19978C12.294 9.03466 12.6355 8.94016 12.9997 8.94016C13.3226 8.94016 13.6275 9.01441 13.8975 9.14626" stroke="black" stroke-width="1.5" stroke-linecap="round" stroke-linejoin="round"/>
</svg>
