<svg width="24" height="24" viewBox="0 0 24 24" fill="none" xmlns="http://www.w3.org/2000/svg">
<g clip-path="url(#clip0_1607_8863)">
<path d="M3 6V5.25H2.25V6H3ZM17 6H17.75V5.25H17V6ZM4.75 4C4.75 3.58579 4.41421 3.25 4 3.25C3.58579 3.25 3.25 3.58579 3.25 4L4.75 4ZM3.25 6C3.25 6.41421 3.58579 6.75 4 6.75C4.41421 6.75 4.75 6.41421 4.75 6L3.25 6ZM8.75 4C8.75 3.58579 8.41421 3.25 8 3.25C7.58579 3.25 7.25 3.58579 7.25 4L8.75 4ZM7.25 6C7.25 6.41421 7.58579 6.75 8 6.75C8.41421 6.75 8.75 6.41421 8.75 6L7.25 6ZM16.75 4C16.75 3.58579 16.4142 3.25 16 3.25C15.5858 3.25 15.25 3.58579 15.25 4L16.75 4ZM15.25 6C15.25 6.41421 15.5858 6.75 16 6.75C16.4142 6.75 16.75 6.41421 16.75 6L15.25 6ZM12.75 4C12.75 3.58579 12.4142 3.25 12 3.25C11.5858 3.25 11.25 3.58579 11.25 4L12.75 4ZM11.25 6C11.25 6.41421 11.5858 6.75 12 6.75C12.4142 6.75 12.75 6.41421 12.75 6L11.25 6ZM3 9.25C2.58579 9.25 2.25 9.58579 2.25 10C2.25 10.4142 2.58579 10.75 3 10.75V9.25ZM3 18.25C2.58579 18.25 2.25 18.5858 2.25 19C2.25 19.4142 2.58579 19.75 3 19.75V18.25ZM17.1528 19.4316C16.7411 19.4773 16.4444 19.8481 16.4902 20.2598C16.5359 20.6715 16.9067 20.9682 17.3184 20.9224L17.1528 19.4316ZM19.8829 19.8829L19.9657 20.6283L20.562 20.562L20.6283 19.9657L19.8829 19.8829ZM20.9224 17.3184C20.9682 16.9067 20.6715 16.5359 20.2599 16.4901C19.8482 16.4444 19.4774 16.7411 19.4316 17.1527L20.9224 17.3184ZM14.2114 16.4902C13.7997 16.5359 13.503 16.9067 13.5488 17.3184C13.5945 17.7301 13.9653 18.0268 14.377 17.981L14.2114 16.4902ZM16.9415 16.9415L17.0243 17.6869L17.6206 17.6206L17.6869 17.0243L16.9415 16.9415ZM17.981 14.377C18.0268 13.9653 17.7301 13.5945 17.3185 13.5487C16.9068 13.503 16.536 13.7997 16.4902 14.2113L17.981 14.377ZM14.5303 13.4697C14.2374 13.1768 13.7626 13.1768 13.4697 13.4697C13.1768 13.7626 13.1768 14.2374 13.4697 14.5303L14.5303 13.4697ZM20.5291 21.5898C20.822 21.8827 21.2969 21.8827 21.5898 21.5898C21.8827 21.2969 21.8827 20.822 21.5898 20.5291L20.5291 21.5898ZM16 22.25H4V23.75H16V22.25ZM3.75 22V6H2.25V22H3.75ZM3 6.75H17V5.25H3V6.75ZM16.25 6V12.15H17.75V6H16.25ZM4 22.25C3.86193 22.25 3.75 22.1381 3.75 22H2.25C2.25 22.9665 3.0335 23.75 4 23.75V22.25ZM2 6.75H18V5.25H2V6.75ZM19.75 5V2H18.25V5H19.75ZM18 0.25H2V1.75H18V0.25ZM0.25 2V5H1.75V2H0.25ZM2 0.25C1.0335 0.25 0.25 1.0335 0.25 2H1.75C1.75 1.86193 1.86193 1.75 2 1.75V0.25ZM19.75 2C19.75 1.0335 18.9665 0.25 18 0.25V1.75C18.1381 1.75 18.25 1.86193 18.25 2H19.75ZM18 6.75C18.9665 6.75 19.75 5.9665 19.75 5H18.25C18.25 5.13807 18.1381 5.25 18 5.25V6.75ZM2 5.25C1.86193 5.25 1.75 5.13807 1.75 5H0.25C0.25 5.9665 1.0335 6.75 2 6.75V5.25ZM3.25 4L3.25 6L4.75 6L4.75 4L3.25 4ZM7.25 4L7.25 6L8.75 6L8.75 4L7.25 4ZM15.25 4L15.25 6L16.75 6L16.75 4L15.25 4ZM11.25 4L11.25 6L12.75 6L12.75 4L11.25 4ZM3 10.75H7V9.25H3V10.75ZM7.25 11V18H8.75V11H7.25ZM7 18.25H3V19.75H7V18.25ZM7.25 18C7.25 18.1381 7.13807 18.25 7 18.25V19.75C7.9665 19.75 8.75 18.9665 8.75 18H7.25ZM7 10.75C7.13807 10.75 7.25 10.8619 7.25 11H8.75C8.75 10.0335 7.9665 9.25 7 9.25V10.75ZM13 12.75H15.5V11.25H13V12.75ZM22.25 19.5V22H23.75V19.5H22.25ZM22 22.25H19.5V23.75H22V22.25ZM12.75 15.5V13H11.25V15.5H12.75ZM22.25 22C22.25 22.1381 22.1381 22.25 22 22.25V23.75C22.9665 23.75 23.75 22.9665 23.75 22H22.25ZM15.5 12.75C19.2279 12.75 22.25 15.7721 22.25 19.5H23.75C23.75 14.9437 20.0563 11.25 15.5 11.25V12.75ZM13 11.25C12.0335 11.25 11.25 12.0335 11.25 13H12.75C12.75 12.8619 12.8619 12.75 13 12.75V11.25ZM17.3184 20.9224L19.9657 20.6283L19.8001 19.1374L17.1528 19.4316L17.3184 20.9224ZM20.6283 19.9657L20.9224 17.3184L19.4316 17.1527L19.1375 19.8L20.6283 19.9657ZM14.377 17.981L17.0243 17.6869L16.8587 16.196L14.2114 16.4902L14.377 17.981ZM17.6869 17.0243L17.981 14.377L16.4902 14.2113L16.1961 16.8586L17.6869 17.0243ZM13.4697 14.5303L20.5291 21.5898L21.5898 20.5291L14.5303 13.4697L13.4697 14.5303ZM19.5 22.25C18.6605 22.25 17.8584 22.0971 17.1189 21.8183L16.5897 23.2218C17.4957 23.5634 18.4769 23.75 19.5 23.75V22.25ZM17.1189 21.8183C14.5648 20.8552 12.75 18.3886 12.75 15.5H11.25C11.25 19.0331 13.4706 22.0457 16.5897 23.2218L17.1189 21.8183ZM16 23.75C16.634 23.75 17.1885 23.4123 17.4946 22.9106L16.214 22.1295C16.169 22.2034 16.0896 22.25 16 22.25V23.75Z" fill="black"/>
</g>
<defs>
<clipPath id="clip0_1607_8863">
<rect width="24" height="24" fill="white"/>
</clipPath>
</defs>
</svg>
