<svg width="24" height="24" viewBox="0 0 24 24" fill="none" xmlns="http://www.w3.org/2000/svg">
<path d="M8.00003 23L8.00003 20.5904C8.00003 19.7198 8.37768 18.8995 9.02255 18.3344M3 23L3 18.7382C3 16.4846 4.26282 14.421 6.26954 13.3955L8.8068 12.0987M9.02255 18.3344C9.12562 18.244 9.23552 18.1602 9.3518 18.0838L11.1558 16.9142L11.3752 18.2947C11.458 18.7624 11.6079 19.2157 11.8203 19.6405L11.9693 19.9384C11.9887 19.9772 12.0249 20.0049 12.0674 20.0134L12.1192 20.0237C13.574 20.3148 15.0666 19.7445 15.9567 18.5575C15.9838 18.5214 15.9914 18.4743 15.9772 18.4315L15.8537 18.061C15.6204 17.3613 15.2436 16.718 14.7474 16.1723L14.2523 15.6278L14.7577 16.1332C15.1622 16.5378 15.6741 16.8182 16.2329 16.9412L16.4078 16.9797C16.4653 16.9923 16.5252 16.9748 16.5668 16.9332L17.0953 16.4047C17.9668 15.5332 18.3171 14.2684 18.0182 13.0728C18.007 13.0279 17.9719 12.9928 17.927 12.9816L16.7161 12.679C16.2405 12.5601 15.7521 12.5 15.2618 12.4999L14.4999 12.4999L14.6681 12.5C15.5366 12.5 16.3856 12.2429 17.1082 11.7612L17.4098 11.5602C17.4662 11.5226 17.5 11.4593 17.5 11.3915C17.5 10.1637 17.1018 8.96902 16.3651 7.98677L16.1076 7.64338C16.0433 7.55775 15.9315 7.52283 15.83 7.55667L15.1353 7.78826C14.7137 7.92879 14.3127 8.12491 13.9429 8.37142L13 9C13.8023 8.56023 14.3995 7.8226 14.6626 6.94635L14.7748 6.57287C14.7839 6.5426 14.7802 6.50992 14.7646 6.48243C14.1263 5.35791 12.8807 4.72029 11.5953 4.86001L10.9537 4.92975C10.9052 4.93501 10.8623 4.96338 10.8384 5.00589L10.6312 5.37507C10.2259 6.0975 10.1123 6.94767 10.3138 7.75118C10.2133 7.0081 9.96811 6.29221 9.59365 5.64256L9.23047 5.01247C9.20411 4.96673 9.15534 4.93855 9.10255 4.93855L8.63214 4.93855C7.28535 4.93855 6.06475 5.73129 5.51705 6.96168C5.50599 6.98653 5.50357 7.01436 5.51016 7.04074L5.6058 7.42327C5.85819 8.43285 6.50131 9.30081 7.39366 9.8362C8.10759 10.2645 8.64475 10.9342 8.90803 11.724L8.93141 11.7941C8.97086 11.9125 8.91791 12.042 8.8068 12.0987V12.0987M9.02255 18.3344L9.05374 18.5358C9.15614 19.1547 9.3639 19.7691 9.6837 20.3483C11.0482 22.8197 13.9384 23.7217 16.1563 22.3766L16.1577 22.3789C16.1577 22.3789 24.9839 18.6294 18.8041 7.43879C13.2448 -2.62832 6.11075 1.98315 5.28803 2.50419L5.24582 2.53C3.02341 3.90615 2.33375 7.03577 3.70543 9.52022C4.39375 10.7669 5.47036 11.6143 6.65305 11.9753C6.65305 11.9753 7.0047 12.0419 7.48365 12.0987H8.8068" stroke="black" stroke-width="1.5" stroke-linecap="round" stroke-linejoin="round"/>
</svg>
