<svg width="24" height="24" viewBox="0 0 24 24" fill="none" xmlns="http://www.w3.org/2000/svg">
<g clip-path="url(#clip0_1607_8859)">
<path d="M23 12C23 18.0751 18.0751 23 12 23C5.92487 23 1 18.0751 1 12C1 5.92487 5.92487 1 12 1C18.0751 1 23 5.92487 23 12Z" stroke="black" stroke-width="1.5" stroke-linecap="round" stroke-linejoin="round"/>
<path d="M12.0001 4C10.5426 4 9.17623 4.38972 7.99939 5.07064L10.4998 9.40149C10.9411 9.14615 11.4535 9 12.0001 9C12.5467 9 13.0591 9.14618 13.5005 9.40159L16.0009 5.07074C14.824 4.38976 13.4575 4 12.0001 4Z" stroke="black" stroke-width="1.5" stroke-linecap="round" stroke-linejoin="round"/>
<path d="M5.57902 16.7722C4.70962 15.6025 4.20732 14.2733 4.05179 12.9226L9.01927 12.3459C9.07759 12.8525 9.26595 13.3509 9.59198 13.7895C9.91804 14.2282 10.3411 14.5523 10.8093 14.7542L8.825 19.3445C7.57641 18.8062 6.44846 17.942 5.57902 16.7722Z" stroke="black" stroke-width="1.5" stroke-linecap="round" stroke-linejoin="round"/>
<path d="M18.4206 16.7722C19.29 15.6025 19.7923 14.2733 19.9478 12.9226L14.9804 12.3459C14.922 12.8525 14.7337 13.3509 14.4077 13.7895C14.0816 14.2282 13.6586 14.5523 13.1903 14.7542L15.1746 19.3445C16.4232 18.8062 17.5512 17.942 18.4206 16.7722Z" stroke="black" stroke-width="1.5" stroke-linecap="round" stroke-linejoin="round"/>
</g>
<defs>
<clipPath id="clip0_1607_8859">
<rect width="24" height="24" fill="white"/>
</clipPath>
</defs>
</svg>
