<svg width="24" height="24" viewBox="0 0 24 24" fill="none" xmlns="http://www.w3.org/2000/svg">
<g clip-path="url(#clip0_1607_8876)">
<path d="M5 8.12405C5.7045 6.85444 6.74439 5.79665 8 5.07031M23 12C23 18.0751 18.0751 23 12 23C5.92487 23 1 18.0751 1 12C1 5.92487 5.92487 1 12 1C18.0751 1 23 5.92487 23 12ZM13.9395 13.8829C13.0494 14.3238 12.4374 15.2414 12.4374 16.3021C12.4374 17.7921 13.6453 19 15.1353 19C16.6254 19 17.8333 17.7921 17.8333 16.3021C17.8333 15.6696 17.6156 15.0879 17.2512 14.6279C18.6054 13.2819 19.375 11.4459 19.375 9.522V9.25788C19.375 7.3798 17.5774 6.02388 15.7716 6.53983L14.1186 7.01212L13.155 7.2703L12.7381 5.71435C12.6004 5.20033 12.072 4.89528 11.558 5.03302C11.044 5.17075 10.739 5.6991 10.8767 6.21312L11.5683 8.79423L11.5727 8.81119L11.5793 8.8347C11.5895 8.87042 11.6016 8.9051 11.6154 8.93867C11.8017 9.39763 12.2833 9.67698 12.784 9.59745L14.2362 9.36679C14.304 10.0063 14.3228 10.6498 14.2922 11.2918L12.2632 10.2574C12.2409 10.246 12.2183 10.2355 12.1955 10.2258C12.1166 10.1766 12.0292 10.1381 11.9348 10.1128C11.4208 9.97509 10.8924 10.2801 10.7547 10.7942L10.0331 13.4871C9.89542 14.0011 10.2005 14.5294 10.7145 14.6672C11.2285 14.8049 11.7569 14.4999 11.8946 13.9858L12.2173 12.7813L13.9395 13.8829Z" stroke="black" stroke-width="1.5" stroke-linecap="round" stroke-linejoin="round"/>
</g>
<defs>
<clipPath id="clip0_1607_8876">
<rect width="24" height="24" fill="white"/>
</clipPath>
</defs>
</svg>
