<svg width="24" height="24" viewBox="0 0 24 24" fill="none" xmlns="http://www.w3.org/2000/svg">
<g clip-path="url(#clip0_1607_8880)">
<path d="M7.25 7.25006V7.28972M9.75 16V16.0397M7.35298 13.3438C6.58612 12.7706 6.05856 11.9788 5.99981 11M11.273 8.77865C11.3859 7.82797 11.8079 6.97516 12.6262 6.4349M18.5265 20.0832L20.5295 22.6912C20.7111 22.9282 21.0403 22.9946 21.2999 22.8466L22.3441 22.2511C22.6575 22.0724 22.7415 21.6592 22.5227 21.3728L20.0348 18.1149M18.5265 20.0832L16.4705 22.7661C16.2889 23.0031 15.9597 23.0695 15.7001 22.9215L14.6559 22.326C14.3425 22.1473 14.2585 21.7341 14.4773 21.4477L16.7653 18.4531M18.5265 20.0832L20.0348 18.1149M16.7653 18.4531L17.0237 18.1149M16.7653 18.4531C16.391 18.3578 15.9474 18.2086 15.6361 17.9707C14.888 19.7894 13.0885 21 11 21C9.05723 21 7.37325 19.892 6.54553 18.2734C5.28432 18.7832 3.78738 18.3924 2.93405 17.3264C2.19541 16.4037 2.04418 15.1035 2.55002 14.0372C1.61079 13.3557 1 12.2492 1 11C1 9.58773 1.78069 8.35781 2.93405 7.71824C1.96511 6.69455 2.05329 5.01661 3.12603 4.09922C4.04907 3.30985 5.45093 3.30985 6.37397 4.09922C7.12206 2.28049 8.91149 1 11 1C12.9428 1 14.6268 2.10803 15.4545 3.72661C16.6402 3.24729 18.0438 3.55967 18.9163 4.5C19.7759 5.42642 19.9905 6.8234 19.45 7.9628C20.2945 8.57556 20.8734 9.53193 20.9816 10.6267M17.0237 18.1149L14.5303 14.8626C14.0367 14.2185 13.8929 13.4108 14.0772 12.6745M17.0237 18.1149L18.5234 16.152M16.616 13.6419L18.5234 16.152M16.616 13.6419L14.8747 11.3673M16.616 13.6419C17.584 12.3778 19.4536 12.4641 20.3675 13.7384M18.5234 16.152L20.3675 13.7384M14.0772 12.6745L13.5 12.25M14.0772 12.6745C14.2024 12.1745 14.4915 11.71 14.8747 11.3673M22.123 11.4406L20.3675 13.7384M22.123 11.4406C23.1105 12.3431 23.2957 13.8596 22.4697 14.9375L20.0348 18.1149M22.123 11.4406C21.7763 11.1237 21.3969 10.8476 20.9816 10.6267M14.8747 11.3673C16.5349 9.88274 19.0189 9.58253 20.9816 10.6267" stroke="black" stroke-width="1.5" stroke-linecap="round" stroke-linejoin="round"/>
</g>
<defs>
<clipPath id="clip0_1607_8880">
<rect width="24" height="24" fill="white"/>
</clipPath>
</defs>
</svg>
