<svg width="24" height="24" viewBox="0 0 24 24" fill="none" xmlns="http://www.w3.org/2000/svg">
<g clip-path="url(#clip0_1607_8884)">
<path d="M23 10H16.6586C15.8349 7.66962 13.6124 6 11 6C8.80874 6 6.89183 7.17466 5.84463 8.92864M23 14H16.6586C15.8349 16.3304 13.6124 18 11 18C8.80897 18 6.89224 16.8256 5.84497 15.0719M23 7H18.4764C16.8534 4.58803 14.0893 3 10.9524 3C8.11144 3 5.57631 4.30252 3.91758 6.33997M23 17H18.4764C16.8534 19.412 14.0893 21 10.9524 21C8.12984 21 5.60916 19.7143 3.94992 17.6995M5 1L3.91758 6.33997M5 23L3.94992 17.6995M3.91758 6.33997C3.40917 6.96447 2.98309 7.65801 2.65578 8.40426L2.21573 8.88264C1.43392 9.73255 1 10.8452 1 12C1 13.1548 1.43392 14.2675 2.21573 15.1174L2.65578 15.5957C2.99001 16.3578 3.42722 17.0648 3.94992 17.6995M5.84463 8.92864C5.30822 9.82709 5 10.8776 5 12C5 13.1227 5.30834 14.1733 5.84497 15.0719M5.84463 8.92864L6 9C8.63758 10.1304 8.63758 13.8696 6 15L5.84497 15.0719" stroke="black" stroke-width="1.5" stroke-linecap="round" stroke-linejoin="round"/>
</g>
<defs>
<clipPath id="clip0_1607_8884">
<rect width="24" height="24" fill="white"/>
</clipPath>
</defs>
</svg>
