<svg width="24" height="24" viewBox="0 0 24 24" fill="none" xmlns="http://www.w3.org/2000/svg">
<g clip-path="url(#clip0_1607_8896)">
<path d="M4 0.25C3.58579 0.25 3.25 0.585786 3.25 1C3.25 1.41421 3.58579 1.75 4 1.75V0.25ZM10 1.75C10.4142 1.75 10.75 1.41421 10.75 1C10.75 0.585786 10.4142 0.25 10 0.25V1.75ZM14 0.25C13.5858 0.25 13.25 0.585786 13.25 1C13.25 1.41421 13.5858 1.75 14 1.75V0.25ZM20 1.75C20.4142 1.75 20.75 1.41421 20.75 1C20.75 0.585786 20.4142 0.25 20 0.25V1.75ZM5 1L5.00001 0.25L4.25 0.249992V1H5ZM9 1.00004H9.75V0.250052L9.00001 0.250044L9 1.00004ZM6.99998 20L6.99997 20.75L6.99998 20ZM15 1L15 0.25L14.25 0.249992V1H15ZM19 1.00004H19.75V0.250052L19 0.250044L19 1.00004ZM17 20L17 20.75L17 20ZM1 7.25C0.585786 7.25 0.25 7.58579 0.25 8C0.25 8.41421 0.585786 8.75 1 8.75V7.25ZM23 8.75C23.4142 8.75 23.75 8.41421 23.75 8C23.75 7.58579 23.4142 7.25 23 7.25V8.75ZM23 13.75C23.4142 13.75 23.75 13.4142 23.75 13C23.75 12.5858 23.4142 12.25 23 12.25V13.75ZM1 12.25C0.585786 12.25 0.25 12.5858 0.25 13C0.25 13.4142 0.585786 13.75 1 13.75V12.25ZM1.75 5C1.75 4.58579 1.41421 4.25 1 4.25C0.585786 4.25 0.25 4.58579 0.25 5H1.75ZM23.75 5C23.75 4.58579 23.4142 4.25 23 4.25C22.5858 4.25 22.25 4.58579 22.25 5H23.75ZM4 1.75H10V0.25H4V1.75ZM14 1.75H20V0.25H14V1.75ZM4.99999 1.75L8.99999 1.75004L9.00001 0.250044L5.00001 0.25L4.99999 1.75ZM5.75 7.99998V1H4.25V7.99998H5.75ZM8.25 1.00004V8.00002H9.75V1.00004H8.25ZM5.75 18V12.5H4.25V18H5.75ZM8.25 12.5V18H9.75V12.5H8.25ZM6.99999 19.25C6.30964 19.25 5.75 18.6903 5.75 18H4.25C4.25 19.5188 5.4812 20.75 6.99997 20.75L6.99999 19.25ZM6.99997 20.75C8.51877 20.75 9.75 19.5188 9.75 18H8.25C8.25 18.6903 7.69035 19.25 6.99999 19.25L6.99997 20.75ZM15 1.75L19 1.75004L19 0.250044L15 0.25L15 1.75ZM15.75 7.99998V1H14.25V7.99998H15.75ZM18.25 1.00004V8.00002H19.75V1.00004H18.25ZM15.75 18V12.5H14.25V18H15.75ZM18.25 12.5V18H19.75V12.5H18.25ZM17 19.25C16.3096 19.25 15.75 18.6903 15.75 18H14.25C14.25 19.5188 15.4812 20.75 17 20.75L17 19.25ZM17 20.75C18.5188 20.75 19.75 19.5188 19.75 18H18.25C18.25 18.6903 17.6903 19.25 17 19.25L17 20.75ZM1 8.75H23V7.25H1V8.75ZM23 12.25H1V13.75H23V12.25ZM0.25 5V22.5H1.75V5H0.25ZM1.5 23.75H22.5V22.25H1.5V23.75ZM23.75 22.5V5H22.25V22.5H23.75ZM22.5 23.75C23.1904 23.75 23.75 23.1904 23.75 22.5H22.25C22.25 22.3619 22.3619 22.25 22.5 22.25V23.75ZM0.25 22.5C0.25 23.1904 0.809644 23.75 1.5 23.75V22.25C1.63807 22.25 1.75 22.3619 1.75 22.5H0.25Z" fill="black"/>
</g>
<defs>
<clipPath id="clip0_1607_8896">
<rect width="24" height="24" fill="white"/>
</clipPath>
</defs>
</svg>
