<svg width="24" height="24" viewBox="0 0 24 24" fill="none" xmlns="http://www.w3.org/2000/svg">
<path d="M13 2.69527C13.0001 1.00101 14.8232 1.00101 14.8232 1.00101C14.8232 1.00101 16.9503 0.891345 16.9997 2.96023C17.026 4.06194 15.4371 5.51548 14.5 7M8 23H16M10 23L10 15.85M14 23V15.85M17 16.9728C17 18.6447 14.7614 20 12 20C9.23858 20 7 18.6447 7 16.9728C7 16.4991 7.17967 16.0509 7.5 15.6517L7.92149 15.0929M7.92149 15.0929C8.98503 15.6713 10.2041 16 11.5 16H12.5C16.6421 16 20 12.6421 20 8.5V8C20 7.44772 19.5523 7 19 7H5C4.44772 7 4 7.44772 4 8V8.5C4 11.3463 5.5855 13.8222 7.92149 15.0929Z" stroke="black" stroke-width="1.5" stroke-linecap="round"/>
</svg>
