<svg width="24" height="24" viewBox="0 0 24 24" fill="none" xmlns="http://www.w3.org/2000/svg">
<path d="M15.6906 8.96499L19.8833 3.25291C20.22 2.79426 20.8474 2.66294 21.3401 2.94801C21.8337 3.2336 22.0336 3.84541 21.804 4.36732L19.7812 8.96499M17.0789 22.0005H7.00319C6.45063 22.0005 5.99229 21.5484 6.10091 21.0069C6.2529 20.2492 6.5753 19.5534 7.02634 18.9612C7.06505 18.9103 7.04858 18.8363 6.99163 18.8074C3.6926 17.1297 1.35044 13.835 1.00368 9.96406C0.9544 9.41398 1.40708 8.96498 1.95964 8.96498H22.0404C22.5929 8.96498 23.0456 9.41398 22.9963 9.96406C22.6516 13.8121 20.335 17.0908 17.0668 18.7775C17.0099 18.8068 16.994 18.881 17.0331 18.9316C17.496 19.5301 17.8267 20.2366 17.9812 21.0069C18.0898 21.5484 17.6315 22.0005 17.0789 22.0005Z" stroke="black" stroke-width="1.5" stroke-linecap="round"/>
</svg>
