<svg width="24" height="24" viewBox="0 0 24 24" fill="none" xmlns="http://www.w3.org/2000/svg">
<path d="M8.13838 12.9128C7.09438 11.5464 7.26661 9.61066 8.53551 8.44941L8.61499 8.37667C10.7907 6.38551 14.0356 6.10363 16.5231 7.68969C18.2631 8.79915 19.3162 10.718 19.3162 12.7793V13.375C19.3162 15.8624 18.6381 18.3028 17.3547 20.4347L16.8303 21.3059C16.1975 22.357 15.059 23 13.8307 23C11.5388 23 9.86547 20.8372 10.4445 18.6233L10.5125 18.3633C10.8007 17.2615 10.5649 16.0886 9.8731 15.1832L8.13838 12.9128Z" stroke="black" stroke-width="1.5"/>
<path d="M2.50444 8.5166C1.83185 7.84512 1.83185 6.75644 2.50444 6.08496C3.17702 5.41348 4.26749 5.41348 4.94007 6.08496L5.58465 6.72849C6.25723 7.39997 6.25723 8.48865 5.58465 9.16013C4.91207 9.83161 3.8216 9.83161 3.14902 9.16013L2.50444 8.5166Z" stroke="black" stroke-width="1.5"/>
<path d="M11.2033 2.35C11.2033 1.60442 11.8087 1 12.5555 1C13.3023 1 13.9078 1.60442 13.9078 2.35V3.15C13.9078 3.89558 13.3023 4.5 12.5555 4.5C11.8087 4.5 11.2033 3.89558 11.2033 3.15V2.35Z" stroke="black" stroke-width="1.5"/>
<path d="M6.74694 4.45938C6.37357 3.81374 6.59514 2.98816 7.24184 2.6154C7.88854 2.24264 8.71547 2.46385 9.08884 3.10949L9.48961 3.80252C9.86299 4.44816 9.64141 5.27373 8.99471 5.64649C8.34801 6.01925 7.52108 5.79804 7.14771 5.1524L6.74694 4.45938Z" stroke="black" stroke-width="1.5"/>
<path d="M16.2834 3.10955C16.6568 2.46386 17.4838 2.24263 18.1305 2.61542C18.7773 2.98821 18.9989 3.81386 18.6255 4.45955L18.2248 5.15237C17.8514 5.79807 17.0244 6.0193 16.3777 5.64651C15.7309 5.27371 15.5093 4.44807 15.8827 3.80237L16.2834 3.10955Z" stroke="black" stroke-width="1.5"/>
<path d="M20.2183 5.78181C20.5651 5.35205 21.1956 5.28494 21.6264 5.63192C22.0573 5.9789 22.1254 6.60857 21.7786 7.03833L21.1506 7.81648C20.8038 8.24624 20.1733 8.31335 19.7424 7.96637C19.3116 7.61939 19.2434 6.98972 19.5903 6.55996L20.2183 5.78181Z" stroke="black" stroke-width="1.5"/>
</svg>
