<svg width="24" height="24" viewBox="0 0 24 24" fill="none" xmlns="http://www.w3.org/2000/svg">
<path d="M1 7.99996L2.27337 7.15104C3.24207 6.50524 4.54655 6.72869 5.24509 7.66008C6.12255 8.83002 7.87745 8.83002 8.75491 7.66008C9.45345 6.72869 10.7579 6.50524 11.7266 7.15104L11.8594 7.23953C12.2054 7.47025 12.5991 7.6013 13 7.63017M2 16L3.27337 16.8489C4.24207 17.4947 5.54655 17.2712 6.24509 16.3399C7.12255 15.1699 8.87745 15.1699 9.75491 16.3399C10.0736 16.7648 10.5185 17.0424 11 17.1573M15.5 10H20.5C21.8807 10 23 8.88071 23 7.5C23 6.11929 21.8807 5 20.5 5H15.5C14.1193 5 13 6.11929 13 7.5C13 8.88071 14.1193 10 15.5 10ZM13 19H17C18.1046 19 19 18.1046 19 17C19 15.8954 18.1046 15 17 15H13C11.8954 15 11 15.8954 11 17C11 18.1046 11.8954 19 13 19Z" stroke="black" stroke-width="1.5" stroke-linecap="round"/>
</svg>
