<svg width="24" height="24" viewBox="0 0 24 24" fill="none" xmlns="http://www.w3.org/2000/svg">
<g clip-path="url(#clip0_1607_8934)">
<path d="M16.5383 22.9999L7.46081 22.9999M16.5383 22.9999L22.9591 22.9999C22.9819 22.9999 23.0003 22.9813 23.0001 22.9585C22.9779 20.7021 21.1418 18.8797 18.8801 18.8797C17.6017 18.8797 16.4593 19.462 15.7035 20.3758M16.5383 22.9999V22.9543C16.5289 21.9941 16.2212 21.1052 15.7035 20.3758M7.46081 22.9999H1.041C1.01825 22.9999 0.999778 22.9813 1 22.9585C1.02221 20.7021 2.85829 18.8797 5.12 18.8797C6.39813 18.8797 7.54032 19.4617 8.29606 20.3751M7.46081 22.9999V22.9543C7.47026 21.9938 7.77809 21.1046 8.29606 20.3751M15.7035 20.3758C14.8811 19.2171 13.5286 18.461 11.9996 18.461C10.4708 18.461 9.11851 19.2168 8.29606 20.3751M12.3332 1C12.8855 1 13.3332 1.44772 13.3332 2V3.56667C13.3332 3.6219 13.378 3.66667 13.4332 3.66667L14.9999 3.66667C15.5522 3.66667 15.9999 4.11438 15.9999 4.66667V5.33333C15.9999 5.88562 15.5522 6.33333 14.9999 6.33333H13.4332C13.378 6.33333 13.3332 6.3781 13.3332 6.43333V8C13.3332 8.55228 12.8855 9 12.3332 9H11.6666C11.1143 9 10.6666 8.55228 10.6666 8V6.43333C10.6666 6.3781 10.6218 6.33333 10.5666 6.33333H8.99989C8.4476 6.33333 7.99989 5.88562 7.99989 5.33333V4.66667C7.99989 4.11438 8.4476 3.66667 8.99989 3.66667L10.5666 3.66667C10.6218 3.66667 10.6666 3.6219 10.6666 3.56667V2C10.6666 1.44772 11.1143 1 11.6666 1H12.3332ZM14.0402 14.2037C14.0402 15.3317 13.1257 16.2462 11.9976 16.2462C10.8696 16.2462 9.95509 15.3317 9.95509 14.2037C9.95509 13.0756 10.8696 12.1611 11.9976 12.1611C13.1257 12.1611 14.0402 13.0756 14.0402 14.2037ZM6.97234 15.0152C6.97234 16.0392 6.14223 16.8693 5.11825 16.8693C4.09426 16.8693 3.26416 16.0392 3.26416 15.0152C3.26416 13.9912 4.09426 13.1611 5.11825 13.1611C6.14223 13.1611 6.97234 13.9912 6.97234 15.0152ZM20.7325 15.0152C20.7325 16.0392 19.9024 16.8693 18.8784 16.8693C17.8544 16.8693 17.0243 16.0392 17.0243 15.0152C17.0243 13.9912 17.8544 13.1611 18.8784 13.1611C19.9024 13.1611 20.7325 13.9912 20.7325 15.0152Z" stroke="black" stroke-width="1.5"/>
</g>
<defs>
<clipPath id="clip0_1607_8934">
<rect width="24" height="24" fill="white"/>
</clipPath>
</defs>
</svg>
