<svg width="24" height="24" viewBox="0 0 24 24" fill="none" xmlns="http://www.w3.org/2000/svg">
<g clip-path="url(#clip0_1607_8963)">
<path d="M7 9.00007L7 8.25007H7V9.00007ZM11.5 9.00007L11.5 8.25007H11.5V9.00007ZM10.3249 9.00007L10.3249 9.75007H10.3249V9.00007ZM8.17486 9.00007L8.17486 9.75007L8.17486 9.75007L8.17486 9.00007ZM12.625 4.375C12.625 4.78921 12.9608 5.125 13.375 5.125C13.7892 5.125 14.125 4.78921 14.125 4.375H12.625ZM4.375 4.375C4.375 4.78921 4.71079 5.125 5.125 5.125C5.53921 5.125 5.875 4.78921 5.875 4.375H4.375ZM10.6801 16.75C11.0943 16.75 11.4301 16.4142 11.4301 16C11.4301 15.5858 11.0943 15.25 10.6801 15.25V16.75ZM16.75 10.2197C16.75 10.6339 17.0858 10.9697 17.5 10.9697C17.9142 10.9697 18.25 10.6339 18.25 10.2197H16.75ZM19.5372 14.5233C19.8301 14.2305 19.8301 13.7556 19.5372 13.4627C19.2443 13.1698 18.7694 13.1698 18.4765 13.4627L19.5372 14.5233ZM13.4625 18.4767C13.1696 18.7696 13.1696 19.2445 13.4625 19.5374C13.7554 19.8303 14.2303 19.8303 14.5232 19.5374L13.4625 18.4767ZM18.4765 16.1946C18.7694 16.4875 19.2443 16.4875 19.5372 16.1947C19.8301 15.9018 19.8301 15.4269 19.5372 15.134L18.4765 16.1946ZM17.8659 13.4626C17.573 13.1698 17.0981 13.1698 16.8052 13.4626C16.5123 13.7555 16.5123 14.2304 16.8052 14.5233L17.8659 13.4626ZM16.8053 17.866C17.0982 18.1589 17.5731 18.1589 17.866 17.866C18.1588 17.5731 18.1588 17.0982 17.866 16.8053L16.8053 17.866ZM16.1946 15.134C15.9017 14.8411 15.4268 14.8411 15.1339 15.134C14.8411 15.4269 14.8411 15.9018 15.134 16.1947L16.1946 15.134ZM15.134 19.5374C15.4269 19.8303 15.9018 19.8303 16.1947 19.5374C16.4876 19.2445 16.4876 18.7697 16.1947 18.4768L15.134 19.5374ZM14.5234 16.8054C14.2305 16.5125 13.7556 16.5125 13.4627 16.8054C13.1698 17.0983 13.1698 17.5732 13.4627 17.8661L14.5234 16.8054ZM9.49986 7.75H10.9999C10.9999 6.92157 10.3283 6.25 9.49986 6.25V7.75ZM8.99986 7.75H9.49986V6.25H8.99986V7.75ZM8.99986 7.75V6.25C8.17143 6.25 7.49986 6.92157 7.49986 7.75H8.99986ZM8.99986 8.92507V7.75H7.49986V8.92507H8.99986ZM7 9.75007L8.17486 9.75007L8.17486 8.25007L7 8.25007L7 9.75007ZM7 9.75007V9.75007V8.25007C6.17157 8.25007 5.5 8.92164 5.5 9.75007H7ZM7 10.2501V9.75007H5.5V10.2501H7ZM7 10.2501V10.2501H5.5C5.5 11.0785 6.17157 11.7501 7 11.7501V10.2501ZM8.17486 10.2501H7V11.7501H8.17486V10.2501ZM8.99986 12.25V11.0751H7.49986V12.25H8.99986ZM8.99986 12.25H7.49986C7.49986 13.0784 8.17143 13.75 8.99986 13.75V12.25ZM9.49986 12.25H8.99986V13.75H9.49986V12.25ZM9.49986 12.25V13.75C10.3283 13.75 10.9999 13.0784 10.9999 12.25H9.49986ZM9.49986 11.0751V12.25H10.9999V11.0751H9.49986ZM11.5 10.2501H10.3249V11.7501H11.5V10.2501ZM11.5 10.2501V11.7501C12.3284 11.7501 13 11.0785 13 10.2501H11.5ZM11.5 9.75007V10.2501H13V9.75007H11.5ZM11.5 9.75007L11.5 9.75007H13C13 8.92164 12.3284 8.25007 11.5 8.25007L11.5 9.75007ZM10.3249 9.75007H11.5V8.25007H10.3249V9.75007ZM9.49986 7.75V8.92507H10.9999V7.75H9.49986ZM10.3249 8.25007C10.6977 8.25007 10.9999 8.55229 10.9999 8.92507H9.49986C9.49986 9.38069 9.86921 9.75007 10.3249 9.75007L10.3249 8.25007ZM10.9999 11.0751C10.9999 11.4479 10.6977 11.7501 10.3249 11.7501V10.2501C9.86921 10.2501 9.49986 10.6194 9.49986 11.0751H10.9999ZM8.17486 11.7501C7.80207 11.7501 7.49986 11.4479 7.49986 11.0751H8.99986C8.99986 10.6194 8.63049 10.2501 8.17486 10.2501V11.7501ZM7.49986 8.92507C7.49986 8.55229 7.80206 8.25007 8.17486 8.25007L8.17486 9.75007C8.63051 9.75007 8.99986 9.38069 8.99986 8.92507H7.49986ZM7.375 1.75H11.125V0.25H7.375V1.75ZM12.625 3.25V4.375H14.125V3.25H12.625ZM5.875 4.375V3.25H4.375V4.375H5.875ZM11.125 1.75C11.9534 1.75 12.625 2.42157 12.625 3.25H14.125C14.125 1.59315 12.7819 0.25 11.125 0.25V1.75ZM7.375 0.25C5.71815 0.25 4.375 1.59315 4.375 3.25H5.875C5.875 2.42157 6.54657 1.75 7.375 1.75V0.25ZM2 5.125H16.5V3.625H2V5.125ZM1.75 15V5.375H0.25V15H1.75ZM10.6801 15.25H2V16.75H10.6801V15.25ZM16.75 5.375V10.2197H18.25V5.375H16.75ZM2 3.625C1.0335 3.625 0.25 4.4085 0.25 5.375H1.75C1.75 5.23693 1.86193 5.125 2 5.125V3.625ZM16.5 5.125C16.6381 5.125 16.75 5.23693 16.75 5.375H18.25C18.25 4.4085 17.4665 3.625 16.5 3.625V5.125ZM0.25 15C0.25 15.9665 1.0335 16.75 2 16.75V15.25C1.86193 15.25 1.75 15.1381 1.75 15H0.25ZM19.5455 10.75H22V9.25H19.5455V10.75ZM22.25 11V13.4545H23.75V11H22.25ZM13.4545 22.25H11V23.75H13.4545V22.25ZM10.75 22V19.5455H9.25V22H10.75ZM11 22.25C10.8619 22.25 10.75 22.1381 10.75 22H9.25C9.25 22.9665 10.0335 23.75 11 23.75V22.25ZM22.25 13.4545C22.25 18.3121 18.3121 22.25 13.4545 22.25V23.75C19.1406 23.75 23.75 19.1406 23.75 13.4545H22.25ZM22 10.75C22.1381 10.75 22.25 10.8619 22.25 11H23.75C23.75 10.0335 22.9665 9.25 22 9.25V10.75ZM19.5455 9.25C13.8594 9.25 9.25 13.8594 9.25 19.5455H10.75C10.75 14.6879 14.6879 10.75 19.5455 10.75V9.25ZM18.4765 13.4627L13.4625 18.4767L14.5232 19.5374L19.5372 14.5233L18.4765 13.4627ZM19.5372 15.134L17.8659 13.4626L16.8052 14.5233L18.4765 16.1946L19.5372 15.134ZM17.866 16.8053L16.1946 15.134L15.134 16.1947L16.8053 17.866L17.866 16.8053ZM16.1947 18.4768L14.5234 16.8054L13.4627 17.8661L15.134 19.5374L16.1947 18.4768Z" fill="black"/>
</g>
<defs>
<clipPath id="clip0_1607_8963">
<rect width="24" height="24" fill="white"/>
</clipPath>
</defs>
</svg>
