<svg width="24" height="24" viewBox="0 0 24 24" fill="none" xmlns="http://www.w3.org/2000/svg">
<path d="M15 22H7.09778M9.53438 14.3886L2.84313 21.1482C2.53061 21.464 2.75425 22 3.19847 22H7.09778M7.08967 16.8617C7.09218 16.8591 7.09641 16.86 7.09778 16.8633L7.51103 17.8575C8.12586 19.3367 7.89542 20.7716 7.18471 21.8723L7.09778 22M11.0295 10.8355L14.0398 13.8803M13.0364 8.80557L16.0466 11.8504M8.67085 13.5151L11.6159 16.4941C11.8117 16.6921 12.1294 16.6919 12.3254 16.4935L22.2413 6.46339C23.2518 5.44124 23.2531 3.78527 22.2441 2.76466C21.235 1.74403 19.5979 1.74527 18.5873 2.76744L8.67139 12.7974C8.47532 12.9957 8.47508 13.3171 8.67085 13.5151Z" stroke="black" stroke-width="1.5" stroke-linecap="round"/>
</svg>
