<svg width="24" height="24" viewBox="0 0 24 24" fill="none" xmlns="http://www.w3.org/2000/svg">
<path d="M10.557 9.53322V11.9979C10.557 12.0532 10.5122 12.098 10.457 12.098H7.83327C7.77805 12.098 7.73327 12.1429 7.73327 12.1982V15.0398C7.73327 15.0951 7.77805 15.1399 7.83327 15.1399H10.457C10.5122 15.1399 10.557 15.1848 10.557 15.2401V18.026C10.557 18.0813 10.6017 18.1261 10.657 18.1261H13.4991C13.5543 18.1261 13.5991 18.0813 13.5991 18.026V15.2395C13.5991 15.1844 13.6435 15.1397 13.6985 15.1393L16.1672 15.1245C16.2222 15.1242 16.2666 15.0794 16.2666 15.0244V12.1828C16.2666 12.1272 16.2215 12.0823 16.166 12.0826L13.6997 12.0974C13.6443 12.0977 13.5991 12.0528 13.5991 11.9973V9.53322C13.5991 9.47791 13.5543 9.43307 13.4991 9.43307H10.657C10.6017 9.43307 10.557 9.47791 10.557 9.53322Z" stroke="black" stroke-width="1.5" stroke-linecap="round" stroke-linejoin="round"/>
<path d="M5.3903 9.46245L10.7748 2.11351C11.3731 1.29692 12.5904 1.29521 13.191 2.11013L18.6097 9.46246C20.7947 12.8032 20.3661 17.2965 17.5928 20.1233C14.4839 23.2922 9.51612 23.2922 6.40716 20.1233C3.63392 17.2965 3.20533 12.8032 5.3903 9.46245Z" stroke="black" stroke-width="1.5" stroke-linecap="round" stroke-linejoin="round"/>
</svg>
