<svg width="24" height="24" viewBox="0 0 24 24" fill="none" xmlns="http://www.w3.org/2000/svg">
<path d="M12.75 1C12.75 0.585786 12.4142 0.25 12 0.25C11.5858 0.25 11.25 0.585786 11.25 1V3C11.25 3.41421 11.5858 3.75 12 3.75C12.4142 3.75 12.75 3.41421 12.75 3V1Z" fill="black"/>
<path d="M8 21C8 22.1046 7.10457 23 6 23C4.89543 23 4 22.1046 4 21C4 19.8954 4.89543 19 6 19C7.10457 19 8 19.8954 8 21Z" fill="black"/>
<path d="M21 21C21 22.1046 20.1046 23 19 23C17.8954 23 17 22.1046 17 21C17 19.8954 17.8954 19 19 19C20.1046 19 21 19.8954 21 21Z" fill="black"/>
<path d="M7.46967 2.46967C7.76256 2.17678 8.23744 2.17678 8.53033 2.46967L9.94454 3.88388C10.2374 4.17678 10.2374 4.65165 9.94454 4.94454C9.65165 5.23744 9.17678 5.23744 8.88388 4.94454L7.46967 3.53033C7.17678 3.23744 7.17678 2.76256 7.46967 2.46967Z" fill="black"/>
<path d="M15.1161 4.94454L16.5303 3.53033C16.8232 3.23744 16.8232 2.76256 16.5303 2.46967C16.2374 2.17678 15.7626 2.17678 15.4697 2.46967L14.0555 3.88388C13.7626 4.17678 13.7626 4.65165 14.0555 4.94454C14.3483 5.23744 14.8232 5.23744 15.1161 4.94454Z" fill="black"/>
<path fill-rule="evenodd" clip-rule="evenodd" d="M12 5.25C12.4142 5.25 12.75 5.58579 12.75 6V7H14C14.5518 7 14.9992 7.44696 15 7.9986V15.25H1V8C1 7.44772 1.44772 7 2 7H11.25V6C11.25 5.58579 11.5858 5.25 12 5.25ZM10 11.7498C10.4142 11.7497 10.75 11.4139 10.75 10.9997C10.75 10.5855 10.4142 10.2497 9.99998 10.2498L8.75 10.2498V9C8.75 8.58579 8.41421 8.25 8 8.25C7.58579 8.25 7.25 8.58579 7.25 9V10.2498L6.00008 10.2499C5.58586 10.2499 5.25009 10.5857 5.2501 10.9999C5.25011 11.4141 5.58591 11.7499 6.00012 11.7499L7.25 11.7498V13C7.25 13.4142 7.58579 13.75 8 13.75C8.41421 13.75 8.75 13.4142 8.75 13V11.7498L10 11.7498Z" fill="black"/>
<path d="M19 17.5C20.8887 17.5 22.428 18.996 22.4975 20.8677C22.7979 20.6952 23.0001 20.3712 23.0001 20V15.277C23.0001 15.0957 22.9508 14.9179 22.8576 14.7625L20.2914 10.4855C20.1107 10.1843 19.7852 10 19.4339 10H16.5V18.5505C17.1353 17.9022 18.0207 17.5 19 17.5Z" fill="black"/>
<path d="M15 16.75V21H9.5C9.5 19.067 7.933 17.5 6 17.5C4.067 17.5 2.5 19.067 2.5 21H2C1.44772 21 1 20.5523 1 20V16.75H15Z" fill="black"/>
</svg>
