<svg width="24" height="24" viewBox="0 0 24 24" fill="none" xmlns="http://www.w3.org/2000/svg">
<path fill-rule="evenodd" clip-rule="evenodd" d="M2.46771 2.46771C0.51956 4.41586 0.506398 7.5876 2.45455 9.53575L5.41743 12.4986L12.4986 5.41744L9.53575 2.45455C7.5876 0.506397 4.41586 0.519561 2.46771 2.46771ZM3.91567 5.16286C4.32893 5.16286 4.66395 5.49787 4.66395 5.91114V5.94279C4.66395 6.35606 4.32893 6.69108 3.91567 6.69108C3.5024 6.69108 3.16739 6.35606 3.16739 5.94279V5.91114C3.16739 5.49787 3.5024 5.16286 3.91567 5.16286ZM7.90651 5.16286C8.31977 5.16286 8.65479 5.49787 8.65479 5.91114V5.94279C8.65479 6.35606 8.31977 6.69108 7.90651 6.69108C7.49324 6.69108 7.15823 6.35606 7.15823 5.94279V5.91114C7.15823 5.49787 7.49324 5.16286 7.90651 5.16286Z" fill="black"/>
<path d="M13.5569 6.47567L17.2998 10.2186L10.2186 17.2998L6.47567 13.5569L13.5569 6.47567Z" fill="black"/>
<path fill-rule="evenodd" clip-rule="evenodd" d="M11.2768 18.358L18.358 11.2768L21.5454 14.4642C23.4936 16.4124 23.4804 19.5841 21.5323 21.5323C19.5841 23.4804 16.4124 23.4936 14.4642 21.5455L11.2768 18.358ZM20.6273 17.8837C20.6273 17.4704 20.2923 17.1354 19.879 17.1354C19.4658 17.1354 19.1307 17.4704 19.1307 17.8837V17.9153C19.1307 18.3286 19.4658 18.6636 19.879 18.6636C20.2923 18.6636 20.6273 18.3286 20.6273 17.9153V17.8837ZM16.6365 17.8837C16.6365 17.4704 16.3015 17.1354 15.8882 17.1354C15.4749 17.1354 15.1399 17.4704 15.1399 17.8837V17.9153C15.1399 18.3286 15.4749 18.6636 15.8882 18.6636C16.3015 18.6636 16.6365 18.3286 16.6365 17.9153V17.8837Z" fill="black"/>
</svg>
