<svg width="24" height="24" viewBox="0 0 24 24" fill="none" xmlns="http://www.w3.org/2000/svg">
<path d="M10.0315 1.75064C10.1422 1.31901 10.5339 1 11.0001 1H15.0001C15.5524 1 16.0001 1.44772 16.0001 2V3C16.0001 3.55228 15.5524 4 15.0001 4V7H16.0001C16.5524 7 17.0001 7.44772 17.0001 8V9.5H9.00012V8C9.00012 7.44772 9.44784 7 10.0001 7H11.0001V4C10.5339 4 10.1422 3.68099 10.0315 3.24936C10.0211 3.24978 10.0106 3.25 10.0001 3.25H5C4.86193 3.25 4.75 3.36193 4.75 3.5V4C4.75 4.41421 4.41421 4.75 4 4.75C3.58579 4.75 3.25 4.41421 3.25 4V3.5C3.25 2.5335 4.0335 1.75 5 1.75H10.0001C10.0106 1.75 10.0211 1.75022 10.0315 1.75064Z" fill="black"/>
<path fill-rule="evenodd" clip-rule="evenodd" d="M7.00012 11C6.44784 11 6.00012 11.4477 6.00012 12V22C6.00012 22.5523 6.44784 23 7.00012 23H19.0001C19.5524 23 20.0001 22.5523 20.0001 22V12C20.0001 11.4477 19.5524 11 19.0001 11H7.00012ZM13.3335 13C13.8857 13 14.3335 13.4477 14.3335 14V15.5667C14.3335 15.6219 14.3782 15.6667 14.4335 15.6667H16.0001C16.5524 15.6667 17.0001 16.1144 17.0001 16.6667V17.3333C17.0001 17.8856 16.5524 18.3333 16.0001 18.3333H14.4335C14.3782 18.3333 14.3335 18.3781 14.3335 18.4333V20C14.3335 20.5523 13.8857 21 13.3335 21H12.6668C12.1145 21 11.6668 20.5523 11.6668 20V18.4333C11.6668 18.3781 11.622 18.3333 11.5668 18.3333H10.0001C9.44784 18.3333 9.00012 17.8856 9.00012 17.3333V16.6667C9.00012 16.1144 9.44784 15.6667 10.0001 15.6667H11.5668C11.622 15.6667 11.6668 15.6219 11.6668 15.5667V14C11.6668 13.4477 12.1145 13 12.6668 13H13.3335Z" fill="black"/>
</svg>
