<svg width="24" height="24" viewBox="0 0 24 24" fill="none" xmlns="http://www.w3.org/2000/svg">
<path fill-rule="evenodd" clip-rule="evenodd" d="M5.84016 17.3102C5.05737 17.2592 4.29758 17.0139 3.62969 16.594L2.41338 15.8295C1.06757 14.9835 0.25 13.4999 0.25 11.9038V11.5684C0.25 8.97833 2.49293 6.97063 5.04452 7.26271H5.13647C5.26339 7.04428 5.47093 6.87597 5.72528 6.80288L11.7253 5.07874C11.9048 5.02714 12.0952 5.02714 12.2747 5.07874L18.2747 6.80288C18.5291 6.87597 18.7366 7.04428 18.8635 7.26271H18.9555C21.5071 6.97063 23.75 8.97833 23.75 11.5684V11.9038C23.75 13.4999 22.9324 14.9835 21.5866 15.8295L20.3703 16.594C19.7024 17.0139 18.9426 17.2592 18.1598 17.3102L12.2747 19.0013C12.0952 19.0529 11.9048 19.0529 11.7253 19.0013L5.84016 17.3102ZM5 8.77133H4.95331L4.90697 8.7655C3.23065 8.55476 1.75 9.86936 1.75 11.5684V11.9038C1.75 12.9798 2.30114 13.9799 3.20838 14.5502L4.42469 15.3147C4.60741 15.4296 4.80019 15.5254 5 15.6012V8.77133ZM19 15.6012C19.1998 15.5254 19.3926 15.4296 19.5753 15.3147L20.7916 14.5502C21.6989 13.9799 22.25 12.9798 22.25 11.9038V11.5684C22.25 9.86936 20.7694 8.55476 19.093 8.7655L19.0467 8.77133H19V15.6012ZM11.9394 8.80979C11.9792 8.79978 12.0208 8.79978 12.0606 8.80979L15.8181 9.75456C16.2199 9.8556 16.6271 9.60987 16.7276 9.20571C16.8281 8.80156 16.5837 8.39202 16.1819 8.29098L12.4244 7.34621C12.1458 7.27614 11.8542 7.27614 11.5756 7.34621L7.8181 8.29098C7.41625 8.39202 7.17193 8.80156 7.27239 9.20571C7.37285 9.60987 7.78006 9.8556 8.1819 9.75456L11.9394 8.80979ZM11.9394 14.2645C11.9792 14.2745 12.0208 14.2745 12.0606 14.2645L15.8181 13.3197C16.2199 13.2187 16.6271 13.4644 16.7276 13.8686C16.8281 14.2727 16.5837 14.6823 16.1819 14.7833L12.4244 15.7281C12.1458 15.7981 11.8542 15.7981 11.5756 15.7281L7.8181 14.7833C7.41625 14.6823 7.17193 14.2727 7.27239 13.8686C7.37285 13.4644 7.78006 13.2187 8.1819 13.3197L11.9394 14.2645Z" fill="black"/>
</svg>
