<svg width="24" height="24" viewBox="0 0 24 24" fill="none" xmlns="http://www.w3.org/2000/svg">
<path d="M7.25 6L4.75 6L4.75 4C4.75 3.58579 4.41421 3.25 4 3.25C3.58579 3.25 3.25 3.58579 3.25 4L3.25 6L2 6C1.44772 6 1 5.55228 1 5V2C1 1.44772 1.44772 1 2 1H18C18.5523 1 19 1.44772 19 2V5C19 5.55228 18.5523 6 18 6L16.75 6L16.75 4C16.75 3.58579 16.4142 3.25 16 3.25C15.5858 3.25 15.25 3.58579 15.25 4L15.25 6L12.75 6L12.75 4C12.75 3.58579 12.4142 3.25 12 3.25C11.5858 3.25 11.25 3.58579 11.25 4L11.25 6L8.75 6L8.75 4C8.75 3.58579 8.41421 3.25 8 3.25C7.58579 3.25 7.25 3.58579 7.25 4L7.25 6Z" fill="black"/>
<path d="M12.8991 17.2405C11.7003 16.0417 11.7003 14.098 12.8991 12.8991C14.098 11.7003 16.0417 11.7003 17.2405 12.8991L19.1404 14.799L14.799 19.1404L12.8991 17.2405Z" fill="black"/>
<path d="M15.8596 20.201L17.7595 22.1009C18.9583 23.2997 20.902 23.2997 22.1009 22.1009C23.2997 20.902 23.2997 18.9583 22.1009 17.7595L20.201 15.8596L15.8596 20.201Z" fill="black"/>
<path d="M3 7.5V9.25H7C7.9665 9.25 8.75 10.0335 8.75 11V18C8.75 18.9665 7.9665 19.75 7 19.75H3V22C3 22.5523 3.44772 23 4 23H16C16.1567 23 16.305 22.964 16.437 22.8997L11.8385 18.3012C10.0538 16.5166 10.0538 13.6231 11.8385 11.8385C13.2343 10.4426 15.3086 10.1385 17 10.9263V7.5H3Z" fill="black"/>
<path d="M3 18.25V10.75H7C7.13807 10.75 7.25 10.8619 7.25 11V18C7.25 18.1381 7.13807 18.25 7 18.25H3Z" fill="black"/>
</svg>
