<svg width="24" height="24" viewBox="0 0 24 24" fill="none" xmlns="http://www.w3.org/2000/svg">
<path d="M10.4999 7.84289C11.596 7.20891 12.3334 6.02391 12.3334 4.66669L12.3334 1H5V4.66669C5 6.02384 5.73733 7.20878 6.83325 7.84278C6.86157 7.85916 6.89013 7.87518 6.91893 7.89082C7.43847 8.17306 8.03386 8.33337 8.66669 8.33337C9.33451 8.33337 9.96064 8.15483 10.4999 7.84289Z" fill="black"/>
<path d="M6.83325 15.1358C6.68664 15.3156 6.57046 15.5176 6.49177 15.7353C6.99065 15.6477 7.5264 15.7111 8.03471 15.9652L8.60107 16.2484L9.7427 15.5634C10.0055 15.4057 10.2911 15.2999 10.5848 15.2469C10.5578 15.2089 10.5295 15.1718 10.4999 15.1356V12.2793H6.83325V15.1358Z" fill="black"/>
<path d="M6.83325 10.7793V9.49862C7.40304 9.71494 8.02103 9.83337 8.66669 9.83337C9.31227 9.83337 9.9302 9.71497 10.4999 9.49869V10.7793H6.83325Z" fill="black"/>
<path d="M5.91675 18.2012C5.91675 17.4579 6.69903 16.9744 7.36393 17.3068L8.17578 17.7127C8.48158 17.8656 8.84429 17.8516 9.13746 17.6757L10.5144 16.8495C10.7929 16.6825 11.1351 16.661 11.4322 16.792L14.7273 18.2443C14.7953 18.2742 14.8671 18.2942 14.9408 18.3038L15.523 18.3791C16.7558 18.5386 17.7964 19.2501 18.4093 20.2456L5.91675 20.1855V18.2012Z" fill="black"/>
<path d="M5.91675 21.6855L18.957 21.7483C18.9853 21.9401 19 22.136 19 22.335C19 22.7022 18.7024 22.9998 18.3352 22.9998H6.91675C6.36446 22.9998 5.91675 22.5521 5.91675 21.9998V21.6855Z" fill="black"/>
</svg>
