<svg width="24" height="24" viewBox="0 0 24 24" fill="none" xmlns="http://www.w3.org/2000/svg">
<path fill-rule="evenodd" clip-rule="evenodd" d="M12.1752 3.2265C12.1155 3.24184 12.0528 3.25 11.9883 3.25H11.0248C9.02075 3.25 7.28901 4.65 6.86914 6.60959L6.3034 9.25H15.7581C17.4168 9.25 18.8784 10.3396 19.352 11.9292L21.3949 18.7858C21.4208 18.8725 21.4302 18.9602 21.425 19.0456C22.3256 19.241 23.0002 20.0418 23.0002 21C23.0002 22.1046 22.1038 23 20.998 23C19.8922 23 18.9957 22.1046 18.9957 21C18.9957 20.2669 19.3906 19.626 19.9794 19.2777C19.9712 19.2571 19.9639 19.2359 19.9574 19.2142L19.2232 16.75H4.69643L4.00007 20H4.87986C4.93509 20 4.97986 20.0448 4.97986 20.1V22.9C4.97986 22.9552 4.93509 23 4.87986 23H1.10007C1.03609 23 0.988562 22.9407 1.00246 22.8783L1.62538 20.0783C1.63555 20.0325 1.67613 20 1.72299 20H2.48289C2.48294 19.9482 2.4884 19.8956 2.49969 19.8429L5.40243 6.29533C5.97049 3.64411 8.31344 1.75 11.0248 1.75H11.9883C12.0528 1.75 12.1155 1.75816 12.1752 1.7735C12.4311 1.31222 12.923 1 13.4879 1H21.5002C22.3286 1 23.0002 1.67157 23.0002 2.5C23.0002 3.32843 22.3286 4 21.5002 4H13.4879C12.923 4 12.4311 3.68778 12.1752 3.2265ZM17.9144 12.3575L18.7763 15.25H5.01782L5.98201 10.75H15.7581C16.7533 10.75 17.6303 11.4038 17.9144 12.3575Z" fill="black"/>
</svg>
