<svg width="24" height="24" viewBox="0 0 24 24" fill="none" xmlns="http://www.w3.org/2000/svg">
<path d="M21 4C21 5.65685 19.6569 7 18 7C16.3431 7 15 5.65685 15 4C15 2.34315 16.3431 1 18 1C19.6569 1 21 2.34315 21 4Z" fill="black"/>
<path fill-rule="evenodd" clip-rule="evenodd" d="M14.9798 7.77873L9.59763 4.41883C9.57862 4.40696 9.55945 4.39557 9.54012 4.38465C9.03904 4.04091 8.35712 4.02405 7.83008 4.3932L5.21863 6.22238C4.53988 6.6978 4.37506 7.63344 4.85048 8.31218C5.3259 8.99093 6.26154 9.15575 6.94028 8.68033L8.74033 7.4195L11.2791 9.00437L9.31088 11.3021C9.04545 11.2677 8.7748 11.25 8.5 11.25C5.04822 11.25 2.25 14.0482 2.25 17.5C2.25 20.9518 5.04822 23.75 8.5 23.75C11.7835 23.75 14.4756 21.218 14.7303 18H16.5705L16.0493 19.9451C15.8349 20.7453 16.3097 21.5678 17.1099 21.7822C17.9101 21.9966 18.7326 21.5217 18.9471 20.7215L19.9485 16.984C20.0203 16.7162 20.0148 16.446 19.9458 16.1968C19.8056 15.5137 19.2011 15 18.4765 15H14.2299C14.1175 14.7427 13.9883 14.4944 13.8436 14.2566L15.8352 11.9254C16.8334 10.7569 16.6467 8.98999 15.4262 8.05599C15.2842 7.94733 15.1346 7.85499 14.9798 7.77873ZM3.75 17.5C3.75 14.8766 5.87665 12.75 8.5 12.75C11.1234 12.75 13.25 14.8766 13.25 17.5C13.25 20.1234 11.1234 22.25 8.5 22.25C5.87665 22.25 3.75 20.1234 3.75 17.5Z" fill="black"/>
</svg>
