<svg width="24" height="24" viewBox="0 0 24 24" fill="none" xmlns="http://www.w3.org/2000/svg">
<path d="M9 12.6668L9 11.9168H9V12.6668ZM15 12.6668L15 11.9168H15V12.6668ZM13.4331 12.6668L13.4331 13.4168H13.4331V12.6668ZM10.5665 12.6668L10.5665 13.4168L10.5665 13.4168L10.5665 12.6668ZM16.75 6.5C16.75 6.91421 17.0858 7.25 17.5 7.25C17.9142 7.25 18.25 6.91421 18.25 6.5H16.75ZM5.75 6.5C5.75 6.91421 6.08579 7.25 6.5 7.25C6.91421 7.25 7.25 6.91421 7.25 6.5H5.75ZM12.3331 10.75C12.4712 10.75 12.5831 10.8619 12.5831 11H14.0831C14.0831 10.0335 13.2996 9.25 12.3331 9.25V10.75ZM11.6665 10.75H12.3331V9.25H11.6665V10.75ZM11.4165 11C11.4165 10.8619 11.5284 10.75 11.6665 10.75V9.25C10.7 9.25 9.91648 10.0335 9.91648 11H11.4165ZM11.4165 12.5668V11H9.91648V12.5668H11.4165ZM9 13.4168L10.5665 13.4168L10.5665 11.9168L9 11.9168L9 13.4168ZM8.75 13.6668C8.75 13.5287 8.86193 13.4168 9 13.4168V11.9168C8.0335 11.9168 7.25 12.7003 7.25 13.6668H8.75ZM8.75 14.3334V13.6668H7.25V14.3334H8.75ZM9 14.5834C8.86193 14.5834 8.75 14.4715 8.75 14.3334H7.25C7.25 15.2999 8.0335 16.0834 9 16.0834V14.5834ZM10.5665 14.5834H9V16.0834H10.5665V14.5834ZM11.4165 17V15.4334H9.91648V17H11.4165ZM11.6665 17.25C11.5284 17.25 11.4165 17.1381 11.4165 17H9.91648C9.91648 17.9665 10.7 18.75 11.6665 18.75V17.25ZM12.3331 17.25H11.6665V18.75H12.3331V17.25ZM12.5831 17C12.5831 17.1381 12.4712 17.25 12.3331 17.25V18.75C13.2996 18.75 14.0831 17.9665 14.0831 17H12.5831ZM12.5831 15.4334V17H14.0831V15.4334H12.5831ZM15 14.5834H13.4331V16.0834H15V14.5834ZM15.25 14.3334C15.25 14.4715 15.1381 14.5834 15 14.5834V16.0834C15.9665 16.0834 16.75 15.2999 16.75 14.3334H15.25ZM15.25 13.6668V14.3334H16.75V13.6668H15.25ZM15 13.4168C15.1381 13.4168 15.25 13.5287 15.25 13.6668H16.75C16.75 12.7003 15.9665 11.9168 15 11.9168L15 13.4168ZM13.4331 13.4168H15V11.9168H13.4331V13.4168ZM12.5831 11V12.5668H14.0831V11H12.5831ZM13.4331 11.9168C13.7921 11.9168 14.0831 12.2078 14.0831 12.5668H12.5831C12.5831 13.0362 12.9637 13.4168 13.4331 13.4168L13.4331 11.9168ZM14.0831 15.4334C14.0831 15.7924 13.7921 16.0834 13.4331 16.0834V14.5834C12.9637 14.5834 12.5831 14.964 12.5831 15.4334H14.0831ZM10.5665 16.0834C10.2075 16.0834 9.91648 15.7924 9.91648 15.4334H11.4165C11.4165 14.964 11.0359 14.5834 10.5665 14.5834V16.0834ZM9.91648 12.5668C9.91648 12.2078 10.2075 11.9168 10.5665 11.9168L10.5665 13.4168C11.0359 13.4168 11.4165 13.0362 11.4165 12.5668H9.91648ZM9.5 2.75H14.5V1.25H9.5V2.75ZM16.75 5V6.5H18.25V5H16.75ZM7.25 6.5V5H5.75V6.5H7.25ZM14.5 2.75C15.7426 2.75 16.75 3.75736 16.75 5H18.25C18.25 2.92893 16.5711 1.25 14.5 1.25V2.75ZM9.5 1.25C7.42893 1.25 5.75 2.92893 5.75 5H7.25C7.25 3.75736 8.25736 2.75 9.5 2.75V1.25ZM2 7.25H22V5.75H2V7.25ZM22.25 7.5V21H23.75V7.5H22.25ZM22 21.25H2V22.75H22V21.25ZM1.75 21V7.5H0.25V21H1.75ZM2 21.25C1.86193 21.25 1.75 21.1381 1.75 21H0.25C0.25 21.9665 1.0335 22.75 2 22.75V21.25ZM22.25 21C22.25 21.1381 22.1381 21.25 22 21.25V22.75C22.9665 22.75 23.75 21.9665 23.75 21H22.25ZM22 7.25C22.1381 7.25 22.25 7.36193 22.25 7.5H23.75C23.75 6.5335 22.9665 5.75 22 5.75V7.25ZM2 5.75C1.0335 5.75 0.25 6.5335 0.25 7.5H1.75C1.75 7.36193 1.86193 7.25 2 7.25V5.75Z" fill="black"/>
</svg>
