<svg width="24" height="24" viewBox="0 0 24 24" fill="none" xmlns="http://www.w3.org/2000/svg">
<g clip-path="url(#clip0_1607_9356)">
<path d="M9.50995 13.5006L1 22.0106M10.7914 9.79124L14.433 13.4328M12.7914 7.79123L16.433 11.4328M8.64936 12.6398L11.5844 15.5749C11.7795 15.7701 12.0961 15.7698 12.2915 15.5744L22.1736 5.69206C23.1806 4.68496 23.1819 3.0534 22.1763 2.04783C21.1707 1.04223 19.5391 1.04346 18.532 2.05057L8.6499 11.9327C8.4545 12.1282 8.45426 12.4447 8.64936 12.6398ZM7.07358 15.9373L1.00407 22.0069C1.00206 22.0089 1.0023 22.0122 1.00458 22.0139C4.49523 24.6025 9.1781 20.9253 7.4935 16.9185L7.08165 15.9389C7.08029 15.9357 7.07607 15.9349 7.07358 15.9373Z" stroke="black" stroke-width="1.5" stroke-linecap="round"/>
</g>
<defs>
<clipPath id="clip0_1607_9356">
<rect width="24" height="24" fill="white"/>
</clipPath>
</defs>
</svg>
