<svg width="24" height="24" viewBox="0 0 24 24" fill="none" xmlns="http://www.w3.org/2000/svg">
<g clip-path="url(#clip0_1607_9360)">
<path d="M5.56654 12.3729L8.70179 15.5082M9.03585 8.90363L12.2274 12.0952M16.031 1L18.2187 3.18762M23.0001 7.96902L20.8402 5.80918M4.9766 19.0234L1 23M4.9766 19.0234L3.00697 17.0538C2.42119 16.468 2.42119 15.5183 3.00698 14.9325L12.6097 5.32979M4.9766 19.0234L6.94613 20.993C7.53191 21.5788 8.48166 21.5788 9.06745 20.993L18.6702 11.3903M10.4376 3.15772L12.6097 5.32979M20.8423 13.5624L18.6702 11.3903M18.6702 11.3903L16.9647 9.68475M12.6097 5.32979L14.3431 7.06319M20.8402 5.80918L18.2187 3.18762M20.8402 5.80918L16.9647 9.68475M18.2187 3.18762L14.3431 7.06319M14.3431 7.06319L16.9647 9.68475" stroke="black" stroke-width="1.5" stroke-linecap="round" stroke-linejoin="round"/>
</g>
<defs>
<clipPath id="clip0_1607_9360">
<rect width="24" height="24" fill="white"/>
</clipPath>
</defs>
</svg>
