<svg width="24" height="24" viewBox="0 0 24 24" fill="none" xmlns="http://www.w3.org/2000/svg">
<g clip-path="url(#clip0_1607_9369)">
<path d="M22.9987 1.00122L5.70483 11.1907M10.677 11.2104L8.84267 9.34188M22.9999 1L12.8176 18.2833M12.7896 13.3229L14.6522 15.1692M6.97502 8.74578C6.97502 10.3957 5.63746 11.7333 3.98751 11.7333C2.33755 11.7333 1 10.3957 1 8.74578C1 7.09583 2.33755 5.75827 3.98751 5.75827C5.63746 5.75827 6.97502 7.09583 6.97502 8.74578ZM15.2541 17.025C13.6041 17.025 12.2666 18.3625 12.2666 20.0125C12.2666 21.6624 13.6041 23 15.2541 23C16.9041 23 18.2416 21.6624 18.2416 20.0125C18.2416 18.3625 16.9041 17.025 15.2541 17.025Z" stroke="black" stroke-width="1.5" stroke-linecap="round"/>
</g>
<defs>
<clipPath id="clip0_1607_9369">
<rect width="24" height="24" fill="white"/>
</clipPath>
</defs>
</svg>
