<svg width="24" height="24" viewBox="0 0 24 24" fill="none" xmlns="http://www.w3.org/2000/svg">
<path fill-rule="evenodd" clip-rule="evenodd" d="M1 12C1 5.92487 5.92487 1 12 1C18.0751 1 23 5.92487 23 12C23 18.0751 18.0751 23 12 23C5.92487 23 1 18.0751 1 12ZM6 9.76619L6 15.1018C6 15.9064 6.90193 16.3815 7.56553 15.9265L11.7154 13.0809C12.3162 12.6689 12.289 11.7734 11.6644 11.3986L7.5145 8.9087C6.84797 8.50878 6 8.9889 6 9.76619ZM13 15.1018L13 9.76619C13 8.9889 13.848 8.50878 14.5145 8.9087L18.6644 11.3986C19.289 11.7734 19.3162 12.6689 18.7154 13.0809L14.5655 15.9265C13.9019 16.3815 13 15.9064 13 15.1018Z" fill="black"/>
</svg>
