<svg width="24" height="24" viewBox="0 0 24 24" fill="none" xmlns="http://www.w3.org/2000/svg">
<path d="M11.9758 1C9.76663 1 7.97577 2.79086 7.97577 5V10.75C7.97577 12.9591 9.76663 14.75 11.9758 14.75C14.1849 14.75 15.9758 12.9591 15.9758 10.75V5C15.9758 2.79086 14.1849 1 11.9758 1Z" fill="black"/>
<path d="M4.75 8.20142C4.75 7.7872 4.41421 7.45142 4 7.45142C3.58579 7.45142 3.25 7.7872 3.25 8.20142V9.75C3.25 14.3298 6.7686 18.1196 11.25 18.5V21.5H7.42859C7.01438 21.5 6.67859 21.8358 6.67859 22.25C6.67859 22.6642 7.01438 23 7.42859 23H16.5714C16.9857 23 17.3214 22.6642 17.3214 22.25C17.3214 21.8358 16.9857 21.5 16.5714 21.5H12.75V18.5C17.2314 18.1196 20.75 14.3298 20.75 9.75V8.20142C20.75 7.7872 20.4142 7.45142 20 7.45142C19.5858 7.45142 19.25 7.7872 19.25 8.20142V9.75C19.25 13.7541 16.0041 17 12 17C7.99594 17 4.75 13.7541 4.75 9.75V8.20142Z" fill="black"/>
</svg>
