<svg width="24" height="24" viewBox="0 0 24 24" fill="none" xmlns="http://www.w3.org/2000/svg">
<path fill-rule="evenodd" clip-rule="evenodd" d="M23 12C23 18.0751 18.0751 23 12 23C5.92487 23 1 18.0751 1 12C1 5.92487 5.92487 1 12 1C18.0751 1 23 5.92487 23 12ZM8 15.1305V8.94937C8 8.13481 8.92173 7.66198 9.58334 8.13714L14.0945 11.377C14.6655 11.7871 14.6462 12.6429 14.0573 13.0269L9.54617 15.9681C8.88099 16.4018 8 15.9245 8 15.1305ZM16.9318 7.0238C16.9318 6.60959 16.596 6.2738 16.1818 6.2738C15.7676 6.2738 15.4318 6.60959 15.4318 7.0238V17.0001C15.4318 17.4143 15.7676 17.7501 16.1818 17.7501C16.596 17.7501 16.9318 17.4143 16.9318 17.0001V7.0238Z" fill="black"/>
</svg>
