<svg width="24" height="24" viewBox="0 0 24 24" fill="none" xmlns="http://www.w3.org/2000/svg">
<path fill-rule="evenodd" clip-rule="evenodd" d="M1 12C1 5.92487 5.92487 0.999999 12 1C18.0751 1 23 5.92487 23 12C23 18.0751 18.0751 23 12 23C5.92487 23 0.999999 18.0751 1 12ZM16 8.86953V15.0506C16 15.8652 15.0783 16.338 14.4167 15.8629L9.90555 12.623C9.3345 12.2129 9.35378 11.3571 9.94271 10.9731L14.4538 8.03185C15.119 7.59816 16 8.07546 16 8.86953ZM7.06818 16.9762C7.06818 17.3904 7.40397 17.7262 7.81818 17.7262C8.23239 17.7262 8.56818 17.3904 8.56818 16.9762L8.56818 6.99994C8.56818 6.58573 8.2324 6.24994 7.81818 6.24994C7.40397 6.24994 7.06818 6.58573 7.06818 6.99994L7.06818 16.9762Z" fill="black"/>
</svg>
