<svg width="24" height="24" viewBox="0 0 24 24" fill="none" xmlns="http://www.w3.org/2000/svg">
<g clip-path="url(#clip0_1607_8169)">
<path d="M7.45871 15.9925C7.18394 16.3025 7.21247 16.7765 7.52243 17.0512C7.83239 17.326 8.3064 17.2975 8.58117 16.9875L7.45871 15.9925ZM9.95831 6.7685C9.5441 6.76906 9.20877 7.1053 9.20933 7.51952C9.20989 7.93373 9.54613 8.26906 9.96035 8.2685L9.95831 6.7685ZM15.9801 7.51035L16.7248 7.4214C16.6797 7.04389 16.3593 6.75983 15.9791 6.76035L15.9801 7.51035ZM15.9494 13.5776C15.9985 13.9889 16.3718 14.2825 16.7831 14.2333C17.1944 14.1842 17.488 13.811 17.4388 13.3997L15.9494 13.5776ZM19.6703 18.7994C15.9151 23.0355 9.43688 23.4254 5.20075 19.6703L4.20573 20.7927C9.06179 25.0974 16.488 24.6504 20.7927 19.7944L19.6703 18.7994ZM5.20075 19.6703C0.964621 15.9151 0.574713 9.43688 4.32987 5.20075L3.2074 4.20573C-1.09729 9.06179 -0.650322 16.488 4.20573 20.7927L5.20075 19.6703ZM4.32987 5.20075C8.08502 0.964621 14.5632 0.574713 18.7994 4.32987L19.7944 3.2074C14.9383 -1.09729 7.51209 -0.650322 3.2074 4.20573L4.32987 5.20075ZM18.7994 4.32987C23.0355 8.08502 23.4254 14.5632 19.6703 18.7994L20.7927 19.7944C25.0974 14.9383 24.6504 7.51209 19.7944 3.2074L18.7994 4.32987ZM9.96035 8.2685L15.9811 8.26035L15.9791 6.76035L9.95831 6.7685L9.96035 8.2685ZM15.2354 7.59929L15.9494 13.5776L17.4388 13.3997L16.7248 7.4214L15.2354 7.59929ZM8.58117 16.9875L16.5413 8.00786L15.4189 7.01283L7.45871 15.9925L8.58117 16.9875Z" fill="black"/>
</g>
<defs>
<clipPath id="clip0_1607_8169">
<rect width="24" height="24" fill="white"/>
</clipPath>
</defs>
</svg>
