<svg width="24" height="24" viewBox="0 0 24 24" fill="none" xmlns="http://www.w3.org/2000/svg">
<g clip-path="url(#clip0_1607_8112)">
<path d="M12 1V8.08239M14.5 2L11.9999 4L9.5 2M12 23V15.9176M9.5 22L12.0001 20L14.5 22M23 12H15.9176M22 14.5L20 11.9999L22 9.5M1 12H8.08239M2 9.5L4 12.0001L2 14.5M19.7782 4.2218L14.7702 9.22983M20.8389 6.69666L17.6569 6.34307L17.3033 3.16113M4.2218 19.7782L9.22983 14.7702M3.16113 17.3033L6.34315 17.6569L6.69666 20.8389M19.7782 19.7782L14.7702 14.7702M17.3033 20.8389L17.6569 17.6569L20.8389 17.3033M4.2218 4.2218L9.22983 9.22983M6.69666 3.16113L6.34307 6.34315L3.16113 6.69666M9.01306 9.55426L8.15851 11.6173C8.05702 11.8623 8.05702 12.1377 8.15851 12.3827L9.01306 14.4457C9.11455 14.6908 9.30923 14.8854 9.55426 14.9869L11.6173 15.8415C11.8623 15.943 12.1377 15.943 12.3827 15.8415L14.4457 14.9869C14.6908 14.8854 14.8854 14.6908 14.9869 14.4457L15.8415 12.3827C15.943 12.1377 15.943 11.8623 15.8415 11.6173L14.9869 9.55426C14.8854 9.30923 14.6908 9.11455 14.4457 9.01306L12.3827 8.15851C12.1377 8.05702 11.8623 8.05702 11.6173 8.15851L9.55426 9.01306C9.30923 9.11455 9.11455 9.30923 9.01306 9.55426Z" stroke="black" stroke-width="1.5" stroke-linecap="round"/>
</g>
<defs>
<clipPath id="clip0_1607_8112">
<rect width="24" height="24" fill="white"/>
</clipPath>
</defs>
</svg>
