<svg width="24" height="24" viewBox="0 0 24 24" fill="none" xmlns="http://www.w3.org/2000/svg">
<g clip-path="url(#clip0_1607_8116)">
<path d="M10.8946 1.82263C11.2306 0.725788 12.7694 0.72579 13.1054 1.82263L14.8786 7.61181C15.0284 8.1009 15.4765 8.43444 15.9839 8.43444H21.8408C22.9475 8.43444 23.4226 9.85146 22.5431 10.5293L17.7066 14.2569C17.3213 14.5539 17.1604 15.0617 17.3036 15.5291L19.1271 21.4828C19.4597 22.5686 18.2145 23.4449 17.3194 22.755L12.7023 19.1965C12.2877 18.8769 11.7123 18.8769 11.2977 19.1965L6.68061 22.755C5.78549 23.4449 4.54031 22.5686 4.87288 21.4828L6.69645 15.5291C6.8396 15.0617 6.67871 14.5539 6.29341 14.2569L1.45687 10.5293C0.57745 9.85146 1.05255 8.43444 2.15922 8.43444H8.01606C8.52346 8.43444 8.97164 8.10089 9.12145 7.61181L10.8946 1.82263Z" stroke="black" stroke-width="1.5" stroke-linecap="round" stroke-linejoin="round"/>
</g>
<defs>
<clipPath id="clip0_1607_8116">
<rect width="24" height="24" fill="white"/>
</clipPath>
</defs>
</svg>
