<svg width="24" height="24" viewBox="0 0 24 24" fill="none" xmlns="http://www.w3.org/2000/svg">
<path d="M9.54021 6.05001C9.54021 7.73449 8.17467 9.10003 6.4902 9.10003C4.80572 9.10003 3.44019 7.73449 3.44019 6.05001C3.44019 4.36554 4.80572 3 6.4902 3C8.17467 3 9.54021 4.36554 9.54021 6.05001Z" fill="black"/>
<path d="M8.24998 11.8253C7.69955 11.6403 7.11022 11.54 6.49752 11.54C5.88661 11.54 5.29898 11.6397 4.74998 11.8236V12.7001C4.74998 13.6627 5.52714 14.4437 6.48823 14.45L6.48997 14.45L6.49755 14.4501L6.49999 14.4501C7.46649 14.4501 8.24998 13.6666 8.24998 12.7001V11.8253Z" fill="black"/>
<path d="M3.24998 12.6013C1.88575 13.6017 1.00002 15.2162 1.00002 17.0375L1 21.78C0.999991 22.4538 1.54621 23 2.22001 23H10.78C11.4538 23 12 22.4538 12 21.78L12 18.8601L11.995 17.0226C11.9901 15.2091 11.1075 13.6027 9.74998 12.6049V12.7001C9.74998 14.2404 8.67837 15.5305 7.23997 15.8655V17.0379C7.95599 17.3329 8.46001 18.0377 8.46001 18.8601C8.46001 19.9481 7.57801 20.8301 6.49001 20.8301C5.40201 20.8301 4.52 19.9481 4.52 18.8601C4.52 18.0377 5.02399 17.333 5.73997 17.0379V15.8607C4.31167 15.5185 3.24998 14.2333 3.24998 12.7001V12.6013Z" fill="black"/>
<path d="M6.02 18.8601C6.02 18.6006 6.23043 18.3901 6.49001 18.3901C6.74959 18.3901 6.96001 18.6006 6.96001 18.8601C6.96001 19.1197 6.74959 19.3301 6.49001 19.3301C6.23043 19.3301 6.02 19.1197 6.02 18.8601Z" fill="black"/>
<path d="M19.6758 5.10613C19.6764 5.10621 19.6717 5.11004 19.6598 5.11743C19.6692 5.10976 19.6751 5.10606 19.6758 5.10613Z" fill="black"/>
<path d="M15.3402 5.11743C15.3283 5.11004 15.3236 5.10621 15.3242 5.10613C15.3249 5.10606 15.3308 5.10976 15.3402 5.11743Z" fill="black"/>
<path fill-rule="evenodd" clip-rule="evenodd" d="M12 1.5C12 1.22386 12.2239 1 12.5 1H22.5C22.7761 1 23 1.22386 23 1.5V11.5C23 11.7761 22.7761 12 22.5 12H12.5C12.2239 12 12 11.7761 12 11.5V1.5ZM17.5 2.08326C17.9142 2.08326 18.25 2.41904 18.25 2.83326V2.95456C18.3902 2.93628 18.5131 2.9135 18.6145 2.88814C18.6565 2.87766 18.692 2.8674 18.7215 2.85782C18.8575 2.66649 19.0809 2.54166 19.3334 2.54166C19.7476 2.54166 20.0834 2.87744 20.0834 3.29166C20.0834 3.78381 19.7026 4.03793 19.571 4.11571C19.3892 4.22317 19.176 4.29394 18.9783 4.34335C18.7634 4.39708 18.5163 4.43776 18.25 4.46417V5.40959C18.6495 5.37897 18.996 5.32518 19.2626 5.25853C19.4119 5.22121 19.5164 5.18464 19.5835 5.1558C19.7082 4.91475 19.9599 4.75 20.25 4.75C20.6642 4.75 21 5.08579 21 5.5C21 6.0238 20.5935 6.30805 20.4155 6.41326C20.1873 6.54813 19.907 6.64359 19.6264 6.71374C19.2369 6.81113 18.7647 6.87955 18.25 6.91336V7.89525C18.5079 7.86485 18.7305 7.82008 18.9049 7.76777C18.9961 7.74039 19.0619 7.71456 19.1066 7.69407C19.2237 7.43235 19.4863 7.25 19.7916 7.25C20.2058 7.25 20.5416 7.58579 20.5416 8C20.5416 8.45853 20.2351 8.74482 20.0454 8.87935C19.8362 9.0277 19.5822 9.1306 19.3359 9.20451C19.0221 9.29863 18.6512 9.36607 18.25 9.40345V10.1667C18.25 10.5809 17.9142 10.9167 17.5 10.9167C17.0858 10.9167 16.75 10.5809 16.75 10.1667V9.40346C16.3488 9.36609 15.9777 9.29864 15.664 9.20451C15.4176 9.1306 15.1636 9.0277 14.9544 8.87935C14.7648 8.74482 14.4583 8.45853 14.4583 8C14.4583 7.58579 14.794 7.25 15.2083 7.25C15.5135 7.25 15.7762 7.43235 15.8932 7.69407C15.9379 7.71456 16.0037 7.74039 16.095 7.76777C16.2694 7.82009 16.4921 7.86487 16.75 7.89527V6.91336C16.2353 6.87955 15.7631 6.81113 15.3736 6.71374C15.093 6.64359 14.8127 6.54813 14.5845 6.41326C14.4065 6.30805 14 6.0238 14 5.5C14 5.08579 14.3358 4.75 14.75 4.75C15.0401 4.75 15.2918 4.91475 15.4165 5.1558C15.4836 5.18464 15.5881 5.22121 15.7374 5.25853C16.004 5.32518 16.3505 5.37897 16.75 5.40959V4.46416C16.4838 4.43774 16.2367 4.39707 16.0218 4.34335C15.8242 4.29394 15.611 4.22317 15.4292 4.11571C15.2976 4.03793 14.9167 3.78381 14.9167 3.29166C14.9167 2.87744 15.2525 2.54166 15.6667 2.54166C15.9193 2.54166 16.1427 2.66649 16.2786 2.85782C16.3082 2.8674 16.3437 2.87766 16.3856 2.88814C16.487 2.91349 16.6099 2.93626 16.75 2.95454V2.83326C16.75 2.41904 17.0858 2.08326 17.5 2.08326Z" fill="black"/>
</svg>
