<svg width="24" height="24" viewBox="0 0 24 24" fill="none" xmlns="http://www.w3.org/2000/svg">
<path fill-rule="evenodd" clip-rule="evenodd" d="M4 8C4 3.58172 7.58172 0 12 0C16.4183 0 20 3.58172 20 8C20 12.0796 16.9463 15.446 13 15.9381V19H15C15.5523 19 16 19.4477 16 20C16 20.5523 15.5523 21 15 21H13V23C13 23.5523 12.5523 24 12 24C11.4477 24 11 23.5523 11 23L11 21H9C8.44772 21 8 20.5523 8 20C8 19.4477 8.44772 19 9 19H11L11 15.9381C7.05369 15.446 4 12.0796 4 8ZM18 8C18 11.3137 15.3137 14 12 14C8.68629 14 6 11.3137 6 8C6 4.68629 8.68629 2 12 2C15.3137 2 18 4.68629 18 8Z" fill="black"/>
</svg>
