<svg width="24" height="24" viewBox="0 0 24 24" fill="none" xmlns="http://www.w3.org/2000/svg">
<g clip-path="url(#clip0_1607_10781)">
<path fill-rule="evenodd" clip-rule="evenodd" d="M18.1414 0.0101779C17.5947 -0.0679272 17.0882 0.311971 17.01 0.858705C16.9319 1.40544 17.3118 1.91197 17.8586 1.99008L20.2537 2.33224L17.3347 5.25123C16.2597 4.46456 14.9341 4.00013 13.5 4.00013C12.2114 4.00013 11.0103 4.37512 10 5.02195C8.9897 4.37512 7.78864 4.00013 6.5 4.00013C2.91015 4.00013 0 6.91028 0 10.5001C0 13.7499 2.38491 16.4427 5.5 16.9237L5.5 20.0001H4C3.44772 20.0001 3 20.4478 3 21.0001C3 21.5524 3.44772 22.0001 4 22.0001H5.5V23.0001C5.5 23.5524 5.94772 24.0001 6.5 24.0001C7.05228 24.0001 7.5 23.5524 7.5 23.0001V22.0001H9C9.55229 22.0001 10 21.5524 10 21.0001C10 20.4478 9.55229 20.0001 9 20.0001H7.5L7.5 16.9237C8.40926 16.7833 9.25631 16.4544 10 15.9783C11.0103 16.6251 12.2114 17.0001 13.5 17.0001C17.0899 17.0001 20 14.09 20 10.5001C20 9.06602 19.5356 7.74039 18.7489 6.66544L21.6679 3.74645L22.0101 6.14155C22.0882 6.68828 22.5947 7.06818 23.1414 6.99008C23.6882 6.91197 24.0681 6.40544 23.99 5.85871L23.3756 1.55796C23.3064 1.07398 22.9262 0.693714 22.4422 0.624575L18.1414 0.0101779ZM11.571 14.5669C12.1556 14.8447 12.8096 15.0001 13.5 15.0001C15.9853 15.0001 18 12.9854 18 10.5001C18 8.01485 15.9853 6.00013 13.5 6.00013C12.8096 6.00013 12.1556 6.15558 11.571 6.43339C12.4651 7.54684 13 8.96102 13 10.5001C13 12.0392 12.4651 13.4534 11.571 14.5669ZM10 7.67146C10.6254 8.44432 11 9.42848 11 10.5001C11 11.5718 10.6254 12.5559 10 13.3288C9.3746 12.5559 9 11.5718 9 10.5001C9 9.42848 9.3746 8.44432 10 7.67146ZM8.42903 6.4334C7.53494 7.54685 7 8.96102 7 10.5001C7 12.0392 7.53494 13.4534 8.42903 14.5669C7.84439 14.8447 7.19035 15.0001 6.5 15.0001C4.01472 15.0001 2 12.9854 2 10.5001C2 8.01485 4.01472 6.00013 6.5 6.00013C7.19035 6.00013 7.84439 6.15558 8.42903 6.4334Z" fill="black"/>
</g>
<defs>
<clipPath id="clip0_1607_10781">
<rect width="24" height="24" fill="white"/>
</clipPath>
</defs>
</svg>
