<svg width="24" height="24" viewBox="0 0 24 24" fill="none" xmlns="http://www.w3.org/2000/svg">
<g clip-path="url(#clip0_1607_10790)">
<path fill-rule="evenodd" clip-rule="evenodd" d="M13.1414 0.0100506C12.5947 -0.0680546 12.0882 0.311844 12.0101 0.858578C11.9319 1.40531 12.3118 1.91184 12.8586 1.98995L14.3787 2.20711L10.9636 5.62222C9.81991 4.77065 8.40214 4.26667 6.86667 4.26667C3.07431 4.26667 0 7.34098 0 11.1333C0 14.6488 2.64171 17.5472 6.04827 17.9517C6.45283 21.3583 9.35125 24 12.8667 24C16.659 24 19.7333 20.9257 19.7333 17.1333C19.7333 15.5979 19.2293 14.1801 18.3778 13.0364L21.7929 9.62132L22.01 11.1414C22.0882 11.6882 22.5947 12.0681 23.1414 11.99C23.6882 11.9118 24.0681 11.4053 23.99 10.8586L23.5006 7.43283C23.4314 6.94885 23.0512 6.56859 22.5672 6.49945L19.1414 6.01005C18.5947 5.93195 18.0882 6.31184 18.01 6.85858C17.9319 7.40531 18.3118 7.91184 18.8586 7.98995L20.3787 8.20711L16.9636 11.6222C16.0262 10.9242 14.9046 10.4598 13.6851 10.3149C13.5402 9.09536 13.0758 7.97382 12.3778 7.03643L15.7929 3.62132L16.01 5.14142C16.0882 5.68816 16.5947 6.06805 17.1414 5.98995C17.6882 5.91185 18.0681 5.40531 17.99 4.85858L17.5006 1.43283C17.4314 0.948853 17.0512 0.568586 16.5672 0.499447L13.1414 0.0100506ZM11.6738 10.3699C11.3075 8.04479 9.29472 6.26667 6.86667 6.26667C4.17888 6.26667 2 8.44555 2 11.1333C2 13.5614 3.77813 15.5741 6.10324 15.9405C6.60005 13.1041 8.83747 10.8667 11.6738 10.3699ZM11.5543 12.4457C9.92151 12.9018 8.63516 14.1882 8.179 15.821C9.81182 15.3648 11.0982 14.0785 11.5543 12.4457ZM8.05953 17.8968C10.8959 17.4 13.1333 15.1625 13.6301 12.3262C15.9552 12.6925 17.7333 14.7053 17.7333 17.1333C17.7333 19.8211 15.5545 22 12.8667 22C10.4386 22 8.42586 20.2219 8.05953 17.8968Z" fill="black"/>
</g>
<defs>
<clipPath id="clip0_1607_10790">
<rect width="24" height="24" fill="white"/>
</clipPath>
</defs>
</svg>
