<svg width="24" height="24" viewBox="0 0 24 24" fill="none" xmlns="http://www.w3.org/2000/svg">
<g clip-path="url(#clip0_1607_10785)">
<path fill-rule="evenodd" clip-rule="evenodd" d="M6.36816 14.6695C2.77183 14.1814 0 11.0986 0 7.36842C0 3.29895 3.29895 1.77883e-07 7.36842 0C9.123 -7.66959e-08 10.7343 0.61326 11.9998 1.63713C13.2652 0.613275 14.8766 2.50739e-05 16.6311 2.50739e-05C20.7006 2.50739e-05 23.9995 3.29898 23.9995 7.36845C23.9995 11.0985 21.2279 14.1812 17.6318 14.6695V19.0059H19.5508C20.1031 19.0059 20.5508 19.4536 20.5508 20.0059C20.5508 20.5582 20.1031 21.0059 19.5508 21.0059H17.6318V23C17.6318 23.5523 17.1841 24 16.6318 24C16.0796 24 15.6318 23.5523 15.6318 23V21.0059H13.7613C13.209 21.0059 12.7613 20.5582 12.7613 20.0059C12.7613 19.4536 13.209 19.0059 13.7613 19.0059H15.6318V14.6697C14.2669 14.4846 13.0208 13.9258 11.9998 13.0997C10.9789 13.9257 9.73287 14.4845 8.36816 14.6696V19.0059H10.2871C10.8394 19.0059 11.2871 19.4536 11.2871 20.0059C11.2871 20.5582 10.8394 21.0059 10.2871 21.0059H8.36816V23C8.36816 23.5523 7.92045 24 7.36816 24C6.81588 24 6.36816 23.5523 6.36816 23V21.0059H4.49764C3.94535 21.0059 3.49764 20.5582 3.49764 20.0059C3.49764 19.4536 3.94535 19.0059 4.49764 19.0059H6.36816V14.6695ZM10.6244 3.09976C9.72127 2.40982 8.5927 2 7.36842 2C4.40352 2 2 4.40352 2 7.36842C2 10.3333 4.40352 12.7368 7.36842 12.7368C8.59269 12.7368 9.72125 12.327 10.6244 11.6371C9.76696 10.4327 9.2627 8.95948 9.2627 7.36845C9.2627 5.7774 9.76697 4.30413 10.6244 3.09976ZM11.9998 10.085C11.5313 9.28812 11.2627 8.35965 11.2627 7.36845C11.2627 6.37723 11.5313 5.44875 11.9998 4.65186C12.4682 5.44875 12.7368 6.37721 12.7368 7.36842C12.7368 8.35964 12.4682 9.28811 11.9998 10.085ZM13.3751 11.6371C14.2326 10.4327 14.7368 8.95947 14.7368 7.36842C14.7368 5.77739 14.2326 4.30414 13.3752 3.09976C14.2783 2.40984 15.4068 2.00003 16.6311 2.00003C19.596 2.00003 21.9995 4.40355 21.9995 7.36845C21.9995 10.3333 19.596 12.7369 16.6311 12.7369C15.4068 12.7369 14.2783 12.327 13.3751 11.6371Z" fill="black"/>
</g>
<defs>
<clipPath id="clip0_1607_10785">
<rect width="24" height="24" fill="white"/>
</clipPath>
</defs>
</svg>
