<svg width="24" height="24" viewBox="0 0 24 24" fill="none" xmlns="http://www.w3.org/2000/svg">
<path d="M4 14.3904V15C4 19.4183 7.58172 23 12 23C13.4093 23 14.7335 22.6356 15.8835 21.9959L10.7379 18.7027C10.6386 18.6657 10.5472 18.6077 10.4709 18.5318L4 14.3904Z" fill="black"/>
<path d="M16.9009 20.8661L12.6368 18.1371L19.7951 15.1896L19.9994 15.0988C19.9705 17.4835 18.8983 19.6171 17.2179 21.0643L16.9009 20.8661Z" fill="black"/>
<path d="M10.75 9C10.75 8.58579 10.4142 8.25 10 8.25C9.58579 8.25 9.25 8.58579 9.25 9V9.02724C9.25 9.44145 9.58579 9.77724 10 9.77724C10.4142 9.77724 10.75 9.44145 10.75 9.02724V9Z" fill="black"/>
<path d="M14 8.25004C14.4142 8.25004 14.75 8.58583 14.75 9.00004V9.02724C14.75 9.44145 14.4142 9.77724 14 9.77724C13.5858 9.77724 13.25 9.44145 13.25 9.02724V9.00004C13.25 8.58583 13.5858 8.25004 14 8.25004Z" fill="black"/>
<path d="M11.5303 10.4697C11.2374 10.1768 10.7626 10.1768 10.4697 10.4697C10.1768 10.7626 10.1768 11.2374 10.4697 11.5303C11.3148 12.3755 12.6852 12.3755 13.5303 11.5303C13.8232 11.2374 13.8232 10.7626 13.5303 10.4697C13.2374 10.1768 12.7626 10.1768 12.4697 10.4697C12.2103 10.7291 11.7897 10.7291 11.5303 10.4697Z" fill="black"/>
<path fill-rule="evenodd" clip-rule="evenodd" d="M20 9V13.457L19.2049 13.8104L11.0945 17.15L4.40429 12.8683L4.3975 12.864L4 12.6156V9C4 4.58172 7.58172 1 12 1C16.4183 1 20 4.58172 20 9ZM17 9C17 11.7614 14.7614 14 12 14C9.23858 14 7 11.7614 7 9C7 6.23858 9.23858 4 12 4C14.7614 4 17 6.23858 17 9Z" fill="black"/>
</svg>
