<svg width="24" height="24" viewBox="0 0 24 24" fill="none" xmlns="http://www.w3.org/2000/svg">
<path d="M7.00001 6.55556C8.53413 6.55556 9.77778 5.3119 9.77778 3.77778C9.77778 2.24365 8.53413 1 7.00001 1C5.46588 1 4.22223 2.24365 4.22223 3.77778C4.22223 5.3119 5.46588 6.55556 7.00001 6.55556Z" fill="black"/>
<path fill-rule="evenodd" clip-rule="evenodd" d="M19.8077 13.1538V14.3848H20.9231C21.5178 14.3848 22 14.8669 22 15.4617V21.9232C22 22.518 21.5178 23.0002 20.9231 23.0002H9.07692C8.48215 23.0002 8 22.518 8 21.9232V15.4617C8 15.4571 8.00003 15.4524 8.00009 15.4478C8.00076 15.3945 8.00531 15.3422 8.01345 15.291C8.09523 14.7773 8.54022 14.3847 9.07692 14.3847H10.1923V13.1539C10.1923 11.5183 11.5182 10.1923 13.1538 10.1923H16.8462C18.4818 10.1923 19.8077 11.5182 19.8077 13.1538ZM11.8077 13.1538C11.8077 12.4104 12.4104 11.8077 13.1538 11.8077H16.8462C17.5896 11.8077 18.1923 12.4104 18.1923 13.1538V14.3848H11.8077V13.1538ZM15 16.2501C15.4142 16.2501 15.75 16.5859 15.75 17.0001V17.7501H16.5C16.9142 17.7501 17.25 18.0859 17.25 18.5001C17.25 18.9143 16.9142 19.2501 16.5 19.2501H15.75V20.0001C15.75 20.4143 15.4142 20.7501 15 20.7501C14.5858 20.7501 14.25 20.4143 14.25 20.0001V19.2501H13.5C13.0858 19.2501 12.75 18.9143 12.75 18.5001C12.75 18.0859 13.0858 17.7501 13.5 17.7501H14.25V17.0001C14.25 16.5859 14.5858 16.2501 15 16.2501Z" fill="black"/>
<path d="M8.69874 12.9123C7.45483 13.0952 6.5 14.1669 6.5 15.4616V21.9232C6.5 21.949 6.50038 21.9747 6.50113 22.0003L2.99992 22.0001C2.44766 22.0001 2 21.5524 2 21.0001V13.7778C2 11.0164 4.23858 8.77783 7 8.77783C8.18338 8.77783 9.27073 9.18894 10.127 9.87612C9.29998 10.6402 8.76273 11.7134 8.69874 12.9123Z" fill="black"/>
</svg>
