<svg width="24" height="24" viewBox="0 0 24 24" fill="none" xmlns="http://www.w3.org/2000/svg">
<path d="M16.4995 5.5C16.4995 7.98528 14.4848 10 11.9995 10C9.51423 10 7.49951 7.98528 7.49951 5.5C7.49951 3.01472 9.51423 1 11.9995 1C14.4848 1 16.4995 3.01472 16.4995 5.5Z" fill="black"/>
<path d="M11.9995 13C11.2615 13 10.5421 13.08 9.84956 13.2317L11.84 14.8903C11.9327 14.9676 12.0673 14.9676 12.16 14.8903L14.1502 13.2319C13.4575 13.08 12.7378 13 11.9995 13Z" fill="black"/>
<path fill-rule="evenodd" clip-rule="evenodd" d="M2 22.8995C2.04057 18.7782 4.5743 15.2535 8.16524 13.7615L8.51067 14.0685L10.8797 16.0427C11.5287 16.5835 12.4713 16.5835 13.1203 16.0427L15.4893 14.0685L15.8344 13.7617C19.425 15.2539 21.9585 18.7784 21.999 22.8995C21.9996 22.9548 21.9547 23 21.8995 23H2.09951C2.04428 23 1.99946 22.9548 2 22.8995ZM15.5 16.25C15.9142 16.25 16.25 16.5858 16.25 17V18H16.5C17.0523 18 17.5 18.4477 17.5 19V19.5C17.5 20.0523 17.0523 20.5 16.5 20.5H14.5C13.9477 20.5 13.5 20.0523 13.5 19.5V19C13.5 18.4477 13.9477 18 14.5 18H14.75V17C14.75 16.5858 15.0858 16.25 15.5 16.25Z" fill="black"/>
</svg>
