<svg width="24" height="24" viewBox="0 0 24 24" fill="none" xmlns="http://www.w3.org/2000/svg">
<path d="M14.1808 5.09091C14.1808 7.35026 12.3493 9.18182 10.0899 9.18182C7.83059 9.18182 5.99902 7.35026 5.99902 5.09091C5.99902 2.83156 7.83059 1 10.0899 1C12.3493 1 14.1808 2.83156 14.1808 5.09091Z" fill="black"/>
<path d="M4.75643 17.9092H7.52197V21.0001H1.09046C1.04026 21.0001 0.99951 20.959 1 20.9088C1.03492 17.361 3.10211 14.2995 6.09319 12.8329L6.04541 13.0001L4.66905 17.7932C4.65237 17.8513 4.69598 17.9092 4.75643 17.9092Z" fill="black"/>
<path d="M11.1587 21.0001H9.02197V11.9713C9.37243 11.9303 9.72898 11.9092 10.0905 11.9092C10.4519 11.9092 10.8083 11.9303 11.1587 11.9713V21.0001Z" fill="black"/>
<path d="M12.6587 21.0001V17.9092H15.4221C15.4832 17.9092 15.5269 17.8501 15.509 17.7917L14.0454 13.0001L13.9832 12.7824C15.6537 13.5752 17.044 14.8622 17.9652 16.4546C18.0434 16.5898 18.1182 16.7272 18.1895 16.8667L15.9752 19.081C15.4382 19.6179 15.1339 20.2993 15.062 21.0001H12.6587Z" fill="black"/>
<path d="M17.0354 20.1415L17.8306 19.3463L20.1986 21.7143L19.4034 22.5096C18.7495 23.1635 17.6893 23.1635 17.0354 22.5096C16.3814 21.8557 16.3814 20.7955 17.0354 20.1415Z" fill="black"/>
<path d="M21.2593 20.6537L22.0545 19.8585C22.7084 19.2045 22.7084 18.1443 22.0545 17.4904C21.4006 16.8365 20.3404 16.8365 19.6865 17.4904L18.8912 18.2857L21.2593 20.6537Z" fill="black"/>
</svg>
