<svg width="24" height="24" viewBox="0 0 24 24" fill="none" xmlns="http://www.w3.org/2000/svg">
<g clip-path="url(#clip0_1607_10829)">
<path fill-rule="evenodd" clip-rule="evenodd" d="M8.49008 0.858705C8.41197 0.311971 7.90544 -0.0679272 7.35871 0.0101779L3.05795 0.624575C2.57397 0.693714 2.19371 1.07398 2.12457 1.55796L1.51018 5.85871C1.43207 6.40544 1.81197 6.91197 2.35871 6.99008C2.90544 7.06818 3.41197 6.68828 3.49008 6.14155L3.83223 3.74645L6.49194 6.40616C5.86217 7.45671 5.50013 8.68614 5.50013 10.0001C5.50013 13.5266 8.10783 16.444 11.5001 16.9292L11.5001 20.0001H9.50013C8.94784 20.0001 8.50013 20.4478 8.50013 21.0001C8.50013 21.5524 8.94784 22.0001 9.50013 22.0001H11.5001V23.0001C11.5001 23.5524 11.9478 24.0001 12.5001 24.0001C13.0524 24.0001 13.5001 23.5524 13.5001 23.0001V22.0001H15.5001C16.0524 22.0001 16.5001 21.5524 16.5001 21.0001C16.5001 20.4478 16.0524 20.0001 15.5001 20.0001H13.5001L13.5001 16.9292C16.8924 16.444 19.5001 13.5266 19.5001 10.0001C19.5001 8.42779 18.9817 6.97654 18.1065 5.80796L19.7177 4.19681L20.7636 5.24277C21.1541 5.63329 21.7873 5.63329 22.1778 5.24277C22.5684 4.85224 22.5684 4.21908 22.1778 3.82855L21.1319 2.7826L22.2072 1.70723C22.5978 1.31671 22.5978 0.683545 22.2072 0.293021C21.8167 -0.0975037 21.1835 -0.0975037 20.793 0.293021L19.7177 1.36838L18.6423 0.293021C18.2518 -0.0975037 17.6186 -0.0975037 17.2281 0.293021C16.8376 0.683545 16.8376 1.31671 17.2281 1.70723L18.3034 2.7826L16.6923 4.39374C15.5237 3.51853 14.0725 3.00013 12.5001 3.00013C10.6725 3.00013 9.00846 3.70054 7.76179 4.84758L5.24645 2.33224L7.64155 1.99008C8.18828 1.91197 8.56818 1.40544 8.49008 0.858705ZM7.50013 10.0001C7.50013 12.7616 9.7387 15.0001 12.5001 15.0001C15.2616 15.0001 17.5001 12.7616 17.5001 10.0001C17.5001 7.2387 15.2616 5.00013 12.5001 5.00013C9.7387 5.00013 7.50013 7.2387 7.50013 10.0001Z" fill="black"/>
</g>
<defs>
<clipPath id="clip0_1607_10829">
<rect width="24" height="24" fill="white"/>
</clipPath>
</defs>
</svg>
