<svg width="24" height="24" viewBox="0 0 24 24" fill="none" xmlns="http://www.w3.org/2000/svg">
<g clip-path="url(#clip0_1607_9712)">
<path d="M8.0703 5.54697L16.1701 8.07815M5.23706 8.1209L8 16.0455M8.15 4.575C8.15 6.54942 6.54942 8.15 4.575 8.15C2.60058 8.15 1 6.54942 1 4.575C1 2.60058 2.60058 1 4.575 1C6.54942 1 8.15 2.60058 8.15 4.575ZM13.4142 19.425C13.4142 21.3994 11.8136 23 9.83921 23C7.86479 23 6.26421 21.3994 6.26421 19.425C6.26421 17.4506 7.86479 15.85 9.83921 15.85C11.8136 15.85 13.4142 17.4506 13.4142 19.425ZM23 9.81772C23 11.7921 21.3994 13.3927 19.425 13.3927C17.4506 13.3927 15.85 11.7921 15.85 9.81772C15.85 7.84331 17.4506 6.24272 19.425 6.24272C21.3994 6.24272 23 7.84331 23 9.81772Z" stroke="black" stroke-width="1.5" stroke-linecap="round"/>
</g>
<defs>
<clipPath id="clip0_1607_9712">
<rect width="24" height="24" fill="white"/>
</clipPath>
</defs>
</svg>
