<svg width="24" height="24" viewBox="0 0 24 24" fill="none" xmlns="http://www.w3.org/2000/svg">
<g clip-path="url(#clip0_1607_9733)">
<path d="M9 13.5H13.5C14.0523 13.5 14.5 13.0523 14.5 12.5V8M3 22V23M11 22V23M17.5 8V8.03178M4.5 18V11C4.5 10.4477 4.05228 10 3.5 10H2C1.44772 10 1 10.4477 1 11V21C1 21.5523 1.44772 22 2 22L11.2345 22C11.7868 22 12.2345 21.5523 12.2345 21V20C12.2345 19.4477 11.7868 19 11.2345 19L5.5 19M4.5 18C4.5 18.5523 4.94772 19 5.5 19M4.5 18L4.49999 13.6913C4.5 12.3975 5.36591 11.2638 6.61408 10.9234C8.3639 10.4462 10.1119 11.6922 10.2317 13.5019L10.3612 15.4595C10.3647 15.5125 10.409 15.5535 10.4621 15.5529L14.1132 15.5103C14.3621 15.5074 14.6031 15.5975 14.7892 15.7629L18.2152 18.8082C18.6423 19.1879 18.665 19.8476 18.265 20.2557L17.3689 21.1698C17.0015 21.5445 16.407 21.5716 16.0071 21.2317L13.6618 19.2381C13.481 19.0844 13.2514 19 13.0141 19L5.5 19M20.5 8V8.03178M22.9903 5.95145L22.0804 1.40194C22.0336 1.16823 21.8284 1 21.5901 1H13.4099C13.1716 1 12.9664 1.16823 12.9196 1.40194L12.0097 5.95145C12.0033 5.98374 12 6.01658 12 6.04951V10.5C12 10.7761 12.2239 11 12.5 11H22.5C22.7761 11 23 10.7761 23 10.5V6.04951C23 6.01658 22.9967 5.98374 22.9903 5.95145ZM9.27002 6.13501C9.27002 7.31414 8.31414 8.27002 7.13501 8.27002C5.95588 8.27002 5 7.31414 5 6.13501C5 4.95588 5.95588 4 7.13501 4C8.31414 4 9.27002 4.95588 9.27002 6.13501ZM15.5 5H19.5C19.7761 5 20 4.77614 20 4.5V3.5C20 3.22386 19.7761 3 19.5 3H15.5C15.2239 3 15 3.22386 15 3.5V4.5C15 4.77614 15.2239 5 15.5 5Z" stroke="black" stroke-width="1.5" stroke-linecap="round"/>
</g>
<defs>
<clipPath id="clip0_1607_9733">
<rect width="24" height="24" fill="white"/>
</clipPath>
</defs>
</svg>
