<svg width="24" height="24" viewBox="0 0 24 24" fill="none" xmlns="http://www.w3.org/2000/svg">
<g clip-path="url(#clip0_1607_9729)">
<path d="M7.99998 19.5V17.5C7.99998 16.9477 8.4477 16.5 8.99998 16.5H13.5C14.0523 16.5 14.5 16.0523 14.5 15.5V8M6.99998 18.5H8.99998M17.5 8V8.03178M20.5 8V8.03178M22.9903 5.95145L22.0804 1.40194C22.0336 1.16823 21.8284 1 21.5901 1H13.4099C13.1715 1 12.9663 1.16823 12.9196 1.40194L12.0097 5.95145C12.0032 5.98374 12 6.01658 12 6.04951V10.5C12 10.7761 12.2238 11 12.5 11H22.5C22.7761 11 23 10.7761 23 10.5V6.04951C23 6.01658 22.9967 5.98374 22.9903 5.95145ZM15.5 5H19.5C19.7761 5 20 4.77614 20 4.5V3.5C20 3.22386 19.7761 3 19.5 3H15.5C15.2238 3 15 3.22386 15 3.5V4.5C15 4.77614 15.2238 5 15.5 5ZM9.54019 6.05001C9.54019 7.73449 8.17466 9.10003 6.49018 9.10003C4.80571 9.10003 3.44017 7.73449 3.44017 6.05001C3.44017 4.36554 4.80571 3 6.49018 3C8.17466 3 9.54019 4.36554 9.54019 6.05001ZM1.00002 17.0375C1.00002 14.0014 3.46133 11.54 6.49752 11.54C9.52786 11.54 11.9867 13.9922 11.995 17.0226L12 18.8601L12 21.78C12 22.4538 11.4538 23 10.78 23H2.22001C1.54621 23 0.999991 22.4538 1 21.78L1.00002 17.0375Z" stroke="black" stroke-width="1.5" stroke-linecap="round"/>
</g>
<defs>
<clipPath id="clip0_1607_9729">
<rect width="24" height="24" fill="white"/>
</clipPath>
</defs>
</svg>
