<svg width="24" height="24" viewBox="0 0 24 24" fill="none" xmlns="http://www.w3.org/2000/svg">
<g clip-path="url(#clip0_1607_9741)">
<path d="M3.5 22V23M11.5 22V23M5 18V11C5 10.4477 4.55228 10 4 10H2.5C1.94772 10 1.5 10.4477 1.5 11V21C1.5 21.5523 1.94772 22 2.5 22L11.7345 22C12.2868 22 12.7345 21.5523 12.7345 21V20C12.7345 19.4477 12.2868 19 11.7345 19L6 19M5 18C5 18.5523 5.44772 19 6 19M5 18L4.99999 13.6913C5 12.3975 5.86591 11.2638 7.11408 10.9234C8.8639 10.4462 10.6119 11.6922 10.7317 13.5019L10.8612 15.4595C10.8647 15.5125 10.909 15.5535 10.9621 15.5529L14.6132 15.5103C14.8621 15.5074 15.1031 15.5975 15.2892 15.7629L18.7152 18.8082C19.1423 19.1879 19.165 19.8476 18.765 20.2557L17.8689 21.1698C17.5015 21.5445 16.907 21.5716 16.5071 21.2317L14.1618 19.2381C13.981 19.0844 13.7514 19 13.5141 19L6 19M8.5 13.5002L15.7834 13.5001C16.3356 13.5001 16.7834 13.0524 16.7834 12.5001V7.83594M18 3.5V3.53178M15 3.5V3.53178M21 3.5V3.53178M9.77002 6.13501C9.77002 7.31414 8.81414 8.27002 7.63501 8.27002C6.45588 8.27002 5.5 7.31414 5.5 6.13501C5.5 4.95588 6.45588 4 7.63501 4C8.81414 4 9.77002 4.95588 9.77002 6.13501ZM13 11H23C23.2761 11 23.5 10.7761 23.5 10.5V1.5C23.5 1.22386 23.2761 1 23 1H13C12.7239 1 12.5 1.22386 12.5 1.5V10.5C12.5 10.7761 12.7239 11 13 11ZM19.5081 7.65125C19.5081 8.40706 18.8953 9.01978 18.1395 9.01978C17.3837 9.01978 16.771 8.40706 16.771 7.65125C16.771 6.89543 17.3837 6.28271 18.1395 6.28271C18.8953 6.28271 19.5081 6.89543 19.5081 7.65125Z" stroke="black" stroke-width="1.5" stroke-linecap="round" stroke-linejoin="round"/>
</g>
<defs>
<clipPath id="clip0_1607_9741">
<rect width="24" height="24" fill="white"/>
</clipPath>
</defs>
</svg>
