<svg width="24" height="24" viewBox="0 0 24 24" fill="none" xmlns="http://www.w3.org/2000/svg">
<path d="M6.99997 9H16.5M7.49997 3H16.5M7.49997 21H16.5M5.99997 12H18M7.49997 15H17M6.77927 23C6.77927 21.1492 8.33425 19.4663 10.7656 18.6858L12.3896 18.1644C19.716 15.8124 19.9103 8.67147 12.717 6.13128L10.6932 5.41662C8.2908 4.56825 6.77927 2.86259 6.77927 1M17.2205 1C17.2205 2.85081 15.6655 4.53368 13.2341 5.31422L11.6101 5.83556C4.28369 8.18755 4.0894 15.3285 11.2827 17.8687L13.3065 18.5834C15.7089 19.4317 17.2205 21.1374 17.2205 23" stroke="black" stroke-width="1.5" stroke-linecap="round"/>
</svg>
