<svg width="24" height="24" viewBox="0 0 24 24" fill="none" xmlns="http://www.w3.org/2000/svg">
<path d="M5.74989 6.5C5.74989 6.91422 6.08567 7.25 6.49989 7.25C6.9141 7.25 7.24989 6.91422 7.24989 6.5L5.74989 6.5ZM6.49989 5L7.24989 5L7.24989 5L6.49989 5ZM9.49989 2L9.49989 1.25L9.49989 1.25L9.49989 2ZM14.5 2L14.5 2.75L14.5 2.75L14.5 2ZM17.5 5L16.75 5V5H17.5ZM16.75 6.5C16.75 6.91422 17.0858 7.25 17.5 7.25C17.9142 7.25 18.25 6.91422 18.25 6.5H16.75ZM13.5996 14.75C14.0138 14.75 14.3496 14.4142 14.3496 14C14.3496 13.5858 14.0138 13.25 13.5996 13.25L13.5996 14.75ZM10.3995 13.2501C9.98526 13.2501 9.64948 13.5859 9.64949 14.0001C9.64951 14.4143 9.9853 14.7501 10.3995 14.7501L10.3995 13.2501ZM11.25 15.6001C11.25 16.0143 11.5858 16.3501 12 16.3501C12.4142 16.3501 12.75 16.0143 12.75 15.6001H11.25ZM12.75 12.4001C12.75 11.9859 12.4142 11.6501 12 11.6501C11.5858 11.6501 11.25 11.9859 11.25 12.4001H12.75ZM2 7.25H22V5.75H2V7.25ZM22.25 7.5V21H23.75V7.5H22.25ZM22 21.25H2V22.75H22V21.25ZM1.75 21V7.5H0.25V21H1.75ZM2 21.25C1.86193 21.25 1.75 21.1381 1.75 21H0.25C0.25 21.9665 1.0335 22.75 2 22.75V21.25ZM22.25 21C22.25 21.1381 22.1381 21.25 22 21.25V22.75C22.9665 22.75 23.75 21.9665 23.75 21H22.25ZM22 7.25C22.1381 7.25 22.25 7.36193 22.25 7.5H23.75C23.75 6.5335 22.9665 5.75 22 5.75V7.25ZM2 5.75C1.0335 5.75 0.25 6.5335 0.25 7.5H1.75C1.75 7.36193 1.86193 7.25 2 7.25V5.75ZM7.24989 6.5L7.24989 5L5.74989 5L5.74989 6.5L7.24989 6.5ZM9.49989 2.75L14.5 2.75L14.5 1.25L9.49989 1.25L9.49989 2.75ZM16.75 5V6.5H18.25V5H16.75ZM14.5 2.75C15.7426 2.75 16.75 3.75736 16.75 5L18.25 5C18.25 2.92893 16.5711 1.25 14.5 1.25L14.5 2.75ZM7.24989 5C7.24989 3.75736 8.25724 2.75 9.49989 2.75L9.49989 1.25C7.42882 1.25 5.74989 2.92893 5.74989 5L7.24989 5ZM15.25 14C15.25 15.7949 13.7949 17.25 12 17.25V18.75C14.6234 18.75 16.75 16.6234 16.75 14H15.25ZM12 17.25C10.2051 17.25 8.75 15.7949 8.75 14H7.25C7.25 16.6234 9.37665 18.75 12 18.75V17.25ZM8.75 14C8.75 12.2051 10.2051 10.75 12 10.75V9.25C9.37665 9.25 7.25 11.3767 7.25 14H8.75ZM12 10.75C13.7949 10.75 15.25 12.2051 15.25 14H16.75C16.75 11.3767 14.6234 9.25 12 9.25V10.75ZM13.5996 13.25L10.3995 13.2501L10.3995 14.7501L13.5996 14.75L13.5996 13.25ZM12.75 15.6001V12.4001H11.25V15.6001H12.75ZM1 13.75H8.12602V12.25H1V13.75ZM15.874 13.75H23V12.25H15.874V13.75Z" fill="black"/>
</svg>
