<svg width="24" height="24" viewBox="0 0 24 24" fill="none" xmlns="http://www.w3.org/2000/svg">
<path d="M6.36607 8.01854L9.9692 7.05126L10.2588 6.95945M5.5096 5.06241L9.36611 4M18.6745 19.1718L14.7982 20.1865M10.2588 6.95945C10.1927 6.83641 10.139 6.70496 10.0994 6.5665L8.92356 2.45107C8.62011 1.389 7.51314 0.774018 6.45107 1.07747C5.389 1.38092 4.77402 2.48789 5.07747 3.54996L6.2533 7.66538C6.58306 8.81954 7.23898 9.81247 8.10378 10.5557C7.27994 11.3375 6.68708 12.37 6.45108 13.55L5.9834 15.8884M10.2588 6.95945C10.5979 7.59066 11.2617 8.00051 12.0005 8.00051C12.823 8.00051 13.5526 7.49255 13.8446 6.7367M14.7043 3.75712L13.9016 6.5665C13.8851 6.6245 13.866 6.68127 13.8446 6.7367M14.7043 3.75712L15.0775 2.45107C15.3809 1.389 16.4879 0.774018 17.55 1.07747C18.612 1.38092 19.227 2.48789 18.9236 3.54996L18.5639 4.80871M14.7043 3.75712L18.5639 4.80871M13.8446 6.7367L17.713 7.78241M17.713 7.78241C17.725 7.74359 17.7365 7.70458 17.7477 7.66539L18.5639 4.80871M17.713 7.78241C17.3732 8.88666 16.7327 9.83766 15.8973 10.5557C16.7212 11.3375 17.3141 12.37 17.5501 13.55L18.0636 16.1174M5.37844 18.9132L5.03943 20.6083C4.8228 21.6914 5.52524 22.745 6.60836 22.9617C7.69148 23.1783 8.74513 22.4758 8.96175 21.3927L9.2516 19.9435M5.37844 18.9132L9.2516 19.9435M5.37844 18.9132L5.9834 15.8884M9.2516 19.9435L9.8574 16.9145M5.9834 15.8884L9.8574 16.9145M9.8574 16.9145L10.3734 14.3345C10.5285 13.5588 11.2096 13.0005 12.0006 13.0005C12.7916 13.0005 13.4726 13.5588 13.6278 14.3345L14.1941 17.1661M14.1941 17.1661L15.0394 21.3927C15.2561 22.4759 16.3097 23.1783 17.3928 22.9617C18.4759 22.745 19.1784 21.6914 18.9618 20.6083L18.0636 16.1174M14.1941 17.1661L18.0636 16.1174" stroke="black" stroke-width="1.5" stroke-linecap="round"/>
</svg>
