<svg width="24" height="24" viewBox="0 0 24 24" fill="none" xmlns="http://www.w3.org/2000/svg">
<path d="M17.938 17.7512L18.0578 17.8639L20.0295 19.7186M17.938 17.7512C18.6528 16.9506 18.9838 15.9281 18.9413 14.9215M17.938 17.7512C17.2608 18.5096 16.3604 18.9331 15.4336 19.0131M5.91164 6.43875C6.62535 5.63941 7.58704 5.21209 8.56616 5.16683M5.91164 6.43875L5.83008 6.36219L3.81976 4.47122M5.91164 6.43875C5.23588 7.19558 4.90316 8.1507 4.90474 9.10326M7.8728 17.5998L9.48752 15.7914L9.79281 15.4333M10.6919 20.2516L12.3066 18.4432L12.6126 18.0823M4.93677 14.8383L6.55148 13.0298L6.86612 12.6803M16.7983 7.36277L14.9417 9.44201L14.8657 9.51747M19.6173 10.0144L17.7617 12.0928L17.6851 12.1695M13.9792 4.7111L12.1334 6.77832L12.0463 6.86543M8.61956 2L8.56616 4.94305V5.16683M15.3802 21.9999L15.4336 19.0569V19.0131M2 9.414L4.85188 9.10326H4.90474M22 14.586L19.1481 14.8967L18.9413 14.9215M9 8L11.2013 10M12.0463 6.86543L11.3411 6.20211C10.5553 5.46295 9.55189 5.12127 8.56616 5.16683M12.0463 6.86543L14.8657 9.51747M18.9413 14.9215C18.8986 13.9113 18.4798 12.917 17.6952 12.179L17.6851 12.1695M17.6851 12.1695L14.8657 9.51747M4.90474 9.10326C4.9065 10.1696 5.32718 11.2327 6.1545 12.011L6.86612 12.6803M6.86612 12.6803L9.79281 15.4333M9.79281 15.4333L12.5086 17.9878C12.5428 18.02 12.5775 18.0515 12.6126 18.0823M12.6126 18.0823C13.4227 18.7918 14.4432 19.0986 15.4336 19.0131" stroke="black" stroke-width="1.5" stroke-linecap="round"/>
</svg>
