<svg width="24" height="24" viewBox="0 0 24 24" fill="none" xmlns="http://www.w3.org/2000/svg">
<path d="M5.81289 9.531L5.68956 8.79121L5.68956 8.79121L5.81289 9.531ZM12.2268 8.46177L12.3501 9.20156L12.3501 9.20156L12.2268 8.46177ZM2.41873 8.15495L2.10437 8.83589L2.10437 8.83589L2.41873 8.15495ZM5.22957 9.45256L5.54392 8.77162L5.54392 8.77162L5.22957 9.45256ZM1.4452 11.2969L1.86129 10.6729L1.86129 10.6729L1.4452 11.2969ZM2.84802 12.2323L2.43193 12.8563L2.43193 12.8563L2.84802 12.2323ZM3.00441 12.7372L3.75361 12.7025L3.75361 12.7025L3.00441 12.7372ZM2.99953 13L3.74953 13V13H2.99953ZM3.00035 12.9593L3.74975 12.9893L3.74975 12.9893L3.00035 12.9593ZM2.99953 21L2.24953 21V21H2.99953ZM7.43216 19.6411L6.73214 19.9103L6.73214 19.9103L7.43216 19.6411ZM6.91139 17.4362L6.17594 17.2891L6.91139 17.4362ZM6.81432 17.9216L6.07888 17.7745L6.07888 17.7745L6.81432 17.9216ZM13.9069 21.0995L13.1607 21.1741L13.1607 21.1741L13.9069 21.0995ZM13.5871 17.9005L12.8408 17.9751L12.8408 17.9751L13.5871 17.9005ZM17.8376 19.4596L17.2069 19.8654L17.2069 19.8654L17.8376 19.4596ZM18.1047 12.4855L18.7479 12.8713L18.7479 12.8713L18.1047 12.4855ZM17.1387 14.0958L16.4956 13.71L16.4956 13.71L17.1387 14.0958ZM22.8484 9.72761L23.576 9.90947L23.576 9.90947L22.8484 9.72761ZM22.9697 9.24254L22.242 9.06067L22.242 9.06068L22.9697 9.24254ZM12.8549 8.08508L12.2603 7.62787L12.2603 7.62787L12.8549 8.08508ZM16.9963 4.06356L16.8508 3.32781L16.7292 3.35185L16.6218 3.41375L16.9963 4.06356ZM18.746 7.00005C18.746 6.58584 18.4102 6.25005 17.996 6.25005C17.5818 6.25005 17.246 6.58584 17.246 7.00005H18.746ZM17.246 7.03178C17.246 7.44599 17.5818 7.78178 17.996 7.78178C18.4102 7.78178 18.746 7.44599 18.746 7.03178H17.246ZM6.34695 12.9477L7.09264 12.8674L7.09241 12.8652L6.34695 12.9477ZM7.50432 13.8271L7.62688 14.5671L7.62688 14.5671L7.50432 13.8271ZM11.5655 13.1544L11.4429 12.4145L11.4429 12.4145L11.5655 13.1544ZM12.3962 12.0608L13.1419 11.9805L13.1417 11.9789L12.3962 12.0608ZM8.39739 11.1435C8.64537 11.4752 9.11536 11.5432 9.44714 11.2952C9.77892 11.0472 9.84686 10.5772 9.59887 10.2454L8.39739 11.1435ZM3.69462 3.59877L4.29536 3.14976L3.69462 3.59877ZM5.79916 2.38218L5.20937 2.84548L5.20937 2.84548L5.79916 2.38218ZM20.9034 10.0632L21.182 9.36689L21.182 9.36689L20.9034 10.0632ZM21.9951 10.5L21.7165 11.1963L21.7192 11.1974L21.9951 10.5ZM20.5678 8.42764L21.0982 8.95791L21.0982 8.95791L20.5678 8.42764ZM20.9953 8L21.5257 8.53027L21.5328 8.52318L21.5397 8.5159L20.9953 8ZM12.9042 6.6907L12.9789 5.94442L12.9789 5.94442L12.9042 6.6907ZM12.2446 5.04487L11.6751 4.55684L11.6751 4.55684L12.2446 5.04487ZM16.2061 6.1615L15.4785 5.97964L15.4785 5.97964L16.2061 6.1615ZM15.1367 6.914L15.062 7.66027L15.062 7.66027L15.1367 6.914ZM13.6977 3.34921L14.2672 3.83724L14.2672 3.83724L13.6977 3.34921ZM12.3994 12.2412L11.6514 12.1869L12.3994 12.2412ZM13.8541 6.78571L13.9288 6.03944L13.9288 6.03944L13.8541 6.78571ZM10.7661 8.70526L10.8895 9.44505L10.8895 9.44505L10.7661 8.70526ZM12.005 8.49874L11.8817 7.75895L11.8817 7.75895L12.005 8.49874ZM2.10437 8.83589L4.91521 10.1335L5.54392 8.77162L2.73308 7.47401L2.10437 8.83589ZM1.75 9.06291C1.75 8.88021 1.93913 8.75961 2.10437 8.83589L2.73308 7.47401C1.57339 6.93864 0.25 7.78603 0.25 9.06291H1.75ZM1.75 10.4648V9.06291H0.25V10.4648H1.75ZM1.86129 10.6729C1.79181 10.6265 1.75 10.5485 1.75 10.4648H0.25C0.25 11.0499 0.542318 11.5963 1.0291 11.9209L1.86129 10.6729ZM3.26411 11.6083L1.86129 10.6729L1.0291 11.9209L2.43193 12.8563L3.26411 11.6083ZM3.75361 12.7025C3.7509 12.6442 3.74953 12.5855 3.74953 12.5264H2.24953C2.24953 12.6087 2.25144 12.6906 2.25522 12.772L3.75361 12.7025ZM3.74953 13C3.74953 12.9964 3.74961 12.9928 3.74975 12.9893L2.25095 12.9293C2.25001 12.9528 2.24953 12.9764 2.24953 13H3.74953ZM3.74953 21L3.74953 13L2.24953 13L2.24953 21L3.74953 21ZM3.9993 21.25C3.86152 21.25 3.74953 21.1382 3.74953 21H2.24953C2.24953 21.9663 3.03276 22.75 3.9993 22.75V21.25ZM6.74848 21C6.74848 21.1382 6.63649 21.25 6.49872 21.25V22.75C7.46525 22.75 8.24848 21.9663 8.24848 21H6.74848ZM6.74848 20V21H8.24848V20H6.74848ZM6.73214 19.9103C6.74246 19.9371 6.74848 19.967 6.74848 20H8.24848C8.24848 19.78 8.20754 19.5678 8.13218 19.3719L6.73214 19.9103ZM6.17594 17.2891L6.07888 17.7745L7.54976 18.0687L7.64683 17.5832L6.17594 17.2891ZM12.5923 16.25H7.47204V17.75H12.5923V16.25ZM14.6532 21.0249L14.3334 17.8259L12.8408 17.9751L13.1607 21.1741L14.6532 21.0249ZM14.9017 21.25C14.7736 21.25 14.666 21.1528 14.6532 21.0249L13.1607 21.1741C13.2501 22.0686 14.0026 22.75 14.9017 22.75V21.25ZM17.246 21C17.246 21.1382 17.134 21.25 16.9963 21.25V22.75C17.9628 22.75 18.746 21.9663 18.746 21H17.246ZM17.246 20V21H18.746V20H17.246ZM17.2069 19.8654C17.2316 19.9038 17.246 19.9491 17.246 20H18.746C18.746 19.6528 18.6441 19.3271 18.4684 19.0538L17.2069 19.8654ZM16.2463 14.6103V18H17.7463V14.6103H16.2463ZM17.4615 12.0997L16.4956 13.71L17.7819 14.4816L18.7479 12.8713L17.4615 12.0997ZM19.9387 11.25H18.962V12.75H19.9387V11.25ZM22.242 9.06068L22.1208 9.54575L23.576 9.90947L23.6973 9.4244L22.242 9.06068ZM21.9997 8.75C22.162 8.75 22.2815 8.90266 22.242 9.06067L23.6973 9.4244C23.9733 8.32012 23.1383 7.25 21.9997 7.25V8.75ZM21.6449 8.75H21.9997V7.25H21.6449V8.75ZM17.6458 4.75C19.0813 4.75 20.2453 5.91403 20.2453 7.35031H21.7453C21.7453 5.08593 19.9101 3.25 17.6458 3.25V4.75ZM12.5923 17.75C12.7205 17.75 12.828 17.8472 12.8408 17.9751L14.3334 17.8259C14.244 16.9314 13.4914 16.25 12.5923 16.25V17.75ZM17.7463 14.6103C17.7463 14.565 17.7586 14.5205 17.7819 14.4816L16.4956 13.71C16.3324 13.982 16.2463 14.2932 16.2463 14.6103H17.7463ZM7.64683 17.5832C7.63431 17.6458 7.59906 17.6917 7.56581 17.717C7.53485 17.7405 7.50219 17.75 7.47204 17.75V16.25C6.89606 16.25 6.30716 16.6329 6.17594 17.2891L7.64683 17.5832ZM18.4684 19.0538C18.3702 18.9012 18.258 18.7594 18.1645 18.6432C18.0631 18.5172 17.984 18.4214 17.9114 18.3216C17.7609 18.1147 17.7463 18.0292 17.7463 18H16.2463C16.2463 18.5231 16.5029 18.9352 16.6984 19.2039C16.7988 19.3419 16.9113 19.4784 16.9957 19.5834C17.088 19.6981 17.1557 19.7858 17.2069 19.8654L18.4684 19.0538ZM2.43193 12.8563C2.29973 12.7681 2.24953 12.6336 2.24953 12.5264H3.74953C3.74953 12.185 3.59122 11.8264 3.26411 11.6083L2.43193 12.8563ZM8.13218 19.3719C8.06041 19.1853 7.96788 19.0088 7.88893 18.8633C7.80236 18.7038 7.73528 18.5866 7.67259 18.4597C7.54283 18.197 7.54351 18.1 7.54976 18.0687L6.07888 17.7745C5.96916 18.3233 6.1726 18.81 6.32768 19.1239C6.4074 19.2854 6.50326 19.4548 6.57056 19.5788C6.64548 19.7169 6.69775 19.8209 6.73214 19.9103L8.13218 19.3719ZM18.7479 12.8713C18.793 12.796 18.8743 12.75 18.962 12.75V11.25C18.3473 11.25 17.7777 11.5726 17.4615 12.0997L18.7479 12.8713ZM2.25522 12.772C2.25671 12.8042 2.25481 12.8327 2.25095 12.9293L3.74975 12.9893C3.7518 12.9379 3.75897 12.8182 3.75361 12.7025L2.25522 12.772ZM5.68956 8.79121C5.64016 8.79944 5.58941 8.79262 5.54392 8.77162L4.91521 10.1335C5.23406 10.2807 5.58981 10.3285 5.93622 10.2708L5.68956 8.79121ZM12.2603 7.62787C12.2218 7.67799 12.1657 7.71159 12.1035 7.72198L12.3501 9.20156C12.7867 9.12877 13.1795 8.89318 13.4494 8.5423L12.2603 7.62787ZM6.49872 21.25H3.9993V22.75H6.49872V21.25ZM16.9963 21.25H14.9017V22.75H16.9963V21.25ZM17.1417 4.79932C17.3062 4.7668 17.4749 4.75 17.6458 4.75V3.25C17.3765 3.25 17.1104 3.27648 16.8508 3.32781L17.1417 4.79932ZM17.246 7.00005V7.03178H18.746V7.00005H17.246ZM9.2479 13.4141V17H10.7479V13.4141H9.2479ZM7.62688 14.5671L11.6881 13.8943L11.4429 12.4145L7.38175 13.0872L7.62688 14.5671ZM5.60126 13.0279C5.70889 14.0276 6.63476 14.7314 7.62688 14.5671L7.38175 13.0872C7.24035 13.1106 7.10804 13.0103 7.09264 12.8674L5.60126 13.0279ZM9.59887 10.2454L4.29536 3.14976L3.09388 4.04778L8.39739 11.1435L9.59887 10.2454ZM4.49535 2.75H5.01303V1.25H4.49535V2.75ZM5.01303 2.75C5.0896 2.75 5.16199 2.78516 5.20937 2.84548L6.38895 1.91888C6.05725 1.49661 5.55003 1.25 5.01303 1.25V2.75ZM4.29536 3.14976C4.17195 2.98465 4.29001 2.75 4.49535 2.75V1.25C3.0544 1.25 2.23154 2.89404 3.09388 4.04778L4.29536 3.14976ZM20.6248 10.7596L21.7165 11.1963L22.2737 9.80366L21.182 9.36689L20.6248 10.7596ZM21.0982 8.95791L21.5257 8.53027L20.4649 7.46973L20.0374 7.89738L21.0982 8.95791ZM21.182 9.36689C21.0156 9.3003 20.9712 9.08491 21.0982 8.95791L20.0374 7.89738C19.1493 8.78567 19.4585 10.2929 20.6248 10.7596L21.182 9.36689ZM14.4568 3.75H15.7158V2.25H14.4568V3.75ZM15.9581 4.06067L15.4785 5.97964L16.9337 6.34336L17.4133 4.4244L15.9581 4.06067ZM12.8141 5.5329L14.2672 3.83724L13.1282 2.86118L11.6751 4.55684L12.8141 5.5329ZM12.9789 5.94442C12.7782 5.92436 12.6825 5.68651 12.8141 5.5329L11.6751 4.55684C10.755 5.63052 11.4222 7.2962 12.8296 7.43698L12.9789 5.94442ZM15.4785 5.97964C15.4483 6.10011 15.3345 6.18005 15.2113 6.16772L15.062 7.66027C15.9264 7.74673 16.7231 7.18595 16.9337 6.34336L15.4785 5.97964ZM15.7158 3.75C15.8781 3.75 15.9976 3.90266 15.9581 4.06067L17.4133 4.4244C17.6893 3.32012 16.8543 2.25 15.7158 2.25V3.75ZM14.4568 2.25C13.9459 2.25 13.4606 2.47329 13.1282 2.86118L14.2672 3.83724C14.3147 3.78184 14.3839 3.75 14.4568 3.75V2.25ZM11.6881 13.8943C12.4983 13.7601 13.0899 13.0876 13.1474 12.2955L11.6514 12.1869C11.6432 12.2998 11.5577 12.3955 11.4429 12.4145L11.6881 13.8943ZM13.1474 12.2955C13.1549 12.1918 13.1533 12.0864 13.1419 11.9805L11.6505 12.1411C11.6522 12.1571 11.6524 12.1724 11.6514 12.1869L13.1474 12.2955ZM12.0134 12.8843L16.6103 15.6431L17.3822 14.3569L12.7853 11.5981L12.0134 12.8843ZM22.1208 9.54575C22.0561 9.80457 21.9484 10.0427 21.8067 10.2538L23.0521 11.0898C23.2891 10.7368 23.4686 10.3393 23.576 9.90947L22.1208 9.54575ZM21.8067 10.2538C21.3975 10.8635 20.7042 11.25 19.9387 11.25V12.75C21.2161 12.75 22.3711 12.1044 23.0521 11.0898L21.8067 10.2538ZM21.7192 11.1974L22.1535 11.3692L22.7053 9.97444L22.271 9.80261L21.7192 11.1974ZM21.6449 7.25C21.6729 7.25 21.6994 7.26246 21.7167 7.28019L20.6443 8.32899C20.8975 8.58787 21.2529 8.75 21.6449 8.75V7.25ZM21.7167 7.28019C21.7337 7.29753 21.7453 7.32332 21.7453 7.35031H20.2453C20.2453 7.73093 20.3982 8.07736 20.6443 8.32899L21.7167 7.28019ZM21.5397 8.5159L21.7249 8.32049L20.6361 7.28869L20.451 7.4841L21.5397 8.5159ZM16.6218 3.41375L16.3112 3.59272L17.0602 4.89235L17.3707 4.71338L16.6218 3.41375ZM15.2113 6.16772L13.9288 6.03944L13.7795 7.53199L15.062 7.66027L15.2113 6.16772ZM13.9288 6.03944L12.9789 5.94442L12.8296 7.43698L13.7795 7.53199L13.9288 6.03944ZM13.4494 8.5423L14.4487 7.24293L13.2596 6.3285L12.2603 7.62787L13.4494 8.5423ZM5.20937 2.84548L10.1764 9.16856L11.3559 8.24196L6.38895 1.91888L5.20937 2.84548ZM10.8895 9.44505L12.1283 9.23853L11.8817 7.75895L10.6428 7.96547L10.8895 9.44505ZM12.1283 9.23853L12.3501 9.20156L12.1035 7.72198L11.8817 7.75895L12.1283 9.23853ZM13.1417 11.9789L12.7505 8.41687L11.2595 8.58061L11.6507 12.1427L13.1417 11.9789ZM5.93621 10.2708L6.08966 10.2452L5.843 8.76563L5.68956 8.79121L5.93621 10.2708ZM6.08966 10.2452L10.8895 9.44505L10.6428 7.96547L5.843 8.76563L6.08966 10.2452ZM5.22087 9.58785L5.60149 13.0301L7.09241 12.8652L6.71179 9.42299L5.22087 9.58785Z" fill="black"/>
</svg>
