<svg width="24" height="24" viewBox="0 0 24 24" fill="none" xmlns="http://www.w3.org/2000/svg">
<path d="M8.46965 21.1623V21.5C8.46965 22.3284 9.14122 23 9.96965 23C10.7981 23 11.4697 22.3284 11.4697 21.5V11.3799M11.4696 2C3.38877 2 2.18171 7.86875 2.0014 11.2633C1.96333 11.9802 2.70379 12.4629 3.36366 12.1801L5.04344 11.4602C5.31381 11.3444 5.62148 11.3534 5.88458 11.485L8.02252 12.5539C8.30405 12.6947 8.63543 12.6947 8.91696 12.5539L11.0548 11.485C11.3179 11.3534 11.6256 11.3444 11.8959 11.4602L14.5396 12.5932C14.8122 12.71 15.1225 12.6998 15.3869 12.5654L17.0828 11.7028C17.3296 11.5773 17.6173 11.5597 17.8776 11.6542L19.6283 12.2902C20.2804 12.5271 20.9762 12.0461 20.94 11.3532C20.7663 8.03261 19.5796 2 11.4696 2ZM11.4696 2L11.4697 1M18.4285 16.5422C17.645 15.8197 16.3741 15.8192 15.5899 16.5412C14.8057 17.2631 14.8052 18.4341 15.5887 19.1567L17.8029 21.3181C18.1914 21.6973 18.8115 21.6973 19.2 21.3181L21.4114 19.1591L21.4141 19.1567C22.1976 18.4341 22.1971 17.2631 21.4129 16.5412C20.6288 15.8192 19.3579 15.8197 18.5743 16.5422C18.5333 16.58 18.4695 16.58 18.4285 16.5422Z" stroke="black" stroke-width="1.5" stroke-linecap="round"/>
</svg>
