<svg width="24" height="24" viewBox="0 0 24 24" fill="none" xmlns="http://www.w3.org/2000/svg">
<path d="M9.3269 13.039L7.69995 14.6503C7.10045 15.244 7.10045 16.2067 7.69995 16.8004M9.3269 13.039L9.87093 12.5002C10.4704 11.9065 11.4424 11.9065 12.0419 12.5002C12.6414 13.0939 12.6414 14.0566 12.0419 14.6503C12.0419 14.6503 11.8267 14.8634 11.6888 15M9.3269 13.039C8.32159 11.7721 7.72115 10.1694 7.72115 8.42643C7.72115 4.32493 11.0461 1 15.1476 1C19.2491 1 22.574 4.32493 22.574 8.42643C22.574 12.5279 19.2491 15.8529 15.1476 15.8529C13.9824 15.8529 12.6702 15.4782 11.6888 15M11.6888 15C10.9789 15.7031 9.87093 16.8004 9.87093 16.8004C9.27143 17.3941 8.29945 17.3941 7.69995 16.8004M7.69995 16.8004L5.78845 17.5009C4.99221 17.7895 4.45711 18.5333 4.44172 19.3729C4.42534 20.266 3.8222 21.0438 2.95521 21.29L1 21.8451M18.3839 7.63422C18.3839 9.20447 17.111 10.4774 15.5407 10.4774C13.9705 10.4774 12.6975 9.20447 12.6975 7.63422C12.6975 6.06396 13.9705 4.79102 15.5407 4.79102C17.111 4.79102 18.3839 6.06396 18.3839 7.63422Z" stroke="black" stroke-width="1.5" stroke-linecap="round"/>
</svg>
