<svg width="24" height="24" viewBox="0 0 24 24" fill="none" xmlns="http://www.w3.org/2000/svg">
<path d="M12.0695 11.3879L8.82168 7.07102M5.99232 3.3104C7.5765 1.87365 9.66854 1 11.962 1C14.2257 1 16.3886 1.88432 18.0441 3.41476M5.99232 3.3104C4.1891 4.94582 3.89274 7.21284 5.41436 9.22899L9.56207 14.7247M5.99232 3.3104L8.82168 7.07102M18.0441 3.41476C19.7077 4.95276 20.0355 7.5157 18.6468 9.35573L14.5876 14.7343M18.0441 3.41476L15.24 7.15375M12.0784 18.0589L8.64803 22.6042C8.34539 23.0052 7.79668 23.1176 7.36411 22.8671L5.62371 21.8594C5.10139 21.557 4.9614 20.8577 5.32614 20.373L9.56207 14.7247M12.0784 18.0589L15.4132 22.4775C15.7158 22.8785 16.2645 22.9908 16.6971 22.7404L18.4375 21.7327C18.9598 21.4302 19.0998 20.731 18.7351 20.2462L14.5876 14.7343M12.0784 18.0589L14.5876 14.7343M9.56207 14.7247L15.24 7.15375M15.24 7.15375C14.5131 6.15169 13.3326 5.5 12 5.5C10.7044 5.5 9.55267 6.11597 8.82168 7.07102" stroke="black" stroke-width="1.5" stroke-linecap="round" stroke-linejoin="round"/>
</svg>
