<svg width="24" height="24" viewBox="0 0 24 24" fill="none" xmlns="http://www.w3.org/2000/svg">
<g clip-path="url(#clip0_1607_9833)">
<path d="M19.9855 11H22M11 3.01446V1M14.2461 3.45336L15.5 1M12 22.5V19.9855M22 22.5L17.3426 17.6737M16.5 22.5L14.8986 19.2933M22.5 16.5L19.2993 14.885M17.1679 5.16545L20.9999 1.5M4 19.0605L5.51891 17.5396M7.68215 22.3643L8.85936 19.5818M19.2993 8.11499L23 6M1 12.0605L3.01339 11.9812M1 16.7803L3.89336 15.2975M1 6.89014L3.71012 8.09349M3 3.06055L5.5 5.4792M6.5 1L8 3.75174M20 11.5C20 16.1944 16.1944 20 11.5 20C6.80558 20 3 16.1944 3 11.5C3 6.80558 6.80558 3 11.5 3C16.1944 3 20 6.80558 20 11.5ZM12 9.5C12 10.8807 10.8807 12 9.5 12C8.11929 12 7 10.8807 7 9.5C7 8.11929 8.11929 7 9.5 7C10.8807 7 12 8.11929 12 9.5ZM16 14.5C16 15.3284 15.3284 16 14.5 16C13.6716 16 13 15.3284 13 14.5C13 13.6716 13.6716 13 14.5 13C15.3284 13 16 13.6716 16 14.5Z" stroke="black" stroke-width="1.5" stroke-linecap="round"/>
</g>
<defs>
<clipPath id="clip0_1607_9833">
<rect width="24" height="24" fill="white"/>
</clipPath>
</defs>
</svg>
