<svg width="24" height="24" viewBox="0 0 24 24" fill="none" xmlns="http://www.w3.org/2000/svg">
<g clip-path="url(#clip0_1607_9626)">
<path d="M17 21C17 22.1046 17.8954 23 19 23C20.1046 23 21 22.1046 21 21C21 19.8954 20.1046 19 19 19C17.8954 19 17 19.8954 17 21ZM17 21H13M15 21L15 8C15 7.44772 14.5523 7 14 7H2C1.44772 7 1 7.44772 1 8V20C1 20.5523 1.44771 21 2 21H3.96154M14 21H8.07692M15 10H19.4338C19.7851 10 20.1106 10.1843 20.2913 10.4855L22.8575 14.7625C22.9507 14.9179 23 15.0957 23 15.277V20C23 20.5523 22.5523 21 22 21H21.5M12 3V1M9.41421 4.41421L8 3M14.5858 4.41421L16 3M12 7V6M15 16H1M10 10.9998L6.0001 10.9999M8 13V9M8 21C8 22.1046 7.10457 23 6 23C4.89543 23 4 22.1046 4 21C4 19.8954 4.89543 19 6 19C7.10457 19 8 19.8954 8 21Z" stroke="black" stroke-width="1.5" stroke-linecap="round"/>
</g>
<defs>
<clipPath id="clip0_1607_9626">
<rect width="24" height="24" fill="white"/>
</clipPath>
</defs>
</svg>
