<svg width="24" height="24" viewBox="0 0 24 24" fill="none" xmlns="http://www.w3.org/2000/svg">
<path d="M18.6559 12.8967L14.5 11.1754M13.0487 10.9778L4.44238 19.5742L4.40358 19.6003M14.5 11.1754C14.1048 11.4653 13.5266 11.4553 13.1436 11.0727L12.5995 10.5293C12.2951 10.2252 12.2091 9.76564 12.3829 9.37231L15.4367 2.4627C15.592 2.11122 15.9815 1.9262 16.3525 2.02765L21.1684 3.34456C22.5908 3.73354 23.364 5.2663 22.8306 6.63969C22.3506 7.87547 20.9839 8.51727 19.7249 8.0981L16.5029 7.02531C16.4697 7.01426 16.4336 7.03046 16.4198 7.06257L14.8391 10.7466C14.762 10.9265 14.6429 11.0706 14.5 11.1754ZM4.40358 19.6003L5.04551 20.2415C5.07724 20.2732 5.08511 20.3216 5.06504 20.3617L3.77321 22.9424C3.74139 23.006 3.65656 23.0197 3.60624 22.9695L1.03055 20.3967C0.980234 20.3465 0.994 20.2618 1.05765 20.23L3.64131 18.9396C3.68145 18.9196 3.72992 18.9274 3.76166 18.9591L4.40358 19.6003Z" stroke="black" stroke-width="1.5" stroke-linecap="round"/>
</svg>
