<svg width="24" height="24" viewBox="0 0 24 24" fill="none" xmlns="http://www.w3.org/2000/svg">
<path d="M17 11V11.75H17.75V11H17ZM9 11H8.25V11.75H9V11ZM15 7V7.75H15.75V7H15ZM11 7H10.25V7.75H11V7ZM3.24976 4C3.24976 4.41421 3.58554 4.75 3.99976 4.75C4.41397 4.75 4.74976 4.41421 4.74976 4H3.24976ZM16 15.6667L16 14.9167H16V15.6667ZM14.4333 15.6667L14.4333 16.4167H14.4333V15.6667ZM11.5667 15.6667L11.5667 14.9167H11.5667V15.6667ZM7 11.75H19V10.25H7V11.75ZM19.25 12V22H20.75V12H19.25ZM19 22.25H7V23.75H19V22.25ZM6.75 22V12H5.25V22H6.75ZM7 22.25C6.86193 22.25 6.75 22.1381 6.75 22H5.25C5.25 22.9665 6.0335 23.75 7 23.75V22.25ZM19.25 22C19.25 22.1381 19.1381 22.25 19 22.25V23.75C19.9665 23.75 20.75 22.9665 20.75 22H19.25ZM19 11.75C19.1381 11.75 19.25 11.8619 19.25 12H20.75C20.75 11.0335 19.9665 10.25 19 10.25V11.75ZM7 10.25C6.0335 10.25 5.25 11.0335 5.25 12H6.75C6.75 11.8619 6.86193 11.75 7 11.75V10.25ZM10 7.75H16V6.25H10V7.75ZM16.25 8V11H17.75V8H16.25ZM17 10.25H9V11.75H17V10.25ZM9.75 11V8H8.25V11H9.75ZM16 7.75C16.1381 7.75 16.25 7.86193 16.25 8H17.75C17.75 7.0335 16.9665 6.25 16 6.25V7.75ZM10 6.25C9.0335 6.25 8.25 7.0335 8.25 8H9.75C9.75 7.86193 9.86193 7.75 10 7.75V6.25ZM11 4.75H15V3.25H11V4.75ZM14.25 4V7H15.75V4H14.25ZM15 6.25H11V7.75H15V6.25ZM11.75 7V4H10.25V7H11.75ZM11 1.75H15V0.25H11V1.75ZM15.25 2V3H16.75V2H15.25ZM10.75 3V2H9.25V3H10.75ZM11 3.25C10.8619 3.25 10.75 3.13807 10.75 3H9.25C9.25 3.9665 10.0335 4.75 11 4.75V3.25ZM15.25 3C15.25 3.13807 15.1381 3.25 15 3.25V4.75C15.9665 4.75 16.75 3.9665 16.75 3H15.25ZM15 1.75C15.1381 1.75 15.25 1.86193 15.25 2H16.75C16.75 1.0335 15.9665 0.25 15 0.25V1.75ZM11 0.25C10.0335 0.25 9.25 1.0335 9.25 2H10.75C10.75 1.86193 10.8619 1.75 11 1.75V0.25ZM4.74976 4V3.5H3.24976V4H4.74976ZM4.99976 3.25H9.99997V1.75H4.99976V3.25ZM4.74976 3.5C4.74976 3.36193 4.86168 3.25 4.99976 3.25V1.75C4.03326 1.75 3.24976 2.5335 3.24976 3.5H4.74976ZM13.3333 13.75C13.4714 13.75 13.5833 13.8619 13.5833 14H15.0833C15.0833 13.0335 14.2998 12.25 13.3333 12.25V13.75ZM12.6667 13.75H13.3333V12.25H12.6667V13.75ZM12.4167 14C12.4167 13.8619 12.5286 13.75 12.6667 13.75V12.25C11.7002 12.25 10.9167 13.0335 10.9167 14H12.4167ZM12.4167 15.5667V14H10.9167V15.5667H12.4167ZM10 16.4167H11.5667V14.9167H10V16.4167ZM9.75 16.6667C9.75 16.5286 9.86193 16.4167 10 16.4167V14.9167C9.0335 14.9167 8.25 15.7002 8.25 16.6667H9.75ZM9.75 17.3333V16.6667H8.25V17.3333H9.75ZM10 17.5833C9.86193 17.5833 9.75 17.4714 9.75 17.3333H8.25C8.25 18.2998 9.0335 19.0833 10 19.0833V17.5833ZM11.5667 17.5833H10V19.0833H11.5667V17.5833ZM12.4167 20V18.4333H10.9167V20H12.4167ZM12.6667 20.25C12.5286 20.25 12.4167 20.1381 12.4167 20H10.9167C10.9167 20.9665 11.7002 21.75 12.6667 21.75V20.25ZM13.3333 20.25H12.6667V21.75H13.3333V20.25ZM13.5833 20C13.5833 20.1381 13.4714 20.25 13.3333 20.25V21.75C14.2998 21.75 15.0833 20.9665 15.0833 20H13.5833ZM13.5833 18.4333V20H15.0833V18.4333H13.5833ZM16 17.5833H14.4333V19.0833H16V17.5833ZM16.25 17.3333C16.25 17.4714 16.1381 17.5833 16 17.5833V19.0833C16.9665 19.0833 17.75 18.2998 17.75 17.3333H16.25ZM16.25 16.6667V17.3333H17.75V16.6667H16.25ZM16 16.4167C16.1381 16.4167 16.25 16.5286 16.25 16.6667H17.75C17.75 15.7002 16.9665 14.9167 16 14.9167L16 16.4167ZM14.4333 16.4167H16V14.9167H14.4333V16.4167ZM13.5833 14V15.5667H15.0833V14H13.5833ZM14.4333 14.9167C14.7923 14.9167 15.0833 15.2077 15.0833 15.5667H13.5833C13.5833 16.0361 13.9639 16.4167 14.4333 16.4167L14.4333 14.9167ZM15.0833 18.4333C15.0833 18.7923 14.7923 19.0833 14.4333 19.0833V17.5833C13.9639 17.5833 13.5833 17.9639 13.5833 18.4333H15.0833ZM11.5667 19.0833C11.2077 19.0833 10.9167 18.7923 10.9167 18.4333H12.4167C12.4167 17.9639 12.0361 17.5833 11.5667 17.5833V19.0833ZM10.9167 15.5667C10.9167 15.2077 11.2077 14.9167 11.5667 14.9167L11.5667 16.4167C12.0361 16.4167 12.4167 16.0361 12.4167 15.5667H10.9167Z" fill="black"/>
</svg>
