<svg width="24" height="24" viewBox="0 0 24 24" fill="none" xmlns="http://www.w3.org/2000/svg">
<path d="M4.86833 22.9932L4.86833 23.7432L4.86833 23.7432L4.86833 22.9932ZM3.87614 22.1181L3.13199 22.2116L3.13199 22.2116L3.87614 22.1181ZM17.8428 22.9932L17.8428 23.7432L17.8428 23.7432L17.8428 22.9932ZM12.4865 14.7849L11.7417 14.8731L11.7417 14.8731L12.4865 14.7849ZM2.89025 6.13669L2.97262 6.88216L2.97262 6.88216L2.89025 6.13669ZM2.00791 7.25496L2.75206 7.16143L2.75206 7.16143L2.00791 7.25496ZM10.3664 5.3106L10.284 4.56514L10.284 4.56514L10.3664 5.3106ZM11.4693 6.18683L12.2142 6.09872L12.2142 6.09871L11.4693 6.18683ZM3.17007 2.48351L3.9153 2.39897L3.91497 2.3962L3.17007 2.48351ZM8.39659 1.87765L9.14181 1.79309L9.14149 1.79034L8.39659 1.87765ZM7.28686 0.999906L7.37323 1.74492L7.28686 0.999906ZM4.04703 1.37547L3.96067 0.630459L4.04703 1.37547ZM6.26828 10.9939C6.67946 10.9438 6.97221 10.5699 6.92215 10.1587C6.8721 9.74754 6.4982 9.4548 6.08702 9.50485L6.26828 10.9939ZM6.26794 13.993C6.67914 13.9431 6.97206 13.5693 6.9222 13.1581C6.87233 12.7469 6.49856 12.454 6.08736 12.5039L6.26794 13.993ZM8.8057 5.48305L8.88807 6.22852L8.88808 6.22852L8.8057 5.48305ZM2.44146 10.7042L1.69732 10.7977L1.69732 10.7977L2.44146 10.7042ZM21 15.9637H18.8428V17.4637H21V15.9637ZM18.8428 22.6965H21V21.1965H18.8428V22.6965ZM22.75 20.9469V17.7134H21.25V20.9469H22.75ZM21 22.6965C21.9663 22.6965 22.75 21.9134 22.75 20.9469H21.25C21.25 21.0845 21.1383 21.1965 21 21.1965V22.6965ZM21 17.4637C21.1383 17.4637 21.25 17.5757 21.25 17.7134H22.75C22.75 16.7469 21.9663 15.9637 21 15.9637V17.4637ZM13.2313 14.6968L12.2142 6.09872L10.7245 6.27494L11.7417 14.8731L13.2313 14.6968ZM17.8428 14.9172H13.4796V16.4172H17.8428V14.9172ZM19.5928 21.9935V16.6669H18.0928V21.9935H19.5928ZM4.86833 22.2432C4.74212 22.2432 4.63596 22.1493 4.62028 22.0246L3.13199 22.2116C3.24201 23.0869 3.98639 23.7432 4.86833 23.7432V22.2432ZM18.0928 21.9935C18.0928 22.1312 17.981 22.2432 17.8428 22.2432L17.8428 23.7432C18.809 23.7432 19.5928 22.96 19.5928 21.9935H18.0928ZM17.8428 16.4172C17.981 16.4172 18.0928 16.5292 18.0928 16.6669H19.5928C19.5928 15.7004 18.809 14.9172 17.8428 14.9172V16.4172ZM11.7417 14.8731C11.8459 15.7539 12.5928 16.4172 13.4796 16.4172V14.9172C13.3527 14.9172 13.2462 14.8223 13.2313 14.6968L11.7417 14.8731ZM2.80788 5.39123C1.83727 5.49848 1.14195 6.37935 1.26377 7.3485L2.75206 7.16143C2.73471 7.0234 2.83374 6.8975 2.97262 6.88216L2.80788 5.39123ZM10.4488 6.05606C10.5855 6.04096 10.7084 6.13893 10.7245 6.27494L12.2142 6.09871C12.1012 5.14406 11.2393 4.45959 10.284 4.56514L10.4488 6.05606ZM7.2005 0.254895L3.96067 0.630459L4.1334 2.12048L7.37323 1.74492L7.2005 0.254895ZM9.14149 1.79034C9.02901 0.830737 8.15998 0.143671 7.2005 0.254895L7.37323 1.74492C7.51096 1.72895 7.63561 1.82784 7.65169 1.96496L9.14149 1.79034ZM3.91497 2.3962C3.89899 2.25982 3.9964 2.13636 4.1334 2.12048L3.96067 0.630459C3.00045 0.741769 2.31261 1.61048 2.42517 2.57083L3.91497 2.3962ZM4.86833 23.7432L17.8428 23.7432L17.8428 22.2432L4.86833 22.2432L4.86833 23.7432ZM2.42485 2.56805L2.83069 6.14547L4.32113 5.97639L3.91529 2.39897L2.42485 2.56805ZM3.49354 5.31547L2.80788 5.39123L2.97262 6.88216L3.65828 6.80639L3.49354 5.31547ZM10.284 4.56514L8.72333 4.73759L8.88808 6.22852L10.4488 6.05606L10.284 4.56514ZM8.72333 4.73759L3.49354 5.31547L3.65828 6.80639L8.88807 6.22852L8.72333 4.73759ZM9.55092 5.39849L9.1418 1.79309L7.65137 1.96221L8.06049 5.56762L9.55092 5.39849ZM1.26377 7.3485L1.69732 10.7977L3.18561 10.6106L2.75206 7.16143L1.26377 7.3485ZM2.53209 11.4487L6.26828 10.9939L6.08702 9.50485L2.35083 9.95967L2.53209 11.4487ZM1.69732 10.7977L2.06841 13.75L3.5567 13.563L3.18561 10.6106L1.69732 10.7977ZM2.06841 13.75L3.13199 22.2116L4.62028 22.0246L3.5567 13.563L2.06841 13.75ZM2.90284 14.401L6.26794 13.993L6.08736 12.5039L2.72226 12.9119L2.90284 14.401Z" fill="black"/>
</svg>
