<svg width="24" height="24" viewBox="0 0 24 24" fill="none" xmlns="http://www.w3.org/2000/svg">
<path d="M19.1926 13.3832L19.7616 13.8717L19.7616 13.8717L19.1926 13.3832ZM19.9905 22.8913L20.7377 22.8262L20.7377 22.8262L19.9905 22.8913ZM19.1685 13.4575L18.4214 13.5226L18.4214 13.5226L19.1685 13.4575ZM11.7141 19.5916L10.9667 19.6543L10.9667 19.6543L11.7141 19.5916ZM11.9923 22.9084L12.7397 22.8457L12.7397 22.8457L11.9923 22.9084ZM7.46182 18.75C7.0476 18.75 6.71182 19.0858 6.71182 19.5C6.71182 19.9142 7.0476 20.25 7.46182 20.25V18.75ZM6.0128 8.94409L5.26408 8.98781L5.26408 8.98782L6.0128 8.94409ZM6.00239 8.995L6.67321 9.33041L6.67322 9.3304L6.00239 8.995ZM3.70682 11.9091C3.52158 12.2796 3.67175 12.7301 4.04224 12.9154C4.41272 13.1006 4.86323 12.9504 5.04847 12.58L3.70682 11.9091ZM5.77216 18.8162L6.48367 18.5791L6.48367 18.5791L5.77216 18.8162ZM10.6307 18.652L11.3719 18.7661L11.3719 18.7661L10.6307 18.652ZM10.4793 12.8724L10.5724 12.1282L10.5724 12.1282L10.4793 12.8724ZM11.3437 14.0167L12.085 14.1307L11.3437 14.0167ZM5.07457 12.1968L4.98154 12.941L4.98154 12.941L5.07457 12.1968ZM4.00185 13.5053L3.29034 13.7425L3.29034 13.7425L4.00185 13.5053ZM14 10.5L14.5303 11.0303C14.6709 10.8897 14.75 10.6989 14.75 10.5H14ZM15.1791 14.6248C15.5242 14.3956 15.6182 13.9302 15.389 13.5851C15.1599 13.24 14.6944 13.1461 14.3493 13.3752L15.1791 14.6248ZM14.8 13.25C14.3857 13.25 14.05 13.5858 14.05 14C14.05 14.4142 14.3857 14.75 14.8 14.75V13.25ZM10.9574 16.528L10.2161 16.414L10.2161 16.414L10.9574 16.528ZM19.7616 13.8717C21.0005 12.4288 21.7499 10.5509 21.7499 8.5H20.2499C20.2499 10.1791 19.6378 11.7133 18.6235 12.8946L19.7616 13.8717ZM20.7377 22.8262L19.9157 13.3924L18.4214 13.5226L19.2434 22.9564L20.7377 22.8262ZM12.092 23.75H19.8909V22.25H12.092V23.75ZM10.9667 19.6543L11.2449 22.9711L12.7397 22.8457L12.4615 19.5289L10.9667 19.6543ZM7.46182 20.25H11.6144V18.75H7.46182V20.25ZM5.24987 8.5C5.24987 8.66368 5.25465 8.82633 5.26408 8.98781L6.76153 8.90037C6.7538 8.76799 6.74987 8.63449 6.74987 8.5H5.24987ZM13.4999 0.25C8.94352 0.25 5.24987 3.94365 5.24987 8.5H6.74987C6.74987 4.77208 9.77195 1.75 13.4999 1.75V0.25ZM21.7499 8.5C21.7499 3.94365 18.0562 0.25 13.4999 0.25V1.75C17.2278 1.75 20.2499 4.77208 20.2499 8.5H21.7499ZM5.26408 8.98782C5.25754 8.87575 5.28015 8.76243 5.33157 8.6596L6.67322 9.3304C6.74039 9.19605 6.77013 9.04762 6.76153 8.90037L5.26408 8.98782ZM12.4615 19.529C12.4245 19.0886 12.0563 18.75 11.6144 18.75V20.25C11.2765 20.25 10.995 19.9911 10.9667 19.6543L12.4615 19.529ZM12.092 22.25C12.4299 22.25 12.7114 22.5089 12.7397 22.8457L11.2449 22.971C11.2819 23.4114 11.6501 23.75 12.092 23.75V22.25ZM19.2434 22.9564C19.2103 22.5766 19.5096 22.25 19.8909 22.25V23.75C20.3895 23.75 20.781 23.3229 20.7377 22.8262L19.2434 22.9564ZM18.6235 12.8946C18.4759 13.0666 18.4013 13.2924 18.4214 13.5226L19.9157 13.3924C19.9311 13.5686 19.874 13.7409 19.7616 13.8717L18.6235 12.8946ZM4.98154 12.941L10.3863 13.6166L10.5724 12.1282L5.1676 11.4526L4.98154 12.941ZM9.64229 18.75H6.72084V20.25H9.64229V18.75ZM6.48367 18.5791L4.71336 13.2681L3.29034 13.7425L5.06064 19.0534L6.48367 18.5791ZM6.72084 18.75C6.61323 18.75 6.5177 18.6811 6.48367 18.5791L5.06064 19.0534C5.29884 19.768 5.96759 20.25 6.72084 20.25V18.75ZM9.88939 18.538C9.87063 18.66 9.76569 18.75 9.64229 18.75V20.25C10.5061 20.25 11.2406 19.6198 11.3719 18.7661L9.88939 18.538ZM5.1676 11.4526C3.89 11.2929 2.88318 12.521 3.29034 13.7425L4.71336 13.2681C4.6552 13.0937 4.79903 12.9182 4.98154 12.941L5.1676 11.4526ZM17.25 10.2011V11H18.75V10.2011H17.25ZM15 13.25H14.8V14.75H15V13.25ZM14.75 10.5V9.79894H13.25V10.5H14.75ZM17.25 11C17.25 12.2426 16.2426 13.25 15 13.25V14.75C17.071 14.75 18.75 13.0711 18.75 11H17.25ZM15.7989 8.75C16.6003 8.75 17.25 9.39966 17.25 10.2011H18.75C18.75 8.57123 17.4287 7.25 15.7989 7.25V8.75ZM15.7989 7.25C14.3912 7.25 13.25 8.3912 13.25 9.79894H14.75C14.75 9.21963 15.2196 8.75 15.7989 8.75V7.25ZM5.33157 8.65959L3.70682 11.9091L5.04847 12.58L6.67321 9.33041L5.33157 8.65959ZM11.7187 13.8419L14.5303 11.0303L13.4696 9.96967L10.6581 12.7812L11.7187 13.8419ZM10.3863 13.6166C10.4615 13.626 10.5239 13.6667 10.5638 13.7266L11.8131 12.8965C11.5422 12.4888 11.0997 12.1941 10.5724 12.1282L10.3863 13.6166ZM10.5638 13.7266C10.5974 13.7772 10.6124 13.838 10.6024 13.9027L12.085 14.1307C12.154 13.682 12.0453 13.2459 11.8131 12.8965L10.5638 13.7266ZM10.6024 13.9027L10.2161 16.414L11.6987 16.642L12.085 14.1307L10.6024 13.9027ZM10.2161 16.414L9.88939 18.538L11.3719 18.7661L11.6987 16.642L10.2161 16.414ZM14.3493 13.3752L10.5425 15.9032L11.3723 17.1528L15.1791 14.6248L14.3493 13.3752Z" fill="black"/>
</svg>
