<svg width="24" height="24" viewBox="0 0 24 24" fill="none" xmlns="http://www.w3.org/2000/svg">
<path d="M1 4C1 3.44772 1.44772 3 2 3H8.75626C9.03531 3 9.30168 3.1166 9.49098 3.32163L11.703 5.71745C11.8923 5.92248 12.1587 6.03908 12.4378 6.03908H22C22.5523 6.03908 23 6.48679 23 7.03908V19C23 19.5523 22.5523 20 22 20H2C1.44772 20 1 19.5523 1 19V4Z" stroke="black" stroke-width="1.5"/>
<path d="M13.3333 10C13.3333 9.44772 12.8856 9 12.3333 9H11.6667C11.1144 9 10.6667 9.44772 10.6667 10V11.5667C10.6667 11.6219 10.6219 11.6667 10.5667 11.6667H9C8.44772 11.6667 8 12.1144 8 12.6667V13.3333C8 13.8856 8.44772 14.3333 9 14.3333H10.5667C10.6219 14.3333 10.6667 14.3781 10.6667 14.4333V16C10.6667 16.5523 11.1144 17 11.6667 17H12.3333C12.8856 17 13.3333 16.5523 13.3333 16V14.4333C13.3333 14.3781 13.3781 14.3333 13.4333 14.3333H15C15.5523 14.3333 16 13.8856 16 13.3333V12.6667C16 12.1144 15.5523 11.6667 15 11.6667H13.4333C13.3781 11.6667 13.3333 11.6219 13.3333 11.5667V10Z" stroke="black" stroke-width="1.5"/>
</svg>
