<svg width="24" height="24" viewBox="0 0 24 24" fill="none" xmlns="http://www.w3.org/2000/svg">
<path d="M6.31896 19.2316C3.74784 17.4219 2 14.383 2 11C2 5.47715 6.47715 1 12 1C17.5228 1 22 5.47715 22 11C22 14.383 20.2525 17.423 17.6814 19.2326M6.31896 19.2316L5.46562 21.6696C5.23806 22.3198 5.72063 23 6.40948 23H17.5905C18.2794 23 18.7619 22.3198 18.5344 21.6697L17.6814 19.2326M6.31896 19.2316L7.36624 16.2393M17.6814 19.2326L16.6337 16.2391M7.36624 16.2393C5.93691 14.9577 5 13.0709 5 11C5 8.2076 6.63505 5.7971 9 4.67363M7.36624 16.2393L8.26562 13.6696C8.406 13.2686 8.78454 13 9.20948 13H14.7905C15.2155 13 15.594 13.2686 15.7344 13.6696L16.6337 16.2391M16.6337 16.2391C18.063 14.9575 19 13.0709 19 11C19 8.2076 17.3649 5.7971 15 4.67363M9 4.67363C9.90926 4.24169 10.9264 4 12 4C13.0736 4 14.0907 4.24169 15 4.67363M9 4.67363V5C9 6.10457 9.89543 7 11 7H13C14.1046 7 15 6.10457 15 5V4.67363M11 17H13C13.5523 17 14 16.5523 14 16C14 15.4477 13.5523 15 13 15H11C10.4477 15 10 15.4477 10 16C10 16.5523 10.4478 17 11 17Z" stroke="black" stroke-width="1.5" stroke-linecap="round"/>
</svg>
