<svg width="24" height="24" viewBox="0 0 24 24" fill="none" xmlns="http://www.w3.org/2000/svg">
<g clip-path="url(#clip0_1607_9678)">
<path d="M7.26717 10.2798L7.29699 10.133C7.43814 9.43815 7.87822 8.84077 8.5 8.5M14.4703 15.8226L14.4147 15.9617C14.1517 16.6202 13.612 17.1293 12.9393 17.3536M14.5 13L14.6483 12.9786C15.35 12.8771 16.0608 13.0899 16.5913 13.5604M23 12C23 18.0751 18.0751 23 12 23C5.92487 23 1 18.0751 1 12C1 5.92487 5.92487 1 12 1C18.0751 1 23 5.92487 23 12ZM13.5 10C14.1262 10 15.2341 10.5713 15.7377 10.4184C16.0576 10.3213 15.8213 9.89829 15.5902 9.65667C14.5827 8.60334 14.843 7 13.5 7C11.9189 7 11 9.17157 11 10C11 10.8284 12.1578 10 13.5 10ZM11 13.9131C11 13.0847 10.3284 12.4131 9.5 12.4131C8.67157 12.4131 7 13.0847 7 13.9131C7 14.7415 9.17157 16.4131 10 16.4131C10.4531 16.4131 10.4107 15.841 10.4619 15.2311C10.4793 15.0235 10.5826 14.8358 10.7042 14.6667C10.8425 14.4744 11 14.1938 11 13.9131ZM20 12C20 16.4183 16.4183 20 12 20C7.58172 20 4 16.4183 4 12C4 7.58172 7.58172 4 12 4C16.4183 4 20 7.58172 20 12Z" stroke="black" stroke-width="1.5" stroke-linecap="round"/>
</g>
<defs>
<clipPath id="clip0_1607_9678">
<rect width="24" height="24" fill="white"/>
</clipPath>
</defs>
</svg>
