<svg width="24" height="24" viewBox="0 0 24 24" fill="none" xmlns="http://www.w3.org/2000/svg">
<g clip-path="url(#clip0_1607_9812)">
<path d="M1.28834 10.338C0.903885 9.95351 0.903885 9.33018 1.28834 8.94572L8.94572 1.28834C9.33018 0.903885 9.95351 0.903885 10.338 1.28834L22.7117 13.662C23.0961 14.0465 23.0961 14.6698 22.7117 15.0543L15.0543 22.7117C14.6698 23.0961 14.0465 23.0961 13.662 22.7117L1.28834 10.338Z" stroke="black" stroke-width="1.5"/>
<path d="M9.82244 5.88456C10.2749 5.43213 11.0084 5.43213 11.4608 5.88456L13.0992 7.52296C13.5517 7.97539 13.5517 8.70893 13.0992 9.16136C12.6468 9.61379 11.9133 9.61379 11.4608 9.16136L9.82244 7.52296C9.37 7.07053 9.37 6.33699 9.82244 5.88456Z" stroke="black" stroke-width="1.5"/>
<path d="M14.7448 10.8069C15.1972 10.3545 15.9308 10.3545 16.3832 10.8069L18.0216 12.4453C18.474 12.8977 18.474 13.6313 18.0216 14.0837C17.5692 14.5361 16.8356 14.5361 16.3832 14.0837L14.7448 12.4453C14.2924 11.9929 14.2924 11.2593 14.7448 10.8069Z" stroke="black" stroke-width="1.5"/>
<path d="M5.88456 9.82244C6.33699 9.37001 7.07052 9.37001 7.52296 9.82244L9.16136 11.4608C9.61379 11.9133 9.61379 12.6468 9.16136 13.0992C8.70892 13.5517 7.97539 13.5517 7.52296 13.0992L5.88456 11.4608C5.43212 11.0084 5.43212 10.2749 5.88456 9.82244Z" stroke="black" stroke-width="1.5"/>
<path d="M10.8069 14.7448C11.2593 14.2924 11.9929 14.2924 12.4453 14.7448L14.0837 16.3832C14.5361 16.8356 14.5361 17.5692 14.0837 18.0216C13.6313 18.474 12.8977 18.474 12.4453 18.0216L10.8069 16.3832C10.3545 15.9308 10.3545 15.1972 10.8069 14.7448Z" stroke="black" stroke-width="1.5"/>
</g>
<defs>
<clipPath id="clip0_1607_9812">
<rect width="24" height="24" fill="white"/>
</clipPath>
</defs>
</svg>
