<svg width="24" height="24" viewBox="0 0 24 24" fill="none" xmlns="http://www.w3.org/2000/svg">
<path d="M14.9798 7.77873L14.5827 8.41494C14.604 8.42823 14.6259 8.44044 14.6484 8.45153L14.9798 7.77873ZM9.59763 4.41883L9.99479 3.78262L9.99479 3.78262L9.59763 4.41883ZM9.54012 4.38465L9.11586 5.00312C9.13381 5.01543 9.15228 5.02696 9.17124 5.03767L9.54012 4.38465ZM7.83008 4.3932L7.3998 3.77891L7.3998 3.77891L7.83008 4.3932ZM5.21863 6.22238L4.78835 5.60809L4.78835 5.60809L5.21863 6.22238ZM4.85048 8.31218L4.23618 8.74246L4.23618 8.74246L4.85048 8.31218ZM6.94028 8.68033L7.37056 9.29463L7.37056 9.29463L6.94028 8.68033ZM8.74033 7.4195L9.13749 6.78329C8.88225 6.62395 8.5565 6.63258 8.31005 6.8052L8.74033 7.4195ZM11.2791 9.00437L11.8486 9.4924C11.9908 9.32646 12.0536 9.10675 12.0205 8.89073C11.9874 8.67472 11.8617 8.48389 11.6763 8.36816L11.2791 9.00437ZM15.4262 8.05599L14.9704 8.6516L14.9704 8.6516L15.4262 8.05599ZM15.8352 11.9254L15.2649 11.4382L15.2644 11.4389L15.8352 11.9254ZM18.9468 20.7224L18.2224 20.5282L18.2224 20.5282L18.9468 20.7224ZM19.9485 16.984L19.2241 16.7899L19.2241 16.7899L19.9485 16.984ZM19.9458 16.1967L19.2111 16.3476C19.2145 16.3641 19.2185 16.3806 19.223 16.3969L19.9458 16.1967ZM16.0491 19.9459L16.7735 20.14L16.0491 19.9459ZM16.5705 18L17.2949 18.1941C17.3552 17.9689 17.3074 17.7284 17.1655 17.5434C17.0235 17.3584 16.8036 17.25 16.5705 17.25V18ZM13.4003 14.25C12.9861 14.25 12.6503 14.5858 12.6503 15C12.6503 15.4142 12.9861 15.75 13.4003 15.75V14.25ZM13.9776 17.25C13.5634 17.25 13.2276 17.5858 13.2276 18C13.2276 18.4142 13.5634 18.75 13.9776 18.75V17.25ZM20.25 3.5C20.25 4.4665 19.4665 5.25 18.5 5.25V6.75C20.2949 6.75 21.75 5.29493 21.75 3.5H20.25ZM18.5 5.25C17.5335 5.25 16.75 4.4665 16.75 3.5H15.25C15.25 5.29493 16.7051 6.75 18.5 6.75V5.25ZM16.75 3.5C16.75 2.5335 17.5335 1.75 18.5 1.75V0.25C16.7051 0.25 15.25 1.70507 15.25 3.5H16.75ZM18.5 1.75C19.4665 1.75 20.25 2.5335 20.25 3.5H21.75C21.75 1.70507 20.2949 0.25 18.5 0.25V1.75ZM15.377 7.14252L9.99479 3.78262L9.20047 5.05504L14.5827 8.41494L15.377 7.14252ZM9.99479 3.78262C9.96647 3.76494 9.93787 3.74795 9.90901 3.73164L9.17124 5.03767C9.18102 5.04319 9.19077 5.04898 9.20047 5.05504L9.99479 3.78262ZM9.96439 3.76619C9.21387 3.25134 8.19124 3.22455 7.3998 3.77891L8.26036 5.0075C8.52299 4.82354 8.8642 4.83048 9.11586 5.00312L9.96439 3.76619ZM7.3998 3.77891L4.78835 5.60809L5.6489 6.83668L8.26036 5.0075L7.3998 3.77891ZM4.78835 5.60809C3.77033 6.32115 3.52313 7.72445 4.23618 8.74246L5.46477 7.8819C5.22699 7.54243 5.30943 7.07446 5.64891 6.83668L4.78835 5.60809ZM4.23618 8.74246C4.94924 9.76047 6.35255 10.0077 7.37056 9.29463L6.51 8.06603C6.17052 8.30382 5.70256 8.22138 5.46477 7.8819L4.23618 8.74246ZM7.37056 9.29463L9.17061 8.03379L8.31005 6.8052L6.51 8.06603L7.37056 9.29463ZM8.34317 8.05571L10.882 9.64058L11.6763 8.36816L9.13749 6.78329L8.34317 8.05571ZM14.9704 8.6516C15.8494 9.32424 15.9839 10.5967 15.2649 11.4382L16.4054 12.4125C17.683 10.917 17.444 8.65574 15.882 7.46039L14.9704 8.6516ZM14.6484 8.45153C14.7596 8.5063 14.8675 8.57284 14.9704 8.6516L15.882 7.46039C15.7009 7.32182 15.5097 7.20367 15.3112 7.10592L14.6484 8.45153ZM18.2224 20.5282C18.1152 20.9283 17.7039 21.1658 17.3038 21.0586L16.9156 22.5075C18.1159 22.8291 19.3497 22.1168 19.6713 20.9165L18.2224 20.5282ZM19.2241 16.7899L18.2224 20.5282L19.6713 20.9165L20.673 17.1781L19.2241 16.7899ZM19.223 16.3969C19.2573 16.5207 19.2603 16.6548 19.2241 16.7899L20.673 17.1781C20.7803 16.7776 20.7723 16.3711 20.6686 15.9965L19.223 16.3969ZM18.4765 15.75C18.8379 15.75 19.1411 16.0063 19.2111 16.3476L20.6805 16.0458C20.47 15.021 19.5641 14.25 18.4765 14.25V15.75ZM16.7735 20.14L17.2949 18.1941L15.846 17.8059L15.3246 19.7518L16.7735 20.14ZM17.3038 21.0586C16.9037 20.9514 16.6663 20.5401 16.7735 20.14L15.3246 19.7518C15.003 20.9521 15.7153 22.1858 16.9156 22.5075L17.3038 21.0586ZM13.4003 15.75H18.4765V14.25H13.4003V15.75ZM16.5705 17.25H13.9776V18.75H16.5705V17.25ZM13.25 17.5C13.25 20.1234 11.1234 22.25 8.5 22.25V23.75C11.9518 23.75 14.75 20.9518 14.75 17.5H13.25ZM8.5 22.25C5.87665 22.25 3.75 20.1234 3.75 17.5H2.25C2.25 20.9518 5.04822 23.75 8.5 23.75V22.25ZM3.75 17.5C3.75 14.8766 5.87665 12.75 8.5 12.75V11.25C5.04822 11.25 2.25 14.0482 2.25 17.5H3.75ZM8.5 12.75C8.56056 12.75 8.62082 12.7511 8.68077 12.7534L8.7367 11.2544C8.65813 11.2515 8.57922 11.25 8.5 11.25V12.75ZM9.27823 12.4919L11.8486 9.4924L10.7096 8.51635L8.13923 11.5159L9.27823 12.4919ZM8.68077 12.7534C10.402 12.8176 11.891 13.7983 12.6711 15.2253L13.9873 14.5058C12.9631 12.6325 11.0055 11.3391 8.7367 11.2544L8.68077 12.7534ZM12.6711 15.2253C13.04 15.9001 13.25 16.6744 13.25 17.5H14.75C14.75 16.4167 14.4738 15.3957 13.9873 14.5058L12.6711 15.2253ZM15.2644 11.4389L12.7584 14.379L13.9 15.3521L16.406 12.4119L15.2644 11.4389Z" fill="black"/>
</svg>
