<svg width="24" height="24" viewBox="0 0 24 24" fill="none" xmlns="http://www.w3.org/2000/svg">
<path fill-rule="evenodd" clip-rule="evenodd" d="M13.0263 1.55722C12.2833 2.30018 12.2833 3.50476 13.0263 4.24772L13.1684 4.38977L9.15215 8.40598L9.14425 8.41377L9.13646 8.42167L8.47162 9.08651C6.87341 10.6847 6.71112 13.1751 7.98475 14.9545L3.76347 19.1759L3.67257 19.085C3.64186 19.0543 3.59494 19.0467 3.5561 19.0661L1.05579 20.3162C0.994194 20.347 0.980872 20.4291 1.02957 20.4778L3.52216 22.9704C3.57086 23.0191 3.65295 23.0058 3.68375 22.9442L4.9339 20.4439C4.95332 20.405 4.94571 20.3581 4.915 20.3274L4.82413 20.2366L9.04541 16.0152C10.8248 17.2888 13.3152 17.1265 14.9134 15.5283L19.6101 10.8316L19.7527 10.9742C20.4957 11.7171 21.7003 11.7171 22.4432 10.9742C23.1862 10.2312 23.1862 9.02664 22.4432 8.28368L15.7168 1.55722C14.9738 0.81426 13.7692 0.81426 13.0263 1.55722ZM18.5495 9.7709L14.229 5.45044L10.7353 8.94416L15.0558 13.2646L18.5495 9.7709ZM9.67464 10.0048L9.53228 10.1472C8.33922 11.3402 8.33922 13.2746 9.53228 14.4676C10.7253 15.6607 12.6597 15.6607 13.8527 14.4676L13.9951 14.3253L9.67464 10.0048Z" fill="black"/>
</svg>
