<svg width="24" height="24" viewBox="0 0 24 24" fill="none" xmlns="http://www.w3.org/2000/svg">
<path d="M16.3525 2.02765L21.1684 3.34456C22.5908 3.73354 23.364 5.2663 22.8306 6.63969C22.3506 7.87547 20.9839 8.51727 19.7249 8.0981L16.5029 7.02531C16.4697 7.01426 16.4336 7.03046 16.4198 7.06257L14.9257 10.5449L18.9422 12.2036C19.3251 12.3617 19.5072 12.8002 19.3491 13.183C19.191 13.5659 18.7525 13.7481 18.3697 13.59L13.5054 11.5817L4.97241 20.1049C4.96172 20.1156 4.95079 20.1259 4.93964 20.1358L5.04551 20.2415C5.07724 20.2732 5.08511 20.3216 5.06504 20.3617L3.77321 22.9424C3.74139 23.006 3.65656 23.0197 3.60624 22.9695L1.03055 20.3967C0.980234 20.3465 0.994 20.2618 1.05765 20.23L3.64131 18.9396C3.68145 18.9196 3.72992 18.9274 3.76166 18.9591L3.88032 19.0777C3.89058 19.0661 3.90126 19.0547 3.91236 19.0436L12.5187 10.4472C12.5199 10.4459 12.5212 10.4446 12.5225 10.4434C12.2817 10.1429 12.2248 9.73017 12.3829 9.37231L15.4367 2.4627C15.592 2.11122 15.9815 1.9262 16.3525 2.02765Z" fill="black"/>
</svg>
