<svg width="24" height="24" viewBox="0 0 24 24" fill="none" xmlns="http://www.w3.org/2000/svg">
<path d="M3.19228 2.49917L3.45989 4.56438L8.69024 3.98654L8.41342 1.85424C8.33936 1.31496 7.84714 0.933537 7.30619 0.996235L4.06675 1.3717C3.51045 1.43617 3.11612 1.9446 3.19228 2.49917Z" fill="black"/>
<path d="M20.9999 21.9431H20.3427V16.7111H20.9999C21.5522 16.7111 21.9999 17.1587 21.9999 17.7107V20.9436C21.9999 21.4956 21.5522 21.9431 20.9999 21.9431Z" fill="black"/>
<path d="M2.89025 6.13563C2.33551 6.19692 1.93833 6.70022 2.00791 7.25373L2.34607 9.94362L2.91471 9.88412L6.08677 9.50377C6.4981 9.45445 6.87221 9.74757 6.92237 10.1585C6.97253 10.5694 6.67974 10.9425 6.26841 10.9918L3.07951 11.3742L2.53309 11.4313L2.71906 12.9106L2.90015 12.8845L6.08677 12.5024C6.4981 12.453 6.87221 12.7462 6.92237 13.1571C6.97253 13.568 6.67974 13.9411 6.26841 13.9904L3.09969 14.3703L2.90609 14.3983L3.87614 22.1146C3.93898 22.6145 4.36426 22.9895 4.86833 22.9895L17.8428 22.9895C18.395 22.9895 18.8428 22.542 18.8428 21.99V16.6642C18.8428 16.1122 18.395 15.6647 17.8428 15.6647H13.4796C12.9727 15.6647 12.546 15.2857 12.4865 14.7826L11.4693 6.18576C11.4048 5.64051 10.9124 5.24935 10.3664 5.30967L2.89025 6.13563Z" fill="black"/>
</svg>
