<svg width="24" height="24" viewBox="0 0 24 24" fill="none" xmlns="http://www.w3.org/2000/svg">
<path d="M19.1927 13.3832C20.3193 12.071 21 10.365 21 8.5C21 4.35786 17.6421 1 13.5 1C9.35787 1 6 4.35786 6 8.5C6 8.64909 6.00435 8.79716 6.01293 8.94409C6.01396 8.96168 6.0104 8.97924 6.00252 8.995L4.77682 11.4464C4.90322 11.4344 5.03389 11.4359 5.16752 11.4526L10.5723 12.1282C10.7757 12.1536 10.9665 12.213 11.1396 12.2997L13.25 10.1893V9.79894C13.25 8.3912 14.3912 7.25 15.7989 7.25C17.4288 7.25 18.75 8.57123 18.75 10.2011V11C18.75 13.0711 17.0711 14.75 15 14.75H14.9954L11.6481 16.9701L11.3719 18.7661C11.3301 19.0377 11.2272 19.2867 11.0786 19.5H11.6146C11.6666 19.5 11.7099 19.5398 11.7142 19.5916L11.9924 22.9084C11.9968 22.9602 12.0401 23 12.0921 23H19.891C19.9497 23 19.9957 22.9498 19.9907 22.8913L19.1687 13.4575C19.1663 13.4305 19.175 13.4037 19.1927 13.3832Z" fill="black"/>
<path d="M11.9565 14.9656L12.0849 14.1307C12.1185 13.9126 12.1102 13.6978 12.0662 13.4945L14.5303 11.0303C14.6895 10.8712 14.7621 10.6583 14.7484 10.4501C14.7495 10.4336 14.75 10.4168 14.75 10.4V9.79894C14.75 9.21963 15.2196 8.75 15.7989 8.75C16.6003 8.75 17.25 9.39966 17.25 10.2011V11C17.25 12.2426 16.2426 13.25 15 13.25H14.8C14.7954 13.25 14.7908 13.25 14.7862 13.2501C14.6381 13.2467 14.4875 13.2869 14.3547 13.375L11.9565 14.9656Z" fill="black"/>
<path d="M4.98147 12.941C4.79896 12.9182 4.65513 13.0937 4.71329 13.2681L6.4836 18.5791C6.51763 18.6811 6.61316 18.75 6.72077 18.75H9.64222C9.76562 18.75 9.87055 18.66 9.88931 18.538L10.6023 13.9027C10.6237 13.7635 10.526 13.6341 10.3862 13.6166L4.98147 12.941Z" fill="black"/>
</svg>
