<svg width="24" height="24" viewBox="0 0 24 24" fill="none" xmlns="http://www.w3.org/2000/svg">
<path fill-rule="evenodd" clip-rule="evenodd" d="M1 4.5V18.5C1 19.3284 1.67157 20 2.5 20H21.5C22.3284 20 23 19.3284 23 18.5V7.53908C23 6.71065 22.3284 6.03908 21.5 6.03908H12.6566C12.2381 6.03908 11.8385 5.86417 11.5546 5.55663L9.63946 3.48245C9.3555 3.1749 8.95596 3 8.53738 3H2.5C1.67157 3 1 3.67157 1 4.5ZM12.3333 9C12.8856 9 13.3333 9.44772 13.3333 10V11.5667C13.3333 11.6219 13.3781 11.6667 13.4333 11.6667H15C15.5523 11.6667 16 12.1144 16 12.6667V13.3333C16 13.8856 15.5523 14.3333 15 14.3333H13.4333C13.3781 14.3333 13.3333 14.3781 13.3333 14.4333V16C13.3333 16.5523 12.8856 17 12.3333 17H11.6667C11.1144 17 10.6667 16.5523 10.6667 16V14.4333C10.6667 14.3781 10.6219 14.3333 10.5667 14.3333H9C8.44772 14.3333 8 13.8856 8 13.3333V12.6667C8 12.1144 8.44772 11.6667 9 11.6667H10.5667C10.6219 11.6667 10.6667 11.6219 10.6667 11.5667V10C10.6667 9.44772 11.1144 9 11.6667 9H12.3333Z" fill="black"/>
</svg>
