<svg width="24" height="24" viewBox="0 0 24 24" fill="none" xmlns="http://www.w3.org/2000/svg">
<path d="M10.5168 2.63706C10.5168 2.00908 11.0259 1.5 11.6539 1.5L13 1.50001C13.628 1.50001 14.137 2.00908 14.137 2.63706C14.137 3.05537 14.4067 3.32562 14.825 3.32562H15.8256C16.4742 3.32562 17 3.8514 17 4.49998V4.56141C17 4.56388 17 4.56635 17 4.56882V5.65C17 5.8433 16.8433 6 16.65 6H7.85C7.6567 6 7.5 5.8433 7.5 5.65V4.49998C7.5 3.84595 8.0302 3.31576 8.68423 3.31576H9.68999C10.1083 3.31576 10.5168 3.05536 10.5168 2.63706Z" fill="black"/>
<path fill-rule="evenodd" clip-rule="evenodd" d="M18.5 4.56882C18.5 4.06041 18.3581 3.58514 18.1118 3.18043H19.1105C20.1322 3.18043 20.9605 4.0087 20.9605 5.03043V21.9C20.9605 22.9217 20.1323 23.75 19.1105 23.75H5.1C4.07827 23.75 3.25 22.9217 3.25 21.9V5.03043C3.25 4.0087 4.07827 3.18043 5.1 3.18043H6.3925C6.1435 3.58766 6 4.06642 6 4.57869V5.65C6 6.67173 6.82827 7.5 7.85 7.5H16.65C17.6717 7.5 18.5 6.67173 18.5 5.65V4.56882ZM12.3333 10C12.8856 10 13.3333 10.4477 13.3333 11V12.5667C13.3333 12.6219 13.3781 12.6667 13.4333 12.6667H15C15.5523 12.6667 16 13.1144 16 13.6667V14.3333C16 14.8856 15.5523 15.3333 15 15.3333H13.4333C13.3781 15.3333 13.3333 15.3781 13.3333 15.4333V17C13.3333 17.5523 12.8856 18 12.3333 18H11.6667C11.1144 18 10.6667 17.5523 10.6667 17V15.4333C10.6667 15.3781 10.6219 15.3333 10.5667 15.3333H9C8.44772 15.3333 8 14.8856 8 14.3333V13.6667C8 13.1144 8.44772 12.6667 9 12.6667H10.5667C10.6219 12.6667 10.6667 12.6219 10.6667 12.5667V11C10.6667 10.4477 11.1144 10 11.6667 10H12.3333Z" fill="black"/>
</svg>
