<svg width="24" height="24" viewBox="0 0 24 24" fill="none" xmlns="http://www.w3.org/2000/svg">
<path d="M12 1C17.5228 1 22 5.47715 22 11C22 13.839 20.8169 16.4017 18.9169 18.222L18.074 15.8138C19.1228 14.492 19.75 12.8189 19.75 11C19.75 6.71979 16.2802 3.25 12 3.25C7.71979 3.25 4.25 6.71979 4.25 11C4.25 12.8189 4.87721 14.492 5.92596 15.8138L5.08309 18.222C3.18307 16.4017 2 13.839 2 11C2 5.47715 6.47715 1 12 1Z" fill="black"/>
<path d="M17.4567 14.05C17.9622 13.1478 18.25 12.1077 18.25 11C18.25 8.88959 17.204 7.02348 15.6022 5.89183C15.2317 6.97288 14.2066 7.75 13 7.75H11C9.79337 7.75 8.76826 6.97288 8.39784 5.89183C6.796 7.02348 5.75 8.88959 5.75 11C5.75 12.1077 6.03782 13.1478 6.54327 14.05L6.84984 13.1741C7.20079 12.1714 8.14712 11.5 9.20948 11.5H14.7905C15.8529 11.5 16.7992 12.1714 17.1502 13.1741L17.4567 14.05Z" fill="black"/>
<path d="M11 6.25C10.365 6.25 9.84051 5.77643 9.76055 5.16318C10.4558 4.89627 11.2108 4.75 12 4.75C12.7892 4.75 13.5442 4.89627 14.2394 5.16318C14.1595 5.77643 13.635 6.25 13 6.25H11Z" fill="black"/>
<path fill-rule="evenodd" clip-rule="evenodd" d="M8.26559 13.6696C8.40597 13.2686 8.78451 13 9.20945 13H14.7905C15.2154 13 15.594 13.2686 15.7343 13.6696L18.5343 21.6697C18.7619 22.3198 18.2793 23 17.5905 23H6.40945C5.7206 23 5.23803 22.3198 5.46559 21.6697L8.26559 13.6696ZM10 16C9.99999 15.4477 10.4477 15 11 15H13C13.5523 15 14 15.4477 14 16C14 16.5523 13.5523 17 13 17H11C10.4477 17 10 16.5523 10 16Z" fill="black"/>
</svg>
