<svg width="24" height="24" viewBox="0 0 24 24" fill="none" xmlns="http://www.w3.org/2000/svg">
<path fill-rule="evenodd" clip-rule="evenodd" d="M12 4.75C7.99594 4.75 4.75 7.99594 4.75 12C4.75 16.0041 7.99594 19.25 12 19.25C16.0041 19.25 19.25 16.0041 19.25 12C19.25 7.99594 16.0041 4.75 12 4.75ZM15.5902 9.65667C15.8213 9.89829 16.0576 10.3213 15.7377 10.4184C15.4557 10.504 14.9844 10.3626 14.5142 10.2216C14.1445 10.1107 13.7756 10 13.5 10C12.9747 10 12.4776 10.1269 12.0671 10.2317C11.4288 10.3947 11 10.5042 11 10C11 9.17157 11.9189 7 13.5 7C14.307 7 14.5351 7.57892 14.8072 8.26957C14.988 8.72828 15.1881 9.23628 15.5902 9.65667ZM10.7042 14.6667C10.8425 14.4744 11 14.1938 11 13.9131C11 13.0847 10.3284 12.4131 9.5 12.4131C8.67157 12.4131 7 13.0847 7 13.9131C7 14.7415 9.17157 16.4131 10 16.4131C10.3867 16.4131 10.4125 15.9964 10.4436 15.4951C10.4489 15.409 10.4544 15.3205 10.4619 15.2311C10.4793 15.0235 10.5826 14.8358 10.7042 14.6667ZM6.53218 10.1305C6.44972 10.5364 6.71194 10.9323 7.11786 11.0148C7.52378 11.0972 7.91969 10.835 8.00215 10.4291L8.03197 10.2823C8.12918 9.80378 8.43225 9.39238 8.86046 9.1577C9.22369 8.95863 9.35678 8.50278 9.1577 8.13954C8.95863 7.77631 8.50278 7.64322 8.13954 7.8423C7.32419 8.28916 6.74709 9.07252 6.562 9.98369L6.53218 10.1305ZM14.7485 15.1261C15.1331 15.2798 15.3204 15.7162 15.1668 16.1008L15.1112 16.2399C14.7663 17.1034 14.0586 17.771 13.1765 18.0651C12.7836 18.1961 12.3588 17.9837 12.2278 17.5907C12.0968 17.1978 12.3092 16.773 12.7022 16.642C13.1654 16.4876 13.5371 16.137 13.7182 15.6835L13.7738 15.5444C13.9274 15.1598 14.3638 14.9725 14.7485 15.1261ZM14.3927 12.2577C13.9827 12.317 13.6984 12.6974 13.7577 13.1073C13.817 13.5173 14.1974 13.8016 14.6073 13.7423L14.7556 13.7208C15.2388 13.651 15.7284 13.7975 16.0937 14.1215C16.4036 14.3963 16.8776 14.3679 17.1524 14.058C17.4273 13.748 17.3988 13.274 17.0889 12.9992C16.3932 12.3823 15.4611 12.1032 14.5409 12.2363L14.3927 12.2577Z" fill="black"/>
<path fill-rule="evenodd" clip-rule="evenodd" d="M23 12C23 18.0751 18.0751 23 12 23C5.92487 23 1 18.0751 1 12C1 5.92487 5.92487 1 12 1C18.0751 1 23 5.92487 23 12ZM3.25 12C3.25 7.16751 7.16751 3.25 12 3.25C16.8325 3.25 20.75 7.16751 20.75 12C20.75 16.8325 16.8325 20.75 12 20.75C7.16751 20.75 3.25 16.8325 3.25 12Z" fill="black"/>
</svg>
