<svg width="24" height="24" viewBox="0 0 24 24" fill="none" xmlns="http://www.w3.org/2000/svg">
<path d="M6.75 6L9.25 6L9.25 4C9.25 3.58579 9.58579 3.25 10 3.25C10.4142 3.25 10.75 3.58579 10.75 4L10.75 6L13.25 6L13.25 4C13.25 3.58579 13.5858 3.25 14 3.25C14.4142 3.25 14.75 3.58579 14.75 4L14.75 6L17.25 6L17.25 4C17.25 3.58579 17.5858 3.25 18 3.25C18.4142 3.25 18.75 3.58579 18.75 4V6L21 6C21.5523 6 22 5.55228 22 5V2C22 1.44772 21.5523 1 21 1H3C2.44772 1 2 1.44772 2 2V5C2 5.55228 2.44772 6 3 6L5.25 6L5.25 4C5.25 3.58579 5.58579 3.25 6 3.25C6.41421 3.25 6.75 3.58579 6.75 4L6.75 6Z" fill="black"/>
<path fill-rule="evenodd" clip-rule="evenodd" d="M4 22V7.5H20V22C20 22.5523 19.5523 23 19 23H5C4.44772 23 4 22.5523 4 22ZM12.3331 11C12.8854 11 13.3331 11.4477 13.3331 12V13.5668C13.3331 13.622 13.3779 13.6668 13.4331 13.6668L15 13.6668C15.5523 13.6668 16 14.1145 16 14.6668V15.3334C16 15.8857 15.5523 16.3334 15 16.3334H13.4331C13.3779 16.3334 13.3331 16.3782 13.3331 16.4334V18C13.3331 18.5523 12.8854 19 12.3331 19H11.6665C11.1142 19 10.6665 18.5523 10.6665 18V16.4334C10.6665 16.3782 10.6217 16.3334 10.5665 16.3334H9C8.44772 16.3334 8 15.8857 8 15.3334V14.6668C8 14.1145 8.44772 13.6668 9 13.6668H10.5665C10.6217 13.6668 10.6665 13.622 10.6665 13.5668V12C10.6665 11.4477 11.1142 11 11.6665 11H12.3331Z" fill="black"/>
</svg>
