<svg width="24" height="24" viewBox="0 0 24 24" fill="none" xmlns="http://www.w3.org/2000/svg">
<path fill-rule="evenodd" clip-rule="evenodd" d="M1.29289 10.3478C0.902369 9.95729 0.902369 9.32413 1.29289 8.9336L8.9336 1.29289C9.32413 0.902369 9.95729 0.902369 10.3478 1.29289L22.7076 13.6527C23.0981 14.0432 23.0981 14.6764 22.7076 15.0669L15.0669 22.7076C14.6764 23.0981 14.0432 23.0981 13.6527 22.7076L1.29289 10.3478ZM9.82146 5.88105C10.2742 5.42836 11.0081 5.42836 11.4608 5.88105L13.1002 7.52041C13.5529 7.97311 13.5529 8.70707 13.1002 9.15977C12.6475 9.61246 11.9135 9.61247 11.4608 9.15977L9.82146 7.52041C9.36876 7.06771 9.36876 6.33375 9.82146 5.88105ZM16.3861 10.8063C15.9334 10.3536 15.1994 10.3536 14.7467 10.8063C14.294 11.259 14.294 11.993 14.7467 12.4457L16.3861 14.085C16.8388 14.5377 17.5727 14.5377 18.0254 14.085C18.4781 13.6323 18.4781 12.8983 18.0254 12.4457L16.3861 10.8063ZM5.88129 9.82134C6.33398 9.36865 7.06795 9.36865 7.52064 9.82134L9.16 11.4607C9.6127 11.9134 9.6127 12.6474 9.16 13.1001C8.70731 13.5528 7.97334 13.5528 7.52064 13.1001L5.88129 11.4607C5.42859 11.008 5.42859 10.274 5.88129 9.82134ZM12.4459 14.7466C11.9932 14.2939 11.2592 14.2939 10.8065 14.7466C10.3538 15.1993 10.3538 15.9332 10.8065 16.3859L12.4459 18.0253C12.8986 18.478 13.6325 18.478 14.0852 18.0253C14.5379 17.5726 14.5379 16.8386 14.0852 16.3859L12.4459 14.7466Z" fill="black"/>
</svg>
