<svg width="24" height="24" viewBox="0 0 24 24" fill="none" xmlns="http://www.w3.org/2000/svg">
<path d="M19 9C17.0472 9 15.4212 7.60065 15.0702 5.75L22.9298 5.75C22.5787 7.60065 20.9528 9 19 9Z" fill="black"/>
<path d="M15.0702 4.25L22.9298 4.25C22.5787 2.39936 20.9528 1 19 1C17.0472 1 15.4212 2.39935 15.0702 4.25Z" fill="black"/>
<path d="M2.38957 14.099C0.536813 12.2462 0.53681 9.24232 2.38956 7.38956C4.24232 5.53681 7.24622 5.53681 9.09897 7.38956L12.3244 10.615L5.61496 17.3244L2.38957 14.099Z" fill="black"/>
<path d="M6.67562 18.385L13.385 11.6756L16.6104 14.901C18.4632 16.7538 18.4632 19.7577 16.6104 21.6104C14.7577 23.4632 11.7538 23.4632 9.90103 21.6104L6.67562 18.385Z" fill="black"/>
</svg>
