<svg width="24" height="24" viewBox="0 0 24 24" fill="none" xmlns="http://www.w3.org/2000/svg">
<path fill-rule="evenodd" clip-rule="evenodd" d="M15.75 8.45459C15.75 8.4546 15.75 8.45458 15.75 8.45459V6.06818C15.75 3.97543 14.0869 2.25 12 2.25C9.91313 2.25 8.25 3.97543 8.25 6.06817V8.45457C8.25 8.45456 8.25 8.45458 8.25 8.45457L7 8.45459C6.51783 8.45459 6.11537 8.79584 6.02095 9.25H4C3.86193 9.25 3.75 9.13807 3.75 9V7.04222C4.466 6.7472 4.97001 6.04246 4.97001 5.22001C4.97001 4.132 4.088 3.25 3 3.25C1.912 3.25 1.03 4.132 1.03 5.22001C1.03 6.04246 1.534 6.7472 2.25 7.04222L2.25 9C2.25 9.9665 3.0335 10.75 4 10.75H6V12.25H4.0422C3.74718 11.534 3.04245 11.03 2.22 11.03C1.132 11.03 0.25 11.912 0.25 13C0.25 14.088 1.132 14.97 2.22 14.97C3.04247 14.97 3.74722 14.466 4.04223 13.75H6V15.25H4C3.0335 15.25 2.25 16.0335 2.25 17L2.25 18.3978C1.534 18.6928 1.03 19.3975 1.03 20.22C1.03 21.308 1.912 22.19 3 22.19C4.088 22.19 4.97001 21.308 4.97001 20.22C4.97001 19.3975 4.466 18.6928 3.75 18.3978V17C3.75 16.8619 3.86193 16.75 4 16.75H6V17C6 17.5523 6.44771 18 7 18H17C17.5523 18 18 17.5523 18 17V16.75H20C20.1381 16.75 20.25 16.8619 20.25 17V18.3978C19.534 18.6928 19.03 19.3975 19.03 20.22C19.03 21.308 19.912 22.19 21 22.19C22.088 22.19 22.97 21.308 22.97 20.22C22.97 19.3975 22.466 18.6928 21.75 18.3978V17C21.75 16.0335 20.9665 15.25 20 15.25H18V13.75H19.9578C20.2528 14.466 20.9575 14.97 21.78 14.97C22.868 14.97 23.75 14.088 23.75 13C23.75 11.912 22.868 11.03 21.78 11.03C20.9576 11.03 20.2528 11.534 19.9578 12.25H18V10.75H20C20.9665 10.75 21.75 9.9665 21.75 9V7.04222C22.466 6.7472 22.97 6.04246 22.97 5.22001C22.97 4.132 22.088 3.25 21 3.25C19.912 3.25 19.03 4.132 19.03 5.22001C19.03 6.04246 19.534 6.7472 20.25 7.04222V9C20.25 9.13807 20.1381 9.25 20 9.25H17.9791C17.8846 8.79584 17.4822 8.45459 17 8.45459H15.75ZM12 3.75C10.7732 3.75 9.75 4.77191 9.75 6.06817V8.45457C9.75 8.45458 9.75 8.45456 9.75 8.45457L14.25 8.45459C14.25 8.45458 14.25 8.4546 14.25 8.45459V6.06818C14.25 4.77191 13.2268 3.75 12 3.75ZM2.52999 5.22001C2.52999 4.96043 2.74042 4.75 3 4.75C3.25958 4.75 3.47001 4.96043 3.47001 5.22001C3.47001 5.47958 3.25958 5.69001 3 5.69001C2.74042 5.69001 2.52999 5.47958 2.52999 5.22001ZM3 19.75C2.74042 19.75 2.52999 19.9604 2.52999 20.22C2.52999 20.4796 2.74042 20.69 3 20.69C3.25958 20.69 3.47001 20.4796 3.47001 20.22C3.47001 19.9604 3.25958 19.75 3 19.75ZM2.22 12.53C1.96043 12.53 1.75 12.7405 1.75 13C1.75 13.2596 1.96043 13.47 2.22 13.47C2.47958 13.47 2.69001 13.2596 2.69001 13C2.69001 12.7405 2.47958 12.53 2.22 12.53ZM21 19.75C20.7404 19.75 20.53 19.9604 20.53 20.22C20.53 20.4796 20.7404 20.69 21 20.69C21.2596 20.69 21.47 20.4796 21.47 20.22C21.47 19.9604 21.2596 19.75 21 19.75ZM21.47 5.22001C21.47 4.96043 21.2596 4.75 21 4.75C20.7404 4.75 20.53 4.96043 20.53 5.22001C20.53 5.47958 20.7404 5.69001 21 5.69001C21.2596 5.69001 21.47 5.47958 21.47 5.22001ZM21.78 12.53C22.0396 12.53 22.25 12.7405 22.25 13C22.25 13.2596 22.0396 13.47 21.78 13.47C21.5204 13.47 21.31 13.2596 21.31 13C21.31 12.7405 21.5204 12.53 21.78 12.53ZM14 13.2273C14 14.357 13.1046 15.2728 12 15.2728C10.8954 15.2728 10 14.357 10 13.2273C10 12.0976 10.8954 11.1819 12 11.1819C13.1046 11.1819 14 12.0976 14 13.2273Z" fill="black"/>
</svg>
