<svg width="24" height="24" viewBox="0 0 24 24" fill="none" xmlns="http://www.w3.org/2000/svg">
<path fill-rule="evenodd" clip-rule="evenodd" d="M6.75 5.5V9H4C3.44772 9 3 9.44772 3 10V22C3 22.5523 3.44772 23 4 23H20C20.5523 23 21 22.5523 21 22V10C21 9.44772 20.5523 9 20 9H17.25V5.5C17.25 2.6005 14.8995 0.25 12 0.25C9.1005 0.25 6.75 2.60051 6.75 5.5ZM12 1.75C9.92893 1.75 8.25 3.42893 8.25 5.5V9H15.75V5.5C15.75 3.42893 14.0711 1.75 12 1.75ZM12 19C13.6569 19 15 17.6568 15 16C15 14.3431 13.6569 13 12 13C10.3431 13 9 14.3431 9 16C9 17.6568 10.3431 19 12 19Z" fill="black"/>
</svg>
