<svg width="24" height="24" viewBox="0 0 24 24" fill="none" xmlns="http://www.w3.org/2000/svg">
<path fill-rule="evenodd" clip-rule="evenodd" d="M12 1C9.37665 1 7.25 3.12665 7.25 5.75001L7.25 8.56216C5.27847 10.0192 4 12.3603 4 15C4 19.4183 7.58172 23 12 23C16.4183 23 20 19.4183 20 15C20 12.3603 18.7215 10.0192 16.75 8.56216V5.75C16.75 3.12665 14.6234 1 12 1ZM15.25 7.68772V5.75C15.25 3.95508 13.7949 2.5 12 2.5C10.2051 2.5 8.75 3.95508 8.75 5.75L8.75 7.68772C9.74308 7.24568 10.8428 7 12 7C13.1572 7 14.2569 7.24568 15.25 7.68772ZM15 15C15 16.6569 13.6569 18 12 18C10.3431 18 9 16.6569 9 15C9 13.3431 10.3431 12 12 12C13.6569 12 15 13.3431 15 15Z" fill="black"/>
</svg>
