<svg width="24" height="24" viewBox="0 0 24 24" fill="none" xmlns="http://www.w3.org/2000/svg">
<path fill-rule="evenodd" clip-rule="evenodd" d="M3.66898 3.92278C3.26824 4.06336 3 4.44172 3 4.86641V10.6607C3 16.2212 6.51216 21.1752 11.7592 23.0158C11.9151 23.0705 12.0849 23.0705 12.2408 23.0158C17.4878 21.1752 21 16.2212 21 10.6606V4.86641C21 4.44172 20.7318 4.06336 20.331 3.92278L12.331 1.11643C12.1167 1.04127 11.8833 1.04127 11.669 1.11643L3.66898 3.92278ZM15.5668 10.4915C15.838 10.1785 15.8042 9.70483 15.4912 9.43355C15.1782 9.16227 14.7045 9.1961 14.4332 9.50912L11.0218 13.4454L9.48809 12.1309C9.1736 11.8613 8.70012 11.8977 8.43056 12.2122C8.16099 12.5267 8.19741 13.0002 8.51191 13.2698L10.6119 15.0698C10.9252 15.3383 11.3965 15.3033 11.6668 14.9915L15.5668 10.4915Z" fill="black"/>
</svg>
