<svg width="24" height="24" viewBox="0 0 24 24" fill="none" xmlns="http://www.w3.org/2000/svg">
<path fill-rule="evenodd" clip-rule="evenodd" d="M6.26772 2.5C6.38903 1.65193 7.11838 1 8 1H11C11.8816 1 12.611 1.65193 12.7323 2.5H13C13.8816 2.5 14.611 3.15193 14.7323 4H16C16.5523 4 17 4.44772 17 5V10.935L13.8959 12.019C13.0599 12.3109 12.5 13.0995 12.5 13.985V16.7889C12.5 18.3125 12.9297 19.7618 13.6919 21H3C2.44772 21 2 20.5523 2 20V5C2 4.44772 2.44772 4 3 4H4.26772C4.38903 3.15193 5.11838 2.5 6 2.5H6.26772ZM8 2.5C7.86193 2.5 7.75 2.61193 7.75 2.75C7.75 3.44036 7.19036 4 6.5 4H6C5.86193 4 5.75 4.11193 5.75 4.25V5.25C5.75 5.38807 5.86193 5.5 6 5.5H13C13.1381 5.5 13.25 5.38807 13.25 5.25V4.25C13.25 4.11193 13.1381 4 13 4H12.5C11.8096 4 11.25 3.44036 11.25 2.75C11.25 2.61193 11.1381 2.5 11 2.5H8Z" fill="black"/>
<path d="M14.3904 13.4351L18.1703 12.1151C18.3838 12.0406 18.6162 12.0406 18.8297 12.1151L22.6096 13.4351C22.8434 13.5167 23 13.7373 23 13.985V16.7889C23 19.5674 21.2429 22.0422 18.6197 22.9582C18.5422 22.9853 18.4578 22.9853 18.3803 22.9582C17.2473 22.5625 16.2758 21.8761 15.5378 21C14.567 19.8477 14 18.3673 14 16.7889V13.985C14 13.7373 14.1566 13.5167 14.3904 13.4351Z" fill="black"/>
</svg>
