<svg width="24" height="24" viewBox="0 0 24 24" fill="none" xmlns="http://www.w3.org/2000/svg">
<path fill-rule="evenodd" clip-rule="evenodd" d="M3 5.75C3 3.95507 4.45507 2.5 6.25 2.5C8.04492 2.5 9.5 3.95508 9.5 5.75L9.49999 8.75463C7.67107 10.2208 6.5 12.4736 6.5 15C6.5 19.4183 10.0817 23 14.5 23C18.9183 23 22.5 19.4183 22.5 15C22.5 10.5817 18.9183 7 14.5 7C13.2448 7 12.0572 7.28906 11 7.80424L11 5.75C11 3.12665 8.87335 1 6.25 1C3.62665 1 1.5 3.12665 1.5 5.75V8.75C1.5 9.16421 1.83579 9.5 2.25 9.5C2.66421 9.5 3 9.16421 3 8.75V5.75ZM17.5 15C17.5 16.6569 16.1569 18 14.5 18C12.8431 18 11.5 16.6569 11.5 15C11.5 13.3431 12.8431 12 14.5 12C16.1569 12 17.5 13.3431 17.5 15Z" fill="black"/>
</svg>
