<svg width="24" height="24" viewBox="0 0 24 24" fill="none" xmlns="http://www.w3.org/2000/svg">
<path fill-rule="evenodd" clip-rule="evenodd" d="M2.5 5.75C2.5 3.95507 3.95507 2.5 5.75 2.5C7.54493 2.5 9 3.95507 9 5.75V9H8C7.44772 9 7 9.43947 7 9.98159V21.0184C7 21.5605 7.44772 22 8 22H22C22.5523 22 23 21.5605 23 21.0184V9.98159C23 9.43947 22.5523 9 22 9H10.5V5.75C10.5 3.12665 8.37335 1 5.75 1C3.12665 1 1 3.12665 1 5.75V8.75C1 9.16421 1.33579 9.5 1.75 9.5C2.16421 9.5 2.5 9.16421 2.5 8.75V5.75ZM17 15.5C17 16.6046 16.1046 17.5 15 17.5C13.8954 17.5 13 16.6046 13 15.5C13 14.3954 13.8954 13.5 15 13.5C16.1046 13.5 17 14.3954 17 15.5Z" fill="black"/>
</svg>
