<svg width="24" height="24" viewBox="0 0 24 24" fill="none" xmlns="http://www.w3.org/2000/svg">
<g clip-path="url(#clip0_1607_8818)">
<path d="M14.9742 7.99995C15.1299 7.9903 15.3418 7.99995 15.5 7.99995C19.6421 7.99995 23 11.3578 23 15.4999C23 19.6421 19.6421 22.9999 15.5 22.9999C13.635 22.9999 11.929 22.3192 10.6168 21.1926C10.5963 21.175 10.5695 21.1663 10.5425 21.1686L1.10868 21.9906C1.05025 21.9957 1 21.9496 1 21.891L1 14.092C1 14.04 1.03984 13.9967 1.09164 13.9924L4.40836 13.7142C4.46017 13.7098 4.5 13.6665 4.5 13.6145V12.5994L4.5 11.426M4.5 11.426V11.2353C4.5 8.06776 7.07152 5.5 10.239 5.5C11.983 5.5 13.6342 6.29275 14.7236 7.65456L14.9523 7.94033C14.9805 7.97557 14.9816 8.0253 14.9551 8.0618C12.5891 11.3149 8.41537 12.7047 4.57075 11.5218C4.52871 11.5088 4.5 11.47 4.5 11.426ZM1 1H8.5C8.77614 1 9 1.22386 9 1.5V5.63414M16 12C15.3944 12.9083 15.3944 14.0917 16 15" stroke="black" stroke-width="1.5" stroke-linecap="round"/>
</g>
<defs>
<clipPath id="clip0_1607_8818">
<rect width="24" height="24" fill="white"/>
</clipPath>
</defs>
</svg>
