<svg width="24" height="24" viewBox="0 0 24 24" fill="none" xmlns="http://www.w3.org/2000/svg">
<path d="M1 5H23M1 19H23M1 11.5L2.3001 10.7909C3.18554 10.3079 4.26999 10.3782 5.08568 10.9714C5.94143 11.5938 7.08822 11.638 7.98938 11.0835L8.3615 10.8545C9.20163 10.3375 10.2707 10.3787 11.0685 10.9589L11.1947 11.0507C11.9729 11.6166 13.0271 11.6166 13.8053 11.0507L14.0327 10.8853C14.7434 10.3684 15.7182 10.4161 16.375 11C17.0318 11.5839 18.0066 11.6316 18.7173 11.1147L19.0398 10.8802C19.7788 10.3427 20.7614 10.279 21.5637 10.7166L23 11.5M4 16.0001V16.0318M8 14.0001V14.0318M16 14.0001V14.0318M12 16.0001V16.0318M20 16.0001V16.0318" stroke="black" stroke-width="1.5" stroke-linecap="round"/>
</svg>
