<svg width="24" height="24" viewBox="0 0 24 24" fill="none" xmlns="http://www.w3.org/2000/svg">
<path d="M9 14.3333C9.23549 13.1558 10.1559 12.2354 11.3333 11.9999M12 5V1M7.45558 7.00001L4.97021 4.51465M16.5444 7.00001L19.0298 4.51465M5.95239 18.3333H4C3.44772 18.3333 3 18.781 3 19.3333V21.9999C3 22.5522 3.44772 22.9999 4 22.9999H20C20.5523 22.9999 21 22.5522 21 21.9999V19.3333C21 18.781 20.5523 18.3333 20 18.3333H18.0521M5.95239 18.3333L6.64947 13.6163C7.0424 10.9641 9.31891 9 12 9C14.6812 9 16.9577 10.9641 17.3506 13.6163L18.0521 18.3333M5.95239 18.3333H18.0521" stroke="black" stroke-width="1.5" stroke-linecap="round"/>
</svg>
