<svg width="24" height="24" viewBox="0 0 24 24" fill="none" xmlns="http://www.w3.org/2000/svg">
<g clip-path="url(#clip0_1607_8838)">
<path d="M8.16736 23L8.16739 18.8263C8.16739 16.7009 9.88251 14.978 11.9982 14.978C14.1099 14.978 15.8233 16.6946 15.829 18.8158L15.8325 20.102L15.8325 23M9.86796 11.1053C9.86783 11.1152 9.86776 11.1251 9.86776 11.135C9.86776 12.3141 10.8193 13.27 11.9931 13.27C13.1669 13.27 14.1185 12.3141 14.1185 11.135C14.1185 11.1251 14.1184 11.1152 14.1183 11.1053M9.86796 11.1053C9.88379 9.93986 10.8292 9 11.9931 9C13.157 9 14.1024 9.93986 14.1183 11.1053M9.86796 11.1053H9.85491C9.01003 10.6514 8.04481 10.394 7.01991 10.394C3.69521 10.394 1.00002 13.1015 1.00002 16.4413L1 21.78C0.999991 22.4538 1.54374 23 2.21448 23H21.7855C22.4562 23 23 22.4538 23 21.78L23 18.4461L22.9945 16.4248C22.9855 13.0915 20.2929 10.394 16.9746 10.394C15.9496 10.394 14.9844 10.6514 14.1396 11.1053H14.1183M10.3517 4.35501C10.3517 6.20794 8.85642 7.71003 7.01188 7.71003C5.16735 7.71003 3.67206 6.20794 3.67206 4.35501C3.67206 2.50209 5.16735 1 7.01188 1C8.85642 1 10.3517 2.50209 10.3517 4.35501ZM20.3065 4.35501C20.3065 6.20794 18.8112 7.71003 16.9666 7.71003C15.1221 7.71003 13.6268 6.20794 13.6268 4.35501C13.6268 2.50209 15.1221 1 16.9666 1C18.8112 1 20.3065 2.50209 20.3065 4.35501Z" stroke="black" stroke-width="1.5" stroke-linecap="round"/>
</g>
<defs>
<clipPath id="clip0_1607_8838">
<rect width="24" height="24" fill="white"/>
</clipPath>
</defs>
</svg>
