<svg width="24" height="24" viewBox="0 0 24 24" fill="none" xmlns="http://www.w3.org/2000/svg">
<path d="M18.6918 21.0001V15.6531C18.6918 14.1878 17.5019 13 16.0341 13H16.0179M8.84991 11.7548L10.0293 13.2265M10.0293 13.2265L10.5597 13.8883C10.7735 14.1552 11.0973 14.3105 11.4396 14.3105H14.7382C15.4452 14.3105 16.0183 13.7384 16.0183 13.0326C16.0183 13.0217 16.0181 13.0108 16.0179 13M10.0293 13.2265L9.90463 13.6822L9.62177 14.7952C9.61878 14.8067 9.61782 14.8186 9.61893 14.8304V22.0001C9.61893 22.5524 9.17045 23.0001 8.61722 23.0001H7.8327C7.27947 23.0001 6.83099 22.5524 6.83099 22.0001V18.1763C6.81214 17.9882 6.7414 17.8089 6.62663 17.6585L4.22312 14.5089C4.02355 14.2473 3.96215 13.9059 4.05814 13.5914L5.2955 9.53695C5.70828 8.18441 7.08057 7.36418 8.46977 7.63966C9.16597 7.77771 9.74585 8.16485 10.1382 8.68783L12.096 11.3044C12.3088 11.5879 12.643 11.7548 12.9978 11.7548H14.7382C15.4342 11.7548 16.0005 12.3093 16.0179 13M12.6631 3.18262C12.6631 4.38804 11.6842 5.36523 10.4767 5.36523C9.26925 5.36523 8.29038 4.38804 8.29038 3.18262C8.29038 1.97719 9.26925 1 10.4767 1C11.6842 1 12.6631 1.97719 12.6631 3.18262ZM18.0215 21.0483L17.401 22.9069C17.3857 22.9527 17.4198 23 17.4682 23H19.9428C19.9911 23 20.0253 22.9527 20.01 22.9069L19.3894 21.0483C19.3798 21.0195 19.3527 21 19.3222 21H18.0887C18.0582 21 18.0312 21.0195 18.0215 21.0483Z" stroke="black" stroke-width="1.5" stroke-linecap="round"/>
</svg>
