<svg width="24" height="24" viewBox="0 0 24 24" fill="none" xmlns="http://www.w3.org/2000/svg">
<path d="M12 9V17M12 17H13.9915C14.2665 17 14.4894 17.2239 14.4894 17.5V18.5C14.4894 18.7761 14.2665 19 13.9915 19H12.4979C12.2229 19 12 18.7761 12 18.5V17ZM12 17H10.5063C10.2314 17 10.0085 17.2239 10.0085 17.5V20.5C10.0085 20.7761 10.2314 21 10.5063 21H13.4937C13.7686 21 13.9915 21.2239 13.9915 21.5V23M10.0085 13H13.9915M14.8967 3.90909C14.8967 5.51574 13.5998 6.81818 11.9999 6.81818C10.4001 6.81818 9.10312 5.51574 9.10312 3.90909C9.10312 2.30244 10.4001 1 11.9999 1C13.5998 1 14.8967 2.30244 14.8967 3.90909ZM2.10114 19.7856L5.06949 11.6273C5.64353 10.0495 7.13799 9.00006 8.81063 9.00005L15.1893 9.00002C16.862 9.00001 18.3565 10.0495 18.9305 11.6272L21.8989 19.7856C22.2902 20.8612 21.4973 22 20.357 22C19.6727 22 19.0602 21.5737 18.8199 20.9303L17.1717 16.5164C17.1327 16.4121 16.9789 16.4401 16.9789 16.5515V21.875C16.9789 22.4963 16.4773 23 15.8586 23H8.14139C7.5227 23 7.02115 22.4963 7.02115 21.875V16.5515C7.02115 16.4401 6.86726 16.4121 6.82833 16.5164L5.18011 20.9303C4.93984 21.5737 4.32732 22 3.64303 22C2.50275 22 1.7098 20.8612 2.10114 19.7856ZM10.0085 11.125V13.7192C10.0085 14.1781 9.69673 14.5865 9.24081 14.617C8.67989 14.6546 8.01692 14.577 8.01692 14L8.01695 12.8751C8.017 11.8396 8.85289 11 9.88399 11C9.95273 11 10.0085 11.056 10.0085 11.125ZM13.9915 11.125V13.7192C13.9915 14.1781 14.3033 14.5865 14.7592 14.617C15.3201 14.6546 15.9831 14.577 15.9831 14L15.983 12.8751C15.983 11.8396 15.1471 11 14.116 11C14.0473 11 13.9915 11.056 13.9915 11.125Z" stroke="black" stroke-width="1.5" stroke-linecap="round" stroke-linejoin="round"/>
</svg>
