<svg width="24" height="24" viewBox="0 0 24 24" fill="none" xmlns="http://www.w3.org/2000/svg">
<path d="M15 14.6578V18C15 18.5523 14.5523 19 14 19M14 19H10M14 19C14.5523 19 15 19.4477 15 20V22C15 22.5523 14.5523 23 14 23H10C9.44772 23 9 22.5523 9 22V20C9 19.4477 9.44772 19 10 19M10 19C9.44772 19 9 18.5523 9 18V14.6578M8 17H9M15 17H16M8 21H9M15 21H16M12 13.091C12 14.1453 11.1453 15 10.091 15C9.03672 15 8.18169 14.1451 8.18148 13.0909C7.63062 13.0909 7.12062 12.9159 6.70405 12.6185M12 13.091C12 14.1453 12.8547 15 13.909 15C14.9633 15 15.8183 14.1451 15.8185 13.0909C16.3822 13.0909 16.9032 12.9077 17.325 12.5975M12 13.091V9.87483M12 2.90909C12 1.85473 11.1453 1 10.091 1C9.03659 1 8.18172 1.85477 8.18172 2.90913C7.41169 2.90913 6.72152 3.25105 6.25476 3.79135M12 2.90909C12 1.85473 12.8547 1 13.909 1C14.9634 1 15.8183 1.85477 15.8183 2.90913C16.5787 2.90913 17.2613 3.24259 17.7277 3.77125M12 2.90909V7.96876M9.41824 5.50415C9.12561 6.20332 9.28768 6.97906 9.76957 7.50394M7.98088 7.75145C8.49099 7.94222 9.07915 7.91254 9.58734 7.62005L9.76957 7.50394M14.295 7.36368C14.5831 8.05203 14.4305 8.8146 13.9658 9.33893M15.7318 9.61104C15.2217 9.80181 14.6336 9.77213 14.1254 9.47965L13.9658 9.33893M8.32484 11.3682C7.64588 11.1863 6.948 11.5892 6.76607 12.2681L6.70405 12.6185M15.6752 11.3682C16.3541 11.1863 17.052 11.5892 17.2339 12.2681L17.325 12.5975M7.83107 4.77479C7.15212 4.95671 6.45423 4.55379 6.27231 3.87483L6.25476 3.79135M16.1689 4.77479C16.8436 4.95557 17.537 4.55883 17.7242 3.88759C17.7266 3.87917 17.7277 3.87041 17.7277 3.86167V3.77125M6.70405 12.6185C6.05752 12.1569 5.63603 11.4004 5.63603 10.5455C5.63603 10.2299 5.69345 9.92778 5.7984 9.64894C5.81501 9.6048 5.80014 9.55484 5.76245 9.52648C5.29943 9.17813 5 8.62401 5 7.99996C5 7.37584 5.29949 6.82167 5.7626 6.47333C5.80029 6.44498 5.81516 6.39502 5.79855 6.35088C5.69365 6.0721 5.63627 5.77004 5.63627 5.45459C5.63627 4.8188 5.86936 4.23746 6.25476 3.79135M17.325 12.5975C17.9551 12.1341 18.364 11.3875 18.364 10.5455C18.364 10.2299 18.3066 9.92778 18.2016 9.64894C18.185 9.6048 18.1999 9.55484 18.2375 9.52648C18.7006 9.17813 19 8.62401 19 7.99996C19 7.37584 18.7005 6.82167 18.2374 6.47333C18.1997 6.44498 18.1848 6.39502 18.2014 6.35088C18.3063 6.0721 18.3637 5.77004 18.3637 5.45459C18.3637 4.80921 18.1235 4.21992 17.7277 3.77125M13.9658 9.33893C13.7829 9.54531 13.5516 9.71478 13.2799 9.82829C12.8805 9.99512 12.4563 10.0148 12.0681 9.91213L12 9.87483M12 9.87483V7.96876M12 7.96876L11.6451 8.05261C11.2569 8.15529 10.8328 8.1356 10.4333 7.96876C10.1724 7.85979 9.94887 7.69923 9.76957 7.50394" stroke="black" stroke-width="1.5" stroke-linecap="round" stroke-linejoin="round"/>
</svg>
