<svg width="24" height="24" viewBox="0 0 24 24" fill="none" xmlns="http://www.w3.org/2000/svg">
<path d="M4 1V0.25H3.25V1H4ZM20 1H20.75V0.25H20V1ZM10 8.5H9.25C9.25 8.91421 9.58579 9.25 10 9.25V8.5ZM14 9.25C14.4142 9.25 14.75 8.91421 14.75 8.5C14.75 8.08579 14.4142 7.75 14 7.75V9.25ZM10 3.5V2.75C9.58579 2.75 9.25 3.08579 9.25 3.5H10ZM14 4.25C14.4142 4.25 14.75 3.91421 14.75 3.5C14.75 3.08579 14.4142 2.75 14 2.75V4.25ZM13 6.75C13.4142 6.75 13.75 6.41421 13.75 6C13.75 5.58579 13.4142 5.25 13 5.25V6.75ZM7 11.5V10.75C6.58579 10.75 6.25 11.0858 6.25 11.5H7ZM10 12.25C10.4142 12.25 10.75 11.9142 10.75 11.5C10.75 11.0858 10.4142 10.75 10 10.75V12.25ZM6.25 15.5C6.25 15.9142 6.58579 16.25 7 16.25C7.41421 16.25 7.75 15.9142 7.75 15.5H6.25ZM9.4 14.25C9.81421 14.25 10.15 13.9142 10.15 13.5C10.15 13.0858 9.81421 12.75 9.4 12.75V14.25ZM14 11.5V10.75C13.5858 10.75 13.25 11.0858 13.25 11.5H14ZM17 11.5H17.75C17.75 11.0858 17.4142 10.75 17 10.75V11.5ZM13.25 15.5C13.25 15.9142 13.5858 16.25 14 16.25C14.4142 16.25 14.75 15.9142 14.75 15.5H13.25ZM17 13.5V14.25C17.4142 14.25 17.75 13.9142 17.75 13.5H17ZM7 17.25C6.58579 17.25 6.25 17.5858 6.25 18C6.25 18.4142 6.58579 18.75 7 18.75V17.25ZM8.5 18.75C8.91421 18.75 9.25 18.4142 9.25 18C9.25 17.5858 8.91421 17.25 8.5 17.25V18.75ZM6 20.25C5.58579 20.25 5.25 20.5858 5.25 21C5.25 21.4142 5.58579 21.75 6 21.75V20.25ZM7 21.75C7.41421 21.75 7.75 21.4142 7.75 21C7.75 20.5858 7.41421 20.25 7 20.25V21.75ZM9.5 20.25C9.08579 20.25 8.75 20.5858 8.75 21C8.75 21.4142 9.08579 21.75 9.5 21.75V20.25ZM10.5 21.75C10.9142 21.75 11.25 21.4142 11.25 21C11.25 20.5858 10.9142 20.25 10.5 20.25V21.75ZM13.5 20.25C13.0858 20.25 12.75 20.5858 12.75 21C12.75 21.4142 13.0858 21.75 13.5 21.75V20.25ZM14.5 21.75C14.9142 21.75 15.25 21.4142 15.25 21C15.25 20.5858 14.9142 20.25 14.5 20.25V21.75ZM17 20.25C16.5858 20.25 16.25 20.5858 16.25 21C16.25 21.4142 16.5858 21.75 17 21.75V20.25ZM18 21.75C18.4142 21.75 18.75 21.4142 18.75 21C18.75 20.5858 18.4142 20.25 18 20.25V21.75ZM15.5 17.25C15.0858 17.25 14.75 17.5858 14.75 18C14.75 18.4142 15.0858 18.75 15.5 18.75V17.25ZM17 18.75C17.4142 18.75 17.75 18.4142 17.75 18C17.75 17.5858 17.4142 17.25 17 17.25V18.75ZM11.2499 17.25C10.8357 17.25 10.4999 17.5858 10.4999 18C10.4999 18.4142 10.8357 18.75 11.2499 18.75V17.25ZM12.7501 18.75C13.1643 18.75 13.5001 18.4142 13.5001 18C13.5001 17.5858 13.1643 17.25 12.7501 17.25V18.75ZM2 0.25C1.58579 0.25 1.25 0.585786 1.25 1C1.25 1.41421 1.58579 1.75 2 1.75L2 0.25ZM22 1.75C22.4142 1.75 22.75 1.41422 22.75 1C22.75 0.585788 22.4142 0.250002 22 0.250002L22 1.75ZM4 1.75H20V0.25H4V1.75ZM19.25 1V22H20.75V1H19.25ZM19 22.25H5V23.75H19V22.25ZM4.75 22V1H3.25V22H4.75ZM5 22.25C4.86193 22.25 4.75 22.1381 4.75 22H3.25C3.25 22.9665 4.0335 23.75 5 23.75V22.25ZM19.25 22C19.25 22.1381 19.1381 22.25 19 22.25V23.75C19.9665 23.75 20.75 22.9665 20.75 22H19.25ZM10 9.25H14V7.75H10V9.25ZM10 4.25H14V2.75H10V4.25ZM9.25 3.5V6H10.75V3.5H9.25ZM9.25 6V8.5H10.75V6H9.25ZM10 6.75H13V5.25H10V6.75ZM7 12.25H10V10.75H7V12.25ZM6.25 11.5V13.5H7.75V11.5H6.25ZM6.25 13.5V15.5H7.75V13.5H6.25ZM7 14.25H9.4V12.75H7V14.25ZM14 12.25H17V10.75H14V12.25ZM13.25 11.5V13.5H14.75V11.5H13.25ZM13.25 13.5V15.5H14.75V13.5H13.25ZM14 14.25H17V12.75H14V14.25ZM17.75 13.5V11.5H16.25V13.5H17.75ZM7 18.75H8.5V17.25H7V18.75ZM6 21.75H7V20.25H6V21.75ZM17 21.75H18V20.25H17V21.75ZM15.5 18.75H17V17.25H15.5V18.75ZM2 1.75L22 1.75L22 0.250002L2 0.25L2 1.75ZM9.5 21.75H10.5V20.25H9.5V21.75ZM13.5 21.75H14.5V20.25H13.5V21.75ZM11.2499 18.75H12.7501V17.25H11.2499V18.75Z" fill="black"/>
</svg>
