<svg width="24" height="24" viewBox="0 0 24 24" fill="none" xmlns="http://www.w3.org/2000/svg">
<path d="M15.1794 23V18.7587C15.1794 18.2911 15.5306 17.9074 15.89 17.6083C16.2642 17.2969 16.5024 16.8276 16.5023 16.3027C16.5024 15.3651 15.7422 14.605 14.8046 14.605C14.7479 14.605 14.6918 14.6078 14.6365 14.6132C13.9253 14.6831 12.8544 14.6831 12.1432 14.6132C12.0879 14.6078 12.0318 14.605 11.9751 14.605C11.0375 14.605 10.2773 15.3651 10.2773 16.3027C10.2773 16.8282 10.5161 17.2979 10.8909 17.6093C11.2511 17.9085 11.6033 18.2926 11.6033 18.7609V22.9995M3.66148 8.24556L7.33454 10.3662C7.73948 10.6 7.89621 11.096 7.97555 11.5568C8.05816 12.0365 8.34544 12.4774 8.80001 12.7399C9.61203 13.2087 10.6504 12.9305 11.1192 12.1185C11.1476 12.0693 11.1732 12.0194 11.1961 11.9687C11.4912 11.3179 12.0266 10.3905 12.4427 9.80956C12.4751 9.76437 12.5056 9.71719 12.5339 9.66805C13.0028 8.85603 12.7245 7.8177 11.9125 7.34888C11.4575 7.08615 10.9313 7.05803 10.4742 7.22698C10.035 7.38932 9.52627 7.50223 9.12074 7.2681L5.44995 5.14877M7 23.0001V15.3612L2 12.5603M7 1L19.4593 7.44264C19.7914 7.61437 20 7.95703 20 8.33091V23M15 10L13.5001 12.5H17.0001L16.6333 11.0326C16.5503 10.7009 16.3037 10.4345 15.9793 10.3264L15 10Z" stroke="black" stroke-width="1.5" stroke-linecap="round" stroke-linejoin="round"/>
</svg>
