<svg width="24" height="24" viewBox="0 0 24 24" fill="none" xmlns="http://www.w3.org/2000/svg">
<path d="M8.00002 9.5V8.75C7.9046 8.75 7.81006 8.76821 7.72147 8.80364L8.00002 9.5ZM16 9.5L16.2786 8.80364C16.19 8.76821 16.0954 8.75 16 8.75V9.5ZM9.0001 19.5L8.41882 19.026L8.1397 19.3684L8.30373 19.7785L9.0001 19.5ZM8.37502 12.5L9.12075 12.4201C9.09645 12.1933 8.97022 11.9898 8.77777 11.8673C8.58532 11.7448 8.34757 11.7166 8.13177 11.7905L8.37502 12.5ZM6.0001 19.5L5.41035 19.0366C5.22176 19.2766 5.19747 19.607 5.34891 19.872L6.0001 19.5ZM15.0001 19.5L15.6964 19.7785C15.7977 19.5254 15.7536 19.2373 15.5813 19.026L15.0001 19.5ZM18.0001 19.5L18.6513 19.8721C18.8027 19.607 18.7784 19.2766 18.5898 19.0366L18.0001 19.5ZM15.625 12.5L15.8683 11.7905C15.6525 11.7166 15.4147 11.7448 15.2223 11.8673C15.0298 11.9898 14.9036 12.1933 14.8793 12.4201L15.625 12.5ZM19.7187 10.9874L19.9972 10.2911L19.9972 10.2911L19.7187 10.9874ZM20.4875 12.7814L19.7912 12.5029L19.7912 12.5029L20.4875 12.7814ZM5.24164 13.5743L5.48489 14.2838L5.48489 14.2838L5.24164 13.5743ZM3.51265 12.7814L4.20901 12.5028L3.51265 12.7814ZM4.28148 10.9874L4.56002 11.6838L4.28148 10.9874ZM14.4095 20.9763L15.1059 21.2548L15.1059 21.2548L14.4095 20.9763ZM14.9862 22.493L15.3216 21.8222L14.9862 22.493ZM16.5624 22.0158L15.9112 21.6437L15.9112 21.6437L16.5624 22.0158ZM9.59058 20.9763L10.2869 20.6978L10.2869 20.6978L9.59058 20.9763ZM9.0139 22.493L9.34931 23.1638L9.0139 22.493ZM18.7586 13.5743L19.0018 12.8649L19.0018 12.8649L18.7586 13.5743ZM7.43764 22.0158L8.08883 21.6437L7.43764 22.0158ZM9.00555 16.2044L8.53701 16.79L8.53705 16.7901L9.00555 16.2044ZM14.9946 16.2044L15.4631 16.79L15.4632 16.79L14.9946 16.2044ZM8.58931 13.75C8.17509 13.75 7.83931 14.0858 7.83931 14.5C7.83931 14.9142 8.17509 15.25 8.58931 15.25V13.75ZM15.4107 15.25C15.8249 15.25 16.1607 14.9142 16.1607 14.5C16.1607 14.0858 15.8249 13.75 15.4107 13.75V15.25ZM14.2501 4C14.2501 5.24264 13.2427 6.25 12.0001 6.25V7.75C14.0712 7.75 15.7501 6.07107 15.7501 4H14.2501ZM12.0001 6.25C10.7575 6.25 9.7501 5.24264 9.7501 4H8.2501C8.2501 6.07107 9.92903 7.75 12.0001 7.75V6.25ZM9.7501 4C9.7501 2.75736 10.7575 1.75 12.0001 1.75V0.25C9.92903 0.25 8.2501 1.92893 8.2501 4H9.7501ZM12.0001 1.75C13.2427 1.75 14.2501 2.75736 14.2501 4H15.7501C15.7501 1.92893 14.0712 0.25 12.0001 0.25V1.75ZM8.00002 10.25H16V8.75H8.00002V10.25ZM9.49575 15.9201L9.12075 12.4201L7.62929 12.5799L8.00429 16.0799L9.49575 15.9201ZM6.58984 19.9633L9.33976 16.4633L8.16027 15.5366L5.41035 19.0366L6.58984 19.9633ZM12 17.7368C11.3825 17.7368 10.7651 17.6713 10.1581 17.5404L9.8419 19.0067C10.5531 19.1601 11.2765 19.2368 12 19.2368V17.7368ZM9.41874 17.7996L8.41882 19.026L9.58137 19.9739L10.5813 18.7475L9.41874 17.7996ZM8.08883 21.6437L6.65129 19.1279L5.34891 19.872L6.78645 22.3878L8.08883 21.6437ZM8.30373 19.7785L8.89422 21.2548L10.2869 20.6978L9.69646 19.2214L8.30373 19.7785ZM13.8419 17.5404C13.235 17.6713 12.6175 17.7368 12 17.7368V19.2368C12.7235 19.2368 13.447 19.1601 14.1581 19.0067L13.8419 17.5404ZM15.5813 19.026L14.5813 17.7996L13.4188 18.7476L14.4189 19.9739L15.5813 19.026ZM15.1059 21.2548L15.6964 19.7785L14.3037 19.2214L13.7132 20.6977L15.1059 21.2548ZM14.6603 16.4633L17.4104 19.9633L18.5898 19.0366L15.8398 15.5366L14.6603 16.4633ZM17.3489 19.1278L15.9112 21.6437L17.2136 22.3879L18.6513 19.8721L17.3489 19.1278ZM4.56002 11.6838L8.27857 10.1964L7.72147 8.80364L4.00293 10.2911L4.56002 11.6838ZM8.13177 11.7905L4.9984 12.8649L5.48489 14.2838L8.61827 13.2095L8.13177 11.7905ZM14.8793 12.4201L14.5043 15.9201L15.9958 16.0799L16.3708 12.5799L14.8793 12.4201ZM15.7215 10.1964L19.4402 11.6838L19.9972 10.2911L16.2786 8.80364L15.7215 10.1964ZM19.0018 12.8649L15.8683 11.7905L15.3818 13.2095L18.5153 14.2838L19.0018 12.8649ZM19.4402 11.6838C19.7633 11.813 19.9204 12.1797 19.7912 12.5029L21.1839 13.0599C21.6208 11.9677 21.0895 10.728 19.9972 10.2911L19.4402 11.6838ZM4.9984 12.8649C4.68084 12.9737 4.33368 12.8145 4.20901 12.5028L2.81629 13.0599C3.23777 14.1136 4.41137 14.6519 5.48489 14.2838L4.9984 12.8649ZM4.00293 10.2911C2.91066 10.728 2.37938 11.9676 2.81629 13.0599L4.20901 12.5028C4.07977 12.1797 4.23692 11.813 4.56002 11.6838L4.00293 10.2911ZM13.7132 20.6977C13.3368 21.6385 13.7445 22.7107 14.6508 23.1639L15.3216 21.8222C15.1131 21.718 15.0193 21.4713 15.1059 21.2548L13.7132 20.6977ZM15.9112 21.6437C15.7932 21.8502 15.5344 21.9286 15.3216 21.8222L14.6508 23.1639C15.5756 23.6263 16.7006 23.2857 17.2136 22.3879L15.9112 21.6437ZM8.89422 21.2548C8.98079 21.4713 8.887 21.7179 8.67849 21.8222L9.34931 23.1638C10.2556 22.7107 10.6632 21.6385 10.2869 20.6978L8.89422 21.2548ZM19.7912 12.5029C19.6665 12.8145 19.3194 12.9738 19.0018 12.8649L18.5153 14.2838C19.5888 14.6519 20.7624 14.1136 21.1839 13.0599L19.7912 12.5029ZM6.78645 22.3878C7.29945 23.2856 8.42446 23.6263 9.34931 23.1638L8.67849 21.8222C8.4657 21.9286 8.20686 21.8502 8.08883 21.6437L6.78645 22.3878ZM8.28147 16.5856L8.53701 16.79L9.4741 15.6188L9.21857 15.4143L8.28147 16.5856ZM15.4632 16.79L15.7186 16.5855L14.7814 15.4144L14.526 15.6188L15.4632 16.79ZM14.75 18.2736C14.75 17.6964 15.0124 17.1506 15.4631 16.79L14.5261 15.6187C13.7196 16.2639 13.25 17.2407 13.25 18.2736H14.75ZM8.53705 16.7901C8.98773 17.1506 9.25005 17.6964 9.25002 18.2735L10.75 18.2736C10.7501 17.2408 10.2806 16.2639 9.47406 15.6187L8.53705 16.7901ZM8.58931 15.25H15.4107V13.75H8.58931V15.25Z" fill="black"/>
</svg>
