<svg width="24" height="24" viewBox="0 0 24 24" fill="none" xmlns="http://www.w3.org/2000/svg">
<path d="M16.5509 22.7433L16.5515 23.4933L16.5515 23.4933L16.5509 22.7433ZM10.2152 22.7488L10.2145 21.9988L10.2145 21.9988L10.2152 22.7488ZM10.0299 17.626L9.97636 16.878L9.97636 16.878L10.0299 17.626ZM16.2686 17.1796L16.2151 16.4315L16.2151 16.4315L16.2686 17.1796ZM19.5311 18.58L18.8816 18.205L18.8816 18.205L19.5311 18.58ZM17.4161 22.2433L16.7665 21.8683L16.7665 21.8683L17.4161 22.2433ZM16.9112 11.5673L16.6289 10.8725L16.6289 10.8725L16.9112 11.5673ZM21.0365 9.89131L20.7542 9.19647L20.7542 9.19647L21.0365 9.89131ZM19.6651 14.3319L20.4151 14.3319V14.3319L19.6651 14.3319ZM19.6651 18.08L18.9151 18.08V18.08L19.6651 18.08ZM22.1272 12.5983L21.8259 11.9115L21.8259 11.9115L22.1272 12.5983ZM20.2633 13.4162L20.5646 14.103L20.5646 14.103L20.2633 13.4162ZM22.3534 10.4779L23.0588 10.2231L23.0588 10.2231L22.3534 10.4779ZM22.6659 11.3428L23.3713 11.0879L23.3713 11.0879L22.6659 11.3428ZM16.3614 17.0766L17.111 17.0521C17.1108 17.0461 17.1105 17.0401 17.1102 17.0341L16.3614 17.0766ZM17.0364 15.7343C17.0129 15.3207 16.6587 15.0045 16.2451 15.028C15.8316 15.0515 15.5153 15.4058 15.5388 15.8193L17.0364 15.7343ZM15.5376 13.2232C15.5376 13.6374 15.8734 13.9732 16.2876 13.9732C16.7018 13.9732 17.0376 13.6374 17.0376 13.2232H15.5376ZM16.2876 12.4938L17.0376 12.4938V12.4938L16.2876 12.4938ZM7.6484 20.1648L8.39838 20.1705L7.6484 20.1648ZM1 22.25C0.585787 22.25 0.25 22.5858 0.25 23C0.25 23.4142 0.585787 23.75 1 23.75V22.25ZM23 23.75C23.4142 23.75 23.75 23.4142 23.75 23C23.75 22.5858 23.4142 22.25 23 22.25V23.75ZM8.25 17.924C8.25 18.3382 8.58579 18.674 9 18.674C9.41421 18.674 9.75 18.3382 9.75 17.924H8.25ZM16.582 11.2831L17.2482 10.9386L17.2311 10.9055L17.2107 10.8741L16.582 11.2831ZM11.9819 15.9828L12.4998 15.4403L12.4998 15.4403L11.9819 15.9828ZM9.76739 12.8318C9.46778 12.5458 8.99304 12.5568 8.70702 12.8565C8.421 13.1561 8.43202 13.6308 8.73163 13.9168L9.76739 12.8318ZM12.9854 12.9854L12.455 13.5157L12.455 13.5157L12.9854 12.9854ZM12.5303 11.4697C12.2375 11.1768 11.7626 11.1768 11.4697 11.4697C11.1768 11.7625 11.1768 12.2374 11.4697 12.5303L12.5303 11.4697ZM16.7666 11.6402L17.1572 12.2805L16.7666 11.6402ZM3.13501 18.4924C3.89993 18.4924 4.52002 19.1125 4.52002 19.8774L6.02002 19.8774C6.02002 18.2841 4.72836 16.9924 3.13501 16.9924L3.13501 18.4924ZM4.52002 19.8774C4.52002 20.6424 3.89993 21.2625 3.13501 21.2625L3.13501 22.7625C4.72835 22.7625 6.02002 21.4708 6.02002 19.8774L4.52002 19.8774ZM3.13501 21.2625C2.37009 21.2625 1.75 20.6424 1.75 19.8774L0.25 19.8774C0.25 21.4708 1.54166 22.7625 3.13501 22.7625L3.13501 21.2625ZM1.75 19.8774C1.75 19.1125 2.37009 18.4924 3.13501 18.4924L3.13501 16.9924C1.54166 16.9924 0.25 18.2841 0.25 19.8774L1.75 19.8774ZM16.5503 21.9933L10.2145 21.9988L10.2158 23.4988L16.5515 23.4933L16.5503 21.9933ZM10.0834 18.3741L16.3221 17.9277L16.2151 16.4315L9.97636 16.878L10.0834 18.3741ZM18.8816 18.205L16.7665 21.8683L18.0656 22.6183L20.1806 18.955L18.8816 18.205ZM17.1935 12.2622L21.3188 10.5862L20.7542 9.19647L16.6289 10.8725L17.1935 12.2622ZM18.9151 14.3319V18.08H20.4151V14.3319H18.9151ZM21.8259 11.9115L19.9619 12.7294L20.5646 14.103L22.4286 13.2851L21.8259 11.9115ZM21.6481 10.7328L21.9606 11.5977L23.3713 11.0879L23.0588 10.2231L21.6481 10.7328ZM17.1102 17.0341L17.0364 15.7343L15.5388 15.8193L15.6126 17.1191L17.1102 17.0341ZM17.0376 13.2232V12.4938H15.5376V13.2232H17.0376ZM22.4286 13.2851C23.2721 12.915 23.6843 11.9543 23.3713 11.0879L21.9606 11.5977C22.0053 11.7214 21.9464 11.8587 21.8259 11.9115L22.4286 13.2851ZM20.4151 14.3319C20.4151 14.2327 20.4737 14.1429 20.5646 14.103L19.9619 12.7294C19.3259 13.0085 18.9151 13.6373 18.9151 14.3319L20.4151 14.3319ZM21.3188 10.5862C21.4503 10.5327 21.5998 10.5993 21.6481 10.7328L23.0588 10.2231C22.7212 9.2888 21.6745 8.82257 20.7542 9.19647L21.3188 10.5862ZM20.1806 18.955C20.3342 18.689 20.4151 18.3872 20.4151 18.08L18.9151 18.08C18.9151 18.1239 18.9035 18.167 18.8816 18.205L20.1806 18.955ZM8.39838 20.1705C8.40551 19.2238 9.13917 18.4417 10.0834 18.3741L9.97636 16.878C8.25157 17.0014 6.91145 18.43 6.89842 20.1591L8.39838 20.1705ZM10.2145 21.9988C9.20637 21.9996 8.39078 21.1786 8.39838 20.1705L6.89842 20.1591C6.88454 22.0006 8.3743 23.5003 10.2158 23.4988L10.2145 21.9988ZM16.3221 17.9277C16.7776 17.8951 17.1259 17.5084 17.111 17.0521L15.6118 17.1011C15.6004 16.7521 15.8667 16.4564 16.2151 16.4315L16.3221 17.9277ZM16.5515 23.4933C17.1762 23.4928 17.7532 23.1593 18.0656 22.6183L16.7665 21.8683C16.7219 21.9456 16.6395 21.9932 16.5503 21.9933L16.5515 23.4933ZM1 23.75H23V22.25H1V23.75ZM16.3501 5.135C16.3501 5.89991 15.73 6.52 14.9651 6.52V8.02C16.5584 8.02 17.8501 6.72834 17.8501 5.135H16.3501ZM14.9651 6.52C14.2002 6.52 13.5801 5.89991 13.5801 5.135H12.0801C12.0801 6.72834 13.3717 8.02 14.9651 8.02V6.52ZM13.5801 5.135C13.5801 4.37009 14.2002 3.75 14.9651 3.75V2.25C13.3717 2.25 12.0801 3.54166 12.0801 5.135H13.5801ZM14.9651 3.75C15.73 3.75 16.3501 4.37009 16.3501 5.135H17.8501C17.8501 3.54166 16.5584 2.25 14.9651 2.25V3.75ZM9.75 13.5282C9.75 11.6652 11.2602 10.155 13.1231 10.155V8.65503C10.4318 8.65503 8.25 10.8368 8.25 13.5282H9.75ZM9.75 17.924V13.5282H8.25V17.924H9.75ZM13.1231 10.155C14.3076 10.155 15.3504 10.7651 15.9533 11.692L17.2107 10.8741C16.3428 9.53973 14.8363 8.65503 13.1231 8.65503V10.155ZM13.0206 13.75H15.5V12.25H13.0206V13.75ZM15.5 15.25H12.0249V16.75H15.5V15.25ZM12.4998 15.4403L9.76739 12.8318L8.73163 13.9168L11.464 16.5253L12.4998 15.4403ZM13.5157 12.4551L12.5303 11.4697L11.4697 12.5303L12.455 13.5157L13.5157 12.4551ZM12.0249 15.25C12.2018 15.25 12.3719 15.3182 12.4998 15.4403L11.464 16.5253C11.6151 16.6695 11.816 16.75 12.0249 16.75V15.25ZM16.25 14.5C16.25 14.9142 15.9142 15.25 15.5 15.25V16.75C16.7426 16.75 17.75 15.7426 17.75 14.5H16.25ZM15.5 13.75C15.9142 13.75 16.25 14.0858 16.25 14.5H17.75C17.75 13.2574 16.7426 12.25 15.5 12.25V13.75ZM13.0206 12.25C13.2063 12.25 13.3844 12.3238 13.5157 12.4551L12.455 13.5157C12.605 13.6657 12.8084 13.75 13.0206 13.75V12.25ZM16.6289 10.8725C16.5405 10.9084 16.456 10.9511 16.376 10.9999L17.1572 12.2805C17.1685 12.2736 17.1806 12.2674 17.1935 12.2622L16.6289 10.8725ZM16.376 10.9999C15.8611 11.3141 15.5376 11.8771 15.5376 12.4938L17.0376 12.4938C17.0376 12.4059 17.0837 12.3253 17.1572 12.2805L16.376 10.9999ZM15.9158 11.6275L16.1004 11.9846L17.4329 11.2958L17.2482 10.9386L15.9158 11.6275Z" fill="black"/>
</svg>
