<svg width="24" height="24" viewBox="0 0 24 24" fill="none" xmlns="http://www.w3.org/2000/svg">
<path d="M8 17.4847V19.2792C8 19.7097 7.72457 20.0918 7.31623 20.2279L2.39737 21.8675C2.16006 21.9466 2 22.1687 2 22.4189C2 22.7398 2.26018 23 2.58114 23H21.4189C21.7398 23 22 22.7398 22 22.4189C22 22.1687 21.8399 21.9466 21.6026 21.8675L16.6838 20.2279C16.2754 20.0918 16 19.7097 16 19.2792V17.4821M10.2332 15.311V15.2673M13.7668 15.311V15.2673M12 14.4841V14.4404M6.86401 10.4796V10.5232M17.2478 10.4796V10.5232M8.63086 10.8636V10.9072M15.481 10.8636V10.9072M10.3977 10.4288V10.4724M13.7141 10.4288V10.4724M12.0002 1C15.5564 1 18.4502 3.83602 18.5434 7.36976C18.5459 7.46648 18.6241 7.54543 18.7209 7.54543C20.0497 7.54543 21.0541 8.74888 20.8164 10.0563L20.5795 11.359C20.3827 12.4416 19.6061 13.3057 18.5914 13.6362C18.2772 13.7385 18.0058 13.9691 17.9289 14.2905C17.6211 15.5774 16.8906 16.7428 15.8741 17.5899C14.7911 18.4924 13.41 19 12.0002 19C10.5904 19 9.22526 18.5057 8.14225 17.6032L7.9872 17.474C7.04492 16.6888 6.34074 15.6559 5.95405 14.4919L5.87529 14.2548C5.76389 13.9195 5.478 13.6799 5.15362 13.5398C4.26539 13.1561 3.60074 12.3489 3.42076 11.359L3.18389 10.0563C2.94619 8.74888 3.95057 7.54543 5.27938 7.54543H5.36534C5.41436 7.54543 5.4547 7.50531 5.45536 7.45629C5.50308 3.88243 8.41503 1 12.0002 1Z" stroke="black" stroke-width="1.5" stroke-linecap="round"/>
</svg>
