<svg width="24" height="24" viewBox="0 0 24 24" fill="none" xmlns="http://www.w3.org/2000/svg">
<path d="M12 12V23M14.0728 18H9.92722M16 5C16 7.20914 14.2091 9 12 9C9.79086 9 8 7.20914 8 5C8 2.79086 9.79086 1 12 1C14.2091 1 16 2.79086 16 5ZM3 22V18C3 14.6863 5.68628 12 8.99998 12L15 12C18.3137 12 21 14.6863 21 18V22C21 22.5523 20.5523 23 20 23H4C3.44772 23 3 22.5523 3 22ZM9.84166 16.3007L9.9474 18.4009C9.98791 19.2055 9.50118 19.9432 8.74549 20.2225C7.71507 20.6034 6.60434 19.9878 6.64722 18.89C6.68653 17.8839 6.90534 16.7695 7.5 16.0001C7.97485 15.3858 8.40976 15.0938 8.7751 14.9869C9.4514 14.7889 9.80622 15.5969 9.84166 16.3007ZM14.1583 16.3007L14.0526 18.4009C14.0121 19.2055 14.4988 19.9432 15.2545 20.2225C16.2849 20.6034 17.3957 19.9878 17.3528 18.89C17.3135 17.8839 17.0947 16.7695 16.5 16.0001C16.0251 15.3858 15.5902 15.0938 15.2249 14.9869C14.5486 14.7889 14.1938 15.5969 14.1583 16.3007Z" stroke="black" stroke-width="1.5" stroke-linecap="round"/>
</svg>
