<svg width="24" height="24" viewBox="0 0 24 24" fill="none" xmlns="http://www.w3.org/2000/svg">
<path d="M17.2971 12.2C16.2876 10.308 14.2942 9 12 9C9.71405 9 7.72669 10.3188 6.71381 12.2M5 21V21.0318M12 13.9999V21.3333M13.8334 14.4583C13.8334 14.7114 13.0126 14.9166 12.0001 14.9166C10.9876 14.9166 10.1667 14.7114 10.1667 14.4583M14.75 16.6667C14.75 17.0464 13.5188 17.3542 12 17.3542C10.4812 17.3542 9.25 17.0464 9.25 16.6667M14.2916 19.1667C14.2916 19.5464 13.2656 19.8542 11.9999 19.8542C10.7343 19.8542 9.70825 19.5464 9.70825 19.1667M6.71381 12.2H4C3.44772 12.2 3 12.6477 3 13.2V22C3 22.5522 3.44772 23 4 23H20C20.5523 23 21 22.5522 21 22V13.2C21 12.6477 20.5523 12.2 20 12.2H6.71381ZM14.9091 3.90909C14.9091 5.51574 13.6066 6.81818 12 6.81818C10.3933 6.81818 9.09088 5.51574 9.09088 3.90909C9.09088 2.30244 10.3933 1 12 1C13.6066 1 14.9091 2.30244 14.9091 3.90909Z" stroke="black" stroke-width="1.5" stroke-linecap="round"/>
</svg>
