<svg width="24" height="24" viewBox="0 0 24 24" fill="none" xmlns="http://www.w3.org/2000/svg">
<path d="M11.5867 17.7272L10.8627 17.5314L10.8627 17.5314L11.5867 17.7272ZM12.8427 13.0818L13.5667 13.2775L12.8427 13.0818ZM15.4503 15.9999L14.7178 15.8388L14.7178 15.8388L15.4503 15.9999ZM15.0117 17.9946L14.2792 17.8336L14.2792 17.8336L15.0117 17.9946ZM15.1832 19.2252L14.5592 18.8092L14.5592 18.8092L15.1832 19.2252ZM17.916 15.126L18.5401 15.542L18.5401 15.542L17.916 15.126ZM18.8 9.6L19.25 9L19.25 9L18.8 9.6ZM20.8 11.1L21.25 10.5L21.25 10.5L20.8 11.1ZM21.9096 18.1291L21.2952 17.699L21.2952 17.699L21.9096 18.1291ZM18.6493 22.7867L18.0349 22.3566L18.0349 22.3566L18.6493 22.7867ZM13.5717 12.6906L13.8089 11.9791L13.8089 11.9791L13.5717 12.6906ZM10.75 3.66654C10.75 3.25233 10.4142 2.91654 10 2.91654C9.58579 2.91654 9.25 3.25233 9.25 3.66654H10.75ZM13.4167 4.33333C13.4167 3.91912 13.0809 3.58333 12.6667 3.58333C12.2525 3.58333 11.9167 3.91912 11.9167 4.33333H13.4167ZM8.08333 4.33333C8.08333 3.91912 7.74755 3.58333 7.33333 3.58333C6.91912 3.58333 6.58333 3.91912 6.58333 4.33333H8.08333ZM14.75 7C14.75 6.58579 14.4142 6.25 14 6.25C13.5858 6.25 13.25 6.58579 13.25 7H14.75ZM6.75 7C6.75 6.58579 6.41421 6.25 6 6.25C5.58579 6.25 5.25 6.58579 5.25 7H6.75ZM14.0833 10.3333C14.0833 9.91912 13.7475 9.58333 13.3333 9.58333C12.9191 9.58333 12.5833 9.91912 12.5833 10.3333H14.0833ZM7.41667 10.3333C7.41667 9.91912 7.08088 9.58333 6.66667 9.58333C6.25245 9.58333 5.91667 9.91912 5.91667 10.3333H7.41667ZM8.75 13.6667C8.75 13.2525 8.41421 12.9167 8 12.9167C7.58579 12.9167 7.25 13.2525 7.25 13.6667L8.75 13.6667ZM12.75 13.6667C12.75 13.2525 12.4142 12.9167 12 12.9167C11.5858 12.9167 11.25 13.2525 11.25 13.6667L12.75 13.6667ZM5 15.7501C5.41421 15.7501 5.75 15.4143 5.75 15.0001C5.75 14.5858 5.41421 14.2501 5 14.2501V15.7501ZM4 14.2501C3.58579 14.2501 3.25 14.5858 3.25 15.0001C3.25 15.4143 3.58579 15.7501 4 15.7501V14.2501ZM4.5 13.7501C4.91421 13.7501 5.25 13.4143 5.25 13.0001C5.25 12.5858 4.91421 12.2501 4.5 12.2501V13.7501ZM4 12.2501C3.58579 12.2501 3.25 12.5858 3.25 13.0001C3.25 13.4143 3.58579 13.7501 4 13.7501V12.2501ZM12.25 22.5V18.3797H10.75V22.5H12.25ZM12.3107 17.9229L13.5667 13.2775L12.1187 12.886L10.8627 17.5314L12.3107 17.9229ZM14.7178 15.8388L14.2792 17.8336L15.7442 18.1557L16.1828 16.1609L14.7178 15.8388ZM14.25 18.102V19.1697H15.75V18.102H14.25ZM15.8072 19.6412L18.5401 15.542L17.292 14.7099L14.5592 18.8092L15.8072 19.6412ZM18.75 14.8486V10H17.25V14.8486H18.75ZM18.35 10.2L20.35 11.7L21.25 10.5L19.25 9L18.35 10.2ZM21.25 13.5V17.8424H22.75V13.5H21.25ZM21.2952 17.699L18.0349 22.3566L19.2637 23.2168L22.524 18.5592L21.2952 17.699ZM12 23.75H18.2397V22.25H12V23.75ZM18.0349 22.3566C18.0816 22.2898 18.1581 22.25 18.2397 22.25V23.75C18.6476 23.75 19.0298 23.551 19.2637 23.2168L18.0349 22.3566ZM21.25 17.8424C21.25 17.7911 21.2658 17.741 21.2952 17.699L22.524 18.5592C22.6711 18.3491 22.75 18.0989 22.75 17.8424H21.25ZM20.35 11.7C20.9166 12.1249 21.25 12.7918 21.25 13.5H22.75C22.75 12.3197 22.1943 11.2082 21.25 10.5L20.35 11.7ZM18.75 10C18.75 10.206 18.5148 10.3236 18.35 10.2L19.25 9C18.426 8.38197 17.25 8.96994 17.25 10H18.75ZM18.5401 15.542C18.677 15.3367 18.75 15.0954 18.75 14.8486H17.25C17.25 14.7993 17.2646 14.751 17.292 14.7099L18.5401 15.542ZM14.2792 17.8336C14.2598 17.9217 14.25 18.0117 14.25 18.102H15.75C15.75 18.1201 15.748 18.1381 15.7442 18.1557L14.2792 17.8336ZM14.25 19.1697C14.25 20.0107 15.3407 20.341 15.8072 19.6412L14.5592 18.8092C14.9159 18.2741 15.75 18.5266 15.75 19.1697H14.25ZM13.3346 13.4021C14.3511 13.7409 14.9479 14.7923 14.7178 15.8388L16.1828 16.1609C16.5777 14.365 15.5534 12.5606 13.8089 11.9791L13.3346 13.4021ZM13.5667 13.2775C13.5395 13.3781 13.4334 13.435 13.3346 13.4021L13.8089 11.9791C13.0895 11.7393 12.3166 12.154 12.1187 12.886L13.5667 13.2775ZM12.25 18.3797C12.25 18.2254 12.2704 18.0718 12.3107 17.9229L10.8627 17.5314C10.7879 17.808 10.75 18.0932 10.75 18.3797H12.25ZM10.75 22.5C10.75 23.1904 11.3096 23.75 12 23.75V22.25C12.1381 22.25 12.25 22.3619 12.25 22.5H10.75ZM2.72727 1.75H17.2727V0.25H2.72727V1.75ZM2.75 16.2727V1.72727H1.25V16.2727H2.75ZM11.7833 16.25H2.72727V17.75H11.7833V16.25ZM17.25 1.72727V11.8349H18.75V1.72727H17.25ZM1.25 16.2727C1.25 17.0886 1.9114 17.75 2.72727 17.75V16.25C2.72903 16.25 2.73259 16.2505 2.73635 16.2521C2.73961 16.2535 2.74183 16.2551 2.74334 16.2567C2.74485 16.2582 2.74653 16.2604 2.74791 16.2637C2.7495 16.2674 2.75 16.271 2.75 16.2727H1.25ZM17.2727 1.75C17.271 1.75 17.2674 1.7495 17.2637 1.74791C17.2604 1.74653 17.2582 1.74485 17.2567 1.74334C17.2551 1.74183 17.2535 1.73961 17.2521 1.73635C17.2505 1.73259 17.25 1.72903 17.25 1.72727H18.75C18.75 0.911397 18.0886 0.25 17.2727 0.25V1.75ZM2.72727 0.25C1.9114 0.25 1.25 0.911398 1.25 1.72727H2.75C2.75 1.72903 2.7495 1.73259 2.74791 1.73635C2.74653 1.73961 2.74485 1.74183 2.74334 1.74334C2.74183 1.74485 2.73961 1.74653 2.73635 1.74791C2.73259 1.7495 2.72903 1.75 2.72727 1.75V0.25ZM9.25 3.66654V14.3333H10.75V3.66654H9.25ZM11.9167 4.33333C11.9167 3.99651 12.1716 3.89037 12.0755 3.94718C12.0296 3.97431 11.9132 4.02475 11.7037 4.07713C11.2962 4.179 10.6935 4.25 10 4.25V5.75C10.7792 5.75 11.5099 5.67176 12.0675 5.53234C12.3406 5.46408 12.6148 5.37087 12.8387 5.23848C13.0125 5.13577 13.4167 4.85425 13.4167 4.33333H11.9167ZM10 4.25C9.30647 4.25 8.70378 4.179 8.29628 4.07713C8.08677 4.02475 7.97042 3.97431 7.92452 3.94718C7.8284 3.89037 8.08333 3.99651 8.08333 4.33333H6.58333C6.58333 4.85425 6.9875 5.13577 7.16127 5.23848C7.38525 5.37087 7.65942 5.46408 7.93248 5.53234C8.49013 5.67176 9.22077 5.75 10 5.75V4.25ZM13.25 7C13.25 6.7092 13.4676 6.64691 13.304 6.74359C13.1907 6.81061 12.9767 6.89696 12.6465 6.9795C11.9977 7.1417 11.0617 7.25 10 7.25V8.75C11.1474 8.75 12.2114 8.63445 13.0103 8.43471C13.404 8.33629 13.7758 8.20716 14.0673 8.0349C14.3085 7.89231 14.75 7.56694 14.75 7H13.25ZM10 7.25C8.93828 7.25 8.00226 7.1417 7.35347 6.9795C7.02332 6.89696 6.80934 6.81061 6.69596 6.74359C6.53238 6.64691 6.75 6.7092 6.75 7H5.25C5.25 7.56694 5.69148 7.89231 5.93272 8.0349C6.22417 8.20716 6.59597 8.33629 6.98967 8.43471C7.78861 8.63445 8.85258 8.75 10 8.75V7.25ZM12.5833 10.3333C12.5833 10.1078 12.7325 10.0435 12.6375 10.1108C12.562 10.1644 12.4041 10.2433 12.1415 10.3221C11.6258 10.4768 10.8685 10.5833 10 10.5833V12.0833C10.9724 12.0833 11.8818 11.966 12.5725 11.7588C12.9131 11.6566 13.2434 11.5201 13.5053 11.3343C13.7477 11.1624 14.0833 10.835 14.0833 10.3333H12.5833ZM10 10.5833C9.13149 10.5833 8.37415 10.4768 7.85849 10.3221C7.59588 10.2433 7.438 10.1644 7.36251 10.1108C7.26755 10.0435 7.41667 10.1078 7.41667 10.3333H5.91667C5.91667 10.835 6.25233 11.1624 6.49472 11.3343C6.75658 11.5201 7.08686 11.6566 7.42747 11.7588C8.11823 11.966 9.02756 12.0833 10 12.0833V10.5833ZM7.25 13.6667C7.25 14.087 7.50625 14.3681 7.69294 14.5152C7.88808 14.669 8.12398 14.7747 8.34862 14.8496C8.80574 15.002 9.38954 15.0833 10 15.0833L10 13.5833C9.50589 13.5833 9.08969 13.5155 8.82296 13.4266C8.75874 13.4052 8.70936 13.3846 8.67342 13.3668C8.65572 13.3581 8.64266 13.3507 8.63364 13.3452C8.62453 13.3396 8.62088 13.3367 8.6214 13.3371C8.62184 13.3374 8.62828 13.3425 8.63827 13.3532C8.64825 13.3639 8.66353 13.3821 8.6798 13.4086C8.71411 13.4645 8.75 13.5537 8.75 13.6667L7.25 13.6667ZM10 15.0833C10.6105 15.0833 11.1943 15.002 11.6514 14.8496C11.876 14.7747 12.1119 14.669 12.3071 14.5152C12.4937 14.3681 12.75 14.087 12.75 13.6667L11.25 13.6667C11.25 13.5537 11.2859 13.4645 11.3202 13.4086C11.3365 13.3821 11.3517 13.3639 11.3617 13.3532C11.3717 13.3425 11.3782 13.3374 11.3786 13.3371C11.3791 13.3367 11.3755 13.3396 11.3664 13.3452C11.3573 13.3507 11.3443 13.3581 11.3266 13.3668C11.2906 13.3846 11.2413 13.4052 11.177 13.4266C10.9103 13.5155 10.4941 13.5833 10 13.5833L10 15.0833ZM5 14.2501H4V15.7501H5V14.2501ZM4.5 12.2501H4V13.7501H4.5V12.2501Z" fill="black"/>
</svg>
