<svg width="24" height="24" viewBox="0 0 24 24" fill="none" xmlns="http://www.w3.org/2000/svg">
<g clip-path="url(#clip0_1607_8971)">
<path d="M9.88333 21.0255L10.2254 20.358L10.2254 20.358L9.88333 21.0255ZM14.1205 21.0367L14.4592 21.7058L14.4592 21.7058L14.1205 21.0367ZM11.081 14.7963L10.9973 14.0509L10.9973 14.0509L11.081 14.7963ZM8.83849 14.6245C8.46027 14.7934 8.29055 15.2369 8.45943 15.6151C8.6283 15.9934 9.07181 16.1631 9.45004 15.9942L8.83849 14.6245ZM12.9645 14.8087L13.0583 14.0646L12.9645 14.8087ZM2.8836 9.74495L3.28699 9.11268C3.2558 9.09278 3.22318 9.07521 3.18939 9.06013L2.8836 9.74495ZM5.40076 8.91521L4.73667 8.56666L4.73667 8.56667L5.40076 8.91521ZM1.85388 3.63405L1.18982 3.28544L1.18982 3.28544L1.85388 3.63405ZM7.11021 1.61535L6.69433 2.2396L6.70443 2.2461L7.11021 1.61535ZM7.12662 1.62591L7.53597 0.997461L7.5324 0.995161L7.12662 1.62591ZM7.72567 4.48555L7.06158 4.137L7.06158 4.137L7.72567 4.48555ZM6.3501 4.77578C5.95571 4.90239 5.73864 5.32475 5.86526 5.71914C5.99188 6.11353 6.41424 6.33059 6.80863 6.20398L6.3501 4.77578ZM6.38664 8.29024C6.451 7.88106 6.17146 7.49718 5.76227 7.43283C5.35309 7.36848 4.96921 7.64802 4.90486 8.0572L6.38664 8.29024ZM7.59208 18.6292C7.93967 18.8545 8.40408 18.7553 8.62937 18.4078C8.85465 18.0602 8.75551 17.5958 8.40792 17.3705L7.59208 18.6292ZM5.8744 11.7359L6.56993 12.0165L6.56993 12.0165L5.8744 11.7359ZM4.33726 6.24536C3.96728 6.0591 3.51637 6.20803 3.33011 6.578C3.14384 6.94797 3.29277 7.39889 3.66274 7.58515L4.33726 6.24536ZM5.89174 7.86764L5.55448 8.53754L5.55448 8.53754L5.89174 7.86764ZM5.03758 3.92054C4.66415 3.74129 4.21613 3.89871 4.03689 4.27213C3.85764 4.64555 4.01506 5.09358 4.38848 5.27282L5.03758 3.92054ZM7.13961 5.76144L7.46416 5.0853L7.46416 5.0853L7.13961 5.76144ZM8.40839 11.9539L9.09386 12.2583L9.09871 12.2474L9.10321 12.2363L8.40839 11.9539ZM8.46967 16.0302C8.76256 16.3231 9.23744 16.3231 9.53033 16.0302C9.82322 15.7373 9.82322 15.2624 9.53033 14.9695L8.46967 16.0302ZM21.1178 9.74495L20.812 9.06013C20.7782 9.07521 20.7456 9.09278 20.7144 9.11268L21.1178 9.74495ZM18.6006 8.91521L19.2647 8.56667L19.2647 8.56666L18.6006 8.91521ZM22.1475 3.63405L22.8115 3.28544L22.8115 3.28544L22.1475 3.63405ZM16.8911 1.61535L17.297 2.24618L17.307 2.23952L16.8911 1.61535ZM16.8747 1.62591L16.4689 0.995151L16.4654 0.997471L16.8747 1.62591ZM16.2757 4.48555L16.9398 4.137L16.9398 4.137L16.2757 4.48555ZM17.1927 6.20398C17.5871 6.33059 18.0095 6.11353 18.1361 5.71914C18.2627 5.32475 18.0456 4.90239 17.6513 4.77578L17.1927 6.20398ZM19.0965 8.0572C19.0321 7.64802 18.6483 7.36848 18.2391 7.43283C17.8299 7.49718 17.5504 7.88106 17.6147 8.29024L19.0965 8.0572ZM23 6.5L23.7498 6.48114L23.7498 6.48114L23 6.5ZM15.5934 17.3705C15.2458 17.5958 15.1467 18.0602 15.372 18.4078C15.5973 18.7553 16.0617 18.8545 16.4093 18.6292L15.5934 17.3705ZM18.127 11.7359L18.8225 11.4552L18.8225 11.4552L18.127 11.7359ZM20.3386 7.58515C20.7086 7.39889 20.8575 6.94797 20.6712 6.578C20.485 6.20803 20.0341 6.0591 19.6641 6.24536L20.3386 7.58515ZM18.1096 7.86764L18.4469 8.53754L18.4469 8.53754L18.1096 7.86764ZM19.6129 5.27282C19.9863 5.09358 20.1437 4.64555 19.9645 4.27213C19.7852 3.89871 19.3372 3.74129 18.9638 3.92054L19.6129 5.27282ZM16.8617 5.76144L16.5372 5.0853L16.5372 5.0853L16.8617 5.76144ZM15.593 11.9539L14.8981 12.2363L14.9026 12.2474L14.9075 12.2583L15.593 11.9539ZM14.471 14.9695C14.1781 15.2624 14.1781 15.7373 14.471 16.0302C14.7639 16.3231 15.2388 16.3231 15.5317 16.0302L14.471 14.9695ZM10.2254 20.358C9.30829 19.888 8.64905 18.8717 8.64905 17.6661H7.14905C7.14905 19.4197 8.11028 20.9596 9.54128 21.6929L10.2254 20.358ZM12.6425 22.2502H11.3624V23.7502H12.6425V22.2502ZM15.3509 17.7018C15.3509 18.8984 14.6937 19.906 13.7818 20.3675L14.4592 21.7058C15.8892 20.9821 16.8509 19.4486 16.8509 17.7018H15.3509ZM11.1647 15.5416C11.4141 15.5136 11.6821 15.4976 11.9691 15.4976V13.9976C11.6262 13.9976 11.3023 14.0167 10.9973 14.0509L11.1647 15.5416ZM9.45004 15.9942C10.2058 15.6568 10.9107 15.5701 11.1647 15.5416L10.9973 14.0509C10.697 14.0847 9.80807 14.1916 8.83849 14.6245L9.45004 15.9942ZM11.9691 15.4976C12.2926 15.4976 12.593 15.5179 12.8708 15.5529L13.0583 14.0646C12.7186 14.0218 12.3556 13.9976 11.9691 13.9976V15.4976ZM14.2939 15.9041C14.3716 15.934 14.4458 15.9646 14.5164 15.9954L15.1171 14.621C15.0263 14.5813 14.9313 14.5422 14.8322 14.5041L14.2939 15.9041ZM12.8708 15.5529C12.9675 15.565 13.2924 15.6405 13.6601 15.7348C13.8313 15.7786 13.9954 15.8223 14.121 15.8567C14.2731 15.8984 14.3163 15.9127 14.2939 15.9041L14.8322 14.5041C14.7656 14.4784 14.6254 14.4397 14.5177 14.4101C14.3836 14.3734 14.2114 14.3276 14.0326 14.2817C13.7003 14.1965 13.2701 14.0913 13.0583 14.0646L12.8708 15.5529ZM13.7223 22.6492C13.7223 22.3205 13.9806 21.9481 14.4592 21.7058L13.7818 20.3675C13.0338 20.7461 12.2223 21.5324 12.2223 22.6492H13.7223ZM12.6425 23.7502C13.2821 23.7502 13.7223 23.2126 13.7223 22.6492H12.2223C12.2223 22.4735 12.3671 22.2502 12.6425 22.2502V23.7502ZM10.2798 22.6463C10.2798 23.2113 10.7212 23.7502 11.3624 23.7502V22.2502C11.6362 22.2502 11.7798 22.4722 11.7798 22.6463H10.2798ZM9.54128 21.6929C10.0203 21.9384 10.2798 22.3134 10.2798 22.6463H11.7798C11.7798 21.5303 10.9731 20.7412 10.2254 20.358L9.54128 21.6929ZM2.4802 10.3772C3.78361 11.2088 5.37117 10.5854 6.06485 9.26376L4.73667 8.56667C4.36908 9.26704 3.70865 9.3817 3.28699 9.11268L2.4802 10.3772ZM2.8836 9.74495C3.18939 9.06013 3.18984 9.06033 3.19027 9.06052C3.1904 9.06058 3.19082 9.06077 3.19108 9.06088C3.19159 9.06111 3.19205 9.06132 3.19246 9.06151C3.19329 9.06188 3.19392 9.06217 3.19436 9.06237C3.19523 9.06277 3.19534 9.06283 3.19472 9.06253C3.19347 9.06194 3.1893 9.05995 3.18249 9.05653C3.16884 9.04967 3.14475 9.03714 3.11233 9.01865C3.04721 8.98151 2.95021 8.92132 2.83746 8.83595C2.61022 8.6639 2.33211 8.39962 2.1152 8.0281C1.71151 7.33663 1.41274 6.08794 2.51794 3.98266L1.18982 3.28544C-0.108253 5.75814 0.10784 7.56489 0.819817 8.78439C1.16075 9.36834 1.59068 9.77342 1.93202 10.0319C2.10357 10.1617 2.25599 10.2571 2.36923 10.3216C2.42598 10.354 2.4733 10.3789 2.50877 10.3967C2.52651 10.4056 2.54133 10.4128 2.55292 10.4183C2.55872 10.421 2.56372 10.4234 2.56787 10.4253C2.56995 10.4262 2.57182 10.4271 2.57348 10.4278C2.57431 10.4282 2.57508 10.4286 2.5758 10.4289C2.57616 10.429 2.57666 10.4293 2.57684 10.4294C2.57733 10.4296 2.5778 10.4298 2.8836 9.74495ZM2.51794 3.98266C3.50517 2.1021 4.52123 1.76121 5.18516 1.75028C5.94055 1.73785 6.54563 2.14042 6.69438 2.23952L7.52604 0.991183C7.35484 0.87713 6.41275 0.22987 5.16047 0.250483C3.81671 0.272602 2.36459 1.04764 1.18982 3.28544L2.51794 3.98266ZM7.5324 0.995161L7.51599 0.984602L6.70443 2.2461L6.72085 2.25666L7.5324 0.995161ZM8.38976 4.83409C9.0717 3.53479 8.77802 1.8065 7.53597 0.997471L6.71728 2.25435C7.2038 2.57126 7.44652 3.40357 7.06158 4.137L8.38976 4.83409ZM6.80863 6.20398C7.46907 5.99194 8.03734 5.50556 8.38976 4.83409L7.06158 4.137C6.87863 4.48557 6.60954 4.69248 6.3501 4.77578L6.80863 6.20398ZM6.06485 9.26376C6.22855 8.95187 6.33449 8.62187 6.38664 8.29024L4.90486 8.0572C4.87736 8.23201 4.82172 8.40463 4.73667 8.56666L6.06485 9.26376ZM8.40792 17.3705C6.58351 16.188 5.78809 13.9543 6.56993 12.0165L5.17888 11.4552C4.10067 14.1277 5.22907 17.0976 7.59208 18.6292L8.40792 17.3705ZM3.66274 7.58515L5.55448 8.53754L6.22899 7.19775L4.33726 6.24536L3.66274 7.58515ZM4.38848 5.27282L6.81506 6.43758L7.46416 5.0853L5.03758 3.92054L4.38848 5.27282ZM6.81506 6.43758C7.80358 6.91207 8.20871 7.67486 8.29729 8.58755C8.39048 9.54782 8.12341 10.6631 7.71358 11.6716L9.10321 12.2363C9.55675 11.1203 9.91664 9.74482 9.79027 8.44266C9.65929 7.09294 8.99834 5.8217 7.46416 5.0853L6.81506 6.43758ZM6.56993 12.0165C6.7327 11.613 7.13776 10.7259 7.29196 9.86302C7.37016 9.4254 7.39978 8.92054 7.26155 8.4398C7.11458 7.92869 6.78532 7.47783 6.22899 7.19775L5.55448 8.53754C5.70972 8.61569 5.77972 8.71436 5.81996 8.85432C5.86894 9.02465 5.87374 9.2724 5.81535 9.59916C5.69637 10.265 5.38119 10.9538 5.17888 11.4552L6.56993 12.0165ZM7.72292 11.6496C7.25186 12.7105 7.05812 13.5498 7.26444 14.3145C7.46331 15.0515 8.01022 15.5707 8.46967 16.0302L9.53033 14.9695C8.98978 14.429 8.78669 14.1981 8.71266 13.9237C8.64608 13.677 8.65653 13.2433 9.09386 12.2583L7.72292 11.6496ZM20.7144 9.11268C20.2927 9.3817 19.6323 9.26704 19.2647 8.56667L17.9365 9.26376C18.6302 10.5854 20.2177 11.2088 21.5212 10.3772L20.7144 9.11268ZM22.8115 3.28544C21.6368 1.04764 20.1846 0.272602 18.8409 0.250483C17.5886 0.22987 16.6465 0.87713 16.4753 0.991183L17.307 2.23952C17.4557 2.14042 18.0608 1.73785 18.8162 1.75028C19.4801 1.76121 20.4962 2.1021 21.4834 3.98266L22.8115 3.28544ZM17.2805 2.25666L17.2969 2.2461L16.4854 0.984602L16.469 0.995161L17.2805 2.25666ZM16.9398 4.137C16.5548 3.40357 16.7976 2.57126 17.2841 2.25435L16.4654 0.997471C15.2233 1.8065 14.9297 3.53479 15.6116 4.83409L16.9398 4.137ZM17.6513 4.77578C17.3918 4.69248 17.1227 4.48557 16.9398 4.137L15.6116 4.83409C15.964 5.50556 16.5323 5.99194 17.1927 6.20398L17.6513 4.77578ZM19.2647 8.56666C19.1796 8.40463 19.124 8.23201 19.0965 8.0572L17.6147 8.29024C17.6669 8.62188 17.7728 8.95187 17.9365 9.26376L19.2647 8.56666ZM21.1178 9.74495C21.4236 10.4298 21.4239 10.4296 21.4243 10.4295C21.4244 10.4294 21.4248 10.4292 21.425 10.4291C21.4256 10.4289 21.4261 10.4286 21.4267 10.4284C21.4279 10.4279 21.4291 10.4273 21.4305 10.4266C21.4334 10.4253 21.4366 10.4238 21.4404 10.4221C21.4479 10.4186 21.4573 10.4141 21.4684 10.4087C21.4906 10.3979 21.5198 10.3831 21.555 10.3643C21.6252 10.3267 21.7199 10.2725 21.8308 10.2C22.0514 10.0557 22.3419 9.83526 22.6305 9.5249C23.2162 8.89511 23.7855 7.90089 23.7498 6.48114L22.2502 6.51886C22.2743 7.47687 21.9025 8.10513 21.5321 8.50338C21.3427 8.70704 21.1514 8.85199 21.0098 8.9446C20.9395 8.99059 20.8829 9.02267 20.8472 9.04179C20.8294 9.05132 20.8169 9.05754 20.8107 9.06057C20.8076 9.06208 20.8061 9.06279 20.8063 9.06272C20.8063 9.06268 20.8068 9.06244 20.8078 9.06201C20.8083 9.06179 20.8088 9.06153 20.8095 9.06121C20.8099 9.06106 20.8103 9.06089 20.8107 9.06071C20.8109 9.06062 20.8112 9.06047 20.8113 9.06043C20.8116 9.06028 20.812 9.06013 21.1178 9.74495ZM23.7498 6.48114C23.7266 5.55912 23.4486 4.49908 22.8115 3.28544L21.4834 3.98266C22.0377 5.03846 22.234 5.8737 22.2502 6.51886L23.7498 6.48114ZM16.4093 18.6292C18.7723 17.0976 19.9007 14.1277 18.8225 11.4552L17.4314 12.0165C18.2133 13.9543 17.4178 16.188 15.5934 17.3705L16.4093 18.6292ZM19.6641 6.24536L17.7724 7.19775L18.4469 8.53754L20.3386 7.58515L19.6641 6.24536ZM18.9638 3.92054L16.5372 5.0853L17.1863 6.43758L19.6129 5.27282L18.9638 3.92054ZM16.5372 5.0853C15.003 5.8217 14.3421 7.09294 14.2111 8.44266C14.0847 9.74482 14.4446 11.1203 14.8981 12.2363L16.2878 11.6716C15.8779 10.6631 15.6109 9.54782 15.7041 8.58755C15.7926 7.67486 16.1978 6.91207 17.1863 6.43758L16.5372 5.0853ZM18.8225 11.4552C18.6202 10.9538 18.305 10.265 18.186 9.59916C18.1276 9.2724 18.1324 9.02465 18.1814 8.85432C18.2216 8.71436 18.2916 8.61569 18.4469 8.53754L17.7724 7.19775C17.216 7.47783 16.8868 7.92869 16.7398 8.4398C16.6016 8.92054 16.6312 9.4254 16.7094 9.86302C16.8636 10.7259 17.2687 11.613 17.4314 12.0165L18.8225 11.4552ZM14.9075 12.2583C15.3448 13.2433 15.3553 13.677 15.2887 13.9237C15.2147 14.1981 15.0116 14.429 14.471 14.9695L15.5317 16.0302C15.9911 15.5707 16.538 15.0515 16.7369 14.3145C16.9432 13.5498 16.7495 12.7105 16.2784 11.6496L14.9075 12.2583Z" fill="black"/>
</g>
<defs>
<clipPath id="clip0_1607_8971">
<rect width="24" height="24" fill="white"/>
</clipPath>
</defs>
</svg>
