<svg width="24" height="24" viewBox="0 0 24 24" fill="none" xmlns="http://www.w3.org/2000/svg">
<path d="M21.1167 2L22.5536 3.42855C23.1488 4.02028 23.1488 4.97967 22.5536 5.57141C21.9584 6.16314 20.9934 6.16314 20.3982 5.57141L20.2355 5.40959C19.5504 4.72848 18.4397 4.72848 17.7546 5.40959L16.0263 7.12786M1 22H1.65201C2.48613 22 3.16602 21.3347 3.17929 20.5056C3.18561 20.1112 3.34598 19.7348 3.62649 19.4559L6.16276 16.9344M10.5749 9.68536L13.4538 12.5475M8.59486 11.654L11.4737 14.5162M16.6496 9.37017L8.32258 17.6491C7.92656 18.0428 7.28475 18.0437 6.88764 17.6511L5.44177 16.2215C5.04312 15.8273 5.04223 15.1862 5.43978 14.791L13.7663 6.51239C14.1622 6.11874 14.8039 6.11776 15.201 6.5102L16.6474 7.93944C17.0462 8.33357 17.0472 8.97483 16.6496 9.37017Z" stroke="black" stroke-width="1.5" stroke-linecap="round"/>
</svg>
