<svg width="24" height="24" viewBox="0 0 24 24" fill="none" xmlns="http://www.w3.org/2000/svg">
<g clip-path="url(#clip0_1607_9404)">
<path d="M7.59315 19.9652L12.2684 15.3227C12.3838 15.2082 12.384 15.0222 12.2688 14.9075L10.6478 13.2922M7.59315 19.9652L5.63738 21.9073M7.59315 19.9652L4.06371 16.4358M5.63738 21.9073L5.26943 22.2726C4.29154 23.2437 2.70768 23.2423 1.73148 22.2696C0.754977 21.2965 0.75635 19.72 1.73454 18.7487L2.10797 18.3779M5.63738 21.9073L2.10797 18.3779M4.06371 16.4358L8.73286 11.7992C8.84814 11.6848 9.03485 11.6849 9.14992 11.7996L10.6478 13.2922M4.06371 16.4358L2.10797 18.3779M10.6478 13.2922L14.526 9.43119C14.6521 9.30577 14.8094 9.21606 14.9819 9.17131L19.6058 7.96747M19.6058 7.96747C20.6027 7.78814 21.649 7.01189 22.3322 5.82858C23.3661 4.03782 23.1768 1.99293 21.9094 1.26118C20.642 0.529434 18.7764 1.38793 17.7425 3.17868C16.7086 4.96944 16.8979 7.01433 18.1653 7.74608C18.5952 7.99429 19.094 8.05953 19.6058 7.96747Z" stroke="black" stroke-width="1.5" stroke-linecap="round"/>
</g>
<defs>
<clipPath id="clip0_1607_9404">
<rect width="24" height="24" fill="white"/>
</clipPath>
</defs>
</svg>
