<svg width="24" height="24" viewBox="0 0 24 24" fill="none" xmlns="http://www.w3.org/2000/svg">
<g clip-path="url(#clip0_1607_9426)">
<path d="M15.5471 19.987C15.4257 20.5661 14.942 20.978 14.3834 20.978C13.8861 20.978 13.4411 20.6502 13.2668 20.1555L12.1083 16.8666C12.0726 16.7654 11.9368 16.7689 11.9057 16.8718L10.9517 20.0355C10.7755 20.6198 10.259 21.0119 9.68145 20.9997C9.0789 20.987 8.56271 20.5382 8.43194 19.9133M15.5471 19.987L16.7968 14.0254C16.7989 14.0154 16.8036 14.0063 16.8104 13.999L16.8816 13.9234C17.5977 13.1628 18 12.1313 18 11.0557V10.5515C18 8.59007 16.503 7 14.6563 7C14.2352 7 13.818 7.08445 13.4265 7.24892L13.0914 7.38968C12.3859 7.68606 11.6005 7.68557 10.8953 7.38833L10.5669 7.24988C10.1752 7.08479 9.75762 7 9.33624 7C7.4937 7 6.00003 8.58647 6.00001 10.5435L6 11.0581C5.99999 12.1323 6.40101 13.1627 7.11514 13.9234L7.1861 13.999C7.1929 14.0063 7.19762 14.0154 7.19972 14.0254L8.43194 19.9133M15.5471 19.987L16.5925 15M8.43194 19.9133L7.40369 15M1 23H23M1 15H7.3712M16.6844 15H23M9.59999 9.54914C11.188 10.3925 12.812 10.3925 14.4 9.54914M9.33713 2.461C9.51228 3.7756 10.6353 4.78781 12 4.78781C13.3562 4.78781 14.4842 3.78811 14.6836 2.48541M9.33713 2.461C9.32085 2.33881 9.31276 2.214 9.31342 2.08715C9.31459 1.86413 9.34276 1.64742 9.39481 1.44013L9.23934 1.36137C8.72673 1.11696 8.18114 0.999987 7.64146 1C6.35329 1.00003 5.09881 1.6666 4.40696 2.8577C3.37687 4.63113 3.98382 6.89629 5.76261 7.91707L6.05549 8.08514L8.76848 3.4144L9.33713 2.461ZM14.6836 2.48541C14.7034 2.35544 14.7141 2.22246 14.7148 2.08715C14.716 1.85945 14.689 1.63833 14.637 1.42709L14.7674 1.36137C16.5036 0.533583 18.6181 1.16758 19.5998 2.8577C20.6299 4.63113 20.023 6.89629 18.2442 7.91707L17.9513 8.08514L15.2383 3.4144L14.6836 2.48541Z" stroke="black" stroke-width="1.5" stroke-linecap="round" stroke-linejoin="round"/>
</g>
<defs>
<clipPath id="clip0_1607_9426">
<rect width="24" height="24" fill="white"/>
</clipPath>
</defs>
</svg>
