<svg width="24" height="24" viewBox="0 0 24 24" fill="none" xmlns="http://www.w3.org/2000/svg">
<path d="M8.5 10.5H11.9388M1.06164 10.5H4.5M19.5 10.5H22.9388M15.5 10.5H12.0616M12.0616 10.5C12.1914 11.2132 12.5226 11.8797 13.0229 12.4172L13.0903 12.4896C13.0966 12.4964 13.101 12.5048 13.1029 12.514L14.2631 18.1462C14.3655 18.6433 14.8031 19 15.3107 19C15.767 19 16.173 18.7105 16.3218 18.2792L17.3941 15.1705C17.4272 15.0746 17.5638 15.0775 17.5927 15.1747L18.486 18.1708C18.6326 18.6628 19.085 19 19.5984 19C20.1477 19 20.6218 18.6149 20.7345 18.0773L21.9003 12.5138C21.9022 12.5048 21.9065 12.4964 21.9128 12.4896L21.9802 12.417C22.6357 11.7107 23 10.7827 23 9.81903L23 9.02487C23 7.35428 21.6457 6 19.9751 6C19.5673 6 19.1638 6.08244 18.7887 6.24236L18.5151 6.35901C17.8706 6.63382 17.1419 6.63427 16.497 6.36024L16.2175 6.24146C15.8425 6.08212 15.4392 6 15.0318 6C13.3574 6 12 7.35738 12 9.03179V9.81677C12 10.0474 12.0209 10.276 12.0616 10.5ZM10.9003 12.5138L9.7345 18.0773C9.62183 18.6149 9.14771 19 8.59837 19C8.08501 19 7.63261 18.6628 7.48595 18.1708L6.59274 15.1747C6.56377 15.0775 6.42721 15.0746 6.39415 15.1705L5.32179 18.2792C5.173 18.7105 4.76696 19 4.31068 19C3.80314 19 3.36549 18.6433 3.26309 18.1462L2.10287 12.514C2.10099 12.5048 2.09664 12.4964 2.09029 12.4896L2.02293 12.4172C1.3655 11.7109 1 10.7817 1 9.81677V9.03179C1 7.35738 2.35738 6 4.03179 6C4.43922 6 4.84248 6.08212 5.21746 6.24146L5.49699 6.36024C6.14188 6.63427 6.87055 6.63382 7.5151 6.35901L7.78869 6.24236C8.16377 6.08244 8.56732 6 8.97507 6C10.6457 6 12 7.35428 12 9.02487L12 9.81903C12 10.7827 11.6357 11.7107 10.9802 12.417L10.9128 12.4896C10.9065 12.4964 10.9022 12.5048 10.9003 12.5138ZM4.5 11V10C4.5 9.44772 4.94772 9 5.5 9H7.5C8.05228 9 8.5 9.44772 8.5 10V11C8.5 11.5523 8.05228 12 7.5 12H5.5C4.94772 12 4.5 11.5523 4.5 11ZM15.5 11V10C15.5 9.44772 15.9477 9 16.5 9H18.5C19.0523 9 19.5 9.44772 19.5 10V11C19.5 11.5523 19.0523 12 18.5 12H16.5C15.9477 12 15.5 11.5523 15.5 11Z" stroke="black" stroke-width="1.5" stroke-linecap="round"/>
</svg>
