<svg width="24" height="24" viewBox="0 0 24 24" fill="none" xmlns="http://www.w3.org/2000/svg">
<g clip-path="url(#clip0_1607_9435)">
<path d="M12 10V11.9801M12 10C12 8.89548 11.1046 8.00005 10 8.00005C8.89543 8.00005 8 8.89548 8 10V11.9801C8 11.9911 8.00891 12 8.0199 12H11.9801C11.9911 12 12 11.9911 12 11.9801M12 10C12 8.89548 12.8954 8.00005 14 8.00005C15.1046 8.00005 16 8.89548 16 10V11.9801C16 11.9911 15.9911 12 15.9801 12H12.0199C12.0089 12 12 11.9911 12 11.9801M1 7.50005V9.98015C1 9.99114 1.00891 10 1.0199 10H3.9801C3.99109 10 4 9.99114 4 9.98015V7.50005C4 6.67162 3.32843 6.00005 2.5 6.00005C1.67157 6.00005 1 6.67162 1 7.50005ZM1 7.50005C1 4.89418 2.86359 2.66121 5.42742 2.19506L6.00408 2.09021C9.96886 1.36934 14.0311 1.36934 17.9959 2.09021L18.5726 2.19506C21.1364 2.66121 23 4.89418 23 7.50005M23 7.50005V9.98015C23 9.99114 22.9911 10 22.9801 10H20.0199C20.0089 10 20 9.99114 20 9.98015V7.50005C20 6.67162 20.6716 6.00005 21.5 6.00005C22.3284 6.00005 23 6.67162 23 7.50005ZM12 18V16.0199M12 18C12 19.1046 12.8954 20 14 20C15.1046 20 16 19.1046 16 18V16.0199C16 16.009 15.9911 16 15.9801 16L12.0199 16C12.0089 16 12 16.009 12 16.0199M12 18C12 19.1046 11.1046 20 10 20C8.89543 20 8 19.1046 8 18L8 16.0199C8 16.009 8.00891 16 8.0199 16L11.9801 16C11.9911 16 12 16.009 12 16.0199M23 16.5V14.0199C23 14.009 22.9911 14 22.9801 14H20.0199C20.0089 14 20 14.009 20 14.0199V16.5C20 17.3285 20.6716 18 21.5 18C22.3284 18 23 17.3285 23 16.5ZM23 16.5C23 19.1059 21.1364 21.3389 18.5726 21.805L17.9959 21.9099C14.0311 22.6307 9.96886 22.6307 6.00408 21.9099L5.42742 21.805C2.86359 21.3389 1 19.1059 1 16.5M1 16.5L1 14.0199C1 14.009 1.00891 14 1.0199 14H3.9801C3.99109 14 4 14.009 4 14.0199V16.5C4 17.3285 3.32843 18 2.5 18C1.67157 18 1 17.3285 1 16.5ZM8 9.00005V10.9801C8 10.9911 7.99109 11 7.9801 11H4.0199C4.00891 11 4 10.9911 4 10.9801V9.00005C4 7.89548 4.89543 7.00005 6 7.00005C7.10457 7.00005 8 7.89548 8 9.00005ZM20 9.00005V10.9801C20 10.9911 19.9911 11 19.9801 11H16.0199C16.0089 11 16 10.9911 16 10.9801V9.00005C16 7.89548 16.8954 7.00005 18 7.00005C19.1046 7.00005 20 7.89548 20 9.00005ZM16 17V15.0199C16 15.009 16.0089 15 16.0199 15L19.9801 15C19.9911 15 20 15.009 20 15.0199V17C20 18.1046 19.1046 19 18 19C16.8954 19 16 18.1046 16 17ZM4 17V15.0199C4 15.009 4.00891 15 4.0199 15L7.9801 15C7.99109 15 8 15.009 8 15.0199L8 17C8 18.1046 7.10457 19 6 19C4.89543 19 4 18.1046 4 17Z" stroke="black" stroke-width="1.5" stroke-linecap="round" stroke-linejoin="round"/>
</g>
<defs>
<clipPath id="clip0_1607_9435">
<rect width="24" height="24" fill="white"/>
</clipPath>
</defs>
</svg>
