<svg width="24" height="24" viewBox="0 0 24 24" fill="none" xmlns="http://www.w3.org/2000/svg">
<g clip-path="url(#clip0_1607_9444)">
<path d="M11.8181 9.09088L11.4918 9.25404C9.7514 10.1242 7.70292 10.1242 5.96257 9.25404L5.63625 9.09088M21 1L20.0535 2.89283C20.0256 2.94863 19.954 2.96554 19.9041 2.92811L18.1043 1.57829C18.0517 1.53881 17.9759 1.56006 17.9515 1.62115L17 4M22.9999 5.50002L21.0959 6.92813C21.046 6.96557 20.9744 6.94866 20.9465 6.89286L20.0535 5.10717C20.0256 5.05136 19.954 5.03446 19.9041 5.07189L18 6.5M22.9998 12L20.1476 12C20.0769 12 20.0285 11.9286 20.0548 11.8629L20.9552 9.61167C20.9784 9.55362 20.9432 9.48874 20.8819 9.47648L18.4998 9.00005M14.9094 14.5184L13.2917 21.7041C13.1211 22.4617 12.4482 23 11.6716 23C10.9496 23 10.3104 22.5335 10.0901 21.8459L8.85161 17.9791C8.81082 17.8518 8.63209 17.8477 8.58561 17.9731L7.09306 22.0004C6.8704 22.6012 6.29735 23 5.65661 23C4.9381 23 4.31613 22.5006 4.16087 21.7991L2.54958 14.5186C2.54688 14.5065 2.54078 14.4953 2.53197 14.4865L2.44033 14.3949C1.5181 13.4726 1 12.2218 1 10.9176V10.3063C1 7.92801 2.92801 6 5.30633 6C5.84856 6 6.38591 6.1024 6.89013 6.30183L7.32166 6.4725C8.23029 6.83187 9.24175 6.83128 10.15 6.47086L10.573 6.30299C11.0774 6.10281 11.6152 6 12.1579 6C14.5308 6 16.4545 7.92365 16.4545 10.2966L16.4545 10.9205C16.4545 12.2231 15.9381 13.4725 15.0184 14.3949L14.9269 14.4866C14.9182 14.4954 14.9121 14.5064 14.9094 14.5184Z" stroke="black" stroke-width="1.5" stroke-linecap="round" stroke-linejoin="round"/>
</g>
<defs>
<clipPath id="clip0_1607_9444">
<rect width="24" height="24" fill="white"/>
</clipPath>
</defs>
</svg>
