<svg width="24" height="24" viewBox="0 0 24 24" fill="none" xmlns="http://www.w3.org/2000/svg">
<g clip-path="url(#clip0_1607_8271)">
<path d="M20 8V10C20 14.4183 16.4183 18 12 18M4 8V10C4 14.4183 7.58172 18 12 18M12 18V23M7 23H17M1 1L23 23M12 15C9.79086 15 8 13.2091 8 11V5C8 2.79086 9.79086 1 12 1C14.2091 1 16 2.79086 16 5V11C16 13.2091 14.2091 15 12 15Z" stroke="black" stroke-width="1.5" stroke-linecap="round"/>
</g>
<defs>
<clipPath id="clip0_1607_8271">
<rect width="24" height="24" fill="white"/>
</clipPath>
</defs>
</svg>
