<svg width="24" height="24" viewBox="0 0 24 24" fill="none" xmlns="http://www.w3.org/2000/svg">
<g clip-path="url(#clip0_1607_8305)">
<path d="M7.81818 16.9762L7.81818 6.99994M1 12C1 5.92487 5.92487 0.999999 12 1C18.0751 1 23 5.92487 23 12C23 18.0751 18.0751 23 12 23C5.92487 23 0.999999 18.0751 1 12ZM16 15.0506L16 8.86953C16 8.07546 15.119 7.59816 14.4538 8.03185L9.94271 10.9731C9.35378 11.3571 9.3345 12.2129 9.90555 12.623L14.4167 15.8629C15.0783 16.338 16 15.8652 16 15.0506Z" stroke="black" stroke-width="1.5" stroke-linecap="round" stroke-linejoin="round"/>
</g>
<defs>
<clipPath id="clip0_1607_8305">
<rect width="24" height="24" fill="white"/>
</clipPath>
</defs>
</svg>
