<svg width="24" height="24" viewBox="0 0 24 24" fill="none" xmlns="http://www.w3.org/2000/svg">
<path d="M9.25 1H2C1.44772 1 1 1.44772 1 2V10C1 10.5523 1.44772 11 2 11H9.25V1Z" fill="black"/>
<path fill-rule="evenodd" clip-rule="evenodd" d="M10.75 11H11.25L11.25 22C11.25 22.1381 11.1381 22.25 11 22.25H6C5.86193 22.25 5.75 22.1381 5.75 22V21C5.75 20.9731 5.74858 20.9465 5.74582 20.9204C7.32051 20.5786 8.5 19.177 8.5 17.5C8.5 15.567 6.933 14 5 14C3.067 14 1.5 15.567 1.5 17.5C1.5 19.177 2.67949 20.5786 4.25418 20.9204C4.25142 20.9465 4.25 20.9731 4.25 21V22C4.25 22.9665 5.0335 23.75 6 23.75H11C11.9665 23.75 12.75 22.9665 12.75 22L12.75 11H14.75V22C14.75 22.9665 15.5335 23.75 16.5 23.75H20C20.9665 23.75 21.75 22.9665 21.75 22L21.75 18.8546C22.483 18.5579 23 17.8393 23 17V15C23 13.8954 22.1046 13 21 13C19.8954 13 19 13.8954 19 15V17C19 17.8393 19.517 18.5579 20.25 18.8546L20.25 22C20.25 22.1381 20.1381 22.25 20 22.25H16.5C16.3619 22.25 16.25 22.1381 16.25 22V11H17C17.5523 11 18 10.5523 18 10V2C18 1.44772 17.5523 1 17 1H10.75V11ZM5 15.75C5.41421 15.75 5.75 16.0858 5.75 16.5V17.5C5.75 17.9142 5.41421 18.25 5 18.25C4.58579 18.25 4.25 17.9142 4.25 17.5V16.5C4.25 16.0858 4.58579 15.75 5 15.75Z" fill="black"/>
</svg>
