<svg width="24" height="24" viewBox="0 0 24 24" fill="none" xmlns="http://www.w3.org/2000/svg">
<path d="M14.25 1H4C3.44772 1 3 1.44772 3 2V6.75H5.02284L5.89959 4.87583C6.20512 4.22272 7.13391 4.22272 7.43943 4.87583L9.05709 8.33382L9.69909 7.14693L10.2665 6.06886C10.5851 5.46334 11.4522 5.46334 11.7708 6.06886L12.1293 6.75H14.25V1Z" fill="black"/>
<path fill-rule="evenodd" clip-rule="evenodd" d="M3 9.25V8.25H5.43638C5.76634 8.25 6.06649 8.05904 6.2063 7.76017L6.66951 6.76999L8.24509 10.138C8.54087 10.7703 9.43053 10.7962 9.76264 10.1822L11.0203 7.85718C11.1755 8.1005 11.4451 8.25 11.7369 8.25H14.25V13H4C3.44772 13 3 12.5523 3 12V10.75H2C1.86193 10.75 1.75 10.8619 1.75 11V18.5C1.75 18.6381 1.86193 18.75 2 18.75H3.75V18.5C3.75 17.5335 4.5335 16.75 5.5 16.75H7C7.0105 16.75 7.02094 16.7502 7.03134 16.7506C7.14212 16.319 7.53381 16 8 16H10C10.5523 16 11 16.4477 11 17V22C11 22.5523 10.5523 23 10 23H8C7.53381 23 7.14212 22.681 7.03134 22.2494C7.02094 22.2498 7.0105 22.25 7 22.25H5.5C4.5335 22.25 3.75 21.4665 3.75 20.5V20.25H2C1.0335 20.25 0.25 19.4665 0.25 18.5V11C0.25 10.0335 1.0335 9.25 2 9.25H3ZM7 20.75V18.25H5.5C5.36193 18.25 5.25 18.3619 5.25 18.5V20.5C5.25 20.6381 5.36193 20.75 5.5 20.75H7Z" fill="black"/>
<path fill-rule="evenodd" clip-rule="evenodd" d="M15.75 13L15.75 1H20C20.5523 1 21 1.44772 21 2V9.25H22C22.9665 9.25 23.75 10.0335 23.75 11V18.5C23.75 19.4665 22.9665 20.25 22 20.25H20.25V20.5C20.25 21.4665 19.4665 22.25 18.5 22.25H17C16.9943 22.25 16.9887 22.2499 16.983 22.2498C16.9782 22.2497 16.9734 22.2495 16.9687 22.2494C16.8579 22.681 16.4662 23 16 23H14C13.4477 23 13 22.5523 13 22V17C13 16.4477 13.4477 16 14 16H16C16.4662 16 16.8579 16.319 16.9687 16.7506C16.9791 16.7502 16.9895 16.75 17 16.75H18.5C19.4665 16.75 20.25 17.5335 20.25 18.5V18.75H22C22.1381 18.75 22.25 18.6381 22.25 18.5V11C22.25 10.8619 22.1381 10.75 22 10.75H21V12C21 12.5523 20.5523 13 20 13H15.75ZM18.5 20.75H17V18.25H18.5C18.6381 18.25 18.75 18.3619 18.75 18.5V20.5C18.75 20.6381 18.6381 20.75 18.5 20.75ZM18.75 5.00005C18.75 4.58584 18.4142 4.25005 18 4.25005C17.5858 4.25005 17.25 4.58584 17.25 5.00005V5.03178C17.25 5.44599 17.5858 5.78178 18 5.78178C18.4142 5.78178 18.75 5.44599 18.75 5.03178V5.00005ZM18 7.25005C18.4142 7.25005 18.75 7.58584 18.75 8.00005V8.03178C18.75 8.44599 18.4142 8.78178 18 8.78178C17.5858 8.78178 17.25 8.44599 17.25 8.03178V8.00005C17.25 7.58584 17.5858 7.25005 18 7.25005Z" fill="black"/>
</svg>
