<svg width="24" height="24" viewBox="0 0 24 24" fill="none" xmlns="http://www.w3.org/2000/svg">
<path d="M7 6C6.44772 6 6 6.44772 6 7V11.25V11.25L7.84605 11.25L8.89104 8.97554C9.19436 8.31536 10.1325 8.31536 10.4358 8.97554L12.3853 13.2187L13.2177 11.6518L13.8788 10.3729C14.1956 9.75997 15.0721 9.75998 15.389 10.3729L15.8423 11.25L18 11.25V7C18 6.44772 17.5523 6 17 6H7Z" fill="black"/>
<path d="M18 12.75L15.4466 12.75C15.1287 12.75 14.8374 12.5726 14.6915 12.2903L14.6339 12.1788L14.5483 12.3443L14.5444 12.3518L13.0937 15.0825C12.7636 15.7039 11.8645 15.678 11.5707 15.0386L9.66342 10.8873L9.03511 12.2548C8.89647 12.5566 8.5948 12.75 8.26273 12.75L6.00028 12.75V12.75L6 17C6 17.5523 6.44772 18 7 18H17C17.5523 18 18 17.5523 18 17V12.75Z" fill="black"/>
<path d="M9.6665 1H14.3332C14.8855 1 15.3332 1.44772 15.3332 2V4.5H8.6665V2C8.6665 1.44772 9.11422 1 9.6665 1Z" fill="black"/>
<path d="M8.6665 19.5V22C8.6665 22.5523 9.11422 23 9.6665 23H14.3332C14.8855 23 15.3332 22.5523 15.3332 22V19.5H8.6665Z" fill="black"/>
</svg>
