<svg width="24" height="24" viewBox="0 0 24 24" fill="none" xmlns="http://www.w3.org/2000/svg">
<path d="M1 2C1 1.44772 1.44772 1 2 1H22C22.5523 1 23 1.44772 23 2V8.25H16.6625L15.9273 6.82749C15.6104 6.21455 14.7339 6.21455 14.4171 6.82749L13.4741 8.65181L12.0621 11.3096L9.11018 4.88466C8.80686 4.22448 7.86874 4.22448 7.56542 4.88466L6.01921 8.25H1V2Z" fill="black"/>
<path fill-rule="evenodd" clip-rule="evenodd" d="M16.2668 9.75H23V16C23 16.5523 22.5523 17 22 17H15.5V22.25H18.5999C19.0141 22.25 19.3499 22.5858 19.3499 23C19.3499 23.4142 19.0141 23.75 18.5999 23.75H5.3999C4.98569 23.75 4.6499 23.4142 4.6499 23C4.6499 22.5858 4.98569 22.25 5.3999 22.25H8.5V17H2C1.44772 17 1 16.5523 1 16V9.75H6.4359C6.76797 9.75 7.06963 9.55662 7.20827 9.25487L8.3378 6.79644L11.2475 13.1295C11.5413 13.7689 12.4404 13.7948 12.7706 13.1734L14.8047 9.3444L15.1722 8.63338L15.5117 9.29029C15.6577 9.57266 15.949 9.75 16.2668 9.75ZM10 17V22.25H14V17H10Z" fill="black"/>
</svg>
