<svg width="24" height="24" viewBox="0 0 24 24" fill="none" xmlns="http://www.w3.org/2000/svg">
<path d="M12.875 1C13.4963 1 14 1.50368 14 2.125C14 2.33211 14.1679 2.5 14.375 2.5H16C16.5523 2.5 17 2.94772 17 3.5V5C17 5.55228 16.5523 6 16 6H8C7.44772 6 7 5.55228 7 5V3.5C7 2.94772 7.44772 2.5 8 2.5H9.625C9.83211 2.5 10 2.33211 10 2.125C10 1.50368 10.5037 1 11.125 1H12.875Z" fill="black"/>
<path d="M5 4H5.5V5C5.5 6.38071 6.61929 7.5 8 7.5H16C17.3807 7.5 18.5 6.38071 18.5 5V4H19C19.5523 4 20 4.44772 20 5V14.25H16.6625L15.9273 12.8275C15.6104 12.2145 14.7339 12.2146 14.4171 12.8275L13.4741 14.6519L12.0621 17.3096L9.11018 10.8847C8.80686 10.2245 7.86874 10.2245 7.56542 10.8847L6.01921 14.25H4V5C4 4.44771 4.44772 4 5 4Z" fill="black"/>
<path d="M20 15.75V22C20 22.5523 19.5523 23 19 23H5C4.44772 23 4 22.5523 4 22V15.75H6.43589C6.76797 15.75 7.06963 15.5566 7.20827 15.2549L8.3378 12.7964L11.2475 19.1295C11.5413 19.7689 12.4404 19.7948 12.7706 19.1734L14.8047 15.3444L15.1722 14.6334L15.5117 15.2903C15.6577 15.5727 15.949 15.75 16.2668 15.75H20Z" fill="black"/>
</svg>
