<svg width="24" height="24" viewBox="0 0 24 24" fill="none" xmlns="http://www.w3.org/2000/svg">
<path fill-rule="evenodd" clip-rule="evenodd" d="M9.72727 1H6C5.44771 1 5 1.44772 5 2V10C5 10.5523 5.44771 11 6 11H9.72727C10.2796 11 10.7273 10.5523 10.7273 10V2C10.7273 1.44772 10.2796 1 9.72727 1ZM8 8.25005C8.41421 8.25005 8.75 8.58584 8.75 9.00005V9.03178C8.75 9.44599 8.41421 9.78178 8 9.78178C7.58579 9.78178 7.25 9.44599 7.25 9.03178V9.00005C7.25 8.58584 7.58579 8.25005 8 8.25005Z" fill="black"/>
<path d="M1 3.25C0.585787 3.25 0.25 3.58579 0.25 4V9C0.25 13.0283 3.32333 16.3387 7.25313 16.7145C7.36655 20.6194 10.5677 23.75 14.5 23.75H15C18.7279 23.75 21.75 20.7279 21.75 17V16.8546C22.483 16.5579 23 15.8393 23 15C23 13.8954 22.1046 13 21 13C19.8954 13 19 13.8954 19 15C19 15.8393 19.517 16.5579 20.25 16.8546V17C20.25 19.8995 17.8995 22.25 15 22.25H14.5C11.3959 22.25 8.86635 19.7904 8.75391 16.7138C12.6803 16.3348 15.75 13.0259 15.75 9V4C15.75 3.80109 15.671 3.61032 15.5303 3.46967C15.3897 3.32902 15.1989 3.25 15 3.25H13C12.5858 3.25 12.25 3.58579 12.25 4C12.25 4.41421 12.5858 4.75 13 4.75H14.25V9C14.25 12.4518 11.4518 15.25 8 15.25C4.54822 15.25 1.75 12.4518 1.75 9L1.75 4.75H3C3.41421 4.75 3.75 4.41421 3.75 4C3.75 3.58579 3.41421 3.25 3 3.25H1Z" fill="black"/>
</svg>
