<svg width="24" height="24" viewBox="0 0 24 24" fill="none" xmlns="http://www.w3.org/2000/svg">
<path fill-rule="evenodd" clip-rule="evenodd" d="M20.0001 2H4.00007C3.44779 2 3.00007 2.44772 3.00007 3V14.25H21.0001V3C21.0001 2.44772 20.5524 2 20.0001 2ZM12.3333 4.5C12.8856 4.5 13.3333 4.94772 13.3333 5.5V7.06667C13.3333 7.1219 13.3781 7.16667 13.4333 7.16667H15C15.5523 7.16667 16 7.61438 16 8.16667V8.83333C16 9.38562 15.5523 9.83333 15 9.83333H13.4333C13.3781 9.83333 13.3333 9.87811 13.3333 9.93333V11.5C13.3333 12.0523 12.8856 12.5 12.3333 12.5H11.6667C11.1144 12.5 10.6667 12.0523 10.6667 11.5V9.93333C10.6667 9.8781 10.6219 9.83333 10.5667 9.83333H9C8.44772 9.83333 8 9.38562 8 8.83333V8.16667C8 7.61438 8.44772 7.16667 9 7.16667H10.5667C10.6219 7.16667 10.6667 7.1219 10.6667 7.06667V5.5C10.6667 4.94772 11.1144 4.5 11.6667 4.5H12.3333Z" fill="black"/>
<path fill-rule="evenodd" clip-rule="evenodd" d="M21.2144 15.75H2.78579L1.36428 20.7253C1.18176 21.3641 1.66142 22 2.3258 22L21.6743 22C22.3387 22 22.8184 21.3641 22.6359 20.7253L21.2144 15.75ZM5.25009 19C5.25009 18.5858 5.58587 18.25 6.00009 18.25H18.0001C18.4143 18.25 18.7501 18.5858 18.7501 19C18.7501 19.4142 18.4143 19.75 18.0001 19.75H6.00009C5.58587 19.75 5.25009 19.4142 5.25009 19Z" fill="black"/>
</svg>
