<svg width="24" height="24" viewBox="0 0 24 24" fill="none" xmlns="http://www.w3.org/2000/svg">
<path d="M19.0209 21H4.97906C2.78148 21 1 19.2185 1 17.0209C1 17.0094 1.00938 17 1.02094 17H10.625V17.3333C10.625 17.8856 11.0727 18.3333 11.625 18.3333H12.375C12.9273 18.3333 13.375 17.8856 13.375 17.3333V17H22.9791C22.9906 17 23 17.0094 23 17.0209C23 19.2185 21.2185 21 19.0209 21Z" fill="black"/>
<path fill-rule="evenodd" clip-rule="evenodd" d="M20 3H4C3.44772 3 3 3.44772 3 4L3.00008 15.5H21V4C21 3.44772 20.5523 3 20 3ZM13.3333 7C13.3333 6.44772 12.8856 6 12.3333 6H11.6667C11.1144 6 10.6667 6.44772 10.6667 7V8.56667C10.6667 8.6219 10.6219 8.66667 10.5667 8.66667H9C8.44772 8.66667 8 9.11438 8 9.66667V10.3333C8 10.8856 8.44772 11.3333 9 11.3333H10.5667C10.6219 11.3333 10.6667 11.3781 10.6667 11.4333V13C10.6667 13.5523 11.1144 14 11.6667 14H12.3333C12.8856 14 13.3333 13.5523 13.3333 13V11.4333C13.3333 11.3781 13.3781 11.3333 13.4333 11.3333H15C15.5523 11.3333 16 10.8856 16 10.3333V9.66667C16 9.11438 15.5523 8.66667 15 8.66667H13.4333C13.3781 8.66667 13.3333 8.6219 13.3333 8.56667V7Z" fill="black"/>
</svg>
