<svg width="24" height="24" viewBox="0 0 24 24" fill="none" xmlns="http://www.w3.org/2000/svg">
<path fill-rule="evenodd" clip-rule="evenodd" d="M7 1C6.44772 1 6 1.44772 6 2V22C6 22.5523 6.44772 23 7 23H17C17.5523 23 18 22.5523 18 22V2C18 1.44772 17.5523 1 17 1H7ZM12.3333 8C12.8856 8 13.3333 8.44772 13.3333 9V10.5667C13.3333 10.6219 13.3781 10.6667 13.4333 10.6667H15C15.5523 10.6667 16 11.1144 16 11.6667V12.3333C16 12.8856 15.5523 13.3333 15 13.3333H13.4333C13.3781 13.3333 13.3333 13.3781 13.3333 13.4333V15C13.3333 15.5523 12.8856 16 12.3333 16H11.6667C11.1144 16 10.6667 15.5523 10.6667 15V13.4333C10.6667 13.3781 10.6219 13.3333 10.5667 13.3333H9C8.44772 13.3333 8 12.8856 8 12.3333V11.6667C8 11.1144 8.44772 10.6667 9 10.6667H10.5667C10.6219 10.6667 10.6667 10.6219 10.6667 10.5667V9C10.6667 8.44772 11.1144 8 11.6667 8H12.3333ZM12 19.25C12.4142 19.25 12.75 19.5858 12.75 20V20.0318C12.75 20.446 12.4142 20.7818 12 20.7818C11.5858 20.7818 11.25 20.446 11.25 20.0318V20C11.25 19.5858 11.5858 19.25 12 19.25ZM9.5 3.25C9.08579 3.25 8.75 3.58579 8.75 4C8.75 4.41421 9.08579 4.75 9.5 4.75H14.5C14.9142 4.75 15.25 4.41421 15.25 4C15.25 3.58579 14.9142 3.25 14.5 3.25H9.5Z" fill="black"/>
</svg>
