<svg width="24" height="24" viewBox="0 0 24 24" fill="none" xmlns="http://www.w3.org/2000/svg">
<path d="M1 2C1 1.44772 1.44772 1 2 1H22C22.5523 1 23 1.44772 23 2V8.75H15.9117L15.3607 7.60992C15.0513 6.96976 14.1395 6.96976 13.8301 7.60992L13.0761 9.16999L12.0603 11.2148L9.78463 5.91782C9.48993 5.23185 8.51739 5.23184 8.22268 5.91782L7.00593 8.75H1V2Z" fill="black"/>
<path d="M15.5039 10.25H23V16.25H1V10.25H7.43412C7.77387 10.25 8.08099 10.0477 8.2151 9.73552L9.00366 7.90003L11.2366 13.0975C11.5225 13.763 12.4565 13.7888 12.7788 13.1401L14.4249 9.82639L14.5954 9.47352L14.7386 9.76988C14.8805 10.0635 15.1779 10.25 15.5039 10.25Z" fill="black"/>
<path fill-rule="evenodd" clip-rule="evenodd" d="M1 17.75V22C1 22.5523 1.44772 23 2 23H22C22.5523 23 23 22.5523 23 22V17.75H1ZM5 19.25C5.41421 19.25 5.75 19.5858 5.75 20V20.0318C5.75 20.446 5.41421 20.7818 5 20.7818C4.58579 20.7818 4.25 20.446 4.25 20.0318V20C4.25 19.5858 4.58579 19.25 5 19.25ZM9.75 20C9.75 19.5858 9.41421 19.25 9 19.25C8.58579 19.25 8.25 19.5858 8.25 20V20.0318C8.25 20.446 8.58579 20.7818 9 20.7818C9.41421 20.7818 9.75 20.446 9.75 20.0318V20Z" fill="black"/>
</svg>
