<svg width="24" height="24" viewBox="0 0 24 24" fill="none" xmlns="http://www.w3.org/2000/svg">
<path fill-rule="evenodd" clip-rule="evenodd" d="M8.99999 1C7.34313 1 5.99999 2.34315 5.99999 4V7.89855C5.99999 7.95458 6.04541 8 6.10144 8H11.8985C11.9546 8 12 7.95458 12 7.89855V4C12 2.34315 10.6568 1 8.99999 1ZM7.99999 3.25C7.58577 3.25 7.24999 3.58579 7.24999 4C7.24999 4.41421 7.58577 4.75 7.99999 4.75H9.99999C10.4142 4.75 10.75 4.41421 10.75 4C10.75 3.58579 10.4142 3.25 9.99999 3.25H7.99999ZM7.99999 5.25C8.4142 5.25 8.74999 5.58579 8.74999 6V6.03173C8.74999 6.44594 8.4142 6.78173 7.99999 6.78173C7.58577 6.78173 7.24999 6.44594 7.24999 6.03173V6C7.24999 5.58579 7.58577 5.25 7.99999 5.25ZM10.75 6C10.75 5.58579 10.4142 5.25 9.99999 5.25C9.58577 5.25 9.24999 5.58579 9.24999 6V6.03173C9.24999 6.44594 9.58577 6.78173 9.99999 6.78173C10.4142 6.78173 10.75 6.44594 10.75 6.03173V6Z" fill="black"/>
<path d="M7.55605 16.8136L7.55603 9.5H10.6698L10.6698 12.709C10.6874 11.8644 11.3776 11.1852 12.2264 11.1852C13.0862 11.1852 13.7833 11.8822 13.7833 12.7421L13.7833 13.5938C13.8597 12.8032 14.5259 12.1852 15.3365 12.1852C16.1984 12.1852 16.897 12.8839 16.897 13.7457V14.5913C16.9729 13.8022 17.6377 13.1852 18.4467 13.1852C19.3066 13.1852 20.0036 13.8822 20.0036 14.7421V22.9C20.0036 22.9552 19.9588 23 19.9036 23H5.25746C5.22135 23 5.18804 22.9805 5.17033 22.9491L2.11015 17.5144C1.88984 17.1232 2.00971 16.6207 2.38312 16.3703C3.40538 15.6847 4.75354 15.8403 5.58209 16.7395L6.15452 17.3608C6.43719 17.6676 6.90699 17.7087 7.23855 17.4555C7.43864 17.3027 7.55605 17.0654 7.55605 16.8136Z" fill="black"/>
</svg>
