<svg width="24" height="24" viewBox="0 0 24 24" fill="none" xmlns="http://www.w3.org/2000/svg">
<path d="M12 1.75C8.80933 1.75 5.85978 2.97321 3.49499 5.05058C3.1838 5.32395 2.70991 5.29328 2.43654 4.98209C2.16317 4.6709 2.19384 4.19701 2.50503 3.92364C5.11767 1.62855 8.41196 0.25 12 0.25C15.5881 0.25 18.8823 1.62854 21.495 3.92363C21.8062 4.197 21.8368 4.67088 21.5635 4.98208C21.2901 5.29327 20.8162 5.32394 20.505 5.05056C18.1402 2.9732 15.1907 1.75 12 1.75Z" fill="black"/>
<path d="M12 5.09587C9.742 5.09587 7.64784 6.00126 5.96602 7.55147C5.66145 7.8322 5.18697 7.81288 4.90623 7.50831C4.6255 7.20374 4.64482 6.72926 4.94939 6.44853C6.87611 4.6726 9.32379 3.59587 12 3.59587C14.6762 3.59587 17.1239 4.67259 19.0506 6.44851C19.3552 6.72924 19.3745 7.20372 19.0938 7.50829C18.813 7.81286 18.3386 7.83219 18.034 7.55146C16.3522 6.00126 14.258 5.09587 12 5.09587Z" fill="black"/>
<path fill-rule="evenodd" clip-rule="evenodd" d="M9.32059 9C8.78537 9 8.34503 9.42142 8.32155 9.95613L8.2497 11.5925C8.22496 12.1559 8.67047 12.6271 9.23221 12.6362H9.09083L9.65315 14.8855C9.76244 15.3227 9.80231 15.7743 9.77131 16.2238L9.62959 18.2788C9.55271 19.3936 10.2555 20.3718 11.2592 20.7005C11.2531 20.7388 11.25 20.7781 11.25 20.8181V22.9999C11.25 23.4141 11.5858 23.7499 12 23.7499C12.4142 23.7499 12.75 23.4141 12.75 22.9999V20.8181C12.75 20.7781 12.7469 20.7387 12.7408 20.7004C13.7444 20.3715 14.4471 19.3932 14.3702 18.2785L14.2285 16.2238C14.1975 15.7743 14.2374 15.3227 14.3467 14.8855L14.909 12.6362H14.771C15.3332 12.6271 15.7789 12.1551 15.7534 11.5912L15.6794 9.95482C15.6553 9.42065 15.2152 9 14.6805 9H9.32059ZM12.0001 15.2499C12.4143 15.2499 12.7501 15.5857 12.7501 15.9999V16.0271C12.7501 16.4413 12.4143 16.7771 12.0001 16.7771C11.5858 16.7771 11.2501 16.4413 11.2501 16.0271V15.9999C11.2501 15.5857 11.5858 15.2499 12.0001 15.2499Z" fill="black"/>
</svg>
