<svg width="24" height="24" viewBox="0 0 24 24" fill="none" xmlns="http://www.w3.org/2000/svg">
<path fill-rule="evenodd" clip-rule="evenodd" d="M1.0118 4.14594C0.943272 3.70233 1.17806 3.26558 1.59204 3.09206C8.2469 0.302647 15.7522 0.302647 22.407 3.09206C22.821 3.26558 23.0558 3.70233 22.9873 4.14594L20.2058 22.1527C20.1305 22.6402 19.7109 23 19.2175 23H4.78154C4.28819 23 3.86857 22.6402 3.79326 22.1527L1.0118 4.14594ZM5.11162 12.1243C5.01802 11.5184 5.48677 10.9717 6.0999 10.9717H17.8992C18.5123 10.9717 18.9811 11.5184 18.8875 12.1243L17.8199 19.0355C17.7446 19.523 17.325 19.8828 16.8316 19.8828H7.16745C6.67411 19.8828 6.25448 19.523 6.17917 19.0355L5.11162 12.1243ZM5.34664 4.74454C5.09879 4.83254 4.93319 5.06706 4.93319 5.33007V7.38257C4.93319 7.93485 5.38091 8.38257 5.93319 8.38257H11.1226L12.8719 5.49428C13.0865 5.13998 13.5476 5.02672 13.9019 5.2413C14.2562 5.45588 14.3695 5.91705 14.1549 6.27135L12.8762 8.38257H18.0651C18.6174 8.38257 19.0651 7.93485 19.0651 7.38257V5.33007C19.0651 5.06706 18.8995 4.83254 18.6517 4.74454C14.3483 3.21662 9.65005 3.21661 5.34664 4.74454Z" fill="black"/>
</svg>
