<svg width="24" height="24" viewBox="0 0 24 24" fill="none" xmlns="http://www.w3.org/2000/svg">
<path fill-rule="evenodd" clip-rule="evenodd" d="M2.01157 3.8156L4.3571 19.1513C4.43176 19.6395 4.85146 20 5.34507 20H14.7761V17.3078H7.38563C6.89201 17.3078 6.47232 16.9473 6.39765 16.4591L5.52647 10.7631C5.43386 10.1576 5.90221 9.61182 6.51445 9.61182H16.2709C16.8832 9.61182 17.3515 10.1576 17.2589 10.7631L17.1457 11.5033C17.1889 11.5011 17.2323 11.5 17.2761 11.5H19.5979L20.7732 3.8156C20.8408 3.37371 20.6077 2.93842 20.1954 2.76612C14.561 0.411294 8.22377 0.411294 2.58933 2.76612C2.17705 2.93842 1.94399 3.37371 2.01157 3.8156ZM5.35078 4.78685C5.35078 4.53126 5.51122 4.30322 5.75169 4.21699C9.39903 2.90912 13.3871 2.90912 17.0345 4.21699C17.2749 4.30322 17.4354 4.53126 17.4354 4.78685V6.37591C17.4354 6.92819 16.9879 7.3759 16.4359 7.3759H12.2614L13.3306 5.60435C13.5447 5.24972 13.4307 4.78872 13.0761 4.57469C12.7214 4.36065 12.2604 4.47462 12.0464 4.82925L10.5094 7.3759H6.35026C5.79826 7.3759 5.35078 6.92819 5.35078 6.3759V4.78685Z" fill="#251111"/>
<path fill-rule="evenodd" clip-rule="evenodd" d="M16.2764 22C16.2764 22.5523 16.7241 23 17.2764 23H21.0007C21.553 23 22.0007 22.5523 22.0007 22V14C22.0007 13.4477 21.553 13 21.0007 13H17.2764C17.1415 13 17.0126 13.0267 16.8952 13.0751C16.532 13.225 16.2764 13.5827 16.2764 14V15.2257L16.2761 15.2269L16.2764 22ZM20.0245 21C20.0245 20.5858 19.6887 20.25 19.2745 20.25C18.8603 20.25 18.5245 20.5858 18.5245 21V21.0318C18.5245 21.446 18.8603 21.7818 19.2745 21.7818C19.6887 21.7818 20.0245 21.446 20.0245 21.0318V21Z" fill="#251111"/>
</svg>
