<svg width="24" height="25" viewBox="0 0 24 25" fill="none" xmlns="http://www.w3.org/2000/svg">
<path fill-rule="evenodd" clip-rule="evenodd" d="M10 2.5C5.58172 2.5 2 6.08172 2 10.5C2 14.9183 5.58172 18.5 10 18.5C12.2094 18.5 14.208 17.6057 15.6569 16.1569C17.1057 14.708 18 12.7094 18 10.5C18 6.08172 14.4183 2.5 10 2.5ZM0 10.5C-2.38419e-07 4.97715 4.47715 0.5 10 0.5C15.5228 0.5 20 4.97715 20 10.5C20 12.9009 19.1529 15.1053 17.7429 16.8287L23.7071 22.7931C24.0976 23.1836 24.0976 23.8168 23.7071 24.2073C23.3166 24.5978 22.6834 24.5978 22.2929 24.2073L16.3287 18.2429C14.6053 19.6529 12.4009 20.5 10 20.5C4.47715 20.5 2.38419e-07 16.0228 0 10.5Z" fill="#9DA5AE"/>
</svg>
