<svg width="24" height="24" viewBox="0 0 24 24" fill="none" xmlns="http://www.w3.org/2000/svg">
<path d="M20.5357 1.58383L20.663 1.71113C21.4441 2.49218 21.4441 3.75851 20.663 4.53956L19.4432 5.75936L16.4875 2.80363L17.7073 1.58383C18.4884 0.802784 19.7547 0.802785 20.5357 1.58383Z" fill="black"/>
<path fill-rule="evenodd" clip-rule="evenodd" d="M13.2418 3.09346C13.6323 2.70294 14.2655 2.70294 14.656 3.09346L19.1532 7.5907C19.5438 7.98122 19.5438 8.61439 19.1532 9.00491L17.6117 10.5464C17.2212 10.9369 16.588 10.9369 16.1975 10.5464L15.9572 10.3061L8.88827 17.375C8.64121 17.622 8.32585 17.7895 7.98279 17.8557L6.07215 18.2249C4.85569 18.4599 3.78694 17.3912 4.02196 16.1747L4.3911 14.264C4.45737 13.921 4.62482 13.6056 4.87189 13.3586L11.9408 6.28968L11.7003 6.04919C11.3097 5.65866 11.3097 5.0255 11.7003 4.63497L13.2418 3.09346ZM7.96286 12.3889H11.753L14.8965 9.2454L13.0014 7.35034L7.96286 12.3889Z" fill="black"/>
<path d="M3.41913 20.8799L4.48264 19.1782C4.53413 19.0959 4.65411 19.0959 4.7056 19.1782L5.76913 20.8799C6.34594 21.8028 5.68245 22.9999 4.59413 22.9999C3.7403 22.9999 3.14795 22.263 3.21087 21.4999C3.22815 21.2903 3.29485 21.0787 3.41913 20.8799Z" fill="black"/>
</svg>
