<svg width="24" height="24" viewBox="0 0 24 24" fill="none" xmlns="http://www.w3.org/2000/svg">
<path fill-rule="evenodd" clip-rule="evenodd" d="M14.75 3C14.75 1.48122 13.5188 0.25 12 0.25C10.4812 0.25 9.25 1.48122 9.25 3H7C6.44772 3 6 3.44772 6 4V6.25L8 6.25C8.41421 6.25 8.75 6.58579 8.75 7C8.75 7.41421 8.41421 7.75 8 7.75H6V10.25H8C8.41421 10.25 8.75 10.5858 8.75 11C8.75 11.4142 8.41421 11.75 8 11.75H6V14.25H8C8.41421 14.25 8.75 14.5858 8.75 15C8.75 15.4142 8.41421 15.75 8 15.75H6V18C6 18.5523 6.44772 19 7 19H7.25V21C7.25 21.4142 7.58579 21.75 8 21.75C8.41421 21.75 8.75 21.4142 8.75 21V19H11.25V20.25H11C10.5858 20.25 10.25 20.5858 10.25 21C10.25 21.4142 10.5858 21.75 11 21.75H11.25V23C11.25 23.4142 11.5858 23.75 12 23.75C12.4142 23.75 12.75 23.4142 12.75 23V21.75H13C13.4142 21.75 13.75 21.4142 13.75 21C13.75 20.5858 13.4142 20.25 13 20.25H12.75V19H15.25V21C15.25 21.4142 15.5858 21.75 16 21.75C16.4142 21.75 16.75 21.4142 16.75 21V19H17C17.5523 19 18 18.5523 18 18L18 4C18 3.44772 17.5523 3 17 3L14.75 3ZM13.25 3C13.25 2.30964 12.6904 1.75 12 1.75C11.3096 1.75 10.75 2.30964 10.75 3L13.25 3ZM11.8167 8.3665L10.3416 11.3167C9.72523 12.5495 10.6217 14 12 14C13.3783 14 14.2747 12.5495 13.6583 11.3167L12.1832 8.36649C12.1077 8.21549 11.8922 8.21549 11.8167 8.3665Z" fill="black"/>
</svg>
