<svg width="24" height="24" viewBox="0 0 24 24" fill="none" xmlns="http://www.w3.org/2000/svg">
<path fill-rule="evenodd" clip-rule="evenodd" d="M9.5 1.25C7.42893 1.25 5.75 2.92893 5.75 5V6.5H2C1.44772 6.5 1 6.94772 1 7.5V21C1 21.5523 1.44772 22 2 22H22C22.5523 22 23 21.5523 23 21V7.5C23 6.94772 22.5523 6.5 22 6.5H18.25V5C18.25 2.92893 16.5711 1.25 14.5 1.25H9.5ZM16.75 6.5V5C16.75 3.75736 15.7426 2.75 14.5 2.75H9.5C8.25736 2.75 7.25 3.75736 7.25 5V6.5H16.75ZM13.3331 11C13.3331 10.4477 12.8854 10 12.3331 10H11.6665C11.1142 10 10.6665 10.4477 10.6665 11V12.5668C10.6665 12.622 10.6217 12.6668 10.5665 12.6668L9 12.6668C8.44772 12.6668 8 13.1145 8 13.6668V14.3334C8 14.8857 8.44772 15.3334 9 15.3334H10.5665C10.6217 15.3334 10.6665 15.3782 10.6665 15.4334V17C10.6665 17.5523 11.1142 18 11.6665 18H12.3331C12.8854 18 13.3331 17.5523 13.3331 17V15.4334C13.3331 15.3782 13.3779 15.3334 13.4331 15.3334H15C15.5523 15.3334 16 14.8857 16 14.3334V13.6668C16 13.1145 15.5523 12.6668 15 12.6668H13.4331C13.3779 12.6668 13.3331 12.622 13.3331 12.5668V11Z" fill="black"/>
</svg>
