<svg width="24" height="24" viewBox="0 0 24 24" fill="none" xmlns="http://www.w3.org/2000/svg">
<g clip-path="url(#clip0_1607_10564)">
<path fill-rule="evenodd" clip-rule="evenodd" d="M16.6584 0.224343C16.3593 -0.074781 15.8743 -0.074781 15.5752 0.224343C15.276 0.523467 15.276 1.00844 15.5752 1.30757L17.2677 3.00012L14.3929 5.87491L10.946 2.42797C10.6468 2.12884 10.1619 2.12884 9.86274 2.42797C9.56362 2.72709 9.56362 3.21207 9.86274 3.51119L12.0812 5.72961L9.58669 8.22407C9.54681 8.26396 9.54681 8.32862 9.58669 8.3685L12.7737 11.5555C13.0728 11.8546 13.0728 12.3396 12.7737 12.6387C12.4746 12.9379 11.9896 12.9379 11.6905 12.6387L8.50347 9.45173C8.46358 9.41185 8.39892 9.41185 8.35904 9.45173L6.04358 11.7672C6.00369 11.8071 6.00369 11.8717 6.04358 11.9116L9.17307 15.0411C9.4722 15.3402 9.4722 15.8252 9.17307 16.1243C8.87395 16.4235 8.38897 16.4235 8.08985 16.1243L4.96035 12.9948C4.92047 12.955 4.85581 12.955 4.81592 12.9948L2.81587 14.9949C2.21762 15.5931 2.21762 16.5631 2.81587 17.1613L4.28563 18.6311L0.224343 22.6924C-0.0747811 22.9915 -0.074781 23.4765 0.224343 23.7756C0.523467 24.0748 1.00844 24.0748 1.30757 23.7756L5.36876 19.7144L6.83882 21.1843C7.43707 21.7826 8.40702 21.7826 9.00527 21.1843L18.2706 11.919L20.4887 14.1372C20.7879 14.4363 21.2728 14.4363 21.572 14.1372C21.8711 13.8381 21.8711 13.3531 21.572 13.054L18.1535 9.63547L21.0283 6.76067L22.6924 8.42485C22.9916 8.72397 23.4765 8.72397 23.7757 8.42485C24.0748 8.12572 24.0748 7.64075 23.7757 7.34162L16.6584 0.224343ZM15.4761 6.95814L18.3509 4.08334L19.945 5.67745L17.0702 8.55224L15.4761 6.95814Z" fill="black"/>
</g>
<defs>
<clipPath id="clip0_1607_10564">
<rect width="24" height="24" fill="white"/>
</clipPath>
</defs>
</svg>
