<svg width="24" height="24" viewBox="0 0 24 24" fill="none" xmlns="http://www.w3.org/2000/svg">
<path d="M10.9121 1C10.111 1 9.46154 1.64943 9.46154 2.45055C9.46154 3.25167 10.111 3.9011 10.9121 3.9011H11.3956C11.8464 3.9011 12.2252 3.5926 12.3323 3.1752C12.3424 3.17561 12.3525 3.17582 12.3626 3.17582H13.5714V8.25276C13.5714 11.3229 11.0832 13.8119 8.01333 13.8132L8.01099 13.8132L8.00751 13.8132C4.93816 13.8113 2.45055 11.3225 2.45055 8.25275V3.17582H3.65934C3.66949 3.17582 3.6796 3.17562 3.68965 3.1752C3.79678 3.59261 4.17555 3.9011 4.62637 3.9011H5.10989C5.91101 3.9011 6.56044 3.25167 6.56044 2.45055C6.56044 1.64943 5.91101 1 5.10989 1H4.62637C4.17555 1 3.79678 1.30849 3.68965 1.7259C3.6796 1.72548 3.66949 1.72527 3.65934 1.72527H1.72527C1.32472 1.72527 1 2.04999 1 2.45055V8.25275C1 11.8799 3.75443 14.8638 7.28572 15.2267L7.28572 15.9891C7.28573 19.8612 10.4247 23 14.2967 23H14.7802C18.3852 23 21.3077 20.0776 21.3077 16.4725C21.3077 16.4358 21.305 16.3996 21.2997 16.3644C22.2847 16.0588 23 15.1404 23 14.0549C23 12.7198 21.9176 11.6374 20.5824 11.6374C19.2472 11.6374 18.1648 12.7198 18.1648 14.0549C18.1648 15.1404 18.8802 16.0588 19.8652 16.3644C19.8599 16.3996 19.8571 16.4358 19.8571 16.4725C19.8571 19.2764 17.5841 21.5495 14.7802 21.5495H14.2967C11.2258 21.5495 8.73627 19.06 8.73627 15.9891L8.73627 15.2267C12.2675 14.8638 15.022 11.8799 15.022 8.25276V2.45055C15.022 2.25819 14.9456 2.07372 14.8095 1.9377C14.6735 1.80169 14.4891 1.72527 14.2967 1.72527H12.3626C12.3525 1.72527 12.3424 1.72549 12.3323 1.7259C12.2252 1.30849 11.8464 1 11.3956 1H10.9121Z" fill="black"/>
</svg>
