<svg width="24" height="24" viewBox="0 0 24 24" fill="none" xmlns="http://www.w3.org/2000/svg">
<path fill-rule="evenodd" clip-rule="evenodd" d="M16.2879 2.15161C17.8234 0.616129 20.3129 0.61613 21.8484 2.15161C23.3839 3.68709 23.3839 6.1766 21.8484 7.71209L14.518 15.0425C14.4624 15.0981 14.4019 15.1486 14.3373 15.1933L7.19714 20.1365L3.86352 16.8029L8.80668 9.66274C8.85143 9.5981 8.90192 9.53761 8.95751 9.48201L16.2879 2.15161ZM18.647 4.35298C18.2565 3.96246 17.6234 3.96246 17.2328 4.35298L12.4142 9.1716C12.0237 9.56212 12.0237 10.1953 12.4142 10.5858L13.3639 11.5355C13.7544 11.926 14.3876 11.926 14.7781 11.5355L19.5967 6.71684C19.9872 6.32632 19.9872 5.69315 19.5967 5.30263L18.647 4.35298Z" fill="black"/>
<path d="M2.99571 18.0564L5.94363 21.0043L3.46431 22.7207C2.8403 23.1528 1.99664 23.0767 1.45998 22.54C0.923322 22.0034 0.84725 21.1597 1.27925 20.5357L2.99571 18.0564Z" fill="black"/>
</svg>
