<svg width="24" height="24" viewBox="0 0 24 24" fill="none" xmlns="http://www.w3.org/2000/svg">
<path d="M0.25 1C0.25 0.585786 0.585786 0.25 1 0.25H8.5C9.19036 0.25 9.75 0.809644 9.75 1.5V5.52069C9.91179 5.50699 10.0755 5.5 10.2408 5.5C11.9848 5.5 13.6342 6.29275 14.7236 7.65456L14.938 7.92253C14.9652 7.95644 14.9705 8.00153 14.9546 8.03978L14.969 8.03491C14.9658 8.04437 14.9612 8.05347 14.9551 8.06186C14.4604 8.74208 13.8866 9.34083 13.2534 9.85163C10.9032 11.9497 7.56622 12.615 4.56042 11.522C4.52415 11.5088 4.5 11.4743 4.5 11.4357V11.2408C4.5 8.77018 6.06071 6.66406 8.25 5.85458V1.75H1C0.585786 1.75 0.25 1.41421 0.25 1Z" fill="black"/>
<path fill-rule="evenodd" clip-rule="evenodd" d="M4.5 13.6146V13.0624C8.85228 14.2361 13.5008 12.6117 16.1682 8.94412C16.395 8.63215 16.5467 8.40145 16.6765 8.09174C20.2597 8.65627 23 11.7581 23 15.5C23 19.6421 19.6421 23 15.5 23C13.635 23 11.929 22.3193 10.6168 21.1927C10.5963 21.175 10.5695 21.1663 10.5425 21.1687L1.10868 21.9907C1.05025 21.9957 1 21.9497 1 21.891V14.0921C1 14.0401 1.03983 13.9968 1.09164 13.9924L4.40836 13.7142C4.46017 13.7099 4.5 13.6666 4.5 13.6146ZM16.624 12.4161C16.8538 12.0714 16.7607 11.6058 16.416 11.376C16.0714 11.1463 15.6057 11.2394 15.376 11.584C14.6025 12.7443 14.6025 14.2558 15.376 15.4161C15.6057 15.7607 16.0714 15.8539 16.416 15.6241C16.7607 15.3943 16.8538 14.9287 16.624 14.584C16.1864 13.9276 16.1864 13.0725 16.624 12.4161Z" fill="black"/>
</svg>
