<svg width="24" height="24" viewBox="0 0 24 24" fill="none" xmlns="http://www.w3.org/2000/svg">
<path d="M12 0.25C12.4142 0.25 12.75 0.585786 12.75 1V5C12.75 5.41421 12.4142 5.75 12 5.75C11.5858 5.75 11.25 5.41421 11.25 5V1C11.25 0.585786 11.5858 0.25 12 0.25Z" fill="black"/>
<path d="M4 18.3333C3.44772 18.3333 3 18.781 3 19.3333V21.9999C3 22.5522 3.44772 22.9999 4 22.9999H20C20.5523 22.9999 21 22.5522 21 21.9999V19.3333C21 18.781 20.5523 18.3333 20 18.3333H4Z" fill="black"/>
<path d="M5.50054 3.98432C5.20765 3.69143 4.73278 3.69143 4.43988 3.98432C4.14699 4.27721 4.14699 4.75209 4.43988 5.04498L6.92525 7.53034C7.21814 7.82323 7.69301 7.82323 7.98591 7.53034C8.2788 7.23745 8.2788 6.76257 7.98591 6.46968L5.50054 3.98432Z" fill="black"/>
<path d="M19.5601 3.98432C19.853 4.27721 19.853 4.75209 19.5601 5.04498L17.0748 7.53034C16.7819 7.82323 16.307 7.82323 16.0141 7.53034C15.7212 7.23745 15.7212 6.76257 16.0141 6.46968L18.4995 3.98432C18.7923 3.69143 19.2672 3.69143 19.5601 3.98432Z" fill="black"/>
<path fill-rule="evenodd" clip-rule="evenodd" d="M17.3267 13.6199L17.7857 16.8333H6.21431L6.67346 13.6197C7.05219 10.9689 9.3224 9 12.0001 9C14.6778 9 16.9481 10.969 17.3267 13.6199ZM8.26467 14.1862C8.18344 14.5924 8.44685 14.9875 8.85302 15.0687C9.25919 15.15 9.65431 14.8866 9.73554 14.4804C9.91165 13.5998 10.6 12.9115 11.4805 12.7354C11.8867 12.6542 12.1501 12.2591 12.0689 11.8529C11.9876 11.4467 11.5925 11.1833 11.1864 11.2645C9.712 11.5594 8.55954 12.7119 8.26467 14.1862Z" fill="black"/>
</svg>
