<svg width="24" height="24" viewBox="0 0 24 24" fill="none" xmlns="http://www.w3.org/2000/svg">
<path d="M12.6493 3.18262C12.6493 4.38804 11.6705 5.36523 10.463 5.36523C9.25556 5.36523 8.27672 4.38804 8.27672 3.18262C8.27672 1.97719 9.25556 1 10.463 1C11.6705 1 12.6493 1.97719 12.6493 3.18262Z" fill="black"/>
<path d="M17.9236 15.6534C17.9232 14.6021 17.0694 13.75 16.0163 13.75C15.9425 13.75 15.8713 13.7394 15.8039 13.7196C15.5766 14.0751 15.178 14.3109 14.7242 14.3109H11.4257C11.0834 14.3109 10.7596 14.1555 10.5458 13.8887L10.0101 13.2202L9.89077 13.6825L9.60793 14.7956C9.60494 14.8071 9.60398 14.819 9.60509 14.8308V22.0004C9.60509 22.5527 9.15662 23.0004 8.6034 23.0004H7.81891C7.2657 23.0004 6.81723 22.5527 6.81723 22.0004V18.1767C6.79838 17.9886 6.72764 17.8093 6.61288 17.6589L4.20945 14.5092C4.00988 14.2477 3.94848 13.9063 4.04446 13.5918L5.28179 9.53733C5.69456 8.18478 7.0668 7.36456 8.45597 7.64004C9.15214 7.77809 9.732 8.16523 10.1244 8.68821L12.0821 11.3048C12.2949 11.5883 12.629 11.7551 12.9839 11.7551H14.7242C15.1545 11.7551 15.5352 11.9671 15.7673 12.2922C15.8452 12.2649 15.929 12.25 16.0163 12.25C17.899 12.25 19.4254 13.7733 19.4261 15.6529L19.4281 21.2051L19.9963 22.9068C20.0116 22.9526 19.9775 22.9998 19.9291 22.9998H17.4546C17.4062 22.9998 17.3721 22.9526 17.3874 22.9068L17.9257 21.2946L17.9236 15.6534Z" fill="black"/>
</svg>
