<svg width="24" height="24" viewBox="0 0 24 24" fill="none" xmlns="http://www.w3.org/2000/svg">
<g clip-path="url(#clip0_1607_10955)">
<path fill-rule="evenodd" clip-rule="evenodd" d="M3.36246 0.229633C3.78793 -0.122486 4.4183 -0.0630178 4.77042 0.362459L10.6556 7.47374C10.8782 7.74272 11 8.08094 11 8.43009V23C11 23.5523 10.5523 24 10 24C9.44774 24 9.00002 23.5523 9.00002 23V8.61016L3.22963 1.63759C2.87751 1.21212 2.93698 0.581752 3.36246 0.229633ZM20.6376 0.229633C21.0631 0.581752 21.1225 1.21212 20.7704 1.63759L15 8.61016V23C15 23.5523 14.5523 24 14 24C13.4477 24 13 23.5523 13 23V8.43009C13 8.08094 13.1218 7.74272 13.3444 7.47374L19.2296 0.362459C19.5817 -0.0630178 20.2121 -0.122486 20.6376 0.229633ZM23.6147 3.21126C24.0503 3.55074 24.1283 4.17909 23.7888 4.61472L19.113 10.6147C18.7735 11.0503 18.1452 11.1283 17.7095 10.7888C17.2739 10.4493 17.196 9.82096 17.5354 9.38534L22.2113 3.38534C22.5507 2.94971 23.1791 2.87177 23.6147 3.21126ZM0.359841 3.23181C0.784118 2.87824 1.41468 2.93557 1.76825 3.35984L6.76825 9.35984C7.12181 9.78412 7.06449 10.4147 6.64021 10.7682C6.21593 11.1218 5.58537 11.0645 5.2318 10.6402L0.231804 4.64021C-0.12176 4.21593 -0.0644363 3.58537 0.359841 3.23181Z" fill="black"/>
</g>
<defs>
<clipPath id="clip0_1607_10955">
<rect width="24" height="24" fill="white"/>
</clipPath>
</defs>
</svg>
