<svg width="24" height="24" viewBox="0 0 24 24" fill="none" xmlns="http://www.w3.org/2000/svg">
<path d="M12.0004 6.81818C13.6003 6.81818 14.8972 5.51574 14.8972 3.90909C14.8972 2.30244 13.6003 1 12.0004 1C10.4006 1 9.10362 2.30244 9.10362 3.90909C9.10362 5.51574 10.4006 6.81818 12.0004 6.81818Z" fill="black"/>
<path d="M11.2532 9.00002L8.81063 9.00004C7.13799 9.00005 5.64353 10.0495 5.06949 11.6273L2.10114 19.7856C1.7098 20.8612 2.50275 22 3.64303 22C4.32732 22 4.93984 21.5737 5.18011 20.9303L6.82833 16.5163C6.86726 16.4121 7.02115 16.4401 7.02115 16.5515V21.875C7.02115 22.4963 7.5227 23 8.14139 23H13.2447V21.75H10.5063C9.81891 21.75 9.26163 21.1903 9.26163 20.5V17.5C9.26163 16.8096 9.81891 16.25 10.5063 16.25H11.2532V13.75H10.008C9.99441 14.1962 9.68651 14.5872 9.24081 14.617C8.67989 14.6546 8.01692 14.577 8.01692 14L8.01695 12.8751C8.017 11.8396 8.85289 11 9.88399 11C9.95273 11 10.0085 11.0559 10.0085 11.125V12.25H11.2532V9.00002Z" fill="black"/>
<path d="M12.7468 13.75H13.992C14.0056 14.1962 14.3135 14.5872 14.7592 14.617C15.3201 14.6546 15.9831 14.577 15.9831 14L15.983 12.8751C15.983 11.8396 15.1471 11 14.116 11C14.0473 11 13.9915 11.0559 13.9915 11.125V12.25H12.7468V9.00001L15.1893 9C16.862 8.99999 18.3565 10.0495 18.9305 11.6272L21.8989 19.7856C22.2902 20.8612 21.4973 22 20.357 22C19.6727 22 19.0602 21.5737 18.8199 20.9303L17.1717 16.5163C17.1327 16.4121 16.9789 16.4401 16.9789 16.5515V21.875C16.9789 22.4963 16.4773 23 15.8586 23H14.7384V21.5C14.7384 20.8096 14.1811 20.25 13.4937 20.25H10.7553V17.75H11.2532V18.5C11.2532 19.1903 11.8104 19.75 12.4979 19.75H13.9915C14.679 19.75 15.2363 19.1903 15.2363 18.5V17.5C15.2363 16.8096 14.679 16.25 13.9915 16.25H12.7468V13.75Z" fill="black"/>
<path d="M12.7468 18.25V17.75H13.7426V18.25H12.7468Z" fill="black"/>
</svg>
