<svg width="24" height="24" viewBox="0 0 24 24" fill="none" xmlns="http://www.w3.org/2000/svg">
<path d="M10.0909 1C10.5268 1 10.9286 1.1461 11.25 1.39202V7.36213C11.0758 7.37566 10.8959 7.34912 10.7226 7.27672C10.1412 7.03387 9.86951 6.36903 10.1103 5.79373C10.2702 5.41163 10.0901 4.97224 9.708 4.81232C9.3259 4.6524 8.88651 4.83251 8.72659 5.21461C8.46179 5.84729 8.46308 6.52406 8.67884 7.12163C8.53048 7.12587 8.38266 7.10098 8.24365 7.049C7.85568 6.9039 7.42355 7.10079 7.27846 7.48876C7.13336 7.87673 7.33025 8.30887 7.71822 8.45396C8.33655 8.6852 9.03994 8.68439 9.68044 8.41054C9.82375 8.50744 9.97874 8.59161 10.1445 8.66084C10.5056 8.81166 10.8821 8.87633 11.25 8.86404V14.608C10.9286 14.8539 10.5268 15 10.0909 15C9.07008 15 8.23639 14.1988 8.18439 13.1909C8.18155 13.1357 8.13689 13.0911 8.0817 13.089C7.84174 13.0797 7.6103 13.0372 7.39185 12.9659C7.40738 12.7237 7.47716 12.5074 7.47763 12.506L7.48233 12.4919L7.4873 12.4747L7.491 12.4614C7.56606 12.1831 7.85241 12.018 8.13098 12.0927C8.53108 12.1999 8.94234 11.9624 9.04954 11.5623C9.15675 11.1622 8.91931 10.751 8.51921 10.6438C7.47507 10.364 6.40277 10.9545 6.0725 11.9707C5.79717 11.5641 5.63636 11.0735 5.63636 10.5455C5.63636 10.23 5.69375 9.92794 5.79865 9.64916C5.81526 9.60501 5.80039 9.55505 5.76269 9.5267C5.29953 9.17836 5 8.62416 5 8C5 7.37584 5.29953 6.82164 5.76269 6.4733C5.80039 6.44495 5.81526 6.39499 5.79865 6.35084C5.69375 6.07206 5.63636 5.77001 5.63636 5.45455C5.63636 5.15787 5.68712 4.87306 5.78041 4.6083C6.23741 5.34919 7.14156 5.73612 8.02554 5.49926C8.42564 5.39205 8.66307 4.9808 8.55587 4.5807C8.44866 4.1806 8.03741 3.94316 7.63731 4.05037C7.3587 4.12502 7.07231 3.95988 6.9973 3.68148L6.99351 3.66792L6.98963 3.65454L6.98679 3.64569C6.98586 3.64263 6.97553 3.60836 6.96505 3.5557C6.95221 3.49125 6.94244 3.41549 6.94323 3.3443C6.94375 3.2973 6.94874 3.266 6.95309 3.24765C6.99959 3.22205 7.04236 3.19215 7.08115 3.15871C7.38593 3.01233 7.72437 2.92484 8.0817 2.91102C8.13689 2.90889 8.18155 2.86427 8.18439 2.80912C8.23639 1.80122 9.07008 1 10.0909 1Z" fill="black"/>
<path d="M13.9091 15C13.4732 15 13.0714 14.8539 12.75 14.608V10.7174C13.0248 10.6965 13.3009 10.6321 13.5685 10.5203C13.7342 10.4511 13.8892 10.3669 14.0325 10.27C14.673 10.5439 15.3764 10.5447 15.9948 10.3134C16.3827 10.1683 16.5796 9.7362 16.4345 9.34823C16.2894 8.96026 15.8573 8.76337 15.4693 8.90846C15.3303 8.96045 15.1825 8.98534 15.0341 8.9811C15.2499 8.38352 15.2512 7.70676 14.9864 7.07407C14.8265 6.69198 14.3871 6.51187 14.005 6.67179C13.6229 6.83171 13.4428 7.2711 13.6027 7.6532C13.8435 8.22849 13.5718 8.89333 12.9904 9.13619C12.9112 9.16925 12.8307 9.19274 12.75 9.20723V1.39202C13.0714 1.1461 13.4732 1 13.9091 1C14.9299 1 15.7636 1.80122 15.8156 2.80912C15.8185 2.86427 15.8631 2.90889 15.9183 2.91102C16.3121 2.92626 16.683 3.03097 17.0112 3.2054C17.0152 3.22578 17.0186 3.24805 17.0213 3.27229C17.0436 3.46859 17.0066 3.65877 16.9998 3.69206C16.9205 3.96406 16.6378 4.12408 16.3628 4.05037C15.9627 3.94317 15.5514 4.1806 15.4442 4.5807C15.337 4.9808 15.5744 5.39206 15.9745 5.49926C16.8585 5.73611 17.7626 5.34922 18.2196 4.60838C18.3129 4.87311 18.3636 5.1579 18.3636 5.45455C18.3636 5.77001 18.3062 6.07206 18.2013 6.35084C18.1847 6.39499 18.1996 6.44495 18.2373 6.4733C18.7005 6.82164 19 7.37584 19 8C19 8.62416 18.7005 9.17836 18.2373 9.5267C18.1996 9.55505 18.1847 9.60501 18.2013 9.64916C18.3063 9.92794 18.3636 10.23 18.3636 10.5455C18.3636 11.0734 18.2029 11.5638 17.9277 11.9704C17.5973 10.9544 16.5251 10.364 15.4811 10.6438C15.081 10.751 14.8436 11.1622 14.9508 11.5623C15.058 11.9624 15.4692 12.1999 15.8693 12.0927C16.1479 12.018 16.4343 12.1831 16.5093 12.4614L16.513 12.4747L16.518 12.4919L16.5227 12.506C16.5227 12.5059 16.5929 12.7228 16.6085 12.9658C16.3899 13.0372 16.1584 13.0797 15.9183 13.089C15.8631 13.0911 15.8185 13.1357 15.8156 13.1909C15.7636 14.1988 14.9299 15 13.9091 15Z" fill="black"/>
<path d="M9 20C9 19.4477 9.44772 19 10 19H14C14.5523 19 15 19.4477 15 20V20.25H16C16.4142 20.25 16.75 20.5858 16.75 21C16.75 21.4142 16.4142 21.75 16 21.75H15V22C15 22.5523 14.5523 23 14 23H10C9.44772 23 9 22.5523 9 22V21.75H8C7.58579 21.75 7.25 21.4142 7.25 21C7.25 20.5858 7.58579 20.25 8 20.25H9V20Z" fill="black"/>
<path d="M12 15.9158C11.4553 16.2846 10.7983 16.5 10.091 16.5C9.63681 16.5 9.20338 16.4112 8.8071 16.25H8C7.58579 16.25 7.25 16.5858 7.25 17C7.25 17.4142 7.58579 17.75 8 17.75H9V18C9 18.5523 9.44772 19 10 19H14C14.5523 19 15 18.5523 15 18V17.75H16C16.4142 17.75 16.75 17.4142 16.75 17C16.75 16.5858 16.4142 16.25 16 16.25H15.1929C14.7966 16.4112 14.3632 16.5 13.909 16.5C13.2017 16.5 12.5447 16.2846 12 15.9158Z" fill="black"/>
</svg>
