<svg width="24" height="24" viewBox="0 0 24 24" fill="none" xmlns="http://www.w3.org/2000/svg">
<path fill-rule="evenodd" clip-rule="evenodd" d="M12 23C18.0751 23 23 18.0751 23 12C23 5.92487 18.0751 1 12 1C5.92487 1 1 5.92487 1 12C1 18.0751 5.92487 23 12 23ZM7.99927 5.07064C9.17611 4.38972 10.5425 4 11.9999 4C13.4574 4 14.8239 4.38976 16.0008 5.07074L13.5004 9.40159C13.059 9.14618 12.5465 9 11.9999 9C11.4534 9 10.941 9.14615 10.4997 9.40149L7.99927 5.07064ZM5.57914 16.7721C4.70974 15.6024 4.20744 14.2733 4.05192 12.9225L9.01939 12.3459C9.07771 12.8524 9.26607 13.3508 9.5921 13.7895C9.91816 14.2282 10.3412 14.5523 10.8095 14.7541L8.82512 19.3444C7.57653 18.8061 6.44858 17.9419 5.57914 16.7721ZM19.9478 12.9226C19.7923 14.2733 19.29 15.6025 18.4206 16.7722C17.5512 17.942 16.4232 18.8062 15.1746 19.3445L13.1903 14.7542C13.6586 14.5523 14.0816 14.2282 14.4077 13.7895C14.7337 13.3509 14.922 12.8525 14.9804 12.3459L19.9478 12.9226Z" fill="black"/>
</svg>
