<svg width="24" height="24" viewBox="0 0 24 24" fill="none" xmlns="http://www.w3.org/2000/svg">
<path fill-rule="evenodd" clip-rule="evenodd" d="M23 12C23 18.0751 18.0751 23 12 23C5.92487 23 1 18.0751 1 12C1 5.92487 5.92487 1 12 1C18.0751 1 23 5.92487 23 12ZM12.4374 16.3021C12.4374 15.2415 13.0494 14.3238 13.9395 13.883L12.2173 12.7814L11.8946 13.9859C11.7569 14.4999 11.2285 14.805 10.7145 14.6672C10.2005 14.5295 9.89542 14.0012 10.0331 13.4871L10.7547 10.7942C10.8924 10.2802 11.4208 9.97515 11.9348 10.1129C12.0292 10.1382 12.1166 10.1767 12.1955 10.2258C12.2183 10.2355 12.2409 10.2461 12.2632 10.2575L14.2922 11.2919C14.3228 10.6499 14.304 10.0063 14.2362 9.36685L12.784 9.59752C12.2833 9.67705 11.8017 9.39769 11.6154 8.93873C11.6016 8.90517 11.5895 8.87048 11.5793 8.83476L11.5727 8.81125L11.5683 8.79429L10.8767 6.21318C10.739 5.69916 11.044 5.17081 11.558 5.03308C12.072 4.89535 12.6004 5.20039 12.7381 5.71441L13.155 7.27036L14.1186 7.01218L15.7716 6.53989C17.5774 6.02394 19.375 7.37986 19.375 9.25794V9.52206C19.375 11.446 18.6054 13.2819 17.2512 14.628C17.6156 15.088 17.8333 15.6696 17.8333 16.3021C17.8333 17.7921 16.6254 19.0001 15.1353 19.0001C13.6453 19.0001 12.4374 17.7921 12.4374 16.3021ZM8.37554 5.71946C8.73409 5.51205 8.85661 5.05325 8.6492 4.69471C8.4418 4.33616 7.983 4.21364 7.62446 4.42105C6.25144 5.21529 5.11464 6.37164 4.3442 7.76008C4.14322 8.12227 4.27391 8.57881 4.6361 8.77979C4.99829 8.98077 5.45482 8.85008 5.6558 8.48789C6.29437 7.33711 7.23733 6.37788 8.37554 5.71946Z" fill="black"/>
</svg>
