<svg width="24" height="24" viewBox="0 0 24 24" fill="none" xmlns="http://www.w3.org/2000/svg">
<path fill-rule="evenodd" clip-rule="evenodd" d="M5.14709 0.264709C5.55326 0.345943 5.81667 0.741062 5.73544 1.14723L4.90344 5.30721C6.50618 3.87294 8.62683 3.00014 10.9524 3.00014C14.0893 3.00014 16.8534 4.58817 18.4764 7.00014H23V10.0001H16.6586C15.8349 7.66976 13.6124 6.00014 11 6.00014C9.08133 6.00014 7.373 6.90073 6.27467 8.30225C6.28161 8.30498 6.28854 8.30783 6.29544 8.31079C9.5391 9.70093 9.5391 14.2994 6.29544 15.6895L6.28365 15.6944L6.27467 15.698C7.373 17.0996 9.08133 18.0001 11 18.0001C13.6124 18.0001 15.8349 16.3305 16.6586 14.0001H23V17.0001H18.4764C16.8534 19.4121 14.0893 21.0001 10.9524 21.0001C8.62683 21.0001 6.50618 20.1273 4.90344 18.6931L5.73544 22.8531C5.81667 23.2592 5.55326 23.6543 5.14709 23.7356C4.74092 23.8168 4.3458 23.5534 4.26456 23.1472L3.26557 18.1523L2.7724 15.8508C2.73224 15.7666 2.69336 15.6816 2.65578 15.5959L2.21573 15.1175C1.43392 14.2676 1 13.1549 1 12.0001C1 10.8453 1.43392 9.73269 2.21573 8.88278L2.65578 8.40441C2.66923 8.37374 2.68284 8.34317 2.69662 8.31269L3.26673 5.84224L4.26456 0.853058C4.3458 0.446888 4.74092 0.183475 5.14709 0.264709ZM5.5124 9.57027C5.183 10.3131 5 11.1352 5 12.0001C5 12.865 5.183 13.6872 5.5124 14.43C5.56863 14.382 5.63299 14.3415 5.70456 14.3108C7.73606 13.4401 7.73606 10.5601 5.70456 9.6895C5.63299 9.65883 5.56863 9.61834 5.5124 9.57027Z" fill="black"/>
</svg>
