<svg width="24" height="24" viewBox="0 0 24 24" fill="none" xmlns="http://www.w3.org/2000/svg">
<path fill-rule="evenodd" clip-rule="evenodd" d="M6.99994 15.9469V21.9997C6.99994 22.552 7.44765 22.9997 7.99994 22.9997H11.6032V18.7606C11.6032 18.2923 11.2511 17.9083 10.8909 17.609C10.516 17.2976 10.2773 16.8279 10.2773 16.3025C10.2773 15.3648 11.0374 14.6047 11.975 14.6047C12.0318 14.6047 12.0879 14.6075 12.1432 14.6129C12.8543 14.6829 13.9252 14.6829 14.6364 14.6129C14.6917 14.6075 14.7478 14.6047 14.8045 14.6047C15.7422 14.6047 16.5023 15.3648 16.5023 16.3025C16.5023 16.8274 16.2641 17.2966 15.8899 17.608C15.5305 17.9072 15.1793 18.2909 15.1793 18.7585V22.9997H18.9999C19.5522 22.9997 19.9999 22.552 19.9999 21.9997V8.33065C19.9999 7.95677 19.7914 7.61411 19.4593 7.44238L7.95172 1.4919C7.43703 1.22576 6.80459 1.45138 6.57457 1.9832L5.25738 5.0286L5.44989 5.14851L9.12067 7.26784C9.52621 7.50197 10.0349 7.38906 10.4741 7.22672C10.9313 7.05777 11.4574 7.08589 11.9125 7.34862C12.7245 7.81744 13.0027 8.85577 12.5339 9.66779C12.5055 9.71693 12.475 9.76411 12.4427 9.8093C12.0265 10.3902 11.4911 11.3176 11.1961 11.9685C11.1731 12.0191 11.1475 12.0691 11.1191 12.1182C10.6503 12.9302 9.61197 13.2085 8.79995 12.7396C8.34538 12.4772 8.05809 12.0363 7.97549 11.5565C7.89615 11.0957 7.73942 10.5997 7.33448 10.3659L3.8252 8.33986L2.35821 11.7316C2.15468 12.2022 2.34001 12.7504 2.78731 13.001L6.48866 15.0744C6.8044 15.2513 6.99994 15.585 6.99994 15.9469ZM14.9998 9.99974L13.4999 12.4997H16.9999L16.6331 11.0323C16.5502 10.7006 16.3035 10.4343 15.9791 10.3262L14.9998 9.99974Z" fill="black"/>
</svg>
