<svg width="24" height="24" viewBox="0 0 24 24" fill="none" xmlns="http://www.w3.org/2000/svg">
<g clip-path="url(#clip0_1607_10996)">
<path d="M3.30788 0.999738C3.30788 0.61749 3.61775 0.307617 4 0.307617H10C10.3822 0.307617 10.6921 0.61749 10.6921 0.999738C10.6921 1.38199 10.3822 1.69186 10 1.69186H9V6.49974H5V1.69186H4C3.61775 1.69186 3.30788 1.38199 3.30788 0.999738Z" fill="black"/>
<path d="M13.3079 0.999738C13.3079 0.61749 13.6178 0.307617 14 0.307617H20C20.3822 0.307617 20.6921 0.61749 20.6921 0.999738C20.6921 1.38199 20.3822 1.69186 20 1.69186H19V6.49974H15V1.69186H14C13.6178 1.69186 13.3079 1.38199 13.3079 0.999738Z" fill="black"/>
<path d="M5 14.4997V17.9997C5 19.1043 5.89542 19.9997 6.99998 19.9997C8.10456 19.9997 9 19.1043 9 17.9997V14.4997H5Z" fill="black"/>
<path d="M15 14.4997V17.9997C15 19.1043 15.8954 19.9997 17 19.9997C18.1046 19.9997 19 19.1043 19 17.9997V14.4997H15Z" fill="black"/>
<path fill-rule="evenodd" clip-rule="evenodd" d="M1.75 7.99974H22.25V4.99974C22.25 4.58552 22.5858 4.24974 23 4.24974C23.4142 4.24974 23.75 4.58552 23.75 4.99974V22.4997C23.75 23.1901 23.1904 23.7497 22.5 23.7497H1.5C0.809644 23.7497 0.25 23.1901 0.25 22.4997V4.99974C0.25 4.58552 0.585786 4.24974 1 4.24974C1.41421 4.24974 1.75 4.58552 1.75 4.99974V7.99974ZM1.75 12.9997V22.2497H22.25V12.9997H1.75Z" fill="black"/>
</g>
<defs>
<clipPath id="clip0_1607_10996">
<rect width="24" height="24" fill="white"/>
</clipPath>
</defs>
</svg>
