<svg width="24" height="24" viewBox="0 0 24 24" fill="none" xmlns="http://www.w3.org/2000/svg">
<path fill-rule="evenodd" clip-rule="evenodd" d="M14.8021 0.251253L14.7795 0.251781C14.758 0.252449 14.7295 0.253686 14.6952 0.255964C14.6268 0.260504 14.5336 0.269272 14.4236 0.286319C14.2072 0.319832 13.9063 0.388267 13.5956 0.53263C13.2833 0.677744 12.9402 0.909625 12.6755 1.27858C12.4055 1.65502 12.25 2.1286 12.25 2.69521C12.25 3.10943 12.5857 3.44524 12.9999 3.44527C13.4142 3.4453 13.75 3.10954 13.75 2.69533C13.75 2.41481 13.8225 2.25304 13.8943 2.15298C13.9715 2.04542 14.0842 1.95962 14.2277 1.89295C14.3728 1.82553 14.5277 1.78808 14.6532 1.76864C14.714 1.75922 14.7633 1.75475 14.7946 1.75267C14.8101 1.75164 14.8208 1.75122 14.826 1.75106L14.8279 1.75101L14.8425 1.75101L14.8576 1.75023L14.8615 1.75014C14.8684 1.75001 14.882 1.74987 14.9013 1.75022C14.9401 1.75091 15.0002 1.75354 15.0743 1.76169C15.2263 1.77843 15.4162 1.81622 15.5968 1.89384C15.7747 1.97028 15.9254 2.07712 16.0345 2.22557C16.1396 2.36843 16.2408 2.59633 16.2499 2.97812C16.2522 3.07663 16.2172 3.24462 16.0835 3.50746C15.9526 3.76475 15.7572 4.05585 15.5095 4.38877C15.3647 4.58332 15.1972 4.79704 15.0206 5.02249C14.6371 5.51209 14.2103 6.05705 13.8775 6.58111L13.5783 7H5C4.44772 7 4 7.44772 4 8V8.5C4 11.0766 5.29928 13.3497 7.2784 14.6999L6.90759 15.1915C6.50453 15.6974 6.25 16.3034 6.25 16.9727C6.25 18.1723 7.04958 19.1334 8.07603 19.7549C8.43014 19.9693 8.82466 20.153 9.25 20.3021V22.25H8C7.58579 22.25 7.25 22.5858 7.25 23C7.25 23.4142 7.58579 23.75 8 23.75H16C16.4142 23.75 16.75 23.4142 16.75 23C16.75 22.5858 16.4142 22.25 16 22.25H14.75V20.3021C15.1753 20.153 15.5699 19.9693 15.924 19.7549C16.9504 19.1334 17.75 18.1723 17.75 16.9727C17.75 16.5585 17.4142 16.2227 17 16.2227C16.5858 16.2227 16.25 16.5585 16.25 16.9727C16.25 17.4451 15.9303 17.9975 15.1471 18.4717C15.0233 18.5467 14.8907 18.6176 14.75 18.684V15.6566C17.7928 14.701 20 11.8582 20 8.5V8C20 7.44772 19.5523 7 19 7H15.4024C15.6306 6.67647 15.8792 6.3598 16.1352 6.03362C16.3254 5.79135 16.5196 5.54382 16.7128 5.28435C16.976 4.9306 17.2315 4.55897 17.4205 4.18747C17.6066 3.82153 17.7603 3.39469 17.7495 2.94234C17.7339 2.28969 17.5507 1.75546 17.243 1.33701C16.9395 0.924148 16.5492 0.670486 16.1891 0.51573C15.8318 0.362161 15.4868 0.298055 15.2385 0.270706C15.1123 0.256817 15.0059 0.251847 14.9281 0.250456C14.8891 0.249759 14.857 0.249955 14.8328 0.250418L14.8021 0.251253ZM13.25 19.1446V15.963C13.0033 15.9875 12.7531 16 12.5 16H11.5C11.2469 16 10.9967 15.9875 10.75 15.963L10.75 19.1446C11.1429 19.2126 11.5621 19.25 12 19.25C12.4379 19.25 12.8571 19.2126 13.25 19.1446ZM10.75 20.6628V22.25H13.25V20.6628C12.8457 20.7201 12.4272 20.75 12 20.75C11.5728 20.75 11.1543 20.7201 10.75 20.6628ZM9.25 18.684V15.6566C9.03272 15.5884 8.8197 15.5105 8.61144 15.4235L8.092 16.1122L8.08497 16.121C7.85167 16.4117 7.75 16.6989 7.75 16.9727C7.75 17.4451 8.06971 17.9975 8.8529 18.4717C8.97668 18.5467 9.10931 18.6176 9.25 18.684Z" fill="black"/>
</svg>
