<svg width="24" height="24" viewBox="0 0 24 24" fill="none" xmlns="http://www.w3.org/2000/svg">
<path d="M17.1001 5.135C17.1001 6.31413 16.1442 7.27 14.9651 7.27C13.7859 7.27 12.8301 6.31413 12.8301 5.135C12.8301 3.95587 13.7859 3 14.9651 3C16.1442 3 17.1001 3.95587 17.1001 5.135Z" fill="black"/>
<path d="M5.27002 19.8774C5.27002 18.6983 4.31414 17.7424 3.13501 17.7424C1.95588 17.7424 1 18.6983 1 19.8774C1 21.0566 1.95588 22.0125 3.13501 22.0125C4.31414 22.0125 5.27002 21.0566 5.27002 19.8774Z" fill="black"/>
<path d="M1 22.25C0.585786 22.25 0.25 22.5858 0.25 23C0.25 23.4142 0.585786 23.75 1 23.75H23C23.4142 23.75 23.75 23.4142 23.75 23C23.75 22.5858 23.4142 22.25 23 22.25H17.4124C17.4136 22.2478 17.4149 22.2456 17.4162 22.2435L19.5312 18.5801C19.619 18.4281 19.6652 18.2557 19.6652 18.0801V14.332C19.6652 13.9351 19.8999 13.5758 20.2634 13.4163L22.1273 12.5985C22.6094 12.387 22.8449 11.838 22.666 11.3429L22.3535 10.4781C22.1606 9.9442 21.5625 9.67778 21.0366 9.89144L16.9824 11.5386C18.41 11.7693 19.5001 13.0073 19.5001 14.5C19.5001 16.1569 18.1569 17.5 16.5001 17.5H13.025C12.8796 17.5 12.7362 17.4797 12.5986 17.4407L10.0315 17.6244C9.65921 17.651 9.31012 17.7563 9 17.9232C8.19757 18.3544 7.65579 19.1996 7.64851 20.1649C7.64207 21.0197 8.05434 21.7793 8.69289 22.25H1Z" fill="black"/>
<path d="M16.3262 15.9968L16.3263 16H16.5001C17.3285 16 18.0001 15.3284 18.0001 14.5C18.0001 13.6716 17.3285 13 16.5001 13H14.0207C14.0075 13 13.9948 12.9948 13.9855 12.9854L13.0143 12.0143C12.7303 11.7303 12.7303 11.2697 13.0143 10.9857C13.2869 10.7131 13.7249 10.7006 14.0126 10.9571L14.6214 11.5H14.9982L15.0921 11.3111C15.2751 10.9686 15.5369 10.6704 15.8593 10.4437C15.1313 9.79743 14.1729 9.40503 13.1231 9.40503C11.2057 9.40503 9.59399 10.7139 9.13262 12.4868L11.2784 14.3565L12.9821 15.9828C12.9936 15.9938 13.009 16 13.025 16H16.3196L16.3262 15.9968Z" fill="black"/>
<path d="M9.9244 16.1282L10.8897 16.0592L10.2427 15.4414L9 14.3657L9 16.3028C9.29464 16.2108 9.60411 16.1512 9.9244 16.1282Z" fill="black"/>
</svg>
