<svg width="24" height="24" viewBox="0 0 24 24" fill="none" xmlns="http://www.w3.org/2000/svg">
<path d="M12 9C14.2091 9 16 7.20914 16 5C16 2.79086 14.2091 1 12 1C9.79086 1 8 2.79086 8 5C8 7.20914 9.79086 9 12 9Z" fill="black"/>
<path d="M11.25 12L8.99998 12C5.68628 12 3 14.6863 3 18V22C3 22.5523 3.44772 23 4 23H11.25V18.75H10C9.97719 18.75 9.95462 18.749 9.93233 18.747C9.84036 19.4106 9.39107 19.9838 8.74549 20.2224C7.71507 20.6033 6.60434 19.9876 6.64722 18.8899C6.68653 17.8837 6.90534 16.7693 7.5 16C7.97485 15.3857 8.40976 15.0937 8.7751 14.9867C9.4514 14.7888 9.80622 15.5967 9.84166 16.3005L9.88987 17.258C9.92581 17.2527 9.96259 17.25 10 17.25H11.25V12Z" fill="black"/>
<path d="M12.75 23V18.75H14C14.0228 18.75 14.0454 18.749 14.0677 18.747C14.1596 19.4106 14.6089 19.9838 15.2545 20.2224C16.2849 20.6033 17.3957 19.9876 17.3528 18.8899C17.3135 17.8837 17.0947 16.7693 16.5 16C16.0251 15.3857 15.5902 15.0937 15.2249 14.9867C14.5486 14.7888 14.1938 15.5967 14.1583 16.3005L14.1101 17.258C14.0742 17.2527 14.0374 17.25 14 17.25H12.75V12L15 12C18.3137 12 21 14.6863 21 18V22C21 22.5523 20.5523 23 20 23H12.75Z" fill="black"/>
</svg>
