<svg width="24" height="24" viewBox="0 0 24 24" fill="none" xmlns="http://www.w3.org/2000/svg">
<path d="M15.3649 4.70128C15.3656 4.70137 15.3612 4.70584 15.3494 4.71442C15.3582 4.70548 15.3641 4.70119 15.3649 4.70128Z" fill="black"/>
<path d="M8.65061 4.71442C8.63875 4.70583 8.63436 4.70137 8.63512 4.70128C8.63589 4.70119 8.64182 4.70548 8.65061 4.71442Z" fill="black"/>
<path d="M17.2988 8.82641C17.2992 8.82646 17.2971 8.82949 17.2913 8.83537C17.2955 8.8293 17.2984 8.82636 17.2988 8.82641Z" fill="black"/>
<path d="M6.70868 8.83537C6.70289 8.82949 6.70079 8.82646 6.70119 8.82641C6.70159 8.82636 6.70448 8.8293 6.70868 8.83537Z" fill="black"/>
<path d="M16.2791 13.8797C16.2791 13.8797 16.2792 13.8795 16.2791 13.8797L16.278 13.8815L16.2747 13.8857C16.2772 13.8815 16.2789 13.8797 16.2791 13.8797Z" fill="black"/>
<path d="M7.72528 13.8857C7.72188 13.8816 7.72064 13.8795 7.72087 13.8794L7.72169 13.8803L7.72313 13.8823L7.72528 13.8857Z" fill="black"/>
<path d="M14.3186 18.7843L14.3174 18.7855L14.3197 18.7831L14.3204 18.7824C14.3205 18.7824 14.32 18.783 14.3186 18.7843Z" fill="black"/>
<path fill-rule="evenodd" clip-rule="evenodd" d="M2 1C1.44772 1 1 1.44772 1 2V22C1 22.5523 1.44772 23 2 23H22C22.5523 23 23 22.5523 23 22V2C23 1.44772 22.5523 1 22 1H2ZM12.75 3.99981C12.75 3.5856 12.4142 3.24981 12 3.24981C11.5858 3.24981 11.25 3.5856 11.25 3.99981V5.23157C10.5 5.19413 9.84447 5.10225 9.35347 4.9795C9.03411 4.89966 8.82345 4.81625 8.7074 4.75023C8.60451 4.45881 8.32664 4.25 8 4.25C7.58579 4.25 7.25 4.58579 7.25 5C7.25 5.56694 7.69148 5.89231 7.93272 6.0349C8.22417 6.20716 8.59597 6.33629 8.98967 6.43471C9.61121 6.5901 10.3932 6.69453 11.25 6.73325V9.73802C9.94326 9.69594 8.79044 9.54585 7.93926 9.33305C7.42814 9.20527 7.06771 9.06505 6.85313 8.93822C6.79731 8.90522 6.76044 8.87903 6.73702 8.86032C6.67157 8.51285 6.36648 8.25 6 8.25C5.58579 8.25 5.25 8.58579 5.25 9C5.25 9.63598 5.74744 10.0271 6.08989 10.2295C6.48254 10.4616 7.00079 10.6446 7.57546 10.7883C8.56332 11.0352 9.84309 11.1962 11.25 11.2387V14.7324C10.2317 14.6842 9.33965 14.5402 8.67998 14.3423C8.26656 14.2183 7.98665 14.0855 7.82682 13.9721C7.78641 13.9435 7.76031 13.9212 7.74412 13.9057C7.69772 13.536 7.38226 13.25 7 13.25C6.58579 13.25 6.25 13.5858 6.25 14C6.25 14.5707 6.6323 14.9639 6.95903 15.1956C7.30523 15.4412 7.75754 15.6316 8.24896 15.779C9.06555 16.024 10.108 16.1847 11.25 16.234V19.2155C10.7992 19.1728 10.4103 19.0937 10.1159 18.9956C9.91982 18.9303 9.79605 18.8664 9.72847 18.8208C9.64814 18.4931 9.35246 18.25 9 18.25C8.58579 18.25 8.25 18.5858 8.25 19C8.25 19.4664 8.53424 19.7913 8.77152 19.9783C9.01727 20.172 9.32639 20.3136 9.64151 20.4186C10.2796 20.6313 11.1134 20.75 12 20.75C12.8866 20.75 13.7204 20.6313 14.3585 20.4186C14.6736 20.3136 14.9827 20.172 15.2285 19.9783C15.4658 19.7913 15.75 19.4664 15.75 19C15.75 18.5858 15.4142 18.25 15 18.25C14.6475 18.25 14.3519 18.4931 14.2715 18.8208C14.204 18.8664 14.0802 18.9303 13.8841 18.9956C13.5897 19.0937 13.2008 19.1728 12.75 19.2155V16.234C13.892 16.1847 14.9345 16.024 15.751 15.779C16.2425 15.6316 16.6948 15.4412 17.041 15.1956C17.3677 14.9639 17.75 14.5707 17.75 14C17.75 13.5858 17.4142 13.25 17 13.25C16.6177 13.25 16.3023 13.536 16.2559 13.9057C16.2397 13.9212 16.2136 13.9435 16.1732 13.9721C16.0134 14.0855 15.7334 14.2183 15.32 14.3423C14.6604 14.5402 13.7683 14.6842 12.75 14.7324V11.2387C14.1569 11.1962 15.4367 11.0352 16.4245 10.7883C16.9992 10.6446 17.5175 10.4616 17.9101 10.2295C18.2526 10.0271 18.75 9.63598 18.75 9C18.75 8.58579 18.4142 8.25 18 8.25C17.6335 8.25 17.3284 8.51285 17.263 8.86032C17.2396 8.87903 17.2027 8.90522 17.1469 8.93822C16.9323 9.06505 16.5719 9.20527 16.0607 9.33305C15.2096 9.54585 14.0567 9.69594 12.75 9.73802V6.73325C13.6068 6.69453 14.3888 6.5901 15.0103 6.43471C15.404 6.33629 15.7758 6.20716 16.0673 6.0349C16.3085 5.89231 16.75 5.56694 16.75 5C16.75 4.58579 16.4142 4.25 16 4.25C15.6734 4.25 15.3955 4.45881 15.2926 4.75023C15.1765 4.81625 14.9659 4.89966 14.6465 4.9795C14.1555 5.10225 13.5 5.19413 12.75 5.23157V3.99981ZM3.25 20C3.25 19.5858 3.58579 19.25 4 19.25H6C6.41421 19.25 6.75 19.5858 6.75 20C6.75 20.4143 6.41421 20.75 6 20.75H4C3.58579 20.75 3.25 20.4143 3.25 20ZM4.00004 17.25C3.58582 17.25 3.25002 17.5857 3.25 18C3.24998 18.4142 3.58575 18.75 3.99996 18.75L4.99996 18.75C5.41418 18.7501 5.74998 18.4143 5.75 18.0001C5.75002 17.5859 5.41425 17.2501 5.00004 17.25L4.00004 17.25Z" fill="black"/>
</svg>
