<svg width="24" height="24" viewBox="0 0 24 24" fill="none" xmlns="http://www.w3.org/2000/svg">
<path fill-rule="evenodd" clip-rule="evenodd" d="M9.66667 1C9.11438 1 8.66667 1.44772 8.66667 2V4.98047C8.66667 5.36656 8.43439 5.70666 8.1294 5.9434C7.44221 6.47683 7 7.31068 7 8.24779C7 9.85813 8.30584 11.1636 9.91667 11.1636C10.3671 11.1636 10.7937 11.0615 11.1746 10.8792C11.6798 10.6374 12.3202 10.6374 12.8254 10.8792C13.2063 11.0615 13.6329 11.1636 14.0833 11.1636C15.6942 11.1636 17 9.85815 17 8.24781C17 7.3107 16.5578 6.47685 15.8706 5.94342C15.5656 5.70668 15.3333 5.36658 15.3333 4.98049V2C15.3333 1.44772 14.8856 1 14.3333 1H9.66667ZM10.7372 9.21152C11.5569 8.93828 12.4431 8.93828 13.2628 9.21152C13.6558 9.3425 14.0805 9.13013 14.2115 8.73718C14.3425 8.34422 14.1301 7.91948 13.7372 7.78849C12.6096 7.41262 11.3904 7.41262 10.2628 7.78849C9.86987 7.91948 9.6575 8.34422 9.78849 8.73718C9.91947 9.13013 10.3442 9.3425 10.7372 9.21152Z" fill="black"/>
<path fill-rule="evenodd" clip-rule="evenodd" d="M9.66667 23C9.11438 23 8.66667 22.5523 8.66667 22V19.0195C8.66667 18.6335 8.43439 18.2933 8.1294 18.0566C7.44221 17.5232 7 16.6893 7 15.7522C7 14.1419 8.30584 12.8364 9.91667 12.8364C10.3671 12.8364 10.7937 12.9385 11.1746 13.1208C11.6798 13.3626 12.3202 13.3626 12.8254 13.1208C13.2063 12.9385 13.6329 12.8364 14.0833 12.8364C15.6942 12.8364 17 14.1419 17 15.7522C17 16.6893 16.5578 17.5232 15.8706 18.0566C15.5656 18.2933 15.3333 18.6334 15.3333 19.0195V22C15.3333 22.5523 14.8856 23 14.3333 23H9.66667ZM10.7372 14.7906C11.5569 15.0639 12.4431 15.0639 13.2628 14.7906C13.6558 14.6596 14.0805 14.872 14.2115 15.265C14.3425 15.6579 14.1301 16.0827 13.7372 16.2137C12.6096 16.5895 11.3904 16.5895 10.2628 16.2137C9.86987 16.0827 9.6575 15.6579 9.78849 15.265C9.91947 14.872 10.3442 14.6596 10.7372 14.7906Z" fill="black"/>
</svg>
