<svg width="24" height="24" viewBox="0 0 24 24" fill="none" xmlns="http://www.w3.org/2000/svg">
<path fill-rule="evenodd" clip-rule="evenodd" d="M4.375 3.25C4.375 1.59315 5.71815 0.25 7.375 0.25H11.125C12.7819 0.25 14.125 1.59315 14.125 3.25V4.375H16.5C17.0523 4.375 17.5 4.82272 17.5 5.375V8.68902C13.5533 9.42802 10.346 12.266 9.08132 16H2C1.44771 16 1 15.5523 1 15V5.375C1 4.82271 1.44772 4.375 2 4.375H4.375V3.25ZM5.875 4.375H12.625V3.25C12.625 2.42157 11.9534 1.75 11.125 1.75H7.375C6.54657 1.75 5.875 2.42157 5.875 3.25V4.375ZM9.49986 7C9.91407 7 10.2499 7.33579 10.2499 7.75V8.92507C10.2499 8.96649 10.2834 9.00007 10.3249 9.00007H11.5C11.9142 9.00007 12.25 9.33586 12.25 9.75007V10.2501C12.25 10.6643 11.9142 11.0001 11.5 11.0001H10.3249C10.2834 11.0001 10.2499 11.0336 10.2499 11.0751V12.25C10.2499 12.6642 9.91407 13 9.49986 13H8.99986C8.58565 13 8.24986 12.6642 8.24986 12.25V11.0751C8.24986 11.0336 8.21628 11.0001 8.17486 11.0001H7C6.58579 11.0001 6.25 10.6643 6.25 10.2501V9.75007C6.25 9.33586 6.58579 9.00007 7 9.00007L8.17486 9.00007C8.21628 9.00007 8.24986 8.96649 8.24986 8.92507V7.75C8.24986 7.33579 8.58565 7 8.99986 7H9.49986Z" fill="black"/>
<path fill-rule="evenodd" clip-rule="evenodd" d="M17.5 10.2197C18.159 10.0758 18.8434 10 19.5455 10H22C22.5523 10 23 10.4477 23 11V13.4545C23 18.7264 18.7264 23 13.4545 23H11C10.4477 23 10 22.5523 10 22V19.5455C10 18.2275 10.2671 16.9719 10.7501 15.8299C11.9419 13.0123 14.4481 10.886 17.5 10.2197ZM19.5372 13.4627C19.8301 13.7556 19.8301 14.2305 19.5372 14.5234L19.2319 14.8287L19.5372 15.134C19.8301 15.4269 19.8301 15.9017 19.5372 16.1946C19.2443 16.4875 18.7694 16.4875 18.4765 16.1946L18.1712 15.8893L17.5605 16.5001L17.8658 16.8054C18.1587 17.0983 18.1587 17.5731 17.8658 17.866C17.5729 18.1589 17.098 18.1589 16.8051 17.866L16.4998 17.5607L15.8893 18.1712L16.1949 18.4767C16.4878 18.7696 16.4878 19.2445 16.1949 19.5374C15.902 19.8303 15.4271 19.8303 15.1342 19.5374L14.8287 19.2319L14.5231 19.5374C14.2302 19.8303 13.7554 19.8303 13.4625 19.5374C13.1696 19.2445 13.1696 18.7696 13.4625 18.4767L13.768 18.1712L13.4629 17.8661C13.17 17.5732 13.17 17.0983 13.4629 16.8054C13.7558 16.5125 14.2306 16.5125 14.5235 16.8054L14.8287 17.1105L15.4392 16.5001L15.1338 16.1947C14.8409 15.9018 14.8409 15.4269 15.1338 15.134C15.4267 14.8411 15.9015 14.8411 16.1944 15.134L16.4998 15.4394L17.1105 14.8287L16.8052 14.5233C16.5123 14.2304 16.5123 13.7555 16.8052 13.4626C17.0981 13.1697 17.5729 13.1697 17.8658 13.4626L18.1712 13.768L18.4765 13.4627C18.7694 13.1698 19.2443 13.1698 19.5372 13.4627Z" fill="black"/>
</svg>
