<svg width="24" height="24" viewBox="0 0 24 24" fill="none" xmlns="http://www.w3.org/2000/svg">
<path d="M2.88358 10.0689C3.7461 10.6395 4.87008 10.2569 5.40072 9.20838C5.44799 9.11497 5.48897 9.01941 5.5238 8.92241C5.49177 8.90289 5.45837 8.885 5.42368 8.8689L4.01505 8.21523C3.74296 8.08896 3.6133 7.77502 3.717 7.49356C3.8357 7.17138 4.20811 7.02391 4.51519 7.17749L5.37313 7.60655L5.89174 7.86764C7.20753 8.53007 6.38751 10.5007 5.96776 11.5094C5.93353 11.5917 5.90193 11.6676 5.8744 11.7359C4.95806 14.0071 5.8784 16.5663 7.90835 17.9392C8.00113 19.3016 8.78224 20.461 9.88336 21.0252C10.4967 21.3396 11.0299 21.9216 11.0299 22.6461C11.0299 22.8416 11.1788 23 11.3624 23H12.6425C12.8246 23 12.9723 22.8429 12.9723 22.649C12.9723 21.9262 13.5072 21.3469 14.1205 21.0364C15.2282 20.4759 16.0123 19.3088 16.0939 17.9386C18.1232 16.5656 19.0432 14.0068 18.127 11.7359C18.0994 11.6676 18.0679 11.5917 18.0336 11.5094C17.6139 10.5007 16.7938 8.53007 18.1096 7.86764L18.6878 7.57659L19.4858 7.17749C19.7929 7.02391 20.1653 7.17138 20.284 7.49356C20.3877 7.77502 20.258 8.08896 19.9859 8.21523L18.5773 8.8689C18.5426 8.885 18.5092 8.90289 18.4772 8.92241C18.512 9.01941 18.553 9.11497 18.6003 9.20838C19.1309 10.2569 20.2549 10.6395 21.1174 10.0689C21.1174 10.0689 24.5504 8.47915 22.1471 3.73161C19.9991 -0.511702 17.2466 1.39208 16.8973 1.63364L16.8908 1.63814L16.8744 1.64909C16.0101 2.23291 15.7419 3.56064 16.2754 4.61465C16.2924 4.64835 16.3101 4.68136 16.3284 4.71368L17.9721 3.81658C18.342 3.61469 18.8019 3.82761 18.8872 4.24032C18.945 4.51991 18.8068 4.80327 18.5509 4.92983L17.2339 5.5811L17.2357 5.58194L16.8618 5.76144C14.3391 6.97234 14.7296 9.8295 15.593 11.9539C16.4673 13.923 16.0369 14.4601 15.1119 15.3892L14.5631 15.2039C14.4747 15.1699 13.2732 14.8474 12.9645 14.8085C12.6559 14.7696 12.3241 14.7473 11.9692 14.7473C11.6541 14.7473 11.3582 14.7649 11.0811 14.796C10.8039 14.8272 10.007 14.924 9.1443 15.3092L8.94346 15.4433C7.98148 14.4802 7.51729 13.9609 8.40839 11.9539C9.27177 9.8295 9.66231 6.97234 7.13961 5.76144L6.76545 5.58184L6.76703 5.5811L5.4501 4.92983C5.19419 4.80327 5.05597 4.51991 5.11378 4.24032C5.19911 3.82761 5.65893 3.61469 6.02886 3.81658L7.67262 4.71368C7.69088 4.68136 7.70855 4.64835 7.7256 4.61465C8.25904 3.56064 7.99083 2.23291 7.12656 1.64909L7.11015 1.63814L7.10364 1.63364C6.75438 1.39208 4.00188 -0.511702 1.85387 3.73161C-0.549376 8.47915 2.88358 10.0689 2.88358 10.0689Z" fill="black"/>
</svg>
