<svg width="24" height="24" viewBox="0 0 24 24" fill="none" xmlns="http://www.w3.org/2000/svg">
<g clip-path="url(#clip0_1607_7978)">
<path d="M16.6017 21H1.09046C1.04026 21 0.99951 20.9589 1 20.9087C1.04901 15.93 5.10017 11.9091 10.0905 11.9091C12.6145 11.9091 14.8982 12.9377 16.5454 14.5986L16.8252 14.8881M16.8252 14.8881L15.9558 15.1917C15.7645 15.2585 15.6364 15.4389 15.6364 15.6416V17.9357C15.6364 20.209 17.074 22.2338 19.2203 22.9833C19.2524 22.9945 19.2859 23 19.3194 22.9999C19.3521 22.9998 19.3848 22.9942 19.4161 22.9833C21.5624 22.2338 23 20.209 23 17.9357V15.6416C23 15.4389 22.8719 15.2585 22.6806 15.1917L19.6479 14.1326C19.4344 14.0581 19.202 14.0581 18.9885 14.1326L16.8252 14.8881ZM14.1814 5.09091C14.1814 7.35026 12.3498 9.18182 10.0905 9.18182C7.83112 9.18182 5.99956 7.35026 5.99956 5.09091C5.99956 2.83156 7.83112 1 10.0905 1C12.3498 1 14.1814 2.83156 14.1814 5.09091Z" stroke="black" stroke-width="1.5"/>
</g>
<defs>
<clipPath id="clip0_1607_7978">
<rect width="24" height="24" fill="white"/>
</clipPath>
</defs>
</svg>
