<svg width="24" height="24" viewBox="0 0 24 24" fill="none" xmlns="http://www.w3.org/2000/svg">
<g clip-path="url(#clip0_1607_8018)">
<path d="M4.15796 3.66406H2C1.44772 3.66406 1 4.11177 1 4.66406V20C1 20.5523 1.44771 21 2 21H15.5M12.55 3.66406H14.7368C15.2891 3.66406 15.7368 4.11177 15.7368 4.66406V12.9649M10.3183 2.38301H11.55C12.1023 2.38301 12.55 2.83072 12.55 3.38301V4.38016C12.55 4.93245 12.1023 5.38016 11.55 5.38016H5.15796C4.60568 5.38016 4.15796 4.93245 4.15796 4.38016V3.38301C4.15796 2.83072 4.60567 2.38301 5.15796 2.38301H6.40116C6.40414 2.38301 6.40656 2.38059 6.40656 2.3776C6.40656 1.61677 7.02334 0.999997 7.78417 1L8.93527 1C9.69609 1.00001 10.3129 1.61678 10.3129 2.3776C10.3129 2.38059 10.3153 2.38301 10.3183 2.38301ZM18.6197 22.9582C18.5422 22.9853 18.4578 22.9853 18.3803 22.9582C15.7571 22.0422 14 19.5674 14 16.7889V13.985C14 13.7373 14.1566 13.5167 14.3904 13.4351L18.1703 12.1151C18.3838 12.0406 18.6162 12.0406 18.8297 12.1151L22.6096 13.4351C22.8434 13.5167 23 13.7373 23 13.985V16.7889C23 19.5674 21.2429 22.0422 18.6197 22.9582Z" stroke="black" stroke-width="1.5"/>
</g>
<defs>
<clipPath id="clip0_1607_8018">
<rect width="24" height="24" fill="white"/>
</clipPath>
</defs>
</svg>
