<svg width="24" height="24" viewBox="0 0 24 24" fill="none" xmlns="http://www.w3.org/2000/svg">
<path fill-rule="evenodd" clip-rule="evenodd" d="M11.5527 1.89432L5.91936 13.1612C3.65925 17.6814 6.94624 22.9999 12 22.9999C17.0538 22.9999 20.3408 17.6814 18.0807 13.1612L12.4472 1.89431C12.2629 1.52579 11.737 1.52579 11.5527 1.89432ZM8.7488 16.1121C8.72485 15.6985 8.3702 15.3827 7.95668 15.4067C7.54316 15.4306 7.22736 15.7853 7.25131 16.1988C7.28526 16.7849 7.47369 17.6725 7.92515 18.5328C8.3806 19.4007 9.12962 20.2864 10.3036 20.7617C10.6875 20.9172 11.1248 20.7319 11.2802 20.348C11.4356 19.9641 11.2504 19.5268 10.8665 19.3714C10.1084 19.0644 9.59325 18.4835 9.25338 17.8358C8.90953 17.1806 8.77149 16.5038 8.7488 16.1121Z" fill="black"/>
</svg>
