<svg width="24" height="24" viewBox="0 0 24 24" fill="none" xmlns="http://www.w3.org/2000/svg">
<path fill-rule="evenodd" clip-rule="evenodd" d="M10 2H13.9998C16.8993 2 19.4785 3.37108 21.1245 5.50026C20.0517 5.9338 19.25 6.89602 19.25 8.11285C19.25 8.52707 19.5858 8.86285 20 8.86285C20.4142 8.86285 20.75 8.52707 20.75 8.11285C20.75 7.55519 21.2097 6.9701 21.9614 6.79941C22.6244 8.05338 22.9998 9.48285 22.9998 11V12.7154C22.9998 12.7811 22.9966 12.8463 22.9903 12.9108C22.4144 12.3787 21.701 11.9664 20.8961 11.7336C18.4961 11.0392 15.9577 12.1805 15.3781 14.5279C15.2788 14.93 15.5209 15.3493 15.9188 15.4645C16.3167 15.5796 16.7197 15.3469 16.819 14.9448C17.1585 13.5699 18.755 12.6744 20.5365 13.1898C21.2412 13.3937 21.8322 13.7843 22.2598 14.2688C22.109 14.3911 21.9389 14.4926 21.7529 14.5682L17.0892 16.4637C17.0394 16.484 17.0145 16.54 17.0329 16.5905L18.9512 21.8658C18.9749 21.931 18.9266 22 18.8572 22H14.5667C14.5263 22 14.4899 21.9757 14.4744 21.9385L12.2564 16.6154C12.1011 16.2427 11.737 16 11.3333 16H6.31046C6.10824 16 5.91078 15.9387 5.74412 15.8242L3.86311 14.5316L3.86448 14.5272C4.16538 13.5574 5.02666 13.1462 5.65901 13.3424C6.05462 13.4651 6.47483 13.2439 6.59757 12.8483C6.72031 12.4527 6.49911 12.0325 6.1035 11.9098C4.65417 11.4601 3.21357 12.3186 2.59433 13.6598L1.86733 13.1602C1.3244 12.7871 1 12.1706 1 11.5119V11C1 8.57219 1.96132 6.36889 3.52407 4.75H4C5.01547 4.75 5.66338 5.45076 5.66338 6.11284C5.66338 6.52706 5.99917 6.86284 6.41338 6.86284C6.8276 6.86284 7.16338 6.52706 7.16338 6.11284C7.16338 4.83274 6.27614 3.83442 5.11946 3.43695C6.52544 2.52778 8.20108 2 10 2ZM14.3003 10.0446C14.9719 10.8055 15.2968 11.7043 15.2989 12.5914C15.2998 12.9789 14.9446 13.2835 14.5054 13.2718C14.0663 13.2601 13.7096 12.9365 13.7087 12.5489C13.7073 11.9635 13.4941 11.3793 13.0579 10.885C12.0132 9.70125 10.0363 9.45532 8.63277 10.4046C8.28967 10.6367 7.78935 10.5731 7.51527 10.2625C7.24119 9.95195 7.29714 9.51205 7.64024 9.27998C8.87681 8.44356 10.4538 8.2249 11.867 8.58676C11.9567 7.92283 11.7545 7.25493 11.304 6.7024C11.0507 6.39173 11.1181 5.92647 11.4544 5.6632C11.7908 5.39993 12.2689 5.43835 12.5222 5.74902C13.287 6.68708 13.6211 7.92916 13.2795 9.18491C13.6564 9.41896 14.0014 9.70586 14.3003 10.0446Z" fill="black"/>
</svg>
