<svg width="24" height="24" viewBox="0 0 24 24" fill="none" xmlns="http://www.w3.org/2000/svg">
<path fill-rule="evenodd" clip-rule="evenodd" d="M23.2054 11.064C20.9586 7.78264 18.6637 5.71845 16.3896 4.5998C14.1023 3.47468 11.8769 3.327 9.83183 3.81202C5.79216 4.77009 2.54737 8.16631 0.742156 11.0807C0.566971 11.3635 0.491044 11.6823 0.500836 11.9912C0.510672 12.3016 0.606996 12.61 0.785619 12.8763C3.03235 16.2265 5.32781 18.3346 7.60407 19.4774C9.89459 20.6273 12.1247 20.7783 14.1741 20.2816C18.2193 19.3013 21.4639 15.8307 23.2657 12.8595C23.4386 12.5744 23.5116 12.254 23.4985 11.9441C23.4854 11.6347 23.3862 11.3281 23.2054 11.064ZM8.64209 15.7109C7.63038 14.7959 6.99463 13.4722 6.99463 12C6.99463 10.595 7.57365 9.32533 8.50589 8.41701C5.88063 9.16474 3.70467 10.6417 2.28578 12.0168C2.28174 12.0208 2.28199 12.0272 2.28617 12.031C4.46502 13.9882 6.60836 15.1358 8.64209 15.7109ZM15.4938 8.43563C15.7403 8.67845 15.9619 8.94671 16.1541 9.23616C16.6797 10.0279 16.986 10.9781 16.986 12C16.986 12.1881 16.9756 12.3738 16.9554 12.5565C16.8164 13.8129 16.2122 14.929 15.3192 15.7283C18.0144 14.9955 20.2487 13.4873 21.6957 12.0849C21.6997 12.081 21.6995 12.0746 21.6953 12.0708C19.5715 10.163 17.4814 9.02446 15.4938 8.43563Z" fill="black"/>
</svg>
