<svg width="24" height="24" viewBox="0 0 24 24" fill="none" xmlns="http://www.w3.org/2000/svg">
<path fill-rule="evenodd" clip-rule="evenodd" d="M6.56457 1.14151L10.9772 10.8119C11.1133 11.11 11.096 11.4535 10.9278 11.7348C10.0638 13.179 7.33751 17.7055 6.29252 19.0716C6.0843 19.2757 5.29306 19.684 3.79385 19.684C1.91984 19.684 1.68558 21.5214 2.31025 22.1339C2.93492 22.7463 4.41852 23.3588 6.29252 22.7463C6.93163 22.5374 7.68878 22.471 8.48347 22.4013C10.019 22.2667 11.6947 22.1197 12.9296 20.9089C13.8105 20.0452 14.4672 19.0462 15.0455 18.1663C15.6974 17.1744 16.2498 16.3339 16.9119 16.0093C17.2513 15.843 17.7117 15.767 18.2195 15.6832C19.5811 15.4585 21.2836 15.1775 21.9092 12.9471C22.3559 11.3546 21.0646 10.2391 19.9843 9.3059C19.4622 8.85494 18.9894 8.44654 18.7859 8.04746C18.3163 7.12658 16.269 1.7128 16.024 1.06366C16.0093 1.02472 15.9724 1 15.9308 1H6.65555C6.58276 1 6.53436 1.07529 6.56457 1.14151ZM16.123 8.93816C15.7643 8.73105 15.3056 8.85396 15.0985 9.21268C14.8914 9.5714 15.0143 10.0301 15.373 10.2372C15.6907 10.4206 15.7996 10.8268 15.6162 11.1445C15.4091 11.5032 15.532 11.9619 15.8907 12.169C16.2494 12.3762 16.7081 12.2532 16.9152 11.8945C17.5128 10.8594 17.1582 9.53579 16.123 8.93816Z" fill="black"/>
</svg>
