<svg width="24" height="24" viewBox="0 0 24 24" fill="none" xmlns="http://www.w3.org/2000/svg">
<path fill-rule="evenodd" clip-rule="evenodd" d="M17.4354 1.14151L13.0228 10.8119C12.8867 11.11 12.904 11.4535 13.0722 11.7348C13.9362 13.179 16.6625 17.7055 17.7075 19.0716C17.9157 19.2757 18.7069 19.684 20.2061 19.684C22.0802 19.684 22.3144 21.5214 21.6897 22.1339C21.0651 22.7463 19.5815 23.3588 17.7075 22.7463C17.0684 22.5374 16.3112 22.471 15.5165 22.4013C13.981 22.2667 12.3053 22.1197 11.0704 20.9089C10.1895 20.0452 9.53285 19.0462 8.95451 18.1663C8.30258 17.1744 7.75015 16.3339 7.08811 16.0093C6.74872 15.843 6.28833 15.767 5.7805 15.6832C4.41893 15.4585 2.71635 15.1775 2.09076 12.9471C1.64408 11.3546 2.93542 10.2391 4.01573 9.3059C4.5378 8.85494 5.01058 8.44654 5.2141 8.04746C5.68372 7.12658 7.73095 1.7128 7.97598 1.06366C7.99068 1.02472 8.02756 1 8.06918 1H17.3444C17.4172 1 17.4656 1.07529 17.4354 1.14151ZM7.87695 8.93816C8.23567 8.73105 8.69436 8.85396 8.90147 9.21268C9.10858 9.5714 8.98567 10.0301 8.62695 10.2372C8.30926 10.4206 8.20041 10.8268 8.38383 11.1445C8.59094 11.5032 8.46803 11.9619 8.10931 12.169C7.75059 12.3762 7.2919 12.2532 7.08479 11.8945C6.48716 10.8594 6.84182 9.53579 7.87695 8.93816Z" fill="black"/>
</svg>
