<svg width="24" height="24" viewBox="0 0 24 24" fill="none" xmlns="http://www.w3.org/2000/svg">
<path d="M19.9478 17.4988C17.8658 21.9988 16.2515 22.9988 12.7981 22.9988C9.26414 22.9988 8.76414 22.6044 4.73998 18.4988L1.28734 14.8525C0.863991 14.4054 0.908738 13.6381 1.43562 13.3195C2.4005 12.736 3.81143 12.3782 5.48019 14.5001L6.26307 15.4533C6.92917 16.2644 8.23791 15.6558 8.04689 14.6238L6.21199 4.71061C6.0472 3.8203 6.73061 2.99878 7.63604 2.99878C8.29927 2.99878 8.87775 3.4493 9.04018 4.09233L10.4988 9.8667C10.5184 9.94437 10.5883 9.99878 10.6684 9.99878H11.2255C11.3146 9.99878 11.3871 9.92712 11.3881 9.83807L11.4716 2.56367C11.4816 1.69651 12.1874 0.998779 13.0546 0.998779C13.9232 0.998779 14.6296 1.6987 14.6376 2.56729L14.7054 9.94115C14.7058 9.97845 14.7188 10.0145 14.7424 10.0434L14.7653 10.0714C14.9064 10.2443 15.1848 10.1779 15.2327 9.95993L16.5066 4.16888C16.6569 3.48554 17.2623 2.99878 17.962 2.99878C18.8968 2.99878 19.6007 3.84936 19.426 4.76762L18.0756 11.8641C18.0623 11.934 18.1159 11.9988 18.187 11.9988H18.2272C18.2879 11.9988 18.3448 11.9691 18.3796 11.9192L20.326 9.12695C20.6004 8.73336 21.0499 8.49878 21.5297 8.49878C22.5792 8.49878 23.2893 9.56856 22.8818 10.5357L19.9478 17.4988Z" fill="black"/>
</svg>
