<svg width="24" height="24" viewBox="0 0 24 24" fill="none" xmlns="http://www.w3.org/2000/svg">
<path d="M4.05208 17.4988C6.13412 21.9988 7.74838 22.9988 11.2018 22.9988C14.7358 22.9988 15.2358 22.6044 19.2599 18.4988L22.7126 14.8525C23.1359 14.4054 23.0912 13.6381 22.5643 13.3195C21.5994 12.736 20.1885 12.3782 18.5197 14.5001L17.7368 15.4533C17.0707 16.2644 15.762 15.6558 15.953 14.6238L17.7879 4.71061C17.9527 3.8203 17.2693 2.99878 16.3639 2.99878C15.7006 2.99878 15.1221 3.4493 14.9597 4.09233L13.5011 9.8667C13.4815 9.94437 13.4116 9.99878 13.3315 9.99878H12.7744C12.6853 9.99878 12.6128 9.92712 12.6118 9.83807L12.5283 2.56367C12.5183 1.69651 11.8125 0.998779 10.9453 0.998779C10.0767 0.998779 9.37027 1.6987 9.36228 2.56729L9.29445 9.94115C9.29411 9.97845 9.28107 10.0145 9.25748 10.0434L9.23464 10.0714C9.0935 10.2443 8.81513 10.1779 8.76718 9.95993L7.49334 4.16888C7.34302 3.48554 6.73756 2.99878 6.03788 2.99878C5.10314 2.99878 4.39915 3.84936 4.57389 4.76762L5.92432 11.8641C5.93762 11.934 5.88403 11.9988 5.81286 11.9988H5.77274C5.71198 11.9988 5.65507 11.9691 5.62032 11.9192L3.67385 9.12695C3.39948 8.73336 2.95 8.49878 2.47022 8.49878C1.42074 8.49878 0.710628 9.56856 1.11814 10.5357L4.05208 17.4988Z" fill="black"/>
</svg>
