<svg width="24" height="24" viewBox="0 0 24 24" fill="none" xmlns="http://www.w3.org/2000/svg">
<path d="M11.4791 0.249784C11.8932 0.238725 12.2378 0.565426 12.2489 0.979492L12.2798 2.13923C12.2909 2.55329 11.9642 2.89792 11.5501 2.90898C11.1361 2.92004 10.7914 2.59334 10.7804 2.17928L10.7494 1.01954C10.7383 0.605476 11.065 0.260844 11.4791 0.249784Z" fill="black"/>
<path d="M11.5617 3.34241C11.9758 3.33135 12.3204 3.65805 12.3315 4.07211L12.4141 7.16474C12.4251 7.5788 12.0984 7.92343 11.6843 7.93449C11.2703 7.94555 10.9256 7.61885 10.9146 7.20479L10.832 4.11216C10.8209 3.6981 11.1476 3.35347 11.5617 3.34241Z" fill="black"/>
<path d="M11.6966 8.39447C12.1107 8.38341 12.4553 8.71011 12.4664 9.12417L12.5793 13.35C12.5903 13.764 12.2636 14.1087 11.8495 14.1197C11.4355 14.1308 11.0909 13.8041 11.0798 13.39L10.9669 9.16422C10.9559 8.75016 11.2826 8.40553 11.6966 8.39447Z" fill="black"/>
<path d="M7.24057 2.88085C7.17476 2.47189 6.78989 2.19372 6.38094 2.25953C5.97198 2.32534 5.69381 2.71021 5.75962 3.11916L5.91227 4.06772C5.97808 4.47667 6.36295 4.75484 6.7719 4.68903C7.18085 4.62322 7.45902 4.23835 7.39321 3.8294L7.24057 2.88085Z" fill="black"/>
<path d="M7.68928 5.72158C7.62717 5.31205 7.24483 5.03041 6.8353 5.09252C6.42577 5.15463 6.14413 5.53697 6.20624 5.9465L6.51098 7.9559C6.57309 8.36543 6.95543 8.64707 7.36496 8.58496C7.77449 8.52285 8.05613 8.14051 7.99402 7.73098L7.68928 5.72158Z" fill="black"/>
<path d="M8.34659 9.88204C8.28147 9.47298 7.89707 9.19416 7.48801 9.25928C7.07895 9.3244 6.80013 9.70881 6.86525 10.1179L7.50272 14.1222C7.56784 14.5313 7.95224 14.8101 8.36131 14.7449C8.77037 14.6798 9.04919 14.2954 8.98407 13.8864L8.34659 9.88204Z" fill="black"/>
<path d="M22.6896 7.79545C22.8527 7.41473 22.6764 6.97382 22.2957 6.81065C21.9149 6.64748 21.474 6.82384 21.3109 7.20456L21.0966 7.70456C20.9334 8.08528 21.1098 8.52619 21.4905 8.68936C21.8712 8.85253 22.3121 8.67618 22.4753 8.29545L22.6896 7.79545Z" fill="black"/>
<path d="M21.7141 10.0714C21.8773 9.69068 21.7009 9.24977 21.3202 9.0866C20.9395 8.92343 20.4986 9.09978 20.3354 9.4805L19.9806 10.3083C19.8174 10.6891 19.9938 11.13 20.3745 11.2932C20.7552 11.4563 21.1961 11.28 21.3593 10.8993L21.7141 10.0714Z" fill="black"/>
<path d="M20.6114 12.6444C20.7745 12.2637 20.5982 11.8228 20.2175 11.6596C19.8367 11.4964 19.3958 11.6728 19.2327 12.0535L18.3107 14.2046C18.1476 14.5853 18.3239 15.0262 18.7046 15.1894C19.0854 15.3525 19.5263 15.1762 19.6894 14.7955L20.6114 12.6444Z" fill="black"/>
<path d="M7.31371 22.3835C7.39588 22.3314 7.46447 22.266 7.51847 22.1919C7.60792 22.6524 8.01339 23.0001 8.50007 23.0001L9.50007 23.0001C10.0524 23.0001 10.5001 22.5524 10.5001 22.0001C10.5001 22.5524 10.9478 23 11.5001 23H15.0003C15.5481 23 15.9931 22.5594 16.0002 22.0132C16.0073 22.5594 16.4522 23 17.0001 23H17.382C17.7608 23 18.1071 22.786 18.2765 22.4472L18.4844 22.0312C18.7565 21.487 18.4835 20.8278 17.9062 20.6354L17.3163 20.4388C16.6748 20.2249 16.0125 20.696 16.0003 21.3685V21C16.0003 20.4477 15.5526 20 15.0003 20H11.5001C10.9478 20 10.5001 20.4477 10.5001 21L10.5001 21.4089C10.5001 20.7264 9.8314 20.2444 9.18387 20.4602L8.18387 20.7936C7.89439 20.8901 7.6717 21.1102 7.56659 21.3835C7.55997 21.3717 7.55301 21.3601 7.54568 21.3485L5.55014 18.2001C5.32839 17.8502 4.86501 17.7463 4.51515 17.9681C4.16529 18.1898 4.06144 18.6532 4.28319 19.0031L6.27873 22.1515C6.50048 22.5014 6.96386 22.6052 7.31371 22.3835Z" fill="black"/>
<path d="M10.9999 16.5001L10.9999 18.2405C10.9999 18.7928 11.4476 19.2405 11.9999 19.2405C12.5521 19.2405 12.9998 18.7928 12.9999 18.2406L13 16.5001C13 15.9478 12.5522 15.5 11.9999 15.5001C11.4476 15.5001 10.9999 15.9478 10.9999 16.5001Z" fill="black"/>
<path d="M16.0775 18.3746L16.1975 17.9243C16.3382 17.3964 16.8771 17.0793 17.407 17.2119C17.9705 17.3528 18.2965 17.9426 18.1151 18.4943L17.9696 18.9371C17.8365 19.3424 17.4581 19.6163 17.0316 19.6163C16.3829 19.6163 15.9104 19.0014 16.0775 18.3746Z" fill="black"/>
<path d="M7.88384 17.465L8.31596 19.2438C8.42373 19.6874 8.82102 19.9998 9.27757 19.9998C9.9069 19.9998 10.3764 19.42 10.2455 18.8045L9.8649 17.0133C9.7472 16.4595 9.19357 16.1137 8.64426 16.251L8.61309 16.2588C8.07979 16.3921 7.75407 16.9309 7.88384 17.465Z" fill="black"/>
<path d="M13.6142 18.0624L13.8326 16.6698C13.9185 16.1223 14.4361 15.7494 14.9833 15.8381C15.5316 15.927 15.9052 16.4462 15.8118 16.9938L15.5749 18.3833C15.4935 18.8606 15.0798 19.2097 14.5956 19.2097C13.9856 19.2097 13.5197 18.665 13.6142 18.0624Z" fill="black"/>
<path d="M1.59859 13.3665C1.94845 13.1448 2.41182 13.2486 2.63357 13.5985L2.94058 14.0829C3.16232 14.4327 3.05847 14.8961 2.70861 15.1179C2.35875 15.3396 1.89538 15.2357 1.67363 14.8859L1.36662 14.4015C1.14487 14.0517 1.24873 13.5883 1.59859 13.3665Z" fill="black"/>
<path d="M2.90337 15.4251C3.25322 15.2034 3.7166 15.3072 3.93835 15.6571L4.59074 16.6864C4.81249 17.0362 4.70863 17.4996 4.35877 17.7214C4.00892 17.9431 3.54554 17.8393 3.32379 17.4894L2.6714 16.4601C2.44965 16.1103 2.55351 15.6469 2.90337 15.4251Z" fill="black"/>
<path d="M18.239 2.12851C18.31 1.72042 18.0367 1.33207 17.6286 1.2611C17.2205 1.19012 16.8322 1.46341 16.7612 1.8715L16.5572 3.04443C16.4862 3.45252 16.7595 3.84087 17.1676 3.91185C17.5757 3.98282 17.964 3.70953 18.035 3.30144L18.239 2.12851Z" fill="black"/>
<path d="M17.6869 5.30337C17.7578 4.89528 17.4845 4.50693 17.0765 4.43596C16.6684 4.36498 16.28 4.63827 16.209 5.04636L15.8471 7.12764C15.7761 7.53573 16.0494 7.92409 16.4575 7.99506C16.8656 8.06603 17.2539 7.79274 17.3249 7.38465L17.6869 5.30337Z" fill="black"/>
<path d="M16.9412 9.59108C17.0121 9.18299 16.7389 8.79464 16.3308 8.72367C15.9227 8.6527 15.5343 8.92598 15.4633 9.33407L14.7612 13.3715C14.6902 13.7796 14.9635 14.1679 15.3716 14.2389C15.7797 14.3099 16.168 14.0366 16.239 13.6285L16.9412 9.59108Z" fill="black"/>
</svg>
