<svg width="24" height="24" viewBox="0 0 24 24" fill="none" xmlns="http://www.w3.org/2000/svg">
<path fill-rule="evenodd" clip-rule="evenodd" d="M10.1684 1.1V4.39663C10.1684 4.40123 10.1647 4.40496 10.1601 4.40496C8.85133 4.40496 7.73305 5.22031 7.28545 6.37074C9.12656 5.64138 11.1182 5.76236 12.4935 6.24262L12.5198 6.25208L12.5229 6.25325C12.5326 6.25684 12.5423 6.26054 12.552 6.26434L12.5529 6.26471C12.5906 6.27957 13.1919 6.54672 13.6835 6.81532L15.4808 4.61463C14.8125 3.86571 13.6518 3.70264 13.1361 3.63019L13.1064 3.62601C13.0575 3.61911 13.022 3.57725 13.022 3.52781V1.1C13.022 1.04477 12.9772 1 12.922 1H10.2684C10.2132 1 10.1684 1.04477 10.1684 1.1ZM18.0523 3.83735L14.4007 8.30848C13.5641 9.33285 12.4449 10.0889 11.1823 10.4826L9.22378 11.0934C8.82835 11.2168 8.40782 10.9962 8.2845 10.6007C8.16118 10.2053 8.38177 9.78477 8.7772 9.66145L10.7357 9.05066C11.4432 8.83002 12.0928 8.46313 12.644 7.97732C12.3187 7.78592 12.0258 7.66922 12.0022 7.65993L11.9991 7.65876C11.4858 7.47954 10.8705 7.36625 10.2143 7.35249C10.1023 7.35014 9.98914 7.35069 9.87507 7.35431C8.94647 7.38373 7.95902 7.61638 7.07666 8.14222C6.69371 8.37045 6.33055 8.65392 6.0006 9C4.56394 10.5069 4.15342 12.2165 4.33226 13.9269L5.21124 14.212C5.8728 14.3797 6.54834 13.985 6.72554 13.3237C6.83274 12.9236 7.244 12.6862 7.64409 12.7934C8.04419 12.9006 8.28163 13.3119 8.17443 13.712C7.78133 15.179 6.27341 16.0496 4.80638 15.6565L4.78762 15.6515L4.76914 15.6455L4.68797 15.6192C4.77933 15.9152 4.88435 16.2091 5.00068 16.5C6.49764 20.2428 10.8034 23 13.5086 23C14.5149 23 15.4462 22.2934 16.2471 21.1722L15.7321 20.5579C14.9784 19.7901 14.0042 19.5453 12.8199 19.2481L12.8014 19.2435C12.671 19.2107 12.5372 19.1771 12.4012 19.1414C12.3729 19.1988 12.3414 19.2584 12.3063 19.3196C12.0636 19.7424 11.637 20.2573 10.9216 20.5717C10.5424 20.7383 10.0999 20.566 9.93325 20.1868C9.76662 19.8075 9.93895 19.365 10.3182 19.1984C10.63 19.0614 10.8313 18.8477 10.9623 18.6437C10.389 18.3712 9.84206 17.9855 9.40006 17.3947C9.15193 17.063 9.21965 16.593 9.55132 16.3448C9.88299 16.0967 10.353 16.1644 10.6011 16.4961C11.1593 17.2421 11.9968 17.495 13.1851 17.7932L13.3201 17.827C14.4143 18.1002 15.7695 18.4385 16.8281 19.5333L16.8465 19.5524L17.0613 19.8085C17.9894 17.9734 18.6521 15.5938 18.9192 13.3526C19.1436 11.4696 18.9696 10.3296 18.5885 9.594C18.3714 9.92054 18.1341 10.2771 17.8747 10.6661C16.7862 12.2989 15.3026 13.3709 14.1149 14.0307C13.518 14.3623 12.9868 14.5949 12.6021 14.7454C12.4095 14.8208 12.2529 14.8759 12.1421 14.9128C12.0868 14.9312 12.0428 14.9452 12.0115 14.9548L11.9742 14.9661L11.9629 14.9694L11.9592 14.9705L11.9578 14.9709C11.9578 14.9709 11.9567 14.9712 11.7507 14.2501L11.9567 14.9712C11.5584 15.085 11.1433 14.8544 11.0295 14.4561C10.9158 14.0581 11.1461 13.6432 11.544 13.5291L11.5474 13.5281L11.5694 13.5214C11.5904 13.515 11.6236 13.5045 11.6678 13.4897C11.7563 13.4602 11.8887 13.4138 12.0555 13.3485C12.3896 13.2178 12.8584 13.0129 13.3864 12.7195C14.4488 12.1293 15.7151 11.2013 16.6266 9.83406C16.9556 9.34057 17.249 8.89972 17.5104 8.50624C17.5062 8.50447 17.5018 8.503 17.4974 8.50183C18.8207 6.50878 19.2817 5.79403 19.4054 5.60025C19.4284 5.56413 19.4254 5.5176 19.3983 5.48442L19.3972 5.48306L18.0523 3.83735Z" fill="black"/>
</svg>
