<svg width="24" height="24" viewBox="0 0 24 24" fill="none" xmlns="http://www.w3.org/2000/svg">
<path d="M12.75 1C13.3023 1 13.75 1.44772 13.75 2V3C13.75 4.38071 12.6307 5.5 11.25 5.5H8C7.72386 5.5 7.5 5.72386 7.5 6C7.5 6.27614 7.72386 6.5 8 6.5H19.5C21.433 6.5 23 8.067 23 10C23 11.933 21.433 13.5 19.5 13.5H4.5C4.22386 13.5 4 13.7239 4 14C4 14.2761 4.22386 14.5 4.5 14.5H16.25C18.183 14.5 19.75 16.067 19.75 18C19.75 19.933 18.183 21.5 16.25 21.5H13.25V22C13.25 22.5523 12.8023 23 12.25 23H11.25C10.6977 23 10.25 22.5523 10.25 22V21C10.25 19.6193 11.3693 18.5 12.75 18.5H16.25C16.5261 18.5 16.75 18.2761 16.75 18C16.75 17.7239 16.5261 17.5 16.25 17.5H4.5C2.567 17.5 1 15.933 1 14C1 12.067 2.567 10.5 4.5 10.5H19.5C19.7761 10.5 20 10.2761 20 10C20 9.72386 19.7761 9.5 19.5 9.5H8C6.067 9.5 4.5 7.933 4.5 6C4.5 4.15106 5.93368 2.63698 7.75 2.50879V2.5H10.75V2C10.75 1.44772 11.1977 1 11.75 1H12.75Z" fill="black"/>
</svg>
