<svg width="24" height="24" viewBox="0 0 24 24" fill="none" xmlns="http://www.w3.org/2000/svg">
<path d="M22.6462 12.5165C22.6788 12.4601 22.6477 12.3903 22.5847 12.3735C22.281 12.2929 21.8243 12.177 21.2711 12.0536C20.2325 11.8219 18.871 11.5676 17.5446 11.4643C16.0717 11.3545 14.7466 12.0612 13.3876 12.5017C12.4298 12.8122 11.5694 12.8121 10.6115 12.5017C9.25241 12.0613 7.92724 11.3545 6.45418 11.4643C5.12784 11.5676 3.76637 11.8219 2.7279 12.0536C2.17485 12.1769 1.7182 12.2928 1.41455 12.3735C1.35155 12.3903 1.32046 12.4601 1.35305 12.5165C2.60456 14.6848 6.00021 19 11.9998 19C17.9993 19 21.3948 14.6849 22.6462 12.5165Z" fill="black"/>
<path d="M22.9875 10.7624C23.0278 10.8377 22.9577 10.9197 22.8751 10.8981C22.5594 10.8153 22.1217 10.7059 21.6026 10.5901C20.5281 10.3504 19.0885 10.0798 17.6616 9.96877L17.6593 9.9686C15.9587 9.8414 14.4795 10.5698 12.9183 11.0759C12.2586 11.2897 11.7405 11.2896 11.0808 11.0758C9.51945 10.5699 8.04018 9.8414 6.33948 9.9686L6.33721 9.96877C4.91032 10.0798 3.47074 10.3504 2.39636 10.5901C1.87742 10.7059 1.43972 10.8153 1.12406 10.898C1.04151 10.9197 0.971398 10.8376 1.01173 10.7624C1.8533 9.19313 4.95481 5.19998 7.31326 5.01648C8.57364 4.91841 9.51632 5.27692 10.3431 5.59137C10.9296 5.81442 11.4578 6.0153 11.9998 6.0153C12.5417 6.0153 13.0699 5.81442 13.6563 5.59136C14.483 5.27692 15.4256 4.91842 16.6859 5.01648C19.0444 5.19998 22.1459 9.19317 22.9875 10.7624Z" fill="black"/>
</svg>
