<svg width="24" height="24" viewBox="0 0 24 24" fill="none" xmlns="http://www.w3.org/2000/svg">
<path d="M5.87806 11.747C6.50125 10.8028 7.25497 9.21826 7.75566 6.68957C7.76698 6.63239 7.77824 6.57542 7.78946 6.51867C8.39749 3.4426 8.87887 1.00721 12 1.00002C15.1211 1.00721 15.6025 3.4426 16.2105 6.51867C16.2218 6.57542 16.233 6.63239 16.2443 6.68957C16.745 9.21826 17.4988 10.8028 18.1219 11.747C18.4758 12.2831 18.9751 12.7889 19.4981 13.3186C20.8252 14.6629 22.3045 16.1614 21.9454 18.7009C21.4447 22.241 17.7047 22.2832 16.2443 21.8617L15.6737 21.6163C15.6341 21.5992 15.594 21.5837 15.5536 21.5698C15.5575 21.5621 15.5614 21.5544 15.5653 21.5467L15.6709 21.3354C16.1568 20.3638 17.1499 19.75 18.2363 19.75L18.5 19.75C18.9142 19.75 19.25 19.4142 19.25 19C19.25 18.5858 18.9142 18.25 18.5 18.25L18.2363 18.25C16.5818 18.25 15.0693 19.1848 14.3293 20.6646L14.2237 20.8758C13.8025 21.718 12.9417 22.25 12 22.25C11.0584 22.25 10.1975 21.718 9.77637 20.8757L9.67082 20.6646C8.93091 19.1848 7.41842 18.25 5.76393 18.25H5.5C5.08579 18.25 4.75 18.5858 4.75 19C4.75 19.4142 5.08579 19.75 5.5 19.75H5.76393C6.85026 19.75 7.84336 20.3638 8.32918 21.3354L8.43473 21.5465C8.44921 21.5755 8.46401 21.6042 8.47913 21.6327C8.44518 21.6414 8.4114 21.6511 8.37784 21.6619L7.75566 21.8617C6.29531 22.2832 2.55534 22.241 2.05464 18.7009C1.69549 16.1614 3.17483 14.6629 4.50191 13.3186C5.02489 12.7889 5.52422 12.2831 5.87806 11.747Z" fill="black"/>
</svg>
