<svg width="24" height="24" viewBox="0 0 24 24" fill="none" xmlns="http://www.w3.org/2000/svg">
<path d="M9 2C9 1.44772 9.44772 1 10 1H14C14.5523 1 15 1.44772 15 2V2.25H16C16.4142 2.25 16.75 2.58579 16.75 3C16.75 3.41421 16.4142 3.75 16 3.75H15V4C15 4.55228 14.5523 5 14 5C14.5523 5 15 5.44772 15 6V6.25H16C16.4142 6.25 16.75 6.58579 16.75 7C16.75 7.41421 16.4142 7.75 16 7.75H15V8C15 8.55228 14.5523 9 14 9H10C9.44772 9 9 8.55228 9 8V7.75H8C7.58579 7.75 7.25 7.41421 7.25 7C7.25 6.58579 7.58579 6.25 8 6.25H9V6C9 5.44772 9.44772 5 10 5C9.44772 5 9 4.55228 9 4V3.75H8C7.58579 3.75 7.25 3.41421 7.25 3C7.25 2.58579 7.58579 2.25 8 2.25H9V2Z" fill="black"/>
<path d="M8.1115 10.9025C8.03904 11.11 8 11.3321 8 11.5616V12.8074C8 13.4661 8.53394 14 9.19258 14C9.64169 14 10.0491 14.2518 10.2522 14.6453C10.2696 14.6791 10.2856 14.7139 10.2999 14.7497L10.4262 15.0655C10.9945 16.4862 13.0055 16.4862 13.5738 15.0655L13.7001 14.7497C13.7133 14.7169 13.7277 14.6849 13.7435 14.6537C13.7549 14.6312 13.767 14.6091 13.7797 14.5875C13.9916 14.2273 14.3807 14 14.8074 14C15.4661 14 16 13.4661 16 12.8074V11.5616C16 11.3203 15.9568 11.0871 15.877 10.8705C15.6532 10.2631 15.1413 9.78533 14.4851 9.62127L12.4851 9.12127C12.1666 9.04165 11.8334 9.04165 11.5149 9.12127L9.51493 9.62127C8.85867 9.78533 8.3468 10.2631 8.123 10.8705C8.11908 10.8811 8.11525 10.8918 8.1115 10.9025Z" fill="black"/>
<path fill-rule="evenodd" clip-rule="evenodd" d="M6.5 11.5616C6.5 10.8834 6.69487 10.2421 7.03733 9.69796C5.85487 8.86697 4.25021 8.74375 2.9162 9.51394C0.877339 10.6911 0.372496 13.4113 1.85321 15.2417L3.14386 16.837C3.85176 17.7121 4.48753 18.6697 5.12255 19.6262C5.38387 20.0198 5.64509 20.4133 5.91112 20.8007C6.02165 20.9617 6.12444 21.1295 6.22726 21.2975C6.45986 21.6774 6.69267 22.0576 7.01578 22.3587C7.75741 23.0499 8.89798 23.2219 9.8373 22.6796C10.2901 22.4182 10.6346 22.022 10.8343 21.5604C11.1405 20.8529 10.8747 20.0609 10.5834 19.3472C10.4713 19.0728 10.2217 18.8788 9.92814 18.8379L9.13591 18.7277C8.39167 18.6241 8.02327 17.7674 8.46002 17.156L9.24425 16.0581C9.16569 15.9218 9.09509 15.7766 9.03349 15.6226L8.98118 15.4918C7.59292 15.384 6.5 14.2233 6.5 12.8074V11.5616ZM9 21.7817C8.58579 21.7817 8.25 21.446 8.25 21.0317V21C8.25 20.5858 8.58579 20.25 9 20.25C9.41421 20.25 9.75 20.5858 9.75 21V21.0317C9.75 21.446 9.41421 21.7817 9 21.7817Z" fill="black"/>
<path fill-rule="evenodd" clip-rule="evenodd" d="M21.0838 9.51394C19.7498 8.74375 18.1451 8.86697 16.9627 9.69797C17.3051 10.2421 17.5 10.8834 17.5 11.5616V12.8074C17.5 14.2233 16.4071 15.384 15.0188 15.4918L14.9665 15.6226C14.9049 15.7766 14.8343 15.9218 14.7558 16.0581L15.54 17.156C15.9767 17.7674 15.6083 18.6241 14.8641 18.7277L14.0719 18.8379C13.7783 18.8788 13.5287 19.0728 13.4166 19.3472C13.1253 20.0609 12.8595 20.8529 13.1657 21.5604C13.3654 22.022 13.7099 22.4182 14.1627 22.6796C15.102 23.2219 16.2426 23.0499 16.9842 22.3587C17.3073 22.0576 17.5401 21.6774 17.7727 21.2975C17.8756 21.1295 17.9784 20.9616 18.0889 20.8007C18.3549 20.4133 18.6161 20.0199 18.8775 19.6262C19.5125 18.6697 20.1482 17.7121 20.8561 16.837L22.1468 15.2417C23.6275 13.4113 23.1227 10.6911 21.0838 9.51394ZM14.25 21.0317C14.25 21.446 14.5858 21.7817 15 21.7817C15.4142 21.7817 15.75 21.446 15.75 21.0317V21C15.75 20.5858 15.4142 20.25 15 20.25C14.5858 20.25 14.25 20.5858 14.25 21V21.0317Z" fill="black"/>
</svg>
