<svg width="24" height="24" viewBox="0 0 24 24" fill="none" xmlns="http://www.w3.org/2000/svg">
<path fill-rule="evenodd" clip-rule="evenodd" d="M9 4C9 2.34315 10.3431 1 12 1C13.6569 1 15 2.34315 15 4V5.23291C15 5.38042 14.8804 5.5 14.7329 5.5C14.3507 5.5 14.0069 5.73273 13.8649 6.08764L13.8 6.25C13.6188 6.70297 13.1801 7 12.6922 7H11.3078C10.8199 7 10.3812 6.70297 10.2 6.25L10.1351 6.08764C9.99309 5.73272 9.64935 5.5 9.26709 5.5C9.11958 5.5 9 5.38042 9 5.23291V4ZM11 4.78174C10.5858 4.78174 10.25 4.44595 10.25 4.03174V4.00001C10.25 3.5858 10.5858 3.25001 11 3.25001C11.4142 3.25001 11.75 3.5858 11.75 4.00001V4.03174C11.75 4.44595 11.4142 4.78174 11 4.78174ZM12.25 4.03169C12.25 4.4459 12.5858 4.78169 13 4.78169C13.4142 4.78169 13.75 4.4459 13.75 4.03169V3.99996C13.75 3.58575 13.4142 3.24996 13 3.24996C12.5858 3.24996 12.25 3.58575 12.25 3.99996V4.03169Z" fill="black"/>
<path fill-rule="evenodd" clip-rule="evenodd" d="M12 8.25C12.4142 8.25 12.75 8.58579 12.75 9V9.73541C12.9645 9.71225 13.1509 9.68004 13.3 9.64278C13.371 9.62502 13.4252 9.60815 13.4648 9.59406C13.5983 9.38706 13.8309 9.25 14.0956 9.25C14.5098 9.25 14.8456 9.58579 14.8456 10C14.8456 10.5012 14.4574 10.7639 14.3125 10.8495C14.1175 10.9648 13.8851 11.0427 13.6638 11.098C13.3982 11.1644 13.0869 11.2132 12.75 11.2424V12.1069C13.2601 12.0735 13.7035 12.0074 14.0406 11.9231C14.2412 11.873 14.3778 11.8228 14.4607 11.7835C14.579 11.5249 14.84 11.3452 15.143 11.3452C15.5572 11.3452 15.893 11.681 15.893 12.0952C15.893 12.6325 15.4755 12.9297 15.2777 13.0467C15.0296 13.1933 14.7206 13.2993 14.4044 13.3784C13.9415 13.4941 13.372 13.574 12.75 13.6097V14.7139C13.1008 14.6791 13.4036 14.6213 13.6366 14.5514C13.7704 14.5112 13.8621 14.4727 13.9195 14.4433C14.0281 14.163 14.3004 13.9642 14.6191 13.9642C15.0333 13.9642 15.3691 14.3 15.3691 14.7142C15.3691 15.1863 15.0535 15.4855 14.8472 15.6318C14.6215 15.7919 14.3436 15.9054 14.0676 15.9881C13.5061 16.1566 12.7754 16.2499 12.0002 16.2499C11.225 16.2499 10.4943 16.1566 9.93275 15.9882C9.65677 15.9054 9.37878 15.7919 9.15306 15.6318C8.94683 15.4855 8.63109 15.1863 8.63109 14.7142C8.63109 14.3 8.96688 13.9642 9.38109 13.9642C9.69978 13.9642 9.97204 14.163 10.0807 14.4433C10.1381 14.4727 10.2298 14.5112 10.3637 14.5514C10.5966 14.6213 10.8993 14.679 11.25 14.7139V13.6097C10.6281 13.5739 10.0589 13.4941 9.59603 13.3784C9.27989 13.2993 8.97085 13.1933 8.72278 13.0467C8.52491 12.9297 8.10742 12.6325 8.10742 12.0952C8.10742 11.681 8.44321 11.3452 8.85742 11.3452C9.16044 11.3452 9.42149 11.5249 9.5398 11.7835C9.62263 11.8228 9.75927 11.873 9.95983 11.9231C10.2968 12.0074 10.7401 12.0734 11.25 12.1068V11.2423C10.9133 11.2132 10.6023 11.1643 10.3369 11.098C10.1156 11.0427 9.88324 10.9648 9.68818 10.8495C9.54333 10.7639 9.15515 10.5012 9.15515 10C9.15515 9.58579 9.49094 9.25 9.90515 9.25C10.1698 9.25 10.4024 9.38706 10.5359 9.59406C10.5755 9.60815 10.6297 9.62502 10.7007 9.64278C10.8496 9.68 11.0358 9.71218 11.25 9.73533V9C11.25 8.58579 11.5858 8.25 12 8.25ZM13.5493 9.55824L13.5467 9.5597C13.5619 9.54866 13.5658 9.5485 13.5493 9.55824ZM10.454 9.5597L10.4514 9.55824C10.4349 9.5485 10.4388 9.54866 10.454 9.5597ZM14.5479 11.7326C14.5486 11.7327 14.5438 11.7369 14.5314 11.7449C14.541 11.7365 14.5472 11.7325 14.5479 11.7326ZM9.46904 11.7449C9.45662 11.7369 9.45184 11.7327 9.45256 11.7326C9.45327 11.7325 9.45948 11.7365 9.46904 11.7449ZM13.9862 14.4033C13.9902 14.4003 13.9919 14.3987 13.9918 14.3987C13.9909 14.3994 13.9885 14.4012 13.9862 14.4033Z" fill="black"/>
<path d="M10.75 17.5C10.75 17.0858 10.4142 16.75 10 16.75C9.58579 16.75 9.25 17.0858 9.25 17.5V21C9.25 21.4142 9.58579 21.75 10 21.75C10.4142 21.75 10.75 21.4142 10.75 21V17.5Z" fill="black"/>
<path d="M14 16.75C13.5858 16.75 13.25 17.0858 13.25 17.5V21C13.25 21.4142 13.5858 21.75 14 21.75C14.4142 21.75 14.75 21.4142 14.75 21V17.5C14.75 17.0858 14.4142 16.75 14 16.75Z" fill="black"/>
<path d="M7.25 22.25C6.83579 22.25 6.5 22.5858 6.5 23C6.5 23.4142 6.83579 23.75 7.25 23.75H7.5C7.91421 23.75 8.25 23.4142 8.25 23C8.25 22.5858 7.91421 22.25 7.5 22.25H7.25Z" fill="black"/>
<path d="M9.5 22.25C9.08579 22.25 8.75 22.5858 8.75 23C8.75 23.4142 9.08579 23.75 9.5 23.75H10C10.4142 23.75 10.75 23.4142 10.75 23C10.75 22.5858 10.4142 22.25 10 22.25H9.5Z" fill="black"/>
<path d="M17.5 23C17.5 22.5858 17.1642 22.25 16.75 22.25H16.5C16.0858 22.25 15.75 22.5858 15.75 23C15.75 23.4142 16.0858 23.75 16.5 23.75H16.75C17.1642 23.75 17.5 23.4142 17.5 23Z" fill="black"/>
<path d="M15.25 23C15.25 22.5858 14.9142 22.25 14.5 22.25H14C13.5858 22.25 13.25 22.5858 13.25 23C13.25 23.4142 13.5858 23.75 14 23.75H14.5C14.9142 23.75 15.25 23.4142 15.25 23Z" fill="black"/>
<path d="M7.69636 10.2785C7.85019 9.89396 7.66313 9.45748 7.27854 9.30364C6.89396 9.14981 6.45748 9.33687 6.30364 9.72146L5.30364 12.2215C5.14981 12.606 5.33687 13.0425 5.72146 13.1964C6.10604 13.3502 6.54252 13.1631 6.69636 12.7785L7.69636 10.2785Z" fill="black"/>
<path d="M6.25 14.5C6.25 14.0858 5.91421 13.75 5.5 13.75C5.08579 13.75 4.75 14.0858 4.75 14.5V16.5C4.75 16.9142 5.08579 17.25 5.5 17.25C5.91421 17.25 6.25 16.9142 6.25 16.5V14.5Z" fill="black"/>
<path d="M8.21021 7.73872C7.80164 7.67062 7.41522 7.94664 7.34712 8.35522C7.27902 8.76379 7.55504 9.15022 7.96361 9.21831L8.45275 9.29983C8.86132 9.36793 9.24774 9.09191 9.31584 8.68334C9.38394 8.27476 9.10792 7.88834 8.69934 7.82024L8.21021 7.73872Z" fill="black"/>
<path d="M16.6529 8.35522C16.5848 7.94664 16.1984 7.67062 15.7898 7.73872L15.3007 7.82024C14.8921 7.88834 14.6161 8.27476 14.6842 8.68334C14.7523 9.09191 15.1387 9.36793 15.5473 9.29983L16.0364 9.21831C16.445 9.15022 16.721 8.76379 16.6529 8.35522Z" fill="black"/>
<path d="M16.3036 10.2785C16.1498 9.89396 16.3369 9.45748 16.7215 9.30364C17.106 9.14981 17.5425 9.33687 17.6964 9.72146L18.6964 12.2215C18.8502 12.606 18.6631 13.0425 18.2785 13.1964C17.894 13.3502 17.4575 13.1631 17.3036 12.7785L16.3036 10.2785Z" fill="black"/>
<path d="M17.75 14.5C17.75 14.0858 18.0858 13.75 18.5 13.75C18.9142 13.75 19.25 14.0858 19.25 14.5V16.5C19.25 16.9142 18.9142 17.25 18.5 17.25C18.0858 17.25 17.75 16.9142 17.75 16.5V14.5Z" fill="black"/>
</svg>
