<svg width="24" height="24" viewBox="0 0 24 24" fill="none" xmlns="http://www.w3.org/2000/svg">
<path fill-rule="evenodd" clip-rule="evenodd" d="M7 5.5C7 2.73858 9.23858 0.5 12 0.5C14.7614 0.5 17 2.73858 17 5.5V7.55485C17 7.8007 16.8007 8 16.5548 8C15.9178 8 15.3448 8.38788 15.1082 8.9794L15 9.25C14.698 10.005 13.9668 10.5 13.1537 10.5H13.0003V12.3195L17.8358 11.5136C18.3805 11.4228 18.8958 11.7908 18.9866 12.3356C19.0773 12.8803 18.7093 13.3956 18.1646 13.4864L13.0003 14.3471V15.1123C13.2498 15.0836 13.4672 15.0451 13.6428 15.0013C13.7197 14.982 13.7832 14.9631 13.834 14.9456C14.0133 14.6769 14.3191 14.5 14.6663 14.5C15.2186 14.5 15.6663 14.9477 15.6663 15.5C15.6663 16.1639 15.1523 16.51 14.9656 16.6204C14.712 16.7703 14.4115 16.8706 14.1278 16.9415C13.7984 17.0239 13.4148 17.0851 13.0003 17.1227V18.1329C13.6266 18.0895 14.1707 18.0074 14.5859 17.9036C14.8281 17.843 14.9945 17.7829 15.0973 17.7358C15.2583 17.3992 15.602 17.1666 16 17.1666C16.5523 17.1666 17 17.6143 17 18.1666C17 18.8765 16.4487 19.2665 16.1945 19.4167C15.8734 19.6065 15.4753 19.7428 15.071 19.8439C14.4893 19.9893 13.7774 20.0902 13.0003 20.137V21.4492C13.4226 21.4046 13.7871 21.3339 14.0691 21.2493C14.2264 21.2021 14.3359 21.1571 14.4064 21.1224C14.5554 20.7573 14.914 20.5 15.3327 20.5C15.885 20.5 16.3327 20.9477 16.3327 21.5C16.3327 22.1228 15.9163 22.5155 15.6493 22.7049C15.3564 22.9127 14.9974 23.0588 14.6438 23.1649C13.9239 23.3809 12.9893 23.5 11.9995 23.5C11.0098 23.5 10.0751 23.3809 9.35508 23.1649C9.00146 23.0589 8.64244 22.9127 8.34949 22.7049C8.08255 22.5156 7.66602 22.1229 7.66602 21.5C7.66602 20.9477 8.11373 20.5 8.66602 20.5C9.08467 20.5 9.44324 20.7573 9.59225 21.1223C9.66282 21.1571 9.77233 21.2021 9.92974 21.2493C10.2121 21.334 10.5772 21.4048 11.0003 21.4494V20.1371C10.223 20.0903 9.51085 19.9893 8.92904 19.8439C8.52475 19.7428 8.12664 19.6065 7.80551 19.4167C7.55133 19.2665 7 18.8765 7 18.1666C7 17.6143 7.44772 17.1666 8 17.1666C8.39802 17.1666 8.74172 17.3992 8.90268 17.7358C9.00551 17.7829 9.17194 17.843 9.41411 17.9036C9.82942 18.0074 10.3737 18.0896 11.0003 18.1329V17.1228C10.5852 17.0852 10.2013 17.024 9.87152 16.9415C9.58788 16.8706 9.28739 16.7703 9.03374 16.6204C8.84702 16.51 8.33301 16.1639 8.33301 15.5C8.33301 14.9477 8.78072 14.5 9.33301 14.5C9.6802 14.5 9.98607 14.6769 10.1654 14.9456C10.2162 14.9631 10.2797 14.982 10.3566 15.0013C10.5324 15.0452 10.7502 15.0837 11.0003 15.1125V14.3471L5.83576 13.4864C5.29099 13.3956 4.92297 12.8803 5.01376 12.3356C5.10456 11.7908 5.61978 11.4228 6.16456 11.5136L11.0003 12.3195V10.5H10.8463C10.0332 10.5 9.30198 10.005 9 9.25L8.89176 8.9794C8.65515 8.38788 8.08224 8 7.44515 8C7.1993 8 7 7.8007 7 7.55485V5.5ZM10 6.28169C9.58579 6.28169 9.25 5.9459 9.25 5.53169V5.49996C9.25 5.08575 9.58579 4.74996 10 4.74996C10.4142 4.74996 10.75 5.08575 10.75 5.49996V5.53169C10.75 5.9459 10.4142 6.28169 10 6.28169ZM13.25 5.53169C13.25 5.9459 13.5858 6.28169 14 6.28169C14.4142 6.28169 14.75 5.9459 14.75 5.53169V5.49996C14.75 5.08575 14.4142 4.74996 14 4.74996C13.5858 4.74996 13.25 5.08575 13.25 5.49996V5.53169ZM12.0092 6.75006C12.3209 6.75389 12.5978 6.95014 12.7046 7.243L12.7947 7.48997C12.8786 7.71994 12.8449 7.97637 12.7046 8.17694C12.5643 8.3775 12.3349 8.49696 12.0901 8.49696H11.903C11.6549 8.49696 11.4229 8.37432 11.2832 8.16935C11.1435 7.96438 11.1142 7.70359 11.2049 7.47272L11.3019 7.22575C11.4159 6.93561 11.6975 6.74622 12.0092 6.75006Z" fill="black"/>
<path d="M5.83563 14.0583C6.35574 14.244 6.62679 14.8162 6.44104 15.3363L3.94104 22.3363C3.75528 22.8564 3.18307 23.1275 2.66296 22.9417C2.14285 22.756 1.8718 22.1838 2.05755 21.6637L4.55755 14.6637C4.74331 14.1436 5.31552 13.8725 5.83563 14.0583Z" fill="black"/>
<path d="M18.1639 14.0583C17.6438 14.244 17.3728 14.8162 17.5585 15.3363L20.0585 22.3363C20.2443 22.8564 20.8165 23.1275 21.3366 22.9417C21.8567 22.756 22.1278 22.1838 21.942 21.6637L19.442 14.6637C19.2563 14.1436 18.684 13.8725 18.1639 14.0583Z" fill="black"/>
</svg>
