<svg width="24" height="24" viewBox="0 0 24 24" fill="none" xmlns="http://www.w3.org/2000/svg">
<path fill-rule="evenodd" clip-rule="evenodd" d="M14.5332 3.27147C14.5663 3.22176 14.5488 3.15427 14.4956 3.12701L10.3466 0.999976C10.3014 0.976794 10.2459 0.991211 10.2178 1.03349L9.51471 2.12241C9.23304 2.54489 8.98923 2.98356 8.78296 3.43399L8.5 3.99992L8.31333 4.32659L7.87235 3.93206C7.85499 3.91619 7.83672 3.90099 7.81756 3.88653C6.93765 3.22236 5.8007 3.0009 4.73584 3.28625L4.70349 3.29492C4.30339 3.40214 4.06596 3.8134 4.17318 4.2135C4.28039 4.61359 4.69165 4.85102 5.09175 4.7438L5.1241 4.73513C5.73324 4.5719 6.383 4.69422 6.89072 5.06653L7.55228 5.65842L7.36376 5.98834C6.82963 6.92307 5.8356 7.49993 4.75903 7.49993L3.1 7.49992C3.04477 7.49992 3 7.5447 3 7.59992V9.89796C3 9.95319 3.04477 9.99796 3.1 9.99796H4.68083L4.74613 10.2082L4.75098 10.2264C4.91671 10.8448 4.78809 11.5051 4.40236 12.0161C4.15282 12.3468 4.21853 12.8171 4.54913 13.0666C4.87974 13.3161 5.35005 13.2504 5.59959 12.9198C6.26376 12.0399 6.48522 10.903 6.19986 9.8381L6.19812 9.8316C6.81895 9.68219 7.40834 9.4353 7.94548 9.10377C8.00648 9.06612 8.08714 9.10104 8.1008 9.17141C8.41382 10.7829 9.14806 12.324 10.2917 13.6202C11.3164 14.7815 11.7725 16.2856 11.6305 17.7545C10.78 17.194 9.7267 17.0207 8.73583 17.2863L8.70349 17.2949C8.30339 17.4021 8.06596 17.8134 8.17318 18.2135C8.28039 18.6136 8.69165 18.851 9.09175 18.7438L9.1241 18.7351C9.73861 18.5705 10.3945 18.6964 10.9041 19.0764L11.2301 19.341C11.1125 19.6204 10.9703 19.8928 10.8034 20.1552L10.4069 20.7978C10.3749 20.8481 10.3937 20.915 10.4472 20.9412L14.6413 23C14.687 23.0224 14.7424 23.0069 14.7697 22.9639L15.1781 22.3026C15.9209 21.1352 16.3806 19.8526 16.5641 18.5445C16.5737 18.4764 16.647 18.4369 16.7094 18.4659C17.4662 18.8175 18.301 19.0135 19.1662 19.0236L20.8719 19.0435C20.9271 19.0442 20.9724 18.9999 20.973 18.9447L21 16.6468C21.0006 16.5916 20.9564 16.5463 20.9012 16.5457L20.098 16.5363L20.1485 16.3478C20.3273 15.6805 20.7457 15.1512 21.2925 14.9196C21.6739 14.7581 21.8522 14.3179 21.6906 13.9365C21.5291 13.5551 21.0889 13.3768 20.7075 13.5384C19.6497 13.9864 18.9716 14.9442 18.6995 15.9601L18.5995 16.3335C18.5894 16.3712 18.5824 16.409 18.5783 16.4466C17.7662 16.2554 17.059 15.7307 16.6439 14.9841L16.0757 13.9621C16.0732 13.9576 16.0711 13.953 16.0693 13.9481C15.6737 12.8778 15.0795 11.8672 14.2911 10.9737C12.8632 9.35544 12.5417 7.07534 13.3955 5.1538L13.4158 5.1783C14.094 6.04202 15.1315 6.54666 16.23 6.54663L16.2635 6.54663C16.6777 6.54662 17.0135 6.21083 17.0135 5.79661C17.0135 5.3824 16.6777 5.04662 16.2635 5.04663L16.23 5.04663C15.5897 5.04665 14.9852 4.75151 14.5914 4.24666C14.5862 4.23998 14.5809 4.23341 14.5755 4.22696L14.2119 3.78774L14.5332 3.27147ZM11.6708 5.33533C11.8561 4.96484 11.7059 4.51434 11.3354 4.3291C10.9649 4.14385 10.5144 4.29402 10.3292 4.66451C9.59993 6.123 9.47994 7.81144 9.99559 9.35841L10.2885 10.2371C10.4195 10.63 10.8442 10.8424 11.2372 10.7114C11.6301 10.5804 11.8425 10.1557 11.7115 9.76274L11.4186 8.88407C11.0288 7.71451 11.1195 6.43799 11.6708 5.33533ZM13.1646 14.3291C12.7941 14.5143 12.6439 14.9648 12.8292 15.3353C13.3805 16.438 13.4712 17.7145 13.0814 18.8841L12.7885 19.7627C12.6575 20.1557 12.8699 20.5804 13.2628 20.7114C13.6558 20.8424 14.0805 20.63 14.2115 20.2371L14.5044 19.3584C15.0201 17.8114 14.9001 16.123 14.1708 14.6645C13.9856 14.294 13.5351 14.1439 13.1646 14.3291Z" fill="black"/>
</svg>
