<svg width="24" height="24" viewBox="0 0 24 24" fill="none" xmlns="http://www.w3.org/2000/svg">
<path d="M8.00868 5.00579L8.43158 5.21724C10.1777 6.09029 12.1631 6.28746 14.0174 5.80874M4.00241 12.0399L6.05908 21.2924C6.27735 22.2743 7.13891 22.9796 8.14461 22.9996C9.10854 23.0187 9.97065 22.4026 10.2647 21.4844L11.8571 16.5129C11.9089 16.3512 12.1357 16.3457 12.1952 16.5048L14.1289 21.673C14.4197 22.4504 15.1625 22.9655 15.9925 22.9655C16.9248 22.9655 17.7321 22.3182 17.9348 21.4082L20.0207 12.04C20.0241 12.0243 20.0321 12.0099 20.0434 11.9985L20.1622 11.8797C20.962 11.08 21.5272 10.0896 21.8137 9.0154C22.0918 7.97274 21.6849 6.90395 21.0469 6.03367C21.0355 6.01811 21.015 6.01224 20.9971 6.01941L19.8972 6.45933C19.2394 6.72246 18.5239 6.238 18.5239 5.52951V4.68578C18.5239 4.06695 17.9682 3.59623 17.3578 3.69796L16.9038 3.77363C16.2256 3.88666 15.6378 3.29836 15.7515 2.62029L15.8087 2.2785C15.9163 1.63685 15.387 1.06327 14.7667 1.25926C14.6416 1.29879 14.5177 1.34278 14.3953 1.39116L13.8361 1.61235C12.6585 2.07809 11.3477 2.07733 10.1706 1.61023L9.62242 1.39267C8.9687 1.13324 8.27175 1 7.56843 1C4.4931 1 2.00004 3.49303 2.00001 6.56836L2 7.37694C1.99998 9.06505 2.66931 10.6843 3.86126 11.8797L3.97969 11.9985C3.99104 12.0099 3.99893 12.0242 4.00241 12.0399Z" stroke="black" stroke-width="1.5" stroke-linecap="round"/>
</svg>
