<svg width="24" height="24" viewBox="0 0 24 24" fill="none" xmlns="http://www.w3.org/2000/svg">
<path d="M5.99997 14L5.99997 8.52066C5.99997 8.19434 6.15918 7.88855 6.4265 7.70142L9.82963 5.31923C10.3984 4.92113 10.3984 4.07887 9.82963 3.68077L5.99997 1M16.5 3C17.3284 3 18 3.67157 18 4.5M15.0103 17.0001V11.7086C15.0103 11.53 15.0582 11.3543 15.149 11.1999L17.0306 8.00004L17.057 7.95592M17.057 7.95592C18.7253 7.68911 20 6.24342 20 4.5C20 2.567 18.433 1 16.5 1C14.567 1 13 2.567 13 4.5C13 6.433 14.567 8 16.5 8C16.6895 8 16.8756 7.98493 17.057 7.95592ZM7.99979 15.002L7.99994 21.9945C7.99996 22.5461 7.55335 22.9935 7.00177 22.9945L5.00206 22.9982C4.44908 22.9992 4.00026 22.5512 4.00024 21.9982L4 15.0061C3.99998 14.4546 4.44647 14.0072 4.99798 14.0061L6.99777 14.002C7.55083 14.0009 7.99978 14.4489 7.99979 15.002ZM16.9998 18.0013L16.9999 21.9963C17 22.5481 16.553 22.9957 16.0011 22.9964L14.0014 22.9988C13.4487 22.9995 13.0003 22.5516 13.0002 21.9988L13 18.0041C13 17.4523 13.4469 17.0048 13.9987 17.004L15.9985 17.0013C16.5512 17.0006 16.9998 17.4485 16.9998 18.0013Z" stroke="black" stroke-width="1.5" stroke-linecap="round"/>
</svg>
