<svg width="24" height="24" viewBox="0 0 24 24" fill="none" xmlns="http://www.w3.org/2000/svg">
<g clip-path="url(#clip0_1607_9409)">
<path d="M21.6702 5.17982L22.1991 4.6481C21.9066 4.35706 21.4338 4.35706 21.1412 4.6481L21.6702 5.17982ZM17.8408 8.98923L18.358 9.53232C18.362 9.52857 18.3659 9.52478 18.3697 9.52095L17.8408 8.98923ZM21.9096 5.41796L21.3806 5.94968L21.3806 5.94968L21.9096 5.41796ZM21.9096 10.6558L22.4385 11.1875L22.4385 11.1875L21.9096 10.6558ZM14.9688 6.13223L15.4717 6.68856C15.4806 6.68056 15.4892 6.67236 15.4977 6.66395L14.9688 6.13223ZM18.7982 2.32282L19.3271 2.85453C19.4686 2.71377 19.5482 2.52241 19.5482 2.32282C19.5482 2.12322 19.4686 1.93186 19.3271 1.7911L18.7982 2.32282ZM18.5589 2.08479L19.0878 1.55308L19.0878 1.55308L18.5589 2.08479ZM13.2936 2.08479L12.7646 1.55307L13.2936 2.08479ZM16.6768 9.06212C16.3769 9.3478 16.3653 9.82253 16.651 10.1225C16.9367 10.4224 17.4114 10.434 17.7113 10.1483L16.6768 9.06212ZM17.3094 10.2645C16.9943 9.99549 16.5209 10.0328 16.252 10.3478C15.983 10.6628 16.0204 11.1363 16.3354 11.4052L17.3094 10.2645ZM13.7468 6.22596C13.4395 6.50375 13.4156 6.97802 13.6934 7.28527C13.9712 7.59253 14.4455 7.61641 14.7527 7.33862L13.7468 6.22596ZM13.0829 7.09515L13.6685 6.62649C13.6637 6.62052 13.6588 6.61462 13.6539 6.6088L13.0829 7.09515ZM16.4046 11.37L16.9335 11.9017L16.9335 11.9017L16.4046 11.37ZM12.5753 11.37L12.0463 11.9017L12.5753 11.37ZM12.5753 7.56068L13.1042 8.09239L13.1042 8.09239L12.5753 7.56068ZM16.4046 7.56068L15.8757 8.09239L15.8757 8.09239L16.4046 7.56068ZM1.44611 15.2984L1.97505 15.8301L1.97505 15.8301L1.44611 15.2984ZM4.86722 11.8951L4.33828 11.3634L4.33828 11.3634L4.86722 11.8951ZM3.60012 17.4411L3.07118 16.9094L3.07118 16.9094L3.60012 17.4411ZM6.68359 14.3738L6.15465 13.842L6.15465 13.842L6.68359 14.3738ZM9.29594 12.8657L9.49231 13.5895L9.49285 13.5894L9.29594 12.8657ZM13.1622 11.8137L13.5287 11.1594L13.1622 11.8137ZM7.82249 10.2306L8.0035 10.9584L8.00496 10.9581L7.82249 10.2306ZM11.792 9.23497L12.5393 9.29906L11.792 9.23497ZM1.44611 17.4411L0.91717 17.9728L0.91717 17.9728L1.44611 17.4411ZM8.51041 22.5562L9.03935 23.0879L9.03935 23.0879L8.51041 22.5562ZM11.9315 19.1529L12.4605 19.6846L12.4605 19.6846L11.9315 19.1529ZM6.3564 20.4134L5.82746 19.8817L5.82746 19.8817L6.3564 20.4134ZM9.43987 17.346L8.91093 16.8143L8.91093 16.8143L9.43987 17.346ZM13.6048 16.2131L14.3321 16.3959L14.3326 16.3942L13.6048 16.2131ZM14.6141 12.1561L14.5801 11.4069L14.6141 12.1561ZM10.9559 14.7473L11.6792 14.9456L11.6797 14.9439L10.9559 14.7473ZM11.6402 12.2278L11.4433 11.5041L11.4433 11.5041L11.6402 12.2278ZM6.3564 22.5562L5.82746 23.0879L5.82746 23.0879L6.3564 22.5562ZM9.51244 21.5594L10.0414 22.0911L10.0414 22.0911L9.51244 21.5594ZM2.86516 13.884C2.57226 13.5911 2.09739 13.5911 1.8045 13.884C1.5116 14.1768 1.5116 14.6517 1.8045 14.9446L2.86516 13.884ZM3.95286 17.093C4.24575 17.3859 4.72063 17.3859 5.01352 17.093C5.30641 16.8001 5.30641 16.3252 5.01352 16.0323L3.95286 17.093ZM5.99796 15.0586C6.29086 15.3515 6.76573 15.3515 7.05862 15.0586C7.35152 14.7657 7.35152 14.2908 7.05862 13.9979L5.99796 15.0586ZM5.03033 11.9696C4.73744 11.6767 4.26256 11.6767 3.96967 11.9696C3.67678 12.2625 3.67678 12.7374 3.96967 13.0303L5.03033 11.9696ZM21.1412 4.6481L17.3118 8.45752L18.3697 9.52095L22.1991 5.71154L21.1412 4.6481ZM21.1412 5.71154L21.3806 5.94968L22.4385 4.88625L22.1991 4.6481L21.1412 5.71154ZM21.3806 5.94968C22.5399 7.10286 22.5399 8.97091 21.3806 10.1241L22.4385 11.1875C24.1873 9.44792 24.1872 6.62584 22.4385 4.88625L21.3806 5.94968ZM15.4977 6.66395L19.3271 2.85453L18.2692 1.7911L14.4398 5.60051L15.4977 6.66395ZM18.03 2.61651L18.2692 2.85453L19.3271 1.7911L19.0878 1.55308L18.03 2.61651ZM13.8225 2.61651C14.9839 1.46116 16.8685 1.46116 18.03 2.61651L19.0878 1.55308C17.3413 -0.184358 14.5112 -0.184358 12.7646 1.55307L13.8225 2.61651ZM21.3806 10.1241C20.2784 11.2205 18.4822 11.2658 17.3094 10.2645L16.3354 11.4052C18.0881 12.9017 20.7693 12.848 22.4385 11.1875L21.3806 10.1241ZM13.6539 6.6088C12.6664 5.44957 12.7223 3.7109 13.8225 2.61651L12.7646 1.55307C11.1047 3.2043 11.0203 5.83037 12.512 7.5815L13.6539 6.6088ZM15.8757 8.09239C16.6384 8.85111 16.6384 10.0796 15.8757 10.8383L16.9335 11.9017C18.2857 10.5566 18.2857 8.37409 16.9335 7.02896L15.8757 8.09239ZM1.97505 15.8301L5.39616 12.4268L4.33828 11.3634L0.917169 14.7666L1.97505 15.8301ZM4.12906 17.9728L7.21252 14.9055L6.15465 13.842L3.07118 16.9094L4.12906 17.9728ZM8.00496 10.9581L11.9745 9.96243L11.6096 8.5075L7.64003 9.50315L8.00496 10.9581ZM7.21252 14.9055C7.84404 14.2772 8.6298 13.8235 9.49231 13.5895L9.09956 12.1418C7.98635 12.4438 6.9712 13.0297 6.15465 13.842L7.21252 14.9055ZM0.91717 17.9728C1.80455 18.8556 3.24167 18.8556 4.12906 17.9728L3.07118 16.9094C2.76894 17.2101 2.27729 17.2101 1.97505 16.9094L0.91717 17.9728ZM5.39616 12.4268C6.11506 11.7117 7.01623 11.204 8.0035 10.9584L7.64148 9.50279C6.39171 9.8136 5.24989 10.4566 4.33828 11.3634L5.39616 12.4268ZM0.91717 14.7666C0.0276102 15.6516 0.02761 17.0879 0.91717 17.9728L1.97505 16.9094C1.67498 16.6109 1.67498 16.1286 1.97505 15.8301L0.91717 14.7666ZM14.3326 16.3942L15.3419 12.3372L13.8863 11.9751L12.8769 16.032L14.3326 16.3942ZM11.6797 14.9439L12.364 12.4244L10.9165 12.0312L10.2321 14.5507L11.6797 14.9439ZM9.96881 17.8778C10.7854 17.0654 11.3751 16.0548 11.6792 14.9456L10.2326 14.549C9.99783 15.4052 9.54242 16.1861 8.91093 16.8143L9.96881 17.8778ZM6.88534 22.0244C6.58528 21.7259 6.58528 21.2436 6.88534 20.9451L5.82746 19.8817C4.9379 20.7666 4.9379 22.203 5.82746 23.0879L6.88534 22.0244ZM12.4605 19.6846C13.3721 18.7778 14.0192 17.6411 14.3321 16.3959L12.8774 16.0303C12.6311 17.0105 12.1214 17.9061 11.4026 18.6212L12.4605 19.6846ZM7.98147 22.0244C7.67923 22.3251 7.18758 22.3251 6.88534 22.0244L5.82746 23.0879C6.71485 23.9706 8.15196 23.9706 9.03935 23.0879L7.98147 22.0244ZM6.82933 19.9486L8.98355 22.0911L10.0413 21.0276L7.8871 18.8851L6.82933 19.9486ZM1.8045 14.9446L3.95286 17.093L5.01352 16.0323L2.86516 13.884L1.8045 14.9446ZM4.46968 13.5303L5.99796 15.0586L7.05862 13.9979L5.53034 12.4696L4.46968 13.5303ZM5.53034 12.4696L5.03033 11.9696L3.96967 13.0303L4.46968 13.5303L5.53034 12.4696ZM17.3235 8.44615L16.6768 9.06212L17.7113 10.1483L18.358 9.53232L17.3235 8.44615ZM14.4658 5.5759L13.7468 6.22596L14.7527 7.33862L15.4717 6.68856L14.4658 5.5759ZM8.87571 17.9129L11.0299 20.0555L12.0877 18.9919L9.93349 16.8494L8.87571 17.9129ZM13.5287 11.1594C13.3773 11.0745 13.2343 10.9677 13.1042 10.8383L12.0463 11.9017C12.2741 12.1283 12.5266 12.3173 12.7956 12.468L13.5287 11.1594ZM9.49285 13.5894L11.8372 12.9515L11.4433 11.5041L9.09902 12.142L9.49285 13.5894ZM11.8372 12.9515L13.3591 12.5374L12.9652 11.09L11.4433 11.5041L11.8372 12.9515ZM9.93354 17.9128L9.96881 17.8778L8.91093 16.8143L8.87566 16.8494L9.93354 17.9128ZM6.88534 20.9451L7.88715 19.9485L6.82927 18.8851L5.82746 19.8817L6.88534 20.9451ZM7.88715 19.9485L9.93354 17.9128L8.87566 16.8494L6.82927 18.8851L7.88715 19.9485ZM9.03935 23.0879L10.0414 22.0911L8.9835 21.0276L7.98147 22.0244L9.03935 23.0879ZM10.0414 22.0911L12.0877 20.0554L11.0299 18.992L8.9835 21.0276L10.0414 22.0911ZM12.0877 20.0554L12.4605 19.6846L11.4026 18.6212L11.0299 18.992L12.0877 20.0554ZM15.8757 10.8383C15.5162 11.1959 15.0527 11.3855 14.5801 11.4069L14.6481 12.9054C15.4775 12.8677 16.2987 12.5332 16.9335 11.9017L15.8757 10.8383ZM14.5801 11.4069C14.2169 11.4234 13.8516 11.3402 13.5287 11.1594L12.7956 12.468C13.3687 12.789 14.0124 12.9342 14.6481 12.9054L14.5801 11.4069ZM13.1042 10.8383C12.68 10.4163 12.492 9.8507 12.5393 9.29906L11.0448 9.17087C10.961 10.1472 11.2951 11.1545 12.0463 11.9017L13.1042 10.8383ZM12.5393 9.29906C12.577 8.85906 12.7645 8.4303 13.1042 8.09239L12.0463 7.02896C11.4465 7.62567 11.1118 8.38951 11.0448 9.17087L12.5393 9.29906ZM13.1042 8.09239C13.2256 7.97166 13.3581 7.87066 13.4982 7.78881L12.7415 6.49368C12.4927 6.63905 12.2587 6.81767 12.0463 7.02896L13.1042 8.09239ZM13.4982 7.78881C14.2499 7.3496 15.2326 7.45266 15.8757 8.09239L16.9335 7.02896C15.7955 5.89687 14.0651 5.72031 12.7415 6.49368L13.4982 7.78881ZM12.4974 7.56381L12.5343 7.6099L13.7054 6.67258L13.6685 6.62649L12.4974 7.56381Z" fill="black"/>
</g>
<defs>
<clipPath id="clip0_1607_9409">
<rect width="24" height="24" fill="white"/>
</clipPath>
</defs>
</svg>
