<svg width="24" height="24" viewBox="0 0 24 24" fill="none" xmlns="http://www.w3.org/2000/svg">
<g clip-path="url(#clip0_1607_9422)">
<path d="M4 20H6M4 18L5 18M9.59999 6.54914C11.188 7.39249 12.812 7.39249 14.4 6.54914M2 23H22C22.5523 23 23 22.5523 23 22V2C23 1.44772 22.5523 1 22 1H2C1.44772 1 1 1.44772 1 2V22C1 22.5523 1.44772 23 2 23ZM7.19972 11.0254L8.43194 16.9134C8.56271 17.5382 9.0789 17.987 9.68144 17.9997C10.259 18.0119 10.7755 17.6198 10.9517 17.0355L11.9057 13.8718C11.9368 13.7689 12.0726 13.7655 12.1083 13.8667L13.2668 17.1555C13.4411 17.6502 13.8861 17.9781 14.3834 17.9781C14.942 17.9781 15.4257 17.5661 15.5471 16.987L16.7968 11.0254C16.7989 11.0154 16.8036 11.0063 16.8104 10.999L16.8816 10.9234C17.5977 10.1628 18 9.13128 18 8.05565V7.55152C18 5.59007 16.503 4 14.6563 4C14.2352 4 13.818 4.08445 13.4265 4.24892L13.0914 4.38968C12.3859 4.68606 11.6005 4.68557 10.8953 4.38833L10.5669 4.24988C10.1752 4.08479 9.75762 4 9.33624 4C7.4937 4 6.00003 5.58647 6.00001 7.5435L6 8.05805C5.99999 9.13231 6.40101 10.1627 7.11514 10.9234L7.1861 10.999C7.1929 11.0063 7.19762 11.0154 7.19972 11.0254Z" stroke="black" stroke-width="1.5" stroke-linecap="round"/>
</g>
<defs>
<clipPath id="clip0_1607_9422">
<rect width="24" height="24" fill="white"/>
</clipPath>
</defs>
</svg>
