<svg width="24" height="24" viewBox="0 0 24 24" fill="none" xmlns="http://www.w3.org/2000/svg">
<g clip-path="url(#clip0_1607_9400)">
<path d="M20.1191 7.44932L14.9419 9.16634C14.7942 9.2153 14.6601 9.2978 14.55 9.4073L11.1162 12.8238M20.1191 7.44932L23 4.58296L20.8393 2.43318C20.0438 1.64166 18.754 1.64166 17.9584 2.43318M20.1191 7.44932L17.9584 5.29955C17.1629 4.50803 17.1629 3.22471 17.9584 2.43318M17.9584 2.43318L16.5179 1M1.76678 22.2343C2.79008 23.254 4.45037 23.2554 5.47546 22.2375L12.8122 14.9523C12.9331 14.8322 12.9333 14.6373 12.8126 14.517L9.5432 11.2591C9.42257 11.1389 9.22685 11.1388 9.10601 11.2588L1.76999 18.5435C0.744592 19.5618 0.743154 21.2143 1.76678 22.2343Z" stroke="black" stroke-width="1.5" stroke-linecap="round" stroke-linejoin="round"/>
</g>
<defs>
<clipPath id="clip0_1607_9400">
<rect width="24" height="24" fill="white"/>
</clipPath>
</defs>
</svg>
