<svg width="24" height="24" viewBox="0 0 24 24" fill="none" xmlns="http://www.w3.org/2000/svg">
<g clip-path="url(#clip0_1607_9453)">
<path d="M3.23076 13.1424L10.8553 20.7669M19.7569 9.05439L14.9292 4.22669M14.9292 4.22669C14.8559 4.25926 14.7864 4.30041 14.7224 4.34944L1.40268 14.5412C0.909804 14.9183 0.861796 15.6432 1.30063 16.082L7.91796 22.6994C8.35721 23.1386 9.08291 23.09 9.45969 22.5962L19.6363 9.25703C19.7285 9.13622 19.7927 8.99644 19.8243 8.84781L20.3121 6.55186C20.3843 6.21193 20.2796 5.85854 20.0339 5.61281L18.3851 3.96403C18.1412 3.72008 17.791 3.61502 17.453 3.68438L15.1397 4.15916C15.0671 4.17407 14.9965 4.19676 14.9292 4.22669ZM8.98551 14.0331L9.96758 15.0152C10.3684 15.416 11.0182 15.416 11.4191 15.0152L16.1265 10.3077C16.5273 9.90692 16.5273 9.25707 16.1265 8.85626L15.1444 7.87419C14.7436 7.47338 14.0938 7.47338 13.693 7.87419L8.98551 12.5816C8.5847 12.9825 8.5847 13.6323 8.98551 14.0331ZM18.5181 4.09704L19.9039 5.48275C20.376 5.9549 21.1661 5.85762 21.5097 5.28507L22.8546 3.0435C23.0969 2.63966 23.0333 2.12273 22.7003 1.78972L22.2112 1.30063C21.8782 0.967615 21.3612 0.903979 20.9574 1.14628L18.7158 2.49122C18.1433 2.83476 18.046 3.6249 18.5181 4.09704Z" stroke="black" stroke-width="1.5" stroke-linecap="round"/>
</g>
<defs>
<clipPath id="clip0_1607_9453">
<rect width="24" height="24" fill="white"/>
</clipPath>
</defs>
</svg>
