<svg width="24" height="24" viewBox="0 0 24 24" fill="none" xmlns="http://www.w3.org/2000/svg">
<path d="M20.2307 3.377L18.1173 1.29131C17.7221 0.902896 17.0813 0.902895 16.6862 1.29131L12.2799 5.6221C11.8847 6.01052 11.8847 6.64027 12.2799 7.02868L14.2855 9.03432M15.6606 2.29933L16.8179 3.45669M13.3256 4.59428L14.483 5.75167M2.29639 22.2247L2.78877 22.7087C3.18396 23.0971 3.82469 23.0971 4.21988 22.7087L21.7036 5.5243C22.0988 5.13588 22.0988 4.50613 21.7036 4.11772L21.2112 3.63378C20.816 3.24536 20.1753 3.24536 19.7801 3.63378L2.29639 20.8182C1.9012 21.2066 1.9012 21.8363 2.29639 22.2247Z" stroke="black" stroke-width="1.5" stroke-linecap="round"/>
</svg>
