<svg width="24" height="24" viewBox="0 0 24 24" fill="none" xmlns="http://www.w3.org/2000/svg">
<path d="M7.44407 8H4.80184C2.33369 8 0.520482 10.3162 1.11294 12.7122L1.49671 14.2642C1.89407 15.8711 3.33608 17 4.99145 17H6.34519C7.85056 17 9.19698 16.0633 9.72049 14.6519L10.5381 12.4476C10.6551 12.1321 10.7208 11.8137 10.7406 11.5M7.44407 8C9.40663 8 10.8558 9.67023 10.7406 11.5M7.44407 8H16.5529M16.5529 8H19.1952C21.6633 8 23.4765 10.3162 22.8841 12.7122L22.5003 14.2642C22.1029 15.8711 20.6609 17 19.0056 17H17.6518C16.1464 17 14.8 16.0633 14.2765 14.6519L13.4589 12.4476C13.3419 12.1321 13.2762 11.8137 13.2564 11.5M16.5529 8C14.5904 8 13.1412 9.67023 13.2564 11.5M13.2564 11.5H10.7406" stroke="black" stroke-width="1.5"/>
</svg>
