<svg width="24" height="24" viewBox="0 0 24 24" fill="none" xmlns="http://www.w3.org/2000/svg">
<path d="M15.3333 6.00002V2C15.3333 1.44772 14.8856 1 14.3333 1H9.66663C9.11434 1 8.66663 1.44772 8.66663 2V6M15.3333 18V22C15.3333 22.5523 14.8856 23 14.3333 23H9.66663C9.11434 23 8.66663 22.5523 8.66663 22V18M6.00004 11.9999L8.26249 11.9999C8.30155 11.9999 8.33704 11.9772 8.35335 11.9417L9.57231 9.2886C9.60799 9.21093 9.71836 9.21093 9.75404 9.2886L12.252 14.7254C12.2865 14.8006 12.3923 14.8036 12.4311 14.7305L13.8818 11.9999L14.5448 10.7172C14.5821 10.6451 14.6852 10.6451 14.7225 10.7172L15.3575 11.9458C15.3747 11.979 15.4089 11.9999 15.4463 11.9999L17.9998 11.9999M7 18H17C17.5523 18 18 17.5523 18 17V7C18 6.44772 17.5523 6 17 6H7C6.44772 6 6 6.44772 6 7V17C6 17.5523 6.44772 18 7 18Z" stroke="black" stroke-width="1.5" stroke-linecap="round"/>
</svg>
