<svg width="24" height="24" viewBox="0 0 24 24" fill="none" xmlns="http://www.w3.org/2000/svg">
<g clip-path="url(#clip0_1607_9199)">
<path d="M14.7499 23H9.2499M14.7499 23H18.5999M14.7499 23V17M9.2499 23H5.3999M9.2499 23V17M1 9H6.4359C6.47496 9 6.51045 8.97725 6.52676 8.94175L8.24693 5.19778C8.28262 5.12011 8.39299 5.12011 8.42867 5.19778L11.929 12.8164C11.9636 12.8916 12.0694 12.8946 12.1082 12.8215L14.1384 9L15.0833 7.17187C15.1206 7.09976 15.2237 7.09976 15.261 7.17187L16.178 8.94592C16.1951 8.97914 16.2294 9 16.2668 9H23M2 17H22C22.5523 17 23 16.5523 23 16V2C23 1.44772 22.5523 1 22 1H2C1.44772 1 1 1.44772 1 2V16C1 16.5523 1.44772 17 2 17Z" stroke="black" stroke-width="1.5" stroke-linecap="round"/>
</g>
<defs>
<clipPath id="clip0_1607_9199">
<rect width="24" height="24" fill="white"/>
</clipPath>
</defs>
</svg>
