<svg width="24" height="24" viewBox="0 0 24 24" fill="none" xmlns="http://www.w3.org/2000/svg">
<path d="M15 4C16.6569 4 18 5.34315 18 7M15 1C18.3137 1 21 3.68629 21 7M7 20L7.08432 19.8523C7.65052 18.8605 8.70489 18.2484 9.84689 18.2484C9.94163 18.2484 10.0292 18.1978 10.0765 18.1158L10.8902 16.7053L12.5306 13.6484C13.4969 11.8475 12.9235 9.54478 11.2497 8.50506C9.57596 7.46535 7.43575 8.08236 6.46942 9.88321C5.8444 11.048 5.86354 12.4227 6.40791 13.5298C6.95229 14.637 6.34764 14.7916 6.40791 15.6126V15.7578M6.0338 11.4746C7.01128 10.7651 8.38659 10.851 9.26777 11.7322C10.2441 12.7085 10.2441 14.2914 9.26777 15.2677C8.50811 16.0274 7.3812 16.1959 6.45855 15.7734M15.2151 15.167C17.0226 11.9255 15.9499 7.78061 12.8193 5.90911C9.68863 4.03762 5.68549 5.14825 3.87802 8.38977C2.70896 10.4864 2.74476 12.9609 3.76298 14.9537C4.7812 16.9466 3.65025 17.2248 3.76298 18.7026C3.87571 20.1804 4.66612 21.5777 5.99974 22.375C8.15206 23.6616 10.9042 22.8981 12.1469 20.6695L15.2151 15.167Z" stroke="black" stroke-width="1.5" stroke-linecap="round"/>
</svg>
