<svg width="24" height="24" viewBox="0 0 24 24" fill="none" xmlns="http://www.w3.org/2000/svg">
<g clip-path="url(#clip0_1607_9204)">
<path d="M1.02893 10H5.31369C5.35432 10 5.39091 9.97542 5.40627 9.93781L6.92189 6.22668C6.95576 6.14376 7.07318 6.14376 7.10705 6.22668L10.1891 13.7733C10.223 13.8562 10.3404 13.8562 10.3743 13.7733L12.6496 8.20193C12.6819 8.12273 12.7923 8.11808 12.8312 8.19427L13.7252 9.94547C13.7423 9.97894 13.7767 10 13.8143 10H19M19 10C19 5.02944 14.9706 1 10 1C5.02944 1 1 5.02944 1 10C1 14.9706 5.02944 19 10 19C12.4853 19 14.7353 17.9926 16.364 16.364M19 10C19 12.4853 17.9926 14.7353 16.364 16.364M23 23.0002L16.364 16.364" stroke="black" stroke-width="1.5" stroke-linecap="round" stroke-linejoin="round"/>
</g>
<defs>
<clipPath id="clip0_1607_9204">
<rect width="24" height="24" fill="white"/>
</clipPath>
</defs>
</svg>
