<svg width="24" height="24" viewBox="0 0 24 24" fill="none" xmlns="http://www.w3.org/2000/svg">
<path d="M17 4V3.5C17 2.94772 16.5523 2.5 16 2.5H14.375C14.1679 2.5 14 2.33211 14 2.125C14 1.50368 13.4963 1 12.875 1H11.125C10.5037 1 10 1.50368 10 2.125C10 2.33211 9.83211 2.5 9.625 2.5H8C7.44772 2.5 7 2.94772 7 3.5V4M17 4V5C17 5.55228 16.5523 6 16 6H8C7.44772 6 7 5.55228 7 5V4M17 4H19C19.5523 4 20 4.44772 20 5V22C20 22.5523 19.5523 23 19 23H5C4.44772 23 4 22.5523 4 22V5C4 4.44771 4.44772 4 5 4H7M4 15H6.43589C6.47496 15 6.51045 14.9772 6.52676 14.9417L8.24693 11.1978C8.28262 11.1201 8.39299 11.1201 8.42867 11.1978L11.929 18.8164C11.9636 18.8916 12.0694 18.8946 12.1082 18.8215L14.1384 15L15.0833 13.1719C15.1206 13.0998 15.2237 13.0998 15.261 13.1719L16.178 14.9459C16.1951 14.9791 16.2294 15 16.2668 15H20" stroke="black" stroke-width="1.5" stroke-linecap="round"/>
</svg>
