<svg width="24" height="24" viewBox="0 0 24 24" fill="none" xmlns="http://www.w3.org/2000/svg">
<g clip-path="url(#clip0_1607_9216)">
<path d="M8.00001 16.5L8.75001 16.5L8.75001 16.5L8.00001 16.5ZM1 4V3.25C0.585786 3.25 0.25 3.58579 0.25 4H1ZM15 9L15.75 9V9H15ZM15 4H15.75C15.75 3.58579 15.4142 3.25 15 3.25V4ZM3 4.75C3.41421 4.75 3.75 4.41421 3.75 4C3.75 3.58579 3.41421 3.25 3 3.25V4.75ZM13 3.25C12.5858 3.25 12.25 3.58579 12.25 4C12.25 4.41421 12.5858 4.75 13 4.75V3.25ZM8.75 9.00005C8.75 8.58584 8.41421 8.25005 8 8.25005C7.58579 8.25005 7.25 8.58584 7.25 9.00005H8.75ZM7.25 9.03178C7.25 9.44599 7.58579 9.78178 8 9.78178C8.41421 9.78178 8.75 9.44599 8.75 9.03178H7.25ZM14.5 23.75H15V22.25H14.5V23.75ZM7.25001 16L7.25001 16.5L8.75001 16.5L8.75001 16L7.25001 16ZM15 23.75C18.7279 23.75 21.75 20.7279 21.75 17H20.25C20.25 19.8995 17.8995 22.25 15 22.25V23.75ZM14.5 22.25C11.3244 22.25 8.75001 19.6757 8.75001 16.5L7.25001 16.5C7.25002 20.5041 10.496 23.75 14.5 23.75V22.25ZM0.25 4V9H1.75V4H0.25ZM15.75 9V4H14.25V9H15.75ZM1 4.75H3V3.25H1V4.75ZM15 3.25H13V4.75H15V3.25ZM8.00001 16.75C12.2802 16.75 15.75 13.2802 15.75 9L14.25 9C14.25 12.4518 11.4518 15.25 8.00001 15.25V16.75ZM0.25 9C0.25 13.2802 3.71981 16.75 8.00001 16.75V15.25C4.54823 15.25 1.75 12.4518 1.75 9H0.25ZM22.25 15C22.25 15.6904 21.6904 16.25 21 16.25V17.75C22.5188 17.75 23.75 16.5188 23.75 15H22.25ZM21 16.25C20.3096 16.25 19.75 15.6904 19.75 15H18.25C18.25 16.5188 19.4812 17.75 21 17.75V16.25ZM19.75 15C19.75 14.3096 20.3096 13.75 21 13.75V12.25C19.4812 12.25 18.25 13.4812 18.25 15H19.75ZM21 13.75C21.6904 13.75 22.25 14.3096 22.25 15H23.75C23.75 13.4812 22.5188 12.25 21 12.25V13.75ZM6 1.75H9.72727V0.25H6V1.75ZM5.75 10V2H4.25V10H5.75ZM6 11.75H9.72727V10.25H6V11.75ZM9.97727 2V10H11.4773V2H9.97727ZM4.25 10C4.25 10.9665 5.0335 11.75 6 11.75V10.25C5.86193 10.25 5.75 10.1381 5.75 10H4.25ZM9.72727 11.75C10.6938 11.75 11.4773 10.9665 11.4773 10H9.97727C9.97727 10.1381 9.86534 10.25 9.72727 10.25V11.75ZM9.72727 1.75C9.86534 1.75 9.97727 1.86193 9.97727 2H11.4773C11.4773 1.0335 10.6938 0.25 9.72727 0.25V1.75ZM6 0.25C5.0335 0.25 4.25 1.0335 4.25 2H5.75C5.75 1.86193 5.86193 1.75 6 1.75V0.25ZM7.25 9.00005V9.03178H8.75V9.00005H7.25Z" fill="black"/>
</g>
<defs>
<clipPath id="clip0_1607_9216">
<rect width="24" height="24" fill="white"/>
</clipPath>
</defs>
</svg>
