<svg width="24" height="24" viewBox="0 0 24 24" fill="none" xmlns="http://www.w3.org/2000/svg">
<path d="M13.7833 13.5939V12.7421C13.7833 11.8822 13.0862 11.1852 12.2264 11.1852C11.3776 11.1852 10.6874 11.8644 10.6698 12.709L10.6698 8M13.7833 13.5939C13.8597 12.8033 14.5259 12.1852 15.3365 12.1852C16.1984 12.1852 16.897 12.8839 16.897 13.7457V14.5913C16.9729 13.8022 17.6377 13.1852 18.4467 13.1852C19.3066 13.1852 20.0036 13.8822 20.0036 14.7421V22C20.0036 22.5523 19.5559 23 19.0036 23H5.78356C5.42244 23 5.08938 22.8053 4.9122 22.4906L2.11015 17.5144C1.88984 17.1232 2.00971 16.6207 2.38312 16.3703C3.40538 15.6847 4.75354 15.8403 5.58209 16.7395L6.15452 17.3608C6.43719 17.6676 6.90699 17.7086 7.23855 17.4555C7.43864 17.3027 7.55605 17.0654 7.55605 16.8136L7.55602 8M13.7833 13.5939L13.7833 12.8012M13.7833 13.5939L13.7833 15.1852M10.6695 10.1852V15.1852M16.897 13.9461V15.1852M7.99997 4H9.99997M7.99997 6V6.03173M9.99997 6V6.03173M6.10142 8H11.8985C11.9546 8 12 7.95458 12 7.89855V4C12 2.34315 10.6568 1 8.99997 1C7.34312 1 5.99997 2.34315 5.99997 4V7.89855C5.99997 7.95458 6.04539 8 6.10142 8Z" stroke="black" stroke-width="1.5" stroke-linecap="round"/>
</svg>
