<svg width="24" height="24" viewBox="0 0 24 24" fill="none" xmlns="http://www.w3.org/2000/svg">
<path d="M18.7702 15.1321C19.0814 14.8587 19.1121 14.3848 18.8387 14.0736C18.5654 13.7624 18.0915 13.7318 17.7803 14.0052L18.7702 15.1321ZM12 17L12 17.75L12 17ZM6.21979 14.0052C5.9086 13.7318 5.43471 13.7625 5.16134 14.0736C4.88797 14.3848 4.91864 14.8587 5.22983 15.1321L6.21979 14.0052ZM15.5084 8.55146C15.813 8.27073 15.8323 7.79625 15.5516 7.49168C15.2708 7.18711 14.7963 7.16779 14.4918 7.44852L15.5084 8.55146ZM9.50831 7.44853C9.20374 7.1678 8.72926 7.18712 8.44853 7.49169C8.1678 7.79626 8.18712 8.27074 8.49169 8.55147L9.50831 7.44853ZM17.07 11.7009C17.3745 11.4202 17.3938 10.9457 17.1131 10.6411C16.8324 10.3365 16.3579 10.3172 16.0533 10.5979L17.07 11.7009ZM12 13L12 13.75L12 13ZM7.94675 10.598C7.64218 10.3172 7.1677 10.3365 6.88697 10.6411C6.60623 10.9457 6.62556 11.4202 6.93013 11.7009L7.94675 10.598ZM12.0018 3.43694L12.0018 2.68694L12.0018 3.43694ZM7.5502 3.51367L8.19685 3.8936L7.5502 3.51367ZM8.69613 3.03123L8.85936 2.29921L8.69613 3.03123ZM1.13513 14.432L1.78177 14.8119L1.13513 14.432ZM1.16866 15.435L1.77244 14.99L1.77244 14.99L1.16866 15.435ZM22.868 14.432L23.5147 14.0522L22.868 14.432ZM22.8345 15.4349L22.2306 14.99L22.2306 14.99L22.8345 15.4349ZM16.4511 3.50888L15.8045 3.88876L15.8045 3.88876L16.4511 3.50888ZM15.301 3.02691L15.1357 2.29535L15.301 3.02691ZM17.7803 14.0052C16.169 15.4206 14.1646 16.25 12 16.25L12 17.75C14.5619 17.75 16.9111 16.7653 18.7702 15.1321L17.7803 14.0052ZM12 16.25C9.8355 16.25 7.83112 15.4206 6.21979 14.0052L5.22983 15.1321C7.08901 16.7653 9.43813 17.75 12 17.75L12 16.25ZM14.4918 7.44852C13.7868 8.09828 12.9223 8.46707 12 8.46707L12 9.96707C13.3405 9.96707 14.5586 9.42694 15.5084 8.55146L14.4918 7.44852ZM12 8.46707C11.0778 8.46707 10.2132 8.09828 9.50831 7.44853L8.49169 8.55147C9.4415 9.42695 10.6596 9.96707 12 9.96707L12 8.46707ZM16.0533 10.5979C14.9178 11.6447 13.5111 12.25 12 12.25L12 13.75C13.9293 13.75 15.6895 12.9733 17.07 11.7009L16.0533 10.5979ZM12 12.25C10.4889 12.25 9.08233 11.6447 7.94675 10.598L6.93013 11.7009C8.3106 12.9733 10.0707 13.75 12 13.75L12 12.25ZM15.8045 3.88876L22.2213 14.8119L23.5147 14.0522L17.0978 3.12899L15.8045 3.88876ZM1.78177 14.8119L8.19685 3.8936L6.90356 3.13373L0.488483 14.052L1.78177 14.8119ZM22.2306 14.99C21.219 16.3631 17.8336 20.2508 12.0018 20.2508V21.7508C18.5535 21.7508 22.3286 17.3858 23.4383 15.8798L22.2306 14.99ZM12.0018 20.2508C6.17014 20.2508 2.78433 16.3632 1.77244 14.99L0.564884 15.8799C1.67472 17.386 5.45027 21.7508 12.0018 21.7508V20.2508ZM8.53291 3.76325C9.33323 3.94171 10.6698 4.18694 12.0018 4.18694L12.0018 2.68694C10.8297 2.68694 9.61609 2.46794 8.85936 2.29921L8.53291 3.76325ZM12.0018 4.18694C13.3328 4.18694 14.6664 3.93919 15.4663 3.75847L15.1357 2.29535C14.3802 2.46607 13.1709 2.68694 12.0018 2.68694L12.0018 4.18694ZM8.19685 3.8936C8.25298 3.79806 8.38485 3.73024 8.53291 3.76325L8.85936 2.29921C8.11613 2.13348 7.31002 2.44194 6.90356 3.13373L8.19685 3.8936ZM0.488483 14.052C0.166729 14.5997 0.150221 15.3172 0.564884 15.8799L1.77244 14.99C1.75839 14.971 1.75073 14.9496 1.75005 14.9224C1.74931 14.8933 1.75699 14.8541 1.78177 14.8119L0.488483 14.052ZM22.2213 14.8119C22.2461 14.8541 22.2538 14.8933 22.253 14.9224C22.2523 14.9496 22.2447 14.971 22.2306 14.99L23.4383 15.8798C23.8528 15.3171 23.8363 14.5997 23.5147 14.0522L22.2213 14.8119ZM17.0978 3.12899C16.69 2.43479 15.8802 2.12714 15.1357 2.29535L15.4663 3.75847C15.6154 3.72478 15.7482 3.79304 15.8045 3.88876L17.0978 3.12899Z" fill="black"/>
</svg>
