<svg width="24" height="24" viewBox="0 0 24 24" fill="none" xmlns="http://www.w3.org/2000/svg">
<path d="M5.24216 0.5C4.82264 0.5 4.48256 0.839476 4.48256 1.25824C4.48256 1.67701 4.82264 2.01648 5.24216 2.01648H7.96266L7.95857 9.4561C7.95848 9.61658 7.92117 9.77183 7.8477 9.91458L5.90095 13.6975C5.86671 13.7641 5.91502 13.8433 5.98987 13.8433L10.0938 13.8433C10.5133 13.8433 10.8534 14.1828 10.8534 14.6015C10.8534 15.0203 10.5133 15.3598 10.0938 15.3598L5.10655 15.3598C5.06909 15.3598 5.03477 15.3807 5.01763 15.414L3.61208 18.1453C3.57783 18.2118 3.62615 18.291 3.701 18.291H7.91506C8.33458 18.291 8.67467 18.6305 8.67467 19.0493C8.67467 19.468 8.33458 19.8075 7.91506 19.8075H2.81767C2.78021 19.8075 2.7459 19.8285 2.72875 19.8618L1.61308 22.0298C1.26685 22.7025 1.75763 23.5 2.51537 23.5H21.4859C22.2421 23.5 22.7316 22.7028 22.3883 22.0302L16.2068 9.91584C16.1342 9.77355 16.0964 9.61612 16.0965 9.45644L16.1006 2.01648H18.7526C19.1722 2.01648 19.5123 1.67701 19.5123 1.25824C19.5123 0.839476 19.1722 0.5 18.7526 0.5H5.24216Z" fill="black"/>
</svg>
