<svg width="24" height="24" viewBox="0 0 24 24" fill="none" xmlns="http://www.w3.org/2000/svg">
<path fill-rule="evenodd" clip-rule="evenodd" d="M16.2134 1.28558C16.6306 0.875731 17.3076 0.911685 17.6793 1.36343L21.4148 5.90254C21.747 6.30619 21.7133 6.8987 21.3375 7.26178L19.4066 9.12743C19.0551 9.4671 18.5104 9.50144 18.1193 9.20861L18.0866 9.18413L17.7708 9.49992L13.9645 13.322L13.7375 13.549C14.127 13.9401 14.1272 14.5746 13.7376 14.9656L6.02213 22.707C5.63274 23.0977 5.00172 23.0976 4.61244 22.7068L1.29212 19.3735C0.902553 18.9824 0.902637 18.3482 1.29231 17.9572L9.00773 10.2158C9.38302 9.83927 9.98276 9.82571 10.3742 10.1751L10.5987 9.95064L14.083 6.45185L14.2348 6.30005L13.3957 5.67179C12.9049 5.30427 12.8568 4.58349 13.2944 4.15352L16.2134 1.28558ZM15.4478 7.20832L16.8736 8.27586L16.7091 8.44035L12.9027 12.2624L12.6789 12.4863L11.434 11.2366L11.6604 11.0102L15.1447 7.51141L15.4478 7.20832Z" fill="black"/>
<path d="M22.0893 11.0056L20.5133 10.1438L22.1014 8.60937L22.9282 10.1726C23.0551 10.4125 23.0112 10.7075 22.8199 10.8996C22.6268 11.0937 22.3293 11.1369 22.0893 11.0056Z" fill="black"/>
</svg>
