<svg width="24" height="24" viewBox="0 0 24 24" fill="none" xmlns="http://www.w3.org/2000/svg">
<path fill-rule="evenodd" clip-rule="evenodd" d="M10.0403 14.0313L11.5844 15.5754C11.7795 15.7705 12.0961 15.7703 12.2915 15.5749L13.8913 13.975L13.4628 13.5237L10.2611 10.322L8.64989 11.9332C8.45448 12.1286 8.45424 12.4452 8.64935 12.6403L8.97967 12.9707C8.97965 12.9707 8.97968 12.9706 8.97967 12.9707L0.46967 21.4807C0.176777 21.7736 0.176777 22.2484 0.46967 22.5413C0.500571 22.5722 0.533499 22.5999 0.568024 22.6242C4.6714 25.6534 10.163 21.3333 8.18488 16.6282L7.96542 16.1062L10.0403 14.0313C10.0403 14.0313 10.0403 14.0313 10.0403 14.0313ZM6.81976 17.2522C8.04166 20.2538 4.94606 23.0118 2.21829 21.8537L6.81976 17.2522Z" fill="black"/>
<path d="M11.3218 9.26133L14.5372 12.4767L14.9523 12.914L15.9027 11.9636L12.2611 8.32199L11.3218 9.26133Z" fill="black"/>
<path d="M22.1736 5.69254L16.9633 10.9029L13.3218 7.26133L18.532 2.05105C19.5391 1.04395 21.1707 1.04272 22.1763 2.04831C23.1818 3.05388 23.1806 4.68545 22.1736 5.69254Z" fill="black"/>
</svg>
