<svg width="24" height="24" viewBox="0 0 24 24" fill="none" xmlns="http://www.w3.org/2000/svg">
<g clip-path="url(#clip0_1607_10569)">
<path fill-rule="evenodd" clip-rule="evenodd" d="M23.5075 0.138567C23.9834 0.418907 24.1419 1.03192 23.8615 1.50776L15.5253 15.6576C15.5182 15.6702 15.5108 15.6828 15.5031 15.6951L15.3085 16.0255C17.4857 16.0546 19.2416 17.8286 19.2416 20.0126C19.2416 22.2149 17.4563 24.0002 15.2541 24.0002C13.0519 24.0002 11.2666 22.2149 11.2666 20.0126C11.2666 19.1683 11.529 18.3852 11.9768 17.7406L13.3958 15.332L12.0856 14.0333C11.6934 13.6444 11.6906 13.0113 12.0794 12.6191C12.4682 12.2268 13.1014 12.224 13.4936 12.6128L14.4432 13.5541L20.1744 3.82609L10.4524 9.55427L11.3906 10.51C11.7776 10.9041 11.7717 11.5372 11.3776 11.9242C10.9835 12.3111 10.3504 12.3052 9.96345 11.9111L8.67675 10.6005L6.24592 12.0327C5.60389 12.4747 4.82592 12.7335 3.98751 12.7335C1.78527 12.7335 0 10.9482 0 8.74594C0 6.5437 1.78527 4.75843 3.98751 4.75843C6.17201 4.75843 7.94622 6.51505 7.97467 8.69279L8.31703 8.49108C8.32934 8.48346 8.34178 8.47613 8.35434 8.46909L22.4621 0.156855C22.7692 -0.0386434 23.1724 -0.0588875 23.5075 0.138567ZM3.98751 6.75843C2.88984 6.75843 2 7.64827 2 8.74594C2 9.84362 2.88984 10.7335 3.98751 10.7335C5.08518 10.7335 5.97502 9.84362 5.97502 8.74594C5.97502 7.64827 5.08518 6.75843 3.98751 6.75843ZM15.2541 18.0251C14.1564 18.0251 13.2666 18.915 13.2666 20.0126C13.2666 21.1103 14.1564 22.0002 15.2541 22.0002C16.3518 22.0002 17.2416 21.1103 17.2416 20.0126C17.2416 18.915 16.3518 18.0251 15.2541 18.0251Z" fill="black"/>
</g>
<defs>
<clipPath id="clip0_1607_10569">
<rect width="24" height="24" fill="white"/>
</clipPath>
</defs>
</svg>
