<svg width="24" height="24" viewBox="0 0 24 24" fill="none" xmlns="http://www.w3.org/2000/svg">
<path d="M17.6862 9.29835C19.0943 9.67432 20.6589 9.30998 21.7636 8.20532C23.4119 6.557 23.4119 3.88455 21.7636 2.23624C20.1153 0.587921 17.4428 0.587921 15.7945 2.23624C14.6898 3.34098 14.3255 4.90576 14.7016 6.31392L12.9369 8.07856C12.9449 8.08588 12.9528 8.09341 12.9605 8.10114L14.4298 9.57042C14.7227 9.86332 14.7227 10.3382 14.4298 10.6311C14.1369 10.924 13.662 10.924 13.3691 10.6311L11.8998 9.1618C11.8921 9.15407 11.8846 9.14621 11.8773 9.13823L10.7031 10.3124C10.711 10.3198 10.7189 10.3273 10.7266 10.335L12.1957 11.8041C12.4886 12.097 12.4886 12.5719 12.1957 12.8648C11.9028 13.1577 11.428 13.1577 11.1351 12.8648L9.66596 11.3957C9.65823 11.388 9.6507 11.3801 9.64338 11.3721L8.46941 12.5461C8.47739 12.5534 8.48525 12.5609 8.49298 12.5687L9.96226 14.038C10.2552 14.3308 10.2552 14.8057 9.96226 15.0986C9.66937 15.3915 9.19449 15.3915 8.9016 15.0986L7.43232 13.6293C7.42458 13.6216 7.41706 13.6137 7.40973 13.6058L6.23534 14.7802C6.2433 14.7875 6.25113 14.795 6.25885 14.8027L7.72813 16.272C8.02102 16.5649 8.02102 17.0397 7.72813 17.3326C7.43524 17.6255 6.96036 17.6255 6.66747 17.3326L5.19819 15.8633C5.19047 15.8556 5.18297 15.8478 5.17566 15.8398L1.61812 19.3974C0.793961 20.2215 0.79396 21.5578 1.61812 22.3819C2.44228 23.2061 3.7785 23.2061 4.60266 22.3819L17.6862 9.29835Z" fill="black"/>
</svg>
