<svg width="24" height="24" viewBox="0 0 24 24" fill="none" xmlns="http://www.w3.org/2000/svg">
<path d="M3.33783 17.512L3.92306 16.2948L4.80396 16.6878L7.66312 17.8987L7.26829 19.1741L4.29245 17.9138L3.33783 17.512Z" fill="black"/>
<path d="M5.40209 15.3122L4.57326 14.9424L9.70531 4.26774C9.74381 4.18767 9.80271 4.11914 9.8761 4.06906L14.1088 1.18022C14.5228 0.897712 15.0796 0.952192 15.431 1.30958C15.8765 1.76278 15.8124 2.50666 15.2959 2.87698L11.5852 5.53749C11.5056 5.59461 11.4467 5.67621 11.4178 5.76985L8.10894 16.4585L5.40209 15.3122Z" fill="black"/>
<path d="M2.68708 18.8656L2.17423 19.9323C1.67861 21.0931 2.27988 22.4296 3.47723 22.8287L3.63348 22.8808C4.83725 23.2821 6.13941 22.6377 6.55061 21.4373L6.72814 20.919L6.82247 20.6143L3.70825 19.2954L2.68708 18.8656Z" fill="black"/>
<path d="M15.5663 6.41873L20.3526 5.16128C20.8371 5.03399 21.3421 5.27901 21.5419 5.73838C21.7866 6.30071 21.4809 6.94995 20.8916 7.11959L16.5953 8.35623C16.5089 8.38109 16.432 8.4313 16.3745 8.50036L9.63907 16.5864L11.5259 10.5007C11.5496 10.4244 11.5912 10.3548 11.6472 10.2979L15.3372 6.55146C15.4002 6.48742 15.4794 6.44157 15.5663 6.41873Z" fill="black"/>
</svg>
