<svg width="24" height="24" viewBox="0 0 24 24" fill="none" xmlns="http://www.w3.org/2000/svg">
<path d="M20.4949 1.58432L21.0259 1.05462L21.0259 1.05462L20.4949 1.58432ZM20.6219 1.71162L20.0909 2.24132L20.0909 2.24132L20.6219 1.71162ZM20.6219 4.54005L21.1529 5.06975L21.1529 5.06975L20.6219 4.54005ZM17.6731 1.58432L17.1422 1.05462L17.1422 1.05462L17.6731 1.58432ZM11.6803 6.04967L12.2113 5.51997L12.2113 5.51997L11.6803 6.04967ZM11.6803 4.63546L11.1494 4.10576L11.1494 4.10576L11.6803 4.63546ZM17.5778 10.5469L18.1088 11.0766L18.1088 11.0766L17.5778 10.5469ZM16.1669 10.5469L15.636 11.0766L15.636 11.0766L16.1669 10.5469ZM19.1157 7.59119L18.5847 8.12089L18.5847 8.12089L19.1157 7.59119ZM19.1157 9.0054L18.5847 8.4757L18.5847 8.4757L19.1157 9.0054ZM14.6291 3.09395L15.16 2.56425L15.16 2.56425L14.6291 3.09395ZM13.2182 3.09395L13.7491 3.62365L13.7491 3.62365L13.2182 3.09395ZM8.34587 16.8451L7.81492 16.3154L7.81492 16.3154L8.34587 16.8451ZM5.39712 13.8894L5.92808 14.4191L5.39712 13.8894ZM7.82968 17.1198L7.97227 17.8562L7.97227 17.8562L7.82968 17.1198ZM5.92354 17.489L5.78095 16.7527L5.78095 16.7527L5.92354 17.489ZM4.75477 16.3174L4.01832 16.1755L4.01832 16.1755L4.75477 16.3174ZM5.12304 14.4068L5.85948 14.5487L5.85948 14.5487L5.12304 14.4068ZM6.89375 11.6392C6.47953 11.6392 6.14375 11.975 6.14375 12.3892C6.14375 12.8034 6.47953 13.1392 6.89375 13.1392V11.6392ZM12.7912 13.1392C13.2055 13.1392 13.5412 12.8034 13.5412 12.3892C13.5412 11.975 13.2055 11.6392 12.7912 11.6392V13.1392ZM4.47963 19.1787L5.11605 19.5755L5.11605 19.5755L4.47963 19.1787ZM3.41863 20.8803L4.05505 21.2771L4.05505 21.2771L3.41863 20.8803ZM5.76308 20.8803L5.12667 21.2771L5.12667 21.2771L5.76308 20.8803ZM4.70207 19.1787L5.33848 18.7819L5.33848 18.7819L4.70207 19.1787ZM3.21086 21.5003L3.95834 21.5618L3.21086 21.5003ZM19.9639 2.11402L20.0909 2.24132L21.1529 1.18192L21.0259 1.05462L19.9639 2.11402ZM20.0909 4.01034L17.8159 6.29078L18.8778 7.35019L21.1529 5.06975L20.0909 4.01034ZM15.929 4.39447L18.2041 2.11402L17.1422 1.05462L14.8671 3.33506L15.929 4.39447ZM20.0909 2.24132C20.5781 2.72962 20.5781 3.52204 20.0909 4.01034L21.1529 5.06975C22.2241 3.99595 22.2241 2.25571 21.1529 1.18191L20.0909 2.24132ZM21.0259 1.05462C19.9536 -0.0201584 18.2144 -0.0201601 17.1422 1.05462L18.2041 2.11402C18.6903 1.62671 19.4778 1.62671 19.9639 2.11403L21.0259 1.05462ZM14.0981 3.62365L18.5847 8.12089L19.6466 7.06148L15.16 2.56425L14.0981 3.62365ZM18.5847 8.4757L17.0469 10.0172L18.1088 11.0766L19.6466 9.5351L18.5847 8.4757ZM16.6979 10.0172L12.2113 5.51997L11.1494 6.57938L15.636 11.0766L16.6979 10.0172ZM12.2113 5.16516L13.7491 3.62365L12.6872 2.56425L11.1494 4.10576L12.2113 5.16516ZM12.2113 5.51997C12.1137 5.4222 12.1137 5.26294 12.2113 5.16516L11.1494 4.10576C10.4677 4.78903 10.4677 5.89611 11.1494 6.57938L12.2113 5.51997ZM17.0469 10.0172C16.9503 10.114 16.7945 10.114 16.6979 10.0172L15.636 11.0766C16.3186 11.7609 17.4261 11.7609 18.1088 11.0766L17.0469 10.0172ZM18.5847 8.12089C18.6823 8.21866 18.6823 8.37792 18.5847 8.4757L19.6466 9.5351C20.3283 8.85183 20.3283 7.74475 19.6466 7.06148L18.5847 8.12089ZM15.16 2.56425C14.4774 1.87999 13.3699 1.88 12.6872 2.56425L13.7491 3.62365C13.8457 3.52686 14.0015 3.52686 14.0981 3.62365L15.16 2.56425ZM14.8671 9.24652L7.81492 16.3154L8.87683 17.3748L15.929 10.3059L14.8671 9.24652ZM5.92808 14.4191L12.9803 7.3502L11.9184 6.2908L4.86617 13.3597L5.92808 14.4191ZM7.68709 16.3835L5.78095 16.7527L6.06613 18.2253L7.97227 17.8562L7.68709 16.3835ZM5.49121 16.4594L5.85948 14.5487L4.38659 14.2649L4.01832 16.1755L5.49121 16.4594ZM5.78095 16.7527C5.6116 16.7855 5.45718 16.636 5.49121 16.4594L4.01832 16.1755C3.7844 17.3892 4.84852 18.4611 6.06613 18.2253L5.78095 16.7527ZM4.86617 13.3597C4.61958 13.6069 4.45265 13.9221 4.38659 14.2649L5.85948 14.5487C5.86899 14.4994 5.89298 14.4543 5.92808 14.4191L4.86617 13.3597ZM7.81492 16.3154C7.77984 16.3506 7.73528 16.3742 7.68709 16.3835L7.97227 17.8562C8.31521 17.7898 8.63022 17.622 8.87683 17.3748L7.81492 16.3154ZM6.89375 13.1392H12.7912V11.6392H6.89375V13.1392ZM3.84321 18.7819L2.7822 20.4835L4.05505 21.2771L5.11605 19.5755L3.84321 18.7819ZM6.3995 20.4835L5.33848 18.7819L4.06565 19.5755L5.12667 21.2771L6.3995 20.4835ZM4.59086 23.7503C6.26848 23.7503 7.28477 21.9033 6.3995 20.4835L5.12667 21.2771C5.39229 21.7031 5.08473 22.2503 4.59086 22.2503V23.7503ZM5.11605 19.5755C4.8738 19.964 4.30789 19.964 4.06565 19.5755L5.33848 18.7819C4.9935 18.2286 4.1882 18.2286 3.84321 18.7819L5.11605 19.5755ZM2.7822 20.4835C2.59439 20.7847 2.49032 21.1114 2.46339 21.4388L3.95834 21.5618C3.96589 21.47 3.9949 21.3736 4.05505 21.2771L2.7822 20.4835ZM2.46339 21.4388C2.36737 22.6062 3.26834 23.7503 4.59086 23.7503V22.2503C4.20974 22.2503 3.92881 21.9208 3.95834 21.5618L2.46339 21.4388Z" fill="black"/>
</svg>
