<svg width="24" height="24" viewBox="0 0 24 24" fill="none" xmlns="http://www.w3.org/2000/svg">
<path d="M6 4L6.75 4L6 4ZM7 3L7 3.75L7 3ZM7 19L7 19.75H7V19ZM6 18L5.25 18L6 18ZM18 18L17.25 18V18L18 18ZM17 19L17 18.25H17V19ZM18 4L18.75 4V4L18 4ZM17 3L17 2.25L17 3ZM12 1L12 0.25L12 1ZM11.8167 8.36649L11.1459 8.03109L11.1459 8.03109L11.8167 8.36649ZM10.3416 11.3167L11.0124 11.6521L11.0124 11.6521L10.3416 11.3167ZM13.6583 11.3167L12.9875 11.6521L12.9875 11.6521L13.6583 11.3167ZM12.1832 8.36649L11.5124 8.70191L11.5124 8.70191L12.1832 8.36649ZM11.25 23C11.25 23.4142 11.5858 23.75 12 23.75C12.4142 23.75 12.75 23.4142 12.75 23H11.25ZM12.75 19C12.75 18.5858 12.4142 18.25 12 18.25C11.5858 18.25 11.25 18.5858 11.25 19H12.75ZM7.25 21C7.25 21.4142 7.58579 21.75 8 21.75C8.41421 21.75 8.75 21.4142 8.75 21H7.25ZM8.75 19C8.75 18.5858 8.41421 18.25 8 18.25C7.58579 18.25 7.25 18.5858 7.25 19H8.75ZM11 20.25C10.5858 20.25 10.25 20.5858 10.25 21C10.25 21.4142 10.5858 21.75 11 21.75V20.25ZM13 21.75C13.4142 21.75 13.75 21.4142 13.75 21C13.75 20.5858 13.4142 20.25 13 20.25V21.75ZM15.25 21C15.25 21.4142 15.5858 21.75 16 21.75C16.4142 21.75 16.75 21.4142 16.75 21H15.25ZM16.75 19C16.75 18.5858 16.4142 18.25 16 18.25C15.5858 18.25 15.25 18.5858 15.25 19H16.75ZM6 6.25C5.58579 6.25 5.25 6.58579 5.25 7C5.25 7.41421 5.58579 7.75 6 7.75V6.25ZM8 7.75C8.41421 7.75 8.75 7.41421 8.75 7C8.75 6.58579 8.41421 6.25 8 6.25V7.75ZM6 10.25C5.58579 10.25 5.25 10.5858 5.25 11C5.25 11.4142 5.58579 11.75 6 11.75V10.25ZM8 11.75C8.41421 11.75 8.75 11.4142 8.75 11C8.75 10.5858 8.41421 10.25 8 10.25V11.75ZM6 14.25C5.58579 14.25 5.25 14.5858 5.25 15C5.25 15.4142 5.58579 15.75 6 15.75V14.25ZM8 15.75C8.41421 15.75 8.75 15.4142 8.75 15C8.75 14.5858 8.41421 14.25 8 14.25V15.75ZM17.25 4L17.25 18L18.75 18L18.75 4L17.25 4ZM17 18.25H7V19.75H17V18.25ZM6.75 18L6.75 4L5.25 4L5.25 18L6.75 18ZM7 3.75L17 3.75L17 2.25L7 2.25L7 3.75ZM6.75 4C6.75 3.86193 6.86193 3.75 7 3.75L7 2.25C6.0335 2.25 5.25 3.0335 5.25 4L6.75 4ZM7 18.25C6.86193 18.25 6.75 18.1381 6.75 18L5.25 18C5.25 18.9665 6.0335 19.75 7 19.75L7 18.25ZM17.25 18C17.25 18.1381 17.1381 18.25 17 18.25L17 19.75C17.9665 19.75 18.75 18.9665 18.75 18L17.25 18ZM18.75 4C18.75 3.0335 17.9665 2.25 17 2.25L17 3.75C17.1381 3.75 17.25 3.86193 17.25 4L18.75 4ZM10.75 3C10.75 2.30964 11.3096 1.75 12 1.75L12 0.25C10.4812 0.25 9.25 1.48122 9.25 3L10.75 3ZM14.75 3C14.75 1.48122 13.5188 0.25 12 0.25L12 1.75C12.6904 1.75 13.25 2.30964 13.25 3L14.75 3ZM11.1459 8.03109L9.6708 10.9813L11.0124 11.6521L12.4875 8.7019L11.1459 8.03109ZM14.3292 10.9813L12.854 8.03108L11.5124 8.70191L12.9875 11.6521L14.3292 10.9813ZM12 14.75C13.9358 14.75 15.1949 12.7128 14.3292 10.9813L12.9875 11.6521C13.3546 12.3862 12.8208 13.25 12 13.25V14.75ZM9.6708 10.9813C8.80508 12.7128 10.0641 14.75 12 14.75V13.25C11.1792 13.25 10.6454 12.3863 11.0124 11.6521L9.6708 10.9813ZM12.4875 8.7019C12.2867 9.10368 11.7133 9.10369 11.5124 8.70191L12.854 8.03108C12.5021 7.32729 11.4978 7.3273 11.1459 8.03109L12.4875 8.7019ZM12.75 23V19H11.25V23H12.75ZM8.75 21V19H7.25V21H8.75ZM11 21.75H13V20.25H11V21.75ZM16.75 21V19H15.25V21H16.75ZM6 7.75H8V6.25H6V7.75ZM6 11.75H8V10.25H6V11.75ZM6 15.75H8V14.25H6V15.75Z" fill="black"/>
</svg>
