<svg width="24" height="24" viewBox="0 0 24 24" fill="none" xmlns="http://www.w3.org/2000/svg">
<g clip-path="url(#clip0_1607_9351)">
<path d="M17.4801 8.73004L13.2003 13.0098M10.8975 10.698L14.8413 6.75423M19.0559 9.34702L22.0891 11.0058C22.3292 11.137 22.6266 11.0939 22.8198 10.8997C23.011 10.7076 23.0549 10.4126 22.9281 10.1727L21.3707 7.22815M19.0559 9.34702C19.1836 9.30048 19.3034 9.2271 19.4065 9.12743L21.3374 7.26178C21.3488 7.25077 21.3599 7.23956 21.3707 7.22815M19.0559 9.34702C18.7486 9.45908 18.3955 9.41551 18.1192 9.20861L13.3956 5.67179C12.9048 5.30427 12.8567 4.58349 13.2943 4.15352L16.2133 1.28558C16.6305 0.875731 17.3075 0.911685 17.6792 1.36343L21.4147 5.90254C21.7368 6.29396 21.7149 6.86296 21.3707 7.22815M1.29212 19.3736L4.61244 22.7068C5.00172 23.0976 5.63274 23.0977 6.02213 22.707L13.7376 14.9656C14.1272 14.5746 14.1273 13.9404 13.7377 13.5493L10.4174 10.2161C10.0281 9.82526 9.39711 9.82517 9.00773 10.2159L1.29231 17.9573C0.902637 18.3483 0.902553 18.9825 1.29212 19.3736Z" stroke="black" stroke-width="1.5" stroke-linecap="round"/>
</g>
<defs>
<clipPath id="clip0_1607_9351">
<rect width="24" height="24" fill="white"/>
</clipPath>
</defs>
</svg>
