<svg width="24" height="24" viewBox="0 0 24 24" fill="none" xmlns="http://www.w3.org/2000/svg">
<g clip-path="url(#clip0_1607_9378)">
<path d="M21.7636 8.20532L21.2333 7.67499L21.2333 7.67499L21.7636 8.20532ZM17.6862 9.29835L17.8797 8.57374C17.6211 8.50467 17.3452 8.57872 17.1559 8.76802L17.6862 9.29835ZM21.7636 2.23624L21.2333 2.76657L21.2333 2.76657L21.7636 2.23624ZM15.7945 2.23624L15.2642 1.70591L15.2642 1.70591L15.7945 2.23624ZM14.7016 6.31392L15.2319 6.84425C15.4212 6.65494 15.4953 6.37906 15.4262 6.12039L14.7016 6.31392ZM1.61812 19.3974L2.14845 19.9277L2.14845 19.9277L1.61812 19.3974ZM1.61812 22.3819L2.14845 21.8516L2.14845 21.8516L1.61812 22.3819ZM4.60266 22.3819L5.13299 22.9122L5.13299 22.9122L4.60266 22.3819ZM12.9605 8.10115C12.6676 7.80826 12.1927 7.80826 11.8998 8.10115C11.6069 8.39404 11.6069 8.86892 11.8998 9.16181L12.9605 8.10115ZM13.3691 10.6311C13.662 10.924 14.1369 10.924 14.4298 10.6311C14.7227 10.3382 14.7227 9.86333 14.4298 9.57043L13.3691 10.6311ZM10.7267 10.3351C10.4338 10.0422 9.95893 10.0422 9.66604 10.3351C9.37314 10.628 9.37314 11.1028 9.66604 11.3957L10.7267 10.3351ZM11.1351 12.8648C11.428 13.1577 11.9029 13.1577 12.1958 12.8648C12.4887 12.5719 12.4887 12.0971 12.1958 11.8042L11.1351 12.8648ZM8.49291 12.5687C8.20002 12.2758 7.72514 12.2758 7.43225 12.5687C7.13936 12.8616 7.13936 13.3365 7.43225 13.6294L8.49291 12.5687ZM8.90153 15.0987C9.19443 15.3916 9.6693 15.3916 9.96219 15.0987C10.2551 14.8058 10.2551 14.3309 9.96219 14.038L8.90153 15.0987ZM6.25887 14.8026C5.96597 14.5097 5.4911 14.5097 5.19821 14.8026C4.90531 15.0955 4.90531 15.5704 5.19821 15.8633L6.25887 14.8026ZM6.66749 17.3326C6.96038 17.6255 7.43526 17.6255 7.72815 17.3326C8.02104 17.0397 8.02104 16.5648 7.72815 16.2719L6.66749 17.3326ZM21.2333 7.67499C20.3256 8.58269 19.0398 8.88348 17.8797 8.57374L17.4927 10.023C19.1489 10.4652 20.9923 10.0373 22.2939 8.73565L21.2333 7.67499ZM21.2333 2.76657C22.5887 4.12199 22.5887 6.31956 21.2333 7.67499L22.2939 8.73565C24.2351 6.79444 24.2351 3.64712 22.2939 1.70591L21.2333 2.76657ZM16.3249 2.76657C17.6803 1.41114 19.8779 1.41114 21.2333 2.76657L22.2939 1.70591C20.3527 -0.235302 17.2054 -0.235302 15.2642 1.70591L16.3249 2.76657ZM15.4262 6.12039C15.1163 4.96026 15.4171 3.67434 16.3249 2.76657L15.2642 1.70591C13.9625 3.00762 13.5346 4.85126 13.977 6.50746L15.4262 6.12039ZM2.14845 19.9277L15.2319 6.84425L14.1712 5.78359L1.08779 18.867L2.14845 19.9277ZM2.14845 21.8516C1.61718 21.3203 1.61718 20.459 2.14845 19.9277L1.08779 18.867C-0.0292625 19.9841 -0.0292632 21.7952 1.08779 22.9122L2.14845 21.8516ZM4.07233 21.8516C3.54106 22.3829 2.67971 22.3829 2.14845 21.8516L1.08779 22.9122C2.20484 24.0293 4.01594 24.0293 5.13299 22.9122L4.07233 21.8516ZM17.1559 8.76802L4.07233 21.8516L5.13299 22.9122L18.2166 9.82868L17.1559 8.76802ZM11.8998 9.16181L13.3691 10.6311L14.4298 9.57043L12.9605 8.10115L11.8998 9.16181ZM9.66604 11.3957L11.1351 12.8648L12.1958 11.8042L10.7267 10.3351L9.66604 11.3957ZM7.43225 13.6294L8.90153 15.0987L9.96219 14.038L8.49291 12.5687L7.43225 13.6294ZM5.19821 15.8633L6.66749 17.3326L7.72815 16.2719L6.25887 14.8026L5.19821 15.8633Z" fill="black"/>
</g>
<defs>
<clipPath id="clip0_1607_9378">
<rect width="24" height="24" fill="white"/>
</clipPath>
</defs>
</svg>
