<svg width="24" height="24" viewBox="0 0 24 24" fill="none" xmlns="http://www.w3.org/2000/svg">
<g clip-path="url(#clip0_1607_9383)">
<path d="M3.42961 17.4296L1.27925 20.5357C0.84725 21.1597 0.923322 22.0034 1.45998 22.54C1.99664 23.0767 2.8403 23.1527 3.46431 22.7207L6.57038 20.5704M3.42961 17.4296L8.80668 9.66274C8.85143 9.5981 8.90191 9.53761 8.95751 9.48201L16.2879 2.15161C17.8234 0.616129 20.3129 0.61613 21.8484 2.15161C23.3839 3.68709 23.3839 6.1766 21.8484 7.71209L14.518 15.0425C14.4624 15.0981 14.4019 15.1486 14.3373 15.1933L6.57038 20.5704M3.42961 17.4296L6.57038 20.5704M12.4142 10.5857L13.3639 11.5353C13.7544 11.9259 14.3876 11.9259 14.7781 11.5353L19.5967 6.71672C19.9872 6.3262 19.9872 5.69303 19.5967 5.30251L18.647 4.35286C18.2565 3.96233 17.6234 3.96233 17.2328 4.35286L12.4142 9.17147C12.0237 9.562 12.0237 10.1952 12.4142 10.5857Z" stroke="black" stroke-width="1.5" stroke-linecap="round"/>
</g>
<defs>
<clipPath id="clip0_1607_9383">
<rect width="24" height="24" fill="white"/>
</clipPath>
</defs>
</svg>
