<svg width="24" height="24" viewBox="0 0 24 24" fill="none" xmlns="http://www.w3.org/2000/svg">
<path d="M3.83279 18.5625L7.92779 20.2741M5.06478 16L8.77013 17.553M8.77013 17.553L8.14086 19.5858M8.77013 17.553L10.2694 12.7097M8.14086 19.5858L17.3744 8.50034C17.4319 8.43128 17.5088 8.38107 17.5952 8.35621L21.8915 7.11956C22.4808 6.94993 22.7865 6.30068 22.5418 5.73835C22.342 5.27898 21.837 5.03396 21.3525 5.16126L16.5662 6.4187C16.4793 6.44154 16.4001 6.4874 16.3371 6.55143L10.4091 12.5701L10.2694 12.7097M8.14086 19.5858L7.55061 21.4373C7.13941 22.6377 5.83725 23.2821 4.63348 22.8808L4.47723 22.8287C3.27988 22.4296 2.67861 21.0931 3.17423 19.9323L10.7053 4.26774C10.7438 4.18767 10.8027 4.11914 10.8761 4.06906L15.1088 1.18022C15.5228 0.897712 16.0796 0.952192 16.431 1.30958C16.8765 1.76278 16.8124 2.50666 16.2959 2.87698L12.5852 5.53749C12.5056 5.59461 12.4467 5.67621 12.4178 5.76985L10.2694 12.7097" stroke="black" stroke-width="1.5" stroke-linecap="round"/>
</svg>
