<svg width="24" height="24" viewBox="0 0 24 24" fill="none" xmlns="http://www.w3.org/2000/svg">
<path d="M21.6455 1.46813C21.3518 1.17609 20.8769 1.17747 20.5849 1.47122C20.2928 1.76496 20.2942 2.23983 20.5879 2.53187L22.0248 3.96042C22.3251 4.25891 22.3251 4.74104 22.0248 5.03954C21.7222 5.34043 21.2297 5.34043 20.927 5.03954L20.7643 4.87772C19.7867 3.90577 18.2034 3.90577 17.2258 4.87772L15.4975 6.59598C15.4618 6.63146 15.4305 6.66964 15.4034 6.70986L15.2014 6.51025C14.8042 6.1178 14.1626 6.11878 13.7667 6.51244L11.1159 9.14793L13.9864 12.0184L16.65 9.37021C17.0476 8.97487 17.0466 8.33361 16.6478 7.93948L16.4517 7.74571C16.488 7.72063 16.5227 7.69196 16.5551 7.65973L18.2834 5.94146C18.6759 5.55119 19.3142 5.55119 19.7067 5.94146L19.8695 6.10328C20.7572 6.98585 22.1947 6.98585 23.0824 6.10328C23.9725 5.2183 23.9725 3.78166 23.0824 2.89668L21.6455 1.46813Z" fill="black"/>
<path d="M6.69625 17.4615C6.69469 17.4631 6.69313 17.4647 6.69155 17.4662L4.15527 19.9878C4.01296 20.1293 3.93237 20.3194 3.9292 20.5176C3.9093 21.7602 2.89164 22.75 1.65201 22.75H1C0.585786 22.75 0.25 22.4142 0.25 22C0.25 21.5858 0.585786 21.25 1 21.25H1.65201C2.08062 21.25 2.42273 20.9092 2.42939 20.4935C2.43885 19.9031 2.67901 19.3403 3.0977 18.924L5.62959 16.4068L5.44215 16.2215C5.0435 15.8274 5.04261 15.1863 5.44016 14.791L8.07224 12.1741L10.9427 15.0445L8.32296 17.6491C7.92694 18.0429 7.28513 18.0438 6.88802 17.6511L6.69625 17.4615Z" fill="black"/>
<path d="M12.0064 13.9869L9.13596 11.1165L10.0522 10.2055L12.9226 13.076L12.0064 13.9869Z" fill="black"/>
</svg>
