<svg width="24" height="24" viewBox="0 0 24 24" fill="none" xmlns="http://www.w3.org/2000/svg">
<path d="M22.2844 0.611722C21.3838 0.0917642 20.3337 0.174498 19.4248 0.59273C18.5139 1.01191 17.6783 1.7899 17.093 2.80374C16.5076 3.81758 16.2517 4.93024 16.3441 5.9287C16.4096 6.63608 16.6572 7.32055 17.1177 7.84414L14.7922 8.44745C14.4903 8.52576 14.2149 8.68275 13.9943 8.90223L10.5854 12.294L10.584 12.2953L10.1165 12.7628L9.14992 11.7996C9.03485 11.6849 8.84814 11.6848 8.73286 11.7992L4.5959 15.9073L8.12534 19.4368L12.2684 15.3227C12.3838 15.2082 12.384 15.0222 12.2688 14.9075L11.1791 13.8216L11.6487 13.3519L15.0576 9.96021C15.0892 9.92885 15.1285 9.90643 15.1716 9.89524L19.6913 8.72268C19.7149 8.71655 19.738 8.70938 19.7605 8.70121C20.0649 8.64433 20.3644 8.54605 20.6499 8.41465C21.5608 7.99547 22.3964 7.21748 22.9818 6.20364C23.5671 5.18979 23.8231 4.07713 23.7306 3.07867C23.6384 2.08246 23.185 1.13168 22.2844 0.611722Z" fill="black"/>
<path d="M7.06095 20.4937L3.53152 16.9643L2.64016 17.8494L6.16957 21.3788L7.06095 20.4937Z" fill="black"/>
<path d="M1.73148 22.2696C0.808398 21.3498 0.759126 19.8907 1.58278 18.9133L5.09769 22.4282C4.1141 23.2404 2.65239 23.1872 1.73148 22.2696Z" fill="black"/>
</svg>
