<svg width="24" height="24" viewBox="0 0 24 24" fill="none" xmlns="http://www.w3.org/2000/svg">
<path d="M15.9863 0.471019C16.2784 0.177382 16.7533 0.176176 17.0469 0.468325L18.0302 1.44662C19.0922 0.849593 20.4635 1.00123 21.3683 1.90151L23.529 4.05129C23.6705 4.19205 23.75 4.38339 23.75 4.58296C23.75 4.78253 23.6705 4.97387 23.529 5.11463L20.647 7.98209C20.5488 8.07941 20.4304 8.14403 20.3054 8.17595L15.1796 9.87591C15.1427 9.88815 15.1092 9.90877 15.0817 9.93615L11.6479 13.3526L11.6459 13.3545L12.8126 14.5171C12.9333 14.6374 12.9331 14.8322 12.8122 14.9523L5.47546 22.2376C4.45037 23.2555 2.79008 23.2541 1.76678 22.2344C0.743154 21.2144 0.744592 19.5618 1.76999 18.5436L9.10601 11.2588C9.22685 11.1388 9.42257 11.139 9.5432 11.2592L10.5834 12.2957L14.0183 8.87817C14.2109 8.68656 14.4457 8.54218 14.7041 8.45649L18.727 7.12227L17.4294 5.83122C16.5244 4.93073 16.3707 3.56468 16.9683 2.50604L15.989 1.53168C15.6953 1.23953 15.6941 0.764655 15.9863 0.471019Z" fill="black"/>
</svg>
