<svg width="24" height="24" viewBox="0 0 24 24" fill="none" xmlns="http://www.w3.org/2000/svg">
<path d="M15.6638 5.44092L18.7982 2.32282L18.559 2.08479C17.105 0.638403 14.7476 0.638402 13.2936 2.08479C12.2729 3.10013 11.9688 4.55832 12.3811 5.83761C13.3838 5.25992 14.5748 5.12769 15.6638 5.44092Z" fill="black"/>
<path d="M17.1938 9.61168C17.2338 8.87443 16.9708 8.12391 16.4047 7.56074C15.7997 6.95894 14.9797 6.70143 14.1907 6.7882C13.8146 6.82957 13.4454 6.9492 13.11 7.1471C12.9192 7.25966 12.7394 7.39754 12.5753 7.56074C12.037 8.09628 11.7727 8.80122 11.7825 9.50307C11.792 10.1798 12.0562 10.8537 12.5753 11.3701C12.6995 11.4936 12.8327 11.6026 12.9729 11.6972C14.0264 12.4075 15.4714 12.2985 16.4047 11.3701C16.5691 11.2065 16.708 11.0271 16.8213 10.8368C17.0465 10.4586 17.1706 10.0373 17.1938 9.61168Z" fill="black"/>
<path d="M18.1365 11.5638C18.7175 10.5663 18.8505 9.38136 18.5357 8.298L21.6702 5.17982L21.9096 5.41796C23.3636 6.86435 23.3636 9.20942 21.9096 10.6558C20.8889 11.6712 19.4227 11.974 18.1365 11.5638Z" fill="black"/>
<path d="M11.5749 12.4894C12.3267 13.2072 13.2803 13.5935 14.2493 13.6483L13.6048 16.2131C13.3429 17.255 12.8192 18.2123 12.0842 18.9957C12.0671 18.9745 12.0486 18.954 12.0288 18.9343L9.97136 16.8876C9.94952 16.8658 9.92668 16.8457 9.90298 16.8272C10.389 16.213 10.7479 15.5061 10.9559 14.7474L11.5749 12.4894Z" fill="black"/>
<path d="M11.387 12.2984C10.6852 11.5388 10.3165 10.5839 10.2811 9.61923L7.82249 10.2307C6.72264 10.5042 5.7166 11.0651 4.90822 11.8548C4.93088 11.8727 4.95275 11.8922 4.97369 11.9131L5.52958 12.469L7.03677 13.9683C7.05175 13.9832 7.06596 13.9986 7.07942 14.0144C7.72545 13.4793 8.48095 13.0868 9.29594 12.8657L11.387 12.2984Z" fill="black"/>
<path d="M3.85211 12.905L2.86452 13.8874L2.97723 14.0053L5.01564 16.033L6.00098 15.0528C5.99351 15.046 5.98614 15.0389 5.97889 15.0317L4.46962 13.5303L3.91303 12.9738C3.89108 12.9518 3.87077 12.9288 3.85211 12.905Z" fill="black"/>
<path d="M1.44611 15.2984L1.80087 14.9455L1.90608 15.0555L3.95219 17.0909L3.60012 17.4412C3.0053 18.0329 2.04092 18.0329 1.44611 17.4412C0.851297 16.8495 0.851297 15.8901 1.44611 15.2984Z" fill="black"/>
<path d="M6.3564 20.4135L6.82428 19.948L8.8445 21.9577L8.84979 21.9629L8.97958 22.0895L8.51041 22.5562C7.9156 23.1479 6.95121 23.1479 6.3564 22.5562C5.76159 21.9645 5.76159 21.0052 6.3564 20.4135Z" fill="black"/>
<path d="M11.0295 20.0503L10.0431 21.0315L9.89975 20.8916L7.88773 18.8901L8.87419 17.9088C8.88665 17.9233 8.89975 17.9373 8.91349 17.951L10.971 19.9977C10.9898 20.0164 11.0093 20.0339 11.0295 20.0503Z" fill="black"/>
</svg>
