<svg width="24" height="24" viewBox="0 0 24 24" fill="none" xmlns="http://www.w3.org/2000/svg">
<path d="M6.05536 8.08514L8.76835 3.4144L8.80076 3.36006C9.30226 4.63606 10.5436 5.53778 12 5.53778C13.4523 5.53778 14.6978 4.64107 15.2124 3.37129L15.2382 3.4144L17.9512 8.08514L18.244 7.91707C20.0228 6.89629 20.6298 4.63113 19.5997 2.8577C18.618 1.16758 16.5035 0.533583 14.7673 1.36137L14.6369 1.42709C14.6369 1.42704 14.6369 1.42714 14.6369 1.42709L14.4164 1.52153C14.153 1.63421 13.9767 1.88716 13.9623 2.17335C13.9589 2.24064 13.9521 2.30688 13.9422 2.37193C13.798 3.31428 12.98 4.03778 12 4.03778C11.016 4.03778 10.2067 3.30864 10.0805 2.36192C10.0726 2.30265 10.0674 2.24237 10.065 2.18118C10.0529 1.87926 9.86082 1.61406 9.57772 1.50843L9.39469 1.44014C9.39469 1.44014 9.39469 1.44015 9.39469 1.44014L9.23922 1.36137C8.72661 1.11696 8.18101 0.999987 7.64134 1C6.35316 1.00003 5.09869 1.6666 4.40684 2.8577C3.37675 4.63113 3.9837 6.89629 5.76249 7.91707L6.05536 8.08514Z" fill="black"/>
<path fill-rule="evenodd" clip-rule="evenodd" d="M8.43194 19.9134L7.19972 14.0254C7.19762 14.0154 7.1929 14.0063 7.1861 13.999L7.11514 13.9234C6.40101 13.1627 5.99999 12.1323 6 11.0581L6.00001 10.5435C6.00003 8.58647 7.4937 7 9.33624 7C9.75762 7 10.1752 7.08479 10.5669 7.24988L10.8953 7.38833C11.6005 7.68557 12.3859 7.68606 13.0914 7.38968L13.4265 7.24892C13.818 7.08445 14.2352 7 14.6563 7C16.503 7 18 8.59007 18 10.5515V11.0557C18 12.1313 17.5977 13.1628 16.8816 13.9234L16.8104 13.999C16.8036 14.0063 16.7989 14.0154 16.7968 14.0254L15.5471 19.987C15.4257 20.5661 14.942 20.9781 14.3834 20.9781C13.8861 20.9781 13.4411 20.6502 13.2668 20.1555L12.1083 16.8667C12.0726 16.7655 11.9368 16.7689 11.9057 16.8718L10.9517 20.0355C10.7755 20.6198 10.259 21.0119 9.68144 20.9997C9.0789 20.987 8.56271 20.5382 8.43194 19.9134ZM8.93771 9.19736C9.13199 8.83153 9.58604 8.69247 9.95187 8.88675C11.3199 9.61328 12.6803 9.61328 14.0483 8.88675C14.4142 8.69247 14.8682 8.83153 15.0625 9.19736C15.2568 9.56319 15.1177 10.0172 14.7519 10.2115C12.9439 11.1717 11.0563 11.1717 9.24833 10.2115C8.8825 10.0172 8.74343 9.56319 8.93771 9.19736Z" fill="black"/>
<path d="M9.64981 22.4994C10.6858 22.5212 11.5814 21.9688 12.0832 21.1488C12.5514 21.9387 13.3987 22.4781 14.3834 22.4781C15.7111 22.4781 16.7606 21.5088 17.0151 20.2948L18.1251 15H22C22.5523 15 23 15.4477 23 16V22C23 22.5523 22.5523 23 22 23H2C1.44772 23 1 22.5523 1 22V16C1 15.4477 1.44772 15 2 15H5.87118L6.96374 20.2206C7.22538 21.4708 8.29168 22.4707 9.64981 22.4994Z" fill="black"/>
</svg>
