<svg width="24" height="24" viewBox="0 0 24 24" fill="none" xmlns="http://www.w3.org/2000/svg">
<g clip-path="url(#clip0_1607_10639)">
<path fill-rule="evenodd" clip-rule="evenodd" d="M18.7067 1.45715C21.6272 1.98814 23.75 4.53172 23.75 7.50005V9.98015C23.75 10.4054 23.4053 10.75 22.9801 10.75H20.75V10.9801C20.75 11.4054 20.4053 11.75 19.9801 11.75H16.75V11.9801C16.75 12.4054 16.4053 12.75 15.9801 12.75H12.0199L12 12.7498L11.9801 12.75H8.0199C7.59469 12.75 7.25 12.4053 7.25 11.9801V11.75H4.0199C3.5947 11.75 3.25 11.4054 3.25 10.9801V10.75H1.0199C0.594705 10.75 0.25 10.4054 0.25 9.98015V7.50005C0.25 4.53172 2.37281 1.98814 5.29326 1.45715L5.86991 1.35231C9.92341 0.615312 14.0766 0.615311 18.1301 1.35231L18.7067 1.45715ZM18 7.75005C18.6904 7.75005 19.25 8.30969 19.25 9.00005V10.25H16.75V9.00005C16.75 8.30969 17.3096 7.75005 18 7.75005ZM14 8.75005C14.6904 8.75005 15.25 9.30969 15.25 10V11.25H12.75V10C12.75 9.30969 13.3096 8.75005 14 8.75005ZM11.25 10V11.25H8.75V10C8.75 9.30969 9.30964 8.75005 10 8.75005C10.6904 8.75005 11.25 9.30969 11.25 10ZM7.25 9.00005V10.25H4.75V9.00005C4.75 8.30969 5.30964 7.75005 6 7.75005C6.69036 7.75005 7.25 8.30969 7.25 9.00005ZM21.5 6.75005C21.9142 6.75005 22.25 7.08583 22.25 7.50005V9.25005H20.75V7.50005C20.75 7.08583 21.0858 6.75005 21.5 6.75005ZM2.5 6.75005C2.91421 6.75005 3.25 7.08583 3.25 7.50005V9.25005H1.75V7.50005C1.75 7.08583 2.08579 6.75005 2.5 6.75005Z" fill="black"/>
<path fill-rule="evenodd" clip-rule="evenodd" d="M4.75 14.0199V14.25L7.9801 14.25C8.40528 14.25 8.75 14.5947 8.75 15.0199V15.25L11.9801 15.25L12 15.2503L12.0199 15.25L15.25 15.25V15.0199C15.25 14.5947 15.5947 14.25 16.0199 14.25L19.25 14.25V14.0199C19.25 13.5947 19.5947 13.25 20.0199 13.25H22.9801C23.4054 13.25 23.75 13.5948 23.75 14.0199V16.5C23.75 19.4684 21.6272 22.012 18.7067 22.5429L18.1301 22.6478C14.0766 23.3848 9.92341 23.3848 5.86991 22.6478L5.29326 22.5429C2.37281 22.0119 0.25 19.4684 0.25 16.5V14.0199C0.25 13.5947 0.594708 13.25 1.0199 13.25H3.9801C4.4053 13.25 4.75 13.5947 4.75 14.0199ZM1.75 16.5L1.75 14.75H3.25V16.5C3.25 16.9143 2.91421 17.25 2.5 17.25C2.08579 17.25 1.75 16.9143 1.75 16.5ZM4.75 17V15.75L7.25 15.75L7.25 17C7.25 17.6904 6.69036 18.25 6 18.25C5.30964 18.25 4.75 17.6904 4.75 17ZM14 19.25C13.3096 19.25 12.75 18.6904 12.75 18V16.75L15.25 16.75V18C15.25 18.6904 14.6904 19.25 14 19.25ZM10 19.25C10.6904 19.25 11.25 18.6904 11.25 18V16.75L8.75 16.75V18C8.75 18.6904 9.30964 19.25 10 19.25ZM16.75 17V15.75L19.25 15.75V17C19.25 17.6904 18.6904 18.25 18 18.25C17.3096 18.25 16.75 17.6904 16.75 17ZM22.25 14.75V16.5C22.25 16.9143 21.9142 17.25 21.5 17.25C21.0858 17.25 20.75 16.9143 20.75 16.5V14.75H22.25Z" fill="black"/>
</g>
<defs>
<clipPath id="clip0_1607_10639">
<rect width="24" height="24" fill="white"/>
</clipPath>
</defs>
</svg>
