<svg width="24" height="24" viewBox="0 0 24 24" fill="none" xmlns="http://www.w3.org/2000/svg">
<path d="M13.8604 4.06859L15.1256 2.8251L16.2874 3.98698C16.5803 4.27988 17.0552 4.27988 17.3481 3.98699C17.641 3.69409 17.641 3.21922 17.3481 2.92633L16.1954 1.7736L16.6861 1.29131C17.0813 0.902895 17.722 0.902896 18.1172 1.29131L20.2306 3.377C20.569 3.28702 20.9456 3.37272 21.2112 3.63384L21.7036 4.11778C22.0988 4.5062 22.0988 5.13594 21.7036 5.52436L4.21988 22.7087C3.82469 23.0972 3.18396 23.0972 2.78877 22.7087L2.29639 22.2248C1.9012 21.8364 1.9012 21.2066 2.29639 20.8182L14.2899 9.03003L14.2854 9.03432L12.2798 7.02868C11.8846 6.64027 11.8846 6.01052 12.2798 5.6221L12.7906 5.12008L13.9525 6.28198C14.2454 6.57487 14.7203 6.57486 15.0132 6.28196C15.3061 5.98906 15.306 5.51419 15.0131 5.2213L13.8604 4.06859Z" fill="black"/>
</svg>
