<svg width="24" height="24" viewBox="0 0 24 24" fill="none" xmlns="http://www.w3.org/2000/svg">
<path d="M22.2111 1.30063C21.8781 0.967615 21.3611 0.903979 20.9573 1.14628L18.7157 2.49122C18.1476 2.83211 18.0474 3.61274 18.5072 4.08606L18.3852 3.964C18.1412 3.72005 17.791 3.61498 17.4531 3.68434L15.8122 4.0211L19.9671 8.17592L20.3121 6.55183C20.3844 6.2119 20.2797 5.85851 20.0339 5.61278L19.9148 5.49362C20.3881 5.95337 21.1687 5.85321 21.5096 5.28508L22.8545 3.04351C23.0968 2.63967 23.0332 2.12274 22.7002 1.78972L22.2111 1.30063Z" fill="black"/>
<path fill-rule="evenodd" clip-rule="evenodd" d="M3.84747 12.6705L14.3332 4.6472C14.3705 4.73107 14.4236 4.80963 14.4923 4.87841L19.2318 9.61784C19.2564 9.64249 19.2823 9.66512 19.3093 9.68573L11.2368 20.2668C11.2112 20.1147 11.1397 19.9688 11.0224 19.8514L3.84747 12.6705ZM13.693 7.87416C14.0938 7.47335 14.7437 7.47335 15.1445 7.87416L16.1265 8.85623C16.5274 9.25705 16.5274 9.90689 16.1265 10.3077L11.4191 15.0152C11.0183 15.416 10.3684 15.416 9.9676 15.0152L8.98552 14.0331C8.58471 13.6323 8.58471 12.9824 8.98552 12.5816L13.693 7.87416Z" fill="black"/>
<path d="M2.62697 13.6044L1.40268 14.5412C0.909803 14.9183 0.861796 15.6432 1.30063 16.082L7.91798 22.6994C8.35722 23.1386 9.08292 23.09 9.45971 22.5962L10.5543 21.1615C10.3325 21.1834 10.1031 21.1095 9.93333 20.9395L2.7267 13.7269C2.68863 13.6888 2.65539 13.6477 2.62697 13.6044Z" fill="black"/>
</svg>
