<svg width="24" height="24" viewBox="0 0 24 24" fill="none" xmlns="http://www.w3.org/2000/svg">
<path fill-rule="evenodd" clip-rule="evenodd" d="M3.99952 12.024L6.05322 21.2631C6.27117 22.2436 7.13149 22.9478 8.13573 22.9678C9.09828 22.9869 9.95914 22.3717 10.2528 21.4548L11.8429 16.4905C11.8946 16.329 12.121 16.3236 12.1804 16.4824L14.1113 21.6431C14.4018 22.4194 15.1435 22.9338 15.9723 22.9338C16.9033 22.9338 17.7094 22.2874 17.9117 21.3787L19.9946 12.024C19.9981 12.0083 20.006 11.994 20.0174 11.9826L20.136 11.864C21.3295 10.6705 22 9.05179 22 7.36396V6.5729C22 3.49507 19.5049 1 16.4271 1C15.7254 1 15.03 1.13252 14.3774 1.3906L13.819 1.61147C12.6431 2.07653 11.3342 2.07577 10.1588 1.60934L9.61141 1.3921C8.95863 1.13305 8.26269 1 7.56039 1C4.4895 1 2.00004 3.48943 2.00001 6.56032L2 7.36773C1.99998 9.0534 2.66835 10.6703 3.85857 11.864L3.97683 11.9826C3.98817 11.994 3.99604 12.0083 3.99952 12.024ZM8.33538 4.32918C7.9649 4.14394 7.51439 4.29411 7.32915 4.66459C7.14391 5.03507 7.29408 5.48558 7.66456 5.67082L8.08685 5.88197C10.5502 7.11365 13.4497 7.11365 15.9131 5.88197L16.3354 5.67082C16.7059 5.48558 16.856 5.03507 16.6708 4.66459C16.4855 4.29411 16.035 4.14394 15.6646 4.32918L15.2423 4.54033C13.2012 5.56086 10.7987 5.56086 8.75767 4.54033L8.33538 4.32918Z" fill="black"/>
</svg>
