<svg width="24" height="24" viewBox="0 0 24 24" fill="none" xmlns="http://www.w3.org/2000/svg">
<path d="M20.329 0.66451C20.5143 0.294026 20.9648 0.143858 21.3353 0.3291C21.7057 0.514342 21.8559 0.964846 21.6707 1.33533L20.7242 3.22816C20.4871 3.70249 19.8782 3.84622 19.454 3.52803L18.3327 2.6871L17.6962 4.27846C17.5424 4.66305 17.1059 4.85011 16.7213 4.69628C16.3367 4.54244 16.1496 4.10596 16.3035 3.72138L17.255 1.34253C17.4627 0.823215 18.1068 0.642618 18.5542 0.97821L19.7309 1.86072L20.329 0.66451Z" fill="black"/>
<path fill-rule="evenodd" clip-rule="evenodd" d="M13.2917 21.704L14.9094 14.5184C14.9121 14.5063 14.9182 14.4953 14.9269 14.4865L15.0184 14.3948C15.9381 13.4724 16.4545 12.223 16.4545 10.9204L16.4545 10.2965C16.4545 7.92357 14.5308 5.99992 12.1579 5.99992C11.6152 5.99992 11.0774 6.10273 10.573 6.30291L10.15 6.47078C9.24175 6.8312 8.23029 6.83179 7.32166 6.47242L6.89013 6.30175C6.38591 6.10232 5.84856 5.99992 5.30633 5.99992C2.92801 5.99992 1 7.92793 1 10.3062V10.9175C1 12.2218 1.5181 13.4726 2.44033 14.3948L2.53197 14.4864C2.54078 14.4952 2.54688 14.5064 2.54958 14.5185L4.16087 21.799C4.31613 22.5006 4.9381 22.9999 5.65661 22.9999C6.29735 22.9999 6.8704 22.6012 7.09306 22.0004L8.58561 17.9731C8.63209 17.8477 8.81082 17.8517 8.85161 17.979L10.0901 21.8458C10.3104 22.5334 10.9496 22.9999 11.6716 22.9999C12.4482 22.9999 13.1211 22.4617 13.2917 21.704ZM12.4889 8.75539C12.3036 8.38491 11.8531 8.23474 11.4827 8.41998L11.1563 8.58314C9.62714 9.34774 7.82718 9.34774 6.29798 8.58314L5.97166 8.41998C5.60118 8.23474 5.15067 8.38491 4.96543 8.75539C4.78019 9.12588 4.93036 9.57638 5.30084 9.76162L5.62716 9.92478C7.57866 10.9005 9.87567 10.9005 11.8272 9.92478L12.1535 9.76162C12.524 9.57638 12.6741 9.12588 12.4889 8.75539Z" fill="black"/>
<path d="M23.5997 5.04997C23.3512 4.71861 22.8811 4.65147 22.5497 4.90002L21.2688 5.8608L20.7242 4.77171C20.4871 4.2974 19.8782 4.15369 19.454 4.47187L17.5498 5.89998C17.2185 6.14851 17.1513 6.61861 17.3998 6.94998C17.6484 7.28135 18.1185 7.34851 18.4498 7.09998L19.7309 6.13916L20.2756 7.22828C20.5127 7.7026 21.1216 7.84631 21.5458 7.52809L23.4498 6.09997C23.7812 5.85143 23.8483 5.38133 23.5997 5.04997Z" fill="black"/>
<path d="M22.9997 11.2498C23.4139 11.2499 23.7497 11.5856 23.7497 11.9999C23.7497 12.4141 23.4139 12.7499 22.9997 12.7498L20.1475 12.7498C19.5462 12.7498 19.135 12.1425 19.3583 11.5842L19.9685 10.0585L18.3526 9.73529C17.9464 9.65405 17.683 9.25893 17.7643 8.85277C17.8455 8.4466 18.2406 8.18318 18.6468 8.26442L21.0289 8.74084C21.55 8.84506 21.8488 9.39656 21.6514 9.88999L21.1076 11.2498L22.9997 11.2498Z" fill="black"/>
</svg>
