<svg width="24" height="24" viewBox="0 0 24 24" fill="none" xmlns="http://www.w3.org/2000/svg">
<g clip-path="url(#clip0_1607_8107)">
<path d="M14.8987 3.75577V3.78969M18.106 11.2397V11.2736M21.3134 5.89403V5.92795M17.5715 16.5853C18.8798 16.5853 20.1304 16.3379 21.279 15.8873C22.25 15.5064 23.3988 16.3666 22.8638 17.2621C20.8109 20.6987 17.0544 23 12.7604 23C6.26531 23 1 17.7347 1 11.2396C1 6.94555 3.30137 3.18902 6.73798 1.13613C7.63348 0.601197 8.49363 1.74995 8.11271 2.72102C7.66215 3.8696 7.41477 5.12018 7.41477 6.42854C7.41477 12.0379 11.9621 16.5853 17.5715 16.5853Z" stroke="black" stroke-width="1.5" stroke-linecap="round"/>
</g>
<defs>
<clipPath id="clip0_1607_8107">
<rect width="24" height="24" fill="white"/>
</clipPath>
</defs>
</svg>
