<svg width="24" height="24" viewBox="0 0 24 24" fill="none" xmlns="http://www.w3.org/2000/svg">
<path d="M7.5 18.9044L4.99998 22.8832M16.5 18.9046L14 22.8831M4.5 14.9258L2 18.9048M22 14.9255L19.5 18.9046M17.7273 11.9417C19.5347 11.9417 21 10.542 21 8.81548C21 7.33998 19.9299 6.10322 18.4905 5.77477C18.4587 5.76751 18.434 5.74314 18.4276 5.71248C17.8684 3.02542 15.3864 1 12.4091 1C9.18357 1 6.5393 3.37723 6.29167 6.39759C6.28831 6.43863 6.25263 6.47084 6.20953 6.47084H5.86363C4.28209 6.47084 3 7.69553 3 9.20626C3 10.717 4.28209 11.9417 5.86363 11.9417H17.7273ZM12.0041 16.2595H9.44695C9.06716 16.2595 8.86108 15.7304 9.10641 15.3851L11.099 12.581L11.5455 11.9417H13.1364L13.0911 12.581L12.9516 14.0757C12.9487 14.1072 12.9693 14.1347 12.9959 14.1347H15.553C15.9328 14.1347 16.1389 14.6638 15.8936 15.009L12.5534 19.7096C12.2688 20.11 11.7208 19.8291 11.7695 19.3078L12.0484 16.3184C12.0513 16.287 12.0306 16.2595 12.0041 16.2595Z" stroke="black" stroke-width="1.5" stroke-linecap="round"/>
</svg>
