<svg width="24" height="24" viewBox="0 0 24 24" fill="none" xmlns="http://www.w3.org/2000/svg">
<path d="M13.4288 11.9641L13.2097 14.2181C13.205 14.2655 13.2376 14.307 13.2793 14.307H17.2976C17.8945 14.307 18.2183 15.1049 17.8328 15.6255L12.5839 22.7139C12.1367 23.3178 11.2756 22.8943 11.352 22.108L11.7903 17.6001C11.795 17.5527 11.7624 17.5112 11.7207 17.5112H7.70236C7.10555 17.5112 6.78171 16.7133 7.16722 16.1927L10.2884 11.9641M17.7273 12C19.5347 12 21 10.5929 21 8.85714C21 7.37377 19.9299 6.13043 18.4905 5.80022C18.4587 5.79292 18.434 5.76842 18.4276 5.7376C17.8684 3.03621 15.3864 1 12.4091 1C9.18357 1 6.5393 3.3899 6.29167 6.42636C6.28831 6.46762 6.25264 6.5 6.20954 6.5H5.86364C4.28209 6.5 3 7.73122 3 9.25C3 10.7688 4.28209 12 5.86364 12H17.7273Z" stroke="black" stroke-width="1.5"/>
</svg>
