<svg width="24" height="24" viewBox="0 0 24 24" fill="none" xmlns="http://www.w3.org/2000/svg">
<g clip-path="url(#clip0_1607_8135)">
<path d="M21 13H22C22.5523 13 23 13.4477 23 14C23 14.5523 22.5523 15 22 15H11M21 23H22C22.5523 23 23 22.5523 23 22C23 21.4477 22.5523 21 22 21H11M6 18H15.5M15.7273 12C17.5347 12 19 10.5929 19 8.85714C19 7.37377 17.9299 6.13043 16.4905 5.80022C16.4587 5.79292 16.434 5.76842 16.4276 5.7376C15.8684 3.03621 13.3864 1 10.4091 1C7.18357 1 4.5393 3.3899 4.29167 6.42636C4.28831 6.46762 4.25264 6.5 4.20954 6.5H3.86364C2.28209 6.5 1 7.73122 1 9.25C1 10.7688 2.28209 12 3.86364 12H15.7273Z" stroke="black" stroke-width="1.5" stroke-linecap="round"/>
</g>
<defs>
<clipPath id="clip0_1607_8135">
<rect width="24" height="24" fill="white"/>
</clipPath>
</defs>
</svg>
