<svg width="24" height="24" viewBox="0 0 24 24" fill="none" xmlns="http://www.w3.org/2000/svg">
<g clip-path="url(#clip0_1607_9700)">
<path d="M13 6.9231V2C13 1.44772 12.5523 1 12 1H2C1.44772 1 1 1.44772 1 2V22C1 22.5523 1.44772 23 2 23H12C12.5523 23 13 22.5523 13 22V20.5674M7 20V20.0318M4.5 4H9.5M15.6242 10.6683L16.8185 10.0712C16.8505 10.0552 16.8881 10.0785 16.8881 10.1142V13.8281M19.2652 10.6832L20.4594 10.0861C20.4914 10.0701 20.5291 10.0933 20.5291 10.1291V13.8429M13.4834 10.8789V10.9768C13.4834 11.0858 13.4613 11.1937 13.4183 11.2939L12.2759 13.9596M11.8962 19.5714L11.8928 17.0819C11.8927 17.0225 11.8446 16.9744 11.7851 16.9744H10C9.44772 16.9744 9 16.5267 9 15.9744V7.9231C9 7.37081 9.44772 6.9231 10 6.9231L22 6.9231C22.5523 6.9231 23 7.37081 23 7.9231V15.9744C23 16.5267 22.5523 16.9744 22 16.9744L16.9148 16.9744C16.886 16.9744 16.8584 16.9859 16.8382 17.0063L13.6072 20.2733C12.9793 20.9082 11.8974 20.4644 11.8962 19.5714ZM13.4834 10.9408C13.4834 11.4965 13.0329 11.9471 12.4772 11.9471C11.9215 11.9471 11.4709 11.4965 11.4709 10.9408C11.4709 10.3851 11.9215 9.93457 12.4772 9.93457C13.0329 9.93457 13.4834 10.3851 13.4834 10.9408Z" stroke="black" stroke-width="1.5" stroke-linecap="round"/>
</g>
<defs>
<clipPath id="clip0_1607_9700">
<rect width="24" height="24" fill="white"/>
</clipPath>
</defs>
</svg>
