<svg width="24" height="24" viewBox="0 0 24 24" fill="none" xmlns="http://www.w3.org/2000/svg">
<g clip-path="url(#clip0_1607_9704)">
<path d="M16.1615 4.47768L17.1911 3.96323C17.2576 3.92998 17.3359 3.97833 17.3359 4.05267V7.41171M19.5449 4.49159L20.5745 3.97715C20.6411 3.9439 20.7193 3.99225 20.7193 4.06659V7.42563M14.1723 4.67325V4.76419C14.1723 4.86541 14.1518 4.96559 14.1118 5.05863L13.0503 7.53391M1.01603 7.59069C1.45287 19.4854 10.704 23.132 16.5943 22.9964C17.0726 22.9854 17.4503 22.6087 17.501 22.1334L17.9142 18.2568C17.9694 17.7391 17.6178 17.2657 17.106 17.1684L14.1605 16.609C13.7337 16.5279 13.3033 16.7313 13.0952 17.1124L12.3677 18.4449C12.3443 18.4877 12.2935 18.5075 12.2475 18.4914C9.55942 17.5536 7.07029 15.8464 5.42068 12.0042C5.40112 11.9587 5.4179 11.905 5.46027 11.8792L6.84406 11.0371C7.20592 10.817 7.38981 10.3929 7.30315 9.9785L6.66065 6.90578C6.55375 6.39457 6.0712 6.05164 5.55289 6.11856L1.87247 6.59368C1.3735 6.65809 0.99758 7.08827 1.01603 7.59069ZM12.6974 12.7449L12.6943 10.4332C12.6943 10.378 12.6495 10.3333 12.5943 10.3333H10.9355C10.4223 10.3333 10.0063 9.9176 10.0063 9.40477V1.92857C10.0063 1.41574 10.4223 1 10.9355 1L22.0862 1C22.5994 1 23.0154 1.41574 23.0154 1.92857V9.40476C23.0154 9.9176 22.5994 10.3333 22.0862 10.3333L17.3609 10.3333C17.3341 10.3333 17.3085 10.344 17.2897 10.363L14.2873 13.3966C13.7039 13.9861 12.6986 13.574 12.6974 12.7449ZM14.1724 4.73075C14.1724 5.24679 13.7537 5.66512 13.2373 5.66512C12.7209 5.66512 12.3023 5.24679 12.3023 4.73075C12.3023 4.21472 12.7209 3.79639 13.2373 3.79639C13.7537 3.79639 14.1724 4.21472 14.1724 4.73075Z" stroke="black" stroke-width="1.5" stroke-linecap="round"/>
</g>
<defs>
<clipPath id="clip0_1607_9704">
<rect width="24" height="24" fill="white"/>
</clipPath>
</defs>
</svg>
