<svg width="24" height="24" viewBox="0 0 24 24" fill="none" xmlns="http://www.w3.org/2000/svg">
<g clip-path="url(#clip0_1607_9716)">
<path d="M17.4719 14.4744V13.7172C17.4719 12.9529 16.8524 12.3333 16.0883 12.3333C15.334 12.3333 14.7206 12.9371 14.705 13.6878V8.3839C14.705 7.6196 14.0855 7 13.3213 7C12.5572 7 11.9377 7.6196 11.9377 8.3839V17.3364C11.9377 17.5601 11.8334 17.7711 11.6556 17.9069C11.3609 18.132 10.9434 18.0955 10.6922 17.8228L10.1834 17.2705C9.4471 16.4712 8.24897 16.3329 7.34048 16.9423C7.00863 17.1649 6.9021 17.6115 7.09789 17.9593L10.1105 23M17.4719 14.4744C17.5398 13.7717 18.1319 13.2222 18.8523 13.2222C19.6182 13.2222 20.2392 13.8433 20.2392 14.6094V15.361C20.3065 14.6596 20.8974 14.1111 21.6164 14.1111C22.3805 14.1111 23 14.7307 23 15.495V17.7089C23 17.7588 22.9974 17.8081 22.9922 17.8566V23M17.4719 14.4744C17.4719 14.4744 17.4719 14.4743 17.4719 14.4744ZM17.4719 14.4744L17.4719 13.7697M17.4719 14.4744L17.4719 15.8889M14.7047 11.4444V15.8889M20.2391 14.7875V15.8889M4 2.5C4 3.32843 3.32843 4 2.5 4C1.67157 4 1 3.32843 1 2.5C1 1.67157 1.67157 1 2.5 1C3.32843 1 4 1.67157 4 2.5ZM17 2.5C17 3.32843 16.3284 4 15.5 4C14.6716 4 14 3.32843 14 2.5C14 1.67157 14.6716 1 15.5 1C16.3284 1 17 1.67157 17 2.5ZM4 8.5C4 9.32843 3.32843 10 2.5 10C1.67157 10 1 9.32843 1 8.5C1 7.67157 1.67157 7 2.5 7C3.32843 7 4 7.67157 4 8.5ZM4 14.5C4 15.3284 3.32843 16 2.5 16C1.67157 16 1 15.3284 1 14.5C1 13.6716 1.67157 13 2.5 13C3.32843 13 4 13.6716 4 14.5ZM23 2.5C23 3.32843 22.3284 4 21.5 4C20.6716 4 20 3.32843 20 2.5C20 1.67157 20.6716 1 21.5 1C22.3284 1 23 1.67157 23 2.5ZM10 8.5C10 9.32843 9.32843 10 8.5 10C7.67157 10 7 9.32843 7 8.5C7 7.67157 7.67157 7 8.5 7C9.32843 7 10 7.67157 10 8.5ZM23 8.5C23 9.32843 22.3284 10 21.5 10C20.6716 10 20 9.32843 20 8.5C20 7.67157 20.6716 7 21.5 7C22.3284 7 23 7.67157 23 8.5Z" stroke="black" stroke-width="1.5" stroke-linecap="round"/>
</g>
<defs>
<clipPath id="clip0_1607_9716">
<rect width="24" height="24" fill="white"/>
</clipPath>
</defs>
</svg>
