<svg width="24" height="24" viewBox="0 0 24 24" fill="none" xmlns="http://www.w3.org/2000/svg">
<g clip-path="url(#clip0_1607_9720)">
<path d="M12 5C13.1046 5 14 4.10457 14 3C14 1.89543 13.1046 1 12 1C10.8954 1 10 1.89543 10 3C10 4.10457 10.8954 5 12 5ZM12 5L12 23M6.5 8L5.37255 9.14324M4 6.5L2.98108 7.5251M17.5 8L18.6425 9.13641M20 6.5L21.0231 7.52268M14.1125 13C14.1125 13 15.7744 13.8715 14.8102 15.5714C13.9999 17 9.84191 17.1234 9.31024 19.5715C9 21 10 22 10 22M9.8985 13C9.8985 13 8.2366 13.8715 9.20079 15.5714C10.0111 17 14.1691 17.1234 14.7007 19.5715C15.011 21 14.011 22 14.011 22M1 4V5.61058C1 6.65408 1.84592 7.5 2.88942 7.5C2.95725 7.5 3.01931 7.53814 3.04996 7.59865L3.37978 8.25C3.61273 8.71004 4.08458 9 4.60023 9H4.7192C5.21073 9 5.67356 9.23142 5.96848 9.62464L6.06198 9.7493C6.60517 10.4736 7.58858 10.7057 8.39832 10.3008L10.2111 9.39443C11.3373 8.83137 12.6627 8.83137 13.7889 9.39443L15.6017 10.3008C16.4114 10.7057 17.3948 10.4736 17.938 9.7493L18.0315 9.62464C18.3264 9.23142 18.7893 9 19.2808 9H19.3998C19.9154 9 20.3873 8.71004 20.6202 8.25L20.95 7.59865C20.9807 7.53814 21.0428 7.5 21.1106 7.5C22.1541 7.5 23 6.65408 23 5.61058V4C20.8882 4 18.7763 4 16.6645 4C16.5651 4 16.4758 4.06048 16.4389 4.15271C15.858 5.60495 14.5457 6.63633 12.9973 6.85753L12.1819 6.97402C12.0616 6.9912 11.9393 6.98632 11.8208 6.95964L10.4589 6.65298C9.20465 6.23488 8.16782 5.33565 7.57655 4.15309C7.52963 4.05927 7.43374 4 7.32884 4C5.21922 4 3.10961 4 1 4Z" stroke="black" stroke-width="1.5" stroke-linecap="round" stroke-linejoin="round"/>
</g>
<defs>
<clipPath id="clip0_1607_9720">
<rect width="24" height="24" fill="white"/>
</clipPath>
</defs>
</svg>
