<svg width="24" height="24" viewBox="0 0 24 24" fill="none" xmlns="http://www.w3.org/2000/svg">
<g clip-path="url(#clip0_1607_9725)">
<path d="M12.0235 7.1383L10.115 4.64036M12.0235 11.0733L14.0296 13.6912C14.2112 13.9282 14.5405 13.9946 14.8 13.8466L15.8442 13.2511C16.1576 13.0724 16.2416 12.6592 16.0228 12.3728L13.5343 9.11572M8.30907 2.42709C9.26732 1.54139 10.5498 1 11.9589 1C13.3681 1 14.6505 1.54139 15.6088 2.42709M3.5 23L1.25192 19.6279C1.08766 19.3815 1 19.092 1 18.7958V14.25C1 13.5596 1.55964 13 2.25 13C2.94036 13 3.5 13.5596 3.5 14.25V17.0211C3.5 17.1162 3.52712 17.2093 3.57817 17.2895L3.82713 17.6807M5.44444 20.2222L3.82713 17.6807M8.22228 23.0002V20.4238C8.22228 19.9302 8.07618 19.4477 7.8024 19.037L6.79343 17.5236C6.34928 16.8573 5.46019 16.6574 4.77361 17.0694L4.61117 17.1668L3.82713 17.6807M20.7222 23L22.782 19.6088C22.9246 19.3741 23 19.1048 23 18.8301V14.2499C23 13.5596 22.4404 13 21.75 13C21.0597 13 20.5001 13.5596 20.5001 14.2499V17.0211C20.5001 17.1162 20.473 17.2093 20.4219 17.2895L20.3909 17.3383M18.5557 20.2222L20.3909 17.3383M16.0001 23V20.0903C16.0001 19.5967 16.1462 19.1142 16.42 18.7035L17.429 17.1901C17.8731 16.5238 18.7622 16.3239 19.4488 16.7359L19.6112 16.8333L20.3909 17.3383M10.115 4.64036L8.39853 2.39383C8.38711 2.37887 8.36531 2.37685 8.35132 2.38945C7.35428 3.2871 7.21464 4.79812 8.03036 5.86258L10.5232 9.11561M10.115 4.64036L10.1681 4.57409C10.1681 4.57409 10.765 3.71678 11.9589 3.71678C13.1528 3.71678 13.7497 4.57409 13.7497 4.57409L13.8727 4.73163M13.8727 4.73163L15.6017 2.46873C15.6131 2.45377 15.6349 2.45175 15.6489 2.46435C16.6459 3.362 16.7856 4.87302 15.9699 5.93748L13.5343 9.11572M13.8727 4.73163L10.5232 9.11561M10.5232 9.11561L7.97744 12.4477C7.75859 12.7341 7.84258 13.1473 8.15598 13.326L9.20022 13.9215C9.45976 14.0695 9.78899 14.0031 9.97057 13.7661L13.5343 9.11572" stroke="black" stroke-width="1.5" stroke-linecap="round"/>
</g>
<defs>
<clipPath id="clip0_1607_9725">
<rect width="24" height="24" fill="white"/>
</clipPath>
</defs>
</svg>
