<svg width="24" height="24" viewBox="0 0 24 24" fill="none" xmlns="http://www.w3.org/2000/svg">
<g clip-path="url(#clip0_1607_9737)">
<path d="M7.99998 19.5006V17.5017C7.99998 16.949 8.44842 16.5011 9.00117 16.5017L15.2761 16.5092C15.8288 16.5098 16.2772 16.0619 16.2772 15.5092L16.2738 7.73777M6.99998 18.5H8.99998M17.5 3.5V3.53178M14.5 3.5V3.53178M20.5 3.5V3.53178M9.54019 6.05001C9.54019 7.73449 8.17466 9.10003 6.49018 9.10003C4.80571 9.10003 3.44017 7.73449 3.44017 6.05001C3.44017 4.36554 4.80571 3 6.49018 3C8.17466 3 9.54019 4.36554 9.54019 6.05001ZM1.00002 17.0375C1.00002 14.0014 3.46133 11.54 6.49752 11.54C9.52786 11.54 11.9867 13.9922 11.995 17.0226L12 18.8601L12 21.78C12 22.4538 11.4538 23 10.78 23H2.22001C1.54621 23 0.999991 22.4538 1 21.78L1.00002 17.0375ZM13 12H22C22.5523 12 23 11.5523 23 11V2C23 1.44772 22.5523 1 22 1H13C12.4477 1 12 1.44771 12 2V11C12 11.5523 12.4477 12 13 12ZM19.0082 7.65125C19.0082 8.40706 18.3955 9.01978 17.6396 9.01978C16.8838 9.01978 16.2711 8.40706 16.2711 7.65125C16.2711 6.89543 16.8838 6.28271 17.6396 6.28271C18.3955 6.28271 19.0082 6.89543 19.0082 7.65125Z" stroke="black" stroke-width="1.5" stroke-linecap="round" stroke-linejoin="round"/>
</g>
<defs>
<clipPath id="clip0_1607_9737">
<rect width="24" height="24" fill="white"/>
</clipPath>
</defs>
</svg>
