<svg width="24" height="24" viewBox="0 0 24 24" fill="none" xmlns="http://www.w3.org/2000/svg">
<g clip-path="url(#clip0_1607_9791)">
<path d="M13.9998 1C14.5521 1 14.9998 1.44772 14.9998 2V6.63066C14.9998 6.70764 15.0832 6.75575 15.1498 6.71726L19.496 4.20802C19.9742 3.93188 20.5858 4.09576 20.862 4.57405L22.862 8.03815C23.1381 8.51644 22.9742 9.12803 22.496 9.40417L18.15 11.9133C18.0834 11.9518 18.0834 12.048 18.15 12.0865L22.4991 14.5974C22.9774 14.8736 23.1412 15.4852 22.8651 15.9635L20.8651 19.4276C20.589 19.9059 19.9774 20.0697 19.4991 19.7936L15.1498 17.2826C15.0832 17.2441 14.9998 17.2922 14.9998 17.3692V22C14.9998 22.5523 14.5521 23 13.9998 23H9.99983C9.44755 23 8.99983 22.5523 8.99983 22V17.3694C8.99983 17.2924 8.9165 17.2443 8.84983 17.2828L4.50373 19.792C4.02544 20.0681 3.41385 19.9043 3.1377 19.426L1.1377 15.9619C0.861561 15.4836 1.02544 14.872 1.50373 14.5958L5.85002 12.0865C5.91669 12.048 5.91669 11.9518 5.85002 11.9133L1.50114 9.40248C1.02285 9.12634 0.858976 8.51474 1.13512 8.03645L3.13512 4.57235C3.41126 4.09406 4.02285 3.93018 4.50114 4.20633L8.84983 6.71704C8.9165 6.75553 8.99983 6.70742 8.99983 6.63044L8.99983 2C8.99983 1.44772 9.44755 1 9.99983 1H13.9998Z" stroke="black" stroke-width="1.5" stroke-linecap="round"/>
</g>
<defs>
<clipPath id="clip0_1607_9791">
<rect width="24" height="24" fill="white"/>
</clipPath>
</defs>
</svg>
