<svg width="24" height="24" viewBox="0 0 24 24" fill="none" xmlns="http://www.w3.org/2000/svg">
<g clip-path="url(#clip0_1607_9795)">
<path d="M10.4315 9.53161L13.5754 14.9823M10.4315 9.53161H4.72156C4.54159 9.53161 4.36851 9.57995 4.2182 9.66747M10.4315 9.53161L13.2873 4.58123C13.466 4.27151 13.7963 4.08069 14.1539 4.08069L19.286 4.08069C19.4902 4.08069 19.6855 4.14293 19.8488 4.25401M13.5754 14.9823L10.7202 19.9325C10.5416 20.2422 10.2112 20.433 9.85368 20.433H4.72156C4.50982 20.433 4.30761 20.3661 4.1408 20.2472M13.5754 14.9823L19.286 14.9821C19.4566 14.9821 19.6211 14.9386 19.7658 14.8595M18.0059 12.0039H15.505M4.50327 14.3309L5.75372 12.1651M2.4288 6.55862L4.2182 9.66747M21.5522 17.9705L19.7658 14.8595M21.7514 1.00781L19.8488 4.25401M2.54631 23.0078L4.1408 20.2472M4.1408 20.2472C4.02594 20.1653 3.92786 20.0588 3.85501 19.9325L1.28811 15.4821C1.10969 15.1728 1.10969 14.7918 1.28811 14.4825L3.85502 10.0322C3.94374 9.87833 4.06989 9.75383 4.2182 9.66747M19.8488 4.25401C19.9714 4.33743 20.0759 4.4484 20.1526 4.58123L22.7195 9.03158C22.8979 9.34091 22.8979 9.72188 22.7195 10.0312L20.1526 14.4816C20.0592 14.6435 19.9243 14.7729 19.7658 14.8595" stroke="black" stroke-width="1.5" stroke-linecap="round"/>
</g>
<defs>
<clipPath id="clip0_1607_9795">
<rect width="24" height="24" fill="white"/>
</clipPath>
</defs>
</svg>
