<svg width="24" height="24" viewBox="0 0 24 24" fill="none" xmlns="http://www.w3.org/2000/svg">
<path d="M7 16H17M7 20H17M7 10.2678V7.31827M7 7.31827V4.73739C7 4.33014 7.33014 4 7.73739 4H9.02783C9.94415 4 10.687 4.74282 10.687 5.65914C10.687 6.57545 9.94415 7.31827 9.02783 7.31827H8.10609M7 7.31827H8.10609M12.8991 8.79306L11.24 10.4522M11.24 10.4522L9.58088 12.1113M11.24 10.4522L8.10609 7.31827M11.24 10.4522L12.8991 12.1113M5 23H19C19.5523 23 20 22.5523 20 22V2C20 1.44772 19.5523 1 19 1H5C4.44772 1 4 1.44772 4 2V22C4 22.5523 4.44772 23 5 23Z" stroke="black" stroke-width="1.5" stroke-linecap="round" stroke-linejoin="round"/>
</svg>
