<svg width="24" height="24" viewBox="0 0 24 24" fill="none" xmlns="http://www.w3.org/2000/svg">
<path d="M1 15.1359H4.86774C4.90757 15.1359 4.9436 15.1122 4.95947 15.0757L7.44795 9.34702C7.48279 9.26681 7.59655 9.26681 7.63139 9.34702L12.6672 20.9398C12.701 21.0176 12.8102 21.0207 12.8483 20.9449L15.766 15.1359L17.1422 12.3197C17.1787 12.2449 17.2853 12.2449 17.3219 12.3197L18.6707 15.0798C18.6875 15.1141 18.7223 15.1359 18.7605 15.1359H23M18.4271 3.54222C17.6436 2.81967 16.3727 2.8192 15.5885 3.54117C14.8043 4.26314 14.8038 5.43414 15.5873 6.15669L17.8014 8.31808C18.1899 8.69732 18.8101 8.69731 19.1985 8.31806L21.41 6.15914L21.4127 6.15669C22.1962 5.43414 22.1957 4.26314 21.4115 3.54117C20.6273 2.8192 19.3564 2.81967 18.5729 3.54222C18.5319 3.58 18.4681 3.58 18.4271 3.54222Z" stroke="black" stroke-width="1.5" stroke-linecap="round"/>
</svg>
