<svg width="24" height="24" viewBox="0 0 24 24" fill="none" xmlns="http://www.w3.org/2000/svg">
<g clip-path="url(#clip0_1607_10474)">
<path fill-rule="evenodd" clip-rule="evenodd" d="M18.9 0.25C19.3694 0.25 19.75 0.630557 19.75 1.1V4H22C22.5523 4 23 4.44772 23 5V6C23 6.55228 22.5523 7 22 7H2C1.44772 7 1 6.55228 1 6V5C1 4.44772 1.44772 4 2 4H15.25V1.1C15.25 0.630559 15.6306 0.25 16.1 0.25H18.9ZM16.75 4H18.25V1.75H16.75V4Z" fill="black"/>
<path fill-rule="evenodd" clip-rule="evenodd" d="M21 22.25H23C23.4142 22.25 23.75 22.5858 23.75 23C23.75 23.4142 23.4142 23.75 23 23.75H1C0.585786 23.75 0.25 23.4142 0.25 23C0.25 22.5858 0.585786 22.25 1 22.25H3V8.5H21V22.25ZM14 22.25V18C14 17.4477 13.5523 17 13 17H11C10.4477 17 10 17.4477 10 18V22.25H14ZM6.75 15C6.75 14.5858 6.41421 14.2501 6 14.2501C5.58579 14.2501 5.25 14.5858 5.25 15V15.0318C5.25 15.446 5.58579 15.7818 6 15.7818C6.41421 15.7818 6.75 15.446 6.75 15.0318V15ZM6 10.2501C6.41421 10.2501 6.75 10.5858 6.75 11.0001V11.0318C6.75 11.446 6.41421 11.7818 6 11.7818C5.58579 11.7818 5.25 11.446 5.25 11.0318V11.0001C5.25 10.5858 5.58579 10.2501 6 10.2501ZM18.75 15C18.75 14.5858 18.4142 14.2501 18 14.2501C17.5858 14.2501 17.25 14.5858 17.25 15V15.0318C17.25 15.446 17.5858 15.7818 18 15.7818C18.4142 15.7818 18.75 15.446 18.75 15.0318V15ZM6 18.25C6.41421 18.25 6.75 18.5858 6.75 19V19.0318C6.75 19.446 6.41421 19.7818 6 19.7818C5.58579 19.7818 5.25 19.446 5.25 19.0318V19C5.25 18.5858 5.58579 18.25 6 18.25ZM18.75 19C18.75 18.5858 18.4142 18.25 18 18.25C17.5858 18.25 17.25 18.5858 17.25 19V19.0318C17.25 19.446 17.5858 19.7818 18 19.7818C18.4142 19.7818 18.75 19.446 18.75 19.0318V19ZM18 10.2501C18.4142 10.2501 18.75 10.5858 18.75 11.0001V11.0318C18.75 11.446 18.4142 11.7818 18 11.7818C17.5858 11.7818 17.25 11.446 17.25 11.0318V11.0001C17.25 10.5858 17.5858 10.2501 18 10.2501ZM12.75 15C12.75 14.5858 12.4142 14.2501 12 14.2501C11.5858 14.2501 11.25 14.5858 11.25 15V15.0318C11.25 15.446 11.5858 15.7818 12 15.7818C12.4142 15.7818 12.75 15.446 12.75 15.0318V15ZM12 10.2501C12.4142 10.2501 12.75 10.5858 12.75 11.0001V11.0318C12.75 11.446 12.4142 11.7818 12 11.7818C11.5858 11.7818 11.25 11.446 11.25 11.0318V11.0001C11.25 10.5858 11.5858 10.2501 12 10.2501Z" fill="black"/>
</g>
<defs>
<clipPath id="clip0_1607_10474">
<rect width="24" height="24" fill="white"/>
</clipPath>
</defs>
</svg>
