<svg width="24" height="24" viewBox="0 0 24 24" fill="none" xmlns="http://www.w3.org/2000/svg">
<path fill-rule="evenodd" clip-rule="evenodd" d="M12.75 1.75H13C13.4142 1.75 13.75 1.41421 13.75 1C13.75 0.585786 13.4142 0.25 13 0.25H12C11.5858 0.25 11.25 0.585786 11.25 1V3C11.25 3.01328 11.2503 3.02649 11.251 3.0396C8.3249 3.35085 5.93733 5.46505 5.22053 8.25L18.7795 8.25C18.0627 5.46505 15.6751 3.35085 12.749 3.0396C12.7497 3.02649 12.75 3.01328 12.75 3V1.75ZM2 13C1.44772 13 1 13.4477 1 14V22C1 22.5523 1.44772 23 2 23H8.25V19H7.28508C7.19055 19 7.14879 18.881 7.22261 18.8219L11.9375 15.05C11.9741 15.0208 12.0259 15.0208 12.0625 15.05L16.7774 18.8219C16.8512 18.881 16.8094 19 16.7149 19H15.75V23H22C22.5523 23 23 22.5523 23 22V14C23 13.4477 22.5523 13 22 13H2ZM12.75 19H14.25V23H12.75V19ZM11.25 19H9.75V23H11.25V19ZM19 10V11.5H5V10C5 9.91632 5.00147 9.83297 5.00438 9.75L18.9956 9.75C18.9985 9.83297 19 9.91632 19 10Z" fill="black"/>
</svg>
