<svg width="24" height="24" viewBox="0 0 24 24" fill="none" xmlns="http://www.w3.org/2000/svg">
<path d="M12.3333 1C12.8856 1 13.3333 1.44772 13.3333 2V3.56667C13.3333 3.6219 13.3781 3.66667 13.4333 3.66667L15 3.66667C15.5523 3.66667 16 4.11438 16 4.66667V5.33333C16 5.88562 15.5523 6.33333 15 6.33333H13.4333C13.3781 6.33333 13.3333 6.37811 13.3333 6.43333V8C13.3333 8.55228 12.8856 9 12.3333 9H11.6667C11.1144 9 10.6667 8.55228 10.6667 8V6.43333C10.6667 6.3781 10.6219 6.33333 10.5667 6.33333H9C8.44771 6.33333 8 5.88562 8 5.33333V4.66667C8 4.11438 8.44772 3.66667 9 3.66667L10.5667 3.66667C10.6219 3.66667 10.6667 3.6219 10.6667 3.56667V2C10.6667 1.44772 11.1144 1 11.6667 1H12.3333Z" fill="black"/>
<path fill-rule="evenodd" clip-rule="evenodd" d="M3.25 13C3.25 13.4636 3.36474 13.9005 3.56737 14.2837L1.75 13.375V9C1.75 8.58579 1.41421 8.25 1 8.25C0.585786 8.25 0.25 8.58579 0.25 9V21C0.25 21.3107 0.43888 21.5772 0.708066 21.6911C0.781168 21.722 0.860192 21.7416 0.942964 21.7479C0.961811 21.7493 0.980851 21.75 1.00006 21.75L3.25 21.75V23C3.25 23.4142 3.58579 23.75 4 23.75C4.41421 23.75 4.75 23.4142 4.75 23V21.75L19.25 21.75V23C19.25 23.4142 19.5858 23.75 20 23.75C20.4142 23.75 20.75 23.4142 20.75 23V21.75L23 21.75C23.0032 21.75 23.0065 21.75 23.0097 21.7499C23.0581 21.7493 23.1054 21.7441 23.1512 21.7348C23.4929 21.6649 23.7501 21.3625 23.7501 21C23.7501 20.9968 23.75 20.9935 23.75 20.9903V17C23.75 14.3766 21.6234 12.25 19 12.25H11C10.0335 12.25 9.25 13.0335 9.25 14V17H9.02361C9.00808 17 8.99277 16.9964 8.97889 16.9894L6.4324 15.7162C7.74576 15.5088 8.75 14.3717 8.75 13C8.75 11.4812 7.51878 10.25 6 10.25C4.48122 10.25 3.25 11.4812 3.25 13ZM11 13.75H12.25V17.75L11 17.75C10.8619 17.75 10.75 17.6381 10.75 17.5V14C10.75 13.8619 10.8619 13.75 11 13.75ZM13.75 13.75V17.75L22.25 17.75V17C22.25 15.2051 20.7949 13.75 19 13.75H13.75ZM6 14.25C5.30964 14.25 4.75 13.6904 4.75 13C4.75 12.3096 5.30964 11.75 6 11.75C6.69036 11.75 7.25 12.3096 7.25 13C7.25 13.6904 6.69036 14.25 6 14.25Z" fill="black"/>
</svg>
