<svg width="24" height="24" viewBox="0 0 24 24" fill="none" xmlns="http://www.w3.org/2000/svg">
<path fill-rule="evenodd" clip-rule="evenodd" d="M16 2C16.5523 2 17 2.44772 17 3V9C17 9.55228 16.5523 10 16 10H8C7.44772 10 7 9.55228 7 9V3C7 2.44772 7.44772 2 8 2H16ZM12 3.64996C12.4142 3.64996 12.75 3.98575 12.75 4.39996V5.24989L13.5996 5.24987C14.0138 5.24985 14.3496 5.58563 14.3496 5.99984C14.3496 6.41406 14.0138 6.74985 13.5996 6.74987L12.75 6.74989V7.59996C12.75 8.01418 12.4142 8.34996 12 8.34996C11.5858 8.34996 11.25 8.01418 11.25 7.59996V6.74994L10.3995 6.74996C9.9853 6.74998 9.64951 6.4142 9.64949 5.99999C9.64948 5.58577 9.98526 5.24998 10.3995 5.24996L11.25 5.24994V4.39996C11.25 3.98575 11.5858 3.64996 12 3.64996Z" fill="black"/>
<path fill-rule="evenodd" clip-rule="evenodd" d="M5.5 7H4C3.44772 7 3 7.44772 3 8V21.25H1C0.585786 21.25 0.25 21.5858 0.25 22C0.25 22.4142 0.585786 22.75 1 22.75H23C23.4142 22.75 23.75 22.4142 23.75 22C23.75 21.5858 23.4142 21.25 23 21.25H21V8C21 7.44772 20.5523 7 20 7H18.5V9C18.5 10.3807 17.3807 11.5 16 11.5H8C6.61929 11.5 5.5 10.3807 5.5 9V7ZM10 17V21.25H14V17C14 16.4477 13.5523 16 13 16H11C10.4477 16 10 16.4477 10 17ZM8.75 13.4683C8.75 13.0541 8.41421 12.7183 8 12.7183C7.58579 12.7183 7.25 13.0541 7.25 13.4683V13.5C7.25 13.9142 7.58579 14.25 8 14.25C8.41421 14.25 8.75 13.9142 8.75 13.5V13.4683ZM12.75 13.4683C12.75 13.0541 12.4142 12.7183 12 12.7183C11.5858 12.7183 11.25 13.0541 11.25 13.4683V13.5C11.25 13.9142 11.5858 14.25 12 14.25C12.4142 14.25 12.75 13.9142 12.75 13.5V13.4683ZM16.75 13.4683C16.75 13.0541 16.4142 12.7183 16 12.7183C15.5858 12.7183 15.25 13.0541 15.25 13.4683V13.5C15.25 13.9142 15.5858 14.25 16 14.25C16.4142 14.25 16.75 13.9142 16.75 13.5V13.4683Z" fill="black"/>
</svg>
