<svg width="24" height="24" viewBox="0 0 24 24" fill="none" xmlns="http://www.w3.org/2000/svg">
<path fill-rule="evenodd" clip-rule="evenodd" d="M8.83404 1C9.31347 1 9.70213 1.38941 9.70213 1.86977V3.60944L11.3623 2.27871C11.7353 1.97974 12.2653 1.97974 12.6383 2.27871L21.9857 9.77115C22.0611 9.83157 22.0185 9.95338 21.9219 9.95338H2.07869C1.98215 9.95338 1.93951 9.83158 2.01489 9.77115L5.10638 7.29316V1.86977C5.10638 1.38941 5.49504 1 5.97447 1H8.83404ZM6.6383 6.06526L8.17021 4.83735V2.53488H6.6383V6.06526Z" fill="black"/>
<path fill-rule="evenodd" clip-rule="evenodd" d="M3.82894 11.4883H20.1694V21.4651H23.234C23.6571 21.4651 24 21.8087 24 22.2326C24 22.6564 23.6571 23 23.234 23H0.765957C0.342931 23 0 22.6564 0 22.2326C0 21.8087 0.342931 21.4651 0.765957 21.4651H3.82894V11.4883ZM14.0427 17.1162V21.4651H9.9576V17.1162C9.9576 16.5511 10.4148 16.0929 10.9789 16.0929H13.0214C13.5855 16.0929 14.0427 16.5511 14.0427 17.1162Z" fill="black"/>
</svg>
