<svg width="24" height="24" viewBox="0 0 24 24" fill="none" xmlns="http://www.w3.org/2000/svg">
<path fill-rule="evenodd" clip-rule="evenodd" d="M16 2C16 1.44772 15.5523 1 15 1H3C2.44772 1 2 1.44772 2 2V22.25H1C0.585786 22.25 0.25 22.5858 0.25 23C0.25 23.4142 0.585786 23.75 1 23.75H23C23.4142 23.75 23.75 23.4142 23.75 23C23.75 22.5858 23.4142 22.25 23 22.25H22V8C22 7.44772 21.5523 7 21 7H17.5V22.25H16V2ZM11 22.25V18C11 17.4477 10.5523 17 10 17H8C7.44772 17 7 17.4477 7 18V22.25H11ZM5.75 13.0001C5.75 12.5858 5.41421 12.2501 5 12.2501C4.58579 12.2501 4.25 12.5858 4.25 13.0001V13.0318C4.25 13.446 4.58579 13.7818 5 13.7818C5.41421 13.7818 5.75 13.446 5.75 13.0318V13.0001ZM5 8.25005C5.41421 8.25005 5.75 8.58584 5.75 9.00005V9.03178C5.75 9.44599 5.41421 9.78178 5 9.78178C4.58579 9.78178 4.25 9.44599 4.25 9.03178V9.00005C4.25 8.58584 4.58579 8.25005 5 8.25005ZM13.75 13.0001C13.75 12.5858 13.4142 12.2501 13 12.2501C12.5858 12.2501 12.25 12.5858 12.25 13.0001V13.0318C12.25 13.446 12.5858 13.7818 13 13.7818C13.4142 13.7818 13.75 13.446 13.75 13.0318V13.0001ZM13 8.25005C13.4142 8.25005 13.75 8.58584 13.75 9.00005V9.03178C13.75 9.44599 13.4142 9.78178 13 9.78178C12.5858 9.78178 12.25 9.44599 12.25 9.03178V9.00005C12.25 8.58584 12.5858 8.25005 13 8.25005ZM9.75 13.0001C9.75 12.5858 9.41421 12.2501 9 12.2501C8.58579 12.2501 8.25 12.5858 8.25 13.0001V13.0318C8.25 13.446 8.58579 13.7818 9 13.7818C9.41421 13.7818 9.75 13.446 9.75 13.0318V13.0001ZM9 8.25005C9.41421 8.25005 9.75 8.58584 9.75 9.00005V9.03178C9.75 9.44599 9.41421 9.78178 9 9.78178C8.58579 9.78178 8.25 9.44599 8.25 9.03178V9.00005C8.25 8.58584 8.58579 8.25005 9 8.25005ZM5.75 5.00005C5.75 4.58584 5.41421 4.25005 5 4.25005C4.58579 4.25005 4.25 4.58584 4.25 5.00005V5.03178C4.25 5.44599 4.58579 5.78178 5 5.78178C5.41421 5.78178 5.75 5.44599 5.75 5.03178V5.00005ZM13 4.25005C13.4142 4.25005 13.75 4.58584 13.75 5.00005V5.03178C13.75 5.44599 13.4142 5.78178 13 5.78178C12.5858 5.78178 12.25 5.44599 12.25 5.03178V5.00005C12.25 4.58584 12.5858 4.25005 13 4.25005ZM9.75 5.00005C9.75 4.58584 9.41421 4.25005 9 4.25005C8.58579 4.25005 8.25 4.58584 8.25 5.00005V5.03178C8.25 5.44599 8.58579 5.78178 9 5.78178C9.41421 5.78178 9.75 5.44599 9.75 5.03178V5.00005Z" fill="black"/>
</svg>
