<svg width="24" height="24" viewBox="0 0 24 24" fill="none" xmlns="http://www.w3.org/2000/svg">
<g clip-path="url(#clip0_1607_9521)">
<path d="M2.99994 1L3.94636 2.89283C3.97426 2.94863 4.04589 2.96554 4.0958 2.92811L5.89556 1.57829C5.9482 1.53881 6.02397 1.56006 6.0484 1.62115L6.99994 4M1.00008 5.50008L2.90404 6.9282C2.95395 6.96563 3.02558 6.94873 3.05348 6.89292L3.94642 5.10723C3.97432 5.05142 4.04595 5.03452 4.09586 5.07195L6 6.50006M1 11.9999L3.85213 11.9999C3.92287 11.9999 3.97125 11.9284 3.94497 11.8627L3.0446 9.61155C3.02139 9.5535 3.05653 9.48862 3.11784 9.47636L5.49996 8.99993M21.1926 13.3832C22.3192 12.071 22.9999 10.365 22.9999 8.5C22.9999 4.35786 19.642 1 15.4999 1C11.3578 1 7.99989 4.35786 7.99989 8.5C7.99989 8.64909 8.00424 8.79716 8.01282 8.94409C8.01385 8.96168 8.01029 8.97924 8.00241 8.995L6.51557 11.9687C6.24343 12.513 6.51646 13.1722 7.09378 13.3646L9.31346 14.1045C9.35376 14.1179 9.38118 14.1554 9.38182 14.1979L9.44697 18.5151C9.45522 19.0614 9.90046 19.5 10.4469 19.5H13.6145C13.6665 19.5 13.7098 19.5398 13.7141 19.5916L13.9923 22.9084C13.9967 22.9602 14.04 23 14.092 23H21.8909C21.9496 23 21.9956 22.9498 21.9905 22.8913L21.1686 13.4575C21.1662 13.4305 21.1749 13.4037 21.1926 13.3832Z" stroke="black" stroke-width="1.5" stroke-linecap="round" stroke-linejoin="round"/>
</g>
<defs>
<clipPath id="clip0_1607_9521">
<rect width="24" height="24" fill="white"/>
</clipPath>
</defs>
</svg>
