<svg width="24" height="24" viewBox="0 0 24 24" fill="none" xmlns="http://www.w3.org/2000/svg">
<path d="M1 22L8.29288 14.7071C8.68341 14.3166 9.31657 14.3166 9.7071 14.7071L13.2929 18.2929C13.6834 18.6834 14.3166 18.6834 14.7071 18.2929L23 10M23 10H16M23 10L23 17M6.38547 2.9037C5.15417 1.69945 3.15703 1.69867 1.92474 2.90195C0.692453 4.10523 0.69165 6.05691 1.92295 7.26115L5.7807 11.2553C6.17385 11.6623 6.82614 11.6623 7.21928 11.2553L11.0729 7.26524C11.0743 7.26387 11.0757 7.26252 11.0771 7.26115C12.3084 6.05691 12.3075 4.10523 11.0753 2.90195C9.84297 1.69867 7.84583 1.69945 6.61453 2.9037C6.55121 2.96562 6.44878 2.96562 6.38547 2.9037Z" stroke="black" stroke-width="1.5" stroke-linecap="round" stroke-linejoin="round"/>
</svg>
