<svg width="24" height="24" viewBox="0 0 24 24" fill="none" xmlns="http://www.w3.org/2000/svg">
<path d="M8.52843 10.6475L10.487 10.0367C11.4509 9.73607 12.3207 9.19796 13.0181 8.47521M17.2958 3.27002L15.6099 5.33423M19.1508 5.54C19.1508 5.54 18.6927 6.27239 16.2076 10.0001C14.2076 13.0001 10.7076 14.0001 10.7076 14.0001M9.87553 1V4.39663C9.87553 4.40123 9.8718 4.40496 9.8672 4.40496C8.16429 4.40496 6.7838 5.78545 6.7838 7.48836V8.14215M12.7292 1V3.52781C12.7292 3.57725 12.7646 3.61911 12.8136 3.62601C13.383 3.7063 14.8541 3.89587 15.4406 4.97246L15.6099 5.33423M17.2077 8.49999C18.2122 9.06338 19.014 10.0987 18.6262 13.3526C18.0851 17.8925 15.9209 23 13.2157 23C10.5104 23 6.20467 20.2428 4.70771 16.5C3.70782 14 3.54342 11.27 5.70763 9C7.43842 7.18463 10.0828 7.0919 11.7061 7.65876L11.7093 7.65993C11.7427 7.67312 12.3199 7.90312 12.7611 8.25606L13.0181 8.47521M9 18.0317V18M13 20.0317V20M12 17.0317V17M13.0181 8.47521C13.1328 8.35641 13.2428 8.23262 13.3477 8.10408L15.6099 5.33423" stroke="black" stroke-width="1.5" stroke-linecap="round"/>
</svg>
