<svg width="24" height="24" viewBox="0 0 24 24" fill="none" xmlns="http://www.w3.org/2000/svg">
<g clip-path="url(#clip0_1607_9530)">
<path d="M8 23V20.241C8 19.531 7.74908 18.8569 7.31007 18.3269M4.5 16.5L6.48842 17.6363C6.80667 17.8181 7.08344 18.0533 7.31007 18.3269M10.498 23V20.2058C10.498 18.0371 9.32877 16.046 7.45539 14.9852M5.5 13.9983L7.18192 14.8395C7.27465 14.8859 7.36582 14.9345 7.45539 14.9852M16 23V20.241C16 19.531 16.2509 18.8568 16.6899 18.3269M19.5 16.5L17.5116 17.6362C17.1933 17.8181 16.9166 18.0533 16.6899 18.3269M13.5 23L13.5008 20.2046C13.5015 18.0462 14.6603 16.064 16.5185 15M18.5 13.9983L16.817 14.8401C16.7156 14.8908 16.6161 14.9441 16.5185 15M17.3137 2.55277L15.7303 3.95683C15.6837 3.99823 15.6859 4.07179 15.7349 4.11031L17.5046 5.49939C17.5563 5.54002 17.5554 5.6187 17.5027 5.65812L15.4512 7.19293M12.0358 1L11.1491 3.20871C11.1259 3.26661 11.1608 3.33142 11.2219 3.34393L13.1779 3.74427C13.239 3.75678 13.2738 3.82159 13.2506 3.87948L12.364 6.08837M6 3.25991L6.83658 6.05874C6.85649 6.12536 6.93662 6.15182 6.99229 6.11018L8.93732 4.65516C8.98738 4.61771 9.05915 4.63487 9.08686 4.69091L10.1636 6.86856M7.31007 18.3269L7.29735 18.4129C7.24337 18.7452 7.13385 19.0749 6.96527 19.3858C6.246 20.7124 4.72244 21.1966 3.5533 20.4746L3.5526 20.4759C3.5526 20.4759 -1.10006 18.4632 2.15754 12.4562C5.08809 7.05238 8.84871 9.52774 9.2824 9.80743L9.30464 9.82128C10.4762 10.56 10.8397 12.2399 10.1166 13.5735C9.7538 14.2427 9.18629 14.6976 8.56284 14.8913C8.56284 14.8913 8 15 7.5 15L7.45539 14.9852M16.6899 18.3269L16.7027 18.4129C16.7566 18.7452 16.8662 19.0749 17.0347 19.3858C17.754 20.7124 19.2776 21.1966 20.4467 20.4746L20.4474 20.4759C20.4474 20.4759 25.1001 18.4632 21.8425 12.4562C18.9119 7.05238 15.1513 9.52774 14.7176 9.80743L14.6954 9.82128C13.5238 10.56 13.1603 12.2399 13.8834 13.5735C14.2462 14.2427 14.8137 14.6976 15.4372 14.8913C15.4372 14.8913 16 15 16.5 15H16.5185" stroke="black" stroke-width="1.5" stroke-linecap="round" stroke-linejoin="round"/>
</g>
<defs>
<clipPath id="clip0_1607_9530">
<rect width="24" height="24" fill="white"/>
</clipPath>
</defs>
</svg>
