<svg width="24" height="24" viewBox="0 0 24 24" fill="none" xmlns="http://www.w3.org/2000/svg">
<g clip-path="url(#clip0_1607_9538)">
<path d="M12.375 7V12.0464C12.375 12.6081 12.0536 13.1193 11.5496 13.3634M14.9251 7V12.0464C14.9251 12.6081 15.2465 13.1193 15.7505 13.3634M8.49998 1L8.37319 3.11244C8.36945 3.17472 8.42303 3.22518 8.48497 3.21772L10.7185 2.94862C10.7838 2.94075 10.8388 2.99703 10.8295 3.06216L10.4641 5.59808M3.66997 3.63407L4.60479 5.82284C4.6293 5.88021 4.69978 5.90139 4.75185 5.86701L6.418 4.76702C6.47006 4.73264 6.54055 4.75382 6.56506 4.81119L7.50004 7.00004M1 9.50003L3.57063 10.8876C3.63181 10.9206 3.70719 10.8826 3.7171 10.8138L4.06359 8.40963C4.07251 8.34774 4.13539 8.30913 4.19461 8.32916L6.4958 9.10763M11.5496 13.3634L11.4866 12.1121C11.4511 11.4083 11.1826 10.663 10.5025 10.4785C9.52002 10.2119 8.0047 10.5385 6.24828 12.8108C4.63385 14.8995 4.24158 18.1103 4.30676 20.6775C4.35214 22.4648 6.15979 23.4579 7.83679 22.838L9.88317 22.0816C11.113 21.627 11.9052 20.4264 11.8392 19.1168L11.705 16.4502M11.5496 13.3634L11.705 16.4502M15.7505 13.3634L15.8135 12.1121C15.849 11.4083 16.1175 10.663 16.7976 10.4785C17.7801 10.2119 19.2954 10.5385 21.0518 12.8108C22.6662 14.8995 23.0585 18.1103 22.9933 20.6775C22.948 22.4648 21.1403 23.4579 19.4633 22.838L17.4169 22.0816C16.1871 21.627 15.3949 20.4264 15.4609 19.1168L15.5951 16.4502M15.7505 13.3634L15.5951 16.4502M11.705 16.4502L13.2028 15.7236C13.4844 15.5828 13.8157 15.5828 14.0973 15.7236L15.5951 16.4502" stroke="black" stroke-width="1.5" stroke-linecap="round" stroke-linejoin="round"/>
</g>
<defs>
<clipPath id="clip0_1607_9538">
<rect width="24" height="24" fill="white"/>
</clipPath>
</defs>
</svg>
