<svg width="24" height="24" viewBox="0 0 24 24" fill="none" xmlns="http://www.w3.org/2000/svg">
<path d="M10.4999 2V7.93694C10.4999 8.59771 10.1218 9.19915 9.52884 9.48636M13.5001 2V7.93694C13.5001 8.59771 13.8782 9.19915 14.4712 9.48636M18.5364 16.872L18.5671 16.8638M17.5013 13.0082L17.5319 13M19.9507 14.4224L19.9814 14.4142M5.44508 16.872L5.41443 16.8638M6.48023 13.0082L6.44958 13M4.03077 14.4224L4.00012 14.4142M9.52884 9.48636L9.44504 7.82193C9.40961 7.11814 9.14467 6.385 8.48047 6.14962C7.3348 5.74362 5.47114 6.01709 3.29204 8.83627C1.26663 11.4566 0.876278 15.5782 1.03002 18.682C1.11847 20.4677 2.92913 21.4579 4.60612 20.838L7.93312 19.6082C9.16298 19.1536 9.95513 17.953 9.88919 16.6435L9.71264 13.1368M9.52884 9.48636L9.71264 13.1368M9.71264 13.1368L11.5528 12.2236C11.8343 12.0828 12.1657 12.0828 12.4472 12.2236L14.2874 13.1368M14.2874 13.1368L14.1108 16.6435C14.0449 17.953 14.837 19.1536 16.0669 19.6082L19.3939 20.838C21.0709 21.4579 22.8815 20.4677 22.97 18.682C23.1237 15.5782 22.7334 11.4566 20.708 8.83627C18.5289 6.01709 16.6652 5.74362 15.5195 6.14962C14.8553 6.385 14.5904 7.11814 14.555 7.82193L14.4712 9.48636M14.2874 13.1368L14.4712 9.48636" stroke="black" stroke-width="1.5" stroke-linecap="round"/>
</svg>
