<svg width="24" height="24" viewBox="0 0 24 24" fill="none" xmlns="http://www.w3.org/2000/svg">
<path d="M4.00012 19.4641L2.26807 20.4641M6.51764 20.9964L6 22.9282M3.93185 16.5176L2 16M14 18V18.0318M18 18V18.0318M16 20V20.0318M20.1926 13.3832C21.3192 12.071 21.9999 10.365 21.9999 8.5C21.9999 4.35786 18.6421 1 14.4999 1C10.3578 1 6.99995 4.35786 6.99995 8.5C6.99995 8.64909 7.0043 8.79716 7.01288 8.94409C7.01391 8.96168 7.01034 8.97924 7.00247 8.995L5.51563 11.9687C5.24348 12.513 5.51652 13.1722 6.09383 13.3646L8.31243 14.1041C8.35326 14.1178 8.38081 14.156 8.38081 14.199V15.4634C8.38081 15.512 8.41584 15.5536 8.46379 15.5619L10.3996 15.8963C10.7683 15.96 11.0707 16.2242 11.1832 16.5811L11.5894 17.8699C11.6097 17.9344 11.5616 18 11.494 18H8.4841C8.4276 18 8.38232 18.0468 8.38416 18.1032L8.43051 19.5324C8.448 20.0718 8.89032 20.5 9.42998 20.5H12.6175C12.6683 20.5 12.7109 20.538 12.7169 20.5883L12.9897 22.9117C12.9956 22.962 13.0383 23 13.089 23H20.891C20.9496 23 20.9957 22.9498 20.9906 22.8913L20.1686 13.4575C20.1663 13.4305 20.175 13.4037 20.1926 13.3832Z" stroke="black" stroke-width="1.5" stroke-linecap="round"/>
</svg>
