<svg width="24" height="24" viewBox="0 0 24 24" fill="none" xmlns="http://www.w3.org/2000/svg">
<g clip-path="url(#clip0_1607_9551)">
<path d="M7.875 7.87507V7.9187M18.875 12.0001V12.0437M10.625 17.5V17.5437M7.98849 14.5781L7.70736 14.368C7.00009 13.8394 6.56159 13.0261 6.50869 12.1447L6.5 12M14.75 13.375L15.0311 13.5851C15.7384 14.1137 16.1769 14.927 16.2298 15.8084L16.2385 15.9531M12.3002 9.55649L12.3416 9.20798C12.4458 8.33117 12.9309 7.54476 13.6677 7.05825L13.7887 6.97836M18.1875 3.75C17.7645 3.75 17.3594 3.82639 16.9852 3.96612C16.9367 3.98424 16.8819 3.96382 16.8575 3.9181C15.9328 2.18189 14.1044 1 12 1C9.7516 1 7.81832 2.34915 6.96553 4.28205C6.93806 4.34432 6.8581 4.36365 6.80422 4.32205C6.33971 3.96338 5.75727 3.75 5.125 3.75C3.60622 3.75 2.375 4.98122 2.375 6.5C2.375 7.18568 2.62595 7.81275 3.04102 8.29437C3.08367 8.34386 3.07178 8.42091 3.01566 8.45436C1.80857 9.17402 1 10.4926 1 12C1 13.3443 1.64304 14.5384 2.63829 15.2915C2.67668 15.3205 2.68992 15.3724 2.67034 15.4164C2.48051 15.843 2.375 16.3154 2.375 16.8125C2.375 18.711 3.91402 20.25 5.8125 20.25C6.23545 20.25 6.64057 20.1736 7.01479 20.0339C7.06332 20.0158 7.1181 20.0362 7.14245 20.0819C8.06722 21.8181 9.89558 23 12 23C14.2484 23 16.1817 21.6509 17.0345 19.718C17.0619 19.6557 17.1419 19.6363 17.1958 19.6779C17.6603 20.0366 18.2427 20.25 18.875 20.25C20.3938 20.25 21.625 19.0188 21.625 17.5C21.625 16.8143 21.374 16.1873 20.959 15.7056C20.9163 15.6561 20.9282 15.5791 20.9843 15.5456C22.1914 14.826 23 13.5074 23 12C23 10.6557 22.357 9.46162 21.3617 8.70852C21.3233 8.67947 21.3101 8.62761 21.3297 8.58362C21.5195 8.15701 21.625 7.68458 21.625 7.1875C21.625 5.28902 20.086 3.75 18.1875 3.75Z" stroke="black" stroke-width="1.5" stroke-linecap="round"/>
</g>
<defs>
<clipPath id="clip0_1607_9551">
<rect width="24" height="24" fill="white"/>
</clipPath>
</defs>
</svg>
