<svg width="169" height="177" viewBox="0 0 169 177" fill="none" xmlns="http://www.w3.org/2000/svg">
<path fill-rule="evenodd" clip-rule="evenodd" d="M57.0641 24.8286C45.2201 32.1495 29.8888 48.1979 19.1414 61.3933C15.4792 65.8896 8.86544 66.5658 4.36913 62.9036C-0.127173 59.2415 -0.80337 52.6277 2.8588 48.1314C13.8494 34.6375 31.0176 16.2404 46.0228 6.96556C49.8599 4.59376 54.026 2.51618 58.2742 1.39484C62.4993 0.279597 67.732 -0.120284 72.827 2.16108C78.1584 4.54839 81.5047 9.03703 83.3611 14.0284C85.1438 18.8214 85.7553 24.5192 85.6345 30.7832C85.3256 46.7962 79.243 65.6214 72.3058 83.2082C68.0938 93.8865 63.1316 105.11 58.5761 115.415C55.7034 121.912 52.9925 128.044 50.7333 133.443C47.6712 140.76 45.3304 146.944 43.9682 151.848C43.6998 152.815 43.4894 153.665 43.3245 154.41C45.9466 153.484 49.6066 151.875 54.5356 149.226C106.563 121.262 135.196 67.1253 142.767 43.9751C144.108 39.8764 147.818 37.014 152.122 36.7576C156.427 36.5012 160.451 38.9029 162.269 42.8134C163.646 45.7768 163.888 49.1616 163.981 51.1438C164.096 53.575 164.038 56.3388 163.922 59.0897C163.809 61.7748 163.63 64.6965 163.453 67.5848L163.433 67.8956C163.247 70.9279 163.064 73.9468 162.94 76.8735C162.716 82.169 162.732 86.4159 163.077 89.3087C165.71 90.7649 167.701 93.3366 168.312 96.5229C169.404 102.218 165.673 107.72 159.977 108.812C157.574 109.273 154.871 109.173 152.202 108.097C149.579 107.038 147.682 105.317 146.379 103.626C144.002 100.541 143.067 96.8786 142.599 94.3089C142.487 93.6896 142.388 93.0513 142.302 92.3976C125.862 118.662 100.254 148.495 64.4775 167.723C55.6645 172.46 47.9029 175.674 41.4317 176.359C38.0692 176.714 34.0507 176.502 30.287 174.489C26.2222 172.314 23.8221 168.781 22.6777 165.145C20.7388 158.986 22.177 151.835 23.7342 146.228C25.4625 140.005 28.225 132.83 31.3611 125.336C33.9915 119.05 36.8406 112.619 39.758 106.033C44.1101 96.2077 48.6142 86.0399 52.7707 75.5026C59.6444 58.0765 64.4083 42.3085 64.6384 30.3782C64.7264 25.8156 64.2569 23.1068 63.7866 21.6603C63.7376 21.6724 63.6866 21.6854 63.6337 21.6994C62.1323 22.0957 59.9392 23.0515 57.0641 24.8286ZM64.8297 21.5013C64.8295 21.5016 64.8222 21.5014 64.8083 21.4999C64.8228 21.5003 64.8298 21.501 64.8297 21.5013ZM38.7705 155.499C38.7708 155.499 38.7835 155.499 38.8077 155.501C38.7822 155.501 38.7702 155.5 38.7705 155.499Z" fill="#fafafa"/>
</svg>
