<svg width="397" height="180" viewBox="0 0 397 180" fill="none" xmlns="http://www.w3.org/2000/svg">
<path fill-rule="evenodd" clip-rule="evenodd" d="M57.0639 24.8286C45.2198 32.1495 29.8886 48.1979 19.1411 61.3933C15.4789 65.8896 8.86519 66.5658 4.36889 62.9036C-0.127417 59.2415 -0.803614 52.6277 2.85856 48.1314C13.8492 34.6375 31.0173 16.2404 46.0225 6.96556C49.8597 4.59376 54.0258 2.51618 58.274 1.39484C62.4991 0.279597 67.7318 -0.120284 72.8267 2.16108C78.1582 4.54839 81.5045 9.03703 83.3609 14.0284C85.1435 18.8214 85.7551 24.5192 85.6343 30.7832C85.3254 46.7962 79.2427 65.6214 72.3056 83.2082C68.0935 93.8865 63.1314 105.11 58.5759 115.415C55.7032 121.912 52.9922 128.044 50.733 133.443C47.671 140.76 45.3302 146.944 43.968 151.848C43.6995 152.815 43.4891 153.665 43.3242 154.41C45.9463 153.484 49.6064 151.875 54.5354 149.226C106.563 121.262 135.195 67.1253 142.767 43.9751C144.107 39.8764 147.818 37.014 152.122 36.7576C156.427 36.5012 160.451 38.9029 162.268 42.8134C163.646 45.7768 163.887 49.1616 163.981 51.1438C164.096 53.575 164.037 56.3388 163.922 59.0897C163.809 61.7748 163.63 64.6965 163.452 67.5848L163.433 67.8956C163.247 70.9279 163.064 73.9468 162.94 76.8735C162.716 82.169 162.732 86.4159 163.076 89.3087C165.71 90.7649 167.701 93.3366 168.312 96.5229C169.404 102.218 165.672 107.72 159.977 108.812C157.574 109.273 154.871 109.173 152.202 108.097C149.579 107.038 147.682 105.317 146.379 103.626C144.002 100.541 143.066 96.8786 142.599 94.3089C142.486 93.6896 142.388 93.0513 142.302 92.3976C125.861 118.662 100.254 148.495 64.4773 167.723C55.6642 172.46 47.9026 175.674 41.4315 176.359C38.069 176.714 34.0505 176.502 30.2868 174.489C26.2219 172.314 23.8219 168.781 22.6775 165.145C20.7386 158.986 22.1768 151.835 23.7339 146.228C25.4623 140.005 28.2248 132.83 31.3608 125.336C33.9912 119.05 36.8404 112.619 39.7578 106.033C44.1099 96.2077 48.614 86.0399 52.7704 75.5026C59.6441 58.0765 64.4081 42.3085 64.6382 30.3782C64.7262 25.8156 64.2566 23.1068 63.7864 21.6603C63.7373 21.6724 63.6864 21.6854 63.6335 21.6994C62.1321 22.0957 59.939 23.0515 57.0639 24.8286ZM64.8294 21.5013C64.8293 21.5016 64.822 21.5014 64.808 21.4999C64.8226 21.5003 64.8296 21.501 64.8294 21.5013ZM38.7702 155.499C38.7706 155.499 38.7833 155.499 38.8074 155.501C38.782 155.501 38.7699 155.5 38.7702 155.499Z" fill="#573CF9"/>
<path fill-rule="evenodd" clip-rule="evenodd" d="M191.493 87.974C193.966 91.503 194.032 96.1847 191.659 99.7818C180.552 116.619 169.656 136.289 164.138 150.144C164.846 149.59 165.587 148.997 166.361 148.365C170.854 144.699 177.468 145.368 181.135 149.861C184.801 154.354 184.132 160.968 179.639 164.635C173.961 169.269 168.971 172.766 164.65 174.979C162.483 176.089 160.159 177.047 157.762 177.571C155.407 178.087 152.301 178.33 149.069 177.208C141.181 174.467 139.73 166.923 139.619 163.087C139.501 158.971 140.521 154.47 141.785 150.354C145.512 138.223 154.023 121.31 163.498 105.259L159.557 88.7884L180.45 83.7884C184.641 82.7855 189.02 84.4451 191.493 87.974Z" fill="#573CF9"/>
<path d="M211 68.5C211 75.9558 204.956 82 197.5 82C190.044 82 184 75.9558 184 68.5C184 61.0442 190.044 55 197.5 55C204.956 55 211 61.0442 211 68.5Z" fill="#573CF9"/>
<path fill-rule="evenodd" clip-rule="evenodd" d="M197.5 81C204.404 81 210 75.4036 210 68.5C210 61.5964 204.404 56 197.5 56C190.596 56 185 61.5964 185 68.5C185 75.4036 190.596 81 197.5 81ZM197.5 82C204.956 82 211 75.9558 211 68.5C211 61.0442 204.956 55 197.5 55C190.044 55 184 61.0442 184 68.5C184 75.9558 190.044 82 197.5 82Z" fill="#573CF9"/>
<path d="M265.346 84.4653L233.48 94.5733C236.167 86.2679 238.482 78.8009 239.5 76.0005C245.856 87.4409 255.711 87.0905 265.346 84.4653L273.043 82.0238C275.842 81.0669 278.529 80.1374 281 79.4998L273.043 82.0238C270.543 82.8785 267.952 83.7551 265.346 84.4653Z" fill="#573CF9"/>
<path fill-rule="evenodd" clip-rule="evenodd" d="M238.67 65.533C242.769 65.2078 246.681 67.3059 248.679 70.9009C250.549 74.2683 252.242 74.9778 253.52 75.2683C255.405 75.6966 258.19 75.514 262.386 74.3881L269.757 72.0503C269.891 72.0044 270.026 71.9581 270.163 71.9114C272.707 71.0405 275.616 70.0448 278.376 69.3325C283.883 67.9114 289.52 71.1331 291.091 76.5991C292.662 82.0652 289.596 87.7884 284.175 89.508L276.329 91.9968C273.936 92.8143 271.172 93.751 268.322 94.5364L241.79 102.953C239.631 109.5 237.305 116.259 235.249 121.399C230.844 132.411 227.133 141.881 224.867 149.494C223.834 152.962 223.196 155.743 222.9 157.896C223.007 157.868 223.116 157.839 223.228 157.808C229.195 156.177 239.116 151.484 254.513 142.047C259.457 139.017 265.922 140.568 268.952 145.513C271.983 150.457 270.431 156.921 265.487 159.952C249.884 169.515 237.809 175.593 228.766 178.065C224.291 179.288 219.34 179.984 214.641 178.787C209.189 177.399 205.181 173.738 203.197 168.764C201.492 164.488 201.531 159.903 201.959 156.124C202.409 152.161 203.442 147.863 204.74 143.503C207.329 134.804 211.423 124.42 215.751 113.6C216.092 112.748 216.444 111.838 216.805 110.878L191.175 119.008C185.647 120.761 179.745 117.702 177.991 112.174C176.238 106.647 179.298 100.744 184.825 98.9909L225.141 86.2026C225.437 85.2757 225.728 84.3647 226.011 83.4781C227.574 78.5794 228.901 74.4225 229.632 72.4118C231.037 68.5469 234.57 65.8582 238.67 65.533Z" fill="#573CF9"/>
<path fill-rule="evenodd" clip-rule="evenodd" d="M342.665 149.53C336.246 152.517 329.144 155.58 321.308 158.722C309.795 163.337 300.162 166.271 292.193 167.675C284.408 169.046 277.203 169.142 271.176 166.997C264.459 164.605 259.866 159.62 258.199 153.053C256.725 147.25 257.795 141.28 259.427 136.322C262.733 126.276 269.98 115.5 277.65 106.918C285.089 98.5933 294.677 90.3624 303.701 87.475C315.998 83.54 326.811 83.9332 335.571 90.2798C343.409 95.959 347.528 105.122 350.477 112.731C351.505 115.383 352.422 117.923 353.308 120.401C359.46 116.797 364.161 113.507 367.669 110.553C374.429 104.861 375.328 101.776 375.435 100.939C375.113 100.569 373.704 99.0229 369.37 98.0446C364.344 96.9101 360.418 97.7901 359.419 98.4074C354.485 101.455 348.015 99.9255 344.968 94.9918C341.92 90.058 343.45 83.5881 348.383 80.5407C355.884 75.908 366.145 75.7882 373.994 77.5601C381.545 79.2647 392.197 84.0189 395.546 94.7111C399.19 106.345 392.112 117.424 381.195 126.616C376.144 130.869 369.615 135.325 361.374 139.987C364.664 146.172 368.677 151.473 374.16 155.543C378.816 159 379.788 165.577 376.332 170.233C372.875 174.889 366.298 175.861 361.642 172.404C352.845 165.873 346.962 157.686 342.665 149.53ZM334.49 130.17C328.34 133.049 321.371 136.072 313.494 139.229C302.757 143.534 294.593 145.929 288.55 146.993C282.797 148.006 279.78 147.664 278.5 147.302C278.493 146.564 278.632 145.144 279.375 142.886C281.444 136.598 286.697 128.309 293.308 120.911C300.15 113.255 306.624 108.588 310.101 107.476C318.685 104.729 321.813 106.245 323.25 107.286C325.608 108.994 327.941 112.697 330.897 120.321C331.664 122.301 332.491 124.605 333.385 127.099C333.742 128.095 334.11 129.121 334.49 130.17ZM375.444 100.703C375.445 100.703 375.447 100.718 375.448 100.748C375.444 100.718 375.443 100.703 375.444 100.703Z" fill="#573CF9"/>
</svg>
