<svg width="397" height="180" viewBox="0 0 397 180" fill="none" xmlns="http://www.w3.org/2000/svg">
<path d="M11 54.7622C32.7381 28.0728 75.9987 -14.1286 75.1364 30.5805C74.0584 86.467 -9.48052 195.553 59.5065 158.474C114.696 128.812 144.662 71.9579 152.747 47.2389C156.16 54.5829 146.79 100.649 158 98.5" stroke="#573CF9" stroke-width="21" stroke-linecap="round" stroke-linejoin="round"/>
<path d="M182.894 94L191.659 99.7818C194.032 96.1847 193.966 91.5029 191.493 87.9739C189.02 84.445 184.641 82.7854 180.451 83.7883L182.894 94ZM179.639 164.635C184.132 160.968 184.801 154.354 181.135 149.861C177.468 145.368 170.854 144.699 166.361 148.365L179.639 164.635ZM164.444 109.212L185.338 104.212L180.451 83.7883L159.557 88.7883L164.444 109.212ZM174.129 88.2182C160.913 108.254 146.88 133.771 141.785 150.354C140.521 154.47 139.501 158.971 139.619 163.087C139.73 166.923 141.181 174.467 149.069 177.208C152.301 178.33 155.407 178.087 157.762 177.571C160.159 177.047 162.483 176.089 164.65 174.979C168.971 172.766 173.961 169.269 179.639 164.635L166.361 148.365C161.164 152.606 157.49 155.052 155.076 156.288C154.503 156.582 154.061 156.776 153.739 156.9C153.413 157.025 153.265 157.058 153.273 157.057C153.277 157.056 153.525 157 153.966 157.005C154.417 157.01 155.12 157.079 155.961 157.371C160.692 159.014 160.637 163.409 160.611 162.481C160.592 161.833 160.804 159.957 161.859 156.521C166.045 142.896 178.709 119.413 191.659 99.7818L174.129 88.2182Z" fill="#573CF9"/>
<path d="M210.5 68.5C210.5 75.6797 204.68 81.5 197.5 81.5C190.32 81.5 184.5 75.6797 184.5 68.5C184.5 61.3203 190.32 55.5 197.5 55.5C204.68 55.5 210.5 61.3203 210.5 68.5Z" fill="#573CF9" stroke="#573CF9"/>
<path d="M265.346 84.4648L233.48 94.5728C236.167 86.2674 238.482 78.8005 239.5 76C245.856 87.4404 255.711 87.09 265.346 84.4648L273.043 82.0233C275.842 81.0664 278.529 80.1369 281 79.4993L273.043 82.0233C270.543 82.878 267.952 83.7546 265.346 84.4648Z" fill="#573CF9"/>
<path d="M188 108.999L281 79.4993C268.164 82.8119 249.5 94 239.5 76C237.5 81.5 230.5 105 225.5 117.499C208.034 161.164 198 188.999 260 150.999" stroke="#573CF9" stroke-width="21" stroke-linecap="round" stroke-linejoin="round"/>
<path d="M367.901 163.974C334.901 139.474 348.664 84.1116 306.901 97.4754C281.901 105.475 228.401 184.652 317.401 148.975C433.401 102.475 370.901 78.974 353.901 89.474" stroke="#573CF9" stroke-width="21" stroke-linecap="round"/>
</svg>
