<svg width="24" height="24" viewBox="0 0 24 24" fill="none" xmlns="http://www.w3.org/2000/svg">
<path fill-rule="evenodd" clip-rule="evenodd" d="M1 6C1 5.44772 1.44772 5 2 5H22C22.5523 5 23 5.44772 23 6V18C23 18.5523 22.5523 19 22 19H2C1.44772 19 1 18.5523 1 18V6ZM3.25 8C3.25 7.58579 3.58579 7.25 4 7.25H7C7.41421 7.25 7.75 7.58579 7.75 8C7.75 8.41421 7.41421 8.75 7 8.75H4C3.58579 8.75 3.25 8.41421 3.25 8ZM17 8H19C19.5523 8 20 8.44772 20 9V11C20 11.5523 19.5523 12 19 12H17C16.4477 12 16 11.5523 16 11V9C16 8.44772 16.4477 8 17 8ZM3.25 11C3.25 10.5858 3.58579 10.25 4 10.25H10C10.4142 10.25 10.75 10.5858 10.75 11C10.75 11.4142 10.4142 11.75 10 11.75H4C3.58579 11.75 3.25 11.4142 3.25 11ZM4 13.25C3.58579 13.25 3.25 13.5858 3.25 14C3.25 14.4142 3.58579 14.75 4 14.75H10C10.4142 14.75 10.75 14.4142 10.75 14C10.75 13.5858 10.4142 13.25 10 13.25H4Z" fill="black"/>
</svg>
