<svg width="22" height="22" viewBox="0 0 22 22" fill="none" xmlns="http://www.w3.org/2000/svg">
<path d="M20.111 21.2484C16.4264 21.2977 11.7317 20.1718 7.89435 17.2074C4.08301 14.2631 1.06682 9.46833 0.750638 2.05541C0.735578 1.70246 1.00217 1.37762 1.38702 1.3279L5.81121 0.756341C6.20549 0.705402 6.57261 0.966462 6.65394 1.35569L7.43983 5.11693C7.50123 5.41081 7.38422 5.71333 7.14107 5.88938L6.27338 6.51759C5.61704 6.9928 5.35869 7.87481 5.71031 8.63547C7.75542 13.0597 10.4408 15.2777 13.6631 16.5611C14.4897 16.8903 15.3907 16.5158 15.7946 15.7755L16.3187 14.8149C16.477 14.5247 16.8045 14.3699 17.1291 14.4316L20.6308 15.0971C21.0201 15.1712 21.2876 15.5316 21.2456 15.9258L20.7455 20.6207C20.7053 20.9982 20.4181 21.2442 20.111 21.2484Z" fill="black" stroke="black" stroke-linecap="round"/>
</svg>
