<svg width="24" height="24" viewBox="0 0 24 24" fill="none" xmlns="http://www.w3.org/2000/svg">
<g clip-path="url(#clip0_1607_8258)">
<path d="M1 12C1 5.92487 5.92487 0.999999 12 1C18.0751 1 23 5.92487 23 12C23 18.0751 18.0751 23 12 23C5.92487 23 0.999999 18.0751 1 12Z" stroke="black" stroke-width="1.5" stroke-linecap="round" stroke-linejoin="round"/>
<path d="M6 9.76619L6 15.1018C6 15.9064 6.90193 16.3815 7.56553 15.9265L11.7154 13.0809C12.3162 12.6689 12.289 11.7734 11.6644 11.3986L7.5145 8.9087C6.84797 8.50878 6 8.9889 6 9.76619Z" stroke="black" stroke-width="1.5" stroke-linecap="round" stroke-linejoin="round"/>
<path d="M13 9.76619L13 15.1018C13 15.9064 13.9019 16.3815 14.5655 15.9265L18.7154 13.0809C19.3162 12.6689 19.289 11.7734 18.6644 11.3986L14.5145 8.9087C13.848 8.50878 13 8.9889 13 9.76619Z" stroke="black" stroke-width="1.5" stroke-linecap="round" stroke-linejoin="round"/>
</g>
<defs>
<clipPath id="clip0_1607_8258">
<rect width="24" height="24" fill="white"/>
</clipPath>
</defs>
</svg>
