<svg width="24" height="24" viewBox="0 0 24 24" fill="none" xmlns="http://www.w3.org/2000/svg">
<path d="M12 12L9.9726 9.10372C9.04967 7.78524 7.54149 7 5.93208 7C3.20817 7 1 9.20817 1 11.9321V12.0679C1 14.7918 3.20817 17 5.93208 17C7.54149 17 9.04967 16.2148 9.9726 14.8963L12 12ZM12 12L14.0274 14.8963C14.9503 16.2148 16.4585 17 18.0679 17C20.7918 17 23 14.7918 23 12.0679V11.9321C23 9.20817 20.7918 7 18.0679 7C16.4585 7 14.9503 7.78524 14.0274 9.10372L12 12Z" stroke="black" stroke-width="1.5" stroke-linecap="round" stroke-linejoin="round"/>
</svg>
