<svg width="24" height="24" viewBox="0 0 24 24" fill="none" xmlns="http://www.w3.org/2000/svg">
<path d="M19.3672 17L19.3672 16.25H19.3672L19.3672 17ZM23 17.75C23.4142 17.75 23.75 17.4142 23.75 17C23.75 16.5858 23.4142 16.25 23 16.25V17.75ZM1 6.25C0.585786 6.25 0.25 6.58579 0.25 7C0.25 7.41421 0.585787 7.75 1 7.75L1 6.25ZM2.63278 7L2.63278 6.25L2.63278 6.25L2.63278 7ZM19.3672 7L19.3672 6.25L19.3672 6.25L19.3672 7ZM23 7.75C23.4142 7.75 23.75 7.41421 23.75 7C23.75 6.58579 23.4142 6.25 23 6.25L23 7.75ZM1 16.25C0.585786 16.25 0.25 16.5858 0.25 17C0.25 17.4142 0.585786 17.75 1 17.75V16.25ZM2.63278 17L2.63278 16.25H2.63278V17ZM20.5303 3.46967C20.2375 3.17678 19.7626 3.17678 19.4697 3.46967C19.1768 3.76256 19.1768 4.23744 19.4697 4.53033L20.5303 3.46967ZM22.9293 6.92929L23.4596 6.39896L23.4596 6.39896L22.9293 6.92929ZM22.9293 7.07071L22.399 6.54038L22.399 6.54038L22.9293 7.07071ZM19.4697 9.46967C19.1768 9.76256 19.1768 10.2374 19.4697 10.5303C19.7626 10.8232 20.2374 10.8232 20.5303 10.5303L19.4697 9.46967ZM20.5303 13.4697C20.2375 13.1768 19.7626 13.1768 19.4697 13.4697C19.1768 13.7626 19.1768 14.2374 19.4697 14.5303L20.5303 13.4697ZM22.9293 16.9293L23.4596 16.399L23.4596 16.399L22.9293 16.9293ZM22.9293 17.0707L22.399 16.5404L22.399 16.5404L22.9293 17.0707ZM19.4697 19.4697C19.1768 19.7626 19.1768 20.2374 19.4697 20.5303C19.7626 20.8232 20.2374 20.8232 20.5303 20.5303L19.4697 19.4697ZM19.3672 17.75H23V16.25H19.3672V17.75ZM1 7.75L2.63278 7.75L2.63278 6.25L1 6.25L1 7.75ZM2.63278 7.75C5.85341 7.75 8.81375 9.51901 10.3395 12.3553L11.6605 11.6447C9.87322 8.32224 6.40545 6.25 2.63278 6.25L2.63278 7.75ZM19.3672 16.25C16.1466 16.25 13.1862 14.481 11.6605 11.6447L10.3395 12.3553C12.1268 15.6778 15.5946 17.75 19.3672 17.75L19.3672 16.25ZM19.3672 7.75L23 7.75L23 6.25L19.3672 6.25L19.3672 7.75ZM1 17.75H2.63278V16.25H1V17.75ZM2.63278 17.75C6.40545 17.75 9.87322 15.6778 11.6605 12.3553L10.3395 11.6447C8.81375 14.481 5.85341 16.25 2.63278 16.25L2.63278 17.75ZM19.3672 6.25C15.5946 6.25 12.1268 8.32224 10.3395 11.6447L11.6605 12.3553C13.1862 9.51901 16.1466 7.75 19.3672 7.75L19.3672 6.25ZM19.4697 4.53033L22.399 7.45962L23.4596 6.39896L20.5303 3.46967L19.4697 4.53033ZM22.399 6.54038L19.4697 9.46967L20.5303 10.5303L23.4596 7.60104L22.399 6.54038ZM22.399 7.45962C22.1451 7.20578 22.1451 6.79422 22.399 6.54038L23.4596 7.60104C23.7916 7.26909 23.7916 6.73091 23.4596 6.39896L22.399 7.45962ZM19.4697 14.5303L22.399 17.4596L23.4596 16.399L20.5303 13.4697L19.4697 14.5303ZM22.399 16.5404L19.4697 19.4697L20.5303 20.5303L23.4596 17.601L22.399 16.5404ZM22.399 17.4596C22.1451 17.2058 22.1451 16.7942 22.399 16.5404L23.4596 17.601C23.7916 17.2691 23.7916 16.7309 23.4596 16.399L22.399 17.4596Z" fill="black"/>
</svg>
