<svg width="24" height="24" viewBox="0 0 24 24" fill="none" xmlns="http://www.w3.org/2000/svg">
<g clip-path="url(#clip0_1607_8322)">
<path d="M16.6882 15.1819L16.6882 14.4319L16.6882 14.4319L16.6882 15.1819ZM18.9736 15.9319C19.3879 15.9319 19.7236 15.5962 19.7236 15.1819C19.7236 14.7677 19.3879 14.4319 18.9736 14.4319V15.9319ZM5 8.0683C4.58579 8.0683 4.25 8.40409 4.25 8.8183C4.25 9.23252 4.58579 9.5683 5 9.5683V8.0683ZM6.03904 8.8183L6.03904 9.5683L6.03904 9.5683L6.03904 8.8183ZM16.6882 8.81831L16.6882 9.56831H16.6882V8.81831ZM18.9736 9.56831C19.3879 9.56831 19.7236 9.23252 19.7236 8.81831C19.7236 8.40409 19.3879 8.06831 18.9736 8.06831V9.56831ZM5 14.4319C4.58579 14.4319 4.25 14.7677 4.25 15.1819C4.25 15.5962 4.58579 15.9319 5 15.9319V14.4319ZM6.03904 15.1819L6.03904 14.4319H6.03904V15.1819ZM17.6212 6.37888C17.3284 6.08599 16.8535 6.08599 16.5606 6.37888C16.2677 6.67178 16.2677 7.14665 16.5606 7.43954L17.6212 6.37888ZM18.955 8.77331L18.4247 9.30364L18.4247 9.30364L18.955 8.77331ZM18.955 8.8633L18.4247 8.33297L18.4247 8.33297L18.955 8.8633ZM16.5606 10.1971C16.2677 10.49 16.2677 10.9648 16.5606 11.2577C16.8535 11.5506 17.3284 11.5506 17.6212 11.2577L16.5606 10.1971ZM17.6212 12.7425C17.3284 12.4496 16.8535 12.4496 16.5606 12.7425C16.2677 13.0354 16.2677 13.5103 16.5606 13.8032L17.6212 12.7425ZM18.955 15.1369L18.4247 15.6673L18.4247 15.6673L18.955 15.1369ZM18.955 15.2269L18.4247 14.6966L18.4247 14.6966L18.955 15.2269ZM16.5606 16.5607C16.2677 16.8536 16.2677 17.3285 16.5606 17.6214C16.8535 17.9143 17.3284 17.9143 17.6212 17.6214L16.5606 16.5607ZM1.75 12C1.75 6.33908 6.33908 1.75 12 1.75L12 0.25C5.51066 0.249999 0.250001 5.51065 0.25 12L1.75 12ZM12 1.75C17.6609 1.75 22.25 6.33908 22.25 12L23.75 12C23.75 5.51066 18.4893 0.250001 12 0.25L12 1.75ZM22.25 12C22.25 17.6609 17.6609 22.25 12 22.25L12 23.75C18.4893 23.75 23.75 18.4893 23.75 12L22.25 12ZM12 22.25C6.33908 22.25 1.75 17.6609 1.75 12L0.25 12C0.249999 18.4893 5.51065 23.75 12 23.75L12 22.25ZM16.6882 15.9319H18.9736V14.4319H16.6882V15.9319ZM5 9.5683H6.03904V8.0683H5V9.5683ZM6.03904 9.5683C7.98816 9.5683 9.77976 10.6389 10.7031 12.3554L12.0241 11.6448C10.8392 9.44213 8.5402 8.0683 6.03904 8.0683L6.03904 9.5683ZM16.6882 14.4319C14.7391 14.4319 12.9475 13.3613 12.0241 11.6448L10.7031 12.3554C11.888 14.5581 14.1871 15.9319 16.6882 15.9319L16.6882 14.4319ZM16.6882 9.56831H18.9736V8.06831H16.6882V9.56831ZM5 15.9319H6.03904V14.4319H5V15.9319ZM6.03904 15.9319C8.5402 15.9319 10.8392 14.5581 12.0241 12.3554L10.7031 11.6448C9.77976 13.3613 7.98816 14.4319 6.03904 14.4319L6.03904 15.9319ZM16.6882 8.06831C14.1871 8.0683 11.888 9.44213 10.7031 11.6448L12.0241 12.3554C12.9475 10.6389 14.7391 9.5683 16.6882 9.56831L16.6882 8.06831ZM16.5606 7.43954L18.4247 9.30364L19.4853 8.24298L17.6212 6.37888L16.5606 7.43954ZM18.4247 8.33297L16.5606 10.1971L17.6212 11.2577L19.4853 9.39363L18.4247 8.33297ZM18.4247 9.30364C18.1566 9.0356 18.1566 8.60101 18.4247 8.33297L19.4853 9.39363C19.8031 9.07589 19.8031 8.56072 19.4853 8.24298L18.4247 9.30364ZM16.5606 13.8032L18.4247 15.6673L19.4853 14.6066L17.6212 12.7425L16.5606 13.8032ZM18.4247 14.6966L16.5606 16.5607L17.6212 17.6214L19.4853 15.7573L18.4247 14.6966ZM18.4247 15.6673C18.1566 15.3992 18.1566 14.9647 18.4247 14.6966L19.4853 15.7573C19.8031 15.4395 19.8031 14.9244 19.4853 14.6066L18.4247 15.6673Z" fill="black"/>
</g>
<defs>
<clipPath id="clip0_1607_8322">
<rect width="24" height="24" fill="white"/>
</clipPath>
</defs>
</svg>
