<svg width="24" height="24" viewBox="0 0 24 24" fill="none" xmlns="http://www.w3.org/2000/svg">
<path d="M19.7576 4C21.7904 6.21219 23 8.98724 23 12C23 15.0128 21.7904 17.7878 19.7576 20M17 17C18.2556 15.6086 19 13.877 19 12C19 10.123 18.2556 8.39137 17 7M6.24936 8.71903H2C1.44772 8.71903 1 9.16674 1 9.71903V14.2807C1 14.833 1.44771 15.2807 2 15.2807H6.24936V8.71903ZM6.2494 8.81818L12.4385 5.72361C13.1034 5.39116 13.8858 5.87465 13.8858 6.61803V17.382C13.8858 18.1253 13.1034 18.6088 12.4385 18.2764L6.2494 15.1818V8.81818Z" stroke="black" stroke-width="1.5" stroke-linecap="round"/>
</svg>
