<svg width="24" height="24" viewBox="0 0 24 24" fill="none" xmlns="http://www.w3.org/2000/svg">
<path d="M19.4351 7.03891C16.2094 7.85542 14.3195 8.01966 12 8.01966C9.41454 8.01966 7.67632 7.85604 4.56414 7.04353C3.91593 6.8743 3.24609 7.2448 3.05287 7.88895C2.85438 8.55067 3.23229 9.24758 3.89308 9.44006C6.54676 10.2131 8.76612 11.0945 8.76612 11.0945C8.76612 11.0945 7.66938 16.0544 6.38321 21.0278C6.16599 21.8677 6.66653 22.7249 7.50166 22.9471C8.34355 23.171 9.2055 22.6633 9.43213 21.8186C10.5846 17.5231 11.1928 16.0316 12 16.0316C12.8072 16.0316 13.4154 17.5231 14.5679 21.8186C14.7945 22.6633 15.6565 23.171 16.4984 22.9471C17.3335 22.7249 17.834 21.8677 17.6168 21.0278C16.3306 16.0544 15.2339 11.0945 15.2339 11.0945C15.2339 11.0945 17.4532 10.2131 20.1069 9.44006C20.7677 9.24758 21.1456 8.55067 20.9471 7.88895C20.7539 7.2448 20.0845 6.87452 19.4351 7.03891Z" stroke="black" stroke-width="1.5" stroke-linecap="round" stroke-linejoin="round"/>
<path d="M14.5 3.5C14.5 4.88071 13.3807 6 12 6C10.6193 6 9.5 4.88071 9.5 3.5C9.5 2.11929 10.6193 1 12 1C13.3807 1 14.5 2.11929 14.5 3.5Z" stroke="black" stroke-width="1.5" stroke-linecap="round" stroke-linejoin="round"/>
</svg>
