<svg width="24" height="24" viewBox="0 0 24 24" fill="none" xmlns="http://www.w3.org/2000/svg">
<g clip-path="url(#clip0_1607_7162)">
<path d="M13.5117 14.503L9.71526 18.2994L10.3325 21.18C10.68 22.8017 8.52657 23.7039 7.61437 22.3187L5.2586 18.7414L1.68131 16.3856C0.29612 15.4734 1.19829 13.32 2.82004 13.6675L5.70056 14.2847L9.49704 10.4883M13.5117 14.503L17.615 19.974C19.297 22.2166 22.8025 20.2466 21.7614 17.6438L18.5069 9.50776M13.5117 14.503L18.5069 9.50776M18.5069 9.50776L22.1685 5.84616C23.2772 4.73754 23.2772 2.9401 22.1685 1.83147C21.0599 0.722843 19.2625 0.722843 18.1538 1.83147L14.4922 5.49307M14.4922 5.49307L6.3562 2.23866C3.75343 1.19755 1.78337 4.70303 4.02599 6.38499L9.49704 10.4883M14.4922 5.49307L9.49704 10.4883M18.7102 4.51484L19.4851 5.2898" stroke="black" stroke-width="1.5" stroke-linecap="round"/>
</g>
<defs>
<clipPath id="clip0_1607_7162">
<rect width="24" height="24" fill="white"/>
</clipPath>
</defs>
</svg>
