<svg width="24" height="24" viewBox="0 0 24 24" fill="none" xmlns="http://www.w3.org/2000/svg">
<path d="M11.75 9C11.75 8.58579 11.4142 8.25 11 8.25C10.5858 8.25 10.25 8.58579 10.25 9H11.75ZM10.25 12.5C10.25 12.9142 10.5858 13.25 11 13.25C11.4142 13.25 11.75 12.9142 11.75 12.5H10.25ZM11.75 15C11.75 14.5858 11.4142 14.25 11 14.25C10.5858 14.25 10.25 14.5858 10.25 15H11.75ZM10.25 15.0457C10.25 15.4599 10.5858 15.7957 11 15.7957C11.4142 15.7957 11.75 15.4599 11.75 15.0457H10.25ZM22.25 10V14H23.75V10H22.25ZM21 9.75H22V8.25H21V9.75ZM22 14.25H21V15.75H22V14.25ZM22.25 14C22.25 14.1381 22.1381 14.25 22 14.25V15.75C22.9665 15.75 23.75 14.9665 23.75 14H22.25ZM23.75 10C23.75 9.0335 22.9665 8.25 22 8.25V9.75C22.1381 9.75 22.25 9.86193 22.25 10H23.75ZM3 6.75H19V5.25H3V6.75ZM20.25 8V16H21.75V8H20.25ZM19 17.25H3V18.75H19V17.25ZM1.75 16V8H0.25V16H1.75ZM3 17.25C2.30964 17.25 1.75 16.6904 1.75 16H0.25C0.25 17.5188 1.48122 18.75 3 18.75V17.25ZM20.25 16C20.25 16.6904 19.6904 17.25 19 17.25V18.75C20.5188 18.75 21.75 17.5188 21.75 16H20.25ZM19 6.75C19.6904 6.75 20.25 7.30964 20.25 8H21.75C21.75 6.48122 20.5188 5.25 19 5.25V6.75ZM3 5.25C1.48122 5.25 0.25 6.48122 0.25 8H1.75C1.75 7.30964 2.30964 6.75 3 6.75V5.25ZM10.25 9V12.5H11.75V9H10.25ZM10.25 15V15.0457H11.75V15H10.25Z" fill="black"/>
</svg>
