<svg width="24" height="24" viewBox="0 0 24 24" fill="none" xmlns="http://www.w3.org/2000/svg">
<g clip-path="url(#clip0_1607_7206)">
<path d="M10 7.34188V6C10 4.89543 10.8954 4 12 4C13.1046 4 14 4.89543 14 6L14 7.34188M17 4C18.6569 4 20 5.34315 20 7M17 1C20.3137 1 23 3.68629 23 7M7 4C5.34315 4 4 5.34315 4 7M7 1C3.68629 1 1 3.68629 1 7M9.06662 20.6317C9.3567 21.9852 10.5598 23 12 23C13.4402 23 14.6433 21.9852 14.9334 20.6317M9.06662 20.6317H6.46267C4.87092 20.6317 3.91702 18.8625 4.7917 17.5326L5.88581 15.8691C5.9672 15.7454 6.03455 15.6078 6.03455 15.4597V12.9598C6.03455 9.6683 8.70285 7 11.9944 7C15.2859 7 17.9542 9.6683 17.9542 12.9598V15.4343C17.9542 15.5917 18.0275 15.7375 18.114 15.8691L19.2081 17.5326C20.0829 18.8625 19.129 20.6317 17.5372 20.6317H14.9334M9.06662 20.6317H14.9334" stroke="black" stroke-width="1.5" stroke-linecap="round"/>
</g>
<defs>
<clipPath id="clip0_1607_7206">
<rect width="24" height="24" fill="white"/>
</clipPath>
</defs>
</svg>
