<svg width="24" height="24" viewBox="0 0 24 24" fill="none" xmlns="http://www.w3.org/2000/svg">
<g clip-path="url(#clip0_1607_7214)">
<path d="M10 18.5C10 16.0147 7.98528 14 5.5 14C3.01472 14 1 16.0147 1 18.5M1 18.5C1 20.9853 3.01472 23 5.5 23L5.78218 22.9998C8.11162 22.9998 10 21.1114 10 18.782V5.83851C10 4.27084 8.72916 3 7.16149 3H6.99629C6.63776 3 6.29264 3.07278 5.97711 3.20604M1 18.5V18.288C1 17.7649 1.0705 17.2443 1.20959 16.7401L4.46912 4.92441C4.68741 4.13314 5.25473 3.51111 5.97711 3.20604M14 18.5C14 16.0147 16.0147 14 18.5 14C20.9853 14 23 16.0147 23 18.5M23 18.5C23 20.9853 20.9853 23 18.5 23L18.2178 22.9998C15.8884 22.9998 14 21.1114 14 18.782V5.83851C14 4.27084 15.2708 3 16.8385 3H17.0037C17.3634 3 17.7096 3.07325 18.0259 3.20732M23 18.5V18.288C23 17.7649 22.9295 17.2443 22.7904 16.7401L19.5309 4.92441C19.3129 4.13425 18.7469 3.51285 18.0259 3.20732M9 3.67579V2.46581C9 1.65627 8.34373 1 7.53419 1C6.78728 1 6.15982 1.56161 6.07734 2.30394L5.97711 3.20604M15 3.67579V2.46581C15 1.65627 15.6563 1 16.4658 1C17.2127 1 17.8402 1.56161 17.9227 2.30394L18.0259 3.20732M10 16H14M10 9L10.2111 8.89443C11.3373 8.33137 12.6627 8.33137 13.7889 8.89443L14 9V14L12.9701 13.7425C12.3332 13.5833 11.6668 13.5833 11.0299 13.7425L10 14V9Z" stroke="black" stroke-width="1.5"/>
</g>
<defs>
<clipPath id="clip0_1607_7214">
<rect width="24" height="24" fill="white"/>
</clipPath>
</defs>
</svg>
