<svg width="24" height="24" viewBox="0 0 24 24" fill="none" xmlns="http://www.w3.org/2000/svg">
<g clip-path="url(#clip0_1607_7254)">
<path d="M6.15001 1C6.15001 0.585786 5.81423 0.25 5.40001 0.25C4.9858 0.25 4.65001 0.585786 4.65001 1H6.15001ZM4.65001 5.4C4.65001 5.81421 4.9858 6.15 5.40001 6.15C5.81423 6.15 6.15001 5.81421 6.15001 5.4H4.65001ZM19.35 1C19.35 0.585786 19.0142 0.25 18.6 0.25C18.1858 0.25 17.85 0.585786 17.85 1H19.35ZM17.85 5.4C17.85 5.81421 18.1858 6.15 18.6 6.15C19.0142 6.15 19.35 5.81421 19.35 5.4H17.85ZM1 9.26741H0.25V10.7674H1V9.26741ZM23 10.7674C23.4142 10.7674 23.75 10.4316 23.75 10.0174C23.75 9.6032 23.4142 9.26741 23 9.26741V10.7674ZM6.75967 14.0252C6.75967 13.611 6.42389 13.2752 6.00967 13.2752C5.59546 13.2752 5.25967 13.611 5.25967 14.0252H6.75967ZM5.25967 14.057C5.25967 14.4712 5.59546 14.807 6.00967 14.807C6.42389 14.807 6.75967 14.4712 6.75967 14.057H5.25967ZM18.7829 14.0252C18.7829 13.611 18.4471 13.2752 18.0329 13.2752C17.6187 13.2752 17.2829 13.611 17.2829 14.0252H18.7829ZM17.2829 14.057C17.2829 14.4712 17.6187 14.807 18.0329 14.807C18.4471 14.807 18.7829 14.4712 18.7829 14.057H17.2829ZM12.7713 14.0252C12.7713 13.611 12.4355 13.2752 12.0213 13.2752C11.6071 13.2752 11.2713 13.611 11.2713 14.0252H12.7713ZM11.2713 14.057C11.2713 14.4712 11.6071 14.807 12.0213 14.807C12.4355 14.807 12.7713 14.4712 12.7713 14.057H11.2713ZM12.7713 19.0349C12.7713 18.6207 12.4355 18.2849 12.0213 18.2849C11.6071 18.2849 11.2713 18.6207 11.2713 19.0349H12.7713ZM11.2713 19.0667C11.2713 19.4809 11.6071 19.8167 12.0213 19.8167C12.4355 19.8167 12.7713 19.4809 12.7713 19.0667H11.2713ZM6.75967 19.0349C6.75967 18.6207 6.42389 18.2849 6.00967 18.2849C5.59546 18.2849 5.25967 18.6207 5.25967 19.0349H6.75967ZM5.25967 19.0667C5.25967 19.4809 5.59546 19.8167 6.00967 19.8167C6.42389 19.8167 6.75967 19.4809 6.75967 19.0667H5.25967ZM18.7829 19.0349C18.7829 18.6207 18.4471 18.2849 18.0329 18.2849C17.6187 18.2849 17.2829 18.6207 17.2829 19.0349H18.7829ZM17.2829 19.0667C17.2829 19.4809 17.6187 19.8167 18.0329 19.8167C18.4471 19.8167 18.7829 19.4809 18.7829 19.0667H17.2829ZM2.00193 3.28746H21.9981V1.78746H2.00193V3.28746ZM22.25 3.53939V21.9981H23.75V3.53939H22.25ZM21.9981 22.25H2.00193V23.75H21.9981V22.25ZM1.75 21.9981V3.5394H0.25V21.9981H1.75ZM2.00193 22.25C1.86279 22.25 1.75 22.1372 1.75 21.9981H0.25C0.25 22.9657 1.03437 23.75 2.00193 23.75V22.25ZM22.25 21.9981C22.25 22.1372 22.1372 22.25 21.9981 22.25V23.75C22.9656 23.75 23.75 22.9657 23.75 21.9981H22.25ZM21.9981 3.28746C22.1372 3.28746 22.25 3.40026 22.25 3.53939H23.75C23.75 2.57183 22.9656 1.78746 21.9981 1.78746V3.28746ZM2.00193 1.78746C1.03437 1.78746 0.25 2.57183 0.25 3.5394H1.75C1.75 3.40026 1.8628 3.28746 2.00193 3.28746V1.78746ZM4.65001 1V5.4H6.15001V1H4.65001ZM17.85 1V5.4H19.35V1H17.85ZM1 10.7674H23V9.26741H1V10.7674ZM5.25967 14.0252V14.057H6.75967V14.0252H5.25967ZM17.2829 14.0252V14.057H18.7829V14.0252H17.2829ZM11.2713 14.0252V14.057H12.7713V14.0252H11.2713ZM11.2713 19.0349V19.0667H12.7713V19.0349H11.2713ZM5.25967 19.0349V19.0667H6.75967V19.0349H5.25967ZM17.2829 19.0349V19.0667H18.7829V19.0349H17.2829Z" fill="black"/>
</g>
<defs>
<clipPath id="clip0_1607_7254">
<rect width="24" height="24" fill="white"/>
</clipPath>
</defs>
</svg>
