<svg width="24" height="24" viewBox="0 0 24 24" fill="none" xmlns="http://www.w3.org/2000/svg">
<path d="M7 5.00004V3.00004M4 8.00004V8.03183M19.4658 4.74744L17.7842 3.2526C17.6011 3.08988 17.3647 3 17.1198 3H13.49C13.2543 3 13.0261 3.08326 12.8458 3.2351L11.0292 4.76494C10.8489 4.91678 10.6207 5.00004 10.385 5.00004H2C1.44772 5.00004 1 5.44775 1 6.00004V18C1 18.5523 1.44772 19 2 19H22C22.5523 19 23 18.5523 23 18V6.00004C23 5.44775 22.5523 5.00004 22 5.00004H20.1302C19.8853 5.00004 19.6489 4.91016 19.4658 4.74744ZM19 12C19 14.2092 17.2091 16 15 16C12.7909 16 11 14.2092 11 12C11 9.7909 12.7909 8.00004 15 8.00004C17.2091 8.00004 19 9.7909 19 12Z" stroke="black" stroke-width="1.5" stroke-linecap="round"/>
</svg>
