<svg width="24" height="24" viewBox="0 0 24 24" fill="none" xmlns="http://www.w3.org/2000/svg">
<path d="M9 8.7L11.1 10.5L15 6M8.02381 13.7618C9.15312 14.5426 10.5231 15 12 15C13.4769 15 14.8469 14.5426 15.9762 13.7618M8.02381 13.7618C6.19691 12.4987 5 10.3891 5 8C5 4.13401 8.13401 1 12 1C15.866 1 19 4.13401 19 8C19 10.3891 17.8031 12.4987 15.9762 13.7618M8.02381 13.7618L7.25525 20.7027C7.15852 21.5733 8.1484 22.1387 8.84914 21.6131L11.4 19.7C11.7556 19.4333 12.2444 19.4333 12.6 19.7L15.1509 21.6131C15.8516 22.1387 16.8415 21.5733 16.7447 20.7027L15.9762 13.7618" stroke="black" stroke-width="1.5" stroke-linecap="round" stroke-linejoin="round"/>
</svg>
