<svg width="24" height="24" viewBox="0 0 24 24" fill="none" xmlns="http://www.w3.org/2000/svg">
<path d="M17 4V3.5C17 2.94772 16.5523 2.5 16 2.5H14.375C14.1679 2.5 14 2.33211 14 2.125C14 1.50368 13.4963 1 12.875 1H11.125C10.5037 1 10 1.50368 10 2.125C10 2.33211 9.83211 2.5 9.625 2.5H8C7.44772 2.5 7 2.94772 7 3.5V4M17 4V5C17 5.55228 16.5523 6 16 6H8C7.44772 6 7 5.55228 7 5V4M17 4H19C19.5523 4 20 4.44772 20 5V22C20 22.5523 19.5523 23 19 23H5C4.44772 23 4 22.5523 4 22V5C4 4.44771 4.44772 4 5 4H7M8 14.9L11.0333 17.5L16.6667 11" stroke="black" stroke-width="1.5" stroke-linecap="round" stroke-linejoin="round"/>
</svg>
