<svg width="24" height="24" viewBox="0 0 24 24" fill="none" xmlns="http://www.w3.org/2000/svg">
<g clip-path="url(#clip0_1607_7311)">
<path d="M9.5835 9.58341L14.4166 14.4165M23 12C23 18.0751 18.0751 23 12 23C5.92487 23 1 18.0751 1 12C1 5.92487 5.92487 1 12 1C18.0751 1 23 5.92487 23 12ZM9.34187 9.97434L7.63244 15.1026C7.37185 15.8844 8.11559 16.6281 8.89735 16.3675L14.0256 14.6581C14.3242 14.5586 14.5586 14.3243 14.6581 14.0257L16.3675 8.89737C16.6281 8.11561 15.8844 7.37187 15.1026 7.63245L9.97433 9.34189C9.67572 9.44142 9.44141 9.67574 9.34187 9.97434Z" stroke="black" stroke-width="1.5"/>
</g>
<defs>
<clipPath id="clip0_1607_7311">
<rect width="24" height="24" fill="white"/>
</clipPath>
</defs>
</svg>
