<svg width="24" height="24" viewBox="0 0 24 24" fill="none" xmlns="http://www.w3.org/2000/svg">
<g clip-path="url(#clip0_1607_7307)">
<path d="M23 12C23 18.0751 18.0751 23 12 23M23 12C23 5.92487 18.0751 1 12 1M23 12L20 12M12 23C5.92487 23 1 18.0751 1 12M12 23V20M1 12C1 5.92487 5.92487 1 12 1M1 12H4M12 1V4M19.7782 4.22183L17.6569 6.34315M6.34315 17.6569L4.22183 19.7782M19.7782 19.7782L17.6569 17.6569M6.34315 6.34315L4.22183 4.22183M12 12.0001V12.0318M9.72057 10.353L8.38981 14.3453C8.12923 15.127 8.87297 15.8708 9.65473 15.6102L13.647 14.2794C13.9456 14.1799 14.1799 13.9456 14.2794 13.647L15.6102 9.65473C15.8708 8.87297 15.127 8.12923 14.3453 8.38981L10.353 9.72057C10.0544 9.8201 9.8201 10.0544 9.72057 10.353Z" stroke="black" stroke-width="1.5" stroke-linecap="round"/>
</g>
<defs>
<clipPath id="clip0_1607_7307">
<rect width="24" height="24" fill="white"/>
</clipPath>
</defs>
</svg>
