<svg width="24" height="24" viewBox="0 0 24 24" fill="none" xmlns="http://www.w3.org/2000/svg">
<g clip-path="url(#clip0_1607_7323)">
<path d="M23 12C23 5.92487 18.0751 1 12 1M23 12H20M23 12C23 14.8985 21.879 17.5351 20.0468 19.5M1 12C1 5.92487 5.92487 1 12 1M1 12H4M1 12C1 14.8985 2.12105 17.5351 3.9532 19.5M12 1V4.00024M12 12C10.3431 12 9 13.3431 9 15V16.4141M12 12C13.6569 12 15 13.3431 15 15V16.4141M12 12L14.5 6.5M17.6567 6.34326L19.7781 4.22194M6.34326 6.34326L4.22194 4.22194M20.0468 19.5C18.0388 21.6534 15.1767 23 12 23C8.82335 23 5.9612 21.6534 3.9532 19.5M20.0468 19.5C18.6962 18.0516 16.9592 16.9682 15 16.4141M3.9532 19.5C5.30379 18.0516 7.04079 16.9682 9 16.4141M9 16.4141C9.95366 16.1443 10.96 16 12 16C13.04 16 14.0463 16.1443 15 16.4141" stroke="black" stroke-width="1.5" stroke-linecap="round" stroke-linejoin="round"/>
</g>
<defs>
<clipPath id="clip0_1607_7323">
<rect width="24" height="24" fill="white"/>
</clipPath>
</defs>
</svg>
