<svg width="24" height="24" viewBox="0 0 24 24" fill="none" xmlns="http://www.w3.org/2000/svg">
<g clip-path="url(#clip0_1607_7331)">
<path d="M23 3.5C23 4.88071 18.0751 6 12 6C5.92487 6 1 4.88071 1 3.5M23 3.5C23 2.11929 18.0751 1 12 1C5.92487 1 1 2.11929 1 3.5M23 3.5V20.5C23 21.8807 18.0751 23 12 23C5.92487 23 1 21.8807 1 20.5V3.5M23 10C23 10 19.5 12 12 12C4.5 12 1 10 1 10M4 14V14.0457M6 14.2909V14.3366M4 8.5V8.54572M6 8.79085V8.83657M4 19.4543V19.5001M6 19.7452V19.7909M23 15.5C23 15.5 19.5 17.5 12 17.5C4.5 17.5 1 15.5 1 15.5" stroke="black" stroke-width="1.5" stroke-linecap="round" stroke-linejoin="round"/>
</g>
<defs>
<clipPath id="clip0_1607_7331">
<rect width="24" height="24" fill="white"/>
</clipPath>
</defs>
</svg>
