<svg width="24" height="24" viewBox="0 0 24 24" fill="none" xmlns="http://www.w3.org/2000/svg">
<path d="M15 12C15 13.6569 13.6569 15 12 15C10.3431 15 9 13.6569 9 12C9 10.3431 10.3431 9 12 9C13.6569 9 15 10.3431 15 12Z" fill="white"/>
<path d="M22.787 11.3698C13.7056 0.0312514 4.88185 6.28157 1.17413 11.3589C0.92658 11.6978 0.947807 12.1625 1.20705 12.493C10.2948 24.0784 19.1257 17.6872 22.831 12.5039C23.0752 12.1623 23.0498 11.6979 22.787 11.3698Z" stroke="black" stroke-width="1.5" stroke-linecap="round"/>
<path d="M15 12C15 13.6569 13.6569 15 12 15C10.3431 15 9 13.6569 9 12C9 10.3431 10.3431 9 12 9C13.6569 9 15 10.3431 15 12Z" stroke="black" stroke-width="1.5" stroke-linecap="round"/>
</svg>
