<svg width="24" height="24" viewBox="0 0 24 24" fill="none" xmlns="http://www.w3.org/2000/svg">
<path d="M8 7.00001V2.06668C8 1.47758 8.47756 1.00002 9.06667 1.00002L16.7216 1C17.0037 1 17.2743 1.11174 17.4742 1.31077L21.6859 5.50412C21.887 5.70429 22 5.97631 22 6.26002V15.9333C22 16.5224 21.5224 17 20.9333 17H16M22 6.59999H16.4501C16.3912 6.59999 16.3434 6.55224 16.3434 6.49333V1M16 12.6H10.4501C10.3912 12.6 10.3434 12.5522 10.3434 12.4933V7M15.6859 11.5041L11.4742 7.31077C11.2743 7.11174 11.0037 7 10.7216 7L3.06667 7.00002C2.47756 7.00002 2 7.47758 2 8.06668L2 21.9333C2 22.5224 2.47756 23 3.06667 23L14.9333 23C15.5224 23 16 22.5224 16 21.9333V12.26C16 11.9763 15.887 11.7043 15.6859 11.5041Z" stroke="black" stroke-width="1.6" stroke-linecap="round"/>
</svg>
