<svg width="24" height="24" viewBox="0 0 24 24" fill="none" xmlns="http://www.w3.org/2000/svg">
<path d="M18 13.5V16.5C18 17.0523 18.4477 17.5 19 17.5H22M18 1V4C18 4.55229 18.4477 5 19 5L22 5M11 6H2M2 6V18C2 18.5523 2.44772 19 3 19H11M2 6V1M21.7071 16.2071L19.2929 13.7929C19.1054 13.6054 18.851 13.5 18.5858 13.5H15C14.4477 13.5 14 13.9477 14 14.5V22C14 22.5523 14.4477 23 15 23H21C21.5523 23 22 22.5523 22 22V16.9142C22 16.649 21.8946 16.3946 21.7071 16.2071ZM21.7071 3.70711L19.2929 1.29289C19.1054 1.10536 18.851 1 18.5858 1H15C14.4477 1 14 1.44772 14 2V9.5C14 10.0523 14.4477 10.5 15 10.5H21C21.5523 10.5 22 10.0523 22 9.5V4.41421C22 4.149 21.8946 3.89464 21.7071 3.70711Z" stroke="black" stroke-width="1.5" stroke-linecap="round" stroke-linejoin="round"/>
</svg>
