<svg width="24" height="24" viewBox="0 0 24 24" fill="none" xmlns="http://www.w3.org/2000/svg">
<path d="M5 4V18.5C5 19.3284 5.67157 20 6.5 20H20M2 6V21.5C2 22.3284 2.67157 23 3.5 23H18M16.3434 1V6.49333C16.3434 6.55224 16.3912 6.59999 16.4501 6.59999H22M16.3434 1L9.06667 1.00002C8.47756 1.00002 8 1.47758 8 2.06668L8 15.9333C8 16.5224 8.47756 17 9.06667 17L20.9333 17C21.5224 17 22 16.5224 22 15.9333V6.59999M16.3434 1L16.7216 1C17.0037 0.999999 17.2743 1.11174 17.4742 1.31077L21.6859 5.50412C21.887 5.70429 22 5.97631 22 6.26002V6.59999" stroke="black" stroke-width="1.6" stroke-linecap="round"/>
</svg>
