<svg width="24" height="24" viewBox="0 0 24 24" fill="none" xmlns="http://www.w3.org/2000/svg">
<path d="M13.4645 13.4645L20.5355 20.5355M12 17C12 19.7614 14.2386 22 17 22C19.7614 22 22 19.7614 22 17C22 14.2386 19.7614 12 17 12C14.2386 12 12 14.2386 12 17ZM12 17H1.95454C1.42736 17 1 16.5726 1 16.0455V2.95455C1 2.42736 1.42736 2 1.95455 2H8.03315C8.32771 2 8.60578 2.136 8.78662 2.36851L9.88005 3.77435C10.0609 4.00686 10.339 4.14286 10.6335 4.14286H18.0455C18.5726 4.14286 19 4.57022 19 5.0974V8.13641M2.07141 17L7.02575 8.60578C7.19742 8.31491 7.51003 8.13641 7.84779 8.13641H21.522C22.2151 8.13641 22.6771 8.85184 22.392 9.4836L21 12.5682L20.5506 13.4796" stroke="black" stroke-width="1.5" stroke-linecap="round"/>
</svg>
