<svg width="24" height="24" viewBox="0 0 24 24" fill="none" xmlns="http://www.w3.org/2000/svg">
<g clip-path="url(#clip0_1607_7464)">
<path d="M19 9V8C19 4.13401 15.866 1 12 1C8.13401 1 5 4.13401 5 8V9M19 9H17.5C17.2239 9 17 9.22386 17 9.5V16.5C17 16.7761 17.2239 17 17.5 17H19M19 9C21.2091 9 23 10.7909 23 13C23 15.2091 21.2091 17 19 17M5 9H6.5C6.77614 9 7 9.22386 7 9.5L7 16.5C7 16.7761 6.77614 17 6.5 17H5C2.79086 17 1 15.2091 1 13C1 10.7909 2.79086 9 5 9ZM15 21H18C18.5523 21 19 20.5523 19 20V17M15 21C15 19.8954 14.1046 19 13 19H12C10.8954 19 10 19.8954 10 21C10 22.1046 10.8954 23 12 23H13C14.1046 23 15 22.1046 15 21Z" stroke="black" stroke-width="1.5" stroke-linecap="round" stroke-linejoin="round"/>
</g>
<defs>
<clipPath id="clip0_1607_7464">
<rect width="24" height="24" fill="white"/>
</clipPath>
</defs>
</svg>
