<svg width="24" height="24" viewBox="0 0 24 24" fill="none" xmlns="http://www.w3.org/2000/svg">
<g clip-path="url(#clip0_1607_7480)">
<path d="M12 19C10.8954 19 10 19.8954 10 21C10 22.1046 10.8954 23 12 23C13.1046 23 14 22.1046 14 21C14 19.8954 13.1046 19 12 19ZM12 19V7M12 7C13.6569 7 15 5.65685 15 4C15 2.34315 13.6569 1 12 1C10.3431 1 9 2.34315 9 4C9 5.65685 10.3431 7 12 7ZM21 19C19.8954 19 19 19.8954 19 21C19 22.1046 19.8954 23 21 23C22.1046 23 23 22.1046 23 21C23 19.8954 22.1046 19 21 19ZM21 19V13C21 12.4477 20.5523 12 20 12H4C3.44772 12 3 12.4477 3 13L3 19M3 19C1.89543 19 1 19.8954 1 21C1 22.1046 1.89543 23 3 23C4.10457 23 5 22.1046 5 21C5 19.8954 4.10457 19 3 19Z" stroke="black" stroke-width="1.5" stroke-linecap="round" stroke-linejoin="round"/>
</g>
<defs>
<clipPath id="clip0_1607_7480">
<rect width="24" height="24" fill="white"/>
</clipPath>
</defs>
</svg>
