<svg width="24" height="24" viewBox="0 0 24 24" fill="none" xmlns="http://www.w3.org/2000/svg">
<g clip-path="url(#clip0_1607_7484)">
<path d="M12 19C10.8954 19 10 19.8954 10 21C10 22.1046 10.8954 23 12 23C13.1046 23 14 22.1046 14 21C14 19.8954 13.1046 19 12 19ZM12 19V7M21 19C19.8954 19 19 19.8954 19 21C19 22.1046 19.8954 23 21 23C22.1046 23 23 22.1046 23 21C23 19.8954 22.1046 19 21 19ZM21 19V13C21 12.4477 20.5523 12 20 12H4C3.44772 12 3 12.4477 3 13L3 19M3 19C1.89543 19 1 19.8954 1 21C1 22.1046 1.89543 23 3 23C4.10457 23 5 22.1046 5 21C5 19.8954 4.10457 19 3 19ZM6 7H18C18.5523 7 19 6.55228 19 6V2C19 1.44772 18.5523 1 18 1H6C5.44772 1 5 1.44772 5 2V6C5 6.55228 5.44772 7 6 7Z" stroke="black" stroke-width="1.5" stroke-linecap="round" stroke-linejoin="round"/>
</g>
<defs>
<clipPath id="clip0_1607_7484">
<rect width="24" height="24" fill="white"/>
</clipPath>
</defs>
</svg>
