<svg width="24" height="24" viewBox="0 0 24 24" fill="none" xmlns="http://www.w3.org/2000/svg">
<path d="M1 9.5L4.18488 12.5393C4.2744 12.6247 4.38891 12.6712 4.50574 12.677M8.47146 10.1537L4.8072 12.5937C4.71554 12.6547 4.60972 12.682 4.50574 12.677M4.50574 12.677C4.50574 12.677 4.49435 12.0035 4.50574 11.6859C4.68403 6.71843 8.96735 2.83212 14.0728 3.00559C19.1783 3.17906 23.1725 7.34662 22.9943 12.3141C22.816 17.2816 18.5326 21.1679 13.4272 20.9944C13.0749 20.9824 12.7279 20.9515 12.3872 20.9025M13.5 9V11.7929C13.5 11.9255 13.5527 12.0527 13.6464 12.1464L16.5 15" stroke="black" stroke-width="1.5" stroke-linecap="round" stroke-linejoin="round"/>
</svg>
