<svg width="24" height="24" viewBox="0 0 24 24" fill="none" xmlns="http://www.w3.org/2000/svg">
<g clip-path="url(#clip0_1607_7505)">
<path d="M1.00004 18L5.52665 13.6702C5.91707 13.2968 6.53352 13.3009 6.91883 13.6797L9.71698 16.4298C9.75641 16.4686 9.8198 16.468 9.85849 16.4285L15.445 10.7287C15.837 10.3286 16.4812 10.3286 16.8733 10.7287L23 16.9776M23 16.9776V2C23 1.44772 22.5523 1 22 1H2C1.44772 1 1 1.44772 1 2V22C1 22.5523 1.44772 23 2 23H22C22.5523 23 23 22.5523 23 22V16.9776ZM7 7C7 8.10457 7.89543 9 9 9C10.1046 9 11 8.10457 11 7C11 5.89543 10.1046 5 9 5C7.89543 5 7 5.89543 7 7Z" stroke="black" stroke-width="1.5" stroke-linecap="round"/>
</g>
<defs>
<clipPath id="clip0_1607_7505">
<rect width="24" height="24" fill="white"/>
</clipPath>
</defs>
</svg>
