<svg width="24" height="24" viewBox="0 0 24 24" fill="none" xmlns="http://www.w3.org/2000/svg">
<g clip-path="url(#clip0_1607_7521)">
<path d="M12.5 8.5V15.5H15.5M18.5 8.5V15.5M18.5 8.5H16.5M18.5 8.5H20.5M3.5 15.5L4.25855 13.5M4.25855 13.5L6.03249 8.82269C6.19568 8.39244 6.80432 8.39244 6.96751 8.82269L8.74145 13.5M4.25855 13.5H8.74145M8.74145 13.5L9.5 15.5M2 23H22C22.5523 23 23 22.5523 23 22V2C23 1.44772 22.5523 1 22 1H2C1.44772 1 1 1.44772 1 2V22C1 22.5523 1.44772 23 2 23Z" stroke="black" stroke-width="1.5" stroke-linecap="round" stroke-linejoin="round"/>
</g>
<defs>
<clipPath id="clip0_1607_7521">
<rect width="24" height="24" fill="white"/>
</clipPath>
</defs>
</svg>
