<svg width="24" height="24" viewBox="0 0 24 24" fill="none" xmlns="http://www.w3.org/2000/svg">
<g clip-path="url(#clip0_1607_7529)">
<path d="M8.81818 8.81818H6.90909C5.85473 8.81818 5 7.96345 5 6.90909C5 5.85473 5.85473 5 6.90909 5C7.96345 5 8.81818 5.85473 8.81818 6.90909V8.81818ZM8.81818 8.81818H15.1818M8.81818 8.81818V15.1818M15.1818 8.81818H17.0909C18.1453 8.81818 19 7.96345 19 6.90909C19 5.85473 18.1453 5 17.0909 5C16.0365 5 15.1818 5.85473 15.1818 6.90909V8.81818ZM15.1818 8.81818V15.1818M15.1818 15.1818V17.0909C15.1818 18.1453 16.0365 19 17.0909 19C18.1453 19 19 18.1453 19 17.0909C19 16.0365 18.1453 15.1818 17.0909 15.1818H15.1818ZM15.1818 15.1818H8.81818M8.81818 15.1818H6.90909C5.85473 15.1818 5 16.0365 5 17.0909C5 18.1453 5.85473 19 6.90909 19C7.96345 19 8.81818 18.1453 8.81818 17.0909V15.1818ZM2 23H22C22.5523 23 23 22.5523 23 22V2C23 1.44772 22.5523 1 22 1H2C1.44772 1 1 1.44772 1 2V22C1 22.5523 1.44772 23 2 23Z" stroke="black" stroke-width="1.5" stroke-linecap="round" stroke-linejoin="round"/>
</g>
<defs>
<clipPath id="clip0_1607_7529">
<rect width="24" height="24" fill="white"/>
</clipPath>
</defs>
</svg>
