<svg width="24" height="24" viewBox="0 0 24 24" fill="none" xmlns="http://www.w3.org/2000/svg">
<path d="M2.0042 13.0006L11.4832 18.7883C11.8031 18.9836 12.2053 18.9836 12.5252 18.7883L22.0042 13.0006M2.0042 17.0018L11.479 22.8509C11.801 23.0497 12.2075 23.0497 12.5294 22.8509L22.0042 17.0018M11.4503 1.16726L2.4464 7.15443C1.84662 7.55325 1.85227 8.43639 2.4571 8.82751L11.4611 14.65C11.7916 14.8637 12.2168 14.8636 12.5473 14.6497L21.5423 8.82727C22.1466 8.43609 22.1522 7.55357 21.553 7.15469L12.5579 1.16752C12.2225 0.944253 11.7859 0.944154 11.4503 1.16726Z" stroke="black" stroke-width="1.5" stroke-linecap="round"/>
</svg>
