<svg width="24" height="24" viewBox="0 0 24 24" fill="none" xmlns="http://www.w3.org/2000/svg">
<path d="M15.7107 9.00062L20.4032 11.0869C21.1948 11.4388 21.1948 12.5624 20.4032 12.9144L15.7107 15.0006M15.7107 9.00062L20.4032 6.91439C21.1948 6.56242 21.1948 5.43883 20.4032 5.08686L11.4047 1.08624C11.1461 0.971254 10.8508 0.971254 10.5922 1.08624L1.59375 5.08686C0.802084 5.43883 0.802082 6.56242 1.59375 6.91439L6.28625 9.00062M15.7107 9.00062L11.4047 10.915C11.1461 11.03 10.8508 11.03 10.5922 10.915L6.28625 9.00062M15.7107 15.0006L20.4032 17.0869C21.1948 17.4388 21.1948 18.5624 20.4032 18.9144L11.4047 22.915C11.1461 23.03 10.8508 23.03 10.5922 22.915L1.59375 18.9144C0.802082 18.5624 0.802084 17.4388 1.59375 17.0869L6.28625 15.0006M15.7107 15.0006L11.4047 16.915C11.1461 17.03 10.8508 17.03 10.5922 16.915L6.28625 15.0006M6.28625 15.0006L1.59375 12.9144C0.802082 12.5624 0.802084 11.4388 1.59375 11.0869L6.28625 9.00062" stroke="black" stroke-width="1.5"/>
</svg>
