<svg width="24" height="24" viewBox="0 0 24 24" fill="none" xmlns="http://www.w3.org/2000/svg">
<path d="M16.5807 11.5C16.7925 11.2022 17.0004 10.9024 17.2036 10.6003C19.9324 6.54329 17.0179 1 12 1C6.98216 1 4.06757 6.54329 6.79641 10.6003C6.9996 10.9024 7.20753 11.2022 7.41925 11.5M16.5807 11.5C15.72 12.7109 14.7968 13.8902 13.8757 15.0667C13.3229 15.7729 12.7708 16.4781 12.2336 17.1885C12.1167 17.343 11.8832 17.343 11.7664 17.1885C11.2292 16.4781 10.6771 15.7729 10.1243 15.0667C9.20322 13.8902 8.27999 12.7109 7.41925 11.5M16.5807 11.5H18.1372C18.811 11.5 19.4068 11.9492 19.5872 12.5984L21.9472 21.0984C22.2128 22.0542 21.4993 23 20.5072 23H3.50087C2.50883 23 1.79003 22.0542 2.05564 21.0984L4.41764 12.5984C4.59803 11.9492 5.18912 11.5 5.86288 11.5H7.41925M12.0144 9.39537C13.3039 9.39537 14.3493 8.34908 14.3493 7.05841C14.3493 5.76775 13.3039 4.72146 12.0144 4.72146C10.7248 4.72146 9.67947 5.76775 9.67947 7.05841C9.67947 8.34908 10.7248 9.39537 12.0144 9.39537Z" stroke="black" stroke-width="1.5" stroke-linecap="round" stroke-linejoin="round"/>
</svg>
