<svg width="24" height="24" viewBox="0 0 24 24" fill="none" xmlns="http://www.w3.org/2000/svg">
<g clip-path="url(#clip0_1607_7585)">
<path d="M16 1.01399C16.0744 1.02656 16.1477 1.04761 16.2185 1.07716L22.3852 3.6511C22.7575 3.80651 23 4.17046 23 4.57394V21.1363C23 21.8368 22.2984 22.3202 21.6438 22.0707L16.1912 19.9921C16.1289 19.9683 16.0648 19.951 16 19.9402M16 1.01399C15.8027 0.980635 15.598 1.00697 15.4133 1.09248L8.67903 4.20916C8.46474 4.30833 8.2243 4.32767 8 4.26752M16 1.01399V19.9402M8 4.26752C7.94 4.25143 7.88115 4.22965 7.82427 4.20219L2.43475 1.60035C1.77075 1.2798 1 1.76358 1 2.5009V18.97C1 19.3538 1.21964 19.7037 1.56525 19.8706L7.83936 22.8995C7.89145 22.9246 7.9452 22.945 8 22.9606M8 4.26752V22.9606M8 22.9606C8.21961 23.0232 8.45597 23.0092 8.66894 22.9177L15.4401 20.0077C15.6177 19.9314 15.8121 19.9088 16 19.9402" stroke="black" stroke-width="1.5" stroke-linecap="round"/>
</g>
<defs>
<clipPath id="clip0_1607_7585">
<rect width="24" height="24" fill="white"/>
</clipPath>
</defs>
</svg>
