<svg width="24" height="24" viewBox="0 0 24 24" fill="none" xmlns="http://www.w3.org/2000/svg">
<path d="M3 20L7 20M3 15H7M3 10H7M3 5H7M21 21.5L21 2.5C21 1.67157 20.3284 1 19.5 1L6.49998 1C5.67155 1 4.99998 1.67157 4.99998 2.5L4.99998 21.5C4.99998 22.3284 5.67155 23 6.49998 23L19.5 23C20.3284 23 21 22.3284 21 21.5ZM11 9H16C16.5523 9 17 8.55229 17 8V6C17 5.44772 16.5523 5 16 5H11C10.4477 5 10 5.44772 10 6V8C10 8.55229 10.4477 9 11 9Z" stroke="black" stroke-width="1.5" stroke-linecap="round"/>
</svg>
