<svg width="24" height="24" viewBox="0 0 24 24" fill="none" xmlns="http://www.w3.org/2000/svg">
<g clip-path="url(#clip0_1607_7638)">
<path d="M1.04865 21.0487L1.00141 21.9462C0.970204 22.5392 1.4596 23.0286 2.05259 22.9974L2.95015 22.9501M1.04865 21.0487L1.27951 16.6623C1.2925 16.4156 1.39634 16.1825 1.57103 16.0078L3.7894 13.7894M1.04865 21.0487L2.95015 22.9501M2.95015 22.9501L7.33648 22.7193C7.58318 22.7063 7.81634 22.6025 7.99102 22.4278L10.2094 20.2094M10.2094 20.2094L3.7894 13.7894M10.2094 20.2094L20.2094 10.2094M3.7894 13.7894L13.7894 3.7894M13.7894 3.7894L16.2859 1.29289C16.6764 0.902369 17.3096 0.902369 17.7001 1.29289L22.7059 6.29868C23.0964 6.6892 23.0964 7.32237 22.7059 7.71289L20.2094 10.2094M13.7894 3.7894L20.2094 10.2094" stroke="black" stroke-width="1.5" stroke-linecap="round" stroke-linejoin="round"/>
</g>
<defs>
<clipPath id="clip0_1607_7638">
<rect width="24" height="24" fill="white"/>
</clipPath>
</defs>
</svg>
