<svg width="24" height="24" viewBox="0 0 24 24" fill="none" xmlns="http://www.w3.org/2000/svg">
<g clip-path="url(#clip0_1607_7642)">
<path d="M15.4879 3.14633L8.5791 8.9922C8.53656 9.02819 8.48066 9.04428 8.42549 9.0364L8.32441 9.02196C6.07811 8.70106 3.81182 9.45649 2.20732 11.061C2.13323 11.1351 2.13324 11.2552 2.20732 11.3293L12.6708 21.7927C12.7449 21.8668 12.865 21.8668 12.9391 21.7927C14.5436 20.1882 15.299 17.9219 14.9781 15.6756L14.9637 15.5746C14.9558 15.5194 14.9719 15.4635 15.0079 15.421L20.8537 8.5122M7.43911 16.561L1 23M23.0001 10.6586L13.3415 1" stroke="black" stroke-width="1.5" stroke-linecap="round"/>
</g>
<defs>
<clipPath id="clip0_1607_7642">
<rect width="24" height="24" fill="white"/>
</clipPath>
</defs>
</svg>
