<svg width="24" height="24" viewBox="0 0 24 24" fill="none" xmlns="http://www.w3.org/2000/svg">
<g clip-path="url(#clip0_1607_7658)">
<path d="M19 20.5C19 16.6984 15.9182 13.6167 12.1167 13.6167H11.8833C8.08176 13.6167 5 16.6984 5 20.5M15.2 8.2C15.2 9.96731 13.7673 11.4 12 11.4C10.2327 11.4 8.79999 9.96731 8.79999 8.2C8.79999 6.43269 10.2327 5 12 5C13.7673 5 15.2 6.43269 15.2 8.2ZM23 12C23 18.0751 18.0751 23 12 23C5.92487 23 1 18.0751 1 12C1 5.92487 5.92487 1 12 1C18.0751 1 23 5.92487 23 12Z" stroke="black" stroke-width="1.5" stroke-linecap="round"/>
</g>
<defs>
<clipPath id="clip0_1607_7658">
<rect width="24" height="24" fill="white"/>
</clipPath>
</defs>
</svg>
