<svg width="24" height="24" viewBox="0 0 24 24" fill="none" xmlns="http://www.w3.org/2000/svg">
<g clip-path="url(#clip0_1607_7670)">
<path d="M12 17C9.23858 17 7 14.7614 7 12C7 9.23858 9.23858 7 12 7C14.7614 7 17 9.23858 17 12V12.5973M15 11.5214L16.8782 12.5687C16.9163 12.5899 16.9585 12.5992 17 12.5973M18.7162 11L17.1489 12.5325C17.1078 12.5726 17.0546 12.5947 17 12.5973M23 12C23 18.0751 18.0751 23 12 23C5.92487 23 1 18.0751 1 12C1 5.92487 5.92487 1 12 1C18.0751 1 23 5.92487 23 12Z" stroke="black" stroke-width="1.5" stroke-linecap="round" stroke-linejoin="round"/>
</g>
<defs>
<clipPath id="clip0_1607_7670">
<rect width="24" height="24" fill="white"/>
</clipPath>
</defs>
</svg>
