<svg width="24" height="24" viewBox="0 0 24 24" fill="none" xmlns="http://www.w3.org/2000/svg">
<path d="M5.98538 9.75415L5.61529 5.22535C5.50447 3.75803 4.16908 2.7347 2.79067 3.06081C0.734651 3.54723 0.34397 6.36273 2.16991 7.46043L5.98538 9.75415ZM5.98538 9.75415L9.72119 12M9.72119 12L10.989 15.0714C12.9966 19.5993 18.7971 21.5924 23 19.9827L9.72119 12ZM9.72119 12L10.989 8.92857C12.9966 4.40067 18.7971 2.40756 23 4.01725L9.72119 12ZM9.72119 12L5.98538 14.2458M5.98538 14.2458L5.61529 18.7746C5.50447 20.242 4.16908 21.2653 2.79067 20.9392C0.734651 20.4528 0.34397 17.6373 2.16991 16.5396L5.98538 14.2458Z" stroke="black" stroke-width="1.5" stroke-linecap="round" stroke-linejoin="round"/>
</svg>
