<svg width="24" height="24" viewBox="0 0 24 24" fill="none" xmlns="http://www.w3.org/2000/svg">
<g clip-path="url(#clip0_1607_7739)">
<path d="M10.0643 17.3081L10.8139 17.334L10.8139 17.334L10.0643 17.3081ZM15.6978 12.0034L15.6714 12.7529L15.6978 12.0034ZM8.52776 15.4393C8.23345 15.1479 7.75858 15.1502 7.46711 15.4445C7.17564 15.7388 7.17793 16.2136 7.47224 16.5051L8.52776 15.4393ZM9.87539 17.8296L10.4032 17.2967L10.4032 17.2967L9.87539 17.8296ZM10.2418 17.8628L10.6682 18.4798L10.6682 18.4798L10.2418 17.8628ZM12.8259 16.9887C13.1667 16.7532 13.252 16.2861 13.0165 15.9453C12.781 15.6045 12.3139 15.5192 11.9731 15.7547L12.8259 16.9887ZM10.0643 17.9137L10.0264 18.6627L10.0264 18.6627L10.0643 17.9137ZM19.5413 15.0654C19.7522 15.4219 20.2122 15.5399 20.5687 15.329C20.9252 15.1181 21.0432 14.6581 20.8323 14.3016L19.5413 15.0654ZM20.9357 17.6919L20.1861 17.666L20.1861 17.666L20.9357 17.6919ZM15.3022 22.9966L15.3286 22.247L15.3286 22.247L15.3022 22.9966ZM22.4722 19.5606C22.7665 19.8521 23.2414 19.8498 23.5329 19.5555C23.8244 19.2612 23.8221 18.7863 23.5278 18.4949L22.4722 19.5606ZM21.1246 17.1704L20.5968 17.7033L20.5968 17.7033L21.1246 17.1704ZM20.7582 17.1371L20.3318 16.5202L20.3318 16.5202L20.7582 17.1371ZM18.1741 18.0113C17.8333 18.2468 17.748 18.7139 17.9835 19.0547C18.219 19.3955 18.6861 19.4808 19.0269 19.2453L18.1741 18.0113ZM20.9357 17.0863L20.9736 16.3372L20.9736 16.3372L20.9357 17.0863ZM11.4587 19.9346C11.2478 19.5781 10.7878 19.4601 10.4313 19.671C10.0748 19.8819 9.95676 20.3419 10.1677 20.6984L11.4587 19.9346ZM7.78417 1L7.78417 0.25L7.78417 1ZM8.93527 1L8.93527 0.250005L8.93527 1ZM10.8139 17.334C10.9048 14.7056 13.0861 12.6618 15.6714 12.7529L15.7243 11.2539C12.2969 11.133 9.43384 13.8392 9.31478 17.2821L10.8139 17.334ZM7.47224 16.5051L9.34763 18.3625L10.4032 17.2967L8.52776 15.4393L7.47224 16.5051ZM10.6682 18.4798L12.8259 16.9887L11.9731 15.7547L9.81544 17.2458L10.6682 18.4798ZM9.34763 18.3625C9.5328 18.5458 9.77517 18.65 10.0264 18.6627L10.1023 17.1647C10.2159 17.1704 10.3234 17.2177 10.4032 17.2967L9.34763 18.3625ZM10.0264 18.6627C10.25 18.6741 10.4761 18.6126 10.6682 18.4798L9.81544 17.2458C9.89966 17.1876 10.0011 17.1595 10.1023 17.1647L10.0264 18.6627ZM10.0643 17.9137C10.8142 17.9015 10.8142 17.9015 10.8142 17.9015C10.8142 17.9015 10.8142 17.9015 10.8142 17.9015C10.8142 17.9015 10.8142 17.9015 10.8142 17.9015C10.8142 17.9014 10.8142 17.9014 10.8142 17.9013C10.8142 17.9012 10.8142 17.9009 10.8142 17.9006C10.8142 17.8999 10.8142 17.8988 10.8142 17.8974C10.8141 17.8945 10.8141 17.8902 10.814 17.8847C10.8138 17.8735 10.8136 17.8572 10.8133 17.8369C10.8128 17.7964 10.8122 17.7404 10.8118 17.6787C10.811 17.5506 10.8111 17.4136 10.8139 17.334L9.31478 17.2821C9.31082 17.3966 9.311 17.5624 9.31183 17.6886C9.31226 17.7541 9.31291 17.8131 9.31344 17.8558C9.31371 17.8772 9.31396 17.8945 9.31413 17.9066C9.31422 17.9127 9.31429 17.9174 9.31435 17.9207C9.31437 17.9223 9.31439 17.9236 9.31441 17.9245C9.31441 17.9249 9.31442 17.9252 9.31442 17.9255C9.31442 17.9256 9.31443 17.9257 9.31443 17.9258C9.31443 17.9258 9.31443 17.9259 9.31443 17.9259C9.31443 17.9259 9.31443 17.9259 9.31443 17.9259C9.31443 17.9259 9.31443 17.9259 10.0643 17.9137ZM15.6714 12.7529C17.3225 12.8112 18.748 13.7245 19.5413 15.0654L20.8323 14.3016C19.792 12.5432 17.9121 11.331 15.7243 11.2539L15.6714 12.7529ZM20.1861 17.666C20.0952 20.2944 17.9139 22.3382 15.3286 22.247L15.2757 23.7461C18.7031 23.867 21.5662 21.1608 21.6852 17.7178L20.1861 17.666ZM23.5278 18.4949L21.6524 16.6375L20.5968 17.7033L22.4722 19.5606L23.5278 18.4949ZM20.3318 16.5202L18.1741 18.0113L19.0269 19.2453L21.1846 17.7541L20.3318 16.5202ZM21.6524 16.6375C21.4672 16.4541 21.2248 16.35 20.9736 16.3372L20.8977 17.8353C20.7841 17.8296 20.6766 17.7823 20.5968 17.7033L21.6524 16.6375ZM20.9736 16.3372C20.75 16.3259 20.5239 16.3873 20.3318 16.5202L21.1846 17.7541C21.1003 17.8124 20.9989 17.8404 20.8977 17.8353L20.9736 16.3372ZM20.9357 17.0863C20.1858 17.0985 20.1858 17.0985 20.1858 17.0985C20.1858 17.0985 20.1858 17.0985 20.1858 17.0985C20.1858 17.0985 20.1858 17.0985 20.1858 17.0985C20.1858 17.0985 20.1858 17.0986 20.1858 17.0987C20.1858 17.0988 20.1858 17.0991 20.1858 17.0994C20.1858 17.1001 20.1858 17.1012 20.1858 17.1026C20.1859 17.1054 20.1859 17.1097 20.186 17.1153C20.1862 17.1265 20.1864 17.1428 20.1867 17.1631C20.1872 17.2036 20.1878 17.2596 20.1882 17.3213C20.189 17.4494 20.1889 17.5864 20.1861 17.666L21.6852 17.7178C21.6892 17.6034 21.689 17.4376 21.6882 17.3114C21.6877 17.2459 21.6871 17.1869 21.6866 17.1442C21.6863 17.1228 21.686 17.1054 21.6859 17.0934C21.6858 17.0873 21.6857 17.0826 21.6857 17.0793C21.6856 17.0777 21.6856 17.0764 21.6856 17.0755C21.6856 17.0751 21.6856 17.0747 21.6856 17.0745C21.6856 17.0744 21.6856 17.0743 21.6856 17.0742C21.6856 17.0742 21.6856 17.0741 21.6856 17.0741C21.6856 17.0741 21.6856 17.0741 21.6856 17.0741C21.6856 17.0741 21.6856 17.0741 20.9357 17.0863ZM15.3286 22.247C13.6775 22.1888 12.2519 21.2755 11.4587 19.9346L10.1677 20.6984C11.208 22.4568 13.0879 23.669 15.2757 23.7461L15.3286 22.247ZM1.75 20V4.66406H0.25V20H1.75ZM2 4.41406H4.15796V2.91406H2V4.41406ZM12.55 4.41406H14.7368V2.91406H12.55V4.41406ZM14.9868 4.66406V12H16.4868V4.66406H14.9868ZM11.2907 20.25H2V21.75H11.2907V20.25ZM0.25 20C0.25 20.9665 1.0335 21.75 2 21.75V20.25C1.86193 20.25 1.75 20.1381 1.75 20H0.25ZM14.7368 4.41406C14.8749 4.41406 14.9868 4.52599 14.9868 4.66406H16.4868C16.4868 3.69756 15.7033 2.91406 14.7368 2.91406V4.41406ZM1.75 4.66406C1.75 4.52599 1.86193 4.41406 2 4.41406V2.91406C1.0335 2.91406 0.25 3.69756 0.25 4.66406H1.75ZM10.3183 3.13301H11.55V1.63301H10.3183V3.13301ZM11.8 3.38301V4.38016H13.3V3.38301H11.8ZM11.55 4.63016H5.15796V6.13016H11.55V4.63016ZM4.90796 4.38016V3.38301H3.40796V4.38016H4.90796ZM5.15796 3.13301H6.40116V1.63301H5.15796V3.13301ZM7.78417 1.75L8.93526 1.75L8.93527 0.250005L7.78417 0.25L7.78417 1.75ZM8.93526 1.75C9.28188 1.75001 9.56286 2.03099 9.56286 2.3776H11.0629C11.0629 1.20257 10.1103 0.250009 8.93527 0.250005L8.93526 1.75ZM7.15656 2.3776C7.15656 2.03099 7.43755 1.75 7.78417 1.75L7.78417 0.25C6.60913 0.249995 5.65656 1.20256 5.65656 2.3776H7.15656ZM6.40116 3.13301C6.81832 3.13301 7.15656 2.79483 7.15656 2.3776H5.65656C5.65656 1.96634 5.98996 1.63301 6.40116 1.63301V3.13301ZM4.90796 3.38301C4.90796 3.24494 5.01989 3.13301 5.15796 3.13301V1.63301C4.19146 1.63301 3.40796 2.41651 3.40796 3.38301H4.90796ZM5.15796 4.63016C5.01989 4.63016 4.90796 4.51823 4.90796 4.38016H3.40796C3.40796 5.34666 4.19146 6.13016 5.15796 6.13016V4.63016ZM11.8 4.38016C11.8 4.51823 11.6881 4.63016 11.55 4.63016V6.13016C12.5165 6.13016 13.3 5.34666 13.3 4.38016H11.8ZM11.55 3.13301C11.6881 3.13301 11.8 3.24493 11.8 3.38301H13.3C13.3 2.41651 12.5165 1.63301 11.55 1.63301V3.13301ZM10.3183 1.63301C10.7293 1.63301 11.0629 1.96617 11.0629 2.3776H9.56286C9.56286 2.79501 9.90127 3.13301 10.3183 3.13301V1.63301Z" fill="black"/>
</g>
<defs>
<clipPath id="clip0_1607_7739">
<rect width="24" height="24" fill="white"/>
</clipPath>
</defs>
</svg>
