<svg width="24" height="24" viewBox="0 0 24 24" fill="none" xmlns="http://www.w3.org/2000/svg">
<path d="M21.3984 11.2945C22.2845 11.2853 23 10.5641 23 9.67579C23 8.78174 22.2752 8.05696 21.3811 8.05696L15.2912 8.05695C14.666 8.05695 14.2236 7.44557 14.4192 6.85167L15.1462 4.64372C15.6236 3.19379 14.8829 1.61576 13.466 1.06414C13.0582 0.905381 12.5972 1.04889 12.351 1.41122L8.17525 7.55657C8.06216 7.72299 8.00166 7.92026 8.00166 8.12254L8.00168 11.5412C8.00054 11.5607 7.99997 11.5805 7.99997 11.6003L8.0015 19.9909C8.0016 20.5431 8.44928 20.9907 9.0015 20.9907L12.4381 20.9907C12.4949 20.9967 12.5526 20.9998 12.611 20.9998H19.8847C20.7788 20.9998 21.5036 20.275 21.5036 19.381C21.5036 18.5398 20.862 17.8485 20.0415 17.7696H20.881C21.7771 17.7696 22.5036 17.0432 22.5036 16.147C22.5036 15.3046 21.8616 14.6121 21.0402 14.5321H21.3811M21.3984 11.2945C22.2845 11.3038 23 12.025 23 12.9133C23 13.8073 22.2752 14.5321 21.3811 14.5321M21.3984 11.2945L19.5017 11.2946M21.3811 14.5321L19.5017 14.5322M20.7426 17.7698H19.5017M2 20.8095L7 20.8095C7.55228 20.8095 8 20.3618 8 19.8095L8 8.21198C8 8.15675 7.95523 8.11198 7.9 8.11198H2C1.44772 8.11198 1 8.55969 1 9.11198L1 19.8095C1 20.3618 1.44771 20.8095 2 20.8095Z" stroke="black" stroke-width="1.5" stroke-linecap="round"/>
</svg>
