<svg width="24" height="24" viewBox="0 0 24 24" fill="none" xmlns="http://www.w3.org/2000/svg">
<path d="M21.3984 12.7055C22.2845 12.7147 23 13.4359 23 14.3242C23 15.2183 22.2752 15.943 21.3811 15.943L15.2912 15.943C14.666 15.943 14.2236 16.5544 14.4192 17.1483L15.1462 19.3563C15.6236 20.8062 14.8829 22.3842 13.466 22.9359C13.0582 23.0946 12.5972 22.9511 12.351 22.5888L8.17525 16.4434C8.06216 16.277 8.00166 16.0797 8.00166 15.8775L8.00168 12.4588C8.00054 12.4393 7.99997 12.4195 7.99997 12.3997L8.0015 4.00913C8.0016 3.45692 8.44928 3.00931 9.0015 3.00931L12.4381 3.00932C12.4949 3.00329 12.5526 3.0002 12.611 3.0002L19.8847 3.0002C20.7788 3.0002 21.5036 3.72497 21.5036 4.61903C21.5036 5.46021 20.862 6.15154 20.0415 6.23037L20.881 6.23037C21.7771 6.23037 22.5036 6.95684 22.5036 7.85299C22.5036 8.6954 21.8616 9.38787 21.0402 9.46789M21.3984 12.7055C22.2845 12.6962 23 11.975 23 11.0867C23 10.1927 22.2752 9.46789 21.3811 9.46789L21.0402 9.46789M21.3984 12.7055L19.5017 12.7054M21.0402 9.46789L19.5017 9.4678M20.7426 6.23018L19.5017 6.23018M2 3.19048L6.99999 3.19047C7.55228 3.19047 7.99999 3.63819 8 4.19048L8 15.788C8 15.8433 7.95523 15.888 7.9 15.888L2 15.888C1.44772 15.888 1 15.4403 1 14.888L0.999998 4.19048C0.999998 3.63819 1.44771 3.19048 2 3.19048Z" stroke="black" stroke-width="1.5" stroke-linecap="round"/>
</svg>
