<svg width="24" height="24" viewBox="0 0 24 24" fill="none" xmlns="http://www.w3.org/2000/svg">
<g clip-path="url(#clip0_1607_7783)">
<path d="M3.78479 19.3152C2.05258 17.3713 1 14.8086 1 12C1 5.92487 5.92487 1 12 1C18.0751 1 23 5.92487 23 12C23 14.8086 21.9474 17.3713 20.2152 19.3152M6.40772 16.6984C5.52398 15.4756 5 13.9538 5 12.3043C5 8.27027 8.13401 5 12 5C15.866 5 19 8.27027 19 12.3043C19 13.9538 18.476 15.4756 17.5923 16.6984M15 12C15 13.6569 13.6569 15 12 15C10.3431 15 9 13.6569 9 12C9 10.3431 10.3431 9 12 9C13.6569 9 15 10.3431 15 12ZM6.59998 22.9724V22.8625C6.59998 19.8801 9.01764 17.4625 12 17.4625C14.9823 17.4625 17.4 19.8801 17.4 22.8625V22.9724C17.4 22.9876 17.3876 23 17.3724 23H6.62753C6.61231 23 6.59998 22.9876 6.59998 22.9724Z" stroke="black" stroke-width="1.5" stroke-linecap="round"/>
</g>
<defs>
<clipPath id="clip0_1607_7783">
<rect width="24" height="24" fill="white"/>
</clipPath>
</defs>
</svg>
