<svg width="24" height="24" viewBox="0 0 24 24" fill="none" xmlns="http://www.w3.org/2000/svg">
<g clip-path="url(#clip0_1607_7815)">
<path d="M16.899 4C18.1955 5.27052 19 7.04131 19 9C19 10.9587 18.1955 12.7295 16.899 14M7.10102 4C5.80447 5.27052 5 7.04131 5 9C5 10.9587 5.80447 12.7295 7.10102 14M19.5499 1C21.6742 3.00554 23 5.84794 23 9C23 12.1521 21.6742 14.9945 19.5499 17M4.45012 1C2.32578 3.00554 1 5.84794 1 9C1 12.1521 2.32578 14.9945 4.45012 17M12 12C13.6569 12 15 10.6569 15 9C15 7.34315 13.6569 6 12 6C10.3431 6 9 7.34315 9 9C9 10.6569 10.3431 12 12 12ZM12 12V23" stroke="black" stroke-width="1.5" stroke-linecap="round" stroke-linejoin="round"/>
</g>
<defs>
<clipPath id="clip0_1607_7815">
<rect width="24" height="24" fill="white"/>
</clipPath>
</defs>
</svg>
