<svg width="24" height="24" viewBox="0 0 24 24" fill="none" xmlns="http://www.w3.org/2000/svg">
<path d="M14.1814 5.09091C14.1814 7.35026 12.3498 9.18182 10.0905 9.18182C7.83113 9.18182 5.99957 7.35026 5.99957 5.09091C5.99957 2.83156 7.83113 1 10.0905 1C12.3498 1 14.1814 2.83156 14.1814 5.09091Z" fill="black"/>
<path d="M15.6364 15.6417C15.6364 15.439 15.7645 15.2586 15.9558 15.1918L18.9885 14.1327C19.202 14.0582 19.4344 14.0582 19.6479 14.1327L22.6806 15.1918C22.8719 15.2586 23 15.439 23 15.6417V17.9358C23 20.2091 21.5624 22.2339 19.4161 22.9834C19.3848 22.9943 19.3521 22.9999 19.3194 23C19.2859 23.0001 19.2523 22.9946 19.2203 22.9834C17.074 22.2339 15.6364 20.2091 15.6364 17.9358V15.6417Z" fill="black"/>
<path d="M1 20.9088C1.04901 15.9301 5.10017 11.9092 10.0905 11.9092C12.145 11.9092 14.0404 12.5908 15.5629 13.7401L15.4613 13.7756C14.6678 14.0527 14.1364 14.8012 14.1364 15.6417V17.9358C14.1364 19.0247 14.3939 20.0691 14.8602 21.0001H1.09046C1.04026 21.0001 0.99951 20.959 1 20.9088Z" fill="black"/>
<path d="M16.5454 14.9859V20.9181C15.9661 20.0561 15.6364 19.0245 15.6364 17.9358V15.6417C15.6364 15.439 15.7645 15.2586 15.9558 15.1918L16.5454 14.9859Z" fill="black"/>
</svg>
