<svg width="24" height="24" viewBox="0 0 24 24" fill="none" xmlns="http://www.w3.org/2000/svg">
<g clip-path="url(#clip0_1607_6441)">
<path fill-rule="evenodd" clip-rule="evenodd" d="M18 1C18 0.447715 18.4477 0 19 0H22C23.1046 0 24 0.895431 24 2V5C24 5.55228 23.5523 6 23 6C22.4477 6 22 5.55228 22 5V2H19C18.4477 2 18 1.55228 18 1Z" fill="black"/>
<path fill-rule="evenodd" clip-rule="evenodd" d="M6 23C6 23.5523 5.55228 24 5 24H2C0.895431 24 0 23.1046 0 22V19C0 18.4477 0.447715 18 1 18C1.55228 18 2 18.4477 2 19V22H5C5.55228 22 6 22.4477 6 23Z" fill="black"/>
<path fill-rule="evenodd" clip-rule="evenodd" d="M6 1C6 0.447715 5.55228 0 5 0H2C0.895431 0 0 0.895431 0 2V5C0 5.55228 0.447715 6 1 6C1.55228 6 2 5.55228 2 5V2H5C5.55228 2 6 1.55228 6 1Z" fill="black"/>
<path fill-rule="evenodd" clip-rule="evenodd" d="M18 23C18 23.5523 18.4477 24 19 24H22C23.1046 24 24 23.1046 24 22V19C24 18.4477 23.5523 18 23 18C22.4477 18 22 18.4477 22 19V22H19C18.4477 22 18 22.4477 18 23Z" fill="black"/>
<path fill-rule="evenodd" clip-rule="evenodd" d="M8 5C8.55228 5 9 5.44772 9 6V10C9 10.5523 8.55228 11 8 11C7.44772 11 7 10.5523 7 10V6C7 5.44772 7.44772 5 8 5Z" fill="black"/>
<path fill-rule="evenodd" clip-rule="evenodd" d="M16 5C16.5523 5 17 5.44772 17 6V10C17 10.5523 16.5523 11 16 11C15.4477 11 15 10.5523 15 10V6C15 5.44772 15.4477 5 16 5Z" fill="black"/>
<path fill-rule="evenodd" clip-rule="evenodd" d="M5.9453 15.1679C6.40483 14.8616 7.0257 14.9858 7.33205 15.4453C8.10301 16.6017 9.74733 17.5 12 17.5C13.1505 17.5 13.9975 17.3302 14.7051 17.0028C15.4119 16.6758 16.0518 16.1581 16.7387 15.3516C17.0968 14.9311 17.728 14.8806 18.1484 15.2387C18.5689 15.5968 18.6194 16.228 18.2613 16.6484C17.4482 17.603 16.5881 18.3352 15.5449 18.818C14.5025 19.3003 13.3495 19.5 12 19.5C9.25267 19.5 6.89699 18.3983 5.66795 16.5547C5.3616 16.0952 5.48577 15.4743 5.9453 15.1679Z" fill="black"/>
<path fill-rule="evenodd" clip-rule="evenodd" d="M12 11C12.5523 11 13 11.4477 13 12V13.713C13 14.2653 12.5523 14.713 12 14.713C11.4477 14.713 11 14.2653 11 13.713V12C11 11.4477 11.4477 11 12 11Z" fill="black"/>
</g>
<defs>
<clipPath id="clip0_1607_6441">
<rect width="24" height="24" fill="white"/>
</clipPath>
</defs>
</svg>
