<svg width="24" height="24" viewBox="0 0 24 24" fill="none" xmlns="http://www.w3.org/2000/svg">
<path fill-rule="evenodd" clip-rule="evenodd" d="M10.2499 1L1.99975 1.00002C1.44747 1.00002 0.999756 1.44773 0.999756 2.00002V18C0.999756 18.5523 1.44747 19 1.99976 19L10.7499 19V16.3637C10.7499 14.8244 11.8199 13.5351 13.2567 13.199C13.3797 10.9004 15.1523 9.0877 17.3634 8.79224V8.04999H11.0999C10.6304 8.04999 10.2499 7.66944 10.2499 7.19999V1ZM3.8861 6.95978C3.8861 6.54556 4.22188 6.20978 4.6361 6.20978H8.70777C9.12198 6.20978 9.45777 6.54556 9.45777 6.95978C9.45777 7.37399 9.12198 7.70978 8.70777 7.70978H4.6361C4.22188 7.70978 3.8861 7.37399 3.8861 6.95978ZM4.6361 10.4299C4.22188 10.4299 3.8861 10.7657 3.8861 11.1799C3.8861 11.5941 4.22188 11.9299 4.6361 11.9299H10.727C11.1412 11.9299 11.477 11.5941 11.477 11.1799C11.477 10.7657 11.1412 10.4299 10.727 10.4299H4.6361ZM3.8861 15.4C3.8861 14.9857 4.22188 14.65 4.6361 14.65H8.72701C9.14122 14.65 9.47701 14.9857 9.47701 15.4C9.47701 15.8142 9.14122 16.15 8.72701 16.15H4.6361C4.22188 16.15 3.8861 15.8142 3.8861 15.4Z" fill="black"/>
<path d="M17.3221 6.54999C17.2749 6.39107 17.1886 6.24485 17.0689 6.12577L12.2133 1.29135C12.0842 1.16283 11.9237 1.07313 11.7499 1.02975V6.54999H17.3221Z" fill="black"/>
<path fill-rule="evenodd" clip-rule="evenodd" d="M21.25 15.3638C21.25 15.3638 21.25 15.3637 21.25 15.3638V13.4545C21.25 11.6718 19.7819 10.25 18 10.25C16.2181 10.25 14.75 11.6718 14.75 13.4545V15.3637C14.75 15.3636 14.75 15.3637 14.75 15.3637L14 15.3638C13.4477 15.3638 13 15.8115 13 16.3638V22.0001C13 22.5524 13.4477 23.0001 14 23.0001H22C22.5523 23.0001 23 22.5524 23 22.0001V16.3638C23 15.8115 22.5523 15.3638 22 15.3638H21.25ZM18 11.75C17.0205 11.75 16.25 12.5261 16.25 13.4545V15.3637C16.25 15.3637 16.25 15.3636 16.25 15.3637L19.75 15.3638C19.75 15.3637 19.75 15.3638 19.75 15.3638V13.4545C19.75 12.5261 18.9795 11.75 18 11.75ZM19.6666 19.182C19.6666 20.0857 18.9204 20.8183 17.9999 20.8183C17.0794 20.8183 16.3333 20.0857 16.3333 19.182C16.3333 18.2782 17.0794 17.5456 17.9999 17.5456C18.9204 17.5456 19.6666 18.2782 19.6666 19.182Z" fill="black"/>
</svg>
