<svg width="24" height="24" viewBox="0 0 24 24" fill="none" xmlns="http://www.w3.org/2000/svg">
<path fill-rule="evenodd" clip-rule="evenodd" d="M3.25 9C3.25 4.16751 7.16751 0.25 12 0.25C16.8325 0.25 20.75 4.16751 20.75 9V15C20.75 19.8325 16.8325 23.75 12 23.75C7.16751 23.75 3.25 19.8325 3.25 15V9ZM12 20.75C13.2938 20.75 14.4898 20.3218 15.451 19.5996C15.7822 19.3508 15.8489 18.8807 15.6001 18.5495C15.3513 18.2183 14.8811 18.1516 14.55 18.4004C13.8397 18.9341 12.9578 19.25 12 19.25C9.65279 19.25 7.75 17.3472 7.75 15L7.75 9C7.75 8.58579 7.41421 8.25 7 8.25C6.58579 8.25 6.25 8.58579 6.25 9L6.25 15C6.25 18.1756 8.82436 20.75 12 20.75ZM12 16.75C13.5188 16.75 14.75 15.5188 14.75 14V10C14.75 9.58579 14.4142 9.25 14 9.25C13.5858 9.25 13.25 9.58579 13.25 10V14C13.25 14.6904 12.6904 15.25 12 15.25C11.5858 15.25 11.25 15.5858 11.25 16C11.25 16.4142 11.5858 16.75 12 16.75ZM16.25 15C16.25 15.4142 16.5858 15.75 17 15.75C17.4142 15.75 17.75 15.4142 17.75 15L17.75 9C17.75 5.82436 15.1756 3.25 12 3.25C11.1836 3.25 10.4051 3.42059 9.69972 3.72878C9.32016 3.89462 9.1469 4.33676 9.31274 4.71632C9.47858 5.09589 9.92071 5.26915 10.3003 5.10331C10.8198 4.87631 11.3942 4.75 12 4.75C14.3472 4.75 16.25 6.65279 16.25 9L16.25 15ZM9.25 14C9.25 14.4142 9.58579 14.75 10 14.75C10.4142 14.75 10.75 14.4142 10.75 14L10.75 10C10.75 9.30964 11.3096 8.75 12 8.75C12.4142 8.75 12.75 8.41421 12.75 8C12.75 7.58579 12.4142 7.25 12 7.25C10.4812 7.25 9.25 8.48122 9.25 10L9.25 14Z" fill="black"/>
</svg>
