<svg width="24" height="24" viewBox="0 0 24 24" fill="none" xmlns="http://www.w3.org/2000/svg">
<g clip-path="url(#clip0_1607_9004)">
<path d="M13.1362 0.980684C13.1217 0.566724 12.7744 0.242872 12.3604 0.257341C11.9465 0.27181 11.6226 0.619121 11.6371 1.03308L13.1362 0.980684ZM1.03294 11.6372C0.618976 11.6228 0.271665 11.9466 0.257196 12.3606C0.242727 12.7745 0.566578 13.1218 0.980539 13.1363L1.03294 11.6372ZM10.8638 23.0194C10.8783 23.4334 11.2256 23.7572 11.6395 23.7428C12.0535 23.7283 12.3773 23.381 12.3629 22.967L10.8638 23.0194ZM22.967 12.3629C23.381 12.3774 23.7283 12.0535 23.7428 11.6395C23.7572 11.2256 23.4334 10.8783 23.0194 10.8638L22.967 12.3629ZM12.8839 6.87364C13.1768 7.16653 13.6517 7.16653 13.9445 6.87364C14.2374 6.58075 14.2374 6.10587 13.9445 5.81298L12.8839 6.87364ZM11.1161 2.98455C10.8232 2.69166 10.3484 2.69166 10.0555 2.98455C9.76256 3.27745 9.76256 3.75232 10.0555 4.04521L11.1161 2.98455ZM18.1872 10.0554C17.8943 9.76252 17.4194 9.76252 17.1265 10.0554C16.8336 10.3483 16.8336 10.8232 17.1265 11.1161L18.1872 10.0554ZM19.955 13.9445C20.2478 14.2374 20.7227 14.2374 21.0156 13.9445C21.3085 13.6516 21.3085 13.1767 21.0156 12.8838L19.955 13.9445ZM10.0556 11.1161C10.3485 11.409 10.8234 11.409 11.1163 11.1161C11.4092 10.8232 11.4092 10.3483 11.1163 10.0554L10.0556 11.1161ZM8.28787 7.22698C7.99498 6.93409 7.5201 6.93409 7.22721 7.22698C6.93432 7.51988 6.93432 7.99475 7.22721 8.28764L8.28787 7.22698ZM13.9447 12.8838C13.6518 12.5909 13.177 12.5909 12.8841 12.8838C12.5912 13.1767 12.5912 13.6515 12.8841 13.9444L13.9447 12.8838ZM15.7125 16.7729C16.0054 17.0658 16.4803 17.0658 16.7732 16.7729C17.066 16.48 17.066 16.0051 16.7732 15.7122L15.7125 16.7729ZM5.81318 13.9442C6.10607 14.2371 6.58094 14.2371 6.87384 13.9442C7.16673 13.6513 7.16673 13.1764 6.87384 12.8835L5.81318 13.9442ZM4.04541 10.0551C3.75252 9.76222 3.27764 9.76222 2.98475 10.0551C2.69185 10.348 2.69186 10.8229 2.98475 11.1158L4.04541 10.0551ZM11.1165 17.1262C10.8236 16.8333 10.3487 16.8333 10.0558 17.1262C9.7629 17.4191 9.7629 17.894 10.0558 18.1869L11.1165 17.1262ZM12.8842 21.0153C13.1771 21.3082 13.652 21.3082 13.9449 21.0153C14.2378 20.7224 14.2378 20.2475 13.9449 19.9546L12.8842 21.0153ZM19.2478 19.2478C15.245 23.2507 8.75503 23.2507 4.75216 19.2478L3.6915 20.3085C8.28016 24.8972 15.7198 24.8972 20.3085 20.3085L19.2478 19.2478ZM4.75216 19.2478C0.749281 15.245 0.749281 8.75503 4.75216 4.75216L3.6915 3.6915C-0.897165 8.28016 -0.897165 15.7198 3.6915 20.3085L4.75216 19.2478ZM4.75216 4.75216C8.75503 0.749281 15.245 0.749281 19.2478 4.75216L20.3085 3.6915C15.7198 -0.897165 8.28016 -0.897165 3.6915 3.6915L4.75216 4.75216ZM19.2478 4.75216C23.2507 8.75503 23.2507 15.245 19.2478 19.2478L20.3085 20.3085C24.8972 15.7198 24.8972 8.28016 20.3085 3.6915L19.2478 4.75216ZM11.6371 1.03308C11.733 3.77649 10.7343 6.54827 8.64123 8.64137L9.70189 9.70203C12.1012 7.30267 13.246 4.12245 13.1362 0.980684L11.6371 1.03308ZM8.64123 8.64137C6.54812 10.7345 3.77634 11.7331 1.03294 11.6372L0.980539 13.1363C4.1223 13.2461 7.30252 12.1014 9.70189 9.70203L8.64123 8.64137ZM12.3629 22.967C12.267 20.2236 13.2656 17.4519 15.3587 15.3587L14.2981 14.2981C11.8987 16.6975 10.754 19.8777 10.8638 23.0194L12.3629 22.967ZM15.3587 15.3587C17.4518 13.2656 20.2236 12.267 22.967 12.3629L23.0194 10.8638C19.8776 10.754 16.6974 11.8987 14.2981 14.2981L15.3587 15.3587ZM13.9445 5.81298L11.1161 2.98455L10.0555 4.04521L12.8839 6.87364L13.9445 5.81298ZM17.1265 11.1161L19.955 13.9445L21.0156 12.8838L18.1872 10.0554L17.1265 11.1161ZM11.1163 10.0554L8.28787 7.22698L7.22721 8.28764L10.0556 11.1161L11.1163 10.0554ZM12.8841 13.9444L15.7125 16.7729L16.7732 15.7122L13.9447 12.8838L12.8841 13.9444ZM6.87384 12.8835L4.04541 10.0551L2.98475 11.1158L5.81318 13.9442L6.87384 12.8835ZM10.0558 18.1869L12.8842 21.0153L13.9449 19.9546L11.1165 17.1262L10.0558 18.1869Z" fill="black"/>
</g>
<defs>
<clipPath id="clip0_1607_9004">
<rect width="24" height="24" fill="white"/>
</clipPath>
</defs>
</svg>
