<svg width="24" height="24" viewBox="0 0 24 24" fill="none" xmlns="http://www.w3.org/2000/svg">
<g clip-path="url(#clip0_1607_9012)">
<path d="M14 12H3C2.44772 12 2 12.4477 2 13V18C2 18.5523 2.44772 19 3 19H14C14.5523 19 15 18.5523 15 18V13C15 12.4477 14.5523 12 14 12ZM14 12H21.5C22.3284 12 23 12.6716 23 13.5C23 14.3284 22.3284 15 21.5 15H15M4 9V8.41421C4 7.50871 4.35971 6.64029 5 6C5.64029 5.35971 6 4.49129 6 3.58579V3M8.50037 9V8.95246C8.50037 7.69088 8.94263 6.46922 9.75021 5.5C10.5578 4.53078 11.0001 3.30912 11.0001 2.04754V1M13 9V8.41421C13 7.50871 13.3597 6.64029 14 6C14.6403 5.35971 15 4.49129 15 3.58579V3M16 23C16 22.4477 15.5523 22 15 22L2 22C1.44771 22 1 22.4477 1 23" stroke="black" stroke-width="1.5" stroke-linecap="round" stroke-linejoin="round"/>
</g>
<defs>
<clipPath id="clip0_1607_9012">
<rect width="24" height="24" fill="white"/>
</clipPath>
</defs>
</svg>
