<svg width="24" height="24" viewBox="0 0 24 24" fill="none" xmlns="http://www.w3.org/2000/svg">
<path d="M8.75 11C8.75 10.5858 8.41421 10.25 8 10.25C7.58579 10.25 7.25 10.5858 7.25 11H8.75ZM7.25 13C7.25 13.4142 7.58579 13.75 8 13.75C8.41421 13.75 8.75 13.4142 8.75 13H7.25ZM14.75 11C14.75 10.5858 14.4142 10.25 14 10.25C13.5858 10.25 13.25 10.5858 13.25 11H14.75ZM13.25 16C13.25 16.4142 13.5858 16.75 14 16.75C14.4142 16.75 14.75 16.4142 14.75 16H13.25ZM5.75 11C5.75 10.5858 5.41421 10.25 5 10.25C4.58579 10.25 4.25 10.5858 4.25 11H5.75ZM4.25 12.5C4.25 12.9142 4.58579 13.25 5 13.25C5.41421 13.25 5.75 12.9142 5.75 12.5H4.25ZM11.75 11C11.75 10.5858 11.4142 10.25 11 10.25C10.5858 10.25 10.25 10.5858 10.25 11H11.75ZM10.25 12.5C10.25 12.9142 10.5858 13.25 11 13.25C11.4142 13.25 11.75 12.9142 11.75 12.5H10.25ZM9.23717 0.288488C8.84421 0.157502 8.41947 0.369871 8.28849 0.762829C8.1575 1.15579 8.36987 1.58053 8.76283 1.71151L9.23717 0.288488ZM9.15395 1.05132L8.91678 1.76283L8.91678 1.76283L9.15395 1.05132ZM2.49254 12.905L1.76757 13.0972L1.76867 13.1013L2.49254 12.905ZM21.5075 12.905L22.2128 13.16L22.224 13.129L22.2324 13.0972L21.5075 12.905ZM8.94758 22.3126L8.50475 22.9179L8.50475 22.9179L8.94758 22.3126ZM13.8346 4.32014L14.073 5.03123L14.073 5.03123L13.8346 4.32014ZM16.565 4.04818L16.6586 3.30403L16.565 4.04818ZM7.43496 4.04818L7.52853 4.79232L7.43496 4.04818ZM10.1654 4.32014L9.92697 5.03123L9.92697 5.03123L10.1654 4.32014ZM11.9095 4.90495L12.1479 4.19386L12.1479 4.19386L11.9095 4.90495ZM12.0905 4.90495L11.8521 4.19386L11.8521 4.19386L12.0905 4.90495ZM21.7882 11.8459L22.5132 12.0381L22.5132 12.0381L21.7882 11.8459ZM21.4213 13.1434L22.1266 13.3984L22.1266 13.3984L21.4213 13.1434ZM14.764 22.4759L15.2342 23.0602L15.2342 23.0602L14.764 22.4759ZM2.21178 11.8459L2.93673 11.6537L2.21178 11.8459ZM2.09418 11.3111L2.83294 11.1817L2.09418 11.3111ZM3.45147 15.5616L4.13378 15.2502L3.45147 15.5616ZM12.4493 22.1634L12.1123 22.8334L12.1123 22.8334L12.4493 22.1634ZM11.5507 22.1634L11.2137 21.4933L11.2137 21.4933L11.5507 22.1634ZM10.4335 22.7253L10.7705 23.3953L10.7705 23.3953L10.4335 22.7253ZM9.39373 22.639L9.83656 22.0337L9.83656 22.0337L9.39373 22.639ZM13.5379 22.7108L13.8749 22.0408L13.8749 22.0408L13.5379 22.7108ZM14.6141 22.5965L14.1439 22.0122L14.1439 22.0122L14.6141 22.5965ZM16.25 12V15H17.75V12H16.25ZM2.04764 11.75H16V10.25H2.04764V11.75ZM16 15.25H3.65901V16.75H16V15.25ZM16.25 15C16.25 15.1381 16.1381 15.25 16 15.25V16.75C16.9665 16.75 17.75 15.9665 17.75 15H16.25ZM17.75 12C17.75 11.0335 16.9665 10.25 16 10.25V11.75C16.1381 11.75 16.25 11.8619 16.25 12H17.75ZM7.25 11V13H8.75V11H7.25ZM13.25 11V16H14.75V11H13.25ZM4.25 11V12.5H5.75V11H4.25ZM10.25 11V12.5H11.75V11H10.25ZM8.76283 1.71151L8.91678 1.76283L9.39112 0.339804L9.23717 0.288488L8.76283 1.71151ZM8.91678 1.76283C10.3102 2.22729 11.25 3.53125 11.25 5H12.75C12.75 2.88561 11.397 1.00843 9.39112 0.339804L8.91678 1.76283ZM13.8749 22.0408L12.7863 21.4933L12.1123 22.8334L13.2009 23.3809L13.8749 22.0408ZM11.2137 21.4933L10.0965 22.0552L10.7705 23.3953L11.8877 22.8334L11.2137 21.4933ZM3.2175 12.7128L2.93673 11.6537L1.48682 12.0381L1.76758 13.0972L3.2175 12.7128ZM21.0633 11.6537L20.7825 12.7128L22.2324 13.0972L22.5132 12.0381L21.0633 11.6537ZM9.92697 5.03123L11.6711 5.61604L12.1479 4.19386L10.4038 3.60905L9.92697 5.03123ZM12.3289 5.61604L14.073 5.03123L13.5962 3.60905L11.8521 4.19386L12.3289 5.61604ZM9.83656 22.0337L9.39041 21.7073L8.50475 22.9179L8.9509 23.2443L9.83656 22.0337ZM20.8021 12.65L20.716 12.8884L22.1266 13.3984L22.2128 13.16L20.8021 12.65ZM14.2938 21.8916L14.1439 22.0122L15.0843 23.1808L15.2342 23.0602L14.2938 21.8916ZM14.073 5.03123C14.8449 4.77244 15.6644 4.69083 16.4715 4.79232L16.6586 3.30403C15.6279 3.17443 14.5814 3.27868 13.5962 3.60905L14.073 5.03123ZM7.52853 4.79232C8.33565 4.69083 9.15515 4.77244 9.92697 5.03123L10.4038 3.60905C9.41856 3.27868 8.37212 3.17443 7.3414 3.30403L7.52853 4.79232ZM11.6711 5.61604C11.8845 5.68761 12.1155 5.68761 12.3289 5.61604L11.8521 4.19386C11.948 4.16167 12.052 4.16167 12.1479 4.19386L11.6711 5.61604ZM22.5132 12.0381C23.5971 7.94925 20.8447 3.8304 16.6586 3.30403L16.4715 4.79232C19.7473 5.20421 21.9169 8.43354 21.0633 11.6537L22.5132 12.0381ZM20.716 12.8884C19.4371 16.4261 17.215 19.5409 14.2938 21.8916L15.2342 23.0602C18.3702 20.5366 20.7546 17.1938 22.1266 13.3984L20.716 12.8884ZM2.93673 11.6537C2.89495 11.4961 2.86043 11.3387 2.83294 11.1817L1.35543 11.4405C1.39033 11.6397 1.43404 11.839 1.48682 12.0381L2.93673 11.6537ZM2.83294 11.1817C2.29742 8.12469 4.41306 5.18405 7.52853 4.79232L7.3414 3.30403C3.35907 3.80477 0.67498 7.55611 1.35543 11.4405L2.83294 11.1817ZM9.39041 21.7073C7.10522 20.0355 5.30069 17.8072 4.13378 15.2502L2.76916 15.873C4.04185 18.6618 6.01046 21.0931 8.50475 22.9179L9.39041 21.7073ZM4.13378 15.2502C3.76132 14.4341 3.45383 13.5845 3.2164 12.7088L1.76867 13.1013C2.02757 14.0562 2.36292 14.9828 2.76916 15.873L4.13378 15.2502ZM12.7863 21.4933C12.2916 21.2445 11.7084 21.2445 11.2137 21.4933L11.8877 22.8334C11.9583 22.7978 12.0417 22.7978 12.1123 22.8334L12.7863 21.4933ZM10.0965 22.0552C10.0127 22.0974 9.91229 22.0891 9.83656 22.0337L8.9509 23.2443C9.48103 23.6321 10.1837 23.6904 10.7705 23.3953L10.0965 22.0552ZM13.2009 23.3809C13.8136 23.6891 14.55 23.6109 15.0843 23.1808L14.1439 22.0122C14.0676 22.0737 13.9624 22.0848 13.8749 22.0408L13.2009 23.3809Z" fill="black"/>
</svg>
