<svg width="24" height="24" viewBox="0 0 24 24" fill="none" xmlns="http://www.w3.org/2000/svg">
<path d="M1 6V2M7.5 6V2M0.999512 4L7 4M22.9951 6V2M16.4951 6V2M22.9956 4L16.9951 4M14.6125 7.62023C14.6125 9.06734 13.4394 10.2405 11.9923 10.2405C10.5452 10.2405 9.37207 9.06734 9.37207 7.62023C9.37207 6.17312 10.5452 5 11.9923 5C13.4394 5 14.6125 6.17312 14.6125 7.62023ZM5.5004 4L5.5004 11.5867L6.78958 12.2313C6.92843 12.3007 7.08152 12.3368 7.23675 12.3368L8.25704 12.3368L8.27581 12.3367H15.7114L15.7301 12.3368L16.7592 12.3368C16.9144 12.3368 17.0675 12.3007 17.2063 12.2313L18.4955 11.5867V4H20.9959V12C20.9959 12.0096 20.9958 12.0191 20.9955 12.0286V12.882C20.9955 13.2607 20.7815 13.607 20.4427 13.7764L16.9952 15.5L16.7177 15.6699L16.7258 18.6252L16.7258 20.78C16.7258 21.4538 16.1796 22 15.5058 22H8.49581C7.82202 22 7.2758 21.4538 7.27581 20.78L7.27581 15.6685L7.00071 15.5L3.55322 13.7764C3.21442 13.607 3.0004 13.2607 3.0004 12.882V12.0286C3.00013 12.0191 3 12.0096 3 12V4H5.5004Z" stroke="black" stroke-width="1.5" stroke-linecap="round" stroke-linejoin="round"/>
</svg>
