<svg width="24" height="24" viewBox="0 0 24 24" fill="none" xmlns="http://www.w3.org/2000/svg">
<path d="M3.23101 13.1143C4.3842 8.49692 8.00024 3.5 12.0002 1L17.2143 9L18.8064 7L19.9011 9.75003C20.2323 10.5821 20.4952 11.4369 20.6876 12.3069L20.809 12.856C21.966 18.0881 17.7266 23 12.0538 23H11.5416C6.03617 23 1.97005 18.1632 3.23101 13.1143Z" stroke="black" stroke-width="1.5" stroke-linejoin="round"/>
<path d="M9.86248 19.6184C7.9553 18.3855 7.48381 15.7991 8.83327 13.9726L11.5289 10.324C11.7629 10.0071 12.2368 10.0071 12.4709 10.324L15.1665 13.9726C16.5159 15.7991 16.0444 18.3855 14.1373 19.6184C12.8364 20.4593 11.1633 20.4593 9.86248 19.6184Z" stroke="black" stroke-width="1.5" stroke-linejoin="round"/>
</svg>
