<svg width="24" height="24" viewBox="0 0 24 24" fill="none" xmlns="http://www.w3.org/2000/svg">
<path d="M9.84752 9.16594C11.4131 10.7266 11.4131 13.2569 9.84752 14.8175M6.01087 9.9936V10.0332M7.48503 6.04129C8.40498 5.7705 9.37177 5.62738 10.3606 5.62738C12.169 5.62738 13.911 6.10686 15.4284 6.97774M7.48503 6.04129C4.7887 6.83495 2.49474 8.72535 1.22698 11.3234L1.07614 11.6325C0.965504 11.8593 0.965504 12.1241 1.07615 12.3509L1.22697 12.66C2.49952 15.2678 4.80604 17.1627 7.51559 17.951M7.48503 6.04129L7.51421 5.99727C9.02399 3.70447 11.7935 2.57421 14.4828 3.15334L17.3926 3.77998C17.4617 3.79485 17.494 3.87442 17.4548 3.93305L15.532 6.80815L15.4284 6.97774M7.51559 17.951C8.42639 18.216 9.38272 18.356 10.3606 18.356C12.1729 18.356 13.9185 17.8745 15.4382 17M7.51559 17.951L7.55043 18.0085C9.03754 20.2935 11.7847 21.427 14.4568 20.8582L17.4284 20.2256C17.4976 20.2108 17.5301 20.1311 17.4908 20.0724L15.5682 17.1976L15.4382 17M15.4382 17C16.8749 16.1734 18.1098 14.9956 19.0083 13.5416C19.0244 13.5154 19.0607 13.5111 19.0825 13.5328L22.8219 17.2604C22.8914 17.3296 23.009 17.2682 22.9914 17.1719L22.0792 12.1704C22.0576 12.0522 22.0576 11.9311 22.0792 11.8129L22.9914 6.81147C23.009 6.71511 22.8914 6.6537 22.8219 6.72296L19.0824 10.4506C19.0607 10.4723 19.0244 10.468 19.0083 10.4418C18.1077 8.9845 16.8693 7.80467 15.4284 6.97774" stroke="black" stroke-width="1.5" stroke-linecap="round"/>
</svg>
