<svg width="24" height="24" viewBox="0 0 24 24" fill="none" xmlns="http://www.w3.org/2000/svg">
<path d="M10 1L10.3416 1.17082C11.358 1.679 12 2.71779 12 3.8541V6M12 4C9.79086 4 8 5.79086 8 8V9.73298C8 10.0599 7.83705 10.3624 7.58354 10.5688C6.00702 11.8523 5 13.8086 5 16C5 19.866 8.13401 23 12 23C15.866 23 19 19.866 19 16C19 13.8086 17.993 11.8523 16.4165 10.5688C16.1629 10.3624 16 10.0599 16 9.73298V8C16 5.79086 14.2091 4 12 4ZM12 4L14.1761 1.82389C14.6526 1.34738 15.4025 1.28172 15.9545 1.66817C17.1037 2.47261 16.4715 4.27947 15.0715 4.19197L12 4Z" stroke="black" stroke-width="1.5" stroke-linecap="round"/>
</svg>
