<svg width="24" height="24" viewBox="0 0 24 24" fill="none" xmlns="http://www.w3.org/2000/svg">
<g clip-path="url(#clip0_1607_9054)">
<path d="M1 22.9998L1.0883 22.7349C1.63276 21.1016 3.16132 19.9998 4.88304 19.9998H5.11696C5.76178 19.9998 6.3795 20.1544 6.92857 20.4335C7.6198 20.7849 8.68543 20.6305 9.24808 20.0969C9.9651 19.417 10.9338 18.9998 12 18.9998M23 22.9998L22.9117 22.7349C22.3672 21.1016 20.8387 19.9998 19.117 19.9998H18.883C18.2382 19.9998 17.6205 20.1544 17.0714 20.4335C16.3802 20.7849 15.3146 20.6305 14.7519 20.0969C14.0349 19.417 13.0662 18.9998 12 18.9998M12 18.9998V7.6567M11.8448 19.0028C11.4806 17.0913 10.4879 15.3018 9 13.9998L8.70711 13.707M12.149 18.9998C12.508 17.0756 13.5036 15.3092 15 13.9998L15.2929 13.707M8.70711 13.707C8.88807 13.526 9 13.276 9 12.9998V11.9998C9 10.343 7.65685 8.99985 6 8.99985H5C4.44772 8.99985 4 9.44756 4 9.99985V10.9998C4 12.6567 5.34315 13.9998 7 13.9998H8C8.27614 13.9998 8.52614 13.8879 8.70711 13.707ZM15.2929 13.707C15.1119 13.526 15 13.276 15 12.9998V11.9998C15 10.343 16.3431 8.99985 18 8.99985H19C19.5523 8.99985 20 9.44756 20 9.99985V10.9998C20 12.6567 18.6569 13.9998 17 13.9998H16C15.7239 13.9998 15.4739 13.8879 15.2929 13.707ZM10.5858 6.6567L11.2929 7.36381C11.6834 7.75433 12.3166 7.75433 12.7071 7.36381L13.4142 6.6567C14.5858 5.48513 14.5858 3.58564 13.4142 2.41406L12.7071 1.70696C12.3166 1.31643 11.6834 1.31643 11.2929 1.70696L10.5858 2.41406C9.41421 3.58564 9.41421 5.48513 10.5858 6.6567Z" stroke="black" stroke-width="1.5" stroke-linecap="round" stroke-linejoin="round"/>
</g>
<defs>
<clipPath id="clip0_1607_9054">
<rect width="24" height="24" fill="white"/>
</clipPath>
</defs>
</svg>
