<svg width="24" height="24" viewBox="0 0 24 24" fill="none" xmlns="http://www.w3.org/2000/svg">
<path d="M4.00008 10.4478V19C4.00008 19.5523 4.44779 20 5.00008 20H19.0001C19.5524 20 20.0001 19.5523 20.0001 19V10.5044M9.00037 15L9.00008 9.93134C9.00008 9.73613 9.11368 9.55877 9.29101 9.47715L12.5001 8.00001M9.00037 15C9.82879 15 10.5004 15.6716 10.5004 16.5V17.993C10.5004 17.9969 10.4972 18 10.4934 18H7.50733C7.50348 18 7.50037 17.9969 7.50037 17.993V16.5C7.50037 15.6716 8.17194 15 9.00037 15ZM12.0919 12.9072L1.71181 9.7523C0.787645 9.47142 0.755233 8.18187 1.66413 7.8554L12.0423 4.05945C12.15 4.02078 12.2626 4.00099 12.3752 4.00004C12.502 3.99896 12.629 4.02176 12.7491 4.06835L22.3602 7.86494C23.2381 8.20553 23.2048 9.45248 22.3099 9.74623L12.7007 12.9005C12.5034 12.9653 12.2907 12.9676 12.0919 12.9072Z" stroke="black" stroke-width="1.5" stroke-linecap="round"/>
</svg>
