<svg width="24" height="24" viewBox="0 0 24 24" fill="none" xmlns="http://www.w3.org/2000/svg">
<path d="M23.75 11.4453C23.75 11.0311 23.4142 10.6953 23 10.6953C22.5858 10.6953 22.25 11.0311 22.25 11.4453H23.75ZM1.75 10.4453C1.75 10.0311 1.41421 9.69527 1 9.69527C0.585786 9.69527 0.25 10.0311 0.25 10.4453H1.75ZM3.82469 19.2292L4.13504 18.5464L4.13504 18.5464L3.82469 19.2292ZM20.1753 19.2292L20.4857 19.912L20.4857 19.912L20.1753 19.2292ZM19.2451 16.4697L18.9347 15.787L18.9347 15.787L19.2451 16.4697ZM15.0089 7.40744L15.5134 6.85249L15.5134 6.85249L15.0089 7.40744ZM18.426 8.17033L18.2054 7.4535L18.426 8.17033ZM9.55531 3.32954L9.3398 4.04791L9.3398 4.04791L9.55531 3.32954ZM12.1161 4.77754L11.6115 5.3325L11.6115 5.3325L12.1161 4.77754ZM9.38693 3.27903L9.60245 2.56066L9.60245 2.56066L9.38693 3.27903ZM7.5 3L7.50038 3.75L7.5 3ZM9.46967 14.0053C9.17678 14.2982 9.17678 14.7731 9.46967 15.066C9.76256 15.3589 10.2374 15.3589 10.5303 15.066L9.46967 14.0053ZM14.0659 11.5304C14.3588 11.2375 14.3588 10.7627 14.0659 10.4698C13.773 10.1769 13.2981 10.1769 13.0052 10.4698L14.0659 11.5304ZM14.4697 14.0053C14.1768 14.2982 14.1768 14.7731 14.4697 15.066C14.7626 15.3589 15.2374 15.3589 15.5303 15.066L14.4697 14.0053ZM19.0659 11.5304C19.3588 11.2375 19.3588 10.7627 19.0659 10.4698C18.773 10.1769 18.2981 10.1769 18.0052 10.4698L19.0659 11.5304ZM22.25 11.4453V14.8425H23.75V11.4453H22.25ZM1.75 14.8425V10.4453H0.25V14.8425H1.75ZM0.25 14.8425C0.25 17.0262 1.52635 19.0084 3.51434 19.912L4.13504 18.5464C2.68255 17.8862 1.75 16.438 1.75 14.8425H0.25ZM22.25 14.8425C22.25 16.438 21.3175 17.8862 19.865 18.5464L20.4857 19.912C22.4736 19.0084 23.75 17.0262 23.75 14.8425H22.25ZM19.865 18.5464C17.3663 19.6822 14.6832 20.2501 12 20.2501V21.7501C14.8949 21.7501 17.7898 21.1374 20.4857 19.912L19.865 18.5464ZM12 20.2501C9.31679 20.2501 6.6337 19.6822 4.13504 18.5464L3.51434 19.912C6.21017 21.1374 9.10514 21.7501 12 21.7501V20.2501ZM8.25 9C8.25 9.69036 7.69036 10.25 7 10.25V11.75C8.51878 11.75 9.75 10.5188 9.75 9H8.25ZM7 10.25C6.30964 10.25 5.75 9.69036 5.75 9H4.25C4.25 10.5188 5.48122 11.75 7 11.75V10.25ZM5.75 9C5.75 8.30964 6.30964 7.75 7 7.75V6.25C5.48122 6.25 4.25 7.48122 4.25 9H5.75ZM7 7.75C7.69036 7.75 8.25 8.30964 8.25 9H9.75C9.75 7.48122 8.51878 6.25 7 6.25V7.75ZM22.25 11.5486V11.7803H23.75V11.5486H22.25ZM1.75 10.6383V9.51916H0.25V10.6383H1.75ZM9.17142 3.9974L9.3398 4.04791L9.77082 2.61117L9.60245 2.56066L9.17142 3.9974ZM11.6115 5.3325L14.5044 7.9624L15.5134 6.85249L12.6206 4.22259L11.6115 5.3325ZM14.5044 7.9624C15.6248 8.98087 17.1994 9.33244 18.6466 8.88717L18.2054 7.4535C17.2649 7.74288 16.2416 7.5144 15.5134 6.85249L14.5044 7.9624ZM9.3398 4.04791C10.1835 4.30102 10.9598 4.73997 11.6115 5.3325L12.6206 4.22259C11.803 3.47931 10.8292 2.92868 9.77082 2.61117L9.3398 4.04791ZM23.75 11.5486C23.75 8.66592 20.9606 6.60575 18.2054 7.4535L18.6466 8.88717C20.4372 8.33621 22.25 9.67512 22.25 11.5486H23.75ZM18.9347 15.787C16.7316 16.7884 14.3659 17.2891 12 17.2891L12 18.7891C14.5775 18.7891 17.1551 18.2436 19.5554 17.1525L18.9347 15.787ZM22.25 11.7803C22.25 12.5391 21.8632 13.3456 21.2069 14.0919C20.5564 14.8317 19.7048 15.4369 18.9347 15.787L19.5554 17.1525C20.5124 16.7175 21.5382 15.9867 22.3334 15.0824C23.1229 14.1846 23.75 13.0389 23.75 11.7803H22.25ZM0.25 10.6383C0.25 13.7129 2.22709 15.7707 4.59358 17.0197C6.95295 18.265 9.82802 18.7891 12 18.7891L12 17.2891C10.0217 17.2891 7.3968 16.8031 5.29373 15.6932C3.19779 14.5869 1.75 12.9444 1.75 10.6383H0.25ZM1.75 9.51916C1.75 6.2452 4.42816 3.75154 7.50038 3.75L7.49962 2.25C3.62939 2.25194 0.25 5.38727 0.25 9.51916H1.75ZM7.50038 3.75C8.04741 3.74973 8.60855 3.82854 9.17142 3.9974L9.60245 2.56066C8.89879 2.34956 8.19215 2.24965 7.49962 2.25L7.50038 3.75ZM10.5303 15.066L14.0659 11.5304L13.0052 10.4698L9.46967 14.0053L10.5303 15.066ZM15.5303 15.066L19.0659 11.5304L18.0052 10.4698L14.4697 14.0053L15.5303 15.066Z" fill="black"/>
</svg>
