<svg width="24" height="24" viewBox="0 0 24 24" fill="none" xmlns="http://www.w3.org/2000/svg">
<g clip-path="url(#clip0_1607_9079)">
<path d="M7 20C7 21.6568 5.65685 23 4 23C2.34315 23 1 21.6568 1 20C1 18.3431 2.34315 17 4 17C5.65685 17 7 18.3431 7 20ZM7 20V6.49999M23 17C23 18.6568 21.6569 20 20 20C18.3431 20 17 18.6568 17 17C17 15.3431 18.3431 14 20 14C21.6569 14 23 15.3431 23 17ZM23 17V3.49999M23 5.99999V2.28077C23 1.6302 22.3886 1.15284 21.7575 1.31062L7.75746 4.81062C7.3123 4.92192 7 5.3219 7 5.78077V9.99999L23 5.99999Z" stroke="black" stroke-width="1.5" stroke-linecap="round"/>
</g>
<defs>
<clipPath id="clip0_1607_9079">
<rect width="24" height="24" fill="white"/>
</clipPath>
</defs>
</svg>
