<svg width="24" height="24" viewBox="0 0 24 24" fill="none" xmlns="http://www.w3.org/2000/svg">
<path d="M17.6161 22.0001C17.616 22.4143 17.9518 22.7501 18.366 22.7501C18.7802 22.7502 19.116 22.4144 19.1161 22.0002L17.6161 22.0001ZM20.1847 22.75C20.5989 22.75 20.9347 22.4142 20.9347 22C20.9347 21.5858 20.5989 21.25 20.1847 21.25V22.75ZM16.5483 21.25C16.1341 21.25 15.7983 21.5858 15.7983 22C15.7983 22.4142 16.1341 22.75 16.5483 22.75V21.25ZM9.7732 2.75005C10.1874 2.75005 10.5232 2.41426 10.5232 2.00005C10.5232 1.58584 10.1874 1.25005 9.7732 1.25005V2.75005ZM5.22739 1.25005C4.81317 1.25005 4.47739 1.58584 4.47739 2.00005C4.47739 2.41426 4.81317 2.75005 5.22739 2.75005V1.25005ZM9.31855 5.47737C9.73277 5.47737 10.0686 5.14159 10.0686 4.72737C10.0686 4.31316 9.73277 3.97737 9.31855 3.97737V5.47737ZM5.68219 3.97737C5.26798 3.97737 4.93219 4.31316 4.93219 4.72737C4.93219 5.14159 5.26798 5.47737 5.68219 5.47737V3.97737ZM9.31811 8.18256L8.56811 8.18256L8.56811 8.42291L8.70781 8.61849L9.31811 8.18256ZM10.9273 10.4354L10.317 10.8713L10.317 10.8713L10.9273 10.4354ZM12.0449 13.9228L12.7949 13.9228V13.9228H12.0449ZM12.0449 21L11.2949 21V21H12.0449ZM4.07158 10.4354L3.46128 9.99948L3.46128 9.99948L4.07158 10.4354ZM5.68175 8.18118L6.29205 8.61711L6.43175 8.42153L6.43175 8.18118L5.68175 8.18118ZM5.68175 2V1.25C5.26753 1.25 4.93175 1.58579 4.93175 2L5.68175 2ZM9.31811 2L10.0681 2C10.0681 1.80109 9.98909 1.61032 9.84844 1.46967C9.70779 1.32902 9.51702 1.25 9.31811 1.25V2ZM12.0453 20.0228C12.4595 20.0228 12.7953 19.687 12.7953 19.2728C12.7953 18.8586 12.4595 18.5228 12.0453 18.5228L12.0453 20.0228ZM12.0453 14.5682C12.4595 14.5682 12.7953 14.2324 12.7953 13.8182C12.7953 13.404 12.4595 13.0682 12.0453 13.0682V14.5682ZM2.53033 1.46967C2.23744 1.17678 1.76256 1.17678 1.46967 1.46967C1.17678 1.76256 1.17678 2.23744 1.46967 2.53033L2.53033 1.46967ZM21.4697 22.5303C21.7626 22.8232 22.2374 22.8232 22.5303 22.5303C22.8232 22.2374 22.8232 21.7626 22.5303 21.4697L21.4697 22.5303ZM15.4371 12.75H21.2957V11.25H15.4371V12.75ZM21.2527 12.7071V14.7273H22.7527V12.7071H21.2527ZM15.48 14.7273V12.7071H13.98V14.7273H15.48ZM18.3664 17.6136C16.7723 17.6136 15.48 16.3214 15.48 14.7273H13.98C13.98 17.1498 15.9438 19.1136 18.3664 19.1136V17.6136ZM21.2527 14.7273C21.2527 16.3214 19.9605 17.6136 18.3664 17.6136V19.1136C20.7889 19.1136 22.7527 17.1498 22.7527 14.7273H21.2527ZM21.2957 12.75C21.2719 12.75 21.2527 12.7308 21.2527 12.7071H22.7527C22.7527 11.9024 22.1004 11.25 21.2957 11.25V12.75ZM15.4371 11.25C14.6324 11.25 13.98 11.9024 13.98 12.7071H15.48C15.48 12.7308 15.4608 12.75 15.4371 12.75V11.25ZM17.6164 18.3636L17.6161 22.0001L19.1161 22.0002L19.1164 18.3637L17.6164 18.3636ZM20.1847 21.25H16.5483V22.75H20.1847V21.25ZM9.7732 1.25005H5.22739V2.75005H9.7732V1.25005ZM9.31855 3.97737H5.68219V5.47737H9.31855V3.97737ZM8.70781 8.61849L10.317 10.8713L11.5376 9.99948L9.92841 7.74663L8.70781 8.61849ZM10.317 10.8713C10.953 11.7617 11.2949 12.8286 11.2949 13.9228H12.7949C12.7949 12.516 12.3553 11.1443 11.5376 9.99948L10.317 10.8713ZM11.2949 13.9228L11.2949 21L12.7949 21L12.7949 13.9228L11.2949 13.9228ZM11.2949 21C11.2949 21.1381 11.183 21.25 11.0449 21.25V22.75C12.0114 22.75 12.7949 21.9665 12.7949 21H11.2949ZM11.0449 21.25H3.95398V22.75H11.0449V21.25ZM3.95398 21.25C3.81591 21.25 3.70398 21.1381 3.70398 21H2.20398C2.20398 21.9665 2.98748 22.75 3.95398 22.75V21.25ZM3.70398 21V13.9228H2.20398V21H3.70398ZM3.70398 13.9228C3.70398 12.8286 4.04588 11.7617 4.68188 10.8713L3.46128 9.99948C2.64356 11.1443 2.20398 12.516 2.20398 13.9228H3.70398ZM4.68188 10.8713L6.29205 8.61711L5.07145 7.74525L3.46128 9.99948L4.68188 10.8713ZM6.43175 8.18118L6.43175 2L4.93175 2L4.93175 8.18118L6.43175 8.18118ZM5.68175 2.75H9.31811V1.25H5.68175V2.75ZM8.56811 2L8.56811 8.18256L10.0681 8.18256L10.0681 2L8.56811 2ZM12.0453 18.5228L2.95443 18.5228L2.95443 20.0228L12.0453 20.0228L12.0453 18.5228ZM2.95443 14.5682H12.0453V13.0682H2.95443V14.5682ZM1.46967 2.53033L21.4697 22.5303L22.5303 21.4697L2.53033 1.46967L1.46967 2.53033Z" fill="black"/>
</svg>
