<svg width="24" height="24" viewBox="0 0 24 24" fill="none" xmlns="http://www.w3.org/2000/svg">
<path d="M2 2L22 22M19 18V14M12 6V7.63636C12 9.44481 13.4643 10.9118 15.2727 10.9151L16.8462 10.9179H17.9179C18.5155 10.9179 19 11.4024 19 12M19 6V6.72727C19 7.83184 19.8954 8.72727 21 8.72727C22.1046 8.72727 23 9.6227 23 10.7273V12M2 18H22C22.5523 18 23 17.5523 23 17V15C23 14.4477 22.5523 14 22 14H2C1.44772 14 1 14.4477 1 15V17C1 17.5523 1.44772 18 2 18Z" stroke="black" stroke-width="1.5" stroke-linecap="round" stroke-linejoin="round"/>
</svg>
