<svg width="24" height="24" viewBox="0 0 24 24" fill="none" xmlns="http://www.w3.org/2000/svg">
<g clip-path="url(#clip0_1607_9099)">
<path d="M7.49976 8V5.50001C7.49976 3.01472 9.51448 1 11.9998 1C14.4851 1 16.4998 3.01472 16.4998 5.50001V8M2.21958 23H21.78C22.411 23 22.8843 22.4227 22.7606 21.8039L20.1606 8.80388C20.0671 8.33646 19.6567 8 19.18 8H4.81958C4.3429 8 3.93248 8.33646 3.839 8.80388L1.239 21.8039C1.11524 22.4227 1.58853 23 2.21958 23ZM8.99977 11.5C8.99977 12.3284 8.3282 13 7.49977 13C6.67135 13 5.99977 12.3284 5.99977 11.5C5.99977 10.6716 6.67135 10 7.49977 10C8.3282 10 8.99977 10.6716 8.99977 11.5ZM17.9998 11.5C17.9998 12.3284 17.3282 13 16.4998 13C15.6713 13 14.9998 12.3284 14.9998 11.5C14.9998 10.6716 15.6713 10 16.4998 10C17.3282 10 17.9998 10.6716 17.9998 11.5Z" stroke="black" stroke-width="1.5" stroke-linecap="round" stroke-linejoin="round"/>
</g>
<defs>
<clipPath id="clip0_1607_9099">
<rect width="24" height="24" fill="white"/>
</clipPath>
</defs>
</svg>
