<svg width="24" height="24" viewBox="0 0 24 24" fill="none" xmlns="http://www.w3.org/2000/svg">
<g clip-path="url(#clip0_1607_9112)">
<path d="M1.75 12C1.75 11.5858 1.41421 11.25 1 11.25C0.585786 11.25 0.25 11.5858 0.25 12H1.75ZM13.75 13C13.75 12.5858 13.4142 12.25 13 12.25C12.5858 12.25 12.25 12.5858 12.25 13H13.75ZM12.25 18C12.25 18.4142 12.5858 18.75 13 18.75C13.4142 18.75 13.75 18.4142 13.75 18H12.25ZM23.75 21C23.75 20.5858 23.4142 20.25 23 20.25C22.5858 20.25 22.25 20.5858 22.25 21H23.75ZM22.25 23C22.25 23.4142 22.5858 23.75 23 23.75C23.4142 23.75 23.75 23.4142 23.75 23H22.25ZM0.25 23C0.25 23.4142 0.585786 23.75 1 23.75C1.41421 23.75 1.75 23.4142 1.75 23H0.25ZM23 17L23.75 17L23.75 17L23 17ZM22.9 18.5L22.9 19.25L22.9 18.5ZM23 18.4L22.25 18.4L22.25 18.4L23 18.4ZM11 18.5L11 17.75L11 18.5ZM13.7143 0.25C13.3001 0.25 12.9643 0.585786 12.9643 1C12.9643 1.41421 13.3001 1.75 13.7143 1.75L13.7143 0.25ZM16.7749 1L17.3981 1.41725C17.5521 1.18719 17.5669 0.890982 17.4365 0.646754C17.3061 0.402526 17.0518 0.25 16.7749 0.25L16.7749 1ZM13.7143 5.57143L13.0911 5.15418C12.9371 5.38424 12.9223 5.68045 13.0527 5.92467C13.1831 6.1689 13.4375 6.32143 13.7143 6.32143V5.57143ZM16.7749 6.32143C17.1891 6.32143 17.5249 5.98564 17.5249 5.57143C17.5249 5.15722 17.1891 4.82143 16.7749 4.82143V6.32143ZM8.99993 5.82129C8.58572 5.82129 8.24993 6.15708 8.24993 6.57129C8.24993 6.9855 8.58572 7.32129 8.99993 7.32129V5.82129ZM11.2856 6.57129L11.9097 6.98731C12.0631 6.75717 12.0774 6.46126 11.9469 6.2174C11.8164 5.97353 11.5622 5.82129 11.2856 5.82129V6.57129ZM8.99994 9.99986L8.3759 9.58384C8.22247 9.81398 8.20817 10.1099 8.33868 10.3538C8.4692 10.5976 8.72334 10.7499 8.99994 10.7499V9.99986ZM11.2856 10.7499C11.6999 10.7499 12.0356 10.4141 12.0356 9.99986C12.0356 9.58565 11.6999 9.24986 11.2856 9.24986V10.7499ZM7.25 15C7.25 15.6904 6.69036 16.25 6 16.25L6 17.75C7.51878 17.75 8.75 16.5188 8.75 15L7.25 15ZM6 13.75C6.69036 13.75 7.25 14.3096 7.25 15L8.75 15C8.75 13.4812 7.51878 12.25 6 12.25L6 13.75ZM4.75 15C4.75 14.3096 5.30964 13.75 6 13.75L6 12.25C4.48122 12.25 3.25 13.4812 3.25 15L4.75 15ZM3.25 15C3.25 16.5188 4.48122 17.75 6 17.75L6 16.25C5.30964 16.25 4.75 15.6904 4.75 15L3.25 15ZM12.25 13V18H13.75V13H12.25ZM22.25 21V23H23.75V21H22.25ZM22.25 17V20.9H23.75V17H22.25ZM1.75 20.9V17.1H0.25V20.9H1.75ZM1.1 17.75H10V16.25H1.1V17.75ZM22.9 20.25H1.1V21.75H22.9V20.25ZM0.25 20.9C0.25 21.3694 0.630553 21.75 1.1 21.75V20.25C1.45899 20.25 1.75 20.541 1.75 20.9H0.25ZM22.25 20.9C22.25 20.541 22.541 20.25 22.9 20.25V21.75C23.3694 21.75 23.75 21.3694 23.75 20.9H22.25ZM1.75 17.1C1.75 17.459 1.45899 17.75 1.1 17.75V16.25C0.630554 16.25 0.25 16.6306 0.25 17.1H1.75ZM9.25 14V17.5H10.75V14H9.25ZM11 19.25L22.9 19.25L22.9 17.75L11 17.75L11 19.25ZM23.75 18.4V17H22.25V18.4H23.75ZM22.9 19.25C23.3694 19.25 23.75 18.8694 23.75 18.4L22.25 18.4C22.25 18.041 22.541 17.75 22.9 17.75L22.9 19.25ZM9.25 17.5C9.25 18.4665 10.0335 19.25 11 19.25L11 17.75C10.8619 17.75 10.75 17.6381 10.75 17.5H9.25ZM10.75 14C10.75 13.8619 10.8619 13.75 11 13.75V12.25C10.0335 12.25 9.25 13.0335 9.25 14H10.75ZM23.75 17C23.75 14.3766 21.6234 12.25 19 12.25V13.75C20.7949 13.75 22.25 15.2051 22.25 17L23.75 17ZM13.7143 1.75L16.7749 1.75L16.7749 0.25L13.7143 0.25L13.7143 1.75ZM16.1517 0.582754L13.0911 5.15418L14.3376 5.98867L17.3981 1.41725L16.1517 0.582754ZM13.7143 6.32143H16.7749V4.82143H13.7143V6.32143ZM8.99993 7.32129H11.2856V5.82129H8.99993V7.32129ZM10.6616 6.15526L8.3759 9.58384L9.62397 10.4159L11.9097 6.98731L10.6616 6.15526ZM8.99994 10.7499H11.2856V9.24986H8.99994V10.7499ZM0.25 12V23H1.75V12H0.25ZM19 12.25H11V13.75H19V12.25Z" fill="black"/>
</g>
<defs>
<clipPath id="clip0_1607_9112">
<rect width="24" height="24" fill="white"/>
</clipPath>
</defs>
</svg>
