<svg width="24" height="24" viewBox="0 0 24 24" fill="none" xmlns="http://www.w3.org/2000/svg">
<g clip-path="url(#clip0_1607_9108)">
<path d="M12 7.23607V3.76393M1.00072 12.0299L3.79722 9.98334C3.97007 9.85684 4.09293 9.68242 4.15663 9.48865M19.8441 9.48833C19.779 9.29019 19.7757 9.07182 19.8441 8.86374L20.8959 5.6643L20.9305 5.57632M19.8441 9.48833C19.9078 9.68211 20.0306 9.85652 20.2035 9.98302L22.9094 11.9632C22.9426 11.9876 22.973 12.0156 22.9999 12.0469V12.0469M19.8441 9.48833L19.6172 9.5542L16.7608 10.4714L16.5308 10.5279M16.5308 10.5279C16.467 10.3317 16.3427 10.1552 16.1675 10.0279L12.5878 7.42705C12.2373 7.17241 11.7627 7.17241 11.4122 7.42705L7.8325 10.0279C7.65085 10.1598 7.52395 10.3447 7.46248 10.5495M16.5308 10.5279C16.5945 10.724 16.5977 10.9399 16.5308 11.1459L15.1634 15.3541C15.1077 15.5257 15.0086 15.6742 14.8806 15.7891M14.8806 15.7891C14.7013 15.9501 14.4652 16.0451 14.2124 16.0451H9.78761C9.53677 16.0451 9.30245 15.9516 9.12362 15.7928M14.8806 15.7891L15.0189 15.9854L16.8305 18.3766L16.9722 18.5663M16.9722 18.5663C17.1369 18.4409 17.3405 18.3665 17.5579 18.3622L20.942 18.2944C20.9801 18.2937 21.017 18.281 21.0475 18.2582V18.2582M16.9722 18.5663C16.8087 18.6908 16.6835 18.8655 16.6209 19.0721L15.7339 22L15.6162 22.3918M7.03244 18.5691C6.86705 18.442 6.66206 18.3666 6.44305 18.3622L3.04779 18.2942C3.01675 18.2936 2.98643 18.2848 2.95985 18.2688V18.2688M7.03244 18.5691C7.19414 18.6934 7.31799 18.8671 7.38008 19.0721L8.34427 22.2549L8.38953 22.3938M7.03244 18.5691L7.1695 18.3766L8.98108 15.9854L9.12362 15.7928M9.12362 15.7928C8.9936 15.6774 8.89292 15.5276 8.83656 15.3541L7.46923 11.1459C7.40474 10.9474 7.40535 10.7398 7.46248 10.5495M7.46248 10.5495L7.23916 10.4714L4.38281 9.5542L4.15663 9.48865M4.15663 9.48865C4.22176 9.29051 4.22503 9.07213 4.15663 8.86406L3.14345 5.78202L3.07258 5.572M3.07258 5.572C1.7684 7.38011 1 9.60032 1 12C1 14.3297 1.72424 16.4902 2.95985 18.2688M3.07258 5.572C4.42537 3.6965 6.35462 2.26438 8.60071 1.53529M8.60071 1.53529C9.67121 1.1878 10.8137 1 12 1C13.1825 1 14.3214 1.18659 15.3889 1.53193M8.60071 1.53529L8.68303 1.58993L11.4124 3.57295C11.7629 3.82759 12.2375 3.82759 12.588 3.57295L15.3174 1.58993L15.3889 1.53193M15.3889 1.53193C17.6412 2.26053 19.5755 3.69581 20.9305 5.57632M20.9305 5.57632C22.2328 7.38365 23 9.60223 23 12C23 12.0156 23 12.0312 22.9999 12.0469M22.9999 12.0469C22.9903 14.3541 22.2703 16.4936 21.0475 18.2582M21.0475 18.2582C19.7326 20.1555 17.8363 21.6193 15.6162 22.3918M15.6162 22.3918C14.4837 22.7858 13.2668 23 12 23C10.7353 23 9.52047 22.7866 8.38953 22.3938M8.38953 22.3938C6.17114 21.6233 4.27558 20.1626 2.95985 18.2688" stroke="black" stroke-width="1.5" stroke-linecap="round"/>
</g>
<defs>
<clipPath id="clip0_1607_9108">
<rect width="24" height="24" fill="white"/>
</clipPath>
</defs>
</svg>
