<svg width="24" height="24" viewBox="0 0 24 24" fill="none" xmlns="http://www.w3.org/2000/svg">
<g clip-path="url(#clip0_1607_9103)">
<path d="M6.97364 12.3703L5.55661 16.1416C5.53818 16.1906 5.48495 16.2172 5.43459 16.2024L2.53882 15.3536C1.99806 15.1951 1.4328 15.5129 1.28828 16.0567L1.07332 16.8654C0.928314 17.411 1.26413 17.9682 1.81494 18.0959L6.20793 19.1146C6.65661 19.2186 7.11854 19.0038 7.32745 18.594L8.53329 16.2286L8.65701 16M9.0321 10.5202L7.72689 10.1989M7.72689 10.1989L5.18293 9.57269C5.13337 9.56049 5.08254 9.58743 5.06492 9.63525L4.08914 12.2832C3.8989 12.7994 3.32672 13.0654 2.80849 12.8785L1.99431 12.5848C1.46072 12.3923 1.19358 11.7964 1.40539 11.271L3.21175 6.79022C3.39174 6.34374 3.86481 6.08857 4.33759 6.18296L8.5312 7.02017L10.6045 7.43128C11.0584 7.52128 11.467 7.70838 11.8136 7.9662M7.72689 10.1989L7.7012 10.2694L6.66804 13.2136C6.54078 13.5762 6.63294 13.9796 6.90513 14.2513L8.65701 16M8.65701 16L10.0547 17.3952L13.8369 21.7148C14.2184 22.1506 14.8896 22.1731 15.2996 21.7639L16.3722 20.6931C16.7499 20.3162 16.7649 19.7098 16.4063 19.3147L12.084 14.5513C12.0614 14.5264 12.0528 14.4917 12.0613 14.4591L12.717 11.9386M12.717 11.9386L12.9279 11.1278C13.246 9.90509 12.7614 8.67124 11.8136 7.9662M12.717 11.9386L13.0647 12.0839L15.5257 13.176C15.9282 13.3546 16.4003 13.2498 16.6891 12.9178L19.5698 9.60613C19.9426 9.17752 19.8837 8.52542 19.4401 8.17033L18.7674 7.6319C18.3375 7.28781 17.7099 7.35489 17.3627 7.78204L15.5784 9.97739C15.5478 10.0151 15.4945 10.0254 15.452 10.0018L12.0375 8.10761L11.8136 7.9662M15.0271 3.13501C15.0271 4.31414 14.0695 5.27002 12.8882 5.27002C11.707 5.27002 10.7494 4.31414 10.7494 3.13501C10.7494 1.95588 11.707 1 12.8882 1C14.0695 1 15.0271 1.95588 15.0271 3.13501ZM23.0396 21C23.0396 22.1046 22.1425 23 21.036 23C19.9294 23 19.0324 22.1046 19.0324 21C19.0324 19.8954 19.9294 19 21.036 19C22.1425 19 23.0396 19.8954 23.0396 21Z" stroke="black" stroke-width="1.5" stroke-linecap="round"/>
</g>
<defs>
<clipPath id="clip0_1607_9103">
<rect width="24" height="24" fill="white"/>
</clipPath>
</defs>
</svg>
