<svg width="24" height="24" viewBox="0 0 24 24" fill="none" xmlns="http://www.w3.org/2000/svg">
<path d="M10 5H11.4176M10 7.12622H12.8351M6.97283 14.0152C6.97283 15.0392 6.14272 15.8693 5.11874 15.8693C4.09475 15.8693 3.26465 15.0392 3.26465 14.0152C3.26465 12.9912 4.09475 12.1611 5.11874 12.1611C6.14272 12.1611 6.97283 12.9912 6.97283 14.0152ZM1.00049 21.9585C1.0227 19.702 2.85878 17.8797 5.12049 17.8797C7.3822 17.8797 9.21828 19.702 9.24049 21.9585C9.24071 21.9812 9.22224 21.9999 9.19949 21.9999H1.04149C1.01873 21.9999 1.00027 21.9812 1.00049 21.9585ZM20.7323 14.0153C20.7323 15.0393 19.9022 15.8694 18.8783 15.8694C17.8543 15.8694 17.0242 15.0393 17.0242 14.0153C17.0242 12.9913 17.8543 12.1612 18.8783 12.1612C19.9022 12.1612 20.7323 12.9913 20.7323 14.0153ZM14.76 21.9586C14.7822 19.7021 16.6183 17.8798 18.88 17.8798C21.1417 17.8798 22.9778 19.7021 23 21.9586C23.0002 21.9814 22.9818 22 22.959 22H14.801C14.7783 22 14.7598 21.9814 14.76 21.9586ZM7.00013 6.64316C7.00013 4.09876 9.06277 2 11.6072 2C14.1516 2 16.2142 4.09876 16.2142 6.64316C16.2142 7.61635 15.9125 8.52435 15.3974 9.27465C15.3797 9.30043 15.3747 9.3329 15.3842 9.36269L15.9056 10.9949C16.1 11.6036 15.452 12.14 14.8908 11.8348L13.3312 10.9867C13.3051 10.9725 13.2741 10.9707 13.2463 10.9815C12.7371 11.1783 12.1845 11.2863 11.6072 11.2863C9.06277 11.2863 7.00013 9.18756 7.00013 6.64316Z" stroke="black" stroke-width="1.5" stroke-linecap="round"/>
</svg>
