<svg width="24" height="24" viewBox="0 0 24 24" fill="none" xmlns="http://www.w3.org/2000/svg">
<path d="M17.5 6.5V5C17.5 3.34315 16.1569 2 14.5 2H9.5C7.84315 2 6.5 3.34315 6.5 5V6.5M23 8.00006L20.2913 12.5145C20.1106 12.8157 19.7851 13 19.4338 13L14 13M1 8.00012L3.7087 12.5146C3.88942 12.8158 4.21493 13.0001 4.56619 13.0001L10 13M2 22H22C22.5523 22 23 21.5523 23 21V7.5C23 6.94772 22.5523 6.5 22 6.5H2C1.44772 6.5 1 6.94772 1 7.5V21C1 21.5523 1.44772 22 2 22ZM11 15H13C13.5523 15 14 14.5523 14 14V12C14 11.4477 13.5523 11 13 11H11C10.4477 11 10 11.4477 10 12V14C10 14.5523 10.4477 15 11 15Z" stroke="black" stroke-width="1.5"/>
</svg>
