<svg width="24" height="24" viewBox="0 0 24 24" fill="none" xmlns="http://www.w3.org/2000/svg">
<path d="M1.5688 10.8844L2.10256 11.4113L1.5688 10.8844ZM1.57777 13.6463L2.1081 13.116L2.1081 13.116L1.57777 13.6463ZM6.86448 5.51944L7.39824 6.04631L7.39824 6.04631L6.86448 5.51944ZM9.38139 5.24986L9.79146 4.6219L9.79146 4.6219L9.38139 5.24986ZM9.60078 5.39313L9.1907 6.02109L9.20795 6.03235L9.22578 6.04265L9.60078 5.39313ZM3.37301 14.1771L3.22933 13.4408L3.21685 13.4435L3.37301 14.1771ZM20.3049 19.3976L20.5856 20.093L20.5856 20.093L20.3049 19.3976ZM18.8648 19.9788L19.1455 20.6743L19.1455 20.6743L18.8648 19.9788ZM13.6427 19.6246L14.0147 18.9734L14.0147 18.9734L13.6427 19.6246ZM13.7277 18.8094C13.368 18.6039 12.9099 18.7289 12.7044 19.0885C12.4989 19.4482 12.6239 19.9063 12.9836 20.1118L13.7277 18.8094ZM20.093 11.4109L19.7222 12.0628L19.7222 12.0628L20.093 11.4109ZM2.13007 15.5828L1.59972 15.0525L1.59972 15.0525L2.13007 15.5828ZM15.0046 2.70766L14.4742 2.17734L14.4742 2.17734L15.0046 2.70766ZM1.85075 16.1265L1.11078 16.0042L1.11078 16.0042L1.85075 16.1265ZM1.26862 19.6497L2.00859 19.7719L2.00859 19.7719L1.26862 19.6497ZM1.38365 19.7646L1.50589 20.5045L1.50589 20.5045L1.38365 19.7646ZM4.90608 19.1827L4.78384 18.4427L4.78384 18.4427L4.90608 19.1827ZM16.4201 2.70766L15.8898 3.23797L16.4201 2.70766ZM18.3263 4.61389L18.8566 4.08357L18.8566 4.08357L18.3263 4.61389ZM6.72367 18.6906C7.01657 18.3977 7.01656 17.9228 6.72367 17.6299C6.43078 17.337 5.9559 17.337 5.66301 17.6299L6.72367 18.6906ZM5.45064 18.903L5.98097 19.4333L5.98097 19.4333L5.45064 18.903ZM18.3263 6.02674L18.8566 6.55705L18.8566 6.55705L18.3263 6.02674ZM3.81549 13.8933L3.28516 13.363L2.2245 14.4237L2.75483 14.954L3.81549 13.8933ZM5.49726 17.6964C5.79015 17.9893 6.26503 17.9893 6.55792 17.6964C6.85081 17.4035 6.85081 16.9287 6.55792 16.6358L5.49726 17.6964ZM14.0289 3.71487C13.736 3.42198 13.2612 3.42198 12.9683 3.71487C12.6754 4.00777 12.6754 4.48264 12.9683 4.77553L14.0289 3.71487ZM16.2729 8.08019L16.8032 8.61052L17.8639 7.54986L17.3336 7.01953L16.2729 8.08019ZM1.9515 18.1961C1.6586 17.9032 1.18373 17.9032 0.890837 18.1961C0.597943 18.489 0.597943 18.9639 0.890836 19.2567L1.9515 18.1961ZM1.77648 20.1424C2.06937 20.4353 2.54425 20.4353 2.83714 20.1424C3.13003 19.8495 3.13003 19.3746 2.83714 19.0817L1.77648 20.1424ZM7.68288 15.3216L7.71095 14.5722L7.71095 14.5722L7.68288 15.3216ZM12.2739 15.4936L12.3019 14.7441L12.3019 14.7441L12.2739 15.4936ZM13.2217 20.2098C13.6308 20.2746 14.015 19.9955 14.0799 19.5864C14.1447 19.1773 13.8656 18.7931 13.4565 18.7283L13.2217 20.2098ZM7.37039 18.5232L7.48778 17.7824L7.48777 17.7824L7.37039 18.5232ZM13.0713 15.2934L13.4453 15.9435L13.4453 15.9435L13.0713 15.2934ZM14.7107 15.2154C15.0698 15.0089 15.1934 14.5503 14.9868 14.1913C14.7802 13.8323 14.3217 13.7087 13.9627 13.9153L14.7107 15.2154ZM6.25381 16.0817L5.61669 15.686L5.61669 15.686L6.25381 16.0817ZM3.57525 14.1376L4.1056 14.6679L4.1056 14.6679L3.57525 14.1376ZM8.98327 15.3703L8.9552 16.1198L8.95521 16.1198L8.98327 15.3703ZM1.03503 10.3576C-0.0112903 11.4176 -0.00574591 13.1234 1.04744 14.1766L2.1081 13.116C1.63801 12.6459 1.63553 11.8845 2.10256 11.4113L1.03503 10.3576ZM6.33071 4.99257L1.03503 10.3576L2.10256 11.4113L7.39824 6.04631L6.33071 4.99257ZM9.79146 4.6219C8.69649 3.90685 7.24941 4.06185 6.33071 4.99257L7.39824 6.04631C7.81583 5.62326 8.4736 5.55281 8.97131 5.87783L9.79146 4.6219ZM10.0109 4.76517L9.79146 4.6219L8.97131 5.87783L9.1907 6.02109L10.0109 4.76517ZM22.251 12.5416V18.3903H23.751V12.5416H22.251ZM11.6914 5.73413L9.97578 4.74361L9.22578 6.04265L10.9414 7.03317L11.6914 5.73413ZM1.04744 14.1766C1.72199 14.8512 2.66374 15.0948 3.52916 14.9106L3.21685 13.4435C2.82732 13.5264 2.4084 13.4162 2.1081 13.116L1.04744 14.1766ZM20.0242 18.7021L18.5841 19.2833L19.1455 20.6743L20.5856 20.093L20.0242 18.7021ZM14.0147 18.9734L13.7277 18.8094L12.9836 20.1118L13.2706 20.2758L14.0147 18.9734ZM20.3423 20.1403H22.001V18.6403H20.3423V20.1403ZM20.5874 12.2916H22.001V10.7916H20.5874V12.2916ZM20.5874 10.7916C20.544 10.7916 20.5015 10.7804 20.4638 10.7589L19.7222 12.0628C19.9859 12.2128 20.284 12.2916 20.5874 12.2916V10.7916ZM18.5841 19.2833C17.0938 19.8848 15.4101 19.7706 14.0147 18.9734L13.2706 20.2758C15.0647 21.3008 17.2294 21.4476 19.1455 20.6743L18.5841 19.2833ZM20.5856 20.093C20.5083 20.1242 20.4257 20.1403 20.3423 20.1403V18.6403C20.2333 18.6403 20.1253 18.6613 20.0242 18.7021L20.5856 20.093ZM22.251 18.3903C22.251 18.5284 22.139 18.6403 22.001 18.6403V20.1403C22.9675 20.1403 23.751 19.3568 23.751 18.3903H22.251ZM23.751 12.5416C23.751 11.5751 22.9675 10.7916 22.001 10.7916V12.2916C22.139 12.2916 22.251 12.4035 22.251 12.5416H23.751ZM1.11078 16.0042L0.528653 19.5274L2.00859 19.7719L2.59071 16.2487L1.11078 16.0042ZM1.50589 20.5045L5.02832 19.9226L4.78384 18.4427L1.26141 19.0246L1.50589 20.5045ZM15.8898 3.23797L17.7959 5.1442L18.8566 4.08357L16.9505 2.17734L15.8898 3.23797ZM5.66301 17.6299L4.9203 18.3727L5.98097 19.4333L6.72367 18.6906L5.66301 17.6299ZM0.528654 19.5274C0.433569 20.1029 0.932488 20.5993 1.50589 20.5045L1.26142 19.0246C1.6996 18.9522 2.08135 19.3316 2.00859 19.7719L0.528654 19.5274ZM1.59972 15.0525C1.34137 15.3109 1.17035 15.6437 1.11078 16.0042L2.59071 16.2487C2.59918 16.1975 2.62351 16.1501 2.66041 16.1132L1.59972 15.0525ZM5.02832 19.9226C5.38915 19.863 5.72232 19.692 5.98097 19.4333L4.92031 18.3727C4.88335 18.4096 4.83564 18.4341 4.78384 18.4427L5.02832 19.9226ZM17.7959 5.1442C17.8933 5.24157 17.8933 5.39906 17.7959 5.49643L18.8566 6.55705C19.5397 5.8739 19.5397 4.76672 18.8566 4.08357L17.7959 5.1442ZM15.5349 3.23797C15.6328 3.14008 15.7919 3.14008 15.8898 3.23797L16.9505 2.17734C16.2668 1.49362 15.1579 1.49362 14.4742 2.17734L15.5349 3.23797ZM2.75483 14.954L5.49726 17.6964L6.55792 16.6358L3.81549 13.8933L2.75483 14.954ZM12.9683 4.77553L16.2729 8.08019L17.3336 7.01953L14.0289 3.71487L12.9683 4.77553ZM0.890836 19.2567L1.77648 20.1424L2.83714 19.0817L1.9515 18.1961L0.890836 19.2567ZM13.4565 18.7283L7.48778 17.7824L7.253 19.2639L13.2217 20.2098L13.4565 18.7283ZM13.4453 15.9435L14.7107 15.2154L13.9627 13.9153L12.6973 14.6433L13.4453 15.9435ZM12.2458 16.243C12.6666 16.2588 13.0807 16.1532 13.4453 15.9435L12.6973 14.6433C12.5702 14.7164 12.4339 14.749 12.3019 14.7441L12.2458 16.243ZM7.48777 17.7824C6.87938 17.686 6.56595 17.0006 6.89094 16.4774L5.61669 15.686C4.72569 17.1206 5.58501 18.9996 7.253 19.2639L7.48777 17.7824ZM7.71095 14.5722C6.8635 14.5404 6.06411 14.9656 5.61669 15.686L6.89094 16.4774C7.05413 16.2146 7.34571 16.0595 7.65481 16.0711L7.71095 14.5722ZM17.7959 5.49643L15.0043 8.28819L16.065 9.34881L18.8566 6.55705L17.7959 5.49643ZM20.4638 10.7589L15.9055 8.16656L15.1639 9.47044L19.7222 12.0628L20.4638 10.7589ZM2.66041 16.1132L4.1056 14.6679L3.04491 13.6073L1.59972 15.0525L2.66041 16.1132ZM4.1056 14.6679L15.5349 3.23797L14.4742 2.17734L3.04491 13.6073L4.1056 14.6679ZM3.51666 14.9132L3.71891 14.8737L3.4316 13.4015L3.22935 13.4409L3.51666 14.9132ZM7.65481 16.0711L8.9552 16.1198L9.01134 14.6209L7.71095 14.5722L7.65481 16.0711ZM8.95521 16.1198L12.2458 16.243L12.3019 14.7441L9.01134 14.6209L8.95521 16.1198ZM15.0043 8.28819L8.45293 14.84L9.51362 15.9006L16.065 9.34881L15.0043 8.28819Z" fill="black"/>
</svg>
