<svg width="24" height="24" viewBox="0 0 24 24" fill="none" xmlns="http://www.w3.org/2000/svg">
<g clip-path="url(#clip0_1607_9161)">
<path d="M7.28609 16.7894L7.2861 12.0001H7.27653C7.10252 12.0001 6.93152 12.0455 6.78044 12.1318L5.55193 12.8337L5.5489 12.8356L3.50306 14.0167C3.47004 14.0358 3.42783 14.0245 3.40876 13.9915L1.16871 10.112C0.823437 9.51405 1.0283 8.7494 1.62629 8.40415C2.22423 8.05893 2.98881 8.26378 3.33406 8.86171L4.18791 10.3405L6.79061 8.95433C6.93531 8.87727 7.09674 8.83696 7.26068 8.83696L8.26354 8.83697L8.2861 8.83672H15.7216L15.7427 8.83694L16.7605 8.83693C16.9244 8.83693 17.0858 8.87724 17.2305 8.9543L19.8325 10.34L20.6668 8.89504C21.0121 8.29711 21.7767 8.09226 22.3746 8.43749C22.9726 8.78273 23.1775 9.54739 22.8322 10.1454L20.6111 13.992C20.5921 14.0248 20.5502 14.0361 20.5174 14.0171L18.4707 12.8355C18.4677 12.8337 18.4648 12.8318 18.4621 12.8296L17.2407 12.1318C17.0896 12.0454 16.9186 12 16.7446 12H16.7275L16.7361 15.1253L16.7361 16.7895M12.0003 18.0583L6.09899 16.4772C5.20493 16.2376 4.28596 16.7682 4.0464 17.6623C3.80683 18.5563 4.33743 19.4753 5.23152 19.7149L5.52437 19.7934M12.0003 18.0583L17.9017 16.4772C18.7958 16.2376 19.7147 16.7682 19.9543 17.6623C20.1939 18.5563 19.6633 19.4753 18.7692 19.7149L18.4763 19.7934M12.0003 18.0583L18.4763 19.7934M5.52437 19.7934L3.80243 20.2547C3.69784 20.2827 3.63576 20.3902 3.66379 20.4948L4.42985 23.3538C4.45787 23.4584 4.56537 23.5204 4.66996 23.4924L12.0003 21.5284M5.52437 19.7934L12.0003 21.5284M12.0003 21.5284L19.3307 23.4924C19.4353 23.5204 19.5428 23.4584 19.5708 23.3538L20.3369 20.4948C20.3649 20.3902 20.3029 20.2827 20.1983 20.2547L18.4763 19.7934M14.6233 4.12023C14.6233 5.56734 13.4502 6.74046 12.003 6.74046C10.5559 6.74046 9.38281 5.56734 9.38281 4.12023C9.38281 2.67312 10.5559 1.5 12.003 1.5C13.4502 1.5 14.6233 2.67312 14.6233 4.12023Z" stroke="black" stroke-width="1.5" stroke-linecap="round" stroke-linejoin="round"/>
</g>
<defs>
<clipPath id="clip0_1607_9161">
<rect width="24" height="24" fill="white"/>
</clipPath>
</defs>
</svg>
