<svg width="24" height="24" viewBox="0 0 24 24" fill="none" xmlns="http://www.w3.org/2000/svg">
<path fill-rule="evenodd" clip-rule="evenodd" d="M3.85523 10.819L3.99999 11L4.27887 11.3718C4.09028 11.9539 3.99999 12.5843 3.99999 13.2191C3.99999 15.9313 5.58059 18.2742 7.87089 19.3771C9.06739 19.9533 10.1075 21.0203 10.1075 22.3483C10.1075 22.7066 10.3979 22.997 10.7562 22.997H13.2534C13.6087 22.997 13.8967 22.709 13.8967 22.3536C13.8967 21.0287 14.9402 19.9667 16.1367 19.3976C18.421 18.3113 20 15.9823 20 13.2846C20 12.4694 19.85 11.6627 19.5369 10.9539L19.6447 10.819C21.8987 8.00166 21.8987 3.99833 19.6447 1.18095C19.5532 1.06658 19.4147 1 19.2683 1H16.8586C16.5405 1 16.3804 1.38392 16.6043 1.60986C18.5536 3.57691 18.7896 6.61247 17.2887 8.83812C16.9398 8.74597 16.214 8.56667 15.5209 8.39547C14.7197 8.19753 13.962 8.01036 13.8816 7.98129C13.2794 7.91001 12.6323 7.86914 11.9398 7.86914C11.3253 7.86914 10.748 7.90133 10.2073 7.9584C10.1472 7.98128 9.30941 8.18565 8.43772 8.39829C7.48429 8.63086 6.49032 8.87333 6.42913 8.899C6.38366 8.91808 6.33886 8.93795 6.29475 8.95859C4.70234 6.7231 4.91093 3.61264 6.89563 1.60986C7.11953 1.38392 6.95949 1 6.64139 1H4.23171C4.08525 1 3.94672 1.06658 3.85523 1.18095C1.60132 3.99833 1.60132 8.00166 3.85523 10.819ZM12.8473 17.68H11.1929C8.91248 17.68 7.05729 15.9433 7.00129 13.7807C6.99985 13.7253 7.04499 13.6802 7.10037 13.6804L16.9004 13.7179C16.9554 13.7181 17.0001 13.7631 16.9987 13.8182C16.9431 15.96 15.1057 17.68 12.8473 17.68Z" fill="black"/>
</svg>
