<svg width="24" height="24" viewBox="0 0 24 24" fill="none" xmlns="http://www.w3.org/2000/svg">
<path fill-rule="evenodd" clip-rule="evenodd" d="M4.57771 12.4905L9.04724 3.55141L8.16311 1.63635C7.7714 0.787885 6.50134 0.787885 6.10963 1.63635L2.43584 9.59392C1.48454 11.6545 2.16535 13.874 3.75242 15.2006C3.86477 14.2928 4.13345 13.379 4.57771 12.4905ZM5.91935 13.1613C5.45908 14.0818 5.22886 15.0355 5.19677 15.9705C5.07126 19.6271 7.97542 23 12 23C17.0538 23 20.3408 17.6815 18.0807 13.1613L12.8944 2.78884C12.5259 2.05179 11.4741 2.05179 11.1056 2.78884L5.91935 13.1613ZM19.4223 12.4905L14.9528 3.55141L15.8369 1.63635C16.2286 0.787885 17.4987 0.787885 17.8904 1.63635L21.5642 9.59392C22.5155 11.6545 21.8347 13.874 20.2476 15.2006C20.1352 14.2928 19.8666 13.379 19.4223 12.4905ZM12.3333 12C12.8856 12 13.3333 12.4477 13.3333 13V14.5667C13.3333 14.6219 13.3781 14.6667 13.4333 14.6667H15C15.5523 14.6667 16 15.1144 16 15.6667V16.3333C16 16.8856 15.5523 17.3333 15 17.3333H13.4333C13.3781 17.3333 13.3333 17.3781 13.3333 17.4333V19C13.3333 19.5523 12.8856 20 12.3333 20H11.6667C11.1144 20 10.6667 19.5523 10.6667 19V17.4333C10.6667 17.3781 10.6219 17.3333 10.5667 17.3333H9C8.44772 17.3333 8 16.8856 8 16.3333V15.6667C8 15.1144 8.44772 14.6667 9 14.6667H10.5667C10.6219 14.6667 10.6667 14.6219 10.6667 14.5667V13C10.6667 12.4477 11.1144 12 11.6667 12H12.3333Z" fill="black"/>
</svg>
