<svg width="24" height="24" viewBox="0 0 24 24" fill="none" xmlns="http://www.w3.org/2000/svg">
<path d="M14.8166 4.22913C14.872 4.62168 14.8 5.0399 14.5196 5.32022L5.12875 14.7111C4.88628 14.9536 4.53734 15.0496 4.19839 14.9976C3.3466 14.8671 2.3721 14.8772 1.8294 15.4199C0.723534 16.5257 0.723533 18.3187 1.8294 19.4246C2.0541 19.6493 2.30716 19.8283 2.57706 19.9617C3.07918 20.2098 3.46789 20.7053 3.56575 21.2568C3.63039 21.6211 3.77009 21.9375 4.00366 22.1711C4.55508 22.7225 5.27745 22.9988 6.00018 23C6.726 23.0012 7.45219 22.7249 8.00598 22.1711C8.66049 21.5166 8.53979 20.2336 8.3325 19.2961C8.25388 18.9405 8.34645 18.5645 8.60397 18.307L18.3649 8.54607C18.7353 8.17561 19.3197 8.17178 19.7745 8.43186C20.1486 8.64578 20.5349 8.77826 20.9178 8.77826C22.0678 8.77826 23 7.81315 23 6.62263C23 5.60368 22.3171 4.74984 21.3992 4.52491L21.0956 4.79129L20.8895 4.98332C20.7037 5.15633 20.5943 5.39604 20.5853 5.64972C20.5706 6.06367 20.2231 6.38733 19.8091 6.37262C19.3952 6.35792 19.0715 6.01043 19.0862 5.59647C19.1094 4.94522 19.3903 4.32983 19.8671 3.88568L20.0896 3.67846L20.4179 3.39045C20.3282 2.819 20.0632 2.26973 19.6229 1.8294C18.517 0.723533 16.724 0.723533 15.6182 1.8294C14.9639 2.48367 14.6967 3.37844 14.8166 4.22913Z" fill="black"/>
</svg>
