<svg width="24" height="24" viewBox="0 0 24 24" fill="none" xmlns="http://www.w3.org/2000/svg">
<path d="M20.2756 5.32354C20.0969 5.99038 19.4115 6.3861 18.7447 6.20743C18.3446 6.10022 17.9333 6.33766 17.8261 6.73776C17.7189 7.13786 17.9564 7.54911 18.3565 7.65632C19.6635 8.00653 21.003 7.35369 21.5576 6.16965C21.8404 6.71813 22 7.34042 22 8C22 8.51204 21.9038 9.00161 21.7285 9.45162C21.7113 9.49557 21.7262 9.54563 21.7643 9.5734C22.5133 10.1189 23 11.0026 23 12C23 12.9974 22.5133 13.8811 21.7643 14.4266C21.7262 14.4544 21.7113 14.5044 21.7285 14.5484C21.9038 14.9984 22 15.488 22 16C22 17.0214 21.6172 17.9534 20.9871 18.6603L20.9493 18.5131C20.5562 17.0461 19.0482 16.1755 17.5812 16.5686C17.1811 16.6758 16.9437 17.087 17.0509 17.4871C17.1581 17.8872 17.5693 18.1247 17.9694 18.0175C18.6352 17.8391 19.3195 18.2332 19.4995 18.8981L19.6871 19.6278C19.203 19.8534 18.6662 19.9848 18.1003 19.9988C18.0451 20.0001 18.0002 20.045 17.9984 20.1002C17.9455 21.7107 16.6233 23 15 23C14.104 23 13.2997 22.6072 12.75 21.9844V15.8515C13.2659 15.8676 13.7935 15.7763 14.3 15.5648C14.6099 15.4353 14.8932 15.2688 15.1467 15.0725C16.1042 15.5555 17.1849 15.5853 18.1272 15.2329C18.5157 15.0876 18.713 14.6558 18.5679 14.2684C18.4228 13.881 17.9902 13.6848 17.6018 13.8301C17.1445 14.0011 16.6358 14.0213 16.1559 13.8697C16.6541 12.9246 16.7423 11.7735 16.2976 10.7109C16.1377 10.3288 15.6982 10.1485 15.316 10.3082C14.9338 10.4678 14.7536 10.907 14.9135 11.2891C15.3838 12.4127 14.8523 13.7085 13.7208 14.1811C13.4025 14.3141 13.0718 14.3675 12.75 14.3508V2.01563C13.2997 1.39282 14.104 1 15 1C16.6233 1 17.9455 2.28934 17.9984 3.89981C18.0002 3.95501 18.0451 3.99987 18.1003 4.00123C18.9728 4.0227 19.776 4.32357 20.4238 4.81776L20.2779 5.31497L20.2756 5.32354Z" fill="black"/>
<path d="M3.72589 5.3293C3.90688 5.99277 4.59034 6.3858 5.25532 6.20762C5.65542 6.10042 6.06667 6.33785 6.17387 6.73795C6.28108 7.13805 6.04364 7.54931 5.64354 7.65651C4.33648 8.00674 2.99696 7.35384 2.44235 6.16974C2.15963 6.71819 2 7.34045 2 8C2 8.51204 2.09622 9.00161 2.27155 9.45162C2.28867 9.49557 2.27379 9.54563 2.23566 9.5734C1.48675 10.1189 1 11.0026 1 12C1 12.9974 1.48675 13.8811 2.23566 14.4266C2.27379 14.4544 2.28867 14.5044 2.27155 14.5484C2.09622 14.9984 2 15.488 2 16C2 17.0234 2.38436 17.9571 3.0166 18.6645L3.04652 18.5292L3.05082 18.5131C3.44391 17.0461 4.95183 16.1755 6.41887 16.5686C6.81897 16.6758 7.0564 17.087 6.9492 17.4871C6.84199 17.8872 6.43074 18.1247 6.03064 18.0175C5.36854 17.8401 4.68812 18.2289 4.50359 18.8872L4.33736 19.6392C4.81508 19.8578 5.3433 19.9851 5.89971 19.9988C5.95492 20.0001 5.99983 20.045 6.00164 20.1002C6.05449 21.7107 7.37667 23 9 23C9.89602 23 10.7003 22.6072 11.25 21.9844V12.8877C10.595 12.9888 9.90413 12.9165 9.24869 12.6427C8.9388 12.5133 8.6556 12.3468 8.40215 12.1505C7.44456 12.6336 6.36385 12.6635 5.42144 12.311C5.03295 12.1657 4.83564 11.7339 4.98075 11.3466C5.12585 10.9592 5.55841 10.7629 5.9469 10.9082C6.40418 11.0792 6.91292 11.0994 7.39286 10.9478C6.89453 10.0027 6.8063 8.85144 7.25104 7.78883C7.41096 7.40673 7.85045 7.2264 8.23266 7.38604C8.61487 7.54569 8.79507 7.98485 8.63515 8.36695C8.16486 9.49062 8.6964 10.7864 9.82781 11.259C10.2977 11.4553 10.7944 11.4783 11.25 11.358V2.01563C10.7003 1.39282 9.89602 1 9 1C7.37667 1 6.05449 2.28934 6.00164 3.89981C5.99983 3.95501 5.95492 3.99987 5.89971 4.00123C5.03552 4.0225 4.23933 4.31785 3.59477 4.80364L3.72589 5.3293Z" fill="black"/>
</svg>
