<svg width="24" height="24" viewBox="0 0 24 24" fill="none" xmlns="http://www.w3.org/2000/svg">
<path d="M7.52779 12H2C1.44772 12 1 12.4477 1 13V22C1 22.5523 1.44772 23 2 23H22C22.5523 23 23 22.5523 23 22V13C23 12.4477 22.5523 12 22 12H16.4722C17.4223 13.0615 18 14.4633 18 16C18 19.3137 15.3137 22 12 22C8.68629 22 6 19.3137 6 16C6 14.4633 6.57771 13.0615 7.52779 12Z" fill="black"/>
<path d="M9.97464 13.7869C9.78537 9.19962 8.58441 2.53407 8 1C8 1 13.2822 7.44946 13.9343 13.7067C14.586 14.2571 15 15.0802 15 16C15 17.6569 13.6569 19 12 19C10.3431 19 9 17.6569 9 16C9 15.1238 9.37563 14.3353 9.97464 13.7869Z" fill="black"/>
</svg>
