<svg width="24" height="24" viewBox="0 0 24 24" fill="none" xmlns="http://www.w3.org/2000/svg">
<path d="M3.87743 13.0257C4.0682 12.6731 4.50077 12.5347 4.85873 12.705L6.48842 13.6363C6.77986 13.8028 7.03652 14.014 7.25175 14.2586C7.26903 14.2792 7.28605 14.3001 7.3028 14.3211L7.30296 14.3183C7.74637 14.8496 8 15.5271 8 16.241L8.00125 18.0019C8.00164 18.5542 8.44971 19.0016 9.00203 19.0012L9.50008 19.0008C10.0523 19.0003 10.4997 18.5523 10.4993 18.0001L10.498 16.2058C10.498 13.9334 9.2143 11.856 7.18192 10.8395L5.89479 10.1958C5.63226 9.97287 5.55029 9.59009 5.71822 9.27324C5.9122 8.90725 6.36613 8.76781 6.73212 8.96178L8.2853 9.78496C8.66461 9.98599 9.0195 10.2202 9.34718 10.4829C9.6499 10.2514 9.91491 9.94559 10.1166 9.57351C10.8397 8.2399 10.4762 6.55997 9.30464 5.82128L9.2824 5.80743L9.27358 5.80173C8.80016 5.49608 5.06915 3.08729 2.15754 8.45623C-1.10006 14.4632 3.5526 16.4759 3.5526 16.4759L3.5533 16.4746C4.50327 17.0613 5.68724 16.8516 6.48361 16.0407C6.3916 15.5204 6.06729 15.0629 5.59292 14.8063L4.18029 14.0422C3.81596 13.8452 3.68036 13.3901 3.87743 13.0257Z" fill="black"/>
<path d="M16 16.241V17.9992C16 18.5518 15.5518 18.9997 14.9992 18.9992L14.5012 18.9988C13.9492 18.9984 13.502 18.5508 13.502 17.9988V16.2058C13.502 13.9334 14.7857 11.856 16.8181 10.8395L18.1052 10.1958C18.3677 9.97286 18.4497 9.59009 18.2818 9.27324C18.0878 8.90725 17.6339 8.76781 17.2679 8.96178L15.7147 9.78496C15.3354 9.98599 14.9805 10.2202 14.6528 10.4829C14.3501 10.2514 14.0851 9.94559 13.8834 9.57351C13.1603 8.2399 13.5238 6.55997 14.6954 5.82128L14.7176 5.80743L14.7264 5.80173C15.1998 5.49608 18.9308 3.08729 21.8425 8.45623C25.1001 14.4632 20.4474 16.4759 20.4474 16.4759L20.4467 16.4746C19.4967 17.0613 18.3128 16.8516 17.5164 16.0407C17.6084 15.5204 17.9327 15.0629 18.4071 14.8063L19.8197 14.0422C20.184 13.8452 20.3196 13.3901 20.1226 13.0257C19.9255 12.6614 19.4704 12.5258 19.1061 12.7229L18.8546 12.8589C18.82 12.8852 18.7833 12.9096 18.7447 12.9316L17.5116 13.6363C17.2202 13.8028 16.9636 14.014 16.7484 14.2584C16.731 14.2791 16.714 14.3 16.6972 14.3211L16.697 14.3183C16.2536 14.8496 16 15.5271 16 16.241Z" fill="black"/>
</svg>
