<svg width="24" height="24" viewBox="0 0 24 24" fill="none" xmlns="http://www.w3.org/2000/svg">
<path fill-rule="evenodd" clip-rule="evenodd" d="M1 18.9675C1 19.7011 1.59483 20.2957 2.3286 20.2957C2.88406 20.2957 3.39556 20.2735 3.81071 19.931C4.57875 20.9481 5.91425 22.0011 8.02967 22.0011C8.88764 22.0011 9.56056 21.7325 10.0433 21.1915C10.4887 20.6924 10.6969 20.0397 10.8361 19.442C10.9077 19.1347 10.9674 18.8101 11.0254 18.4946L11.0269 18.4862C11.0855 18.1678 11.1431 17.854 11.2136 17.5386C11.3404 16.9716 11.5022 16.4309 11.7544 15.9353C12.4491 15.6554 13.1063 15.296 13.7404 14.8969L13.7404 11.4233C13.7404 10.1449 12.7037 9.10815 11.4244 9.10815H9.77246C9.35825 9.10815 9.02246 8.77237 9.02246 8.35815C9.02246 7.94394 9.35825 7.60815 9.77246 7.60815H11.4244C13.5317 7.60815 15.2404 9.31606 15.2404 11.4233L15.2404 13.8666C18.3145 11.5906 21.0472 8.58582 22.4623 6.92058C23.7751 5.37573 22.5085 3 20.5534 3H8.1539C4.20291 3 1 6.20208 1 10.152V18.9675ZM9.94297 16.4622C9.35415 16.5731 8.73423 16.6344 8.08573 16.6344C6.45499 16.6344 5.59809 17.5964 4.78117 18.6952C5.29141 19.5297 6.27751 20.5011 8.02967 20.5011C8.54872 20.5011 8.78001 20.3543 8.92411 20.1928C9.10554 19.9895 9.24688 19.6526 9.37518 19.1017C9.43736 18.8348 9.4909 18.5455 9.55012 18.2234L9.55372 18.2038C9.61088 17.8928 9.67298 17.555 9.74977 17.2114C9.80419 16.9679 9.86696 16.7168 9.94297 16.4622Z" fill="black"/>
</svg>
