<svg width="24" height="24" viewBox="0 0 24 24" fill="none" xmlns="http://www.w3.org/2000/svg">
<path d="M11.2499 2C11.2499 1.58579 10.9141 1.25 10.4999 1.25C10.0857 1.25 9.74988 1.58579 9.74988 2V8.41529C9.74988 8.66808 9.65185 8.90549 9.48443 9.0827L9.44504 8.30027C9.40961 7.59648 9.14467 6.86335 8.48047 6.62797C7.3348 6.22196 5.47114 6.49544 3.29204 9.31461C1.26663 11.935 0.876278 16.0565 1.03002 19.1604C1.11847 20.9461 2.92913 21.9363 4.60612 21.3164L7.93312 20.0866C9.16298 19.632 9.95513 18.4313 9.88919 17.1218L9.75416 14.4398L11.8882 13.3728C11.9586 13.3376 12.0414 13.3376 12.1118 13.3728L14.2458 14.4398L14.1108 17.1218C14.0449 18.4313 14.837 19.632 16.0669 20.0866L19.3939 21.3164C21.0709 21.9363 22.8815 20.9461 22.97 19.1604C23.1237 16.0565 22.7334 11.935 20.708 9.31461C18.5289 6.49544 16.6652 6.22196 15.5195 6.62797C14.8553 6.86335 14.5904 7.59648 14.555 8.30027L14.5156 9.0827C14.3482 8.90549 14.2501 8.66808 14.2501 8.41529V2C14.2501 1.58579 13.9143 1.25 13.5001 1.25C13.0859 1.25 12.7501 1.58579 12.7501 2V8.41529C12.7501 9.37496 13.3056 10.2475 14.1741 10.6539L14.43 10.7819L14.3282 12.8039L12.7826 12.0311C12.29 11.7848 11.71 11.7848 11.2174 12.0311L9.67179 12.8039L9.56999 10.7819L9.82593 10.6539C10.6944 10.2475 11.2499 9.37496 11.2499 8.41529V2Z" fill="black"/>
</svg>
