<svg width="24" height="24" viewBox="0 0 24 24" fill="none" xmlns="http://www.w3.org/2000/svg">
<path fill-rule="evenodd" clip-rule="evenodd" d="M21.4591 3.78735C24.2063 7.13873 22.6805 13.5 21.4591 15.9577C20.2378 18.4154 17.1384 22.0726 9.98672 22.0726C7.33344 22.0726 5.43961 20.4257 4.78049 18.3391C4.25769 18.879 4.00018 19.6148 4.00018 20.4257V22.9002C4.00018 22.9554 3.9554 23.0002 3.90018 23.0002H1.10049C1.04526 23.0002 1.00049 22.9554 1.00049 22.9002V20.0001C1.00049 17.4816 2.58106 15.3256 4.78049 14.4358C5.25392 13.1412 6.77839 11.893 8.90826 11.6257C11.0496 11.357 11.1313 9.87656 11.2676 8.00003C7.80179 7.99985 4.68043 5.72221 4.68037 2.00009L4.68036 1.1C4.68036 1.04477 4.72513 1 4.78036 1H7.58049C7.63572 1 7.68049 1.04477 7.68049 1.1L7.6805 2.00004C7.68054 4.35606 9.75478 4.99997 11.6801 5.00003C12.8386 0.787242 18.9632 0.742527 21.4591 3.78735ZM9.90049 14.6595C9.07801 14.8242 8.24444 15.5558 8.24444 16.618C8.24444 18.6551 10.0553 19.6429 13.4805 18.4999C15.9625 17.6717 17.8856 15.3828 18.6493 12.4239C18.6655 12.3611 18.6178 12.3 18.553 12.3H13.5602C13.5225 12.3 13.4878 12.3217 13.4704 12.3552C12.7623 13.7198 11.6666 14.3059 9.90049 14.6595Z" fill="black"/>
</svg>
