<svg width="24" height="24" viewBox="0 0 24 24" fill="none" xmlns="http://www.w3.org/2000/svg">
<path fill-rule="evenodd" clip-rule="evenodd" d="M19.9937 6.00002C20.7184 6.725 19.9856 8.77991 19.2975 10.2835C19.7479 10.3117 20.2027 10.4266 20.6399 10.639C21.0225 10.8248 21.3548 11.0672 21.6334 11.3504C22.3693 9.83501 23.0545 7.72152 22.9921 6.00002C22.931 4.31146 22.1507 3.00001 19.9937 3C18.4623 2.99994 16.6378 4.17321 15.8675 4.72253C15.5032 4.47439 14.3305 3.82812 11.9963 3.82812C9.66167 3.82812 8.4889 4.47465 8.12488 4.72267C7.35473 4.17343 5.53005 2.99994 3.9985 3C-0.357722 3.00003 0.901149 8.34878 2.35887 11.3506C2.63746 11.0673 2.96985 10.8248 3.35251 10.639C3.78967 10.4267 4.2444 10.3117 4.6947 10.2835C4.00659 8.77992 3.27382 6.725 3.9985 6.00002C4.80536 5.19282 7.99722 8.00002 7.99722 8.00002L8.01656 7.8839C8.1159 9.22951 8.60427 10.5214 9.42752 11.5995C10.1044 12.486 10.3487 13.6292 10.0933 14.715L10.0342 14.9663C9.68451 16.4524 9.80108 18.0103 10.368 19.4278L10.9203 20.809C10.9664 20.9242 11.078 20.9998 11.2021 20.9998H12.7905C12.9146 20.9998 13.0262 20.9242 13.0723 20.8089L13.6245 19.4277C14.1912 18.0102 14.3078 16.4525 13.9583 14.9665L13.8991 14.7149C13.6438 13.6291 13.8881 12.486 14.565 11.5996C15.3879 10.522 15.8763 9.23068 15.9759 7.88568L15.995 8.00002C15.995 8.00002 19.1868 5.19282 19.9937 6.00002ZM11.7895 10.224L11.5843 9.9502C10.8785 9.00867 10.4969 7.86358 10.4968 6.68674C10.4968 6.56655 10.5942 6.46912 10.7144 6.46912H13.2784C13.3986 6.46912 13.4959 6.56652 13.4959 6.68668C13.4959 7.86355 13.1144 9.00867 12.4085 9.95016L12.2032 10.224C12.0997 10.3619 11.8929 10.3619 11.7895 10.224Z" fill="black"/>
<path d="M18.6161 11.8289C19.0577 11.7288 19.5375 11.7706 19.9855 11.9882C21.197 12.5765 21.5427 14.1414 20.6918 15.1856L20.1237 15.8829C19.5744 16.557 18.6338 16.765 17.8517 16.3851C17.0696 16.0053 16.6511 15.1374 16.8409 14.2887L17.0371 13.4108C17.2131 12.6236 17.8012 12.0581 18.5048 11.8574C18.5416 11.8469 18.5787 11.8374 18.6161 11.8289Z" fill="black"/>
<path d="M3.30199 15.1856C2.61292 14.3399 2.70869 13.1526 3.41359 12.4193C3.57904 12.2471 3.77708 12.1002 4.00738 11.9883C4.20013 11.8947 4.39874 11.8337 4.59765 11.8024C5.64921 11.6367 6.70946 12.305 6.95669 13.4107L7.15297 14.2886C7.34274 15.1374 6.92428 16.0053 6.14215 16.3851C5.36002 16.7649 4.41946 16.557 3.87016 15.8829L3.30199 15.1856Z" fill="black"/>
</svg>
