<svg width="24" height="24" viewBox="0 0 24 24" fill="none" xmlns="http://www.w3.org/2000/svg">
<path fill-rule="evenodd" clip-rule="evenodd" d="M4 1C3.44772 1 3 1.44772 3 2V22C3 22.5523 3.44772 23 4 23H20C20.5523 23 21 22.5523 21 22V2C21 1.44772 20.5523 1 20 1H4ZM6 4C5.44772 4 5 4.44772 5 5V6C5 6.55228 5.44772 7 6 7H18C18.5523 7 19 6.55228 19 6V5C19 4.44772 18.5523 4 18 4H6ZM5 12C5 11.4477 5.44772 11 6 11H7C7.55228 11 8 11.4477 8 12V13C8 13.5523 7.55228 14 7 14H6C5.44772 14 5 13.5523 5 13V12ZM6 17C5.44772 17 5 17.4477 5 18V19C5 19.5523 5.44772 20 6 20H7C7.55228 20 8 19.5523 8 19V18C8 17.4477 7.55228 17 7 17H6ZM10.5 12C10.5 11.4477 10.9477 11 11.5 11H12.5C13.0523 11 13.5 11.4477 13.5 12V13C13.5 13.5523 13.0523 14 12.5 14H11.5C10.9477 14 10.5 13.5523 10.5 13V12ZM11.5 17C10.9477 17 10.5 17.4477 10.5 18V19C10.5 19.5523 10.9477 20 11.5 20H12.5C13.0523 20 13.5 19.5523 13.5 19V18C13.5 17.4477 13.0523 17 12.5 17H11.5ZM16 18C16 17.4477 16.4477 17 17 17H18C18.5523 17 19 17.4477 19 18V19C19 19.5523 18.5523 20 18 20H17C16.4477 20 16 19.5523 16 19V18ZM17 11C16.4477 11 16 11.4477 16 12V13C16 13.5523 16.4477 14 17 14H18C18.5523 14 19 13.5523 19 13V12C19 11.4477 18.5523 11 18 11H17Z" fill="black"/>
</svg>
