<svg width="24" height="24" viewBox="0 0 24 24" fill="none" xmlns="http://www.w3.org/2000/svg">
<path fill-rule="evenodd" clip-rule="evenodd" d="M20.3331 2.57833C20.5271 1.79794 21.2287 1.25 22.034 1.25H23.0327C23.4475 1.25 23.7838 1.58579 23.7838 2C23.7838 2.41421 23.4475 2.75 23.0327 2.75H22.034C21.9189 2.75 21.8187 2.82828 21.791 2.93976L18.3381 16.8277C17.9939 18.2121 16.9236 19.2639 15.5932 19.6194C15.7085 19.8899 15.7723 20.1875 15.7723 20.5C15.7723 21.7426 14.7635 22.75 13.5191 22.75C12.2746 22.75 11.2658 21.7426 11.2658 20.5C11.2658 20.237 11.311 19.9846 11.394 19.75H6.13038C6.21342 19.9846 6.2586 20.237 6.2586 20.5C6.2586 21.7426 5.24979 22.75 4.00536 22.75C2.76092 22.75 1.75211 21.7426 1.75211 20.5C1.75211 19.2574 2.76092 18.25 4.00536 18.25H14.5961C15.5769 18.25 16.4433 17.6446 16.7903 16.75H5.57004C4.30964 16.75 3.19847 15.9244 2.8363 14.7189L0.320271 6.34425C0.156422 5.79887 0.565404 5.25 1.1356 5.25H19.6688L20.3331 2.57833ZM12.768 20.5C12.768 20.0858 13.1042 19.75 13.5191 19.75C13.9339 19.75 14.2701 20.0858 14.2701 20.5C14.2701 20.9142 13.9339 21.25 13.5191 21.25C13.1042 21.25 12.768 20.9142 12.768 20.5ZM3.25427 20.5C3.25427 20.0858 3.59054 19.75 4.00536 19.75C4.42017 19.75 4.75644 20.0858 4.75644 20.5C4.75644 20.9142 4.42017 21.25 4.00536 21.25C3.59054 21.25 3.25427 20.9142 3.25427 20.5ZM5.82604 8.27239C6.22847 8.17193 6.63626 8.41625 6.73686 8.8181L7.7383 12.8181C7.83891 13.2199 7.59424 13.6271 7.19181 13.7276C6.78939 13.8281 6.3816 13.5837 6.28099 13.1819L5.27955 9.1819C5.17894 8.78006 5.42362 8.37285 5.82604 8.27239ZM16.2048 8.27239C16.6072 8.37285 16.8519 8.78006 16.7513 9.1819L15.7498 13.1819C15.6492 13.5837 15.2414 13.8281 14.839 13.7276C14.4366 13.6271 14.1919 13.2199 14.2925 12.8181L15.294 8.8181C15.3946 8.41625 15.8024 8.17193 16.2048 8.27239ZM11.0154 8.25C11.4302 8.25 11.7665 8.58579 11.7665 9V13C11.7665 13.4142 11.4302 13.75 11.0154 13.75C10.6006 13.75 10.2643 13.4142 10.2643 13V9C10.2643 8.58579 10.6006 8.25 11.0154 8.25Z" fill="black"/>
</svg>
