<svg width="24" height="24" viewBox="0 0 24 24" fill="none" xmlns="http://www.w3.org/2000/svg">
<path fill-rule="evenodd" clip-rule="evenodd" d="M3 2.74975V21.2496C3 22.0736 3.94076 22.544 4.6 22.0496L5.4 21.4496C5.75556 21.1829 6.24444 21.1829 6.6 21.4496L8.4 22.7996C8.75556 23.0663 9.24444 23.0663 9.6 22.7996L11.4 21.4496C11.7556 21.1829 12.2444 21.1829 12.6 21.4496L14.4 22.7996C14.7556 23.0663 15.2444 23.0663 15.6 22.7996L17.4 21.4496C17.7556 21.1829 18.2444 21.1829 18.6 21.4496L19.4 22.0496C20.0592 22.544 21 22.0736 21 21.2496V2.74975C21 1.92571 20.0592 1.45532 19.4 1.94975L18.6 2.54975C18.2444 2.81641 17.7556 2.81641 17.4 2.54975L15.6 1.19975C15.2444 0.93309 14.7556 0.93309 14.4 1.19975L12.6 2.54975C12.2444 2.81641 11.7556 2.81641 11.4 2.54975L9.6 1.19975C9.24444 0.93309 8.75556 0.93309 8.4 1.19975L6.6 2.54975C6.24444 2.81641 5.75556 2.81641 5.4 2.54975L4.6 1.94975C3.94076 1.45532 3 1.92571 3 2.74975ZM8.625 7.87444C8.21079 7.87444 7.875 8.21023 7.875 8.62444C7.875 9.03866 8.21079 9.37444 8.625 9.37444H15.375C15.7892 9.37444 16.125 9.03866 16.125 8.62444C16.125 8.21023 15.7892 7.87444 15.375 7.87444H8.625ZM7.875 11.9996C7.875 11.5854 8.21079 11.2496 8.625 11.2496H15.375C15.7892 11.2496 16.125 11.5854 16.125 11.9996C16.125 12.4138 15.7892 12.7496 15.375 12.7496H8.625C8.21079 12.7496 7.875 12.4138 7.875 11.9996ZM8.625 14.6247C8.21079 14.6247 7.875 14.9605 7.875 15.3747C7.875 15.7889 8.21079 16.1247 8.625 16.1247H15.375C15.7892 16.1247 16.125 15.7889 16.125 15.3747C16.125 14.9605 15.7892 14.6247 15.375 14.6247H8.625Z" fill="black"/>
</svg>
