<svg width="24" height="24" viewBox="0 0 24 24" fill="none" xmlns="http://www.w3.org/2000/svg">
<path fill-rule="evenodd" clip-rule="evenodd" d="M10.5937 1.29905L22.701 13.4063C23.0997 13.8051 23.0997 14.4515 22.701 14.8502L14.8502 22.701C14.4515 23.0997 13.8051 23.0997 13.4063 22.701L13.154 22.4486C14.5987 21.0815 15.5 19.146 15.5 17C15.5 12.8579 12.1421 9.5 8 9.5C5.85399 9.5 3.9185 10.4013 2.55142 11.846L1.29905 10.5937C1.08479 10.3794 0.976764 10.081 1.0042 9.77928L1.65842 2.58279C1.70305 2.09195 2.09195 1.70305 2.58279 1.65842L9.77928 1.0042C10.081 0.976764 10.3794 1.08479 10.5937 1.29905ZM6.00003 8C7.1046 8 8.00003 7.10457 8.00003 6C8.00003 4.89543 7.1046 4 6.00003 4C4.89546 4 4.00003 4.89543 4.00003 6C4.00003 7.10457 4.89546 8 6.00003 8Z" fill="black"/>
<path d="M6.85611 15.3616C6.85611 15.2728 6.94307 15.038 7.25 14.8865V15.8918C7.15169 15.8419 7.07932 15.7909 7.0271 15.7439C6.90222 15.6314 6.85611 15.5118 6.85611 15.3616Z" fill="black"/>
<path d="M8.75 19.0762V17.826C8.8449 17.8655 8.92466 17.908 8.9905 17.9533C9.15232 18.0648 9.25 18.2002 9.25 18.5C9.25 18.6299 9.18237 18.7978 8.94597 18.9632C8.88753 19.0041 8.82184 19.0421 8.75 19.0762Z" fill="black"/>
<path fill-rule="evenodd" clip-rule="evenodd" d="M8 23C11.3137 23 14 20.3137 14 17C14 13.6863 11.3137 11 8 11C4.68629 11 2 13.6863 2 17C2 20.3137 4.68629 23 8 23ZM8.75 13V13.3598C9.79174 13.6506 10.5468 14.4882 10.5468 15.5C10.5468 15.9142 10.2111 16.25 9.79684 16.25C9.38262 16.25 9.04684 15.9142 9.04684 15.5C9.04684 15.3697 8.96006 15.1595 8.75 14.9947V16.253C9.14088 16.3519 9.5195 16.4963 9.84147 16.7181C10.4127 17.1115 10.75 17.7105 10.75 18.5C10.75 19.2441 10.3292 19.8262 9.80584 20.1923C9.49677 20.4085 9.13494 20.5647 8.75 20.6558V21C8.75 21.4142 8.41421 21.75 8 21.75C7.58579 21.75 7.25 21.4142 7.25 21V20.6942C6.85021 20.6258 6.46378 20.4896 6.13242 20.258C5.57534 19.8685 5.25 19.26 5.25 18.5C5.25 18.0858 5.58579 17.75 6 17.75C6.41421 17.75 6.75 18.0858 6.75 18.5C6.75 18.7888 6.85118 18.9302 6.99187 19.0286C7.05866 19.0753 7.1446 19.1182 7.25 19.1535V17.4843C6.75875 17.3525 6.34414 17.1474 6.02344 16.8586C5.56356 16.4446 5.35611 15.9106 5.35611 15.3616C5.35611 14.3159 6.18501 13.5539 7.25 13.323V13C7.25 12.5858 7.58579 12.25 8 12.25C8.41421 12.25 8.75 12.5858 8.75 13Z" fill="black"/>
</svg>
