<svg width="24" height="24" viewBox="0 0 24 24" fill="none" xmlns="http://www.w3.org/2000/svg">
<path fill-rule="evenodd" clip-rule="evenodd" d="M10.5937 1.29905C10.3794 1.08479 10.081 0.976764 9.77928 1.0042L2.58279 1.65842C2.09195 1.70305 1.70305 2.09195 1.65842 2.58279L1.0042 9.77928C0.976764 10.081 1.08479 10.3794 1.29905 10.5937L13.4063 22.701C13.8051 23.0997 14.4515 23.0997 14.8502 22.701L22.701 14.8502C23.0997 14.4515 23.0997 13.8051 22.701 13.4063L10.5937 1.29905ZM6.06591 8.10791C7.19367 8.10791 8.10791 7.19367 8.10791 6.06591C8.10791 4.93814 7.19367 4.0239 6.06591 4.0239C4.93814 4.0239 4.0239 4.93814 4.0239 6.06591C4.0239 7.19367 4.93814 8.10791 6.06591 8.10791Z" fill="black"/>
</svg>
