<svg width="24" height="24" viewBox="0 0 24 24" fill="none" xmlns="http://www.w3.org/2000/svg">
<g clip-path="url(#clip0_1607_7166)">
<path d="M6 3.5C6 4.88071 4.88071 6 3.5 6C2.11929 6 1 4.88071 1 3.5C1 2.11929 2.11929 1 3.5 1C4.88071 1 6 2.11929 6 3.5Z" stroke="black" stroke-width="1.5" stroke-linecap="round" stroke-linejoin="round"/>
<path d="M14.5 3.5C14.5 4.88071 13.3807 6 12 6C10.6193 6 9.5 4.88071 9.5 3.5C9.5 2.11929 10.6193 1 12 1C13.3807 1 14.5 2.11929 14.5 3.5Z" stroke="black" stroke-width="1.5" stroke-linecap="round" stroke-linejoin="round"/>
<path d="M23 3.5C23 4.88071 21.8807 6 20.5 6C19.1193 6 18 4.88071 18 3.5C18 2.11929 19.1193 1 20.5 1C21.8807 1 23 2.11929 23 3.5Z" stroke="black" stroke-width="1.5" stroke-linecap="round" stroke-linejoin="round"/>
<path d="M6 12C6 13.3807 4.88071 14.5 3.5 14.5C2.11929 14.5 1 13.3807 1 12C1 10.6193 2.11929 9.5 3.5 9.5C4.88071 9.5 6 10.6193 6 12Z" stroke="black" stroke-width="1.5" stroke-linecap="round" stroke-linejoin="round"/>
<path d="M14.5 12C14.5 13.3807 13.3807 14.5 12 14.5C10.6193 14.5 9.5 13.3807 9.5 12C9.5 10.6193 10.6193 9.5 12 9.5C13.3807 9.5 14.5 10.6193 14.5 12Z" stroke="black" stroke-width="1.5" stroke-linecap="round" stroke-linejoin="round"/>
<path d="M23 12C23 13.3807 21.8807 14.5 20.5 14.5C19.1193 14.5 18 13.3807 18 12C18 10.6193 19.1193 9.5 20.5 9.5C21.8807 9.5 23 10.6193 23 12Z" stroke="black" stroke-width="1.5" stroke-linecap="round" stroke-linejoin="round"/>
<path d="M6 20.5C6 21.8807 4.88071 23 3.5 23C2.11929 23 1 21.8807 1 20.5C1 19.1193 2.11929 18 3.5 18C4.88071 18 6 19.1193 6 20.5Z" stroke="black" stroke-width="1.5" stroke-linecap="round" stroke-linejoin="round"/>
<path d="M14.5 20.5C14.5 21.8807 13.3807 23 12 23C10.6193 23 9.5 21.8807 9.5 20.5C9.5 19.1193 10.6193 18 12 18C13.3807 18 14.5 19.1193 14.5 20.5Z" stroke="black" stroke-width="1.5" stroke-linecap="round" stroke-linejoin="round"/>
<path d="M23 20.5C23 21.8807 21.8807 23 20.5 23C19.1193 23 18 21.8807 18 20.5C18 19.1193 19.1193 18 20.5 18C21.8807 18 23 19.1193 23 20.5Z" stroke="black" stroke-width="1.5" stroke-linecap="round" stroke-linejoin="round"/>
</g>
<defs>
<clipPath id="clip0_1607_7166">
<rect width="24" height="24" fill="white"/>
</clipPath>
</defs>
</svg>
