<svg width="24" height="24" viewBox="0 0 24 24" fill="none" xmlns="http://www.w3.org/2000/svg">
<path d="M21 9H22C22.5523 9 23 9.44772 23 10V14C23 14.5523 22.5523 15 22 15H21M14.553 11.0963H11.9959C11.9694 11.0963 11.9487 11.0728 11.9516 11.0461L12.2305 8.50316C12.2792 8.05965 11.7312 7.82072 11.4466 8.16138L8.10641 12.16C7.86109 12.4537 8.06716 12.9037 8.44696 12.9037H11.0041C11.0306 12.9037 11.0513 12.9272 11.0484 12.9539L10.7695 15.4968C10.7208 15.9404 11.2688 16.1793 11.5534 15.8386L14.8936 11.84C15.1389 11.5463 14.9328 11.0963 14.553 11.0963ZM3 18H19C20.1046 18 21 17.1046 21 16V8C21 6.89543 20.1046 6 19 6H3C1.89543 6 1 6.89543 1 8V16C1 17.1046 1.89543 18 3 18Z" stroke="black" stroke-width="1.5"/>
</svg>
