<svg width="24" height="24" viewBox="0 0 24 24" fill="none" xmlns="http://www.w3.org/2000/svg">
<path d="M5.75 9C5.75 8.58579 5.41421 8.25 5 8.25C4.58579 8.25 4.25 8.58579 4.25 9H5.75ZM4.25 15C4.25 15.4142 4.58579 15.75 5 15.75C5.41421 15.75 5.75 15.4142 5.75 15H4.25ZM9.75 9C9.75 8.58579 9.41421 8.25 9 8.25C8.58579 8.25 8.25 8.58579 8.25 9H9.75ZM8.25 15C8.25 15.4142 8.58579 15.75 9 15.75C9.41421 15.75 9.75 15.4142 9.75 15H8.25ZM13.75 9C13.75 8.58579 13.4142 8.25 13 8.25C12.5858 8.25 12.25 8.58579 12.25 9H13.75ZM12.25 15C12.25 15.4142 12.5858 15.75 13 15.75C13.4142 15.75 13.75 15.4142 13.75 15H12.25ZM17.75 9C17.75 8.58579 17.4142 8.25 17 8.25C16.5858 8.25 16.25 8.58579 16.25 9H17.75ZM16.25 15C16.25 15.4142 16.5858 15.75 17 15.75C17.4142 15.75 17.75 15.4142 17.75 15H16.25ZM22.25 10V14H23.75V10H22.25ZM21 9.75H22V8.25H21V9.75ZM22 14.25H21V15.75H22V14.25ZM22.25 14C22.25 14.1381 22.1381 14.25 22 14.25V15.75C22.9665 15.75 23.75 14.9665 23.75 14H22.25ZM23.75 10C23.75 9.0335 22.9665 8.25 22 8.25V9.75C22.1381 9.75 22.25 9.86193 22.25 10H23.75ZM3 6.75H19V5.25H3V6.75ZM20.25 8V16H21.75V8H20.25ZM19 17.25H3V18.75H19V17.25ZM1.75 16V8H0.25V16H1.75ZM3 17.25C2.30964 17.25 1.75 16.6904 1.75 16H0.25C0.25 17.5188 1.48122 18.75 3 18.75V17.25ZM20.25 16C20.25 16.6904 19.6904 17.25 19 17.25V18.75C20.5188 18.75 21.75 17.5188 21.75 16H20.25ZM19 6.75C19.6904 6.75 20.25 7.30964 20.25 8H21.75C21.75 6.48122 20.5188 5.25 19 5.25V6.75ZM3 5.25C1.48122 5.25 0.25 6.48122 0.25 8H1.75C1.75 7.30964 2.30964 6.75 3 6.75V5.25ZM4.25 9V15H5.75V9H4.25ZM8.25 9V15H9.75V9H8.25ZM12.25 9V15H13.75V9H12.25ZM16.25 9V15H17.75V9H16.25Z" fill="black"/>
</svg>
