<svg width="24" height="24" viewBox="0 0 24 24" fill="none" xmlns="http://www.w3.org/2000/svg">
<path d="M8.68004 4.67341V3.75968C8.68004 2.23555 9.91559 1 11.4397 1L11.9204 1C13.4445 1 14.68 2.23555 14.68 3.75968V4.67341M8.68004 19.9998C8.68004 21.6566 10.0232 22.9998 11.68 22.9998C13.3369 22.9998 14.68 21.6566 14.68 19.9998M4.68004 10.9998C4.68004 7.13379 7.81404 3.99978 11.68 3.99978C15.546 3.99978 18.68 7.13379 18.68 10.9998V13.5912C18.68 14.0808 18.7999 14.5629 19.029 14.9955L20.1246 17.0635C20.8302 18.3956 19.8646 19.9998 18.3572 19.9998H5.00274C3.49538 19.9998 2.5298 18.3956 3.23539 17.0636L4.33106 14.9952C4.56023 14.5626 4.68004 14.0804 4.68004 13.5909V10.9998Z" stroke="black" stroke-width="1.5" stroke-linecap="round"/>
</svg>
