<svg width="24" height="24" viewBox="0 0 24 24" fill="none" xmlns="http://www.w3.org/2000/svg">
<g clip-path="url(#clip0_1607_7210)">
<path d="M15.5138 11.1855V10.0866C15.5138 6.5744 12.6666 3.72722 9.15445 3.72722C5.64227 3.72722 2.79508 6.57441 2.79508 10.0866V12.7747C2.79508 12.9142 2.73298 13.0442 2.65633 13.1608L1.33235 15.1738C0.457672 16.5037 1.41157 18.2728 3.00332 18.2728L11.1353 18.2727M7 4.10144V3C7 1.89543 7.89543 1 9 1C10.1046 1 11 1.89543 11 3V4M6.43325 18.2727V18.3819C6.43325 19.8278 7.60541 21 9.05135 21C10.0973 21 11 20.3866 11.4194 19.5L11.477 19.3484M17 15V16.4925C17 16.5724 17.0252 16.6502 17.0719 16.715L18 18M11.477 19.3484C12.3909 21.495 14.5197 23 17 23C20.3137 23 23 20.3137 23 17C23 13.6863 20.3137 11 17 11C13.6863 11 11 13.6863 11 17C11 17.8334 11.1699 18.6271 11.477 19.3484Z" stroke="black" stroke-width="1.5" stroke-linecap="round"/>
</g>
<defs>
<clipPath id="clip0_1607_7210">
<rect width="24" height="24" fill="white"/>
</clipPath>
</defs>
</svg>
