<svg width="24" height="24" viewBox="0 0 24 24" fill="none" xmlns="http://www.w3.org/2000/svg">
<g clip-path="url(#clip0_1607_7234)">
<path d="M12 3.99998L12 1M12 23L12 20M20 12L23 12M1 12L4 12M17.6569 6.34324L19.7782 4.22192M4.22185 19.7783L6.34317 17.6569M17.6569 17.6568L19.7782 19.7781M4.22184 4.22175L6.34316 6.34306M17 12C17 14.7614 14.7614 17 12 17C9.23856 17 6.99998 14.7614 6.99998 12C6.99998 9.23858 9.23856 7 12 7C14.7614 7 17 9.23858 17 12Z" stroke="black" stroke-width="1.5" stroke-linecap="round" stroke-linejoin="round"/>
</g>
<defs>
<clipPath id="clip0_1607_7234">
<rect width="24" height="24" fill="white"/>
</clipPath>
</defs>
</svg>
