<svg width="24" height="24" viewBox="0 0 24 24" fill="none" xmlns="http://www.w3.org/2000/svg">
<g clip-path="url(#clip0_1607_7258)">
<path d="M5.5 1V5.5M18.5 1V5.5M1 10H23M2.00193 23H21.998C22.5514 23 23 22.5514 23 21.9981V3.5C23 2.94665 22.5514 2.5 21.998 2.5H2.00193C1.44858 2.5 1 2.94665 1 3.5V21.9981C1 22.5514 1.44858 23 2.00193 23ZM9.00738 19.9989L10.8094 19.8788C10.9244 19.8711 11.0327 19.822 11.1141 19.7405L15.3607 15.494C15.5464 15.3082 15.5464 15.007 15.3607 14.8212L13.6788 13.1393C13.493 12.9536 13.1918 12.9536 13.006 13.1393L8.75949 17.3859C8.67801 17.4673 8.62888 17.5756 8.62121 17.6906L8.50108 19.4926C8.48193 19.7798 8.7202 20.0181 9.00738 19.9989Z" stroke="black" stroke-width="1.5" stroke-linecap="round"/>
</g>
<defs>
<clipPath id="clip0_1607_7258">
<rect width="24" height="24" fill="white"/>
</clipPath>
</defs>
</svg>
