<svg width="24" height="24" viewBox="0 0 24 24" fill="none" xmlns="http://www.w3.org/2000/svg">
<path d="M3 23H17M6.00004 2L6.00004 2.88199C6.00004 3.56719 5.61291 4.19359 5.00005 4.50002C4.38719 4.80645 4.00006 5.43285 4.00006 6.11805V7.99999M16 2V2.75736C16 3.55301 15.6839 4.31607 15.1213 4.87868L14.8787 5.12132C14.3161 5.68393 14 6.44699 14 7.24264V8M11 1V2.75885C11 3.55362 10.6846 4.31591 10.1231 4.87837L9.87686 5.12503C9.31535 5.68749 8.99998 6.44978 8.99998 7.24455V8M18 13H18.5C20.433 13 22 14.567 22 16.5C22 18.433 20.433 20 18.5 20H16.2454M18 13V12C18 11.4477 17.5523 11 17 11H3C2.44772 11 2 11.4477 2 12V15C2 19.4183 5.58172 23 10 23C12.5264 23 14.7792 21.8289 16.2454 20M18 13V15C18 16.8919 17.3433 18.6304 16.2454 20" stroke="black" stroke-width="1.5" stroke-linecap="round"/>
</svg>
