<svg width="24" height="24" viewBox="0 0 24 24" fill="none" xmlns="http://www.w3.org/2000/svg">
<g clip-path="url(#clip0_1607_7315)">
<path d="M12 3.99998L12 1M12 23L12 20M20 12L23 12M1 12L4 12M17.6569 6.343L19.7782 4.22168M4.22185 19.778L6.34317 17.6567M17.6569 17.657L19.7782 19.7783M4.22184 4.22199L6.34316 6.34331M17 12C17 14.7614 14.7614 17 12 17M17 12C17 9.23858 14.7614 7 12 7M17 12C17 14.4212 15.279 16.4405 12.9936 16.9013M17 12C17 9.57879 15.279 7.55953 12.9936 7.09873M12 17C9.23856 17 6.99998 14.7614 6.99998 12C6.99998 9.23858 9.23856 7 12 7M12 17V7" stroke="black" stroke-width="1.5" stroke-linecap="round"/>
</g>
<defs>
<clipPath id="clip0_1607_7315">
<rect width="24" height="24" fill="white"/>
</clipPath>
</defs>
</svg>
