<svg width="24" height="24" viewBox="0 0 24 24" fill="none" xmlns="http://www.w3.org/2000/svg">
<path d="M14 4V3.5C14 2.94772 13.5523 2.5 13 2.5H12.5C12.2239 2.5 12 2.27614 12 2V2C12 1.44772 11.5523 1 11 1H8C7.44772 1 7 1.44772 7 2V2C7 2.27614 6.77614 2.5 6.5 2.5H6C5.44772 2.5 5 2.94772 5 3.5V4M14 4V4.5C14 5.05228 13.5523 5.5 13 5.5H6C5.44772 5.5 5 5.05228 5 4.5V4M14 4H16C16.5523 4 17 4.44772 17 5V12M5 4H3C2.44772 4 2 4.44772 2 5V20C2 20.5523 2.44771 21 3 21H13M18 12V15C18 15.5523 18.4477 16 19 16H22M17 12H14C13.4477 12 13 12.4477 13 13V21M17 12H18.5858C18.851 12 19.1054 12.1054 19.2929 12.2929L21.7071 14.7071C21.8946 14.8946 22 15.149 22 15.4142V22C22 22.5523 21.5523 23 21 23H14C13.4477 23 13 22.5523 13 22V21" stroke="black" stroke-width="1.5"/>
</svg>
