<svg width="24" height="24" viewBox="0 0 24 24" fill="none" xmlns="http://www.w3.org/2000/svg">
<g clip-path="url(#clip0_1607_7327)">
<path d="M22 15.6666H2M22 15.6666C22.5523 15.6666 23 16.1143 23 16.6666V21.9999C23 22.5522 22.5523 22.9999 22 22.9999H2C1.44772 22.9999 1 22.5522 1 21.9999V16.6666C1 16.1143 1.44772 15.6666 2 15.6666M22 15.6666C22.5523 15.6666 23 15.2189 23 14.6666V9.3333C23 8.78102 22.5523 8.3333 22 8.3333M2 15.6666C1.44772 15.6666 1 15.2189 1 14.6666V9.3333C1 8.78102 1.44772 8.3333 2 8.3333M22 8.3333H2M22 8.3333C22.5523 8.3333 23 7.88559 23 7.3333V2C23 1.44772 22.5523 1 22 1H2C1.44772 1 1 1.44772 1 2V7.3333C1 7.88559 1.44772 8.3333 2 8.3333M4.29999 19.3333H9.22671M4.29999 12H9.22671M4.29999 4.66665H9.22671" stroke="black" stroke-width="1.5" stroke-linecap="round" stroke-linejoin="round"/>
</g>
<defs>
<clipPath id="clip0_1607_7327">
<rect width="24" height="24" fill="white"/>
</clipPath>
</defs>
</svg>
