<svg width="24" height="24" viewBox="0 0 24 24" fill="none" xmlns="http://www.w3.org/2000/svg">
<g clip-path="url(#clip0_1607_7339)">
<path d="M11 1.08982V7.08982C11 7.6421 11.4477 8.08982 12 8.08982H17.9459M18 9.48233L11.2774 16.205C11.0998 16.3826 11 16.6234 11 16.8746V19.553C11 20.076 11.424 20.5 11.947 20.5H14.6254C14.8766 20.5 15.1174 20.4002 15.295 20.2226L18 17.5177M18 9.48233L18.705 8.77736C19.0748 8.40755 19.6744 8.40755 20.0442 8.77736L22.7226 11.4558C23.0925 11.8256 23.0925 12.4252 22.7226 12.795L18 17.5177M18 9.48233V8.41421C18 8.149 17.8946 7.89464 17.7071 7.70711L11.2929 1.29289C11.1054 1.10536 10.851 1 10.5858 1H2C1.44772 1 1 1.44772 1 2V22C1 22.5523 1.44772 23 2 23H17C17.5523 23 18 22.5523 18 22V17.5177" stroke="black" stroke-width="1.5" stroke-linecap="round" stroke-linejoin="round"/>
</g>
<defs>
<clipPath id="clip0_1607_7339">
<rect width="24" height="24" fill="white"/>
</clipPath>
</defs>
</svg>
