<svg width="24" height="24" viewBox="0 0 24 24" fill="none" xmlns="http://www.w3.org/2000/svg">
<g clip-path="url(#clip0_1607_7347)">
<path d="M2.83324 21.1668L22.0656 1.9344M15.6666 1L22.009 1.90606C22.053 1.91235 22.0876 1.94692 22.0939 1.99092L22.9999 8.33332M8.33332 23L1.99091 22.0939C1.94691 22.0877 1.91234 22.0531 1.90605 22.0091L1 15.6667M1.93436 1.93433L22.0657 22.0656M23 15.6667L22.0939 22.0091C22.0876 22.0531 22.0531 22.0877 22.0091 22.0939L15.6666 23M1 8.33332L1.90606 1.99091C1.91235 1.94691 1.94692 1.91234 1.99092 1.90605L8.33332 1" stroke="black" stroke-width="1.5" stroke-linecap="round" stroke-linejoin="round"/>
</g>
<defs>
<clipPath id="clip0_1607_7347">
<rect width="24" height="24" fill="white"/>
</clipPath>
</defs>
</svg>
