<svg width="24" height="24" viewBox="0 0 24 24" fill="none" xmlns="http://www.w3.org/2000/svg">
<g clip-path="url(#clip0_1607_7428)">
<path d="M15 23V15.1C15 15.0448 15.0448 15 15.1 15H23M4 1V5M9 1V5M15 1V5M20 1V5M23 15.5858V4C23 3.44772 22.5523 3 22 3H2C1.44772 3 1 3.44772 1 4V22C1 22.5523 1.44772 23 2 23H15.5858C15.851 23 16.1054 22.8947 16.2929 22.7071L22.7071 16.2929C22.8946 16.1054 23 15.851 23 15.5858Z" stroke="black" stroke-width="1.5" stroke-linecap="round"/>
</g>
<defs>
<clipPath id="clip0_1607_7428">
<rect width="24" height="24" fill="white"/>
</clipPath>
</defs>
</svg>
