<svg width="24" height="24" viewBox="0 0 24 24" fill="none" xmlns="http://www.w3.org/2000/svg">
<path d="M2 19.5H18.3905C18.7648 19.5 19.1078 19.2909 19.2793 18.9582L22.8882 11.9582C23.2313 11.2927 22.7482 10.5 21.9994 10.5H19M2 19.5L6.36069 11.0418C6.53222 10.7091 6.8752 10.5 7.24952 10.5H19M2 19.5C1.44772 19.5 1 19.0523 1 18.5V5.5C1 4.94772 1.44772 4.5 2 4.5H8C8.31476 4.5 8.61115 4.64819 8.8 4.9L9.7 6.1C9.88885 6.35181 10.1852 6.5 10.5 6.5H18C18.5523 6.5 19 6.94772 19 7.5V10.5" stroke="black" stroke-width="1.5"/>
</svg>
