<svg width="24" height="24" viewBox="0 0 24 24" fill="none" xmlns="http://www.w3.org/2000/svg">
<g clip-path="url(#clip0_1607_7452)">
<path fill-rule="evenodd" clip-rule="evenodd" d="M10.5 1C9.94771 1 9.5 1.44772 9.5 2V4.39838C9.11743 4.52412 8.74759 4.67795 8.39293 4.85741L6.69666 3.16113C6.30613 2.77061 5.67297 2.77061 5.28244 3.16113L3.16112 5.28245C2.7706 5.67298 2.7706 6.30614 3.16112 6.69667L4.8574 8.39294C4.67796 8.74756 4.52416 9.11735 4.39842 9.49988H2C1.44772 9.49988 1 9.94759 1 10.4999V13.4999C1 14.0522 1.44772 14.4999 2 14.4999H4.39834C4.5241 14.8825 4.67795 15.2524 4.85745 15.6072L3.16126 17.3033C2.77073 17.6939 2.77073 18.327 3.16126 18.7176L5.28258 20.8389C5.6731 21.2294 6.30627 21.2294 6.69679 20.8389L8.39303 19.1426C8.74766 19.3221 9.11746 19.4759 9.5 19.6016V22C9.5 22.5523 9.94771 23 10.5 23H13.5C14.0523 23 14.5 22.5523 14.5 22V19.6016C14.8826 19.4759 15.2524 19.3221 15.6071 19.1426L17.3033 20.8388C17.6938 21.2293 18.3269 21.2293 18.7175 20.8388L20.8388 18.7175C21.2293 18.327 21.2293 17.6938 20.8388 17.3033L19.1426 15.6071C19.3221 15.2524 19.4759 14.8825 19.6017 14.4999H22C22.5523 14.4999 23 14.0522 23 13.4999V10.4999C23 9.94759 22.5523 9.49988 22 9.49988H19.6016C19.4759 9.11738 19.3221 8.74762 19.1426 8.39302L20.8389 6.69674C21.2295 6.30622 21.2295 5.67305 20.8389 5.28253L18.7176 3.16121C18.3271 2.77068 17.6939 2.77068 17.3034 3.16121L15.6072 4.85745C15.2525 4.67797 14.8826 4.52413 14.5 4.39838V2C14.5 1.44772 14.0523 1 13.5 1H10.5ZM12 15C13.6569 15 15 13.6569 15 12C15 10.3431 13.6569 9 12 9C10.3431 9 9 10.3431 9 12C9 13.6569 10.3431 15 12 15Z" stroke="black" stroke-width="1.5" stroke-linecap="round" stroke-linejoin="round"/>
</g>
<defs>
<clipPath id="clip0_1607_7452">
<rect width="24" height="24" fill="white"/>
</clipPath>
</defs>
</svg>
