<svg width="24" height="24" viewBox="0 0 24 24" fill="none" xmlns="http://www.w3.org/2000/svg">
<path d="M12 4.82754L10.261 1.92926C9.62049 0.861692 8.14722 0.680322 7.26687 1.56066C6.06132 2.76622 6.91514 4.82754 8.62006 4.82754H12ZM12 4.82754L13.739 1.92926C14.3795 0.861692 15.8528 0.680322 16.7331 1.56066C17.9387 2.76622 17.0849 4.82754 15.3799 4.82754H12ZM12 4.82754V22M21 9.82754V21C21 21.5523 20.5523 22 20 22H12M3 9.82754V21C3 21.5523 3.44772 22 4 22H12M2 9.82754H22C22.5523 9.82754 23 9.37982 23 8.82754V5.82754C23 5.27525 22.5523 4.82754 22 4.82754H2C1.44772 4.82754 1 5.27525 1 5.82754V8.82754C1 9.37982 1.44772 9.82754 2 9.82754Z" stroke="black" stroke-width="1.5"/>
</svg>
