<svg width="24" height="24" viewBox="0 0 24 24" fill="none" xmlns="http://www.w3.org/2000/svg">
<path d="M12 5L12 10M12 14L12 19M6 5H18C18.5523 5 19 4.55228 19 4V2C19 1.44772 18.5523 1 18 1H6C5.44772 1 5 1.44772 5 2V4C5 4.55228 5.44772 5 6 5ZM6 14H18C18.5523 14 19 13.5523 19 13V11C19 10.4477 18.5523 10 18 10H6C5.44772 10 5 10.4477 5 11V13C5 13.5523 5.44772 14 6 14ZM6 23H18C18.5523 23 19 22.5523 19 22V20C19 19.4477 18.5523 19 18 19H6C5.44772 19 5 19.4477 5 20V22C5 22.5523 5.44772 23 6 23Z" stroke="black" stroke-width="1.5" stroke-linecap="round" stroke-linejoin="round"/>
</svg>
