<svg width="24" height="24" viewBox="0 0 24 24" fill="none" xmlns="http://www.w3.org/2000/svg">
<path d="M1.00002 8.08345C1.00002 7.73437 1.18205 7.41055 1.48029 7.22912L11.4803 1.14567C11.7996 0.951443 12.2005 0.951444 12.5197 1.14567L22.5197 7.22913C22.8179 7.41056 23 7.73438 23 8.08346L23 22C23 22.5523 22.5523 23 22 23L17 23C16.4477 23 16 22.5523 16 22L16 14C16 13.4477 15.5523 13 15 13H9.00001C8.44773 13 8.00001 13.4477 8.00001 14L7.99999 22C7.99999 22.5523 7.55227 23 6.99999 23L2 23C1.44771 23 0.999997 22.5523 0.999997 22L1.00002 8.08345Z" stroke="black" stroke-width="1.5" stroke-linecap="round" stroke-linejoin="round"/>
</svg>
