<svg width="24" height="24" viewBox="0 0 24 24" fill="none" xmlns="http://www.w3.org/2000/svg">
<path d="M13.5219 18.0067L13.0304 17.4402L13.0304 17.4402L13.5219 18.0067ZM17.4833 14.5688L17.9749 15.1353L17.9749 15.1353L17.4833 14.5688ZM13.3923 18.0079L13.8733 17.4325L13.8733 17.4325L13.3923 18.0079ZM11.4737 16.404L11.9548 15.8286L11.9548 15.8286L11.4737 16.404ZM10.2012 16.3955L9.72789 15.8137L9.72789 15.8137L10.2012 16.3955ZM6.52667 18.4182C6.20537 18.6796 6.15682 19.152 6.41823 19.4733C6.67964 19.7946 7.15203 19.8432 7.47333 19.5818L6.52667 18.4182ZM18.7942 14.5688L18.3026 15.1353L18.3026 15.1353L18.7942 14.5688ZM22.5084 18.7852C22.8213 19.0567 23.2949 19.0232 23.5664 18.7103C23.8379 18.3975 23.8044 17.9238 23.4916 17.6523L22.5084 18.7852ZM13.75 13.0001C13.75 12.5858 13.4142 12.2501 13 12.2501C12.5858 12.2501 12.25 12.5858 12.25 13.0001H13.75ZM12.25 13.0318C12.25 13.446 12.5858 13.7818 13 13.7818C13.4142 13.7818 13.75 13.446 13.75 13.0318H12.25ZM8 9.75H22V8.25H8V9.75ZM22.25 10V20H23.75V10H22.25ZM22 20.25H8V21.75H22V20.25ZM7.75 20V10H6.25V20H7.75ZM8 20.25C7.86193 20.25 7.75 20.1381 7.75 20H6.25C6.25 20.9665 7.0335 21.75 8 21.75V20.25ZM22.25 20C22.25 20.1381 22.1381 20.25 22 20.25V21.75C22.9665 21.75 23.75 20.9665 23.75 20H22.25ZM22 9.75C22.1381 9.75 22.25 9.86193 22.25 10H23.75C23.75 9.0335 22.9665 8.25 22 8.25V9.75ZM8 8.25C7.0335 8.25 6.25 9.0335 6.25 10H7.75C7.75 9.86193 7.86193 9.75 8 9.75V8.25ZM2 3.75H16V2.25H2V3.75ZM1.75 14V4H0.25V14H1.75ZM7 14.25H2V15.75H7V14.25ZM16.25 4V9H17.75V4H16.25ZM0.25 14C0.25 14.9665 1.0335 15.75 2 15.75V14.25C1.86193 14.25 1.75 14.1381 1.75 14H0.25ZM16 3.75C16.1381 3.75 16.25 3.86193 16.25 4H17.75C17.75 3.0335 16.9665 2.25 16 2.25V3.75ZM2 2.25C1.0335 2.25 0.25 3.0335 0.25 4H1.75C1.75 3.86193 1.86193 3.75 2 3.75V2.25ZM14.0135 18.5731L17.9749 15.1353L16.9918 14.0024L13.0304 17.4402L14.0135 18.5731ZM13.8733 17.4325L11.9548 15.8286L10.9927 16.9794L12.9112 18.5833L13.8733 17.4325ZM9.72789 15.8137L6.52667 18.4182L7.47333 19.5818L10.6745 16.9773L9.72789 15.8137ZM11.9548 15.8286C11.3118 15.291 10.378 15.2848 9.72789 15.8137L10.6745 16.9773C10.7674 16.9017 10.9008 16.9026 10.9927 16.9794L11.9548 15.8286ZM13.0304 17.4402C13.2714 17.2311 13.6285 17.2278 13.8733 17.4325L12.9112 18.5833C13.2314 18.8509 13.6984 18.8466 14.0135 18.5731L13.0304 17.4402ZM17.9749 15.1353C18.0689 15.0537 18.2086 15.0537 18.3026 15.1353L19.2858 14.0024C18.6277 13.4313 17.6498 13.4313 16.9918 14.0024L17.9749 15.1353ZM12.25 13.0001V13.0318H13.75V13.0001H12.25ZM18.3026 15.1353L22.5084 18.7852L23.4916 17.6523L19.2858 14.0024L18.3026 15.1353Z" fill="black"/>
</svg>
