<svg width="24" height="24" viewBox="0 0 24 24" fill="none" xmlns="http://www.w3.org/2000/svg">
<g clip-path="url(#clip0_1607_7517)">
<path d="M12 23V1M12 23C11.1776 23 10.3763 22.9097 9.6054 22.7386M12 23C12.8236 23 13.6261 22.9095 14.398 22.7379M12 1C11.2152 1 10.4495 1.08219 9.71122 1.23844M12 1C12.7881 1 13.5568 1.08287 14.2979 1.24037M1.23612 9.72225L1.5 9.56137C3.74095 8.32103 7.6416 7.5 12.0785 7.5C16.4135 7.5 20.2366 8.28373 22.5 9.47655L22.7371 9.59879M1.23612 9.72225C1.08138 10.4572 1 11.2191 1 12C1 12.7809 1.08138 13.5428 1.23612 14.2777M1.23612 9.72225C2.12963 5.47869 5.46922 2.1362 9.71122 1.23844M1.23612 14.2777L1.5 14.4386C3.74095 15.679 7.6416 16.5 12.0785 16.5C16.4135 16.5 20.2366 15.7163 22.5 14.5235L22.7403 14.3868M1.23612 14.2777C2.12219 18.486 5.41375 21.8081 9.6054 22.7386M22.7403 14.3868C22.9104 13.6183 23 12.8196 23 12C23 11.1752 22.9092 10.3717 22.7371 9.59879M22.7403 14.3868C21.821 18.5422 18.5518 21.8143 14.398 22.7379M22.7371 9.59879C21.806 5.41697 18.4943 2.13221 14.2979 1.24037M9.71122 1.23844L9.56137 1.5C8.32103 3.74095 7.5 7.6416 7.5 12.0785C7.5 16.4135 8.28373 20.2366 9.47655 22.5L9.6054 22.7386M14.2979 1.24037L14.4386 1.5C15.679 3.74095 16.5 7.6416 16.5 12.0785C16.5 16.4135 15.7163 20.2366 14.5235 22.5L14.398 22.7379" stroke="black" stroke-width="1.5" stroke-linecap="round" stroke-linejoin="round"/>
</g>
<defs>
<clipPath id="clip0_1607_7517">
<rect width="24" height="24" fill="white"/>
</clipPath>
</defs>
</svg>
