<svg width="24" height="24" viewBox="0 0 24 24" fill="none" xmlns="http://www.w3.org/2000/svg">
<g clip-path="url(#clip0_1607_7525)">
<path d="M5 15.5L3 18M3 18L5 20.5M3 18H9M19 15.5L21 18M21 18L19 20.5M21 18H15M9.5 5L12 3M12 3L14.5 5M12 3V9M8 11H16C16.5523 11 17 10.5523 17 10V2C17 1.44772 16.5523 1 16 1H8C7.44772 1 7 1.44772 7 2V10C7 10.5523 7.44772 11 8 11ZM14 23H22C22.5523 23 23 22.5523 23 22V14C23 13.4477 22.5523 13 22 13H14C13.4477 13 13 13.4477 13 14V22C13 22.5523 13.4477 23 14 23ZM2 23H10C10.5523 23 11 22.5523 11 22V14C11 13.4477 10.5523 13 10 13H2C1.44772 13 1 13.4477 1 14V22C1 22.5523 1.44772 23 2 23Z" stroke="black" stroke-width="1.5" stroke-linecap="round" stroke-linejoin="round"/>
</g>
<defs>
<clipPath id="clip0_1607_7525">
<rect width="24" height="24" fill="white"/>
</clipPath>
</defs>
</svg>
