<svg width="24" height="24" viewBox="0 0 24 24" fill="none" xmlns="http://www.w3.org/2000/svg">
<path d="M21 16V5C21 4.44772 20.5523 4 20 4H4C3.44772 4 3 4.44772 3 5V16M4.97906 20H19.0209C21.2185 20 23 18.2185 23 16.0209C23 16.0094 22.9906 16 22.9791 16H13.375V16.3333C13.375 16.8856 12.9273 17.3333 12.375 17.3333H11.625C11.0727 17.3333 10.625 16.8856 10.625 16.3333V16H1.02094C1.00938 16 1 16.0094 1 16.0209C1 18.2185 2.78148 20 4.97906 20Z" stroke="black" stroke-width="1.5" stroke-linecap="round" stroke-linejoin="round"/>
</svg>
