<svg width="24" height="24" viewBox="0 0 24 24" fill="none" xmlns="http://www.w3.org/2000/svg">
<g clip-path="url(#clip0_1607_7581)">
<path d="M19.3333 12C19.3333 16.0501 16.0501 19.3333 12 19.3333M19.3333 12C19.3333 7.94988 16.0501 4.66663 12 4.66663M19.3333 12L23 12M12 19.3333C7.9499 19.3333 4.66665 16.0501 4.66665 12M12 19.3333V23M4.66665 12C4.66665 7.94988 7.9499 4.66663 12 4.66663M4.66665 12H1M12 4.66663L12 1M14.75 12C14.75 13.5188 13.5188 14.75 12 14.75C10.4812 14.75 9.24999 13.5188 9.24999 12C9.24999 10.4812 10.4812 9.24997 12 9.24997C13.5188 9.24997 14.75 10.4812 14.75 12Z" stroke="black" stroke-width="1.5" stroke-linecap="round"/>
</g>
<defs>
<clipPath id="clip0_1607_7581">
<rect width="24" height="24" fill="white"/>
</clipPath>
</defs>
</svg>
