<svg width="24" height="24" viewBox="0 0 24 24" fill="none" xmlns="http://www.w3.org/2000/svg">
<path d="M12 14C10.8954 14 10 13.1046 10 12C10 10.8954 10.8954 10 12 10C13.1046 10 14 10.8954 14 12C14 13.1046 13.1046 14 12 14Z" stroke="black" stroke-width="1.5" stroke-linecap="round" stroke-linejoin="round"/>
<path d="M12 5C10.8954 5 10 4.10457 10 3C10 1.89543 10.8954 1 12 1C13.1046 1 14 1.89543 14 3C14 4.10457 13.1046 5 12 5Z" stroke="black" stroke-width="1.5" stroke-linecap="round" stroke-linejoin="round"/>
<path d="M12 23C10.8954 23 10 22.1046 10 21C10 19.8954 10.8954 19 12 19C13.1046 19 14 19.8954 14 21C14 22.1046 13.1046 23 12 23Z" stroke="black" stroke-width="1.5" stroke-linecap="round" stroke-linejoin="round"/>
</svg>
