<svg width="24" height="24" viewBox="0 0 24 24" fill="none" xmlns="http://www.w3.org/2000/svg">
<g clip-path="url(#clip0_1607_7626)">
<path d="M12 13.7366V11C12 10.4477 12.4477 10 13 10H22C22.5523 10 23 9.55228 23 9V5C23 4.44771 22.5523 4 22 4H19M12 23C13.4446 22.9975 14.6196 21.8245 14.6247 20.3799L14.6611 14.0405C14.6617 13.8701 14.524 13.7322 14.3536 13.7325L9.73813 13.7406C9.56784 13.7409 9.42932 13.8792 9.42873 14.0495L9.39249 20.388C9.38743 21.833 10.5549 23.0026 12 23ZM2 7H18C18.5523 7 19 6.55228 19 6V2C19 1.44772 18.5523 1 18 1H2C1.44772 1 1 1.44772 1 2V6C1 6.55228 1.44772 7 2 7Z" stroke="black" stroke-width="1.5"/>
</g>
<defs>
<clipPath id="clip0_1607_7626">
<rect width="24" height="24" fill="white"/>
</clipPath>
</defs>
</svg>
