<svg width="24" height="24" viewBox="0 0 24 24" fill="none" xmlns="http://www.w3.org/2000/svg">
<g clip-path="url(#clip0_1607_7654)">
<path d="M18 14V22C18 22.5523 17.5523 23 17 23H7C6.44772 23 6 22.5523 6 22V14M6 5.5L6 2C6 1.44771 6.44772 1 7 1L17 1C17.5523 1 18 1.44772 18 2V5.5M4 13H20M9 16H11M9 19H15M5 9H7M2 5.5H22C22.5523 5.5 23 5.94772 23 6.5V17.9541C23 18.503 22.5575 18.9493 22.0086 18.954L18 18.9886V13.0422L6 13V18.9464L1.99982 18.9457C1.44761 18.9456 1 18.4979 1 17.9457V6.5C1 5.94772 1.44772 5.5 2 5.5Z" stroke="black" stroke-width="1.5" stroke-linecap="round" stroke-linejoin="round"/>
</g>
<defs>
<clipPath id="clip0_1607_7654">
<rect width="24" height="24" fill="white"/>
</clipPath>
</defs>
</svg>
