<svg width="24" height="24" viewBox="0 0 24 24" fill="none" xmlns="http://www.w3.org/2000/svg">
<path d="M16.0463 13.7127L17.0372 21.8794C17.1434 22.7543 16.148 23.3287 15.4435 22.7991L12.6067 20.6661C12.248 20.3965 11.7537 20.3987 11.3975 20.6716L8.65013 22.7769C7.94961 23.3137 6.94786 22.746 7.0484 21.8692L7.98143 13.7323M16.0463 13.7127C17.8337 12.4444 19 10.3584 19 8C19 4.13401 15.866 1 12 1C8.13401 1 5 4.13401 5 8C5 10.3706 6.17842 12.466 7.98143 13.7323M16.0463 13.7127C14.9038 14.5234 13.5076 15 12 15C10.5046 15 9.11876 14.5311 7.98143 13.7323M10.5 6L12.5 5V11" stroke="black" stroke-width="1.5" stroke-linecap="round" stroke-linejoin="round"/>
</svg>
