<svg width="24" height="24" viewBox="0 0 24 24" fill="none" xmlns="http://www.w3.org/2000/svg">
<path d="M12 1V6C12 6.55228 12.4477 7 13 7H18M12 1H5C4.44772 1 4 1.44772 4 2V18C4 18.5523 4.44772 19 5 19H13.3368M12 1H12.5858C12.851 1 13.1054 1.10536 13.2929 1.29289L17.7071 5.70711C17.8946 5.89464 18 6.149 18 6.41421V7M18 7V14.3368M22 23L18.9749 19.9749M18.9749 19.9749C19.6082 19.3415 20 18.4665 20 17.5C20 16.1038 19.1825 14.8985 18 14.3368M18.9749 19.9749C18.3415 20.6082 17.4665 21 16.5 21C15.1038 21 13.8985 20.1825 13.3368 19M13.3368 19C13.1208 18.5454 13 18.0368 13 17.5C13 15.567 14.567 14 16.5 14C17.0368 14 17.5454 14.1208 18 14.3368" stroke="black" stroke-width="1.5" stroke-linecap="round" stroke-linejoin="round"/>
</svg>
