<svg width="24" height="24" viewBox="0 0 24 24" fill="none" xmlns="http://www.w3.org/2000/svg">
<g clip-path="url(#clip0_1607_7751)">
<path d="M1 6C1 3.23858 3.23858 1 6 1H18C20.7614 1 23 3.23858 23 6C23 8.76142 20.7614 11 18 11H6C3.23858 11 1 8.76142 1 6Z" stroke="black" stroke-width="1.5" stroke-linecap="round" stroke-linejoin="round"/>
<path d="M23 18C23 15.2386 20.7614 13 18 13H6C3.23858 13 1 15.2386 1 18C1 20.7614 3.23858 23 6 23H18C20.7614 23 23 20.7614 23 18Z" stroke="black" stroke-width="1.5" stroke-linecap="round" stroke-linejoin="round"/>
<path d="M8 6C8 7.10457 7.10457 8 6 8C4.89543 8 4 7.10457 4 6C4 4.89543 4.89543 4 6 4C7.10457 4 8 4.89543 8 6Z" stroke="black" stroke-width="1.5" stroke-linecap="round" stroke-linejoin="round"/>
<path d="M16 18C16 19.1046 16.8954 20 18 20C19.1046 20 20 19.1046 20 18C20 16.8954 19.1046 16 18 16C16.8954 16 16 16.8954 16 18Z" stroke="black" stroke-width="1.5" stroke-linecap="round" stroke-linejoin="round"/>
</g>
<defs>
<clipPath id="clip0_1607_7751">
<rect width="24" height="24" fill="white"/>
</clipPath>
</defs>
</svg>
