<svg width="24" height="24" viewBox="0 0 24 24" fill="none" xmlns="http://www.w3.org/2000/svg">
<g clip-path="url(#clip0_1607_7755)">
<path d="M12.2575 9.3728L14.988 6.63014L17.7185 9.3728L14.9204 12.1834M9.43133 12.2116L1.71909 19.9582C1.32196 20.3571 1.32196 21.0038 1.71909 21.4027L3.01144 22.7008C3.40857 23.0997 4.05245 23.0997 4.44958 22.7008L12.1222 14.994M1.10527 4.49933C1.12376 4.41532 1.22674 4.38727 1.28731 4.4481L2.3029 5.46822C3.1715 6.34069 4.57979 6.34069 5.4484 5.46822C6.31701 4.59574 6.31701 3.18118 5.4484 2.3087L4.43281 1.28859C4.37225 1.22775 4.40018 1.12431 4.48381 1.10574C5.91786 0.787247 7.47841 1.18824 8.59392 2.30871C9.84192 3.56228 10.1934 5.37536 9.64826 6.94406L16.8301 14.1579C18.3919 13.6104 20.1969 13.9634 21.4449 15.217C22.5604 16.3374 22.9596 17.905 22.6425 19.3454C22.624 19.4294 22.5211 19.4574 22.4605 19.3966L21.4449 18.3765C20.5763 17.504 19.168 17.504 18.2994 18.3765C17.4308 19.249 17.4308 20.6635 18.2994 21.536L19.315 22.5561C19.3756 22.617 19.3476 22.7204 19.264 22.739C17.8299 23.0575 16.2694 22.6565 15.1539 21.536C13.9058 20.2824 13.5544 18.4693 14.0996 16.9005L6.9178 9.68675C5.35604 10.2343 3.55094 9.88134 2.30291 8.62775C1.1874 7.50727 0.78819 5.93976 1.10527 4.49933ZM13.6216 5.24414L19.1959 10.8433C19.593 11.2422 20.2369 11.2422 20.6341 10.8433L22.7022 8.766C23.0993 8.36709 23.0993 7.72035 22.7022 7.32145L17.1278 1.72227C16.7307 1.32337 16.0868 1.32337 15.6897 1.72227L13.6216 3.79959C13.2244 4.19849 13.2244 4.84523 13.6216 5.24414Z" stroke="black" stroke-width="1.5" stroke-linecap="round" stroke-linejoin="round"/>
</g>
<defs>
<clipPath id="clip0_1607_7755">
<rect width="24" height="24" fill="white"/>
</clipPath>
</defs>
</svg>
