<svg width="24" height="24" viewBox="0 0 24 24" fill="none" xmlns="http://www.w3.org/2000/svg">
<g clip-path="url(#clip0_1607_7771)">
<path d="M12 17C14.7614 17 17 14.7614 17 12C17 9.23858 14.7614 7 12 7C9.23858 7 7 9.23858 7 12V12.5973M9 11.5214L7.12181 12.5687C7.08368 12.5899 7.04147 12.5992 7 12.5973M5.28378 11L6.85111 12.5325C6.89217 12.5726 6.94545 12.5947 7 12.5973M1 12C1 18.0751 5.92487 23 12 23C18.0751 23 23 18.0751 23 12C23 5.92487 18.0751 1 12 1C5.92487 1 1 5.92487 1 12Z" stroke="black" stroke-width="1.5" stroke-linecap="round"/>
</g>
<defs>
<clipPath id="clip0_1607_7771">
<rect width="24" height="24" fill="white"/>
</clipPath>
</defs>
</svg>
