<svg width="24" height="24" viewBox="0 0 24 24" fill="none" xmlns="http://www.w3.org/2000/svg">
<g clip-path="url(#clip0_1607_7779)">
<path d="M1.00049 22.9178L1.75046 22.9252L1.75046 22.9252L1.00049 22.9178ZM17.3633 22.9178L16.6134 22.9252L16.6134 22.9252L17.3633 22.9178ZM12.5111 2.32589C12.1969 2.59582 12.1611 3.06934 12.431 3.38352C12.7009 3.6977 13.1744 3.73357 13.4886 3.46364L12.5111 2.32589ZM22.5112 3.46363C22.8254 3.73356 23.2989 3.69769 23.5689 3.38351C23.8388 3.06933 23.8029 2.59581 23.4887 2.32588L22.5112 3.46363ZM13.8631 4.15762C13.5554 4.43497 13.5309 4.90921 13.8082 5.21686C14.0856 5.52451 14.5598 5.54908 14.8675 5.27173L13.8631 4.15762ZM15.2028 6.00582C14.9097 6.29845 14.9093 6.77333 15.2019 7.06648C15.4945 7.35963 15.9694 7.36005 16.2626 7.06741L15.2028 6.00582ZM19.7373 7.0674C20.0304 7.36004 20.5053 7.35961 20.798 7.06646C21.0906 6.77331 21.0902 6.29843 20.797 6.0058L19.7373 7.0674ZM21.1324 5.27172C21.4401 5.54907 21.9143 5.5245 22.1916 5.21685C22.469 4.90919 22.4444 4.43496 22.1368 4.15761L21.1324 5.27172ZM12.1137 8.68182C12.1137 10.301 10.8011 11.6136 9.18191 11.6136V13.1136C11.6295 13.1136 13.6137 11.1294 13.6137 8.68182H12.1137ZM9.18191 11.6136C7.56271 11.6136 6.25009 10.301 6.25009 8.68182H4.75009C4.75009 11.1294 6.73428 13.1136 9.18191 13.1136V11.6136ZM6.25009 8.68182C6.25009 7.06262 7.56271 5.75 9.18191 5.75V4.25C6.73428 4.25 4.75009 6.23419 4.75009 8.68182H6.25009ZM9.18191 5.75C10.8011 5.75 12.1137 7.06262 12.1137 8.68182H13.6137C13.6137 6.23419 11.6295 4.25 9.18191 4.25V5.75ZM1.75046 22.9252C1.79051 18.8553 5.10239 15.5682 9.18191 15.5682V14.0682C4.2789 14.0682 0.298676 18.0187 0.250529 22.9104L1.75046 22.9252ZM9.18191 15.5682C13.2614 15.5682 16.5733 18.8553 16.6134 22.9252L18.1133 22.9104C18.0651 18.0187 14.0849 14.0682 9.18191 14.0682V15.5682ZM17.2819 22.25H1.08191V23.75H17.2819V22.25ZM0.250529 22.9104C0.245977 23.3729 0.619832 23.75 1.08191 23.75V22.25C1.45361 22.25 1.75412 22.5531 1.75046 22.9252L0.250529 22.9104ZM16.6134 22.9252C16.6097 22.5531 16.9102 22.25 17.2819 22.25V23.75C17.744 23.75 18.1178 23.3729 18.1133 22.9104L16.6134 22.9252ZM13.4886 3.46364C14.7466 2.38285 16.3107 1.75 17.9999 1.75V0.25C15.9232 0.25 14.0184 1.03084 12.5111 2.32589L13.4886 3.46364ZM17.9999 1.75C19.6892 1.75 21.2533 2.38285 22.5112 3.46363L23.4887 2.32588C21.9814 1.03084 20.0767 0.25 17.9999 0.25V1.75ZM14.8675 5.27173C15.7464 4.47939 16.8332 4.02252 17.9999 4.02252V2.52252C16.4254 2.52252 14.9889 3.14266 13.8631 4.15762L14.8675 5.27173ZM16.2626 7.06741C16.7652 6.5657 17.3697 6.29505 17.9999 6.29505V4.79505C16.9153 4.79505 15.9436 5.26638 15.2028 6.00582L16.2626 7.06741ZM17.9999 6.29505C18.6302 6.29505 19.2347 6.5657 19.7373 7.0674L20.797 6.0058C20.0563 5.26637 19.0845 4.79505 17.9999 4.79505V6.29505ZM17.9999 4.02252C19.1667 4.02252 20.2535 4.47939 21.1324 5.27172L22.1368 4.15761C21.0109 3.14266 19.5745 2.52252 17.9999 2.52252V4.02252ZM18.25 9C18.25 9.13807 18.1381 9.25 18 9.25V10.75C18.9665 10.75 19.75 9.9665 19.75 9H18.25ZM18 9.25C17.8619 9.25 17.75 9.13807 17.75 9H16.25C16.25 9.9665 17.0335 10.75 18 10.75V9.25ZM17.75 9C17.75 8.86193 17.8619 8.75 18 8.75V7.25C17.0335 7.25 16.25 8.0335 16.25 9H17.75ZM18 8.75C18.1381 8.75 18.25 8.86193 18.25 9H19.75C19.75 8.0335 18.9665 7.25 18 7.25V8.75Z" fill="black"/>
</g>
<defs>
<clipPath id="clip0_1607_7779">
<rect width="24" height="24" fill="white"/>
</clipPath>
</defs>
</svg>
