<svg width="24" height="24" viewBox="0 0 24 24" fill="none" xmlns="http://www.w3.org/2000/svg">
<path d="M21.3005 19.9958H2.70051L1.01147 8.61382C0.889172 7.7897 1.76922 7.18618 2.49394 7.59718L5.33838 9.21028C5.72959 9.43214 6.22078 9.36554 6.53879 9.04753L11.2934 4.29289C11.6839 3.90237 12.3171 3.90237 12.7076 4.29289L17.4623 9.04753C17.7803 9.36554 18.2715 9.43213 18.6627 9.21028L21.5071 7.59718C22.2318 7.18619 23.1119 7.78971 22.9896 8.61383L21.3005 19.9958Z" stroke="black" stroke-width="1.5" stroke-linejoin="round"/>
<path d="M14 14.0001C14 15.1047 13.1045 16.0001 12 16.0001C10.8954 16.0001 9.99998 15.1047 9.99998 14.0001C9.99998 12.8955 10.8954 12.0001 12 12.0001C13.1045 12.0001 14 12.8955 14 14.0001Z" stroke="black" stroke-width="1.5" stroke-linejoin="round"/>
</svg>
