<svg width="24" height="24" viewBox="0 0 24 24" fill="none" xmlns="http://www.w3.org/2000/svg">
<path d="M1 8.16885C4.04208 5.5552 7.85814 4 12.0011 4C16.1441 4 19.9602 5.5552 23.0022 8.16884M4.00415 12.173C6.2096 10.1848 8.98545 9 12.0011 9C15.0168 9 17.7926 10.1848 19.9981 12.173M7.01277 16.1816C8.38057 14.8163 10.1146 14 12.0011 14C13.8876 14 15.6217 14.8162 16.9895 16.1816M14.0011 20C14.0011 21.1046 13.1057 22 12.0011 22C10.8966 22 10.0011 21.1046 10.0011 20C10.0011 18.8954 10.8966 18 12.0011 18C13.1057 18 14.0011 18.8954 14.0011 20Z" stroke="black" stroke-width="1.5" stroke-linecap="round" stroke-linejoin="round"/>
</svg>
