<svg width="24" height="24" viewBox="0 0 24 24" fill="none" xmlns="http://www.w3.org/2000/svg">
<path d="M17.25 23C17.25 23.4142 17.5858 23.75 18 23.75C18.4142 23.75 18.75 23.4142 18.75 23H17.25ZM20 23.75C20.4142 23.75 20.75 23.4142 20.75 23C20.75 22.5858 20.4142 22.25 20 22.25V23.75ZM16 22.25C15.5858 22.25 15.25 22.5858 15.25 23C15.25 23.4142 15.5858 23.75 16 23.75V22.25ZM9.50037 1.75C9.91458 1.75 10.2504 1.41421 10.2504 1C10.2504 0.585786 9.91458 0.25 9.50037 0.25V1.75ZM4.49997 0.25C4.08576 0.25 3.74997 0.585786 3.74997 1C3.74997 1.41421 4.08576 1.75 4.49997 1.75V0.25ZM9 4.75C9.41421 4.75 9.75 4.41421 9.75 4C9.75 3.58579 9.41421 3.25 9 3.25V4.75ZM5 3.25C4.58579 3.25 4.25 3.58579 4.25 4C4.25 4.41421 4.58579 4.75 5 4.75V3.25ZM9 7.8L8.25 7.8C8.25 7.95632 8.29884 8.10873 8.3897 8.23593L9 7.8ZM10.8824 10.4354L10.2721 10.8713L10.2721 10.8713L10.8824 10.4354ZM12 13.9228L12.75 13.9228V13.9228H12ZM12 22L11.25 22V22H12ZM3.1176 10.4354L2.5073 9.99943L2.5073 9.99943L3.1176 10.4354ZM5 7.8L5.6103 8.23593C5.70116 8.10873 5.75 7.95632 5.75 7.8L5 7.8ZM5 1V0.25C4.58579 0.25 4.25 0.585786 4.25 1L5 1ZM9 1L9.75 1C9.75 0.801088 9.67098 0.610322 9.53033 0.46967C9.38968 0.329018 9.19891 0.25 9 0.25V1ZM14.7778 10.75H21.2222V9.25H14.7778V10.75ZM21.25 10.7778V13H22.75V10.7778H21.25ZM14.75 13V10.7778H13.25V13H14.75ZM18 16.25C16.2051 16.25 14.75 14.7949 14.75 13H13.25C13.25 15.6234 15.3766 17.75 18 17.75V16.25ZM21.25 13C21.25 14.7949 19.7949 16.25 18 16.25V17.75C20.6234 17.75 22.75 15.6234 22.75 13H21.25ZM21.2222 10.75C21.2376 10.75 21.25 10.7624 21.25 10.7778H22.75C22.75 9.93401 22.066 9.25 21.2222 9.25V10.75ZM14.7778 9.25C13.934 9.25 13.25 9.93401 13.25 10.7778H14.75C14.75 10.7624 14.7624 10.75 14.7778 10.75V9.25ZM17.25 17V23H18.75V17H17.25ZM20 22.25H16V23.75H20V22.25ZM9.50037 0.25H4.49997V1.75H9.50037V0.25ZM9 3.25H5V4.75H9V3.25ZM8.3897 8.23593L10.2721 10.8713L11.4927 9.99943L9.6103 7.36407L8.3897 8.23593ZM10.2721 10.8713C10.9081 11.7617 11.25 12.8286 11.25 13.9228H12.75C12.75 12.5159 12.3104 11.1442 11.4927 9.99943L10.2721 10.8713ZM11.25 13.9228L11.25 22L12.75 22L12.75 13.9228L11.25 13.9228ZM11.25 22C11.25 22.1381 11.1381 22.25 11 22.25V23.75C11.9665 23.75 12.75 22.9665 12.75 22H11.25ZM11 22.25H3V23.75H11V22.25ZM3 22.25C2.86193 22.25 2.75 22.1381 2.75 22H1.25C1.25 22.9665 2.0335 23.75 3 23.75V22.25ZM2.75 22V13.9228H1.25V22H2.75ZM2.75 13.9228C2.75 12.8286 3.0919 11.7617 3.7279 10.8713L2.5073 9.99943C1.68958 11.1442 1.25 12.5159 1.25 13.9228H2.75ZM3.7279 10.8713L5.6103 8.23593L4.3897 7.36407L2.5073 9.99943L3.7279 10.8713ZM5.75 7.8L5.75 1L4.25 1L4.25 7.8L5.75 7.8ZM5 1.75H9V0.25H5V1.75ZM8.25 1L8.25 7.8L9.75 7.8L9.75 1L8.25 1ZM12 19.25H2V20.75H12V19.25ZM2 14.75H12V13.25H2V14.75Z" fill="black"/>
</svg>
