<svg width="24" height="24" viewBox="0 0 24 24" fill="none" xmlns="http://www.w3.org/2000/svg">
<path d="M12.1625 20.0413L12.7889 20.4538L12.7889 20.4538L12.1625 20.0413ZM8 22L7.98739 22.7499L8 22ZM14.1446 14.9185L14.6808 15.443L14.6808 15.443L14.1446 14.9185ZM20.8405 5.61718L20.2054 6.01607L20.2068 6.01824L20.8405 5.61718ZM22.9972 4.2163L22.2507 4.14393L22.9972 4.2163ZM22.115 13.1702L22.8394 13.3643L22.8394 13.3643L22.115 13.1702ZM21.8349 3.90484L21.1522 3.59427L21.1522 3.59427L21.8349 3.90484ZM18.1219 12.1003L18.8464 12.2944L18.8464 12.2944L18.1219 12.1003ZM20.5382 19.0526L21.2627 19.2467L20.5382 19.0526ZM20.0162 19.9613L20.5489 20.4893L20.5489 20.4893L20.0162 19.9613ZM16.5428 19.0306L15.8175 19.2215L15.8175 19.2215L16.5428 19.0306ZM16.5451 17.9826L17.2696 18.1768L16.5451 17.9826ZM17.0048 20.7862L17.7301 20.5953L17.7301 20.5953L17.0048 20.7862ZM18.7383 21.2507L18.2056 20.7227L18.2056 20.7227L18.7383 21.2507ZM19.0946 16.5522L19.2887 15.8278L19.2887 15.8278L19.0946 16.5522ZM19.0455 16.5391L18.8514 17.2635L18.8514 17.2635L19.0455 16.5391ZM18.0401 16.2695L18.2342 15.5451L18.2342 15.5451L18.0401 16.2695ZM17.333 15.0448L18.0574 15.2389L18.0574 15.2389L17.333 15.0448ZM20.1013 16.8218L19.9072 17.5463L19.9072 17.5463L20.1013 16.8218ZM21.326 16.1147L22.0505 16.3088L22.0505 16.3088L21.326 16.1147ZM18.0956 12.2466C17.6974 12.1327 17.2822 12.3633 17.1684 12.7615C17.0545 13.1598 17.2851 13.5749 17.6833 13.6888L18.0956 12.2466ZM20.929 5.75698L21.5963 6.09934L20.929 5.75698ZM11.5361 19.6288C11.1787 20.1716 10.7669 20.5694 10.2383 20.8358C9.70466 21.1047 8.99833 21.2667 8.01261 21.2501L7.98739 22.7499C9.14821 22.7694 10.1093 22.5805 10.9133 22.1753C11.7224 21.7676 12.3186 21.168 12.7889 20.4538L11.5361 19.6288ZM13.6085 14.394C13.0608 14.9539 12.7153 15.4771 12.4987 15.9953C12.283 16.5113 12.2122 16.9834 12.168 17.3976C12.0814 18.211 12.0846 18.7959 11.5361 19.6288L12.7889 20.4538C13.5722 19.2643 13.5809 18.2952 13.6596 17.5565C13.6982 17.1946 13.75 16.8912 13.8826 16.5738C14.0144 16.2585 14.2429 15.8905 14.6808 15.443L13.6085 14.394ZM0.25 12.7892C0.25 15.1181 0.941429 17.5541 2.23799 19.4368C3.54085 21.3288 5.49485 22.708 7.98739 22.7499L8.01261 21.2501C6.12034 21.2183 4.57434 20.1848 3.4734 18.5861C2.36617 16.9783 1.75 14.8457 1.75 12.7892H0.25ZM12.8277 1.25C8.8201 1.25 5.66289 2.51151 3.50412 4.62404C1.34716 6.73479 0.25 9.63411 0.25 12.7892H1.75C1.75 9.98555 2.7198 7.49027 4.55324 5.69612C6.38487 3.90373 9.1415 2.75 12.8277 2.75V1.25ZM12.8277 2.75C15.844 2.75 18.886 3.91523 20.2054 6.01607L21.4757 5.21829C19.7679 2.49906 16.1014 1.25 12.8277 1.25V2.75ZM17.5357 12.9061C16.9162 12.9061 16.2537 12.9378 15.5836 13.1462C14.8992 13.359 14.245 13.7434 13.6085 14.394L14.6808 15.443C15.153 14.9603 15.5949 14.7135 16.0291 14.5785C16.4777 14.439 16.9564 14.4061 17.5357 14.4061V12.9061ZM6.45088 14.9185C6.45088 15.3604 6.09261 15.7187 5.65066 15.7187V17.2187C6.92103 17.2187 7.95088 16.1889 7.95088 14.9185H6.45088ZM5.65066 15.7187C5.20871 15.7187 4.85044 15.3604 4.85044 14.9185H3.35044C3.35044 16.1889 4.38028 17.2187 5.65066 17.2187V15.7187ZM4.85044 14.9185C4.85044 14.4765 5.20871 14.1183 5.65066 14.1183V12.6183C4.38028 12.6183 3.35044 13.6481 3.35044 14.9185H4.85044ZM5.65066 14.1183C6.09261 14.1183 6.45088 14.4765 6.45088 14.9185H7.95088C7.95088 13.6481 6.92103 12.6183 5.65066 12.6183V14.1183ZM8.51784 8.71762C8.51784 9.15957 8.15957 9.51784 7.71762 9.51784V11.0178C8.98799 11.0178 10.0178 9.98799 10.0178 8.71762H8.51784ZM7.71762 9.51784C7.27567 9.51784 6.9174 9.15957 6.9174 8.71762H5.4174C5.4174 9.98799 6.44724 11.0178 7.71762 11.0178V9.51784ZM6.9174 8.71762C6.9174 8.27567 7.27567 7.9174 7.71762 7.9174V6.4174C6.44724 6.4174 5.4174 7.44724 5.4174 8.71762H6.9174ZM7.71762 7.9174C8.15957 7.9174 8.51784 8.27567 8.51784 8.71762H10.0178C10.0178 7.44724 8.98799 6.4174 7.71762 6.4174V7.9174ZM14.7187 6.65066C14.7187 7.09261 14.3604 7.45088 13.9185 7.45088V8.95088C15.1889 8.95088 16.2187 7.92103 16.2187 6.65066H14.7187ZM13.9185 7.45088C13.4765 7.45088 13.1183 7.09261 13.1183 6.65066H11.6183C11.6183 7.92103 12.6481 8.95088 13.9185 8.95088V7.45088ZM13.1183 6.65066C13.1183 6.20871 13.4765 5.85044 13.9185 5.85044V4.35044C12.6481 4.35044 11.6183 5.38028 11.6183 6.65066H13.1183ZM13.9185 5.85044C14.3604 5.85044 14.7187 6.20871 14.7187 6.65066H16.2187C16.2187 5.38028 15.1889 4.35044 13.9185 4.35044V5.85044ZM17.5357 14.4061H17.705V12.9061H17.5357V14.4061ZM20.2954 16.0974L18.2342 15.5451L17.846 16.994L19.9072 17.5463L20.2954 16.0974ZM22.3539 4.29268C22.2877 4.27496 22.2441 4.21205 22.2507 4.14393L23.7437 4.28868C23.8079 3.62696 23.3842 3.01585 22.7421 2.84379L22.3539 4.29268ZM22.5175 4.21541C22.4892 4.27771 22.42 4.31039 22.3539 4.29268L22.7421 2.84379C22.0999 2.67172 21.4275 2.98913 21.1522 3.59427L22.5175 4.21541ZM17.7301 20.5953L17.2681 18.8398L15.8175 19.2215L16.2795 20.9771L17.7301 20.5953ZM19.4835 19.4334L18.2056 20.7227L19.271 21.7786L20.5489 20.4893L19.4835 19.4334ZM19.8138 18.8585C19.7556 19.0756 19.6418 19.2737 19.4835 19.4334L20.5489 20.4893C20.8909 20.1443 21.1369 19.7159 21.2627 19.2467L19.8138 18.8585ZM17.2681 18.8398C17.2109 18.6224 17.2114 18.3939 17.2696 18.1768L15.8207 17.7885C15.695 18.2578 15.6939 18.7517 15.8175 19.2215L17.2681 18.8398ZM16.2795 20.9771C16.6308 22.3116 18.2996 22.7588 19.271 21.7786L18.2056 20.7227C18.0512 20.8785 17.786 20.8074 17.7301 20.5953L16.2795 20.9771ZM21.2627 19.2467C21.6617 17.7575 20.7779 16.2268 19.2887 15.8278L18.9005 17.2767C19.5895 17.4613 19.9984 18.1695 19.8138 18.8585L21.2627 19.2467ZM17.2696 18.1768C17.4542 17.4878 18.1624 17.0789 18.8514 17.2635L19.2396 15.8146C17.7504 15.4156 16.2197 16.2993 15.8207 17.7885L17.2696 18.1768ZM18.8514 17.2635L18.9005 17.2767L19.2887 15.8278L19.2396 15.8146L18.8514 17.2635ZM18.0574 15.2389L18.4295 13.8502L16.9806 13.462L16.6085 14.8507L18.0574 15.2389ZM18.4294 13.8502L18.8464 12.2944L17.3975 11.9061L16.9806 13.462L18.4294 13.8502ZM22.2507 4.14393C22.1107 5.58849 22.0725 7.18925 21.982 8.681C21.8896 10.2044 21.7416 11.6661 21.3906 12.9761L22.8394 13.3643C23.231 11.903 23.3855 10.3176 23.4792 8.77181C23.5749 7.19435 23.6065 5.70381 23.7437 4.28868L22.2507 4.14393ZM18.2342 15.5451C18.1008 15.5093 18.0217 15.3723 18.0574 15.2389L16.6085 14.8507C16.3584 15.7842 16.9124 16.7438 17.846 16.994L18.2342 15.5451ZM19.9072 17.5463C20.8407 17.7964 21.8003 17.2424 22.0505 16.3088L20.6016 15.9206C20.5658 16.054 20.4288 16.1331 20.2954 16.0974L19.9072 17.5463ZM21.3906 12.9761L21.1403 13.91L22.5892 14.2982L22.8394 13.3643L21.3906 12.9761ZM21.1403 13.91L20.6016 15.9206L22.0505 16.3088L22.5892 14.2982L21.1403 13.91ZM17.6833 13.6888L21.6586 14.8252L22.0709 13.383L18.0956 12.2466L17.6833 13.6888ZM18.8464 12.2944C19.4122 10.1828 20.5154 8.20624 21.5963 6.09934L20.2617 5.41463C19.2212 7.44283 18.0156 9.59928 17.3975 11.9061L18.8464 12.2944ZM21.5963 6.09934C21.9144 5.4794 22.2283 4.85122 22.5175 4.21541L21.1522 3.59427C20.8773 4.19848 20.5758 4.80253 20.2617 5.41463L21.5963 6.09934ZM20.2068 6.01824L20.2953 6.15805L21.5628 5.35592L21.4743 5.21611L20.2068 6.01824Z" fill="black"/>
</svg>
