<svg width="24" height="24" viewBox="0 0 24 24" fill="none" xmlns="http://www.w3.org/2000/svg">
<path d="M16.0717 7.45308L15.3317 7.57548L16.0717 7.45308ZM17.2811 11.1241L16.6735 11.5638L16.6735 11.5638L17.2811 11.1241ZM16.2832 8.73181L17.0231 8.60941L16.2832 8.73181ZM6.71987 11.1241L7.32746 11.5638L7.32746 11.5638L6.71987 11.1241ZM7.71778 8.73181L6.97784 8.60941L6.97784 8.60941L7.71778 8.73181ZM7.9293 7.45308L8.66925 7.57547L8.66925 7.57547L7.9293 7.45308ZM17.6379 11.6172L18.2455 11.1775L18.2455 11.1775L17.6379 11.6172ZM6.36306 11.6172L5.75548 11.1775L5.75548 11.1775L6.36306 11.6172ZM9.23701 0.288433C8.84402 0.157538 8.41933 0.370006 8.28843 0.762994C8.15754 1.15598 8.37001 1.58067 8.76299 1.71157L9.23701 0.288433ZM9.15395 1.05128L8.91694 1.76284L8.91694 1.76284L9.15395 1.05128ZM18.2505 15.8241V16H19.7505V15.8241H18.2505ZM5.75049 16V15.8241H4.25049V16H5.75049ZM6.97065 12.0569L7.32746 11.5638L6.11229 10.6844L5.75548 11.1775L6.97065 12.0569ZM16.6735 11.5638L17.0303 12.0569L18.2455 11.1775L17.8887 10.6844L16.6735 11.5638ZM15.3317 7.57548L15.5432 8.85421L17.0231 8.60941L16.8116 7.33068L15.3317 7.57548ZM8.45773 8.8542L8.66925 7.57547L7.18936 7.33068L6.97784 8.60941L8.45773 8.8542ZM12.0005 4.75C13.6526 4.75 15.0621 5.9455 15.3317 7.57548L16.8116 7.33068C16.4222 4.97659 14.3866 3.25 12.0005 3.25V4.75ZM17.8887 10.6844C17.4434 10.0691 17.1471 9.35877 17.0231 8.60941L15.5432 8.85421C15.7051 9.83275 16.092 10.7603 16.6735 11.5638L17.8887 10.6844ZM7.32746 11.5638C7.90894 10.7603 8.29586 9.83274 8.45773 8.8542L6.97784 8.60941C6.85388 9.35877 6.55758 10.0691 6.11229 10.6844L7.32746 11.5638ZM12.0005 3.25C9.61441 3.25 7.57876 4.97659 7.18936 7.33068L8.66925 7.57547C8.93887 5.9455 10.3484 4.75 12.0005 4.75V3.25ZM12.0005 22.25C8.54871 22.25 5.75049 19.4518 5.75049 16H4.25049C4.25049 20.2802 7.72028 23.75 12.0005 23.75V22.25ZM18.2505 16C18.2505 19.4518 15.4523 22.25 12.0005 22.25V23.75C16.2807 23.75 19.7505 20.2802 19.7505 16H18.2505ZM19.7505 15.8241C19.7505 14.1554 19.2238 12.5293 18.2455 11.1775L17.0303 12.0569C17.8235 13.1529 18.2505 14.4713 18.2505 15.8241H19.7505ZM5.75049 15.8241C5.75049 14.4713 6.17749 13.1529 6.97065 12.0569L5.75548 11.1775C4.77717 12.5293 4.25049 14.1554 4.25049 15.8241H5.75049ZM14.2505 16C14.2505 17.2426 13.2431 18.25 12.0005 18.25V19.75C14.0716 19.75 15.7505 18.0711 15.7505 16H14.2505ZM12.0005 18.25C10.7578 18.25 9.75049 17.2426 9.75049 16H8.25049C8.25049 18.0711 9.92942 19.75 12.0005 19.75V18.25ZM9.75049 16C9.75049 14.7574 10.7578 13.75 12.0005 13.75V12.25C9.92942 12.25 8.25049 13.9289 8.25049 16H9.75049ZM12.0005 13.75C13.2431 13.75 14.2505 14.7574 14.2505 16H15.7505C15.7505 13.9289 14.0716 12.25 12.0005 12.25V13.75ZM8.76299 1.71157L8.91694 1.76284L9.39096 0.339709L9.23701 0.288433L8.76299 1.71157ZM8.91694 1.76284C10.0444 2.13836 10.875 3.0631 11.1508 4.17983L12.6071 3.82017C12.2099 2.21203 11.0143 0.880416 9.39096 0.339709L8.91694 1.76284Z" fill="black"/>
</svg>
