<svg width="24" height="24" viewBox="0 0 24 24" fill="none" xmlns="http://www.w3.org/2000/svg">
<path d="M8 19L7.25 19L7.25 19L8 19ZM7 20L7 20.75L7 20.75L7 20ZM7 4L7 3.25L7 4ZM8 5L8.75 5V5L8 5ZM4 5L4.75 5L4 5ZM5 4L5 4.75L5 4ZM4 19L3.25 19L4 19ZM5 20L5 19.25L5 19.25L5 20ZM16 5L16.75 5L16 5ZM17 4L17 4.75L17 4ZM17 20L17 19.25L17 20ZM16 19L15.25 19L16 19ZM20 19L20.75 19V19H20ZM19 20L19 20.75L19 20ZM20 5L19.25 5V5H20ZM19 4L19 3.25L19 4ZM1 16L0.25 16L1 16ZM2 7L2 7.75L2 7.75L2 7ZM2 17L2 16.25L2 16.25L2 17ZM23 8L22.25 8V8H23ZM23 16L23.75 16V16H23ZM22 17V16.25V17ZM22 7V6.25V7ZM8 11.25C7.58579 11.25 7.25 11.5858 7.25 12C7.25 12.4142 7.58579 12.75 8 12.75V11.25ZM16 12.75C16.4142 12.75 16.75 12.4142 16.75 12C16.75 11.5858 16.4142 11.25 16 11.25V12.75ZM4.75 19L4.75 5L3.25 5L3.25 19L4.75 19ZM5 4.75L7 4.75L7 3.25L5 3.25L5 4.75ZM7.25 5V19H8.75V5H7.25ZM7 19.25H5V20.75H7V19.25ZM7.25 19C7.25 19.1381 7.13807 19.25 7 19.25L7 20.75C7.9665 20.75 8.75 19.9665 8.75 19L7.25 19ZM7 4.75C7.13807 4.75 7.25 4.86193 7.25 5L8.75 5C8.75 4.0335 7.9665 3.25 7 3.25L7 4.75ZM4.75 5C4.75 4.86193 4.86193 4.75 5 4.75L5 3.25C4.0335 3.25 3.25 4.0335 3.25 5L4.75 5ZM3.25 19C3.25 19.9665 4.0335 20.75 5 20.75L5 19.25C4.86193 19.25 4.75 19.1381 4.75 19L3.25 19ZM19.25 5V19H20.75V5H19.25ZM19 19.25H17V20.75H19V19.25ZM16.75 19L16.75 5L15.25 5L15.25 19L16.75 19ZM17 4.75L19 4.75L19 3.25L17 3.25L17 4.75ZM16.75 5C16.75 4.86193 16.8619 4.75 17 4.75L17 3.25C16.0335 3.25 15.25 4.0335 15.25 5L16.75 5ZM17 19.25C16.8619 19.25 16.75 19.1381 16.75 19L15.25 19C15.25 19.9665 16.0335 20.75 17 20.75L17 19.25ZM19.25 19C19.25 19.1381 19.1381 19.25 19 19.25L19 20.75C19.9665 20.75 20.75 19.9665 20.75 19L19.25 19ZM20.75 5C20.75 4.0335 19.9665 3.25 19 3.25L19 4.75C19.1381 4.75 19.25 4.86193 19.25 5L20.75 5ZM1.75 16L1.75 8L0.25 8L0.25 16L1.75 16ZM2 7.75L4 7.75L4 6.25L2 6.25L2 7.75ZM4 16.25H2V17.75H4V16.25ZM1.75 8C1.75 7.86193 1.86193 7.75 2 7.75L2 6.25C1.0335 6.25 0.25 7.0335 0.25 8L1.75 8ZM0.25 16C0.25 16.9665 1.0335 17.75 2 17.75L2 16.25C1.86193 16.25 1.75 16.1381 1.75 16L0.25 16ZM22.25 8V16H23.75V8H22.25ZM22 16.25H20V17.75H22V16.25ZM20 7.75H22V6.25H20V7.75ZM22.25 16C22.25 16.1381 22.1381 16.25 22 16.25L22 17.75C22.9665 17.75 23.75 16.9665 23.75 16L22.25 16ZM23.75 8C23.75 7.0335 22.9665 6.25 22 6.25L22 7.75C22.1381 7.75 22.25 7.86193 22.25 8L23.75 8ZM8 12.75H16V11.25H8V12.75Z" fill="black"/>
</svg>
