<svg width="24" height="24" viewBox="0 0 24 24" fill="none" xmlns="http://www.w3.org/2000/svg">
<g clip-path="url(#clip0_1607_9008)">
<path d="M15.1758 9.06695L15.0256 7.95636C14.8996 6.859 15.687 5.86727 16.7844 5.74126C17.8817 5.61525 18.8735 6.40269 18.9995 7.50005L19.1234 8.52861M15.1758 9.06695L11.1384 9.61751M15.1758 9.06695L19.1234 8.52861M19.1234 8.52861L22.9997 7.99999M22.9997 7.99999C22.9997 4.134 19.8657 1 15.9997 1H15.7066C13.8154 1 11.9781 1.55893 10.4184 2.59024L10.8281 2.99994C11.6092 3.78098 11.6092 5.04731 10.8281 5.82836C10.0471 6.60941 8.78076 6.60941 7.99971 5.82836L7.37546 5.20412L1 11M22.9997 7.99999L23 8.11456V10.9C23 10.9553 22.9552 11 22.9 11H22C20.8954 11 20 11.8955 20 13C20 14.1046 20.8954 15 22 15H22.9C22.9552 15 23 15.0448 23 15.1V19.1271C23 19.6272 22.6306 20.0504 22.1351 20.1179L18.064 20.6731C17.9944 20.6826 17.9369 20.6193 17.9497 20.5503C17.9827 20.3719 18 20.188 18 20C18 18.3432 16.6569 17 15 17C13.3431 17 12 18.3432 12 20C12 20.4744 12.1101 20.923 12.3061 21.3217C12.3368 21.3843 12.2993 21.4602 12.2304 21.4706L2.13511 22.9908C1.53468 23.0727 1 22.606 1 22V19.1C1 19.0448 1.04477 19 1.1 19H2C3.10457 19 4 18.1046 4 17C4 15.8955 3.10457 15 2 15H1.1C1.04477 15 1 14.9553 1 14.9V11M1 11L7.41516 10.1252M7.41516 10.1252L7.34286 10.2364C7.0623 10.7148 6.93832 11.289 7.02915 11.8799C7.23895 13.2445 8.51531 14.1808 9.87999 13.971C11.2447 13.7612 12.1809 12.4848 11.9711 11.1201C11.88 10.5277 11.588 10.0161 11.175 9.64386L11.1384 9.61751M7.41516 10.1252L11.1384 9.61751" stroke="black" stroke-width="1.5" stroke-linecap="round" stroke-linejoin="round"/>
</g>
<defs>
<clipPath id="clip0_1607_9008">
<rect width="24" height="24" fill="white"/>
</clipPath>
</defs>
</svg>
