<svg width="24" height="24" viewBox="0 0 24 24" fill="none" xmlns="http://www.w3.org/2000/svg">
<path d="M20 15.0002L18.0192 22.2633C17.9005 22.6984 17.5053 23.0002 17.0544 23.0002H6.94562C6.49466 23.0002 6.0995 22.6984 5.98085 22.2633L4 15.0002M20 15.0002H16M20 15.0002C20 13.2498 19.1005 11.7094 17.7386 10.8162M4 15.0002H8M4 15.0002C4 13.2521 4.8971 11.7135 6.25603 10.8197M12 15.0002V23.0002M12 15.0002H16M12 15.0002H8M16 15.0002L15 23.0002M8 15.0002L9 23.0002M9.5 6.00019H14.5C14.647 6.00019 14.7919 6.00925 14.9342 6.02685M9.5 6.00019C7.567 6.00019 6 7.56719 6 9.50019C6 9.93424 6.07901 10.3498 6.22344 10.7334L6.25603 10.8197M9.5 6.00019C9.48764 5.71874 9.43025 5.44043 9.41009 5.15943C9.34681 4.27735 9.8295 3.42496 10.6564 3.03828C11.1951 2.78632 11.607 2.32437 11.7957 1.76031L11.9551 1.28395C12.0115 1.11516 12.1585 1.01422 12.315 1.00022C12.4314 0.9898 12.5531 1.02747 12.6467 1.12108L14.0217 2.4961C14.846 3.32038 15.2117 4.49759 14.9995 5.64382L14.9342 6.02685M14.9342 6.02685C16.6623 6.24067 18 7.71421 18 9.50019C18 9.93424 17.921 10.3498 17.7766 10.7334L17.7386 10.8162M6.25603 10.8197C7.04376 10.3016 7.98668 10.0002 9 10.0002H15C16.011 10.0002 16.9519 10.3002 17.7386 10.8162" stroke="black" stroke-width="1.5" stroke-linecap="round"/>
</svg>
