<svg width="24" height="24" viewBox="0 0 24 24" fill="none" xmlns="http://www.w3.org/2000/svg">
<g clip-path="url(#clip0_1607_9041)">
<path d="M9 6L9 19M15 19L15 6.18685C15 6.10698 15.0889 6.05969 15.1541 6.10581C16.9358 7.36617 18 9.41544 18 11.6056L18 14.3286C18 14.4233 17.9233 14.5 17.8286 14.5H15M11 6V9C11 10.1046 10.1046 11 9 11C7.89543 11 7 10.1046 7 9V6M23 12C23 18.0751 18.0751 23 12 23C5.92487 23 1 18.0751 1 12C1 5.92487 5.92487 1 12 1C18.0751 1 23 5.92487 23 12Z" stroke="black" stroke-width="1.5" stroke-linecap="round"/>
</g>
<defs>
<clipPath id="clip0_1607_9041">
<rect width="24" height="24" fill="white"/>
</clipPath>
</defs>
</svg>
