<svg width="24" height="24" viewBox="0 0 24 24" fill="none" xmlns="http://www.w3.org/2000/svg">
<g clip-path="url(#clip0_1607_9062)">
<path d="M7 16C7 13.7909 8.79086 12 11 12M1 8.42857C1 4.32588 3.92487 1 10 1H14C20.0751 1 23 4.32588 23 8.42857C23 11.8389 20.2646 15.1841 20.0178 15.4789C20.0046 15.4946 19.9929 15.5073 19.9787 15.522L19.8818 15.622C19.9595 16.0696 20 16.5301 20 17C20 19.2534 19.0683 21.2892 17.5692 22.7432C17.3943 22.9128 17.1572 23 16.9135 23H7.08654C6.84284 23 6.60572 22.9128 6.43078 22.7432C4.93165 21.2892 4 19.2534 4 17C4 16.5344 4.03977 16.0781 4.11611 15.6343L3.99978 15.4997C3.97061 15.4656 1 11.9825 1 8.42857ZM4 8.57143C4 6.0467 5.58172 4 10 4H14C18.4183 4 20 6.0467 20 8.57143C20 10.2701 18.8363 12.0242 18.5589 12.4183C17.1124 10.3515 14.7141 9 12 9C9.28595 9 6.88756 10.3515 5.44114 12.4183C5.16371 12.0242 4 10.2701 4 8.57143Z" stroke="black" stroke-width="1.5" stroke-linecap="round" stroke-linejoin="round"/>
</g>
<defs>
<clipPath id="clip0_1607_9062">
<rect width="24" height="24" fill="white"/>
</clipPath>
</defs>
</svg>
