<svg width="24" height="24" viewBox="0 0 24 24" fill="none" xmlns="http://www.w3.org/2000/svg">
<g clip-path="url(#clip0_1607_9070)">
<path d="M7 21L3.27639 13.5528C3.107 13.214 2.76074 13 2.38197 13H1M7 21H21.0989C21.4282 21 21.7364 21.1621 21.9229 21.4335L23 23M7 21H4M6.95825 20.9216L6.00024 23M20 8.81818C16.7867 8.81818 14.1818 6.21329 14.1818 2.99999M20 8.81818L20 11M20 8.81818C21.0975 8.81818 22.124 8.51431 23 7.98611M14.1818 2.99999L12 3M14.1818 2.99999C14.1818 2.29727 14.3064 1.62365 14.5347 1M14.3431 8.65685L15.8859 7.11407M5.76545 7.84897C6.35501 8.87013 6.00514 10.1759 4.98398 10.7654C3.96282 11.355 2.65707 11.0051 2.0675 9.98398C1.47794 8.96282 1.82781 7.65707 2.84897 7.06751C3.87013 6.47794 5.17588 6.82781 5.76545 7.84897ZM6.65269 20.4337L4.72122 16.4196C4.13228 15.1956 4.59237 13.7246 5.77378 13.0543C7.00068 12.3582 8.55914 12.7757 9.27388 13.9918L11.3126 17.4606C11.3422 17.511 11.4085 17.5254 11.4563 17.4918L14.3947 15.4257C14.7543 15.1728 15.237 15.1845 15.584 15.4546L19.0454 18.1481C19.4933 18.4967 19.5616 19.1479 19.1958 19.5819L18.641 20.2399C18.2865 20.6605 17.6588 20.7157 17.2363 20.3636L15.6402 19.0336C15.2693 18.7246 14.7307 18.7246 14.3598 19.0336L12.2781 20.7683C12.0984 20.9181 11.8719 21.0001 11.6379 21.0001L7.5538 21.0001C7.16956 21.0001 6.8193 20.78 6.65269 20.4337Z" stroke="black" stroke-width="1.5" stroke-linecap="round" stroke-linejoin="round"/>
</g>
<defs>
<clipPath id="clip0_1607_9070">
<rect width="24" height="24" fill="white"/>
</clipPath>
</defs>
</svg>
