<svg width="24" height="24" viewBox="0 0 24 24" fill="none" xmlns="http://www.w3.org/2000/svg">
<g clip-path="url(#clip0_1607_9091)">
<path d="M15 4C15 5.65685 13.6569 7 12 7C10.3431 7 9 5.65685 9 4C9 2.34315 10.3431 1 12 1C13.6569 1 15 2.34315 15 4Z" stroke="black" stroke-width="1.5" stroke-linecap="round"/>
<path d="M7 9C7 10.6569 5.65685 12 4 12C2.34315 12 1 10.6569 1 9C1 7.34315 2.34315 6 4 6C5.65685 6 7 7.34315 7 9Z" stroke="black" stroke-width="1.5" stroke-linecap="round"/>
<path d="M23 9C23 10.6569 21.6569 12 20 12C18.3431 12 17 10.6569 17 9C17 7.34315 18.3431 6 20 6C21.6569 6 23 7.34315 23 9Z" stroke="black" stroke-width="1.5" stroke-linecap="round"/>
<path d="M8.60884 13.1074C10.5242 11.3394 13.4763 11.3395 15.3916 13.1074L18.2614 15.7565C18.4204 15.9032 18.5677 16.0621 18.702 16.2317C21.3214 19.5405 17.9252 24.1988 13.9738 22.717L13.511 22.5434C12.5369 22.1782 11.4635 22.1782 10.4895 22.5434L10.0267 22.717C9.50393 22.913 8.9909 23.0016 8.50023 23C5.28197 22.9898 3.02563 19.1027 5.29852 16.2317C5.4328 16.0621 5.58009 15.9032 5.73905 15.7565L8.60884 13.1074Z" stroke="black" stroke-width="1.5" stroke-linecap="round"/>
</g>
<defs>
<clipPath id="clip0_1607_9091">
<rect width="24" height="24" fill="white"/>
</clipPath>
</defs>
</svg>
