<svg width="24" height="24" viewBox="0 0 24 24" fill="none" xmlns="http://www.w3.org/2000/svg">
<path d="M12.0002 14.5L12.0002 23M7.01287 12C7.19739 9.40661 9.35974 7.36 12.0001 7.36C14.6405 7.36 16.8028 9.40661 16.9874 12M3.07507 12.337L4.95974 20.818C4.98337 20.9244 5.07768 21 5.18662 21H7.18535C8.98765 21 10.7161 21.716 11.9906 22.9904C11.9959 22.9957 12.0045 22.9957 12.0098 22.9904C13.2842 21.716 15.0127 21 16.815 21H18.8137C18.9227 21 19.017 20.9244 19.0406 20.818L20.9253 12.337C20.9637 12.1641 20.8321 12 20.655 12H17.1852C15.1721 12 13.2681 12.9151 12.0105 14.4871C12.0052 14.4937 11.9951 14.4937 11.9898 14.4871C10.7323 12.9151 8.82828 12 6.81516 12L3.34539 12C3.16823 12 3.03664 12.1641 3.07507 12.337ZM14.2501 3.25C14.2501 4.49264 13.2428 5.5 12.0001 5.5C10.7575 5.5 9.75011 4.49264 9.75011 3.25C9.75011 2.00736 10.7575 1 12.0001 1C13.2428 1 14.2501 2.00736 14.2501 3.25Z" stroke="black" stroke-width="1.5" stroke-linecap="round"/>
</svg>
