<svg width="24" height="24" viewBox="0 0 24 24" fill="none" xmlns="http://www.w3.org/2000/svg">
<path d="M19 21V17M6 3L6 6.27273C6 9.88976 8.92841 12.8239 12.5454 12.831L15.0001 12.8359H16.8359C18.0311 12.8359 19 13.8048 19 15M13 3V4.45472C13 7.21605 15.2385 9.45454 17.9998 9.45455C20.7611 9.45455 22.9996 11.693 22.9996 14.4544V15M2 21H22C22.5523 21 23 20.5523 23 20V18C23 17.4477 22.5523 17 22 17H2C1.44772 17 1 17.4477 1 18V20C1 20.5523 1.44772 21 2 21Z" stroke="black" stroke-width="1.5" stroke-linecap="round" stroke-linejoin="round"/>
</svg>
