<svg width="24" height="24" viewBox="0 0 24 24" fill="none" xmlns="http://www.w3.org/2000/svg">
<g clip-path="url(#clip0_1607_9116)">
<path d="M6.92632 12.977C6.91185 12.5631 6.56454 12.2392 6.15058 12.2537C5.73662 12.2681 5.41276 12.6154 5.42723 13.0294L6.92632 12.977ZM1.0303 17.4263C0.616338 17.4119 0.269027 17.7357 0.254557 18.1497C0.240088 18.5636 0.56394 18.911 0.977901 18.9254L1.0303 17.4263ZM5.07455 23.0232C5.08902 23.4372 5.43633 23.761 5.85029 23.7465C6.26425 23.7321 6.5881 23.3848 6.57363 22.9708L5.07455 23.0232ZM10.9706 18.5739C11.3845 18.5883 11.7318 18.2645 11.7463 17.8505C11.7608 17.4366 11.4369 17.0892 11.023 17.0748L10.9706 18.5739ZM6.11256 15.959C6.40545 16.2519 6.88032 16.2519 7.17322 15.959C7.46611 15.6661 7.46611 15.1913 7.17322 14.8984L6.11256 15.959ZM5.88757 13.6127C5.59467 13.3198 5.1198 13.3198 4.82691 13.6127C4.53401 13.9056 4.53401 14.3805 4.82691 14.6734L5.88757 13.6127ZM9.10119 16.8269C8.80829 16.534 8.33342 16.534 8.04053 16.8269C7.74763 17.1198 7.74763 17.5946 8.04053 17.8875L9.10119 16.8269ZM9.32618 19.1732C9.61907 19.4661 10.0939 19.4661 10.3868 19.1732C10.6797 18.8803 10.6797 18.4054 10.3868 18.1125L9.32618 19.1732ZM4.82678 17.8874C5.11968 18.1803 5.59455 18.1803 5.88744 17.8874C6.18034 17.5945 6.18034 17.1197 5.88744 16.8268L4.82678 17.8874ZM4.60179 15.5411C4.3089 15.2482 3.83403 15.2482 3.54113 15.5411C3.24824 15.834 3.24824 16.3089 3.54113 16.6018L4.60179 15.5411ZM7.17322 18.1125C6.88032 17.8196 6.40545 17.8196 6.11256 18.1125C5.81966 18.4054 5.81966 18.8802 6.11256 19.1731L7.17322 18.1125ZM7.39821 20.4588C7.6911 20.7517 8.16597 20.7517 8.45887 20.4588C8.75176 20.1659 8.75176 19.691 8.45887 19.3981L7.39821 20.4588ZM2.89881 19.173C3.19171 19.4659 3.66658 19.4659 3.95947 19.173C4.25237 18.8802 4.25237 18.4053 3.95947 18.1124L2.89881 19.173ZM2.67382 16.8267C2.38093 16.5338 1.90606 16.5338 1.61316 16.8267C1.32027 17.1196 1.32027 17.5945 1.61316 17.8874L2.67382 16.8267ZM5.88744 20.0408C5.59455 19.7479 5.11968 19.7479 4.82678 20.0408C4.53389 20.3337 4.53389 20.8086 4.82678 21.1014L5.88744 20.0408ZM6.11243 22.3871C6.40532 22.68 6.8802 22.68 7.17309 22.3871C7.46599 22.0942 7.46599 21.6193 7.17309 21.3264L6.11243 22.3871ZM23 15.5L23.75 15.5L23 15.5ZM15.5 23L15.5 23.75L15.5 23ZM12.505 15.2075L13.2183 14.9758L13.2183 14.9758L12.505 15.2075ZM12.9051 13.9762L13.3459 14.583L13.3459 14.583L12.9051 13.9762ZM14.2963 18.258L14.2963 19.008H14.2963V18.258ZM13.2489 17.497L12.5356 17.7288L12.5356 17.7288L13.2489 17.497ZM17.7511 17.497L18.4644 17.7288L18.4644 17.7288L17.7511 17.497ZM16.7037 18.258L16.7037 17.508H16.7037V18.258ZM18.0949 13.9762L18.5357 13.3695L18.5357 13.3695L18.0949 13.9762ZM18.495 15.2075L17.7817 14.9758L17.7817 14.9758L18.495 15.2075ZM16.1473 12.5612L15.7065 13.168L15.7065 13.168L16.1473 12.5612ZM14.8527 12.5612L14.4118 11.9545L14.4118 11.9545L14.8527 12.5612ZM16.25 10.1081C16.25 9.69389 15.9142 9.3581 15.5 9.3581C15.0858 9.3581 14.75 9.69389 14.75 10.1081H16.25ZM17.7619 8.40223L17.3775 7.75822L17.3484 7.77557L17.321 7.79546L17.7619 8.40223ZM16.1475 9.57513L15.7066 8.96837L15.7066 8.96837L16.1475 9.57513ZM11.4064 19.8317L11.3914 20.5816L11.3914 20.5816L11.4064 19.8317ZM12.4384 20.6136L11.7206 20.831L11.7206 20.831L12.4384 20.6136ZM12.2897 22.7094C12.4098 23.1059 12.8285 23.3299 13.2249 23.2098C13.6213 23.0897 13.8453 22.671 13.7252 22.2746L12.2897 22.7094ZM12.2067 19.8478L11.6089 19.3949L11.6005 19.406L11.5925 19.4173L12.2067 19.8478ZM13.4419 18.2174L12.8656 17.7374L12.8545 17.7507L12.8441 17.7645L13.4419 18.2174ZM21.6518 20.5407C22.0659 20.5324 22.3949 20.19 22.3866 19.7758C22.3783 19.3617 22.0359 19.0327 21.6217 19.041L21.6518 20.5407ZM19.5942 19.8317L19.6092 20.5816L19.6092 20.5816L19.5942 19.8317ZM18.5622 20.6136L19.28 20.831L19.28 20.831L18.5622 20.6136ZM18.0459 22.3182L18.7539 22.5654L18.7591 22.5506L18.7636 22.5356L18.0459 22.3182ZM18.7933 19.8478L19.3938 19.3985L19.3911 19.3949L18.7933 19.8478ZM17.5581 18.2174L16.9356 18.6357L16.9475 18.6534L16.9603 18.6703L17.5581 18.2174ZM18.746 14.4577L18.9453 15.1807L18.9604 15.1766L18.9753 15.1718L18.746 14.4577ZM20.6935 13.8323L20.5008 13.1075L20.4824 13.1124L20.4642 13.1182L20.6935 13.8323ZM20.9434 13.0722L20.2309 12.838L20.2309 12.838L20.9434 13.0722ZM21.5654 11.1803L22.2779 11.4145L22.287 11.3866L22.294 11.3581L21.5654 11.1803ZM21.3393 14.3049L21.7822 13.6996L21.7822 13.6996L21.3393 14.3049ZM12.254 14.4577L12.0247 15.1718L12.0503 15.18L12.0765 15.1864L12.254 14.4577ZM10.3065 13.8323L10.0722 14.5448L10.0772 14.5464L10.3065 13.8323ZM13.5377 5.5234C13.8305 5.23051 13.8305 4.75564 13.5377 4.46274C13.2448 4.16985 12.7699 4.16985 12.477 4.46274L13.5377 5.5234ZM7.46296 9.47677C7.17007 9.76967 7.17007 10.2445 7.46296 10.5374C7.75586 10.8303 8.23073 10.8303 8.52362 10.5374L7.46296 9.47677ZM12.477 7.19469C12.7699 7.48758 13.2448 7.48758 13.5377 7.19469C13.8305 6.90179 13.8305 6.42692 13.5377 6.13403L12.477 7.19469ZM11.8663 4.46268C11.5734 4.16979 11.0985 4.16979 10.8057 4.46268C10.5128 4.75558 10.5128 5.23045 10.8057 5.52334L11.8663 4.46268ZM10.8054 8.86597C11.0983 9.15887 11.5732 9.15887 11.8661 8.86597C12.159 8.57308 12.159 8.0982 11.8661 7.80531L10.8054 8.86597ZM10.1948 6.13397C9.90187 5.84108 9.427 5.84108 9.1341 6.13397C8.84121 6.42686 8.84121 6.90174 9.1341 7.19463L10.1948 6.13397ZM9.13389 10.5374C9.42679 10.8303 9.90166 10.8303 10.1946 10.5374C10.4874 10.2445 10.4874 9.76962 10.1946 9.47673L9.13389 10.5374ZM8.52321 7.80539C8.23032 7.51249 7.75544 7.51249 7.46255 7.80539C7.16966 8.09828 7.16966 8.57315 7.46255 8.86605L8.52321 7.80539ZM16.5186 8.0686L15.8098 7.82358L16.5186 8.0686ZM15.7211 9.76312L15.0804 9.37321L15.7211 9.76312ZM10.0412 13.8049L10.1186 14.5509C10.1453 14.5482 10.1719 14.544 10.1982 14.5383L10.0412 13.8049ZM12.5075 14.5194L13.2191 14.7562L12.5075 14.5194ZM10.6596 19.8168L9.96069 19.5447L9.96069 19.5447L10.6596 19.8168ZM9.5 14.4293L8.97489 14.9648L9.5 14.4293ZM8.89675 13.9236L8.46157 14.5345L8.46157 14.5345L8.89675 13.9236ZM17.412 18L16.9297 17.4256L16.9297 17.4256L17.412 18ZM18.9494 20.0564L19.4035 20.6533L18.9494 20.0564ZM17.9508 22.5904L18.1958 23.2993L17.9508 22.5904ZM20.9452 13.7654L21.6565 13.5276L20.9452 13.7654ZM22.9999 15.5469L23.7498 15.5515L22.9999 15.5469ZM22.9285 15.4679L22.4855 16.0731L22.4855 16.0731L22.9285 15.4679ZM9.0052 21.0052C7.34548 22.6649 4.65452 22.6649 2.9948 21.0052L1.93414 22.0659C4.17965 24.3114 7.82035 24.3114 10.0659 22.0659L9.0052 21.0052ZM2.9948 21.0052C1.33507 19.3455 1.33507 16.6545 2.9948 14.9948L1.93414 13.9341C-0.311379 16.1797 -0.311379 19.8204 1.93414 22.0659L2.9948 21.0052ZM5.42723 13.0294C5.46702 14.1678 5.05294 15.3163 4.18505 16.1842L5.24571 17.2448C6.41986 16.0707 6.98003 14.5137 6.92632 12.977L5.42723 13.0294ZM4.18505 16.1842C3.31717 17.052 2.16866 17.4661 1.0303 17.4263L0.977901 18.9254C2.51462 18.9791 4.07157 18.419 5.24571 17.2448L4.18505 16.1842ZM6.57363 22.9708C6.53384 21.8324 6.94793 20.6839 7.81582 19.816L6.75516 18.7554C5.58101 19.9295 5.02083 21.4865 5.07455 23.0232L6.57363 22.9708ZM7.81582 19.816C8.6837 18.9482 9.83221 18.5341 10.9706 18.5739L11.023 17.0748C9.48625 17.0211 7.9293 17.5812 6.75516 18.7554L7.81582 19.816ZM7.17322 14.8984L5.88757 13.6127L4.82691 14.6734L6.11256 15.959L7.17322 14.8984ZM8.04053 17.8875L9.32618 19.1732L10.3868 18.1125L9.10119 16.8269L8.04053 17.8875ZM5.88744 16.8268L4.60179 15.5411L3.54113 16.6018L4.82678 17.8874L5.88744 16.8268ZM6.11256 19.1731L7.39821 20.4588L8.45887 19.3981L7.17322 18.1125L6.11256 19.1731ZM3.95947 18.1124L2.67382 16.8267L1.61316 17.8874L2.89881 19.173L3.95947 18.1124ZM4.82678 21.1014L6.11243 22.3871L7.17309 21.3264L5.88744 20.0408L4.82678 21.1014ZM15.7065 13.168L17.6541 14.583L18.5357 13.3695L16.5882 11.9545L15.7065 13.168ZM17.7817 14.9758L17.0378 17.2653L18.4644 17.7288L19.2083 15.4393L17.7817 14.9758ZM16.7037 17.508H14.2963V19.008H16.7037V17.508ZM13.9622 17.2653L13.2183 14.9758L11.7917 15.4393L12.5356 17.7288L13.9622 17.2653ZM13.3459 14.583L15.2935 13.168L14.4118 11.9545L12.4643 13.3695L13.3459 14.583ZM17.321 7.79546L15.7066 8.96837L16.5883 10.1819L18.2027 9.00899L17.321 7.79546ZM11.7206 20.831L12.2897 22.7094L13.7252 22.2746L13.1562 20.3961L11.7206 20.831ZM12.8045 20.3007L14.0397 18.6703L12.8441 17.7645L11.6089 19.3949L12.8045 20.3007ZM21.6217 19.041L19.5792 19.0819L19.6092 20.5816L21.6518 20.5407L21.6217 19.041ZM17.8445 20.3961L17.3281 22.1007L18.7636 22.5356L19.28 20.831L17.8445 20.3961ZM19.3911 19.3949L18.1559 17.7645L16.9603 18.6703L18.1955 20.3007L19.3911 19.3949ZM18.9753 15.1718L20.9228 14.5464L20.4642 13.1182L18.5167 13.7436L18.9753 15.1718ZM21.6559 13.3064L22.2779 11.4145L20.8529 10.9461L20.2309 12.838L21.6559 13.3064ZM23.3714 14.8626L21.7822 13.6996L20.8963 14.9101L22.4855 16.0731L23.3714 14.8626ZM12.4833 13.7436L10.5358 13.1182L10.0772 14.5464L12.0247 15.1718L12.4833 13.7436ZM12.8112 1.75H16.0769V0.25H12.8112V1.75ZM16.25 1.92308V5.18881H17.75V1.92308H16.25ZM4.75 13.0769V9.81119H3.25V13.0769H4.75ZM16.0769 1.75C16.1725 1.75 16.25 1.82749 16.25 1.92308H17.75C17.75 0.999063 17.0009 0.25 16.0769 0.25V1.75ZM12.8112 0.25C7.53069 0.25 3.25 4.53069 3.25 9.81119H4.75C4.75 5.35912 8.35912 1.75 12.8112 1.75V0.25ZM12.477 4.46274L7.46296 9.47677L8.52362 10.5374L13.5377 5.5234L12.477 4.46274ZM13.5377 6.13403L11.8663 4.46268L10.8057 5.52334L12.477 7.19469L13.5377 6.13403ZM11.8661 7.80531L10.1948 6.13397L9.1341 7.19463L10.8054 8.86597L11.8661 7.80531ZM10.1946 9.47673L8.52321 7.80539L7.46255 8.86605L9.13389 10.5374L10.1946 9.47673ZM16.25 5.18881C16.25 6.11277 16.0949 6.99892 15.8098 7.82358L17.2275 8.31362C17.5663 7.33345 17.75 6.28179 17.75 5.18881H16.25ZM15.8098 7.82358C15.6213 8.36886 15.3759 8.88777 15.0804 9.37321L16.3618 10.153C16.7122 9.57724 17.0036 8.96129 17.2275 8.31362L15.8098 7.82358ZM15.8713 10.4979C16.1249 10.4461 16.37 10.3405 16.5883 10.1819L15.7066 8.96837C15.6648 8.99876 15.6187 9.01855 15.5709 9.02832L15.8713 10.4979ZM16.5882 11.9545C16.2638 11.7188 15.8815 11.6009 15.5 11.6009L15.5 13.1009C15.5728 13.1009 15.6449 13.1232 15.7065 13.168L16.5882 11.9545ZM15.5 11.6009C15.1185 11.6009 14.7362 11.7188 14.4118 11.9545L15.2935 13.168C15.3551 13.1232 15.4272 13.1009 15.5 13.1009L15.5 11.6009ZM16.25 12.3509V10.1081H14.75V12.3509H16.25ZM15.0804 9.37321C13.9639 11.2077 12.1365 12.5603 9.98389 13.0496L10.3164 14.5123C12.8739 13.9309 15.0394 12.3259 16.3618 10.153L15.0804 9.37321ZM9.98389 13.0496C9.95078 13.0571 9.9176 13.0644 9.88433 13.0715L10.1982 14.5383C10.2377 14.5299 10.2771 14.5212 10.3164 14.5123L9.98389 13.0496ZM10.5408 13.1199L10.3844 13.0685L9.91584 14.4934L10.0722 14.5448L10.5408 13.1199ZM13.2183 14.9758C13.1945 14.9025 13.1958 14.8262 13.2191 14.7562L11.7958 14.2826C11.674 14.6487 11.6664 15.0536 11.7917 15.4393L13.2183 14.9758ZM13.2191 14.7562C13.2418 14.6879 13.285 14.6272 13.3459 14.583L12.4643 13.3695C12.1436 13.6024 11.9149 13.9248 11.7958 14.2826L13.2191 14.7562ZM12.0765 15.1864L12.33 15.2481L12.6849 13.7907L12.4314 13.729L12.0765 15.1864ZM10.6446 20.5666L11.3914 20.5816L11.4215 19.0819L10.6746 19.0669L10.6446 20.5666ZM9.0052 14.9948C10.2343 16.2239 10.5543 18.0199 9.96069 19.5447L11.3585 20.0889C12.1602 18.0296 11.7308 15.599 10.0659 13.9341L9.0052 14.9948ZM9.96069 19.5447C9.85137 19.8255 9.71106 20.097 9.5397 20.354L10.7877 21.1862C11.02 20.8378 11.2103 20.4696 11.3585 20.0889L9.96069 19.5447ZM9.5397 20.354C9.38669 20.5835 9.20863 20.8018 9.0052 21.0052L10.0659 22.0659C10.3395 21.7923 10.5802 21.4973 10.7877 21.1862L9.5397 20.354ZM15.5 22.25C13.6207 22.25 11.9219 21.483 10.6973 20.2431L9.63008 21.2971C11.125 22.8107 13.2035 23.75 15.5 23.75L15.5 22.25ZM4.76015 13.1361C4.7538 13.1186 4.75 13.099 4.75 13.0769H3.25C3.25 13.2763 3.28521 13.4691 3.35038 13.6485L4.76015 13.1361ZM2.9948 14.9948C3.39614 14.5935 3.85625 14.2901 4.34666 14.0833L3.76388 12.7012C3.09796 12.982 2.47484 13.3934 1.93414 13.9341L2.9948 14.9948ZM8.97489 14.9648C8.98503 14.9747 8.99513 14.9847 9.0052 14.9948L10.0659 13.9341C10.0523 13.9206 10.0387 13.9072 10.0251 13.8938L8.97489 14.9648ZM4.34666 14.0833C5.6835 13.5197 7.24996 13.6713 8.46157 14.5345L9.33193 13.3128C7.68841 12.1419 5.57086 11.9393 3.76388 12.7012L4.34666 14.0833ZM8.46157 14.5345C8.64066 14.6621 8.8124 14.8054 8.97489 14.9648L10.0251 13.8938C9.80646 13.6794 9.57456 13.4857 9.33192 13.3128L8.46157 14.5345ZM9.96388 13.0589L8.81938 13.1776L8.97411 14.6696L10.1186 14.5509L9.96388 13.0589ZM11.3914 20.5816C11.4687 20.5831 11.5405 20.6096 11.5991 20.6547L12.5155 19.4673C12.2091 19.2308 11.8282 19.09 11.4215 19.0819L11.3914 20.5816ZM11.5991 20.6547C11.6559 20.6986 11.6989 20.7591 11.7206 20.831L13.1562 20.3961C13.0417 20.018 12.8132 19.697 12.5155 19.4673L11.5991 20.6547ZM11.5925 19.4173L11.4431 19.6306L12.6715 20.4914L12.8209 20.2782L11.5925 19.4173ZM14.2963 17.508C14.2146 17.508 14.1382 17.48 14.0769 17.4311L13.1406 18.603C13.4608 18.8588 13.8655 19.008 14.2963 19.008L14.2963 17.508ZM14.0769 17.4311C14.0244 17.3891 13.984 17.3324 13.9622 17.2653L12.5356 17.7288C12.6503 18.0817 12.8645 18.3824 13.1406 18.603L14.0769 17.4311ZM14.0182 18.6974L14.185 18.497L13.0325 17.537L12.8656 17.7374L14.0182 18.6974ZM17.0378 17.2653C17.0169 17.3296 16.979 17.3842 16.9297 17.4256L17.8943 18.5744C18.1535 18.3567 18.3546 18.0666 18.4644 17.7288L17.0378 17.2653ZM16.9297 17.4256C16.8674 17.4779 16.7883 17.508 16.7037 17.508L16.7037 19.008C17.1503 19.008 17.5689 18.8476 17.8943 18.5744L16.9297 17.4256ZM18.1806 17.799L18.0345 17.5816L16.7895 18.4184L16.9356 18.6357L18.1806 17.799ZM19.5792 19.0819C19.177 19.09 18.7998 19.2277 18.4952 19.4596L19.4035 20.6533C19.4617 20.609 19.5328 20.5831 19.6092 20.5816L19.5792 19.0819ZM18.4952 19.4596C18.1926 19.6898 17.9603 20.0137 17.8445 20.3961L19.28 20.831C19.302 20.7583 19.3458 20.6972 19.4035 20.6533L18.4952 19.4596ZM18.1927 20.2971L18.3488 20.5057L19.5499 19.6071L19.3938 19.3985L18.1927 20.2971ZM17.7058 21.8816C17.0156 22.1201 16.2737 22.25 15.5 22.25L15.5 23.75C16.4427 23.75 17.35 23.5916 18.1958 23.2993L17.7058 21.8816ZM17.3378 22.071L17.2427 22.3432L18.6589 22.8376L18.7539 22.5654L17.3378 22.071ZM17.6541 14.583C17.7157 14.6277 17.7592 14.6894 17.7817 14.7586L19.2083 14.2951C19.0904 13.9323 18.8601 13.6051 18.5357 13.3695L17.6541 14.583ZM17.7817 14.7586C17.8042 14.8279 17.8052 14.9033 17.7817 14.9758L19.2083 15.4393C19.3322 15.058 19.3262 14.6579 19.2083 14.2951L17.7817 14.7586ZM18.5468 13.7346L18.2957 13.8038L18.6942 15.2499L18.9453 15.1807L18.5468 13.7346ZM20.2309 12.838C20.1033 13.2263 20.1106 13.6344 20.2339 14.0032L21.6565 13.5276C21.6329 13.4571 21.6317 13.3801 21.6559 13.3064L20.2309 12.838ZM20.2339 14.0032C20.3526 14.3581 20.5791 14.6779 20.8963 14.9101L21.7822 13.6996C21.7219 13.6555 21.6791 13.5953 21.6565 13.5276L20.2339 14.0032ZM20.8863 14.5571L21.138 14.4902L20.7524 13.0406L20.5008 13.1075L20.8863 14.5571ZM22.25 15.5C22.25 15.5141 22.25 15.5282 22.2499 15.5423L23.7498 15.5515C23.7499 15.5343 23.75 15.5172 23.75 15.5L22.25 15.5ZM22.2499 15.5423C22.2319 18.4782 20.339 20.9716 17.7058 21.8816L18.1958 23.2993C21.412 22.1878 23.7279 19.1427 23.7498 15.5515L22.2499 15.5423ZM20.9745 11.5503C21.7771 12.6607 22.25 14.024 22.25 15.5L23.75 15.5C23.75 13.6981 23.1714 12.0291 22.1901 10.6715L20.9745 11.5503ZM22.294 11.3581L22.3109 11.2887L20.8537 10.9331L20.8367 11.0025L22.294 11.3581ZM16.4177 8.81178C16.8211 8.86655 17.2129 8.95692 17.59 9.07958L18.0539 7.65314C17.5922 7.50295 17.1127 7.39238 16.6196 7.32542L16.4177 8.81178ZM17.59 9.07958C18.9631 9.52621 20.1445 10.4022 20.9745 11.5503L22.1901 10.6715C21.1775 9.27074 19.735 8.19993 18.0539 7.65314L17.59 9.07958ZM18.1462 9.04624L18.2063 9.01037L17.4376 7.72235L17.3775 7.75822L18.1462 9.04624ZM22.4855 16.0731C22.4319 16.0339 22.3868 15.984 22.3531 15.9267L23.6466 15.1671C23.5766 15.0479 23.4829 14.9443 23.3714 14.8626L22.4855 16.0731Z" fill="black"/>
</g>
<defs>
<clipPath id="clip0_1607_9116">
<rect width="24" height="24" fill="white"/>
</clipPath>
</defs>
</svg>
