<svg width="24" height="24" viewBox="0 0 24 24" fill="none" xmlns="http://www.w3.org/2000/svg">
<path d="M18.7082 6.00015C19.7687 7.18509 20.5199 8.6527 20.8349 10.276M16.4485 4.03501L12.9946 5.7079M17.6434 6.50209L14.1895 8.17498M9.5885 8.78216L9.60531 8.80692C9.61454 8.82051 9.62398 8.83383 9.63362 8.84686C9.63787 8.85261 9.64101 8.8591 9.64288 8.866C9.64713 8.88164 9.65173 8.8973 9.65667 8.91297L10.307 10.9731C10.4369 11.3844 10.9015 11.5847 11.2896 11.3967C11.5132 11.2884 11.6635 11.0708 11.6857 10.8234L11.8176 9.35337C11.8193 9.33419 11.8309 9.31732 11.8483 9.30892L14.3574 8.09364C14.3879 8.07888 14.4243 8.09502 14.4339 8.12752L15.3919 11.3867C15.5988 12.0906 16.3882 12.4402 17.0485 12.1204C17.4799 11.9115 17.7433 11.4637 17.7163 10.9852L17.4707 6.62321C17.4694 6.60111 17.4816 6.58043 17.5015 6.57078L19.8638 5.42664C20.124 5.30058 20.3264 5.10302 20.4588 4.869M9.5885 8.78216L8.39206 7.01942C8.14984 6.66255 8.28074 6.17384 8.66892 5.98583C8.89246 5.87756 9.15641 5.8945 9.36428 6.03046L10.5994 6.83839C10.6156 6.84893 10.636 6.85024 10.6534 6.84185L13.1463 5.63438C13.1768 5.61961 13.1868 5.581 13.1672 5.55335L11.369 3.01414M9.5885 8.78216L9.21668 9.0001C3.69285 12.3619 0.140752 16.4092 1.19626 18.2374C1.76629 19.2247 3.56882 19.3719 5.99997 18.8096L6.08595 18.7846M20.4588 4.869C20.6729 4.4905 20.7037 4.01663 20.4998 3.59564C20.1699 2.91438 19.3501 2.62959 18.6688 2.95956L16.2663 4.12323C16.2464 4.13288 16.2226 4.1296 16.206 4.11493L13.023 1.29516C12.7776 1.07772 12.4591 0.975844 12.1443 1.00009C11.999 1.01128 11.8545 1.04935 11.7182 1.11534C11.058 1.43514 10.8429 2.27128 11.2669 2.86999L11.369 3.01414M20.4588 4.869H20.7321C21.7494 4.90907 22.4772 5.1989 22.8028 5.76287C23.3611 6.72997 22.6301 8.31805 21 10.0971L20.8349 10.276M20.8349 10.276C20.9431 10.8341 20.9998 11.4105 20.9998 12.0002C20.9998 16.9707 16.9704 21.0002 11.9998 21.0002C9.73609 21.0002 7.66755 20.1644 6.08595 18.7846M6.08595 18.7846C4.19479 17.1347 2.99984 14.707 2.99984 12.0002C2.99984 7.3676 6.49989 3.55252 10.9998 3.05508L11.369 3.01414" stroke="black" stroke-width="1.5" stroke-linecap="round"/>
</svg>
