<svg width="24" height="24" viewBox="0 0 24 24" fill="none" xmlns="http://www.w3.org/2000/svg">
<g clip-path="url(#clip0_1607_9137)">
<path d="M22.0834 1.91663L17.5001 6.49995M17.5001 6.49995L17.5 1M17.5001 6.49995L23.0001 6.50006M17.5001 6.49995L15.7249 4.7249C14.8001 3.80006 13.5749 3.23657 12.2709 3.13626C9.91946 2.95538 7.71613 4.29945 6.80095 6.47299L1.46128 19.1547C1.16856 19.8499 1.19424 20.6383 1.53158 21.313C1.78161 21.813 2.18708 22.2185 2.68713 22.4685C3.3618 22.8059 4.1502 22.8315 4.84539 22.5388L17.5271 17.1992C19.7007 16.284 21.0447 14.0806 20.8638 11.7292C20.7635 10.4252 20.2 9.20001 19.2752 8.27517L17.5001 6.49995ZM20.2328 14.7328L13.3751 7.87501M11.0246 15.2672L5.44672 9.68929M8.33971 21.0675L5.66095 18.3888" stroke="black" stroke-width="1.5" stroke-linecap="round"/>
</g>
<defs>
<clipPath id="clip0_1607_9137">
<rect width="24" height="24" fill="white"/>
</clipPath>
</defs>
</svg>
