<svg width="24" height="24" viewBox="0 0 24 24" fill="none" xmlns="http://www.w3.org/2000/svg">
<path d="M6 6.00001V6.50001M6 10V10.5M8.25 8.25001H7.75M4.25 8.25001H3.75M18 6.25018V6.27742M18 10.2269V10.2541M16 8.25018V8.27742M20 8.25018V8.27742M6.60691 16.435L5.07255 19.7592C4.72369 20.515 3.96731 20.999 3.1349 20.9991C1.95589 20.9993 1 20.0436 1 18.8646V8C1 5.23858 3.23858 3 6 3C6.78272 3 7.52344 3.17986 8.18308 3.50049C8.20535 3.50015 8.22766 3.49998 8.25001 3.49998H15.75C15.7723 3.49998 15.7947 3.50015 15.8169 3.50049C16.4766 3.17986 17.2173 3 18 3C20.7614 3 23 5.23858 23 8V18.8646C23 20.0436 22.0441 20.9993 20.8651 20.9991C20.0327 20.999 19.2763 20.515 18.9274 19.7592L17.393 16.4351M6.60691 16.435C6.96705 16.7847 7.45838 17 8 17C9.10457 17 10 16.1046 10 15C10 14.6357 9.90261 14.2942 9.73244 14M6.60691 16.435C6.23259 16.0716 6 15.563 6 15C6 13.8954 6.89543 13 8 13C8.74028 13 9.38663 13.4022 9.73244 14M9.73244 14H14.2676M14.2676 14C14.0974 14.2942 14 14.6357 14 15C14 16.1046 14.8954 17 16 17C16.5416 17 17.0329 16.7847 17.393 16.4351M14.2676 14C14.6134 13.4022 15.2597 13 16 13C17.1046 13 18 13.8954 18 15C18 15.563 17.7674 16.0716 17.393 16.4351" stroke="black" stroke-width="1.5" stroke-linecap="round" stroke-linejoin="round"/>
</svg>
