<svg width="24" height="24" viewBox="0 0 24 24" fill="none" xmlns="http://www.w3.org/2000/svg">
<path d="M12 10L12 23M18 14V9C18 8.44772 17.5523 8 17 8H15C13.3431 8 12 9.34315 12 11M12 14V11M12 11C12 9.34315 10.6569 8 9 8H7C6.44772 8 6 8.44772 6 9V14M18 18V13C18 12.4477 17.5523 12 17 12H15C13.3431 12 12 13.3431 12 15M12 18V15M12 15C12 13.3431 10.6569 12 9 12H7C6.44772 12 6 12.4477 6 13V18M12 21V19M12 21C12 21.5523 12.4477 22 13 22H15C16.6569 22 18 20.6569 18 19V17C18 16.4477 17.5523 16 17 16H15C13.3431 16 12 17.3431 12 19M12 21C12 21.5523 11.5523 22 11 22H9C7.34315 22 6 20.6569 6 19V17C6 16.4477 6.44772 16 7 16H9C10.6569 16 12 17.3431 12 19M12.7074 8.36396L14.1216 6.94975C15.2931 5.77817 15.2931 3.87868 14.1216 2.70711L12.7074 1.29289C12.5121 1.09763 12.2562 1 12.0002 1C11.7443 1 11.4884 1.09763 11.2931 1.29289L9.87892 2.70711C8.70735 3.87868 8.70735 5.77817 9.87892 6.94975L11.2931 8.36396C11.6837 8.75449 12.3168 8.75449 12.7074 8.36396Z" stroke="black" stroke-width="1.5" stroke-linecap="round" stroke-linejoin="round"/>
</svg>
