<svg width="24" height="24" viewBox="0 0 24 24" fill="none" xmlns="http://www.w3.org/2000/svg">
<path d="M12.2207 10.9408C12.2207 10.7993 12.3354 10.6846 12.4769 10.6846C12.617 10.6846 12.7308 10.7969 12.7332 10.9364V10.9452C12.7328 10.9677 12.7295 10.9895 12.7237 11.0102L12.6974 11.0715C12.6528 11.1467 12.5707 11.1971 12.4769 11.1971C12.3354 11.1971 12.2207 11.0823 12.2207 10.9408Z" fill="black"/>
<path fill-rule="evenodd" clip-rule="evenodd" d="M22 6.9231C22.5523 6.9231 23 7.37081 23 7.9231V15.9744C23 16.5267 22.5523 16.9744 22 16.9744L16.9148 16.9744C16.886 16.9744 16.8584 16.9859 16.8382 17.0063L13.6072 20.2733C12.9793 20.9082 11.8974 20.4644 11.8962 19.5714L11.8928 17.0819C11.8927 17.0225 11.8446 16.9744 11.7851 16.9744H10C9.44772 16.9744 9 16.5267 9 15.9744V7.9231C9 7.37081 9.44772 6.9231 10 6.9231H22ZM16.1378 13.8281L16.1378 11.25L15.9594 11.3392C15.5889 11.5245 15.1384 11.3743 14.9531 11.0038C14.7679 10.6333 14.9181 10.1828 15.2885 9.99758L16.4828 9.40045C17.0135 9.13511 17.6378 9.521 17.6378 10.1143V13.8281C17.6378 14.2423 17.3021 14.5781 16.8878 14.5781C16.4736 14.5781 16.1378 14.2423 16.1378 13.8281ZM19.7793 11.2647V13.8429C19.7793 14.2571 20.1151 14.5929 20.5293 14.5929C20.9435 14.5929 21.2793 14.2571 21.2793 13.8429V10.129C21.2793 9.53575 20.6549 9.14987 20.1243 9.4152L18.93 10.0123C18.5595 10.1976 18.4093 10.6481 18.5946 11.0186C18.7798 11.389 19.2303 11.5392 19.6008 11.354L19.7793 11.2647ZM12.4769 9.18457C13.3872 9.18457 14.1356 9.877 14.2244 10.7638C14.2302 10.8013 14.2332 10.8398 14.2332 10.8789V10.9293L14.2332 10.9408L14.2332 10.9523V10.9768C14.2332 11.1586 14.2013 11.3388 14.1392 11.5093C14.1146 11.5811 14.0855 11.6508 14.0522 11.7182L12.965 14.255C12.8018 14.6358 12.3609 14.8121 11.9802 14.649C11.5995 14.4858 11.4231 14.0449 11.5863 13.6642L12.0258 12.6386C11.2745 12.4394 10.7207 11.7548 10.7207 10.9408C10.7207 9.97087 11.507 9.18457 12.4769 9.18457Z" fill="black"/>
<path fill-rule="evenodd" clip-rule="evenodd" d="M12 1H2C1.44772 1 1 1.44772 1 2V22C1 22.5523 1.44772 23 2 23H12C12.5275 23 12.9596 22.5916 12.9973 22.0737C11.6843 22.1176 10.3982 21.1123 10.3962 19.5734L10.3947 18.4744H10C8.61929 18.4744 7.5 17.3551 7.5 15.9744V7.9231C7.5 6.54238 8.61929 5.4231 10 5.4231L13 5.4231V2C13 1.44772 12.5523 1 12 1ZM7 19.25C7.41421 19.25 7.75 19.5858 7.75 20V20.0318C7.75 20.446 7.41421 20.7818 7 20.7818C6.58579 20.7818 6.25 20.446 6.25 20.0318V20C6.25 19.5858 6.58579 19.25 7 19.25ZM4.5 3.25C4.08579 3.25 3.75 3.58579 3.75 4C3.75 4.41421 4.08579 4.75 4.5 4.75H9.5C9.91421 4.75 10.25 4.41421 10.25 4C10.25 3.58579 9.91421 3.25 9.5 3.25H4.5Z" fill="black"/>
</svg>
