<svg width="24" height="24" viewBox="0 0 24 24" fill="none" xmlns="http://www.w3.org/2000/svg">
<path fill-rule="evenodd" clip-rule="evenodd" d="M8 18.25V10.75H16V18.25H8ZM11.8795 12.5668L10.73 14.4059C10.5957 14.6209 10.5236 14.8495 10.5049 15.0761C10.4369 15.9009 11.0772 16.6973 12 16.6973C13.1763 16.6973 13.8934 15.4034 13.27 14.4059L12.1205 12.5668C12.0927 12.5223 12.0463 12.5 12 12.5C11.9537 12.5 11.9073 12.5223 11.8795 12.5668Z" fill="black"/>
<path d="M8.0702 19.75C8.42125 21.6006 10.0472 23 12 23C13.9528 23 15.5787 21.6006 15.9298 19.75H8.0702Z" fill="black"/>
<path d="M16 9.25H8V7.5H16V9.25Z" fill="black"/>
<path d="M9.75 6L11.25 6L11.25 4C11.25 3.58579 11.5858 3.25 12 3.25C12.4142 3.25 12.75 3.58579 12.75 4L12.75 6L14.25 6L14.25 4C14.25 3.58579 14.5858 3.25 15 3.25C15.4142 3.25 15.75 3.58579 15.75 4L15.75 6L17 6C17.5523 6 18 5.55228 18 5V2C18 1.44772 17.5523 1 17 1H7C6.44772 1 6 1.44772 6 2V5C6 5.55228 6.44772 6 7 6L8.25 6L8.25 4C8.25 3.58579 8.58579 3.25 9 3.25C9.41421 3.25 9.75 3.58579 9.75 4L9.75 6Z" fill="black"/>
</svg>
