<svg width="24" height="24" viewBox="0 0 24 24" fill="none" xmlns="http://www.w3.org/2000/svg">
<path d="M8.15 4.575C8.15 4.64524 8.14797 4.71501 8.14398 4.78425L16.6233 7.43404C16.6586 7.44508 16.6925 7.45848 16.7249 7.47402C17.3804 6.71964 18.3468 6.24268 19.4246 6.24268C21.399 6.24268 22.9996 7.84326 22.9996 9.81768C22.9996 11.7921 21.399 13.3927 19.4246 13.3927C17.4502 13.3927 15.8496 11.7921 15.8496 9.81768C15.8496 9.46736 15.9 9.12882 15.9939 8.80889L7.74422 6.23086C7.35777 6.969 6.721 7.55542 5.94663 7.87741L8.7818 16.0092C9.1161 15.9058 9.47137 15.8501 9.83965 15.8501C11.8141 15.8501 13.4146 17.4507 13.4146 19.4251C13.4146 21.3995 11.8141 23.0001 9.83965 23.0001C7.86523 23.0001 6.26465 21.3995 6.26465 19.4251C6.26465 18.3632 6.72764 17.4094 7.46278 16.7546C7.44456 16.7206 7.42874 16.6846 7.41562 16.647L4.45239 8.14794C2.53474 8.08331 1 6.50838 1 4.575C1 2.60058 2.60058 1 4.575 1C6.54942 1 8.15 2.60058 8.15 4.575Z" fill="black"/>
</svg>
