<svg width="24" height="24" viewBox="0 0 24 24" fill="none" xmlns="http://www.w3.org/2000/svg">
<path d="M11.8914 1C10.8526 1 9.88383 1.30328 9.06646 1.82721C9.07553 1.83818 9.0844 1.84941 9.09305 1.86091L10.7308 4.03746C11.0163 3.8646 11.4031 3.71681 11.8913 3.71681C12.4346 3.71681 12.8523 3.8998 13.1446 4.09671L14.7705 1.93583C14.7829 1.91936 14.7958 1.90343 14.809 1.88805C13.9726 1.32683 12.9697 1 11.8914 1Z" fill="black"/>
<path d="M15.2399 2.78649L15.2389 2.78762L15.4788 2.46877C15.4814 2.46538 15.4844 2.46266 15.4878 2.46062C15.4994 2.45346 15.5148 2.45439 15.5256 2.46422C16.5075 3.36188 16.6451 4.87292 15.8417 5.93739L9.93323 13.7661C9.7544 14.0031 9.43016 14.0695 9.17455 13.9215L8.14611 13.326C7.83746 13.1473 7.75474 12.7341 7.97028 12.4476L15.2399 2.78649Z" fill="black"/>
<path d="M8.36248 2.38132C8.37099 2.38211 8.37919 2.38636 8.38482 2.39384L11.4054 6.40812L9.92188 8.37968L8.02223 5.86263C7.23017 4.81316 7.35269 3.3296 8.29733 2.42776C8.31082 2.41488 8.32446 2.4021 8.33828 2.38947C8.34355 2.38465 8.34995 2.38197 8.35647 2.38133C8.35847 2.38114 8.36049 2.38113 8.36248 2.38132Z" fill="black"/>
<path d="M13.9307 13.6914L12.5154 11.8161L13.9972 9.85259L15.8936 12.3729C16.1092 12.6593 16.0264 13.0725 15.7178 13.2513L14.6894 13.8467C14.4338 13.9947 14.1095 13.9283 13.9307 13.6914Z" fill="black"/>
<path d="M4.00849 15.748V13.5042C4.00849 12.6763 3.33944 12.004 2.51151 12C1.67791 11.996 1 12.6706 1 13.5042V18.5851C1 18.6883 1.02759 18.7896 1.07993 18.8786L3.35505 22.7462C3.44489 22.8989 3.60884 22.9927 3.78602 22.9927H8.89981C8.95503 22.9927 8.9998 22.9479 8.99981 22.8927L9 18.9686C9.00003 18.344 8.76622 17.742 8.34459 17.2811L7.33615 15.9453C6.626 15.0334 6.12532 15.3238 5.44295 15.7195L5.36725 15.7634C5.318 15.7918 5.24483 15.8422 5.24483 15.8422L5 16L6.85375 18.5476C7.10225 18.879 7.03505 19.3491 6.70366 19.5976C6.37226 19.8461 5.90217 19.7789 5.65367 19.4475L4.25389 17.5808C4.09165 17.3645 4.00395 17.1013 4.00395 16.8309V15.8309C4.00395 15.8029 4.00549 15.7752 4.00849 15.748Z" fill="black"/>
<path d="M19.9915 13.5042V15.748C19.9945 15.7752 19.996 15.8029 19.996 15.8309V16.8309C19.996 17.1013 19.9083 17.3645 19.7461 17.5808L18.3463 19.4475C18.0978 19.7789 17.6277 19.8461 17.2963 19.5976C16.965 19.3491 16.8978 18.879 17.1463 18.5476L19 16L18.7552 15.8422C18.7552 15.8422 18.682 15.7918 18.6328 15.7634C18.6073 15.7486 18.582 15.734 18.557 15.7195C17.8747 15.3238 17.374 15.0334 16.6639 15.9453L15.6554 17.2811C15.2338 17.742 15 18.344 15 18.9686L15.0002 22.8927C15.0002 22.9479 15.045 22.9927 15.1002 22.9927H20.214C20.3912 22.9927 20.5551 22.8989 20.6449 22.7462L22.9201 18.8786C22.9724 18.7896 23 18.6883 23 18.5851V13.5042C23 12.6706 22.3221 11.996 21.4885 12C20.6606 12.004 19.9915 12.6763 19.9915 13.5042Z" fill="black"/>
</svg>
