<svg width="24" height="24" viewBox="0 0 24 24" fill="none" xmlns="http://www.w3.org/2000/svg">
<path fill-rule="evenodd" clip-rule="evenodd" d="M12.9196 1.40194C12.9664 1.16823 13.1716 1 13.4099 1H21.5901C21.8284 1 22.0336 1.16823 22.0804 1.40194L22.9903 5.95145C22.9967 5.98374 23 6.01658 23 6.04951V10.5C23 10.7761 22.7761 11 22.5 11H16.25V8C16.25 7.0335 15.4665 6.25 14.5 6.25C13.5335 6.25 12.75 7.0335 12.75 8V11H12.5C12.2239 11 12 10.7761 12 10.5V6.04951C12 6.01658 12.0033 5.98374 12.0097 5.95145L12.9196 1.40194ZM17.5 7.25C17.9142 7.25 18.25 7.58579 18.25 8V8.03178C18.25 8.44599 17.9142 8.78178 17.5 8.78178C17.0858 8.78178 16.75 8.44599 16.75 8.03178V8C16.75 7.58579 17.0858 7.25 17.5 7.25ZM21.2501 8C21.2501 7.58579 20.9143 7.25 20.5001 7.25C20.0859 7.25 19.7501 7.58579 19.7501 8V8.03178C19.7501 8.44599 20.0859 8.78178 20.5001 8.78178C20.9143 8.78178 21.2501 8.44599 21.2501 8.03178V8ZM15 3.5C15 3.22386 15.2239 3 15.5 3H19.5C19.7761 3 20 3.22386 20 3.5V4.5C20 4.77614 19.7761 5 19.5 5H15.5C15.2239 5 15 4.77614 15 4.5V3.5Z" fill="black"/>
<path fill-rule="evenodd" clip-rule="evenodd" d="M14.5 7.25C14.9142 7.25 15.25 7.58579 15.25 8V12.5C15.25 13.4665 14.4665 14.25 13.5 14.25H11.0328L11.0689 14.7958L14.1044 14.7604C14.54 14.7553 14.9619 14.9129 15.2875 15.2023L18.7135 18.2477C19.4609 18.9121 19.5006 20.0666 18.8006 20.7807L17.9045 21.6948C17.2616 22.3506 16.2211 22.3979 15.5214 21.8031L13.176 19.8095C13.1308 19.7711 13.0735 19.75 13.0141 19.75L12.203 19.75C12.2236 19.8299 12.2345 19.9137 12.2345 20V21C12.2345 21.3688 12.0349 21.691 11.7378 21.8643C11.7458 21.9083 11.75 21.9537 11.75 22V23C11.75 23.4142 11.4142 23.75 11 23.75C10.5858 23.75 10.25 23.4142 10.25 23V22H3.75L3.75 23C3.75 23.4142 3.41421 23.75 3 23.75C2.58579 23.75 2.25 23.4142 2.25 23L2.25 22L2 22C1.44772 22 1 21.5523 1 21V11C1 10.4477 1.44772 10 2 10H3.5C4.05228 10 4.5 10.4477 4.5 11V11.4854C4.96949 10.8748 5.63344 10.4135 6.41674 10.1999C8.38927 9.6619 10.36 10.8599 10.8646 12.75H13.5C13.6381 12.75 13.75 12.6381 13.75 12.5V8C13.75 7.58579 14.0858 7.25 14.5 7.25ZM9.26869 12.75C8.83538 11.8758 7.8238 11.3709 6.81142 11.647C5.88954 11.8984 5.25 12.7358 5.24999 13.6913L5.24998 17.9999C5.24998 18.138 5.36191 18.2499 5.49998 18.2499L13.0142 18.25C13.4294 18.25 13.8311 18.3977 14.1475 18.6666L16.4929 20.6602C16.5928 20.7452 16.7415 20.7385 16.8333 20.6448L17.7294 19.7307C17.8294 19.6286 17.8237 19.4637 17.717 19.3688L14.2909 16.3234C14.2444 16.2821 14.1841 16.2596 14.1219 16.2603L10.4708 16.3028C10.0194 16.3081 9.64259 15.9595 9.61279 15.509L9.52951 14.25H9C8.58579 14.25 8.25 13.9142 8.25 13.5C8.25 13.0858 8.58579 12.75 9 12.75H9.26869Z" fill="black"/>
<path fill-rule="evenodd" clip-rule="evenodd" d="M4.25 6.13501C4.25 4.54166 5.54166 3.25 7.13501 3.25C8.72835 3.25 10.02 4.54166 10.02 6.13501C10.02 7.72835 8.72835 9.02002 7.13501 9.02002C5.54166 9.02002 4.25 7.72835 4.25 6.13501ZM7.13501 4.75C6.37009 4.75 5.75 5.37009 5.75 6.13501C5.75 6.89993 6.37009 7.52002 7.13501 7.52002C7.89993 7.52002 8.52002 6.89993 8.52002 6.13501C8.52002 5.37009 7.89993 4.75 7.13501 4.75Z" fill="black"/>
</svg>
