<svg width="24" height="24" viewBox="0 0 24 24" fill="none" xmlns="http://www.w3.org/2000/svg">
<path fill-rule="evenodd" clip-rule="evenodd" d="M12.5 1.5C12.5 1.22386 12.7239 1 13 1H23C23.2761 1 23.5 1.22386 23.5 1.5V10.5C23.5 10.7761 23.2761 11 23 11H18.5334V10.7453C20.0697 10.5517 21.2581 9.24029 21.2581 7.65137C21.2581 5.92905 19.8618 4.53284 18.1395 4.53284C16.4172 4.53284 15.021 5.92905 15.021 7.65137C15.021 7.74511 15.0252 7.83812 15.0334 7.93019V11H13C12.7239 11 12.5 10.7761 12.5 10.5V1.5ZM18.75 3.5C18.75 3.08579 18.4142 2.75 18 2.75C17.5858 2.75 17.25 3.08579 17.25 3.5V3.53178C17.25 3.94599 17.5858 4.28178 18 4.28178C18.4142 4.28178 18.75 3.94599 18.75 3.53178V3.5ZM15 2.75C15.4142 2.75 15.75 3.08579 15.75 3.5V3.53178C15.75 3.94599 15.4142 4.28178 15 4.28178C14.5858 4.28178 14.25 3.94599 14.25 3.53178V3.5C14.25 3.08579 14.5858 2.75 15 2.75ZM21.75 3.5C21.75 3.08579 21.4142 2.75 21 2.75C20.5858 2.75 20.25 3.08579 20.25 3.5V3.53178C20.25 3.94599 20.5858 4.28178 21 4.28178C21.4142 4.28178 21.75 3.94599 21.75 3.53178V3.5Z" fill="black"/>
<path fill-rule="evenodd" clip-rule="evenodd" d="M7.63501 3.25C6.04166 3.25 4.75 4.54166 4.75 6.13501C4.75 7.72835 6.04166 9.02002 7.63501 9.02002C9.22835 9.02002 10.52 7.72835 10.52 6.13501C10.52 4.54166 9.22835 3.25 7.63501 3.25ZM6.25 6.13501C6.25 5.37009 6.87009 4.75 7.63501 4.75C8.39993 4.75 9.02002 5.37009 9.02002 6.13501C9.02002 6.89993 8.39993 7.52002 7.63501 7.52002C6.87009 7.52002 6.25 6.89993 6.25 6.13501Z" fill="black"/>
<path fill-rule="evenodd" clip-rule="evenodd" d="M5 11V11.4848C5.46946 10.8745 6.13322 10.4134 6.91626 10.1999C8.88883 9.66189 10.8596 10.8599 11.3642 12.7501L15.7834 12.7501C15.9214 12.7501 16.0334 12.6382 16.0334 12.5001V7.87683C16.0255 7.80271 16.0215 7.72745 16.0215 7.65125C16.0215 6.48121 16.97 5.53271 18.14 5.53271C19.31 5.53271 20.2585 6.48121 20.2585 7.65125C20.2585 8.82128 19.31 9.76978 18.14 9.76978C17.9292 9.76978 17.7255 9.73898 17.5334 9.68164V12.5001C17.5334 13.4666 16.7499 14.2501 15.7834 14.2501L11.5323 14.2501L11.5684 14.7958L14.6039 14.7604C15.0395 14.7553 15.4614 14.9129 15.787 15.2023L19.213 18.2477C19.9604 18.9121 20.0001 20.0666 19.3001 20.7807L18.404 21.6948C17.7611 22.3506 16.7206 22.3979 16.0209 21.8031L13.6756 19.8095C13.6304 19.7711 13.573 19.75 13.5136 19.75L12.703 19.75C12.7236 19.8299 12.7345 19.9137 12.7345 20V21C12.7345 21.3688 12.5349 21.691 12.2378 21.8643C12.2458 21.9083 12.25 21.9537 12.25 22V23C12.25 23.4142 11.9142 23.75 11.5 23.75C11.0858 23.75 10.75 23.4142 10.75 23V22H4.25L4.25 23C4.25 23.4142 3.91421 23.75 3.5 23.75C3.08579 23.75 2.75 23.4142 2.75 23L2.75 22L2.5 22C1.94772 22 1.5 21.5523 1.5 21V11C1.5 10.4477 1.94772 10 2.5 10H4C4.55228 10 5 10.4477 5 11ZM17.5334 7.77243C17.5897 8.05601 17.8399 8.26978 18.14 8.26978C18.4816 8.26978 18.7585 7.99285 18.7585 7.65125C18.7585 7.30964 18.4816 7.03271 18.14 7.03271C17.8117 7.03271 17.5431 7.28854 17.5227 7.61174C17.5297 7.65287 17.5334 7.69513 17.5334 7.73825V7.77243ZM9.76827 12.7501L8.49999 12.7502C8.08578 12.7502 7.75 13.0859 7.75 13.5002C7.75 13.9144 8.08579 14.2502 8.50001 14.2502L10.029 14.2501L10.1123 15.509C10.1421 15.9595 10.5189 16.3081 10.9704 16.3028L14.6214 16.2603C14.6836 16.2596 14.7439 16.2821 14.7904 16.3234L18.2165 19.3688C18.3232 19.4637 18.3289 19.6286 18.2289 19.7307L17.3328 20.6448C17.241 20.7385 17.0923 20.7452 16.9924 20.6602L14.6471 18.6666C14.3307 18.3977 13.9289 18.25 13.5137 18.25L5.9995 18.2499C5.86142 18.2499 5.7495 18.138 5.7495 17.9999L5.74951 13.6913C5.74951 12.7358 6.38906 11.8984 7.31093 11.647C8.32337 11.3709 9.335 11.8758 9.76827 12.7501Z" fill="black"/>
</svg>
