<svg width="24" height="24" viewBox="0 0 24 24" fill="none" xmlns="http://www.w3.org/2000/svg">
<path fill-rule="evenodd" clip-rule="evenodd" d="M2 1H20C20.5523 1 21 1.44772 21 2V11.5H18.2728C16.892 11.5 15.7728 12.6193 15.7728 14V16H14.25V20.25H17.2727V14C17.2727 13.5523 17.567 13.1733 17.9726 13.0458C18.0361 13.0259 18.1023 13.0121 18.1705 13.0052C18.2041 13.0018 18.2382 13 18.2728 13H22C22.5523 13 23 13.4477 23 14V22C23 22.5523 22.5523 23 22 23H18.2727C17.7204 23 17.2727 22.5523 17.2727 22V21.75H5C4.58579 21.75 4.25 21.4142 4.25 21C4.25 20.5858 4.58579 20.25 5 20.25H7.75V16H2C1.44772 16 1 15.5523 1 15V2C1 1.44772 1.44772 1 2 1ZM9.25 20.25H12.75V16.75H9.25V20.25ZM11.3333 5C11.8856 5 12.3333 5.44772 12.3333 6V7.56667C12.3333 7.6219 12.3781 7.66667 12.4333 7.66667H14C14.5523 7.66667 15 8.11438 15 8.66667V9.33333C15 9.88562 14.5523 10.3333 14 10.3333H12.4333C12.3781 10.3333 12.3333 10.3781 12.3333 10.4333V12C12.3333 12.5523 11.8856 13 11.3333 13H10.6667C10.1144 13 9.66667 12.5523 9.66667 12V10.4333C9.66667 10.3781 9.6219 10.3333 9.56667 10.3333H8C7.44772 10.3333 7 9.88562 7 9.33333V8.66667C7 8.11438 7.44772 7.66667 8 7.66667H9.56667C9.6219 7.66667 9.66667 7.6219 9.66667 7.56667V6C9.66667 5.44772 10.1144 5 10.6667 5H11.3333ZM20.75 21C20.75 20.5858 20.4142 20.25 20 20.25C19.5857 20.25 19.25 20.5858 19.25 21V21.0318C19.25 21.446 19.5857 21.7818 20 21.7818C20.4142 21.7818 20.75 21.446 20.75 21.0318V21Z" fill="black"/>
</svg>
