<svg width="24" height="24" viewBox="0 0 24 24" fill="none" xmlns="http://www.w3.org/2000/svg">
<path fill-rule="evenodd" clip-rule="evenodd" d="M6.77932 0C7.33161 0 7.77932 0.447715 7.77932 1C7.77932 1.32773 7.84965 1.66566 7.99131 2H15.995C16.1457 1.66547 16.2205 1.32684 16.2205 1C16.2205 0.447716 16.6682 4.76837e-07 17.2205 4.76837e-07C17.7728 5.36442e-07 18.2205 0.447716 18.2205 1C18.2205 3.12102 16.7113 4.86625 14.5984 5.85235C17.3675 7.27544 18.9378 9.51319 18.9983 11.9401C18.9994 11.9599 19 11.9799 19 12C19 12.008 18.9999 12.0159 18.9997 12.0239C19.0005 12.0976 18.9999 12.1715 18.9979 12.2456C18.9338 14.6016 17.4599 16.7656 14.8814 18.1846C16.8559 19.2356 18.2205 20.9548 18.2205 23C18.2205 23.5523 17.7728 24 17.2205 24C16.6682 24 16.2205 23.5523 16.2205 23C16.2205 22.6723 16.1502 22.3343 16.0085 22H8.00485C7.85415 22.3345 7.77932 22.6732 7.77932 23C7.77932 23.5523 7.33161 24 6.77932 24C6.22704 24 5.77932 23.5523 5.77932 23C5.77932 20.879 7.28851 19.1338 9.40146 18.1476C6.62963 16.7232 5.05897 14.4825 5.0014 12.0528C5.00049 12.0353 5.00002 12.0177 5.00002 12C5.00002 11.9944 5.00007 11.9888 5.00016 11.9832C4.99927 11.9071 4.99985 11.8308 5.00193 11.7544C5.06603 9.39839 6.53993 7.23439 9.11845 5.81542C7.14396 4.76443 5.77932 3.04519 5.77932 1C5.77932 0.447715 6.22704 0 6.77932 0ZM11.7665 4.7351L12.9285 4.36208C13.2589 4.25602 13.564 4.13436 13.844 4H9.95902C10.2789 4.17591 10.6346 4.33537 11.0262 4.47368L11.7665 4.7351ZM11.7383 6.84618C10.8007 7.16305 10.0161 7.55692 9.37236 8H14.3417C13.7864 7.6531 13.1362 7.33981 12.3841 7.07421L11.7383 6.84618ZM16.3923 10H7.50421C7.32522 10.331 7.19577 10.6667 7.11285 11H16.8374C16.7374 10.6653 16.5902 10.3297 16.3923 10ZM16.887 13H7.16247C7.26239 13.3347 7.40959 13.6703 7.60753 14H16.4956C16.6746 13.669 16.8041 13.3333 16.887 13ZM14.6275 16H9.6581C10.2135 16.3469 10.8636 16.6602 11.6158 16.9258L12.2615 17.1538C13.1991 16.8369 13.9838 16.4431 14.6275 16ZM12.2333 19.2649L11.0713 19.6379C10.741 19.744 10.4359 19.8656 10.1559 20H14.0408C13.7209 19.8241 13.3653 19.6646 12.9736 19.5263L12.2333 19.2649Z" fill="black"/>
</svg>
