<svg width="24" height="24" viewBox="0 0 24 24" fill="none" xmlns="http://www.w3.org/2000/svg">
<path d="M8.92356 2.45107C8.62011 1.389 7.51314 0.774018 6.45107 1.07747C5.389 1.38092 4.77402 2.48789 5.07747 3.54996L5.29999 4.3288L5.50217 4.27556L8.31836 3.52096L8.6479 3.43883L9.17106 3.31733L8.92356 2.45107Z" fill="black"/>
<path d="M6.1485 7.29856L5.71216 5.77139L5.88728 5.72528L5.8904 5.72444L8.68788 4.97486L8.99345 4.8986L9.58366 4.76141L10.0127 6.26314L6.1485 7.29856Z" fill="black"/>
<path d="M8.10378 10.5557C7.51372 10.0486 7.0209 9.42523 6.66258 8.71373L10.8105 7.60229C11.145 7.8544 11.5594 8.00051 12.0005 8.00051C12.5503 8.00051 13.0586 7.77354 13.4224 7.39727L17.4481 8.48396C17.0838 9.29141 16.5501 9.99465 15.8973 10.5557C16.7212 11.3375 17.3141 12.37 17.5501 13.55L17.9182 15.3904L14.806 16.2243L14.8008 16.2257L14.0475 16.4333L13.6278 14.3345C13.4726 13.5588 12.7916 13.0005 12.0006 13.0005C11.2096 13.0005 10.5285 13.5588 10.3734 14.3345L10.004 16.1816L6.13225 15.1442L6.45108 13.55C6.68708 12.37 7.27994 11.3375 8.10378 10.5557Z" fill="black"/>
<path d="M14.9463 20.927L15.0394 21.3927C15.2561 22.4758 16.3097 23.1783 17.3928 22.9617C18.4759 22.745 19.1784 21.6914 18.9618 20.6083L18.8197 19.8979L14.9463 20.927Z" fill="black"/>
<path d="M14.6515 19.4533L18.5249 18.4242L18.213 16.8643L15.1968 17.6725L14.3425 17.9079L14.6515 19.4533Z" fill="black"/>
<path d="M14.0591 6.01545L14.497 4.48255L15.5381 4.77578L18.3575 5.53118L17.9213 7.05801L14.0591 6.01545Z" fill="black"/>
<path d="M14.9091 3.04025L15.0775 2.45107C15.3809 1.389 16.4879 0.774018 17.55 1.07747C18.612 1.38092 19.227 2.48789 18.9236 3.54996L18.7696 4.0887L15.9309 3.32808L14.9091 3.04025Z" fill="black"/>
<path d="M5.23074 19.6517L5.03943 20.6083C4.8228 21.6914 5.52524 22.745 6.60836 22.9617C7.69148 23.1783 8.74513 22.4758 8.96175 21.3927L9.10102 20.6964L8.30266 20.4748L5.23074 19.6517Z" fill="black"/>
<path d="M5.83746 16.6181L5.52552 18.1778L8.69411 19.0268L8.70055 19.0286L9.39599 19.2215L9.70919 17.6555L5.83746 16.6181Z" fill="black"/>
</svg>
