<svg width="24" height="24" viewBox="0 0 24 24" fill="none" xmlns="http://www.w3.org/2000/svg">
<path d="M13.9998 3C13.9998 2.44772 13.5521 2 12.9998 2H10.9998C10.4475 2 9.99981 2.44771 9.99981 3V5.90014C9.99981 5.95536 9.95503 6.00013 9.89981 6.00013L7 6.00013C6.44772 6.00013 6 6.44785 6 7.00013V9.00013C6 9.55242 6.44771 10.0001 7 10.0001H9.89981C9.95503 10.0001 9.99981 10.0449 9.99981 10.1001V13C9.99981 13.5523 10.4475 14 10.9998 14H12.9998C13.5521 14 13.9998 13.5523 13.9998 13V10.1001C13.9998 10.0449 14.0446 10.0001 14.0998 10.0001H17C17.5523 10.0001 18 9.55242 18 9.00013V7.00014C18 6.44785 17.5523 6.00014 17 6.00014L14.0998 6.00013C14.0446 6.00013 13.9998 5.95536 13.9998 5.90014V3Z" fill="black"/>
<path d="M4.00849 14.748V12.5042C4.00849 11.6763 3.33944 11.004 2.51151 11C1.67791 10.996 1 11.6706 1 12.5042V17.5851C1 17.6883 1.02759 17.7896 1.07993 17.8786L3.35505 21.7462C3.44489 21.8989 3.60884 21.9927 3.78602 21.9927H8.89981C8.95503 21.9927 8.9998 21.9479 8.99981 21.8927L9 17.9686C9.00003 17.344 8.76622 16.742 8.34459 16.2811L7.33615 14.9453C6.626 14.0334 6.12532 14.3238 5.44295 14.7195L5.36725 14.7634C5.318 14.7918 5.24483 14.8422 5.24483 14.8422L5 15L6.85375 17.5476C7.10225 17.879 7.03505 18.3491 6.70366 18.5976C6.37226 18.8461 5.90217 18.7789 5.65367 18.4475L4.25389 16.5808C4.09165 16.3645 4.00395 16.1013 4.00395 15.8309V14.8309C4.00395 14.8029 4.00549 14.7752 4.00849 14.748Z" fill="black"/>
<path d="M19.9915 12.5042V14.748C19.9945 14.7752 19.996 14.8029 19.996 14.8309V15.8309C19.996 16.1013 19.9083 16.3645 19.7461 16.5808L18.3463 18.4475C18.0978 18.7789 17.6277 18.8461 17.2963 18.5976C16.965 18.3491 16.8978 17.879 17.1463 17.5476L19 15L18.7552 14.8422C18.7552 14.8422 18.682 14.7918 18.6328 14.7634C18.6073 14.7486 18.582 14.734 18.557 14.7195C17.8747 14.3238 17.374 14.0334 16.6639 14.9453L15.6554 16.2811C15.2338 16.742 15 17.344 15 17.9686L15.0002 21.8927C15.0002 21.9479 15.045 21.9927 15.1002 21.9927H20.214C20.3912 21.9927 20.5551 21.8989 20.6449 21.7462L22.9201 17.8786C22.9724 17.7896 23 17.6883 23 17.5851V12.5042C23 11.6706 22.3221 10.996 21.4885 11C20.6606 11.004 19.9915 11.6763 19.9915 12.5042Z" fill="black"/>
</svg>
