<svg width="24" height="24" viewBox="0 0 24 24" fill="none" xmlns="http://www.w3.org/2000/svg">
<path fill-rule="evenodd" clip-rule="evenodd" d="M15.3653 15.8529C19.4668 15.8529 22.7917 12.5279 22.7917 8.42643C22.7917 4.32493 19.4668 1 15.3653 1C11.2638 1 7.93883 4.32493 7.93883 8.42643C7.93883 9.89667 8.36607 11.2671 9.10317 12.4204L7.38474 14.1223C6.75952 14.7415 6.57165 15.6298 6.82112 16.4108L5.74713 16.8C4.65853 17.1946 3.92695 18.2115 3.9059 19.3593C3.89554 19.9245 3.51386 20.4167 2.96521 20.5725L1.01 21.1276C0.609905 21.2412 0.378544 21.6545 0.493242 22.0508C0.60794 22.447 1.02526 22.6761 1.42536 22.5626L3.38057 22.0074C4.5659 21.6709 5.3905 20.6075 5.41289 19.3864C5.42264 18.8551 5.76126 18.3845 6.26513 18.2018L7.79138 17.6486C8.67488 18.1956 9.8533 18.0887 10.6215 17.3279L12.6342 15.3346C13.4795 15.6691 14.4009 15.8529 15.3653 15.8529ZM18.6016 7.63416C18.6016 9.20441 17.3286 10.4774 15.7584 10.4774C14.1881 10.4774 12.9151 9.20441 12.9151 7.63416C12.9151 6.0639 14.1881 4.79095 15.7584 4.79095C17.3286 4.79095 18.6016 6.0639 18.6016 7.63416ZM8.45052 16.2724C8.14533 15.9701 8.14533 15.4801 8.45052 15.1778L10.6215 13.0277C10.9267 12.7255 11.4215 12.7255 11.7267 13.0277C12.0319 13.33 12.0319 13.82 11.7267 14.1223L9.55573 16.2724C9.25053 16.5746 8.75571 16.5746 8.45052 16.2724Z" fill="black"/>
</svg>
