<svg width="24" height="24" viewBox="0 0 24 24" fill="none" xmlns="http://www.w3.org/2000/svg">
<path d="M7.75 4.75V6.56827H9.02783C9.52993 6.56827 9.93697 6.16124 9.93697 5.65914C9.93697 5.15703 9.52993 4.75 9.02783 4.75H7.75Z" fill="black"/>
<path fill-rule="evenodd" clip-rule="evenodd" d="M5 1C4.44772 1 4 1.44772 4 2V22C4 22.5523 4.44772 23 5 23H19C19.5523 23 20 22.5523 20 22V2C20 1.44772 19.5523 1 19 1H5ZM7 15.25C6.58579 15.25 6.25 15.5858 6.25 16C6.25 16.4142 6.58579 16.75 7 16.75H17C17.4142 16.75 17.75 16.4142 17.75 16C17.75 15.5858 17.4142 15.25 17 15.25H7ZM6.25 20C6.25 19.5858 6.58579 19.25 7 19.25H17C17.4142 19.25 17.75 19.5858 17.75 20C17.75 20.4142 17.4142 20.75 17 20.75H7C6.58579 20.75 6.25 20.4142 6.25 20ZM7.73739 3.25C6.91593 3.25 6.25 3.91593 6.25 4.73739V10.2678C6.25 10.6821 6.58579 11.0178 7 11.0178C7.41421 11.0178 7.75 10.6821 7.75 10.2678V8.06827H7.79543L10.1794 10.4522L9.05055 11.581C8.75765 11.8739 8.75765 12.3488 9.05055 12.6417C9.34344 12.9346 9.81831 12.9346 10.1112 12.6417L11.24 11.5129L12.3688 12.6417C12.6617 12.9346 13.1366 12.9346 13.4295 12.6417C13.7224 12.3488 13.7224 11.8739 13.4295 11.581L12.3007 10.4522L13.4295 9.32339C13.7224 9.03049 13.7224 8.55562 13.4295 8.26273C13.1366 7.96983 12.6617 7.96983 12.3688 8.26273L11.24 9.39153L9.79277 7.94429C10.7483 7.62457 11.437 6.72227 11.437 5.65914C11.437 4.32861 10.3584 3.25 9.02783 3.25H7.73739Z" fill="black"/>
</svg>
