<svg width="24" height="24" viewBox="0 0 24 24" fill="none" xmlns="http://www.w3.org/2000/svg">
<path d="M18.5729 3.54222C18.5319 3.58 18.4681 3.58 18.4271 3.54222C17.6436 2.81967 16.3727 2.8192 15.5885 3.54117C14.8043 4.26314 14.8038 5.43414 15.5873 6.15669L17.8014 8.31808C18.1899 8.69732 18.8101 8.69731 19.1985 8.31806L21.41 6.15914L21.4127 6.15669C22.1962 5.43414 22.1957 4.26314 21.4115 3.54117C20.6273 2.8192 19.3564 2.81967 18.5729 3.54222Z" fill="black"/>
<path d="M8.31929 9.04821C8.02313 8.36642 7.05621 8.36642 6.76005 9.04821L4.44142 14.3859H1C0.585786 14.3859 0.25 14.7217 0.25 15.1359C0.25 15.5501 0.585786 15.8859 1 15.8859H4.86774C5.20626 15.8859 5.5125 15.685 5.64737 15.3745L7.53967 11.0183L11.9793 21.2387C12.2665 21.9 13.1949 21.9258 13.5185 21.2815L16.4362 15.4725L16.4398 15.4652L17.232 13.8441L17.9968 15.4091C18.1394 15.7008 18.4358 15.8859 18.7605 15.8859H23C23.4142 15.8859 23.75 15.5501 23.75 15.1359C23.75 14.7217 23.4142 14.3859 23 14.3859H19.1664L17.9957 11.9904C17.6851 11.3547 16.779 11.3547 16.4683 11.9904L15.0939 14.8029L12.8016 19.3668L8.31929 9.04821Z" fill="black"/>
</svg>
