<svg width="24" height="24" viewBox="0 0 24 24" fill="none" xmlns="http://www.w3.org/2000/svg">
<path fill-rule="evenodd" clip-rule="evenodd" d="M3.76857 4.7033C7.79849 0.157211 14.7507 -0.261228 19.2968 3.76869C23.8429 7.79862 24.2614 14.7509 20.2314 19.2969C16.2015 23.843 9.24927 24.2615 4.70318 20.2316C0.157089 16.2016 -0.26135 9.2494 3.76857 4.7033ZM8.56655 14.7426L8.05058 10.4226C8.00146 10.0113 7.62822 9.71772 7.21693 9.76685C6.80564 9.81597 6.51204 10.1892 6.56117 10.6005L7.26465 16.4905C7.31575 16.9184 7.67891 17.2403 8.1098 17.2397L14.0417 17.2317C14.4559 17.2311 14.7912 16.8949 14.7907 16.4807C14.7901 16.0665 14.4539 15.7311 14.0397 15.7317L9.68909 15.7376L16.5413 8.00768C16.8161 7.69772 16.7876 7.2237 16.4776 6.94894C16.1676 6.67417 15.6936 6.7027 15.4189 7.01266L8.56655 14.7426Z" fill="black"/>
</svg>
