<svg width="24" height="24" viewBox="0 0 24 24" fill="none" xmlns="http://www.w3.org/2000/svg">
<path fill-rule="evenodd" clip-rule="evenodd" d="M3.76857 19.2969C7.79849 23.843 14.7507 24.2614 19.2968 20.2315C23.8429 16.2016 24.2614 9.24934 20.2314 4.70324C16.2015 0.15715 9.24927 -0.261289 4.70318 3.76863C0.157089 7.79856 -0.26135 14.7508 3.76857 19.2969ZM8.56661 9.25758L8.05064 13.5776C8.00152 13.9889 7.62828 14.2825 7.21699 14.2333C6.8057 14.1842 6.5121 13.811 6.56123 13.3997L7.27525 7.4214C7.32034 7.04389 7.64078 6.75983 8.02098 6.76035L14.0417 6.7685C14.456 6.76906 14.7913 7.1053 14.7907 7.51952C14.7902 7.93373 14.4539 8.26906 14.0397 8.2685L9.68913 8.26261L16.5414 15.9925C16.8161 16.3025 16.7876 16.7765 16.4776 17.0512C16.1677 17.326 15.6937 17.2975 15.4189 16.9875L8.56661 9.25758Z" fill="black"/>
</svg>
