<svg width="24" height="24" viewBox="0 0 24 24" fill="none" xmlns="http://www.w3.org/2000/svg">
<path fill-rule="evenodd" clip-rule="evenodd" d="M12 23C18.0751 23 23 18.0751 23 12C23 5.92487 18.0751 1 12 1C5.92487 1 1 5.92487 1 12C1 18.0751 5.92487 23 12 23ZM13.7961 7.53033C14.089 7.23744 14.089 6.76256 13.7961 6.46967C13.5032 6.17678 13.0284 6.17678 12.7355 6.46967L7.73546 11.4697C7.44256 11.7626 7.44256 12.2374 7.73546 12.5303L12.7355 17.5303C13.0284 17.8232 13.5032 17.8232 13.7961 17.5303C14.089 17.2375 14.089 16.7626 13.7961 16.4697L9.32645 12L13.7961 7.53033Z" fill="black"/>
</svg>
