<svg width="24" height="24" viewBox="0 0 24 24" fill="none" xmlns="http://www.w3.org/2000/svg">
<path fill-rule="evenodd" clip-rule="evenodd" d="M12 1C5.92487 1 1 5.92487 1 12C1 18.0751 5.92487 23 12 23C18.0751 23 23 18.0751 23 12C23 5.92487 18.0751 1 12 1ZM10.2039 16.4697C9.91099 16.7626 9.91099 17.2374 10.2039 17.5303C10.4968 17.8232 10.9716 17.8232 11.2645 17.5303L16.2645 12.5303C16.5574 12.2374 16.5574 11.7626 16.2645 11.4697L11.2645 6.46965C10.9716 6.17676 10.4968 6.17676 10.2039 6.46965C9.91098 6.76254 9.91098 7.23742 10.2039 7.53031L14.6736 12L10.2039 16.4697Z" fill="black"/>
</svg>
