<svg width="24" height="24" viewBox="0 0 24 24" fill="none" xmlns="http://www.w3.org/2000/svg">
<path d="M22 5H2C1.44772 5 1 5.44772 1 6V10.6457L1.94096 10.1324C3.08078 9.51071 4.47678 9.60119 5.52681 10.3649C6.13671 10.8084 6.95404 10.84 7.59631 10.4447L7.96843 10.2157C9.06745 9.5394 10.466 9.59337 11.5096 10.3524L11.6358 10.4441C12.151 10.8188 12.849 10.8188 13.3642 10.4441L13.5916 10.2788C14.5873 9.55457 15.953 9.62143 16.8733 10.4394C17.2667 10.7891 17.8505 10.8177 18.2762 10.5081L18.5986 10.2736C19.5721 9.56568 20.8662 9.4818 21.9229 10.0582L23 10.6457V6C23 5.44772 22.5523 5 22 5Z" fill="black"/>
<path fill-rule="evenodd" clip-rule="evenodd" d="M1 18V12.4014L1.38834 12.1425L2.65924 11.4493C3.2903 11.1051 4.0632 11.1552 4.64455 11.578C5.74615 12.3791 7.22239 12.4361 8.38245 11.7222L8.75458 11.4932C9.3358 11.1355 10.0755 11.1641 10.6274 11.5655L10.7535 11.6572C11.7947 12.4144 13.2053 12.4144 14.2465 11.6572L14.4738 11.4919C14.8995 11.1823 15.4833 11.2109 15.8767 11.5606C16.797 12.3786 18.1627 12.4454 19.1584 11.7212L19.4809 11.4867C19.9856 11.1196 20.6567 11.0761 21.2046 11.375L22.6273 12.151L23 12.3746V18C23 18.5523 22.5523 19 22 19H2C1.44772 19 1 18.5523 1 18ZM4.75 16.0001C4.75 15.5858 4.41421 15.2501 4 15.2501C3.58579 15.2501 3.25 15.5858 3.25 16.0001V16.0318C3.25 16.446 3.58579 16.7818 4 16.7818C4.41421 16.7818 4.75 16.446 4.75 16.0318V16.0001ZM8 13.2501C8.41421 13.2501 8.75 13.5858 8.75 14.0001V14.0318C8.75 14.446 8.41421 14.7818 8 14.7818C7.58579 14.7818 7.25 14.446 7.25 14.0318V14.0001C7.25 13.5858 7.58579 13.2501 8 13.2501ZM16.75 14.0001C16.75 13.5858 16.4142 13.2501 16 13.2501C15.5858 13.2501 15.25 13.5858 15.25 14.0001V14.0318C15.25 14.446 15.5858 14.7818 16 14.7818C16.4142 14.7818 16.75 14.446 16.75 14.0318V14.0001ZM12 15.2501C12.4142 15.2501 12.75 15.5858 12.75 16.0001V16.0318C12.75 16.446 12.4142 16.7818 12 16.7818C11.5858 16.7818 11.25 16.446 11.25 16.0318V16.0001C11.25 15.5858 11.5858 15.2501 12 15.2501ZM20.75 16.0001C20.75 15.5858 20.4142 15.2501 20 15.2501C19.5858 15.2501 19.25 15.5858 19.25 16.0001V16.0318C19.25 16.446 19.5858 16.7818 20 16.7818C20.4142 16.7818 20.75 16.446 20.75 16.0318V16.0001Z" fill="black"/>
</svg>
