<svg width="24" height="24" viewBox="0 0 24 24" fill="none" xmlns="http://www.w3.org/2000/svg">
<path d="M10.3517 4.35501C10.3517 6.20794 8.85642 7.71003 7.01188 7.71003C5.16735 7.71003 3.67206 6.20794 3.67206 4.35501C3.67206 2.50209 5.16735 1 7.01188 1C8.85642 1 10.3517 2.50209 10.3517 4.35501Z" fill="black"/>
<path d="M20.3065 4.35501C20.3065 6.20794 18.8112 7.71003 16.9666 7.71003C15.1221 7.71003 13.6268 6.20794 13.6268 4.35501C13.6268 2.50209 15.1221 1 16.9666 1C18.8112 1 20.3065 2.50209 20.3065 4.35501Z" fill="black"/>
<path d="M14.1185 11.135C14.1185 12.3141 13.1669 13.27 11.9931 13.27C10.8193 13.27 9.86776 12.3141 9.86776 11.135C9.86776 9.95588 10.8193 9 11.9931 9C13.1669 9 14.1185 9.95588 14.1185 11.135Z" fill="black"/>
<path d="M8.16738 18.8263L8.16736 23H15.8325L15.8325 20.102L15.829 18.8158C15.8233 16.6946 14.1099 14.978 11.9982 14.978C9.88251 14.978 8.16738 16.7009 8.16738 18.8263Z" fill="black"/>
<path d="M17.3257 23L17.3257 20.102L17.3222 18.8117C17.3164 16.6714 16.0597 14.8275 14.2484 13.9778C15.0793 13.3118 15.6117 12.2858 15.6117 11.135C15.6117 10.9395 15.5963 10.7475 15.5667 10.5603C16.0184 10.4516 16.4898 10.394 16.9746 10.394C20.2929 10.394 22.9855 13.0915 22.9945 16.4248L23 18.4461L23 21.78C23 22.4538 22.4562 23 21.7855 23H17.3257Z" fill="black"/>
<path d="M6.67416 23H2.21448C1.54374 23 0.999991 22.4538 1 21.78L1.00002 16.4413C1.00002 13.1015 3.69521 10.394 7.01991 10.394C7.50184 10.394 7.97058 10.4509 8.41981 10.5584C8.39002 10.7462 8.37454 10.9388 8.37454 11.135C8.37454 12.2876 8.90854 13.3149 9.74155 13.9808C7.92932 14.834 6.67417 16.6829 6.67417 18.8263L6.67416 23Z" fill="black"/>
<path d="M14.1184 11.1168L14.1185 11.135Z" fill="black"/>
<path d="M9.86776 11.135C9.86776 11.1274 9.8678 11.1199 9.86787 11.1123L9.86776 11.135Z" fill="black"/>
</svg>
