<svg width="24" height="24" viewBox="0 0 24 24" fill="none" xmlns="http://www.w3.org/2000/svg">
<path d="M16.1547 2.00885C15.1276 0.755826 13.2125 0.868733 12.3465 1.93716L12.2948 2H12C11.4475 2 11 1.55229 11 1L8.5621 1.00024C8.64152 2.75067 10.1177 4.14596 11.8872 4.14596C11.81 4.75285 11.6204 5.23186 10.9446 5.26273C9.80575 5.31475 9.29972 5.87947 9.10319 6.41686C8.66551 6.59393 8.28578 6.89466 8.00901 7.27496C8.12948 7.34026 8.24993 7.41357 8.36923 7.4958C8.57435 7.45901 8.78518 7.43986 8.99981 7.43986C9.34575 7.43986 9.68177 7.4896 9.99993 7.58278C10.3181 7.4896 10.6541 7.43986 11 7.43986C11.3459 7.43986 11.6818 7.48957 11.9999 7.5827C12.318 7.48957 12.6539 7.43986 12.9998 7.43986C13.3434 7.43986 13.6774 7.48896 13.9937 7.58097C14.4821 7.42806 14.9945 7.36308 15.4661 7.35982C15.6321 7.35867 15.8037 7.3651 15.9781 7.38041C16.0454 7.27031 16.1039 7.16317 16.1547 7.06102C16.6617 6.04078 17.2951 3.40007 16.1547 2.00885Z" fill="black"/>
<path fill-rule="evenodd" clip-rule="evenodd" d="M12.9998 8.93986C13.3461 8.93986 13.672 9.02533 13.9561 9.17572C13.971 9.18361 13.9852 9.19217 13.9998 9.20041C14.7856 8.75883 16.1578 8.7393 16.981 9.18984C17.3087 8.69275 17.8635 8.35021 18.5033 8.29997C18.8697 7.89911 19.4044 7.64648 19.9999 7.64648C21.1045 7.64648 21.9999 8.51558 21.9999 9.58766C21.9999 10.0848 21.8074 10.5384 21.4907 10.8818C21.8074 11.2252 21.9999 11.6787 21.9999 12.1759C21.9999 12.5295 21.9025 12.861 21.7324 13.1465C21.9025 13.432 21.9999 13.7635 21.9999 14.1171C21.9999 14.4707 21.9025 14.8022 21.7323 15.0877C21.9025 15.3733 21.9999 15.7048 21.9999 16.0584C21.9999 16.6528 21.7247 17.1848 21.2911 17.5409C21.3185 17.6897 21.3328 17.843 21.3328 17.9995C21.3328 19.1464 20.5643 20.5355 19.4998 21.0399V22.8523H17.4998V22.75H9.25C8.14543 22.75 7.25 21.8546 7.25 20.75C7.25 19.6454 8.14543 18.75 9.25 18.75H12.5C12.6381 18.75 12.75 18.6381 12.75 18.5C12.75 18.3619 12.6381 18.25 12.5 18.25H11.1999C10.0953 18.25 9.1999 17.3546 9.1999 16.25C9.1999 15.1454 10.0953 14.25 11.1999 14.25H18.0045C18.0015 14.2061 17.9999 14.1618 17.9999 14.1171C17.9999 13.7635 18.0973 13.432 18.2675 13.1465C18.0973 12.861 17.9999 12.5295 17.9999 12.1759C17.9999 12.1392 18.001 12.1027 18.0031 12.0665C17.8925 12.0288 17.7864 11.9819 17.6858 11.9268C16.7716 12.9123 15.6914 13.3365 13.9998 12.5632C13.7056 12.7284 13.3641 12.823 12.9997 12.823C12.6355 12.823 12.294 12.7285 11.9999 12.5634C11.7057 12.7285 11.3642 12.823 11 12.823C10.6357 12.823 10.2941 12.7284 9.9999 12.5632C9.70569 12.7284 9.36411 12.823 8.99978 12.823C8.29157 12.823 7.66933 12.4657 7.31396 11.9267C7.31396 11.9267 6.66797 12.4263 5.99687 12.0665C5.99895 12.1027 6 12.1392 6 12.1759C6 12.5295 5.9026 12.861 5.73243 13.1465C5.9026 13.4321 6 13.7636 6 14.1171C6 14.4707 5.9026 14.8022 5.73243 15.0877C5.9026 15.3733 6 15.7047 6 16.0583C6 16.0583 6 17.7398 5 17.7398V20.2642H3V17.7398C2 17.5006 2 16.0583 2 16.0583C2 15.7047 2.0974 15.3733 2.26757 15.0877C2.0974 14.8022 2 14.4707 2 14.1171C2 13.7636 2.0974 13.4321 2.26757 13.1465C2.0974 12.861 2 12.5295 2 12.1759C2 11.6788 2.19258 11.2252 2.50929 10.8818C2.19258 10.5384 2 10.0848 2 9.58766C2 8.51558 2.89543 7.64648 4 7.64648C4.59552 7.64648 5.13025 7.89911 5.49664 8.29997C5.49664 8.29997 6.59378 8.08124 7.53708 8.74542L7.5293 8.73919C7.61549 8.79938 7.70043 8.86686 7.78316 8.94255L7.77566 8.93655C7.85924 9.0124 7.9406 9.09653 8.01877 9.18982C8.0333 9.18186 8.04794 9.17409 8.06269 9.16648C8.34237 9.02212 8.66095 8.93986 8.99981 8.93986C9.28505 8.93986 9.55634 8.99781 9.80186 9.10225C9.87011 9.13126 9.93589 9.16447 9.9999 9.20041C10.2811 9.04252 10.6055 8.94916 10.9517 8.94121L10.9511 8.94043C10.9673 8.94005 10.9837 8.93986 11 8.93986C11.3643 8.93986 11.7058 9.03436 11.9999 9.19947C12.294 9.03436 12.6355 8.93986 12.9998 8.93986ZM11.1999 15.75H17.3463C16.5418 16.1956 15.9995 17.0361 15.9995 17.9995C15.9995 19.023 16.6116 20.2394 17.4998 20.8478V21.25H9.25C8.97386 21.25 8.75 21.0261 8.75 20.75C8.75 20.4739 8.97386 20.25 9.25 20.25H12.5C13.4665 20.25 14.25 19.4665 14.25 18.5C14.25 17.5335 13.4665 16.75 12.5 16.75H11.1999C10.9238 16.75 10.6999 16.5261 10.6999 16.25C10.6999 15.9739 10.9238 15.75 11.1999 15.75Z" fill="black"/>
</svg>
