<svg width="24" height="24" viewBox="0 0 24 24" fill="none" xmlns="http://www.w3.org/2000/svg">
<path fill-rule="evenodd" clip-rule="evenodd" d="M13 12C12.4477 12 12 12.4477 12 13V15.5C12 19.6421 15.3579 23 19.5 23H22C22.5523 23 23 22.5523 23 22V19.5C23 15.3579 19.6421 12 15.5 12H13ZM17.1528 19.4316C16.7411 19.4773 16.4444 19.8481 16.4902 20.2598C16.5359 20.6715 16.9067 20.9682 17.3184 20.9224L19.6074 20.6681L20.5291 21.5898C20.822 21.8827 21.2969 21.8827 21.5898 21.5898C21.8827 21.2969 21.8827 20.822 21.5898 20.5291L20.6681 19.6074L20.9224 17.3184C20.9682 16.9067 20.6715 16.5359 20.2599 16.4901C19.8482 16.4444 19.4774 16.7411 19.4316 17.1527L19.3098 18.2491L17.7267 16.666L17.981 14.377C18.0268 13.9653 17.7301 13.5945 17.3185 13.5487C16.9068 13.503 16.536 13.7997 16.4902 14.2113L16.3684 15.3077L14.5303 13.4697C14.2374 13.1768 13.7626 13.1768 13.4697 13.4697C13.1768 13.7626 13.1768 14.2374 13.4697 14.5303L15.3077 16.3684L14.2114 16.4902C13.7997 16.5359 13.503 16.9067 13.5488 17.3184C13.5945 17.7301 13.9653 18.0268 14.377 17.981L16.666 17.7267L18.2491 19.3098L17.1528 19.4316Z" fill="black"/>
<path d="M7.25 6L4.75 6L4.75 4C4.75 3.58579 4.41421 3.25 4 3.25C3.58579 3.25 3.25 3.58579 3.25 4L3.25 6L2 6C1.44772 6 1 5.55228 1 5V2C1 1.44772 1.44772 1 2 1H18C18.5523 1 19 1.44772 19 2V5C19 5.55228 18.5523 6 18 6L16.75 6L16.75 4C16.75 3.58579 16.4142 3.25 16 3.25C15.5858 3.25 15.25 3.58579 15.25 4L15.25 6L12.75 6L12.75 4C12.75 3.58579 12.4142 3.25 12 3.25C11.5858 3.25 11.25 3.58579 11.25 4L11.25 6L8.75 6L8.75 4C8.75 3.58579 8.41421 3.25 8 3.25C7.58579 3.25 7.25 3.58579 7.25 4L7.25 6Z" fill="black"/>
<path d="M3 7.5V9.25H7C7.9665 9.25 8.75 10.0335 8.75 11V18C8.75 18.9665 7.9665 19.75 7 19.75H3V22C3 22.5523 3.44772 23 4 23H14.5233C12.0983 21.3876 10.5 18.6305 10.5 15.5V13C10.5 11.6193 11.6193 10.5 13 10.5H15.5C16.0111 10.5 16.5122 10.5426 17 10.6244V7.5H3Z" fill="black"/>
<path d="M3 10.75V18.25H7C7.13807 18.25 7.25 18.1381 7.25 18V11C7.25 10.8619 7.13807 10.75 7 10.75H3Z" fill="black"/>
</svg>
