<svg width="24" height="24" viewBox="0 0 24 24" fill="none" xmlns="http://www.w3.org/2000/svg">
<path fill-rule="evenodd" clip-rule="evenodd" d="M9.70789 11.7519L9.61954 11.4868C9.29964 10.5271 8.64698 9.71353 7.77952 9.19308C7.05774 8.76002 6.53755 8.05797 6.33341 7.24137L6.29342 7.08145C6.75539 6.2281 7.65082 5.68855 8.63214 5.68855L8.75449 5.68855L8.94386 6.01709C9.19846 6.45881 9.38393 6.93597 9.49459 7.43196C9.51255 7.58354 9.53926 7.73462 9.57484 7.88447C9.64528 8.27765 10.0139 8.54896 10.4136 8.49488C10.4836 8.4854 10.5501 8.46653 10.6119 8.43971C10.9333 8.30128 11.1204 7.95335 11.0495 7.60296C11.0299 7.46554 11.0059 7.32897 10.9776 7.19342C10.931 6.69255 11.0367 6.18595 11.2858 5.74208L11.342 5.64201L11.6768 5.60562C12.5784 5.50762 13.4545 5.90715 13.9737 6.63457L13.9448 6.73064C13.7873 7.25519 13.4772 7.71645 13.0595 8.05894L12.584 8.37596C12.2394 8.60573 12.1462 9.07138 12.376 9.41602C12.5055 9.61036 12.7101 9.72472 12.9257 9.74633C13.0714 9.76107 13.2229 9.73339 13.361 9.65767C13.5679 9.54425 13.7636 9.41452 13.9466 9.27033L14.3589 8.99546C14.6732 8.78592 15.0141 8.61922 15.3724 8.49977L15.7244 8.38245L15.7651 8.43677C16.3468 9.21236 16.6853 10.1406 16.7416 11.1042L16.6922 11.1371C16.1026 11.5302 15.4115 11.743 14.7034 11.7498L14.4996 11.7498C14.0854 11.7498 13.7496 12.0855 13.7495 12.4998C13.7495 12.8169 13.9463 13.0881 14.2245 13.1978L14.2405 13.2039C14.3214 13.2337 14.4088 13.25 14.5 13.25H14.6681L14.7101 13.2498L15.261 13.2499C15.6902 13.2499 16.1177 13.3026 16.5341 13.4067L17.355 13.6119C17.4494 14.4403 17.1636 15.2753 16.5648 15.8741L16.2631 16.1758C15.8952 16.0713 15.5592 15.8744 15.2877 15.6028L14.8032 15.1181C14.6133 14.9127 14.3347 14.8373 14.08 14.8973C13.9486 14.9281 13.824 14.9946 13.7216 15.097C13.43 15.3885 13.4286 15.8603 13.7174 16.1536L14.1928 16.6764C14.6187 17.1448 14.9422 17.697 15.1424 18.2977L15.1585 18.3459C14.4839 19.0798 13.4943 19.4461 12.5019 19.3256L12.4914 19.3046C12.3113 18.9444 12.1842 18.5601 12.114 18.1635L11.8946 16.9237C11.8404 16.6178 11.608 16.3883 11.3232 16.3231C11.0942 16.214 10.8154 16.2238 10.588 16.3733L8.93974 17.4571C7.88506 18.1506 7.25003 19.3282 7.25003 20.5904L7.25003 23C7.25003 23.4142 7.58581 23.75 8.00002 23.75C8.41424 23.75 8.75003 23.4142 8.75003 23L8.75003 20.5904C8.75003 20.464 8.76064 20.339 8.78127 20.2166C8.85552 20.3834 8.93744 20.5484 9.02712 20.7108C10.5549 23.4779 13.858 24.5974 16.482 23.0556L16.4908 23.0517C16.5123 23.042 16.5419 23.0284 16.5789 23.0107C16.6527 22.9754 16.7559 22.9239 16.8825 22.8552C17.1354 22.718 17.4836 22.5112 17.8785 22.2268C18.6659 21.6597 19.6549 20.7726 20.4375 19.4977C22.0388 16.8891 22.6552 12.8611 19.4607 7.07623C16.5783 1.85663 13.1836 0.296434 10.2816 0.251023C7.50797 0.207622 5.37982 1.55777 4.90811 1.85703L4.89162 1.86749L4.85098 1.89234C2.2439 3.50668 1.51059 7.09655 3.04885 9.88272C3.77795 11.2033 4.90182 12.1447 6.16953 12.6043L5.92823 12.7276C3.67067 13.8814 2.25 16.2029 2.25 18.7382L2.25 23C2.25 23.4142 2.58579 23.75 3 23.75C3.41421 23.75 3.75 23.4142 3.75 23L3.75 18.7382C3.75 16.7663 4.85497 14.9607 6.61085 14.0633L9.331 12.6731C9.39549 12.6415 9.45381 12.6014 9.50505 12.5547C9.58872 12.4787 9.65264 12.3857 9.6942 12.284C9.73586 12.1823 9.75541 12.0711 9.74905 11.9582C9.74523 11.889 9.73172 11.8196 9.70789 11.7519Z" fill="black"/>
</svg>
