<svg width="24" height="24" viewBox="0 0 24 24" fill="none" xmlns="http://www.w3.org/2000/svg">
<rect width="24" height="24" fill="white"/>
<path d="M18.3914 10C17.3527 10 16.3839 10.3033 15.5665 10.8272C15.5756 10.8382 15.5845 10.8494 15.5931 10.8609L17.2309 13.0375C17.5164 12.8646 17.9032 12.7168 18.3914 12.7168C18.9346 12.7168 19.3524 12.8998 19.6446 13.0967L21.2706 10.9358C21.283 10.9194 21.2958 10.9034 21.3091 10.888C20.4727 10.3268 19.4697 10 18.3914 10Z" fill="black"/>
<path d="M17.9054 15.4081L16.4219 17.3797L14.5222 14.8626C13.7189 13.7981 13.8564 12.2871 14.8383 11.3894C14.8515 11.3774 14.8716 11.3787 14.8832 11.3918L14.8848 11.3938" fill="black"/>
<path d="M22.3415 14.9374C23.1449 13.8729 23.0073 12.3619 22.0254 11.4642C22.0116 11.4516 21.9901 11.4536 21.9789 11.4686L14.4701 21.4476C14.2546 21.7341 14.3373 22.1473 14.6459 22.326L15.6744 22.9215C15.93 23.0695 16.2542 23.0031 16.433 22.7661L22.3415 14.9374Z" fill="black"/>
<path d="M20.4307 22.6913L19.0154 20.816L20.4972 18.8526L22.3936 21.3729C22.6092 21.6593 22.5264 22.0725 22.2178 22.2512L21.1894 22.8467C20.9338 22.9947 20.6095 22.9283 20.4307 22.6913Z" fill="black"/>
<path fill-rule="evenodd" clip-rule="evenodd" d="M15.5398 3.69357C15.8778 3.56839 16.2434 3.5 16.625 3.5C18.3509 3.5 19.75 4.89911 19.75 6.625C19.75 7.07421 19.6552 7.50127 19.4846 7.8873C19.4651 7.93133 19.4783 7.98318 19.5167 8.01231C19.7985 8.22643 20.049 8.4795 20.2604 8.7635C19.6663 8.59196 19.0391 8.5 18.3914 8.5C17.0562 8.5 15.8078 8.8908 14.757 9.56438C14.4899 9.7356 14.2586 9.91507 14.0987 10.0465C14.0171 10.1136 13.9501 10.1715 13.9018 10.2142C13.8776 10.2356 13.8579 10.2534 13.8432 10.2668L13.8248 10.2836L13.8222 10.286C12.2706 11.7082 12.0583 14.0879 13.3249 15.7662L15.0991 18.117L13.3841 20.3961C12.6754 20.7812 11.8633 21 11 21C9.08986 21 7.4299 19.9289 6.58797 18.3545C6.56354 18.3088 6.50878 18.2884 6.4602 18.3064C6.12216 18.4316 5.75657 18.5 5.375 18.5C3.64911 18.5 2.25 17.1009 2.25 15.375C2.25 14.9258 2.34478 14.4987 2.51543 14.1127C2.5349 14.0687 2.52168 14.0168 2.48334 13.9877C1.58199 13.3028 1 12.2194 1 11C1 9.63381 1.73058 8.43826 2.82236 7.78271C2.87837 7.74908 2.89026 7.67204 2.84784 7.62235C2.47506 7.1857 2.25 6.61913 2.25 6C2.25 4.61929 3.36929 3.5 4.75 3.5C5.32029 3.5 5.84597 3.69095 6.26661 4.0124C6.32069 4.05373 6.40066 4.03441 6.42829 3.97221C7.20613 2.22116 8.96045 1 11 1C12.9101 1 14.5701 2.07111 15.412 3.64548C15.4365 3.69116 15.4912 3.71156 15.5398 3.69357ZM8 7.25006C8 6.83585 7.66421 6.50006 7.25 6.50006C6.83579 6.50006 6.5 6.83585 6.5 7.25006V7.28972C6.5 7.70394 6.83579 8.03972 7.25 8.03972C7.66421 8.03972 8 7.70394 8 7.28972V7.25006ZM10.5 16.0001C10.5 15.5858 10.1642 15.2501 9.75 15.2501C9.33579 15.2501 9 15.5858 9 16.0001V16.0397C9 16.4539 9.33579 16.7897 9.75 16.7897C10.1642 16.7897 10.5 16.4539 10.5 16.0397V16.0001ZM7.95374 13.7927C7.70578 14.1245 7.23579 14.1925 6.904 13.9445L6.74982 13.8293C5.8646 13.1677 5.31721 12.1453 5.25116 11.0449C5.22634 10.6315 5.54141 10.2762 5.95488 10.2513C6.36835 10.2265 6.72365 10.5416 6.74847 10.9551C6.78823 11.6175 7.11846 12.2322 7.64779 12.6278L7.80197 12.743C8.13376 12.991 8.20171 13.4609 7.95374 13.7927ZM11.1845 9.52342C10.7732 9.47457 10.4794 9.10152 10.5282 8.6902L10.5509 8.49906C10.6813 7.40165 11.293 6.41637 12.2129 5.80901C12.5586 5.58079 13.0238 5.67599 13.252 6.02165C13.4803 6.36732 13.3851 6.83255 13.0394 7.06078C12.4856 7.42644 12.1184 8.01975 12.0405 8.67596L12.0178 8.86711C11.9689 9.27843 11.5959 9.57227 11.1845 9.52342Z" fill="black"/>
</svg>
