<svg width="24" height="24" viewBox="0 0 24 24" fill="none" xmlns="http://www.w3.org/2000/svg">
<path d="M14.75 12.75H16.25V12.25H14.75V12.75Z" fill="black"/>
<path fill-rule="evenodd" clip-rule="evenodd" d="M2 0.25C1.58579 0.25 1.25 0.585786 1.25 1C1.25 1.41421 1.58579 1.75 2 1.75L4 1.75V22C4 22.5523 4.44772 23 5 23H19C19.5523 23 20 22.5523 20 22V1.75L22 1.75C22.4142 1.75 22.75 1.41422 22.75 1C22.75 0.585788 22.4142 0.25 22 0.25H2ZM7 17.25C6.58579 17.25 6.25 17.5858 6.25 18C6.25 18.4142 6.58579 18.75 7 18.75H8.5C8.91421 18.75 9.25 18.4142 9.25 18C9.25 17.5858 8.91421 17.25 8.5 17.25H7ZM5.25 21C5.25 20.5858 5.58579 20.25 6 20.25H7C7.41421 20.25 7.75 20.5858 7.75 21C7.75 21.4142 7.41421 21.75 7 21.75H6C5.58579 21.75 5.25 21.4142 5.25 21ZM9.5 20.25C9.08579 20.25 8.75 20.5858 8.75 21C8.75 21.4142 9.08579 21.75 9.5 21.75H10.5C10.9142 21.75 11.25 21.4142 11.25 21C11.25 20.5858 10.9142 20.25 10.5 20.25H9.5ZM12.75 21C12.75 20.5858 13.0858 20.25 13.5 20.25H14.5C14.9142 20.25 15.25 20.5858 15.25 21C15.25 21.4142 14.9142 21.75 14.5 21.75H13.5C13.0858 21.75 12.75 21.4142 12.75 21ZM17 20.25C16.5858 20.25 16.25 20.5858 16.25 21C16.25 21.4142 16.5858 21.75 17 21.75H18C18.4142 21.75 18.75 21.4142 18.75 21C18.75 20.5858 18.4142 20.25 18 20.25H17ZM14.75 18C14.75 17.5858 15.0858 17.25 15.5 17.25H17C17.4142 17.25 17.75 17.5858 17.75 18C17.75 18.4142 17.4142 18.75 17 18.75H15.5C15.0858 18.75 14.75 18.4142 14.75 18ZM11.2499 17.25C10.8357 17.25 10.4999 17.5858 10.4999 18C10.4999 18.4142 10.8357 18.75 11.2499 18.75H12.7501C13.1643 18.75 13.5001 18.4142 13.5001 18C13.5001 17.5858 13.1643 17.25 12.7501 17.25H11.2499ZM9.25 3.5C9.25 3.08579 9.58579 2.75 10 2.75H14C14.4142 2.75 14.75 3.08579 14.75 3.5C14.75 3.91421 14.4142 4.25 14 4.25H10.75V5.25H13C13.4142 5.25 13.75 5.58579 13.75 6C13.75 6.41421 13.4142 6.75 13 6.75H10.75V7.75H14C14.4142 7.75 14.75 8.08579 14.75 8.5C14.75 8.91421 14.4142 9.25 14 9.25H10C9.58579 9.25 9.25 8.91421 9.25 8.5V3.5ZM7 10.75C6.58579 10.75 6.25 11.0858 6.25 11.5V15.5C6.25 15.9142 6.58579 16.25 7 16.25C7.41421 16.25 7.75 15.9142 7.75 15.5V14.25H9.4C9.81421 14.25 10.15 13.9142 10.15 13.5C10.15 13.0858 9.81421 12.75 9.4 12.75H7.75V12.25H10C10.4142 12.25 10.75 11.9142 10.75 11.5C10.75 11.0858 10.4142 10.75 10 10.75H7ZM13.25 11.5C13.25 11.0858 13.5858 10.75 14 10.75H17C17.4142 10.75 17.75 11.0858 17.75 11.5V13.5C17.75 13.9142 17.4142 14.25 17 14.25H14.75V15.5C14.75 15.9142 14.4142 16.25 14 16.25C13.5858 16.25 13.25 15.9142 13.25 15.5V11.5Z" fill="black"/>
</svg>
