<svg width="24" height="24" viewBox="0 0 24 24" fill="none" xmlns="http://www.w3.org/2000/svg">
<path d="M8.28638 3.99982C8.28638 1.94881 9.94905 0.286133 12.0001 0.286133C14.0511 0.286133 15.7138 1.94881 15.7138 3.99982C15.7138 6.05083 14.0511 7.71351 12.0001 7.71351C9.94905 7.71351 8.28638 6.05083 8.28638 3.99982Z" fill="black"/>
<path fill-rule="evenodd" clip-rule="evenodd" d="M7.99997 8.74976C7.90456 8.74976 7.81002 8.76796 7.72143 8.8034L4.00288 10.2908C2.91061 10.7278 2.37934 11.9674 2.81625 13.0597C3.23773 14.1134 4.41132 14.6516 5.48485 14.2835L7.72935 13.514L7.97174 15.7763L5.41031 19.0364C5.22172 19.2764 5.19742 19.6068 5.34887 19.8718L6.78641 22.3876C7.2994 23.2854 8.42441 23.626 9.34926 23.1636C10.2555 22.7105 10.6632 21.6383 10.2869 20.6975L9.86046 19.6313L10.2984 19.0942C10.6504 19.1535 11.0047 19.1943 11.36 19.2165C11.5731 19.2299 11.7865 19.2365 11.9999 19.2365C12.24 19.2365 12.4802 19.2281 12.7198 19.2112C13.0483 19.1881 13.376 19.1491 13.7016 19.0942L14.1396 19.6313L13.7131 20.6975C13.3368 21.6382 13.7444 22.7105 14.6507 23.1636C15.5756 23.626 16.7005 23.2854 17.2135 22.3877L18.6512 19.8718C18.8027 19.6068 18.7784 19.2764 18.5898 19.0363L16.0282 15.7762L16.2706 13.514L18.5153 14.2836C19.5888 14.6516 20.7624 14.1134 21.1839 13.0597C21.6208 11.9674 21.0895 10.7278 19.9972 10.2908L16.2785 8.8034C16.1899 8.76796 16.0954 8.74976 16 8.74976H7.99997ZM11.3648 17.7134C11.1393 17.697 10.9142 17.6718 10.6902 17.6378C10.54 16.8483 10.1129 16.1298 9.47475 15.619L9.44837 15.2498H14.5517L14.5253 15.6191C13.8872 16.1299 13.4602 16.8483 13.3099 17.6378C13.0671 17.6746 12.8231 17.7011 12.5785 17.7174C12.3859 17.7302 12.1929 17.7365 12 17.7365C11.9614 17.7365 11.9228 17.7363 11.8842 17.7358L11.3648 17.7134Z" fill="black"/>
</svg>
