<svg width="24" height="24" viewBox="0 0 24 24" fill="none" xmlns="http://www.w3.org/2000/svg">
<path d="M19.8787 3.25194L16.7878 7.46397H20.4364L21.7989 4.36634C22.0285 3.84443 21.8286 3.23262 21.3352 2.94704C20.8426 2.66196 20.2153 2.79329 19.8787 3.25194Z" fill="black"/>
<path d="M17.0682 18.7763C17.0114 18.8057 16.9954 18.8799 17.0345 18.9304C17.4974 19.529 17.828 20.2355 17.9825 21.0058C18.091 21.5473 17.6328 21.9994 17.0804 21.9994H7.00172C6.44929 21.9994 5.99107 21.5473 6.09967 21.0058C6.25161 20.2481 6.57394 19.5522 7.02487 18.96C7.06356 18.9092 7.0471 18.8352 6.99016 18.8063C3.69194 17.1286 1.35036 13.8339 1.00368 9.96295C0.954411 9.41286 1.40698 8.96387 1.9594 8.96387H22.0406C22.593 8.96387 23.0456 9.41286 22.9963 9.96294C22.6517 13.811 20.3357 17.0896 17.0682 18.7763Z" fill="black"/>
</svg>
