<svg width="24" height="24" viewBox="0 0 24 24" fill="none" xmlns="http://www.w3.org/2000/svg">
<path fill-rule="evenodd" clip-rule="evenodd" d="M7.98708 17.474C7.0448 16.6888 6.34062 15.6559 5.95393 14.4919L5.87517 14.2548C5.76377 13.9195 5.47788 13.6799 5.1535 13.5398C4.26526 13.1561 3.60062 12.3489 3.42064 11.359L3.18377 10.0563C2.94607 8.74888 3.95044 7.54543 5.27926 7.54543H5.36522C5.41424 7.54543 5.45458 7.50531 5.45524 7.45629C5.50295 3.88243 8.41491 1 12.0001 1C15.5563 1 18.4501 3.83602 18.5432 7.36976C18.5458 7.46648 18.624 7.54543 18.7208 7.54543C20.0496 7.54543 21.054 8.74888 20.8162 10.0563L20.5794 11.359C20.4072 12.3063 19.7911 13.0863 18.96 13.4879C18.8413 13.5452 18.7182 13.5949 18.5913 13.6362C18.2771 13.7385 18.0057 13.9691 17.9288 14.2905C17.6594 15.4166 17.0665 16.4496 16.2415 17.2577C16.1631 17.3345 16.0825 17.4093 16 17.482C15.9585 17.5185 15.9165 17.5545 15.874 17.5899C14.791 18.4924 13.4098 19 12.0001 19C10.5903 19 9.22514 18.5057 8.14213 17.6032L7.98708 17.474ZM7.61401 10.4795C7.61401 10.0653 7.27823 9.7295 6.86401 9.7295C6.4498 9.7295 6.11401 10.0653 6.11401 10.4795V10.5231C6.11401 10.9373 6.4498 11.2731 6.86401 11.2731C7.27823 11.2731 7.61401 10.9373 7.61401 10.5231V10.4795ZM17.2478 9.7295C16.8336 9.7295 16.4978 10.0653 16.4978 10.4795V10.5231C16.4978 10.9373 16.8336 11.2731 17.2478 11.2731C17.662 11.2731 17.9978 10.9373 17.9978 10.5231V10.4795C17.9978 10.0653 17.662 9.7295 17.2478 9.7295ZM9.38086 10.8637C9.38086 10.4494 9.04507 10.1137 8.63086 10.1137C8.21665 10.1137 7.88086 10.4494 7.88086 10.8637V10.9073C7.88086 11.3215 8.21665 11.6573 8.63086 11.6573C9.04507 11.6573 9.38086 11.3215 9.38086 10.9073V10.8637ZM15.481 10.1137C15.0667 10.1137 14.731 10.4494 14.731 10.8637V10.9073C14.731 11.3215 15.0667 11.6573 15.481 11.6573C15.8952 11.6573 16.231 11.3215 16.231 10.9073V10.8637C16.231 10.4494 15.8952 10.1137 15.481 10.1137ZM11.1477 10.4287C11.1477 10.0144 10.8119 9.67866 10.3977 9.67866C9.98349 9.67866 9.64771 10.0144 9.64771 10.4287V10.4723C9.64771 10.8865 9.98349 11.2223 10.3977 11.2223C10.8119 11.2223 11.1477 10.8865 11.1477 10.4723V10.4287ZM13.7141 9.67866C13.2999 9.67866 12.9641 10.0144 12.9641 10.4287V10.4723C12.9641 10.8865 13.2999 11.2223 13.7141 11.2223C14.1283 11.2223 14.4641 10.8865 14.4641 10.4723V10.4287C14.4641 10.0144 14.1283 9.67866 13.7141 9.67866ZM10.9832 15.311C10.9832 15.7252 10.6474 16.061 10.2332 16.061C9.81894 16.061 9.48315 15.7252 9.48315 15.311V15.2673C9.48315 14.8531 9.81894 14.5173 10.2332 14.5173C10.6474 14.5173 10.9832 14.8531 10.9832 15.2673V15.311ZM13.7668 16.061C14.1811 16.061 14.5168 15.7252 14.5168 15.311V15.2673C14.5168 14.8531 14.1811 14.5173 13.7668 14.5173C13.3526 14.5173 13.0168 14.8531 13.0168 15.2673V15.311C13.0168 15.7252 13.3526 16.061 13.7668 16.061ZM12.75 14.4841C12.75 14.8983 12.4142 15.2341 12 15.2341C11.5858 15.2341 11.25 14.8983 11.25 14.4841V14.4404C11.25 14.0262 11.5858 13.6904 12 13.6904C12.4142 13.6904 12.75 14.0262 12.75 14.4404V14.4841Z" fill="black"/>
<path d="M7.31623 20.2279C7.70282 20.0991 7.97028 19.7497 7.99767 19.3476C9.19109 20.097 10.5774 20.5 12.0001 20.5C13.4204 20.5 14.8108 20.0899 16.0021 19.3448C16.0285 19.748 16.2963 20.0988 16.6838 20.2279L21.6026 21.8675C21.8399 21.9466 22 22.1687 22 22.4189C22 22.7398 21.7398 23 21.4189 23H2.58114C2.26018 23 2 22.7398 2 22.4189C2 22.1687 2.16006 21.9466 2.39737 21.8675L7.31623 20.2279Z" fill="black"/>
</svg>
