<svg width="24" height="24" viewBox="0 0 24 24" fill="none" xmlns="http://www.w3.org/2000/svg">
<path d="M15.5001 5C14.3321 5 13.3512 5.80098 13.0766 6.88362C12.7952 6.86734 12.5182 6.77735 12.2755 6.61554L12.1427 6.52705C10.8428 5.66045 9.09236 5.96029 8.15499 7.21012C7.57753 7.98006 6.42263 7.98006 5.84517 7.21012C4.9078 5.96029 3.15733 5.66045 1.85743 6.52705L0.584055 7.37596C0.239408 7.60573 0.146278 8.07138 0.376042 8.41603C0.605806 8.76067 1.07146 8.8538 1.4161 8.62404L2.68948 7.77512C3.32698 7.35012 4.18546 7.49717 4.64517 8.11012C5.82262 9.68006 8.17753 9.68006 9.35499 8.11012C9.8147 7.49717 10.6732 7.35012 11.3107 7.77512L11.4434 7.86361C11.9613 8.20886 12.5601 8.38471 13.1617 8.38631C13.5194 9.32953 14.4315 10 15.5001 10H20.5001C21.8808 10 23.0001 8.88071 23.0001 7.5C23.0001 6.11929 21.8808 5 20.5001 5H15.5001Z" fill="black"/>
<path d="M11.2425 17.9552C10.4405 17.8817 9.67339 17.4811 9.15499 16.7899C8.57753 16.0199 7.42263 16.0199 6.84517 16.7899C5.9078 18.0397 4.15733 18.3396 2.85743 17.473L1.58405 16.624C1.23941 16.3943 1.14628 15.9286 1.37604 15.584C1.60581 15.2393 2.07146 15.1462 2.4161 15.376L3.68948 16.2249C4.32698 16.6499 5.18546 16.5028 5.64517 15.8899C6.82262 14.3199 9.17754 14.3199 10.355 15.8899C10.546 16.1446 10.8058 16.3188 11.0901 16.405C11.3434 15.591 12.1027 15 13.0001 15H17.0001C18.1047 15 19.0001 15.8954 19.0001 17C19.0001 18.1046 18.1047 19 17.0001 19H13.0001C12.2415 19 11.5815 18.5776 11.2425 17.9552Z" fill="black"/>
</svg>
