<svg width="24" height="24" viewBox="0 0 24 24" fill="none" xmlns="http://www.w3.org/2000/svg">
<g clip-path="url(#clip0_1607_11030)">
<path fill-rule="evenodd" clip-rule="evenodd" d="M9 1C9 0.447715 9.44771 0 10 0H14C14.5523 0 15 0.447715 15 1C15 1.55228 14.5523 2 14 2H13L13 16H15.2578C16.8372 16 18.1461 14.7755 18.2511 13.1996L18.94 2.86696C19.01 1.81637 19.8826 1 20.9356 1H23C23.5523 1 24 1.44772 24 2C24 2.55228 23.5523 3 23 3L20.9356 3L20.2467 13.3326C20.0716 15.9591 17.8901 18 15.2578 18H13V22H14C14.5523 22 15 22.4477 15 23C15 23.5523 14.5523 24 14 24H10C9.44771 24 9 23.5523 9 23C9 22.4477 9.44771 22 10 22H11V18H8.74221C6.10989 18 3.92839 15.9591 3.75329 13.3326L3.06445 3H1C0.447715 3 0 2.55228 0 2C0 1.44772 0.447715 1 1 1H3.06445C4.11738 1 4.98998 1.81637 5.06002 2.86696L5.74886 13.1996C5.85392 14.7755 7.16282 16 8.74221 16H11L11 2H10C9.44771 2 9 1.55228 9 1Z" fill="black"/>
</g>
<defs>
<clipPath id="clip0_1607_11030">
<rect width="24" height="24" fill="white"/>
</clipPath>
</defs>
</svg>
