<svg width="24" height="24" viewBox="0 0 24 24" fill="none" xmlns="http://www.w3.org/2000/svg">
<path d="M13.3333 2C13.3333 1.44772 12.8856 1 12.3333 1H11.6667C11.1144 1 10.6667 1.44772 10.6667 2V3.56667C10.6667 3.6219 10.6219 3.66667 10.5667 3.66667L9 3.66667C8.44772 3.66667 8 4.11438 8 4.66667V5.33333C8 5.88562 8.44772 6.33333 9 6.33333H10.5667C10.6219 6.33333 10.6667 6.3781 10.6667 6.43333V8C10.6667 8.55228 11.1144 9 11.6667 9H12.3333C12.8856 9 13.3333 8.55228 13.3333 8V6.43333C13.3333 6.37811 13.3781 6.33333 13.4333 6.33333H15C15.5523 6.33333 16 5.88562 16 5.33333V4.66667C16 4.11438 15.5523 3.66667 15 3.66667L13.4333 3.66667C13.3781 3.66667 13.3333 3.6219 13.3333 3.56667V2Z" fill="black"/>
<path d="M14.0403 14.2037C14.0403 15.3317 13.1258 16.2462 11.9978 16.2462C10.8697 16.2462 9.95522 15.3317 9.95522 14.2037C9.95522 13.0756 10.8697 12.1611 11.9978 12.1611C13.1258 12.1611 14.0403 13.0756 14.0403 14.2037Z" fill="black"/>
<path d="M7.50253 22.3812C7.47696 22.5688 7.46285 22.7601 7.46094 22.9543C7.46069 22.9794 7.48104 22.9999 7.5061 22.9999H16.4933C16.4964 22.9999 16.4995 22.9996 16.5024 22.999C16.5231 22.9947 16.5387 22.9763 16.5384 22.9543C16.5382 22.9349 16.5379 22.9155 16.5375 22.8962C16.5334 22.7131 16.5184 22.5327 16.4933 22.3556C16.4918 22.3454 16.4903 22.3352 16.4888 22.325C16.4472 22.0456 16.38 21.7744 16.2899 21.514C16.2884 21.5099 16.287 21.5058 16.2855 21.5016L16.285 21.4999C16.2741 21.469 16.263 21.4383 16.2515 21.4077C16.1132 21.0384 15.9281 20.692 15.7035 20.3755C14.8811 19.217 13.5287 18.461 11.9997 18.461C10.4709 18.461 9.11857 19.2168 8.29612 20.3752C8.28084 20.3967 8.26574 20.4184 8.25082 20.4402C8.02827 20.7655 7.84697 21.1213 7.71443 21.4999C7.71281 21.5046 7.71119 21.5092 7.70959 21.5138" fill="black"/>
<path d="M7.50253 22.3812C7.5037 22.3727 7.50489 22.3641 7.50611 22.3556Z" fill="black"/>
<path d="M7.50611 22.3556C7.54216 22.1019 7.59918 21.855 7.67537 21.6166Z" fill="black"/>
<path d="M5.12 18.8797C5.8553 18.8797 6.54562 19.0723 7.14324 19.4099C6.41134 20.3984 5.97402 21.6182 5.96101 22.9396C5.96081 22.9598 5.961 22.9799 5.96158 22.9999H1.041C1.01825 22.9999 0.999778 22.9813 1 22.9585C1.02221 20.7021 2.85829 18.8797 5.12 18.8797Z" fill="black"/>
<path d="M18.0384 22.9396C18.0386 22.9598 18.0384 22.9799 18.0378 22.9999H22.9589C22.9816 22.9999 23.0001 22.9813 22.9999 22.9585C22.9777 20.7021 21.1416 18.8797 18.8799 18.8797C18.1444 18.8797 17.454 19.0724 16.8563 19.4101C17.5881 20.3985 18.0254 21.6182 18.0384 22.9396Z" fill="black"/>
<path d="M5.11825 16.8693C6.14223 16.8693 6.97234 16.0392 6.97234 15.0152C6.97234 13.9912 6.14223 13.1611 5.11825 13.1611C4.09426 13.1611 3.26416 13.9912 3.26416 15.0152C3.26416 16.0392 4.09426 16.8693 5.11825 16.8693Z" fill="black"/>
<path d="M18.8781 16.8693C19.9021 16.8693 20.7322 16.0392 20.7322 15.0152C20.7322 13.9912 19.9021 13.1611 18.8781 13.1611C17.8541 13.1611 17.024 13.9912 17.024 15.0152C17.024 16.0392 17.8541 16.8693 18.8781 16.8693Z" fill="black"/>
</svg>
