<svg width="24" height="24" viewBox="0 0 24 24" fill="none" xmlns="http://www.w3.org/2000/svg">
<path d="M11.5 18.3797V22.5C11.5 22.7761 11.7239 23 12 23H18.2397C18.4028 23 18.5557 22.9204 18.6493 22.7867L21.9096 18.1291C21.9684 18.0451 22 17.945 22 17.8424V13.5C22 12.5557 21.5554 11.6666 20.8 11.1L18.8 9.6C18.4704 9.35279 18 9.58798 18 10V14.8486C18 14.9473 17.9708 15.0438 17.916 15.126L15.1832 19.2252C15.1283 19.3075 15 19.2687 15 19.1697V18.102C15 18.0659 15.0039 18.0299 15.0117 17.9946L15.4503 15.9999C15.7628 14.5787 14.9523 13.1508 13.5717 12.6906C13.2615 12.5872 12.9281 12.766 12.8427 13.0818L11.5867 17.7272C11.5291 17.9399 11.5 18.1593 11.5 18.3797Z" fill="black"/>
<path fill-rule="evenodd" clip-rule="evenodd" d="M17.2727 1H2.72727C2.32561 1 2 1.32561 2 1.72727V16.2727C2 16.6744 2.32561 17 2.72727 17H10.2294L10.7595 15.0396C10.5164 15.0685 10.2606 15.0833 10 15.0833C9.38954 15.0833 8.80574 15.0019 8.34862 14.8496C8.12398 14.7747 7.88808 14.669 7.69294 14.5152C7.50625 14.3681 7.25 14.087 7.25 13.6667C7.25 13.2524 7.58579 12.9167 8 12.9167C8.3109 12.9167 8.57762 13.1058 8.69133 13.3754C8.72522 13.391 8.76881 13.4085 8.82296 13.4265C8.93899 13.4652 9.0833 13.4999 9.25 13.5268V12.0596C8.56522 12.0156 7.93695 11.9116 7.42755 11.7588C7.08694 11.6566 6.75667 11.5201 6.4948 11.3343C6.25242 11.1624 5.91675 10.835 5.91675 10.3333C5.91675 9.91913 6.25253 9.58334 6.66675 9.58334C7.00976 9.58334 7.29899 9.81361 7.38829 10.128C7.47137 10.1805 7.62274 10.2513 7.85857 10.3221C8.21911 10.4302 8.69778 10.5149 9.25 10.556V8.73325C8.39315 8.69453 7.61121 8.5901 6.98967 8.43471C6.59597 8.33629 6.22417 8.20716 5.93272 8.0349C5.69148 7.89231 5.25 7.56694 5.25 7C5.25 6.58579 5.58579 6.25 6 6.25C6.32664 6.25 6.60451 6.45881 6.7074 6.75023C6.82345 6.81625 7.03411 6.89966 7.35347 6.9795C7.84447 7.10225 8.49999 7.19413 9.25 7.23157V5.72514C8.75802 5.69181 8.30632 5.62584 7.9324 5.53235C7.65934 5.46409 7.38517 5.37088 7.16119 5.23849C6.98742 5.13578 6.58325 4.85426 6.58325 4.33334C6.58325 3.91913 6.91904 3.58334 7.33325 3.58334C7.62045 3.58334 7.86995 3.74477 7.99595 3.98184C8.05958 4.00862 8.15747 4.04246 8.2962 4.07714C8.54787 4.14006 8.874 4.1912 9.25 4.22111V3.66653C9.25 3.25232 9.58579 2.91653 10 2.91653C10.4142 2.91653 10.75 3.25232 10.75 3.66653V4.2211C11.1259 4.19118 11.452 4.14005 11.7036 4.07714C11.8424 4.04246 11.9403 4.00862 12.0039 3.98184C12.1299 3.74477 12.3794 3.58334 12.6666 3.58334C13.0808 3.58334 13.4166 3.91913 13.4166 4.33334C13.4166 4.85426 13.0124 5.13578 12.8386 5.23849C12.6147 5.37088 12.3405 5.46409 12.0674 5.53235C11.6936 5.62583 11.2419 5.6918 10.75 5.72513V7.23157C11.5 7.19413 12.1555 7.10225 12.6465 6.9795C12.9659 6.89966 13.1765 6.81625 13.2926 6.75023C13.3955 6.45881 13.6734 6.25 14 6.25C14.4142 6.25 14.75 6.58579 14.75 7C14.75 7.56694 14.3085 7.89231 14.0673 8.0349C13.7758 8.20716 13.404 8.33629 13.0103 8.43471C12.3888 8.5901 11.6068 8.69453 10.75 8.73325V10.556C11.3023 10.5149 11.781 10.4303 12.1416 10.3221C12.3774 10.2513 12.5288 10.1805 12.6119 10.128C12.7012 9.81361 12.9904 9.58334 13.3334 9.58334C13.7476 9.58334 14.0834 9.91913 14.0834 10.3333C14.0834 10.7141 13.89 10.9945 13.6908 11.1827C13.8094 11.2002 13.9282 11.2283 14.0461 11.2676C15.135 11.6305 15.9918 12.3877 16.5 13.3342V10C16.5 9.01275 17.1752 8.27931 18 8.06242V1.72727C18 1.32561 17.6744 1 17.2727 1ZM3.25 15.0001C3.25 14.5858 3.58579 14.2501 4 14.2501H5C5.41421 14.2501 5.75 14.5858 5.75 15.0001C5.75 15.4143 5.41421 15.7501 5 15.7501H4C3.58579 15.7501 3.25 15.4143 3.25 15.0001ZM4 12.2501C3.58579 12.2501 3.25 12.5858 3.25 13.0001C3.25 13.4143 3.58579 13.7501 4 13.7501H4.5C4.91421 13.7501 5.25 13.4143 5.25 13.0001C5.25 12.5858 4.91421 12.2501 4.5 12.2501H4Z" fill="black"/>
<path d="M10.75 13.5268C10.9167 13.4999 11.061 13.4652 11.177 13.4265L11.1975 13.4196L11.3947 12.6903C11.4709 12.4084 11.6014 12.1566 11.7718 11.9425C11.4527 11.997 11.1091 12.0365 10.75 12.0596V13.5268Z" fill="black"/>
<path d="M12.5081 14.3194C12.638 14.1617 12.75 13.9446 12.75 13.6667C12.75 13.6081 12.7433 13.5511 12.7306 13.4964L12.8427 13.0818C12.9281 12.766 13.2615 12.5872 13.5717 12.6906C14.9523 13.1508 15.7628 14.5787 15.4503 15.9999L15.2304 17H11.7833L12.5081 14.3194Z" fill="black"/>
<path d="M17.2727 17H16.6667L17.916 15.126C17.9708 15.0438 18 14.9473 18 14.8486V16.2727C18 16.6744 17.6744 17 17.2727 17Z" fill="black"/>
<path d="M12.097 3.93268C12.0976 3.93275 12.093 3.93649 12.0812 3.94371C12.0905 3.93622 12.0964 3.93261 12.097 3.93268Z" fill="black"/>
<path d="M7.91865 3.94371C7.90686 3.93649 7.90221 3.93275 7.90283 3.93268C7.90345 3.93261 7.90934 3.93622 7.91865 3.94371Z" fill="black"/>
<path d="M13.3649 6.70128C13.3656 6.70137 13.3612 6.70584 13.3494 6.71442C13.3582 6.70548 13.3641 6.70119 13.3649 6.70128Z" fill="black"/>
<path d="M6.65061 6.71442C6.63875 6.70583 6.63436 6.70137 6.63512 6.70128C6.63589 6.70119 6.64182 6.70548 6.65061 6.71442Z" fill="black"/>
</svg>
