<svg width="24" height="24" viewBox="0 0 24 24" fill="none" xmlns="http://www.w3.org/2000/svg">
<path d="M14.1758 16.2727C14.1764 16.2728 14.1717 16.2766 14.1598 16.284C14.1692 16.2764 14.1751 16.2727 14.1758 16.2727Z" fill="black"/>
<path d="M9.84024 16.284C9.82829 16.2766 9.82359 16.2728 9.82423 16.2727C9.82487 16.2727 9.83085 16.2764 9.84024 16.284Z" fill="black"/>
<path fill-rule="evenodd" clip-rule="evenodd" d="M4 12.2C3.44772 12.2 3 12.6477 3 13.2V22C3 22.5522 3.44772 23 4 23H20C20.5523 23 21 22.5522 21 22V13.2C21 12.6477 20.5523 12.2 20 12.2H4ZM5.75 21C5.75 20.5858 5.41421 20.25 5 20.25C4.58579 20.25 4.25 20.5858 4.25 21V21.0317C4.25 21.4459 4.58579 21.7817 5 21.7817C5.41421 21.7817 5.75 21.4459 5.75 21.0317V21ZM12 13.2499C12.4142 13.2499 12.75 13.5856 12.75 13.9999V14.1212C12.8902 14.1029 13.0131 14.0801 13.1145 14.0547C13.1565 14.0443 13.192 14.034 13.2215 14.0244C13.3575 13.8331 13.5809 13.7083 13.8334 13.7083C14.2476 13.7083 14.5834 14.044 14.5834 14.4583C14.5834 14.9504 14.2026 15.2045 14.071 15.2823C13.8892 15.3898 13.676 15.4605 13.4783 15.5099C13.2634 15.5637 13.0163 15.6044 12.75 15.6308V16.5762C13.1495 16.5456 13.496 16.4918 13.7626 16.4251C13.9119 16.3878 14.0164 16.3512 14.0835 16.3224C14.2082 16.0813 14.4599 15.9166 14.75 15.9166C15.1642 15.9166 15.5 16.2524 15.5 16.6666C15.5 17.1904 15.0935 17.4747 14.9155 17.5799C14.6873 17.7147 14.407 17.8102 14.1264 17.8803C13.7369 17.9777 13.2647 18.0461 12.75 18.08V19.0618C13.0079 19.0314 13.2305 18.9867 13.4049 18.9344C13.4961 18.907 13.5619 18.8812 13.6066 18.8607C13.7237 18.5989 13.9863 18.4166 14.2916 18.4166C14.7058 18.4166 15.0416 18.7524 15.0416 19.1666C15.0416 19.6251 14.7351 19.9114 14.5454 20.0459C14.3362 20.1943 14.0822 20.2972 13.8359 20.3711C13.5221 20.4652 13.1512 20.5327 12.75 20.57V21.3333C12.75 21.7475 12.4142 22.0833 12 22.0833C11.5858 22.0833 11.25 21.7475 11.25 21.3333V20.5701C10.8488 20.5327 10.4777 20.4652 10.164 20.3711C9.9176 20.2972 9.6636 20.1943 9.45444 20.0459C9.26477 19.9114 8.95825 19.6251 8.95825 19.1666C8.95825 18.7524 9.29404 18.4166 9.70825 18.4166C10.0135 18.4166 10.2762 18.5989 10.3932 18.8607C10.4379 18.8812 10.5037 18.907 10.595 18.9344C10.7694 18.9867 10.9921 19.0315 11.25 19.0619V18.08C10.7353 18.0461 10.2631 17.9777 9.87355 17.8803C9.59296 17.8102 9.31268 17.7147 9.08449 17.5799C8.9065 17.4747 8.5 17.1904 8.5 16.6666C8.5 16.2524 8.83579 15.9166 9.25 15.9166C9.54014 15.9166 9.7918 16.0813 9.91653 16.3224C9.98356 16.3512 10.0881 16.3878 10.2374 16.4251C10.504 16.4918 10.8505 16.5456 11.25 16.5762V15.6308C10.9838 15.6043 10.7367 15.5637 10.5218 15.5099C10.3242 15.4605 10.111 15.3898 9.9292 15.2823C9.7976 15.2045 9.41675 14.9504 9.41675 14.4583C9.41675 14.044 9.75253 13.7083 10.1667 13.7083C10.4193 13.7083 10.6427 13.8331 10.7786 14.0244C10.8082 14.034 10.8437 14.0443 10.8856 14.0547C10.987 14.0801 11.1099 14.1029 11.25 14.1211V13.9999C11.25 13.5856 11.5858 13.2499 12 13.2499Z" fill="black"/>
<path d="M16.1845 10.7H7.81543C8.89631 9.64798 10.3725 9 11.9999 9C13.6274 9 15.1036 9.64798 16.1845 10.7Z" fill="black"/>
<path d="M14.909 3.90909C14.909 5.51574 13.6066 6.81818 11.9999 6.81818C10.3933 6.81818 9.09082 5.51574 9.09082 3.90909C9.09082 2.30244 10.3933 1 11.9999 1C13.6066 1 14.909 2.30244 14.909 3.90909Z" fill="black"/>
<path d="M16.1845 10.7H7.81543C8.89631 9.64798 10.3725 9 11.9999 9C13.6274 9 15.1036 9.64798 16.1845 10.7Z" fill="black"/>
</svg>
