<svg width="24" height="24" viewBox="0 0 24 24" fill="none" xmlns="http://www.w3.org/2000/svg">
<g clip-path="url(#clip0_1607_11059)">
<path d="M15 12.0001C15 13.6569 13.6569 15.0001 12 15.0001C10.3431 15.0001 9 13.6569 9 12.0001C9 10.3432 10.3431 9.00006 12 9.00006C13.6569 9.00006 15 10.3432 15 12.0001Z" fill="black"/>
<path fill-rule="evenodd" clip-rule="evenodd" d="M22.5437 1.45638C20.7734 -0.31388 17.9444 -0.309495 15.1616 0.618122C14.1358 0.960025 13.0722 1.43916 12 2.04337C10.9279 1.43916 9.86423 0.960025 8.83852 0.618122C6.05567 -0.309495 3.22665 -0.31388 1.45638 1.45638C-0.31388 3.22665 -0.309495 6.05567 0.618122 8.83852C0.960025 9.86423 1.43916 10.9279 2.04337 12C1.43916 13.0722 0.960025 14.1358 0.618121 15.1616C-0.309495 17.9444 -0.31388 20.7734 1.45638 22.5437C3.22665 24.314 6.05567 24.3096 8.83852 23.382C9.86423 23.04 10.9279 22.5609 12 21.9567C13.0722 22.5609 14.1358 23.04 15.1616 23.382C17.9444 24.3096 20.7734 24.314 22.5437 22.5437C24.314 20.7734 24.3096 17.9444 23.382 15.1616C23.04 14.1358 22.5609 13.0722 21.9567 12C22.5609 10.9279 23.04 9.86423 23.382 8.83852C24.3096 6.05567 24.314 3.22665 22.5437 1.45638ZM20.724 10.0492C21.0319 9.41854 21.2862 8.80128 21.4846 8.20606C22.337 5.64872 22.0755 3.81662 21.1295 2.8706C20.1835 1.92458 18.3514 1.66304 15.794 2.51549C15.1988 2.71389 14.5815 2.96815 13.9509 3.27605C15.2041 4.15448 16.4446 5.19383 17.6254 6.37466C18.8062 7.55548 19.8456 8.79599 20.724 10.0492ZM12 4.37603C13.4118 5.27779 14.8453 6.42297 16.2112 7.78887C17.5771 9.15478 18.7223 10.5883 19.624 12C18.7223 13.4118 17.5771 14.8453 16.2112 16.2112C14.8453 17.5771 13.4118 18.7223 12 19.624C10.5883 18.7223 9.15478 17.5771 7.78887 16.2112C6.42297 14.8453 5.27779 13.4118 4.37603 12C5.27779 10.5883 6.42296 9.15477 7.78887 7.78887C9.15477 6.42297 10.5883 5.27779 12 4.37603ZM10.0492 3.27605C9.41853 2.96815 8.80128 2.71389 8.20606 2.51549C5.64872 1.66304 3.81662 1.92458 2.8706 2.8706C1.92458 3.81662 1.66304 5.64872 2.51549 8.20606C2.71389 8.80128 2.96815 9.41853 3.27605 10.0492C4.15447 8.79599 5.19383 7.55548 6.37466 6.37466C7.55548 5.19383 8.79599 4.15448 10.0492 3.27605ZM3.27605 13.9509C2.96815 14.5815 2.71389 15.1988 2.51549 15.794C1.66304 18.3514 1.92458 20.1835 2.8706 21.1295C3.81662 22.0755 5.64872 22.337 8.20606 21.4846C8.80128 21.2862 9.41854 21.0319 10.0492 20.724C8.79599 19.8456 7.55548 18.8062 6.37466 17.6254C5.19383 16.4446 4.15448 15.2041 3.27605 13.9509ZM13.9509 20.724C15.2041 19.8456 16.4446 18.8062 17.6254 17.6254C18.8062 16.4446 19.8456 15.2041 20.724 13.9509C21.0319 14.5815 21.2862 15.1988 21.4846 15.794C22.337 18.3514 22.0755 20.1835 21.1295 21.1295C20.1835 22.0755 18.3514 22.337 15.794 21.4846C15.1988 21.2862 14.5815 21.0319 13.9509 20.724Z" fill="black"/>
</g>
<defs>
<clipPath id="clip0_1607_11059">
<rect width="24" height="24" fill="white"/>
</clipPath>
</defs>
</svg>
