<svg width="24" height="24" viewBox="0 0 24 24" fill="none" xmlns="http://www.w3.org/2000/svg">
<path fill-rule="evenodd" clip-rule="evenodd" d="M9.00714 13.8553L8.67085 13.5151C8.47507 13.3171 8.47531 12.9957 8.67138 12.7974L10.2967 11.1534L10.4912 11.3577L13.5038 14.405L13.9425 14.8578L12.3254 16.4935C12.1293 16.6919 11.8117 16.6921 11.6159 16.4941L10.0617 14.922L7.97802 17.027L8.20359 17.5697C8.7415 18.8639 8.72358 20.1435 8.32495 21.25H15C15.4142 21.25 15.75 21.5858 15.75 22C15.75 22.4142 15.4142 22.75 15 22.75H2.01273C1.81784 22.7533 1.62184 22.6811 1.47237 22.5331C1.38808 22.4497 1.32772 22.3512 1.29135 22.2462L10.0617 14.922L1.25 21.9997C1.25007 21.8449 1.297 21.7011 1.37736 21.5817C1.40577 21.5395 1.43836 21.5004 1.47454 21.4648L9.00136 13.861C9.00328 13.8591 9.00521 13.8572 9.00714 13.8553ZM3.79782 21.25H6.68355C7.15971 20.387 7.29062 19.312 6.83384 18.1829L3.79782 21.25Z" fill="black"/>
<path d="M1.29135 22.2462L1.25 21.9997L1.25008 22.0113C1.25127 22.0909 1.26503 22.1702 1.29135 22.2462Z" fill="black"/>
<path d="M11.5679 10.3133L11.3518 10.0862L12.3034 9.12366L12.4936 9.32317L12.503 9.33286L15.5097 12.3741L15.9477 12.8295L14.9973 13.7908L14.5785 13.3585L14.5732 13.3531L11.5679 10.3133Z" fill="black"/>
<path d="M13.5745 8.28306L13.3584 8.05649L18.5873 2.76744C19.5978 1.74527 21.235 1.74403 22.244 2.76466C23.253 3.78527 23.2518 5.44124 22.2413 6.46339L17.0026 11.7624L16.5872 11.3305L16.58 11.3232L13.5745 8.28306Z" fill="black"/>
</svg>
