<svg width="24" height="24" viewBox="0 0 24 24" fill="none" xmlns="http://www.w3.org/2000/svg">
<path fill-rule="evenodd" clip-rule="evenodd" d="M10.7748 2.11351L5.3903 9.46245C3.20533 12.8032 3.63392 17.2965 6.40716 20.1233C9.51612 23.2922 14.4839 23.2922 17.5928 20.1233C20.3661 17.2965 20.7947 12.8032 18.6097 9.46246L13.191 2.11013C12.5904 1.29521 11.3731 1.29692 10.7748 2.11351ZM10.557 11.9979V9.53322C10.557 9.47791 10.6017 9.43307 10.657 9.43307H13.4991C13.5543 9.43307 13.5991 9.47791 13.5991 9.53322V11.9973C13.5991 12.0528 13.6443 12.0977 13.6997 12.0974L16.166 12.0826C16.2215 12.0823 16.2666 12.1272 16.2666 12.1828V15.0244C16.2666 15.0794 16.2222 15.1242 16.1672 15.1245L13.6985 15.1393C13.6435 15.1397 13.5991 15.1844 13.5991 15.2395V18.026C13.5991 18.0813 13.5543 18.1261 13.4991 18.1261H10.657C10.6017 18.1261 10.557 18.0813 10.557 18.026V15.2401C10.557 15.1848 10.5122 15.1399 10.457 15.1399H7.83328C7.77805 15.1399 7.73328 15.0951 7.73328 15.0398V12.1982C7.73328 12.1429 7.77805 12.098 7.83328 12.098H10.457C10.5122 12.098 10.557 12.0532 10.557 11.9979Z" fill="black"/>
</svg>
