<svg width="24" height="24" viewBox="0 0 24 24" fill="none" xmlns="http://www.w3.org/2000/svg">
<path d="M11.49 13.5707C11.4655 13.5951 11.4557 13.6305 11.4623 13.6644C11.466 13.6839 11.4694 13.7036 11.4724 13.7233L12.5348 20.788C12.7519 22.2319 14.743 22.4515 15.2696 21.0896L21.9008 3.93988C21.9884 3.71343 22.0149 3.48769 21.9924 3.27452C21.9841 3.19678 21.891 3.16963 21.8358 3.2249L11.49 13.5707Z" fill="black"/>
<path d="M20.7751 2.16424C20.8304 2.10896 20.8032 2.01586 20.7255 2.00763C20.5123 1.98507 20.2866 2.01164 20.0601 2.09921L2.91038 8.73044C1.54853 9.25702 1.76812 11.2481 3.212 11.4652L10.2767 12.5276C10.3309 12.5358 10.3908 12.5485 10.4293 12.51L20.7751 2.16424Z" fill="black"/>
</svg>
