<svg width="24" height="24" viewBox="0 0 24 24" fill="none" xmlns="http://www.w3.org/2000/svg">
<g clip-path="url(#clip0_1607_7869)">
<path d="M7.22196 16.7458L16.6647 7.25425M7.97233 21.7976L10.8604 18.8946C12.4554 17.2914 12.4554 14.692 10.8604 13.0887C9.26535 11.4854 6.67931 11.4854 5.0843 13.0887L2.19626 15.9917C0.601246 17.5949 0.601246 20.1943 2.19626 21.7976C3.79128 23.4009 6.37731 23.4009 7.97233 21.7976ZM16.0277 2.20245L13.1396 5.10543C11.5446 6.7087 11.5446 9.30811 13.1396 10.9114C14.7347 12.5147 17.3207 12.5147 18.9157 10.9114L21.8037 8.00841C23.3988 6.40514 23.3988 3.80572 21.8037 2.20245C20.2087 0.599182 17.6227 0.599182 16.0277 2.20245Z" stroke="black" stroke-width="1.5" stroke-linecap="round" stroke-linejoin="round"/>
</g>
<defs>
<clipPath id="clip0_1607_7869">
<rect width="24" height="24" fill="white"/>
</clipPath>
</defs>
</svg>
