<svg width="24" height="24" viewBox="0 0 24 24" fill="none" xmlns="http://www.w3.org/2000/svg">
<path d="M8.64558 19.6826C6.89655 21.4391 4.06081 21.4391 2.31177 19.6826C0.562742 17.9261 0.562742 15.0781 2.31177 13.3216L7.23807 8.37413C8.9871 6.61758 11.8228 6.61758 13.5719 8.37413C15.3209 10.1307 15.3209 12.9786 13.5719 14.7351L8.64558 19.6826Z" stroke="black" stroke-width="1.5" stroke-linecap="round" stroke-linejoin="round"/>
<path d="M16.7619 16.6259C15.0129 18.3824 12.1772 18.3824 10.4281 16.6259C8.6791 14.8693 8.67909 12.0214 10.4281 10.2649L15.3544 5.31741C17.1035 3.56086 19.9392 3.56086 21.6882 5.31741C23.4373 7.07396 23.4373 9.92188 21.6882 11.6784L16.7619 16.6259Z" stroke="black" stroke-width="1.5" stroke-linecap="round" stroke-linejoin="round"/>
</svg>
