<svg width="24" height="24" viewBox="0 0 24 24" fill="none" xmlns="http://www.w3.org/2000/svg">
<g clip-path="url(#clip0_1607_6705)">
<path fill-rule="evenodd" clip-rule="evenodd" d="M6.4 7C3.98717 7 2 8.99734 2 11.5C2 14.0027 3.98717 16 6.4 16C7.52203 16 8.54626 15.5716 9.32631 14.8605C9.73446 14.4884 10.367 14.5177 10.739 14.9258C11.1111 15.334 11.0818 15.9665 10.6737 16.3385C9.54302 17.3693 8.04405 18 6.4 18C2.84816 18 0 15.0725 0 11.5C0 7.92753 2.84816 5 6.4 5C8.04405 5 9.54302 5.63074 10.6737 6.66145C11.0818 7.03352 11.1111 7.66601 10.739 8.07416C10.367 8.48231 9.73446 8.51155 9.32631 8.13949C8.54626 7.42839 7.52203 7 6.4 7ZM19.4 7C16.9872 7 15 8.99734 15 11.5C15 14.0027 16.9872 16 19.4 16C20.522 16 21.5463 15.5716 22.3263 14.8605C22.7345 14.4884 23.367 14.5177 23.739 14.9258C24.1111 15.334 24.0818 15.9665 23.6737 16.3385C22.543 17.3693 21.044 18 19.4 18C15.8482 18 13 15.0725 13 11.5C13 7.92753 15.8482 5 19.4 5C21.044 5 22.543 5.63074 23.6737 6.66145C24.0818 7.03352 24.1111 7.66601 23.739 8.07416C23.367 8.48231 22.7345 8.51155 22.3263 8.13949C21.5463 7.42839 20.522 7 19.4 7Z" fill="black"/>
</g>
<defs>
<clipPath id="clip0_1607_6705">
<rect width="24" height="24" fill="white"/>
</clipPath>
</defs>
</svg>
