<svg width="24" height="24" viewBox="0 0 24 24" fill="none" xmlns="http://www.w3.org/2000/svg">
<path fill-rule="evenodd" clip-rule="evenodd" d="M5.93208 8C3.76045 8 2 9.76045 2 11.9321V12.0679C2 14.2395 3.76045 16 5.93208 16C7.21518 16 8.41757 15.374 9.15337 14.3228L10.7793 12L9.15337 9.67718C8.41757 8.62603 7.21518 8 5.93208 8ZM12 10.2562L10.7918 8.53026C9.68177 6.94445 7.8678 6 5.93208 6C2.65588 6 0 8.65588 0 11.9321V12.0679C0 15.3441 2.65588 18 5.93208 18C7.8678 18 9.68177 17.0555 10.7918 15.4697L12 13.7438L13.2082 15.4697C14.3182 17.0555 16.1322 18 18.0679 18C21.3441 18 24 15.3441 24 12.0679V11.9321C24 8.65588 21.3441 6 18.0679 6C16.1322 6 14.3182 6.94446 13.2082 8.53026L12 10.2562ZM13.2207 12L14.8466 14.3228C15.5824 15.374 16.7848 16 18.0679 16C20.2395 16 22 14.2395 22 12.0679V11.9321C22 9.76045 20.2395 8 18.0679 8C16.7848 8 15.5824 8.62603 14.8466 9.67718L13.2207 12Z" fill="black"/>
</svg>
