<svg width="24" height="24" viewBox="0 0 24 24" fill="none" xmlns="http://www.w3.org/2000/svg">
<path fill-rule="evenodd" clip-rule="evenodd" d="M1.21967 1.21967C1.51256 0.926777 1.98744 0.926777 2.28033 1.21967L22.7803 21.7197C23.0732 22.0126 23.0732 22.4874 22.7803 22.7803C22.4874 23.0732 22.0126 23.0732 21.7197 22.7803L1.21967 2.28033C0.926777 1.98744 0.926777 1.51256 1.21967 1.21967Z" fill="black"/>
<path d="M8.14648 10.6214C8.08348 10.5584 7.97577 10.603 7.97577 10.6921V10.75C7.97577 12.9591 9.76663 14.75 11.9758 14.75C11.9993 14.75 12.0227 14.7498 12.0461 14.7494C12.1318 14.7479 12.1706 14.6455 12.11 14.5849L8.14648 10.6214Z" fill="black"/>
<path d="M14.2318 16.7067C14.2054 16.6803 14.1665 16.6708 14.1309 16.6818C13.4571 16.8887 12.7416 17 12 17C7.99594 17 4.75 13.7541 4.75 9.75V8.20142C4.75 7.7872 4.41421 7.45142 4 7.45142C3.58579 7.45142 3.25 7.7872 3.25 8.20142V9.75C3.25 14.3298 6.7686 18.1196 11.25 18.5V21.5H7.42859C7.01438 21.5 6.67859 21.8358 6.67859 22.25C6.67859 22.6642 7.01438 23 7.42859 23H16.5714C16.9857 23 17.3214 22.6642 17.3214 22.25C17.3214 21.8358 16.9857 21.5 16.5714 21.5H12.75V18.5C13.6229 18.4259 14.4592 18.2225 15.2401 17.909C15.306 17.8826 15.3227 17.7976 15.2725 17.7474L14.2318 16.7067Z" fill="black"/>
<path d="M18.377 15.7576C18.3386 15.7985 18.2741 15.7992 18.2344 15.7596L17.3069 14.832C17.2685 14.7936 17.2678 14.7315 17.3049 14.6917C18.5117 13.3969 19.25 11.6596 19.25 9.75V8.20142C19.25 7.7872 19.5858 7.45142 20 7.45142C20.4142 7.45142 20.75 7.7872 20.75 8.20142V9.75C20.75 12.0682 19.8485 14.1839 18.377 15.7576Z" fill="black"/>
<path d="M15.4245 12.7777C15.3919 12.8329 15.3162 12.8413 15.2709 12.796L8.00506 5.53018C7.9863 5.51143 7.97577 5.486 7.97577 5.45947V5C7.97577 2.79086 9.76663 1 11.9758 1C14.1849 1 15.9758 2.79086 15.9758 5V10.75C15.9758 11.49 15.7748 12.1831 15.4245 12.7777Z" fill="black"/>
</svg>
