<svg width="24" height="24" viewBox="0 0 24 24" fill="none" xmlns="http://www.w3.org/2000/svg">
<path fill-rule="evenodd" clip-rule="evenodd" d="M1 12C1 5.92487 5.92487 1 12 1C18.0751 1 23 5.92487 23 12C23 18.0751 18.0751 23 12 23C5.92487 23 1 18.0751 1 12ZM17.1893 14.4318L16.5606 13.8031C16.2677 13.5102 16.2677 13.0353 16.5606 12.7424C16.8535 12.4495 17.3284 12.4495 17.6212 12.7424L19.4853 14.6065C19.493 14.6142 19.5006 14.622 19.5079 14.63C19.6567 14.767 19.75 14.9635 19.75 15.1818C19.75 15.4001 19.6567 15.5966 19.5079 15.7337C19.5006 15.7416 19.493 15.7494 19.4853 15.7571L17.6212 17.6212C17.3284 17.9141 16.8535 17.9141 16.5606 17.6212C16.2677 17.3283 16.2677 16.8535 16.5606 16.5606L17.1893 15.9318H16.6882C14.5927 15.9318 12.639 14.9675 11.3636 13.3592C10.0882 14.9675 8.13458 15.9318 6.03904 15.9318H5C4.58579 15.9318 4.25 15.596 4.25 15.1818C4.25 14.7676 4.58579 14.4318 5 14.4318H6.03904C7.84993 14.4318 9.52485 13.5077 10.4938 12C9.52485 10.4923 7.84993 9.56818 6.03904 9.56818H5C4.58579 9.56818 4.25 9.23239 4.25 8.81818C4.25 8.40397 4.58579 8.06818 5 8.06818H6.03904C8.13458 8.06818 10.0882 9.03254 11.3636 10.6408C12.639 9.03254 14.5927 8.06818 16.6882 8.06818H17.1893L16.5606 7.43942C16.2677 7.14652 16.2677 6.67165 16.5606 6.37876C16.8535 6.08587 17.3284 6.08587 17.6212 6.37876L19.4853 8.24285C19.493 8.25056 19.5006 8.25839 19.5079 8.26633C19.6567 8.40339 19.75 8.59989 19.75 8.81818C19.75 9.03646 19.6567 9.23297 19.5079 9.37003C19.5006 9.37797 19.493 9.38579 19.4853 9.39351L17.6212 11.2576C17.3284 11.5505 16.8535 11.5505 16.5606 11.2576C16.2677 10.9647 16.2677 10.4898 16.5606 10.1969L17.1893 9.56818H16.6882C14.8773 9.56818 13.2024 10.4923 12.2334 12C13.2024 13.5077 14.8773 14.4318 16.6882 14.4318H17.1893Z" fill="black"/>
</svg>
