<svg width="24" height="24" viewBox="0 0 24 24" fill="none" xmlns="http://www.w3.org/2000/svg">
<path d="M19.3672 6H20.5858L19.2929 4.70711C18.9024 4.31658 18.9024 3.68342 19.2929 3.29289C19.6834 2.90237 20.3166 2.90237 20.7071 3.29289L23.6364 6.22218C23.6486 6.23435 23.6604 6.24674 23.6719 6.25932C23.8734 6.44227 24 6.70635 24 7C24 7.29365 23.8734 7.55774 23.6719 7.74068C23.6604 7.75327 23.6486 7.76565 23.6364 7.77782L20.7071 10.7071C20.3166 11.0976 19.6834 11.0976 19.2929 10.7071C18.9024 10.3166 18.9024 9.68342 19.2929 9.29289L20.5858 8H19.3672C16.422 8 13.7009 9.5229 12.1555 12C13.7009 14.4771 16.422 16 19.3672 16H20.5858L19.2929 14.7071C18.9024 14.3166 18.9024 13.6834 19.2929 13.2929C19.6834 12.9024 20.3166 12.9024 20.7071 13.2929L23.6364 16.2222C23.6486 16.2344 23.6604 16.2467 23.6719 16.2593C23.8734 16.4423 24 16.7064 24 17C24 17.2936 23.8734 17.5577 23.6719 17.7407C23.6604 17.7533 23.6486 17.7656 23.6364 17.7778L20.7071 20.7071C20.3166 21.0976 19.6834 21.0976 19.2929 20.7071C18.9024 20.3166 18.9024 19.6834 19.2929 19.2929L20.5858 18H19.3672C16.0517 18 12.966 16.4376 11 13.8446C9.03399 16.4376 5.94833 18 2.63278 18H0.999999C0.447715 18 0 17.5523 0 17C0 16.4477 0.447715 16 0.999999 16H2.63278C5.57799 16 8.29913 14.4771 9.84453 12C8.29913 9.5229 5.57799 8 2.63278 8H0.999999C0.447715 8 0 7.55229 0 7C0 6.44772 0.447715 6 0.999999 6L2.63278 6C5.94833 6 9.03399 7.56238 11 10.1554C12.966 7.56238 16.0517 6 19.3672 6Z" fill="black"/>
</svg>
