<svg width="24" height="24" viewBox="0 0 24 24" fill="none" xmlns="http://www.w3.org/2000/svg">
<path d="M20.3098 3.49253C20.0295 3.18754 19.5551 3.16749 19.2501 3.44776C18.9451 3.72803 18.9251 4.20248 19.2053 4.50747C21.126 6.59767 22.25 9.19635 22.25 12C22.25 14.8037 21.1261 17.4023 19.2053 19.4925C18.9251 19.7975 18.9451 20.272 19.2501 20.5522C19.5551 20.8325 20.0295 20.8125 20.3098 20.5075C22.4548 18.1733 23.75 15.2219 23.75 12C23.75 8.77813 22.4548 5.82673 20.3098 3.49253Z" fill="black"/>
<path d="M17.5568 6.49754C17.2793 6.19003 16.8051 6.1657 16.4975 6.4432C16.19 6.7207 16.1657 7.19495 16.4432 7.50247C17.5892 8.77239 18.25 10.3296 18.25 12C18.25 13.6704 17.5892 15.2276 16.4432 16.4975C16.1657 16.8051 16.19 17.2793 16.4975 17.5568C16.8051 17.8343 17.2793 17.81 17.5568 17.5025C18.922 15.9896 19.75 14.0835 19.75 12C19.75 9.91649 18.922 8.01036 17.5568 6.49754Z" fill="black"/>
<path d="M2 8.71899H5.49939L5.49939 15.2807H2C1.44771 15.2807 1 14.833 1 14.2807V9.71899C1 9.1667 1.44772 8.71899 2 8.71899Z" fill="black"/>
<path d="M12.4385 18.2763L6.99939 15.5568L6.99939 8.44314L12.4385 5.72357C13.1034 5.39112 13.8858 5.87461 13.8858 6.61799V17.3819C13.8858 18.1253 13.1034 18.6088 12.4385 18.2763Z" fill="black"/>
</svg>
