<svg width="24" height="24" viewBox="0 0 24 24" fill="none" xmlns="http://www.w3.org/2000/svg">
<path d="M2.53033 1.46967C2.23744 1.17678 1.76256 1.17678 1.46967 1.46967C1.17678 1.76256 1.17678 2.23744 1.46967 2.53033L21.4697 22.5303C21.7626 22.8232 22.2374 22.8232 22.5303 22.5303C22.8232 22.2374 22.8232 21.7626 22.5303 21.4697L2.53033 1.46967Z" fill="black"/>
<path d="M5.55713 9.71898C5.55713 9.262 5.86367 8.87661 6.28234 8.75721L10.0565 12.5314V15.2807H6.55713C6.00484 15.2807 5.55713 14.833 5.55713 14.2807V9.71898Z" fill="black"/>
<path d="M11.5565 15.5568V14.0314L14.6073 17.0821L11.5565 15.5568Z" fill="black"/>
<path d="M18.4429 6.61799V15.968L11.5565 9.08164V8.44314L16.9957 5.72356C17.6606 5.39111 18.4429 5.87461 18.4429 6.61799Z" fill="black"/>
</svg>
