<svg width="24" height="24" viewBox="0 0 24 24" fill="none" xmlns="http://www.w3.org/2000/svg">
<path d="M2 8.71898H5.49939L5.49939 15.2807H2C1.44771 15.2807 1 14.833 1 14.2807V9.71898C1 9.1667 1.44772 8.71898 2 8.71898Z" fill="black"/>
<path d="M12.4385 18.2763L6.99939 15.5568L6.99939 8.44314L12.4385 5.72356C13.1034 5.39111 13.8858 5.87461 13.8858 6.61799V17.3819C13.8858 18.1253 13.1034 18.6088 12.4385 18.2763Z" fill="black"/>
<path d="M17.5303 8.46967C17.2374 8.17678 16.7626 8.17678 16.4697 8.46967C16.1768 8.76256 16.1768 9.23744 16.4697 9.53033L18.9393 12L16.4697 14.4697C16.1768 14.7626 16.1768 15.2374 16.4697 15.5303C16.7626 15.8232 17.2374 15.8232 17.5303 15.5303L20 13.0607L22.4697 15.5303C22.7626 15.8232 23.2374 15.8232 23.5303 15.5303C23.8232 15.2374 23.8232 14.7626 23.5303 14.4697L21.0607 12L23.5303 9.53033C23.8232 9.23744 23.8232 8.76256 23.5303 8.46967C23.2374 8.17678 22.7626 8.17678 22.4697 8.46967L20 10.9393L17.5303 8.46967Z" fill="black"/>
</svg>
