<svg width="24" height="24" viewBox="0 0 24 24" fill="none" xmlns="http://www.w3.org/2000/svg">
<path d="M10.2116 12.022C10.2116 11.7418 10.488 11.2389 11.25 11.0404V13.0936C10.9109 12.9811 10.6805 12.8449 10.529 12.7116C10.2992 12.5096 10.2116 12.2826 10.2116 12.022Z" fill="black"/>
<path d="M12.75 17.3564V14.9367C13.0905 15.0286 13.3599 15.1408 13.5614 15.2764C13.8571 15.4753 14.0273 15.733 14.0273 16.2065C14.0273 16.474 13.8791 16.7668 13.5022 17.0243C13.2964 17.1649 13.0395 17.2803 12.75 17.3564Z" fill="black"/>
<path fill-rule="evenodd" clip-rule="evenodd" d="M9.5 1.25C7.42893 1.25 5.75 2.92893 5.75 5V6.5H2C1.44772 6.5 1 6.94772 1 7.5V21C1 21.5523 1.44772 22 2 22H22C22.5523 22 23 21.5523 23 21V7.5C23 6.94772 22.5523 6.5 22 6.5H18.25V5C18.25 2.92893 16.5711 1.25 14.5 1.25H9.5ZM16.75 6.5V5C16.75 3.75736 15.7426 2.75 14.5 2.75H9.5C8.25736 2.75 7.25 3.75736 7.25 5V6.5H16.75ZM12.75 9V9.53456C14.1941 9.82696 15.25 10.9077 15.25 12.2065C15.25 12.6208 14.9142 12.9565 14.5 12.9565C14.0858 12.9565 13.75 12.6208 13.75 12.2065C13.75 11.8477 13.4393 11.3169 12.75 11.0793V13.3948C13.352 13.5219 13.9278 13.715 14.3988 14.0319C15.1037 14.5062 15.5273 15.2277 15.5273 16.2065C15.5273 17.1044 15.0088 17.8116 14.3485 18.2628C13.8907 18.5755 13.3377 18.7888 12.75 18.8897V19.5328C12.75 19.947 12.4142 20.2828 12 20.2828C11.5858 20.2828 11.25 19.947 11.25 19.5328V18.9125C10.6727 18.838 10.1206 18.664 9.6612 18.3503C8.97648 17.8828 8.5667 17.1489 8.5667 16.2065C8.5667 15.7923 8.90249 15.4565 9.3167 15.4565C9.73091 15.4565 10.0667 15.7923 10.0667 16.2065C10.0667 16.6625 10.2392 16.9287 10.507 17.1115C10.6899 17.2364 10.9392 17.3351 11.25 17.3944V14.6496C10.5438 14.4844 9.96842 14.2161 9.53852 13.8381C8.97002 13.3382 8.71155 12.6937 8.71155 12.022C8.71155 10.7205 9.81422 9.75667 11.25 9.51532V9C11.25 8.58579 11.5858 8.25 12 8.25C12.4142 8.25 12.75 8.58579 12.75 9Z" fill="black"/>
</svg>
