<svg width="24" height="24" viewBox="0 0 24 24" fill="none" xmlns="http://www.w3.org/2000/svg">
<path d="M2 4.5C1.44772 4.5 1 4.94772 1 5.5V7.5H23V5.5C23 4.94772 22.5523 4.5 22 4.5H2Z" fill="black"/>
<path fill-rule="evenodd" clip-rule="evenodd" d="M23 10.5H1V18.5C1 19.0523 1.44772 19.5 2 19.5H22C22.5523 19.5 23 19.0523 23 18.5V10.5ZM15.25 16.5C15.25 16.0858 15.5858 15.75 16 15.75H20C20.4142 15.75 20.75 16.0858 20.75 16.5C20.75 16.9142 20.4142 17.25 20 17.25H16C15.5858 17.25 15.25 16.9142 15.25 16.5ZM11 15.75C10.5858 15.75 10.25 16.0858 10.25 16.5C10.25 16.9142 10.5858 17.25 11 17.25H13C13.4142 17.25 13.75 16.9142 13.75 16.5C13.75 16.0858 13.4142 15.75 13 15.75H11Z" fill="black"/>
</svg>
