<svg width="24" height="24" viewBox="0 0 24 24" fill="none" xmlns="http://www.w3.org/2000/svg">
<path d="M9.75 12C9.75 10.7574 10.7574 9.75 12 9.75C13.2426 9.75 14.25 10.7574 14.25 12C14.25 13.2426 13.2426 14.25 12 14.25C10.7574 14.25 9.75 13.2426 9.75 12Z" fill="black"/>
<path fill-rule="evenodd" clip-rule="evenodd" d="M18.25 6H5.75C5.75 8.62335 3.62335 10.75 1 10.75V13.25C3.62335 13.25 5.75 15.3766 5.75 18H18.25C18.25 15.3766 20.3766 13.25 23 13.25V10.75C20.3766 10.75 18.25 8.62335 18.25 6ZM12 8.25C9.92893 8.25 8.25 9.92893 8.25 12C8.25 14.0711 9.92893 15.75 12 15.75C14.0711 15.75 15.75 14.0711 15.75 12C15.75 9.92893 14.0711 8.25 12 8.25Z" fill="black"/>
<path d="M23 14.75C21.2051 14.75 19.75 16.2051 19.75 18H22C22.5523 18 23 17.5523 23 17V14.75Z" fill="black"/>
<path d="M1 17V14.75C2.79493 14.75 4.25 16.2051 4.25 18H2C1.44772 18 1 17.5523 1 17Z" fill="black"/>
<path d="M23 9.25V7C23 6.44772 22.5523 6 22 6H19.75C19.75 7.79493 21.2051 9.25 23 9.25Z" fill="black"/>
<path d="M2 6H4.25C4.25 7.79493 2.79493 9.25 1 9.25V7C1 6.44772 1.44772 6 2 6Z" fill="black"/>
</svg>
