<svg width="24" height="24" viewBox="0 0 24 24" fill="none" xmlns="http://www.w3.org/2000/svg">
<path d="M11.2305 7.4278C10.8244 7.52332 10.5723 7.69468 10.4116 7.87208C10.156 8.15448 10.0212 8.5745 10.0212 9.1001C10.0212 9.59163 10.1618 10.0029 10.4501 10.3252C10.6241 10.5197 10.8745 10.7069 11.2305 10.859V7.4278Z" fill="black"/>
<path d="M12.7305 12.7824V16.7495C13.0965 16.6372 13.449 16.448 13.7458 16.1992C14.2427 15.7826 14.5212 15.2561 14.5212 14.728C14.5212 13.9605 14.2485 13.5515 13.8512 13.2678C13.5633 13.0623 13.1872 12.9076 12.7305 12.7824Z" fill="black"/>
<path fill-rule="evenodd" clip-rule="evenodd" d="M23 12C23 18.0751 18.0751 23 12 23C5.92487 23 1 18.0751 1 12C1 5.92487 5.92487 1 12 1C18.0751 1 23 5.92487 23 12ZM12.7305 5.90894V5.1001C12.7305 4.68588 12.3947 4.3501 11.9805 4.3501C11.5663 4.3501 11.2305 4.68588 11.2305 5.1001V5.90281C10.4125 6.02403 9.76428 6.35217 9.29968 6.86533C8.7142 7.51199 8.52124 8.34197 8.52124 9.1001C8.52124 9.89229 8.75572 10.681 9.3322 11.3254C9.7921 11.8394 10.429 12.2163 11.2305 12.4463V16.7777C10.8559 16.6865 10.5154 16.5268 10.2427 16.3086C9.81497 15.9665 9.52124 15.458 9.52124 14.728C9.52124 14.3138 9.18545 13.978 8.77124 13.978C8.35703 13.978 8.02124 14.3138 8.02124 14.728C8.02124 15.9235 8.52984 16.8593 9.30563 17.4799C9.8622 17.9252 10.5374 18.195 11.2305 18.3066V18.9001C11.2305 19.3143 11.5663 19.6501 11.9805 19.6501C12.3947 19.6501 12.7305 19.3143 12.7305 18.9001V18.2934C13.4592 18.1526 14.1525 17.8156 14.7095 17.3487C15.4568 16.7222 16.0212 15.8046 16.0212 14.728C16.0212 13.4955 15.53 12.6233 14.7227 12.047C14.1445 11.6342 13.4353 11.3967 12.7305 11.2363V7.44162C13.1227 7.55028 13.3825 7.74507 13.5612 7.96778C13.858 8.33762 14.0212 8.89747 14.0212 9.6001C14.0212 10.0143 14.357 10.3501 14.7712 10.3501C15.1855 10.3501 15.5212 10.0143 15.5212 9.6001C15.5212 8.69807 15.3161 7.75793 14.7311 7.02893C14.2554 6.43631 13.5821 6.0492 12.7305 5.90894Z" fill="black"/>
</svg>
