<svg width="24" height="24" viewBox="0 0 24 24" fill="none" xmlns="http://www.w3.org/2000/svg">
<path fill-rule="evenodd" clip-rule="evenodd" d="M7.99997 22.9999C11.3137 22.9999 14 20.3136 14 16.9999C14 13.6862 11.3137 10.9999 7.99997 10.9999C4.68627 10.9999 1.99997 13.6862 1.99997 16.9999C1.99997 20.3136 4.68627 22.9999 7.99997 22.9999ZM5.49997 16.2499C5.08576 16.2499 4.74997 16.5857 4.74997 16.9999C4.74997 17.4141 5.08576 17.7499 5.49997 17.7499H10.5C10.9142 17.7499 11.25 17.4141 11.25 16.9999C11.25 16.5857 10.9142 16.2499 10.5 16.2499H5.49997Z" fill="black"/>
<path fill-rule="evenodd" clip-rule="evenodd" d="M22.701 13.4063L10.5937 1.29905C10.3794 1.08479 10.081 0.976764 9.77928 1.0042L2.58279 1.65842C2.09195 1.70305 1.70305 2.09195 1.65842 2.58279L1.0042 9.77928C0.976764 10.081 1.08479 10.3794 1.29905 10.5937L2.55142 11.846C3.9185 10.4013 5.85399 9.5 8 9.5C12.1421 9.5 15.5 12.8579 15.5 17C15.5 19.146 14.5987 21.0815 13.154 22.4486L13.4063 22.701C13.8051 23.0997 14.4515 23.0997 14.8502 22.701L22.701 14.8502C23.0997 14.4515 23.0997 13.8051 22.701 13.4063ZM8.00004 6.00004C8.00004 7.10461 7.10461 8.00004 6.00004 8.00004C4.89547 8.00004 4.00004 7.10461 4.00004 6.00004C4.00004 4.89547 4.89547 4.00004 6.00004 4.00004C7.10461 4.00004 8.00004 4.89547 8.00004 6.00004Z" fill="black"/>
</svg>
