<svg width="24" height="24" viewBox="0 0 24 24" fill="none" xmlns="http://www.w3.org/2000/svg">
<path fill-rule="evenodd" clip-rule="evenodd" d="M7.99997 23C11.3137 23 14 20.3137 14 17C14 13.6863 11.3137 11 7.99997 11C4.68627 11 1.99997 13.6863 1.99997 17C1.99997 20.3137 4.68627 23 7.99997 23ZM8.74997 14.5C8.74997 14.0858 8.41419 13.75 7.99997 13.75C7.58576 13.75 7.24997 14.0858 7.24997 14.5V16.25H5.49997C5.08576 16.25 4.74997 16.5858 4.74997 17C4.74997 17.4142 5.08576 17.75 5.49997 17.75H7.24997V19.5C7.24997 19.9142 7.58576 20.25 7.99997 20.25C8.41419 20.25 8.74997 19.9142 8.74997 19.5V17.75H10.5C10.9142 17.75 11.25 17.4142 11.25 17C11.25 16.5858 10.9142 16.25 10.5 16.25H8.74997V14.5Z" fill="black"/>
<path fill-rule="evenodd" clip-rule="evenodd" d="M22.701 13.4063L10.5937 1.29905C10.3794 1.08479 10.081 0.976764 9.77928 1.0042L2.58279 1.65842C2.09195 1.70305 1.70305 2.09195 1.65842 2.58279L1.0042 9.77928C0.976764 10.081 1.08479 10.3794 1.29905 10.5937L2.55142 11.846C3.9185 10.4013 5.85399 9.5 8 9.5C12.1421 9.5 15.5 12.8579 15.5 17C15.5 19.146 14.5987 21.0815 13.154 22.4486L13.4063 22.701C13.8051 23.0997 14.4515 23.0997 14.8502 22.701L22.701 14.8502C23.0997 14.4515 23.0997 13.8051 22.701 13.4063ZM8.00004 6.00004C8.00004 7.10461 7.10461 8.00004 6.00004 8.00004C4.89547 8.00004 4.00004 7.10461 4.00004 6.00004C4.00004 4.89547 4.89547 4.00004 6.00004 4.00004C7.10461 4.00004 8.00004 4.89547 8.00004 6.00004Z" fill="black"/>
</svg>
