<svg width="24" height="24" viewBox="0 0 24 24" fill="none" xmlns="http://www.w3.org/2000/svg">
<path d="M7.75 1C7.75 0.585786 7.41421 0.25 7 0.25C6.58579 0.25 6.25 0.585786 6.25 1H7.75ZM11.45 20.6C11.7814 20.3515 11.8485 19.8814 11.6 19.55C11.3515 19.2186 10.8814 19.1515 10.55 19.4L11.45 20.6ZM7.05999 22.955L6.60999 22.355L6.60999 22.355L7.05999 22.955ZM6.93999 22.955L6.48999 23.555L6.49 23.555L6.93999 22.955ZM3.45 19.4C3.11863 19.1515 2.64853 19.2186 2.4 19.55C2.15147 19.8814 2.21863 20.3515 2.55 20.6L3.45 19.4ZM15.6646 14.8292C15.2941 15.0144 15.1439 15.4649 15.3292 15.8354C15.5144 16.2059 15.9649 16.3561 16.3354 16.1708L15.6646 14.8292ZM18.8347 14.0826L19.1702 14.7534L19.1702 14.7534L18.8347 14.0826ZM19 14.1848L19.75 14.1848V14.1848H19ZM18.25 23C18.25 23.4142 18.5858 23.75 19 23.75C19.4142 23.75 19.75 23.4142 19.75 23L18.25 23ZM17.3108 10.7044C17.1474 11.085 17.3235 11.526 17.7042 11.6894C18.0848 11.8528 18.5258 11.6766 18.6892 11.296L17.3108 10.7044ZM7.75 22.975V1H6.25V22.975H7.75ZM10.55 19.4L6.60999 22.355L7.50999 23.555L11.45 20.6L10.55 19.4ZM7.38999 22.355L3.45 19.4L2.55 20.6L6.48999 23.555L7.38999 22.355ZM6.60999 22.355C6.72545 22.2684 6.86314 22.225 7 22.225V23.725C7.17908 23.725 7.35899 23.6683 7.50999 23.555L6.60999 22.355ZM7 22.225C7.13677 22.225 7.27448 22.2684 7.38999 22.355L6.49 23.555C6.64107 23.6683 6.821 23.725 7 23.725V22.225ZM16.3354 16.1708L19.1702 14.7534L18.4993 13.4118L15.6646 14.8292L16.3354 16.1708ZM18.25 14.1848L18.25 23L19.75 23L19.75 14.1848L18.25 14.1848ZM19.1702 14.7534C18.7474 14.9648 18.25 14.6574 18.25 14.1848H19.75C19.75 13.5423 19.0739 13.1245 18.4993 13.4118L19.1702 14.7534ZM20.1474 4.09508L17.3108 10.7044L18.6892 11.296L21.5258 4.68668L20.1474 4.09508ZM18.5 5.25C17.5335 5.25 16.75 4.4665 16.75 3.5H15.25C15.25 5.29493 16.7051 6.75 18.5 6.75V5.25ZM16.75 3.5C16.75 2.5335 17.5335 1.75 18.5 1.75V0.25C16.7051 0.25 15.25 1.70507 15.25 3.5H16.75ZM18.5 1.75C19.4665 1.75 20.25 2.5335 20.25 3.5H21.75C21.75 1.70507 20.2949 0.25 18.5 0.25V1.75ZM20.25 3.5C20.25 3.72104 20.2094 3.93085 20.1359 4.12355L21.5373 4.65821C21.675 4.29743 21.75 3.9066 21.75 3.5H20.25ZM20.1359 4.12355C19.8842 4.78335 19.2456 5.25 18.5 5.25V6.75C19.8881 6.75 21.0712 5.88004 21.5373 4.65821L20.1359 4.12355Z" fill="black"/>
</svg>
