<svg width="24" height="24" viewBox="0 0 24 24" fill="none" xmlns="http://www.w3.org/2000/svg">
<path d="M6.25 22.975C6.25 23.3892 6.58579 23.725 7 23.725C7.41421 23.725 7.75 23.3892 7.75 22.975H6.25ZM7.75 1C7.75 0.585786 7.41421 0.25 7 0.25C6.58579 0.25 6.25 0.585786 6.25 1H7.75ZM11.45 20.6C11.7814 20.3515 11.8485 19.8814 11.6 19.55C11.3515 19.2186 10.8814 19.1515 10.55 19.4L11.45 20.6ZM7.05999 22.955L7.50999 23.555L7.50999 23.555L7.05999 22.955ZM6.93999 22.955L7.39 22.355L7.38999 22.355L6.93999 22.955ZM3.45 19.4C3.11863 19.1515 2.64853 19.2186 2.4 19.55C2.15147 19.8814 2.21863 20.3515 2.55 20.6L3.45 19.4ZM15.6646 1.82918C15.2941 2.01442 15.1439 2.46493 15.3292 2.83541C15.5144 3.20589 15.9649 3.35606 16.3354 3.17082L15.6646 1.82918ZM18.8347 1.08263L19.1702 1.75345L19.1702 1.75345L18.8347 1.08263ZM19 1.18476L19.75 1.18476L19.75 1.18476L19 1.18476ZM18.25 10C18.25 10.4142 18.5858 10.75 19 10.75C19.4142 10.75 19.75 10.4142 19.75 10L18.25 10ZM17.3108 22.7044C17.1474 23.085 17.3235 23.526 17.7042 23.6894C18.0848 23.8528 18.5258 23.6766 18.6892 23.296L17.3108 22.7044ZM7.75 22.975V1H6.25V22.975H7.75ZM10.55 19.4L6.60999 22.355L7.50999 23.555L11.45 20.6L10.55 19.4ZM7.38999 22.355L3.45 19.4L2.55 20.6L6.48999 23.555L7.38999 22.355ZM6.60999 22.355C6.8411 22.1817 7.15888 22.1817 7.39 22.355L6.48999 23.555C6.79222 23.7817 7.20777 23.7817 7.50999 23.555L6.60999 22.355ZM16.3354 3.17082L19.1702 1.75345L18.4993 0.411805L15.6646 1.82918L16.3354 3.17082ZM18.25 1.18476L18.25 10L19.75 10L19.75 1.18476L18.25 1.18476ZM19.1702 1.75345C18.7474 1.96482 18.25 1.65741 18.25 1.18476L19.75 1.18476C19.75 0.542334 19.0739 0.124507 18.4993 0.411805L19.1702 1.75345ZM20.1474 16.0951L17.3108 22.7044L18.6892 23.296L21.5258 16.6867L20.1474 16.0951ZM18.5 17.25C17.5335 17.25 16.75 16.4665 16.75 15.5H15.25C15.25 17.2949 16.7051 18.75 18.5 18.75V17.25ZM16.75 15.5C16.75 14.5335 17.5335 13.75 18.5 13.75V12.25C16.7051 12.25 15.25 13.7051 15.25 15.5H16.75ZM18.5 13.75C19.4665 13.75 20.25 14.5335 20.25 15.5H21.75C21.75 13.7051 20.2949 12.25 18.5 12.25V13.75ZM20.25 15.5C20.25 15.721 20.2094 15.9308 20.1359 16.1236L21.5373 16.6582C21.675 16.2974 21.75 15.9066 21.75 15.5H20.25ZM20.1359 16.1236C19.8842 16.7833 19.2456 17.25 18.5 17.25V18.75C19.8881 18.75 21.0712 17.88 21.5373 16.6582L20.1359 16.1236Z" fill="black"/>
</svg>
