<svg width="24" height="24" viewBox="0 0 24 24" fill="none" xmlns="http://www.w3.org/2000/svg">
<g clip-path="url(#clip0_1607_7906)">
<path d="M3 14C1.89543 14 1 13.1046 1 12C1 10.8954 1.89543 10 3 10C4.10457 10 5 10.8954 5 12C5 13.1046 4.10457 14 3 14Z" stroke="black" stroke-width="1.5" stroke-linecap="round" stroke-linejoin="round"/>
<path d="M3 5C1.89543 5 1 4.10457 1 3C1 1.89543 1.89543 1 3 1C4.10457 1 5 1.89543 5 3C5 4.10457 4.10457 5 3 5Z" stroke="black" stroke-width="1.5" stroke-linecap="round" stroke-linejoin="round"/>
<path d="M3 23C1.89543 23 1 22.1046 1 21C1 19.8954 1.89543 19 3 19C4.10457 19 5 19.8954 5 21C5 22.1046 4.10457 23 3 23Z" stroke="black" stroke-width="1.5" stroke-linecap="round" stroke-linejoin="round"/>
<path d="M9 2C9 1.44772 9.44772 1 10 1H22C22.5523 1 23 1.44772 23 2V4C23 4.55228 22.5523 5 22 5H10C9.44772 5 9 4.55228 9 4V2Z" stroke="black" stroke-width="1.5" stroke-linecap="round" stroke-linejoin="round"/>
<path d="M9 11C9 10.4477 9.44772 10 10 10H22C22.5523 10 23 10.4477 23 11V13C23 13.5523 22.5523 14 22 14H10C9.44772 14 9 13.5523 9 13V11Z" stroke="black" stroke-width="1.5" stroke-linecap="round" stroke-linejoin="round"/>
<path d="M9 20C9 19.4477 9.44772 19 10 19H22C22.5523 19 23 19.4477 23 20V22C23 22.5523 22.5523 23 22 23H10C9.44772 23 9 22.5523 9 22V20Z" stroke="black" stroke-width="1.5" stroke-linecap="round" stroke-linejoin="round"/>
</g>
<defs>
<clipPath id="clip0_1607_7906">
<rect width="24" height="24" fill="white"/>
</clipPath>
</defs>
</svg>
