<svg width="24" height="24" viewBox="0 0 24 24" fill="none" xmlns="http://www.w3.org/2000/svg">
<path d="M8.00004 20.0337H22M8.00004 12.0195H22M8.00004 4.00521H22M2.01466 14.2109H5.23885M2.01466 14.2109L4.59306 11.0937C5.42479 10.0938 4.71506 8.57584 3.41585 8.57584C2.83543 8.57584 2.30482 8.90436 2.04525 9.42443L2.00004 9.51501M2.01466 14.2109C2.00885 14.2109 2.01094 14.2153 2.01466 14.2109ZM2.00004 18.0302L2.08986 17.8502C2.34125 17.3465 2.85512 17.0284 3.41723 17.0284C4.73938 17.0284 5.40151 18.6298 4.46661 19.5663L4.05372 19.9799C4.02406 20.0097 4.02406 20.0578 4.05372 20.0875L4.46661 20.5011C5.40151 21.4377 4.73938 23.0391 3.41723 23.0391C2.85512 23.0391 2.34125 22.7209 2.08986 22.2172L2.00004 22.0373M2 1.83469L3.57486 1.04585C3.61704 1.02473 3.66667 1.05545 3.66667 1.10269L3.66667 6.00878" stroke="black" stroke-width="1.5" stroke-linecap="round"/>
</svg>
