<svg width="24" height="24" viewBox="0 0 24 24" fill="none" xmlns="http://www.w3.org/2000/svg">
<g clip-path="url(#clip0_1607_7911)">
<path d="M9 21H23M9 12H23M9 3H23M3 14C1.89543 14 1 13.1046 1 12C1 10.8954 1.89543 10 3 10C4.10457 10 5 10.8954 5 12C5 13.1046 4.10457 14 3 14ZM3 5C1.89543 5 1 4.10457 1 3C1 1.89543 1.89543 1 3 1C4.10457 1 5 1.89543 5 3C5 4.10457 4.10457 5 3 5ZM3 23C1.89543 23 1 22.1046 1 21C1 19.8954 1.89543 19 3 19C4.10457 19 5 19.8954 5 21C5 22.1046 4.10457 23 3 23Z" stroke="black" stroke-width="1.5" stroke-linecap="round" stroke-linejoin="round"/>
</g>
<defs>
<clipPath id="clip0_1607_7911">
<rect width="24" height="24" fill="white"/>
</clipPath>
</defs>
</svg>
