<svg width="24" height="24" viewBox="0 0 24 24" fill="none" xmlns="http://www.w3.org/2000/svg">
<path fill-rule="evenodd" clip-rule="evenodd" d="M9.23701 0.288636C8.84402 0.157741 8.41933 0.37021 8.28843 0.763198C8.15754 1.15619 8.37001 1.58088 8.76299 1.71177L8.91694 1.76305C10.2079 2.19304 11.1092 3.34286 11.2349 4.67599L10.1654 4.31765C9.28686 4.0233 8.35388 3.93045 7.43496 4.0459C3.70398 4.51467 1.24296 8.18591 2.21178 11.8376L2.49254 12.8959C3.51649 16.6696 5.83862 20.1725 9 22.4834L9.06861 22.5338C9.4937 22.8465 9.93619 23.1721 10.4859 22.8958L11.6031 22.3343C11.8858 22.1923 12.2191 22.1923 12.5017 22.3343L13.5903 22.8814C14.0392 23.107 14.4583 22.9346 14.8164 22.6467C17.845 20.2113 20.0958 16.7978 21.4213 13.1341L21.7882 11.8376C22.757 8.18591 20.296 4.51467 16.565 4.0459C15.6461 3.93045 14.7131 4.0233 13.8346 4.31765L12.7401 4.68437C12.614 2.70047 11.2971 0.974803 9.39096 0.339913L9.23701 0.288636ZM14.25 7.00008C14.25 6.58587 14.5858 6.25008 15 6.25008C17.6234 6.25008 19.75 8.37673 19.75 11.0001C19.75 11.4143 19.4142 11.7501 19 11.7501C18.5858 11.7501 18.25 11.4143 18.25 11.0001C18.25 9.20516 16.7949 7.75008 15 7.75008C14.5858 7.75008 14.25 7.4143 14.25 7.00008Z" fill="black"/>
</svg>
