<svg width="24" height="24" viewBox="0 0 24 24" fill="none" xmlns="http://www.w3.org/2000/svg">
<path d="M5 20C4.44772 20 4 19.5523 4 19L4 5C4 4.44772 4.44772 4 5 4H7C7.55229 4 8 4.44771 8 5V11.25H16L16 5C16 4.44772 16.4477 4 17 4H19C19.5523 4 20 4.44772 20 5V19C20 19.5523 19.5523 20 19 20H17C16.4477 20 16 19.5523 16 19L16 12.75H8L8 19C8 19.5523 7.55229 20 7 20H5Z" fill="black"/>
<path d="M2.5 7H2C1.44772 7 1 7.44772 1 8V16C1 16.5523 1.44772 17 2 17H2.5L2.5 7Z" fill="black"/>
<path d="M22 17H21.5V7H22C22.5523 7 23 7.44772 23 8V16C23 16.5523 22.5523 17 22 17Z" fill="black"/>
</svg>
