<svg width="24" height="24" viewBox="0 0 24 24" fill="none" xmlns="http://www.w3.org/2000/svg">
<path d="M11.7497 0C12.1639 0 12.4997 0.335786 12.4997 0.75V1.79754C12.4997 3.23455 11.9959 4.6261 11.076 5.7301C10.3808 6.56454 10 7.61632 10 8.70246V8.75C10 9.16421 9.66421 9.5 9.25 9.5C8.83579 9.5 8.5 9.16421 8.5 8.75V8.70246C8.5 7.26545 9.00376 5.8739 9.92365 4.7699C10.6189 3.93546 10.9997 2.88368 10.9997 1.79754V0.75C10.9997 0.335786 11.3355 0 11.7497 0Z" fill="black"/>
<path d="M7.5 2.75C7.5 2.33579 7.16421 2 6.75 2C6.33579 2 6 2.33579 6 2.75V3.33579C6 4.04238 5.71931 4.72003 5.21967 5.21967C4.43873 6.00061 4 7.0598 4 8.16421V8.75C4 9.16421 4.33579 9.5 4.75 9.5C5.16421 9.5 5.5 9.16421 5.5 8.75V8.16421C5.5 7.45762 5.78069 6.77997 6.28033 6.28033C7.06127 5.49939 7.5 4.4402 7.5 3.33579V2.75Z" fill="black"/>
<path d="M3.75 11.75C3.19772 11.75 2.75 12.1977 2.75 12.75V17.75C2.75 18.3023 3.19772 18.75 3.75 18.75H14.75C15.3023 18.75 15.75 18.3023 15.75 17.75V12.75C15.75 12.1977 15.3023 11.75 14.75 11.75H3.75Z" fill="black"/>
<path d="M16.5 2.75C16.5 2.33579 16.1642 2 15.75 2C15.3358 2 15 2.33579 15 2.75V3.33579C15 4.04238 14.7193 4.72003 14.2197 5.21967C13.4387 6.00061 13 7.0598 13 8.16421V8.75C13 9.16421 13.3358 9.5 13.75 9.5C14.1642 9.5 14.5 9.16421 14.5 8.75V8.16421C14.5 7.45762 14.7807 6.77997 15.2803 6.28033C16.0613 5.49939 16.5 4.4402 16.5 3.33579V2.75Z" fill="black"/>
<path d="M2.75 22.5C2.61193 22.5 2.5 22.6119 2.5 22.75C2.5 23.1642 2.16421 23.5 1.75 23.5C1.33579 23.5 1 23.1642 1 22.75C1 21.7835 1.7835 21 2.75 21L15.75 21C16.7165 21 17.5 21.7835 17.5 22.75C17.5 23.1642 17.1642 23.5 16.75 23.5C16.3358 23.5 16 23.1642 16 22.75C16 22.6119 15.8881 22.5 15.75 22.5L2.75 22.5Z" fill="black"/>
<path d="M22.25 14.75H17.25V11.75H22.25C23.0784 11.75 23.75 12.4216 23.75 13.25C23.75 14.0784 23.0784 14.75 22.25 14.75Z" fill="black"/>
</svg>
