<svg width="24" height="24" viewBox="0 0 24 24" fill="none" xmlns="http://www.w3.org/2000/svg">
<path d="M12.6468 1.12059L14.0218 2.49561C14.571 3.04483 14.9166 3.75073 15.0234 4.49976H9.46429C9.61427 3.87393 10.0396 3.32627 10.6564 3.03779C11.1952 2.78583 11.6071 2.32388 11.7958 1.75982L11.9551 1.28346C12.0116 1.11467 12.1586 1.01374 12.3151 0.99973C12.4315 0.989312 12.5532 1.02698 12.6468 1.12059Z" fill="black"/>
<path d="M6.8026 10.5073C7.41258 10.2083 8.0924 10.03 8.81098 10.0033C8.87371 10.0009 8.93673 9.99976 9.00003 9.99976H15C16.0129 9.99976 16.9555 10.301 17.743 10.8187C18.9043 11.5821 19.7285 12.8163 19.9442 14.2498H4.05591C4.30395 12.6008 5.35726 11.2156 6.8026 10.5073Z" fill="black"/>
<path d="M6.01056 9.2265C6.90552 8.76213 7.92214 8.49976 9.00005 8.49976H15C16.078 8.49976 17.0946 8.76214 17.9895 9.2265C17.8501 7.42122 16.3411 5.99976 14.5 5.99976H9.50005C7.65901 5.99976 6.14997 7.42122 6.01056 9.2265Z" fill="black"/>
<path d="M19.7955 15.7498H16.6621L15.7559 22.9998H17.0544C17.5054 22.9998 17.9005 22.6979 18.0192 22.2629L19.7955 15.7498Z" fill="black"/>
<path d="M15.1504 15.7498H12.75V22.9997L14.25 22.9998C14.25 22.969 14.2519 22.938 14.2558 22.9067L15.1504 15.7498Z" fill="black"/>
<path d="M11.25 15.7498H8.84962L9.74424 22.9067C9.74815 22.938 9.75007 22.969 9.75011 22.9998H11.25V15.7498Z" fill="black"/>
<path d="M7.33795 15.7498H4.20458L5.98088 22.2629C6.09954 22.6979 6.4947 22.9998 6.94565 22.9998H8.2442L7.33795 15.7498Z" fill="black"/>
</svg>
