<svg width="24" height="24" viewBox="0 0 24 24" fill="none" xmlns="http://www.w3.org/2000/svg">
<path fill-rule="evenodd" clip-rule="evenodd" d="M9.23717 0.288691C8.84421 0.157705 8.41947 0.370075 8.28849 0.763033C8.1575 1.15599 8.36987 1.58073 8.76283 1.71172L8.91678 1.76303C10.2076 2.19332 11.1092 3.34412 11.2349 4.67896L10.1654 4.32034C9.28686 4.02576 8.35388 3.93284 7.43496 4.04838C3.99224 4.48126 1.63083 7.64299 2.04764 11.0002H4.25V12.5002C4.25 12.9144 4.58579 13.2502 5 13.2502C5.41421 13.2502 5.75 12.9144 5.75 12.5002V11.0002H7.25V13.0002C7.25 13.4144 7.58579 13.7502 8 13.7502C8.41421 13.7502 8.75 13.4144 8.75 13.0002V11.0002H10.25V12.5002C10.25 12.9144 10.5858 13.2502 11 13.2502C11.4142 13.2502 11.75 12.9144 11.75 12.5002V11.0002H13.25V16.0002H3.65901C4.88056 18.4895 6.68943 20.6608 8.94758 22.3128L9.39373 22.6392C9.69666 22.8608 10.0982 22.8941 10.4335 22.7255L11.5507 22.1636C11.8334 22.0214 12.1666 22.0214 12.4493 22.1636L13.5379 22.711C13.888 22.8872 14.3088 22.8425 14.6141 22.5967L14.764 22.4761C17.7926 20.0389 20.0958 16.8101 21.4213 13.1436L21.5075 12.9052L21.7882 11.8461C22.757 8.1916 20.296 4.51751 16.565 4.04838C15.6461 3.93284 14.7131 4.02576 13.8346 4.32034L12.7401 4.68734C12.6141 2.7025 11.2975 0.975461 9.39112 0.340008L9.23717 0.288691ZM16 16.0002H14.75V11.0002H16C16.5523 11.0002 17 11.4479 17 12.0002V15.0002C17 15.5525 16.5523 16.0002 16 16.0002Z" fill="black"/>
</svg>
