<svg width="24" height="24" viewBox="0 0 24 24" fill="none" xmlns="http://www.w3.org/2000/svg">
<path d="M1.75 2C1.75 1.58579 1.41421 1.25 1 1.25C0.585786 1.25 0.25 1.58579 0.25 2V3.97269C0.249675 3.98176 0.249512 3.99086 0.249512 4C0.249512 4.00914 0.249675 4.01824 0.25 4.0273V6C0.25 6.41421 0.585786 6.75 1 6.75C1.41421 6.75 1.75 6.41421 1.75 6V4.75H3V12C3 12.0096 3.00013 12.0191 3.0004 12.0286V12.882C3.0004 13.2607 3.21442 13.607 3.55322 13.7764L7.00071 15.5L7.27581 15.6685L7.27581 20.78C7.2758 21.4538 7.82202 22 8.49581 22H15.5058C16.1796 22 16.7258 21.4538 16.7258 20.78L16.7258 18.6252L16.7177 15.6699L16.9952 15.5L20.4427 13.7764C20.7815 13.607 20.9955 13.2607 20.9955 12.882V12.0286C20.9958 12.0191 20.9959 12.0096 20.9959 12V4.75H22.2451V6C22.2451 6.41421 22.5809 6.75 22.9951 6.75C23.4093 6.75 23.7451 6.41421 23.7451 6V4.02732C23.7454 4.01825 23.7456 4.00915 23.7456 4C23.7456 3.99085 23.7454 3.98175 23.7451 3.97268V2C23.7451 1.58579 23.4093 1.25 22.9951 1.25C22.5809 1.25 22.2451 1.58579 22.2451 2V3.25L17.2451 3.25V2C17.2451 1.58579 16.9093 1.25 16.4951 1.25C16.0809 1.25 15.7451 1.58579 15.7451 2V6C15.7451 6.41421 16.0809 6.75 16.4951 6.75C16.9093 6.75 17.2451 6.41421 17.2451 6V4.75H18.4955V11.5867L17.2063 12.2313C17.0675 12.3007 16.9144 12.3368 16.7592 12.3368L15.7301 12.3368L15.7114 12.3367H8.27581L8.25704 12.3368L7.23675 12.3368C7.08152 12.3368 6.92843 12.3007 6.78958 12.2313L5.5004 11.5867L5.5004 4.75H6.75V6C6.75 6.41421 7.08579 6.75 7.5 6.75C7.91421 6.75 8.25 6.41421 8.25 6V2C8.25 1.58579 7.91421 1.25 7.5 1.25C7.08579 1.25 6.75 1.58579 6.75 2V3.25L1.75 3.25V2Z" fill="black"/>
<path d="M11.9923 10.2405C13.4394 10.2405 14.6125 9.06734 14.6125 7.62023C14.6125 6.17312 13.4394 5 11.9923 5C10.5452 5 9.37207 6.17312 9.37207 7.62023C9.37207 9.06734 10.5452 10.2405 11.9923 10.2405Z" fill="black"/>
</svg>
