<svg width="24" height="24" viewBox="0 0 24 24" fill="none" xmlns="http://www.w3.org/2000/svg">
<path fill-rule="evenodd" clip-rule="evenodd" d="M1 16C1 7.71573 7.71573 1 16 1H22C22.5523 1 23 1.44772 23 2V8C23 16.2843 16.2843 23 8 23H2C1.44772 23 1 22.5523 1 22V16ZM16.7729 7.22702C17.0658 7.51992 17.0658 7.99479 16.7729 8.28768L15.889 9.17159L16.7729 10.0555C17.0658 10.3484 17.0658 10.8232 16.7729 11.1161C16.48 11.409 16.0051 11.409 15.7122 11.1161L14.8283 10.2322L13.0606 12L13.9445 12.8839C14.2374 13.1768 14.2374 13.6516 13.9445 13.9445C13.6516 14.2374 13.1767 14.2374 12.8838 13.9445L11.9999 13.0607L10.2321 14.8285L11.116 15.7124C11.4089 16.0053 11.4089 16.4802 11.116 16.7731C10.8231 17.0659 10.3482 17.0659 10.0553 16.7731L9.17143 15.8892L8.28763 16.773C7.99474 17.0659 7.51986 17.0659 7.22697 16.773C6.93408 16.4801 6.93408 16.0052 7.22697 15.7123L8.11077 14.8285L7.22688 13.9446C6.93399 13.6517 6.93399 13.1769 7.22688 12.884C7.51978 12.5911 7.99465 12.5911 8.28754 12.884L9.17143 13.7678L10.9393 12L10.0554 11.1161C9.7625 10.8232 9.7625 10.3483 10.0554 10.0555C10.3483 9.76256 10.8232 9.76256 11.1161 10.0555L11.9999 10.9393L13.7677 9.17159L12.8838 8.28771C12.5909 7.99481 12.5909 7.51994 12.8838 7.22705C13.1767 6.93415 13.6516 6.93415 13.9445 7.22705L14.8283 8.11093L15.7123 7.22702C16.0051 6.93413 16.48 6.93413 16.7729 7.22702Z" fill="black"/>
</svg>
