<svg width="24" height="24" viewBox="0 0 24 24" fill="none" xmlns="http://www.w3.org/2000/svg">
<path fill-rule="evenodd" clip-rule="evenodd" d="M12.4313 3.09121L13.6458 1.87671C14.3796 1.14286 15.5344 1.04175 16.3846 1.6369C18.1212 2.8525 17.2164 5.55445 15.1449 5.52819C15.6805 6.20862 16 7.06712 16 8.00024V9.73322C16 10.0601 16.1629 10.3626 16.4165 10.569C17.993 11.8526 19 13.8088 19 16.0002C19 19.8662 15.866 23.0002 12 23.0002C8.13401 23.0002 5 19.8662 5 16.0002C5 13.8088 6.00702 11.8526 7.58354 10.569C7.83705 10.3626 8 10.0601 8 9.73322V8.00024C8 6.06905 9.36857 4.45751 11.1888 4.08256C11.0365 3.44381 10.6092 2.8933 10.0062 2.59181L9.66459 2.42098C9.2941 2.23574 9.14393 1.78524 9.32918 1.41475C9.51442 1.04427 9.96492 0.894102 10.3354 1.07934L10.677 1.25017C11.4727 1.64801 12.0849 2.30602 12.4313 3.09121ZM15.5244 2.86574C15.2705 2.68799 14.9256 2.71819 14.7064 2.93737L13.7055 3.93828L15.1183 4.02658C15.7622 4.06682 16.053 3.23575 15.5244 2.86574Z" fill="black"/>
</svg>
