<svg width="24" height="24" viewBox="0 0 24 24" fill="none" xmlns="http://www.w3.org/2000/svg">
<path d="M4 12.0156V19C4 19.5523 4.44772 20 5 20H19C19.5523 20 20 19.5523 20 19V12.0831L13.1683 14.3257C12.6778 14.4867 12.1494 14.4925 11.6555 14.3424L9.75 13.7632V15.2007C10.1984 15.4601 10.5 15.9448 10.5 16.5V17.9931C10.5 17.9969 10.4969 18 10.493 18H7.50696C7.50312 18 7.5 17.9969 7.5 17.9931V16.5C7.5 15.9448 7.80165 15.4601 8.25 15.2007V13.3073L4 12.0156Z" fill="black"/>
<path d="M9.75 12.1955V10.0915L12.8136 8.68133C13.1899 8.50813 13.3545 8.0627 13.1813 7.68644C13.0081 7.31017 12.5627 7.14555 12.1864 7.31875L8.97733 8.79589C8.53402 8.99995 8.25 9.44335 8.25 9.93137V11.7396L1.71157 9.7523C1.23956 9.60884 1.00017 9.20227 1 8.79527C0.999842 8.4054 1.2192 8.01513 1.66389 7.8554L12.0421 4.05945C12.1497 4.02078 12.2623 4.001 12.3749 4.00004C12.5018 3.99896 12.6287 4.02176 12.7488 4.06834L22.3599 7.86494C22.4697 7.90751 22.5652 7.96425 22.6466 8.03151C23.2161 8.50237 23.0927 9.4892 22.3097 9.74623L12.7005 12.9005C12.5031 12.9653 12.2904 12.9676 12.0917 12.9072L9.75 12.1955Z" fill="black"/>
</svg>
