<svg width="24" height="24" viewBox="0 0 24 24" fill="none" xmlns="http://www.w3.org/2000/svg">
<path d="M19.2515 8.77047C18.2049 8.63603 17.2453 8.22349 16.4492 7.60932C16.4387 7.62128 16.4277 7.63298 16.4163 7.64441L14.8735 9.18719C14.5806 9.48008 14.1057 9.48008 13.8128 9.18719C13.5199 8.8943 13.5199 8.41942 13.8128 8.12653L15.3556 6.58375C15.367 6.57232 15.3787 6.56134 15.3907 6.5508C14.7765 5.75473 14.364 4.79514 14.2296 3.7485C14.2138 3.7495 14.1979 3.75 14.1818 3.75L12 3.75C11.5858 3.75 11.25 3.41422 11.25 3C11.25 2.58579 11.5858 2.25 12 2.25L14.1818 2.25C14.1979 2.25 14.2138 2.2505 14.2296 2.2515C14.2549 2.05412 14.2902 1.85985 14.3348 1.66918C14.4304 1.26049 14.8139 1 15.2336 1H22.0001C22.5524 1 23.0001 1.44772 23.0001 2V7.42136C23.0001 7.77185 22.8193 8.10282 22.503 8.25378C21.9594 8.51321 21.3693 8.69077 20.7485 8.77049C20.7495 8.78626 20.75 8.80216 20.75 8.81818L20.75 11C20.75 11.4142 20.4142 11.75 20 11.75C19.5858 11.75 19.25 11.4142 19.25 11L19.25 8.81819C19.25 8.80216 19.2505 8.78625 19.2515 8.77047Z" fill="black"/>
<path d="M4.98398 10.7654C6.00514 10.1759 6.35501 8.87013 5.76545 7.84897C5.17588 6.82781 3.87013 6.47794 2.84897 7.06751C1.82781 7.65707 1.47794 8.96282 2.0675 9.98398C2.65707 11.0051 3.96282 11.355 4.98398 10.7654Z" fill="black"/>
<path fill-rule="evenodd" clip-rule="evenodd" d="M21.0989 20.25H18.6324L18.641 20.2399L19.1958 19.5819C19.5616 19.1479 19.4933 18.4967 19.0454 18.1481L15.584 15.4546C15.237 15.1845 14.7543 15.1728 14.3947 15.4257L11.4563 17.4918C11.4085 17.5254 11.3422 17.511 11.3126 17.4606L9.27388 13.9918C8.55914 12.7757 7.00068 12.3582 5.77378 13.0543C5.19087 13.385 4.78356 13.9107 4.59122 14.5054L3.94721 13.2174C3.65078 12.6245 3.04482 12.25 2.38197 12.25H1C0.585786 12.25 0.25 12.5858 0.25 13C0.25 13.4142 0.585786 13.75 1 13.75H2.38197C2.47666 13.75 2.56322 13.8035 2.60557 13.8882L5.78648 20.25H4C3.58579 20.25 3.25 20.5858 3.25 21C3.25 21.4142 3.58579 21.75 4 21.75H5.75033L5.31888 22.686C5.14548 23.0622 5.30987 23.5077 5.68604 23.6811C6.06222 23.8545 6.50773 23.6901 6.68112 23.314L7.40201 21.75H21.0989C21.1812 21.75 21.2583 21.7906 21.3049 21.8584L22.382 23.4249C22.6167 23.7663 23.0836 23.8527 23.4249 23.618C23.7662 23.3834 23.8527 22.9164 23.618 22.5751L22.541 21.0086C22.2145 20.5337 21.6752 20.25 21.0989 20.25ZM17.1 20.25H12.9001L14.3598 19.0336C14.7307 18.7246 15.2693 18.7246 15.6402 19.0336L17.1 20.25Z" fill="black"/>
</svg>
