<svg width="24" height="24" viewBox="0 0 24 24" fill="none" xmlns="http://www.w3.org/2000/svg">
<path fill-rule="evenodd" clip-rule="evenodd" d="M0.25 9.26917V14.5925C0.25 16.7762 1.52635 18.7584 3.51434 19.662C6.21017 20.8874 9.10514 21.5001 12 21.5001C14.8949 21.5001 17.7898 20.8874 20.4857 19.662C22.4736 18.7584 23.75 16.7762 23.75 14.5925V11.1953C23.75 11.1707 23.7488 11.1464 23.7465 11.1225C23.6357 8.33273 20.9042 6.37312 18.2054 7.2035C17.2649 7.49288 16.2416 7.2644 15.5134 6.60249L12.6206 3.97259C11.803 3.22931 10.8292 2.67868 9.77082 2.36117L9.60245 2.31066C8.89879 2.09956 8.19215 1.99965 7.49962 2C3.62939 2.00194 0.25 5.13727 0.25 9.26917ZM1.75 14.5925V14.5372C2.51659 15.4627 3.51461 16.2003 4.59358 16.7697C6.95295 18.015 9.82802 18.5391 12 18.5391C14.5775 18.5391 17.1551 17.9936 19.5554 16.9025C20.4734 16.4853 21.4547 15.7958 22.235 14.9421C22.1099 16.3969 21.2105 17.6848 19.865 18.2964C17.3663 19.4322 14.6832 20.0001 12 20.0001C9.31679 20.0001 6.6337 19.4322 4.13504 18.2964C2.68255 17.6362 1.75 16.188 1.75 14.5925ZM9 8.75C9 9.85457 8.10457 10.75 7 10.75C5.89543 10.75 5 9.85457 5 8.75C5 7.64543 5.89543 6.75 7 6.75C8.10457 6.75 9 7.64543 9 8.75ZM9.46967 13.7552C9.17678 14.0481 9.17678 14.523 9.46967 14.8159C9.76256 15.1087 10.2374 15.1087 10.5303 14.8159L14.0659 11.2803C14.3588 10.9874 14.3588 10.5126 14.0659 10.2197C13.773 9.92677 13.2981 9.92677 13.0052 10.2197L9.46967 13.7552ZM14.4697 14.8161C14.1768 14.5232 14.1768 14.0483 14.4697 13.7554L18.0052 10.2199C18.2981 9.92701 18.773 9.92701 19.0659 10.2199C19.3588 10.5128 19.3588 10.9877 19.0659 11.2806L15.5303 14.8161C15.2374 15.109 14.7626 15.109 14.4697 14.8161Z" fill="black"/>
</svg>
