<svg width="24" height="24" viewBox="0 0 24 24" fill="none" xmlns="http://www.w3.org/2000/svg">
<g clip-path="url(#clip0_1607_10281)">
<path d="M23.75 2.28114C23.75 1.14264 22.6801 0.307259 21.5756 0.583386L7.57556 4.08339C6.79652 4.27815 6.25 4.97812 6.25 5.78114V17C5.62325 16.5292 4.8442 16.2502 4 16.2502C1.92893 16.2502 0.25 17.9292 0.25 20.0002C0.25 22.0713 1.92893 23.7502 4 23.7502C6.07107 23.7502 7.75 22.0713 7.75 20.0002V10.5859L22.25 6.96094V14C21.6233 13.5292 20.8442 13.2502 20 13.2502C17.9289 13.2502 16.25 14.9292 16.25 17.0002C16.25 19.0713 17.9289 20.7502 20 20.7502C22.0711 20.7502 23.75 19.0713 23.75 17.0002V2.28114Z" fill="black"/>
</g>
<defs>
<clipPath id="clip0_1607_10281">
<rect width="24" height="24" fill="white"/>
</clipPath>
</defs>
</svg>
