<svg width="24" height="24" viewBox="0 0 24 24" fill="none" xmlns="http://www.w3.org/2000/svg">
<path d="M2.53033 1.46967C2.23744 1.17678 1.76256 1.17678 1.46967 1.46967C1.17678 1.76256 1.17678 2.23744 1.46967 2.53033L21.4697 22.5303C21.7626 22.8232 22.2374 22.8232 22.5303 22.5303C22.8232 22.2374 22.8232 21.7626 22.5303 21.4697L2.53033 1.46967Z" fill="black"/>
<path d="M11.4933 9.01846L13.8966 11.4217C14.3255 11.5784 14.7884 11.6642 15.2714 11.6651L16.8462 11.6679L17.9179 11.6679C18.1013 11.6679 18.25 11.8166 18.25 12C18.25 12.4142 18.5858 12.75 19 12.75C19.4142 12.75 19.75 12.4142 19.75 12C19.75 10.9882 18.9298 10.1679 17.9179 10.1679H16.8469L15.2741 10.1651C13.8793 10.1625 12.75 9.03113 12.75 7.63636V6C12.75 5.58579 12.4142 5.25 12 5.25C11.5858 5.25 11.25 5.58579 11.25 6V7.63636C11.25 8.12189 11.3359 8.58738 11.4933 9.01846Z" fill="black"/>
<path d="M2 14H11.5251L15.5251 18H2C1.44772 18 1 17.5523 1 17V15C1 14.4477 1.44772 14 2 14Z" fill="black"/>
<path d="M16.4749 14L18.25 15.7751V14H16.4749Z" fill="black"/>
<path d="M19.75 17.2751L20.4749 18H22C22.5523 18 23 17.5523 23 17V15C23 14.4477 22.5523 14 22 14H19.75V17.2751Z" fill="black"/>
<path d="M23.75 12C23.75 12.4142 23.4142 12.75 23 12.75C22.5858 12.75 22.25 12.4142 22.25 12V10.7273C22.25 10.0369 21.6904 9.47727 21 9.47727C19.4812 9.47727 18.25 8.24606 18.25 6.72727V6C18.25 5.58579 18.5858 5.25 19 5.25C19.4142 5.25 19.75 5.58579 19.75 6V6.72727C19.75 7.41763 20.3096 7.97727 21 7.97727C22.5188 7.97727 23.75 9.20849 23.75 10.7273V12Z" fill="black"/>
</svg>
