<svg width="24" height="24" viewBox="0 0 24 24" fill="none" xmlns="http://www.w3.org/2000/svg">
<path d="M14.25 3.25C14.25 4.49264 13.2426 5.5 12 5.5C10.7574 5.5 9.75 4.49264 9.75 3.25C9.75 2.00736 10.7574 1 12 1C13.2426 1 14.25 2.00736 14.25 3.25Z" fill="black"/>
<path d="M3.07507 12.337L4.95974 20.818C4.98337 20.9244 5.07768 21 5.18662 21H7.18535C8.65891 21 10.0831 21.4786 11.2502 22.3497V13.7028C10.9587 13.4403 10.6458 13.2053 10.3155 12.9999C9.33183 12.388 8.19426 12.038 7.01266 12.0028C6.94696 12.0009 6.88112 12 6.81516 12L3.34539 12C3.16823 12 3.03664 12.1641 3.07507 12.337Z" fill="black"/>
<path d="M12.7502 13.7028V22.3497C13.9172 21.4786 15.3415 21 16.815 21H18.8137C18.9227 21 19.017 20.9244 19.0406 20.818L20.9253 12.337C20.9637 12.1641 20.8321 12 20.655 12H17.1852C17.1191 12 17.053 12.001 16.9871 12.003C15.8056 12.0382 14.6681 12.388 13.6845 12.9999C13.3542 13.2053 13.0416 13.4403 12.7502 13.7028Z" fill="black"/>
<path d="M11.9999 7.35986C9.88913 7.35986 8.08383 8.66784 7.3503 10.5175C9.06522 10.6306 10.6908 11.284 12 12.3688C13.3091 11.2841 14.9347 10.6306 16.6496 10.5175C15.916 8.66784 14.1107 7.35986 11.9999 7.35986Z" fill="black"/>
</svg>
