<svg width="24" height="24" viewBox="0 0 24 24" fill="none" xmlns="http://www.w3.org/2000/svg">
<path fill-rule="evenodd" clip-rule="evenodd" d="M17.25 8V5.50001C17.25 2.60051 14.8995 0.25 12 0.25C9.10049 0.25 6.74998 2.60051 6.74998 5.50001V8L4.82007 8C4.34339 8 3.93297 8.33646 3.83949 8.80388L1.23949 21.8039C1.11573 22.4227 1.58902 23 2.22007 23H21.7805C22.4115 23 22.8848 22.4227 22.761 21.8039L20.161 8.80388C20.0676 8.33646 19.6571 8 19.1805 8L17.25 8ZM15.75 8L8.24998 8V5.50001C8.24998 3.42894 9.92892 1.75 12 1.75C14.0711 1.75 15.75 3.42894 15.75 5.50001V8ZM7.50026 13C8.32869 13 9.00026 12.3284 9.00026 11.5C9.00026 10.6716 8.32869 10 7.50026 10C6.67183 10 6.00026 10.6716 6.00026 11.5C6.00026 12.3284 6.67183 13 7.50026 13ZM18.0003 11.5C18.0003 12.3284 17.3287 13 16.5003 13C15.6718 13 15.0003 12.3284 15.0003 11.5C15.0003 10.6716 15.6718 10 16.5003 10C17.3287 10 18.0003 10.6716 18.0003 11.5Z" fill="black"/>
</svg>
