<svg width="24" height="24" viewBox="0 0 24 24" fill="none" xmlns="http://www.w3.org/2000/svg">
<path d="M13.75 3C13.75 2.58579 13.4142 2.25 13 2.25C12.5858 2.25 12.25 2.58579 12.25 3V4.45472C12.25 7.63026 14.8243 10.2045 17.9998 10.2045C20.3469 10.2045 22.2496 12.1073 22.2496 14.4544V15C22.2496 15.4142 22.5854 15.75 22.9996 15.75C23.4139 15.75 23.7496 15.4142 23.7496 15V14.4544C23.7496 11.2788 21.1754 8.70455 17.9998 8.70455C15.6527 8.70455 13.75 6.80183 13.75 4.45472V3Z" fill="black"/>
<path d="M6.75 3C6.75 2.58579 6.41421 2.25 6 2.25C5.58579 2.25 5.25 2.58579 5.25 3L5.25 6.27273C5.25 10.3034 8.5133 13.5731 12.544 13.581L15.0001 13.5859H16.8359C17.6169 13.5859 18.25 14.219 18.25 15C18.25 15.4142 18.5858 15.75 19 15.75C19.4142 15.75 19.75 15.4142 19.75 15C19.75 13.3906 18.4453 12.0859 16.8359 12.0859H15.0006L12.5469 12.081C9.34353 12.0748 6.75 9.47612 6.75 6.27273L6.75 3Z" fill="black"/>
<path d="M18.25 17V21H2C1.44772 21 1 20.5523 1 20V18C1 17.4477 1.44772 17 2 17H18.25Z" fill="black"/>
<path d="M22 21H19.75V17H22C22.5523 17 23 17.4477 23 18V20C23 20.5523 22.5523 21 22 21Z" fill="black"/>
</svg>
