<svg width="24" height="24" viewBox="0 0 24 24" fill="none" xmlns="http://www.w3.org/2000/svg">
<path d="M15.0271 3.13501C15.0271 4.31414 14.0695 5.27002 12.8882 5.27002C11.707 5.27002 10.7494 4.31414 10.7494 3.13501C10.7494 1.95588 11.707 1 12.8882 1C14.0695 1 15.0271 1.95588 15.0271 3.13501Z" fill="black"/>
<path d="M1.81494 18.096L6.20793 19.1147C6.65661 19.2187 7.11854 19.0039 7.32745 18.5941L8.53329 16.2287L8.65738 16.0003L10.0547 17.3951L13.8369 21.7147C14.2184 22.1505 14.8896 22.173 15.2996 21.7638L16.3722 20.693C16.7499 20.3161 16.7649 19.7097 16.4063 19.3146L12.084 14.5512C12.0613 14.5262 12.0528 14.4916 12.0613 14.459L12.712 11.9574L13.0647 12.084L15.5257 13.1761C15.9282 13.3547 16.4003 13.2499 16.6891 12.9179L19.5698 9.60623C19.9426 9.17761 19.8837 8.52552 19.4401 8.17042L18.7674 7.632C18.3375 7.28791 17.7099 7.35499 17.3627 7.78213L15.5784 9.97749C15.5478 10.0152 15.4945 10.0255 15.452 10.0019L12.0375 8.1077L11.8285 7.97726C11.4787 7.71369 11.065 7.52247 10.6045 7.43118L8.5312 7.02006L4.33759 6.18285C3.86481 6.08847 3.39174 6.34363 3.21175 6.79011L1.40539 11.2709C1.19358 11.7963 1.46072 12.3922 1.99431 12.5847L2.80849 12.8784C3.32672 13.0653 3.8989 12.7993 4.08914 12.2831L5.06492 9.63515C5.08254 9.58733 5.13337 9.56038 5.18293 9.57258L7.75333 10.2053C7.71884 10.2476 7.69196 10.2956 7.67389 10.3471L6.82618 12.7628L5.55661 16.1417C5.53818 16.1907 5.48495 16.2172 5.43459 16.2025L2.53882 15.3537C1.99806 15.1952 1.4328 15.513 1.28828 16.0568L1.07332 16.8655C0.928314 17.4111 1.26413 17.9683 1.81494 18.096Z" fill="black"/>
<path d="M21.036 23C22.1425 23 23.0396 22.1046 23.0396 21C23.0396 19.8954 22.1425 19 21.036 19C19.9294 19 19.0324 19.8954 19.0324 21C19.0324 22.1046 19.9294 23 21.036 23Z" fill="black"/>
</svg>
