<svg width="24" height="24" viewBox="0 0 24 24" fill="none" xmlns="http://www.w3.org/2000/svg">
<path fill-rule="evenodd" clip-rule="evenodd" d="M4 9.81119C4 4.9449 7.9449 1 12.8112 1H16.0769C16.5867 1 17 1.41328 17 1.92308V5.18881C17 5.93153 16.9081 6.65279 16.7351 7.34184C16.7207 7.39901 16.7058 7.45595 16.6903 7.51267C16.5703 7.95292 16.4169 8.37945 16.2332 8.78937C15.8227 9.7051 15.2604 10.538 14.5784 11.256C13.6965 12.1844 12.6144 12.9208 11.4013 13.396C11.2019 13.4742 10.9989 13.5452 10.7927 13.6089C10.729 13.5395 10.6635 13.4711 10.5962 13.4038C10.453 13.2607 10.3049 13.1256 10.1523 12.9986C10.0986 12.9539 10.0442 12.9102 9.98947 12.8675C9.81638 12.7326 9.63802 12.6076 9.4552 12.4927C9.4552 12.4927 9.45519 12.4927 9.4552 12.4927C9.02507 12.2223 8.57015 12.0072 8.10059 11.8473C8.10058 11.8473 8.10059 11.8473 8.10059 11.8473C6.7746 11.3957 5.33174 11.3845 4 11.8139V9.81119ZM10.0362 9.31841C9.66104 9.65028 9.31629 10.0158 9.00669 10.4102L8.82878 10.2323L8.52362 10.5374C8.23073 10.8303 7.75586 10.8303 7.46296 10.5374C7.17007 10.2445 7.17007 9.76967 7.46296 9.47677L7.76812 9.17162L7.46255 8.86605C7.16966 8.57315 7.16966 8.09828 7.46255 7.80539C7.75544 7.51249 8.23032 7.51249 8.52321 7.80539L8.82878 8.11096L9.4396 7.50013L9.1341 7.19463C8.84121 6.90174 8.84121 6.42686 9.1341 6.13397C9.42699 5.84108 9.90187 5.84108 10.1948 6.13397L10.5003 6.43947L11.111 5.82872L10.8057 5.52334C10.5128 5.23045 10.5128 4.75558 10.8057 4.46268C11.0985 4.16979 11.5734 4.16979 11.8663 4.46268L12.1717 4.76806L12.477 4.46274C12.7699 4.16985 13.2448 4.16985 13.5377 4.46274C13.8305 4.75564 13.8305 5.23051 13.5377 5.5234L13.2323 5.82871L13.5377 6.13403C13.8305 6.42692 13.8305 6.90179 13.5377 7.19469C13.2448 7.48758 12.7699 7.48758 12.477 7.19469L12.1717 6.88938L11.5609 7.50013L11.8661 7.80531C11.9301 7.86929 11.9801 7.94195 12.0161 8.01949C11.5586 8.23292 11.124 8.48708 10.7168 8.7773L10.5003 8.56079L9.88944 9.17162L10.0362 9.31841Z" fill="black"/>
<path d="M5.42944 13.0303C4.34722 13.1545 3.29783 13.6317 2.46771 14.4619C1.6376 15.292 1.16041 16.3414 1.03613 17.4236C1.15729 17.4277 1.27855 17.4267 1.39958 17.4205C1.38071 17.2071 1.45295 16.9871 1.61631 16.8238C1.90921 16.5309 2.38408 16.5309 2.67697 16.8238L2.91249 17.0593C3.15433 16.9516 3.38814 16.8201 3.61045 16.665L3.54446 16.599C3.25156 16.3061 3.25156 15.8312 3.54446 15.5383C3.83735 15.2454 4.31222 15.2454 4.60512 15.5383L4.67106 15.6042C4.82622 15.3819 4.95766 15.1481 5.06536 14.9062L4.82988 14.6707C4.53699 14.3778 4.53699 13.9029 4.82988 13.6101C4.99319 13.4467 5.21308 13.3745 5.42644 13.3933C5.43257 13.2724 5.43357 13.1513 5.42944 13.0303Z" fill="black"/>
<path d="M2.50448 18.7726L2.90191 19.17C3.1948 19.4629 3.66967 19.4629 3.96257 19.17C4.23387 18.8987 4.25387 18.4713 4.02257 18.177C4.25041 18.0474 4.47129 17.9011 4.68338 17.7379L4.83005 17.8846C5.12294 18.1774 5.59782 18.1774 5.89071 17.8846C6.1836 17.5917 6.1836 17.1168 5.89071 16.8239L5.744 16.6772C5.90717 16.4651 6.05353 16.2442 6.18308 16.0163C6.4774 16.2476 6.90484 16.2276 7.17614 15.9563C7.46903 15.6634 7.46903 15.1885 7.17614 14.8956L6.7786 14.4981C6.8879 14.0336 6.93877 13.5582 6.93119 13.0839C7.88638 13.2634 8.79935 13.7227 9.53847 14.4619C10.2776 15.201 10.7369 16.1139 10.9165 17.0691C10.4422 17.0615 9.96686 17.1124 9.50237 17.2217L9.10472 16.824C8.81183 16.5311 8.33696 16.5311 8.04406 16.824C7.77273 17.0953 7.75276 17.5228 7.98413 17.8172C7.75618 17.9467 7.53521 18.0932 7.32303 18.2564L7.17614 18.1095C6.88324 17.8166 6.40837 17.8166 6.11548 18.1095C5.82258 18.4024 5.82258 18.8773 6.11548 19.1701L6.26236 19.317C6.09919 19.5291 5.95283 19.75 5.82327 19.9779C5.52894 19.7464 5.1014 19.7664 4.83005 20.0377C4.53716 20.3306 4.53716 20.8055 4.83005 21.0984L5.22768 21.496C5.11833 21.9607 5.06744 22.4362 5.07502 22.9106C4.11982 22.7311 3.20685 22.2717 2.46771 21.5326C1.72859 20.7935 1.26925 19.8805 1.08971 18.9253C1.56424 18.9329 2.03978 18.882 2.50448 18.7726Z" fill="black"/>
<path d="M6.57979 22.6008C6.79315 22.6195 7.01301 22.5473 7.1763 22.384C7.46919 22.0911 7.46919 21.6162 7.1763 21.3233L6.94096 21.088C7.04867 20.8461 7.18012 20.6123 7.3353 20.39L7.40107 20.4557C7.69396 20.7486 8.16884 20.7486 8.46173 20.4557C8.75462 20.1628 8.75462 19.688 8.46173 19.3951L8.39597 19.3293C8.61838 19.1741 8.85231 19.0426 9.09427 18.9349L9.32965 19.1703C9.62255 19.4632 10.0974 19.4632 10.3903 19.1703C10.5536 19.007 10.6258 18.7872 10.6071 18.5738C10.728 18.5677 10.8491 18.5667 10.9701 18.5708C10.8458 19.6531 10.3686 20.7025 9.53847 21.5326C8.70837 22.3627 7.65899 22.8399 6.57678 22.9642C6.57264 22.843 6.57365 22.7218 6.57979 22.6008Z" fill="black"/>
<path d="M16.2499 11.7457V11.619C17.1567 10.4837 17.8287 9.15259 18.1922 7.69929C21.4266 8.81539 23.7499 11.8864 23.7499 15.5C23.7499 20.0564 20.0563 23.75 15.4999 23.75C13.778 23.75 12.1794 23.2225 10.8567 22.3203C11.197 21.9384 11.4845 21.526 11.7191 21.0925C12.0462 21.3141 12.3938 21.5078 12.7585 21.6701L12.4718 20.7236L12.7959 20.3113L12.8041 20.3007L13.8191 18.9609C13.9493 18.9917 14.0846 19.0079 14.2227 19.0079H16.7772C16.9152 19.0079 17.0503 18.9918 17.1805 18.961L18.2036 20.3115L18.5288 20.7247L18.2426 21.6695C19.1977 21.2443 20.0359 20.6038 20.6954 19.8096L19.7325 19.8289L19.387 19.3895L18.3514 18.0226C18.3862 17.9509 18.4164 17.8761 18.4416 17.7987L19.2309 15.3692C19.2633 15.2696 19.2863 15.1686 19.3003 15.0674L20.937 14.5419L21.4214 14.3647L22.2283 14.9552C22.1432 13.8895 21.8105 12.8936 21.2879 12.025L20.9922 12.9245L20.4499 13.1228L18.8486 13.637C18.7726 13.5553 18.688 13.4801 18.5952 13.4127L16.5286 11.9111C16.4398 11.8466 16.3465 11.7915 16.2499 11.7457Z" fill="black"/>
<path d="M12.4862 17.5769C12.5002 17.792 12.5035 18.0077 12.4961 18.2231L12.6483 18.0223C12.6136 17.9506 12.5834 17.876 12.5583 17.7987L12.4862 17.5769Z" fill="black"/>
<path d="M13.2863 14.6262L15.353 13.1247C15.4406 13.061 15.5593 13.061 15.6469 13.1247L17.7135 14.6262C17.8012 14.6898 17.8378 14.8027 17.8044 14.9057L17.015 17.3352C16.9815 17.4382 16.8855 17.5079 16.7772 17.5079H14.2227C14.1144 17.5079 14.0184 17.4382 13.9849 17.3352L13.1955 14.9057C13.162 14.8027 13.1987 14.6898 13.2863 14.6262Z" fill="black"/>
</svg>
