<svg width="24" height="24" viewBox="0 0 24 24" fill="none" xmlns="http://www.w3.org/2000/svg">
<path d="M17.2412 1C17.6554 1 17.9912 1.33579 17.9912 1.75V5.43885L21.2939 2.13617C21.5868 1.84328 22.0617 1.84328 22.3545 2.13617C22.6474 2.42907 22.6474 2.90394 22.3545 3.19683L19.0514 6.5H22.7412C23.1554 6.5 23.4912 6.83579 23.4912 7.25C23.4912 7.66421 23.1554 8 22.7412 8H17.9911L19.0164 9.02527C19.9413 9.95011 20.5047 11.1753 20.6051 12.4793C20.6656 13.2665 20.5553 14.0371 20.3001 14.7483L13.6466 8.09478C13.3537 7.80189 12.8788 7.80189 12.5859 8.09478C12.293 8.38768 12.293 8.86255 12.5859 9.15544L19.5646 16.1341C18.9913 16.9183 18.2072 17.5539 17.2683 17.9493L8.82728 21.5034L5.93247 18.6086C5.63958 18.3157 5.1647 18.3157 4.87181 18.6086C4.57892 18.9015 4.57892 19.3763 4.87181 19.6692L7.3345 22.1319L4.5866 23.2889C3.89141 23.5816 3.10302 23.556 2.42835 23.2186C1.92829 22.9686 1.52282 22.5631 1.27279 22.0631C0.935455 21.3884 0.909774 20.6 1.20249 19.9048L4.87366 11.1858L10.2355 16.5476C10.5284 16.8405 11.0033 16.8405 11.2962 16.5476C11.5891 16.2547 11.5891 15.7799 11.2962 15.487L5.5022 9.693L6.54216 7.22309C7.45734 5.04955 9.66068 3.70548 12.0121 3.88636C13.3161 3.98667 14.5413 4.55016 15.4661 5.475L16.4912 6.50007V1.75C16.4912 1.33579 16.827 1 17.2412 1Z" fill="black"/>
</svg>
