<svg width="24" height="24" viewBox="0 0 24 24" fill="none" xmlns="http://www.w3.org/2000/svg">
<path fill-rule="evenodd" clip-rule="evenodd" d="M3.99665 0.25C2.89815 0.25 2.07126 1.25027 2.27788 2.32916L6.10813 22.3292C6.26605 23.1538 6.98732 23.75 7.82689 23.75H16.1734C17.0131 23.75 17.7345 23.1536 17.8922 22.3288L21.7182 2.32881C21.9246 1.25002 21.0977 0.25 19.9994 0.25H3.99665ZM3.75111 2.04702C3.72159 1.8929 3.83972 1.75 3.99665 1.75H19.9994C20.1563 1.75 20.2744 1.89286 20.2449 2.04697L18.1496 12.9998C18.0847 12.9493 18.0119 12.9085 17.9355 12.8806C17.6528 12.777 17.341 12.6165 17.0002 12.4411C16.1718 12.0147 15.1718 11.5 14.0002 11.5C13.0002 11.5 12.2502 11.875 11.5002 12.25C10.7502 12.625 10.0002 13 9.00024 13C7.88593 13 6.49569 12.4481 5.64944 11.9594L3.75111 2.04702Z" fill="black"/>
</svg>
