<svg width="24" height="24" viewBox="0 0 24 24" fill="none" xmlns="http://www.w3.org/2000/svg">
<path d="M9.87868 2.70711C8.70711 3.87868 8.70711 5.77817 9.87868 6.94975L11.25 8.32107V9.01563C10.7003 8.39282 9.89602 8 9 8H7C6.44772 8 6 8.44772 6 9V10.708C6.30623 10.5742 6.64445 10.5 7 10.5H9C9.81965 10.5 10.5881 10.7191 11.25 11.102V13.0156C10.7003 12.3928 9.89602 12 9 12H7C6.72359 12 6.47338 12.1121 6.29237 12.2934C6.11171 12.4743 6 12.7241 6 13V14.708C6.30623 14.5742 6.64445 14.5 7 14.5H9C9.81965 14.5 10.5881 14.7191 11.25 15.102V17.0156C10.7003 16.3928 9.89602 16 9 16H7C6.72386 16 6.47386 16.1119 6.29289 16.2929C6.11224 16.4738 6 16.7241 6 17V19C6 20.6569 7.34315 22 9 22H11C11.0863 22 11.1701 21.9891 11.25 21.9685V23C11.25 23.4142 11.5858 23.75 12 23.75C12.4142 23.75 12.75 23.4142 12.75 23V21.9685C12.8299 21.9891 12.9137 22 13 22H15C16.6569 22 18 20.6569 18 19V17C18 16.7241 17.8883 16.4743 17.7076 16.2934C17.5267 16.1125 17.2761 16 17 16H15C14.104 16 13.2997 16.3928 12.75 17.0156V15.102C13.4119 14.7191 14.1804 14.5 15 14.5H17C17.3556 14.5 17.6938 14.5742 18 14.708V13C18 12.7241 17.8883 12.4743 17.7076 12.2934C17.5266 12.1121 17.2764 12 17 12H15C14.104 12 13.2997 12.3928 12.75 13.0156V11.102C13.4119 10.7191 14.1804 10.5 15 10.5H17C17.3556 10.5 17.6938 10.5742 18 10.708V9C18 8.44772 17.5523 8 17 8H15C14.104 8 13.2997 8.39282 12.75 9.01563V8.32107L14.1213 6.94975C15.2929 5.77817 15.2929 3.87868 14.1213 2.70711L12.7071 1.29289C12.5118 1.09763 12.2559 1 12 1C11.7441 1 11.4882 1.09763 11.2929 1.29289L9.87868 2.70711Z" fill="black"/>
</svg>
