<svg width="24" height="24" viewBox="0 0 24 24" fill="none" xmlns="http://www.w3.org/2000/svg">
<path fill-rule="evenodd" clip-rule="evenodd" d="M9.5 1.25C7.42893 1.25 5.75 2.92893 5.75 5V6.5H2C1.69333 6.5 1.4189 6.63805 1.23546 6.85539L1.65209 7.62914L4.35181 12.1286C4.39699 12.2039 4.47837 12.25 4.56619 12.25L10 12.25L10 13.75L4.56619 13.75C3.95148 13.75 3.38185 13.4275 3.06558 12.9004L1 9.45778V21C1 21.5523 1.44772 22 2 22H22C22.5523 22 23 21.5523 23 21V9.45772L20.9344 12.9003C20.6182 13.4274 20.0485 13.7499 19.4338 13.7499L14 13.75L14 12.25L19.4338 12.2499C19.5216 12.2499 19.603 12.2039 19.6482 12.1286L22.3612 7.6069L22.798 6.89724C22.6154 6.65592 22.3259 6.5 22 6.5H18.25V5C18.25 2.92893 16.5711 1.25 14.5 1.25H9.5ZM16.75 6.5V5C16.75 3.75736 15.7426 2.75 14.5 2.75H9.5C8.25736 2.75 7.25 3.75736 7.25 5V6.5H16.75ZM14 12.25L14 14C14 14.5523 13.5523 15 13 15H11C10.4477 15 10 14.5523 10 14L10 13.75L10 12C10 11.4477 10.4477 11 11 11H13C13.5523 11 14 11.4477 14 12L14 12.25Z" fill="black"/>
</svg>
