<svg width="24" height="24" viewBox="0 0 24 24" fill="none" xmlns="http://www.w3.org/2000/svg">
<path d="M12.9527 4.75991L16.2729 8.08053L10.4302 13.9235L7.73894 13.8228C6.71004 13.7842 5.73491 14.2568 5.12682 15.0739L3.88305 13.8301L4.19324 13.5199L4.18965 13.5228L12.9527 4.75991Z" fill="black"/>
<path d="M12.2738 15.4936L7.68312 15.3217C7.10484 15.3001 6.55905 15.5902 6.25374 16.0817L6.20851 16.1557L6.20992 16.1571C5.67628 17.1253 6.26142 18.3475 7.37063 18.5233L13.3393 19.4691L13.4093 19.4915L13.6421 19.6245C15.2368 20.5356 17.1611 20.6661 18.8642 19.9787L20.3043 19.3974C20.3162 19.3926 20.3289 19.3902 20.3418 19.3902H22.0004C22.5527 19.3902 23.0004 18.9425 23.0004 18.3902V12.5415C23.0004 11.9892 22.5527 11.5415 22.0004 11.5415H20.5868C20.4135 11.5415 20.2431 11.4965 20.0924 11.4108L16.8865 9.58752L12.6755 13.7987L13.6149 13.28C13.9681 13.0849 14.4125 13.2099 14.6124 13.5604C14.8137 13.9135 14.6914 14.363 14.3389 14.5654L14.3371 14.5665L14.337 14.5654L13.0712 15.2935C13.023 15.3212 12.9737 15.3461 12.9235 15.3682C12.7175 15.4589 12.496 15.502 12.2738 15.4936Z" fill="black"/>
<path d="M14.0134 3.69922L15.0049 2.70766C15.3957 2.31685 16.0297 2.31685 16.4205 2.70766L18.3266 4.61388C18.7168 5.00414 18.7168 5.63648 18.3266 6.02674L17.3335 7.01985L14.0134 3.69922Z" fill="black"/>
<path d="M2.69162 15.0216L2.1304 15.5828C1.98277 15.7305 1.8851 15.9206 1.85108 16.1265L1.26895 19.6497C1.25779 19.7172 1.31637 19.7757 1.38398 19.7646L4.9064 19.1827C5.11272 19.1486 5.30317 19.0508 5.45097 18.903L6.01187 18.342L2.69162 15.0216Z" fill="black"/>
<path d="M9.97919 5.61153L1.77343 13.8177C1.70541 13.7656 1.64002 13.7084 1.57777 13.6462C0.816132 12.8846 0.812122 11.6509 1.5688 10.8844L6.86448 5.51937C7.53262 4.84248 8.58504 4.72975 9.38139 5.24978L9.60078 5.39305L9.97919 5.61153Z" fill="black"/>
</svg>
