<svg width="24" height="24" viewBox="0 0 24 24" fill="none" xmlns="http://www.w3.org/2000/svg">
<path d="M14.5 22L12.2564 16.6154C12.1011 16.2427 11.7387 16 11.335 16C9.9559 16 6.86572 16 6.30576 16C6.10373 16 5.90644 15.9387 5.73993 15.8242L3.15588 14.047M3.15588 14.047L1.86656 13.1602C1.32411 12.7871 1 12.1706 1 11.5119V11C1 8.40759 2.09511 6.07117 3.84758 4.42891M3.15588 14.047C3.05867 12.7447 4.11843 11.5929 5.42909 11.5929C5.57736 11.5929 5.72232 11.6071 5.86269 11.6341M3.84758 4.42891C5.4552 2.92238 7.616 2 9.99205 2H13.9883C17.1101 2 19.8602 3.59217 21.4725 6.00944M3.84758 4.42891C5.20953 3.44721 7.23207 4.30316 7.44077 6M22.9716 12.8845C22.3057 12.3321 21.4507 12 20.5183 12C18.4562 12 16.7732 13.624 16.6761 15.6638C16.6631 15.9367 16.8068 16.2002 16.9025 16.4482M22.9716 12.8845C22.9014 13.6307 22.4175 14.2819 21.7103 14.5588L16.9025 16.4482M22.9716 12.8845C23.0299 12.2641 22.9804 11.6226 22.9804 11C22.9804 9.15392 22.425 7.43766 21.4725 6.00944M19 22L16.9025 16.4482M21.4725 6.00944C20.1583 5.89003 18.9841 6.95736 18.9841 8.28164M12.5183 9.58865C13.5876 10.1881 14.3416 11.284 14.4688 12.5644M12.5183 9.58865C11.2069 8.85352 9.53601 8.96551 8.33329 9.86971M12.5183 9.58865C12.8608 8.47958 12.6767 7.24192 12.0216 6.28164" stroke="black" stroke-width="1.5" stroke-linecap="round" stroke-linejoin="round"/>
</svg>
