<svg width="24" height="24" viewBox="0 0 24 24" fill="none" xmlns="http://www.w3.org/2000/svg">
<path d="M18.1823 1.31135C18.3543 0.934514 18.1882 0.489633 17.8113 0.317679C17.4345 0.145726 16.9896 0.311815 16.8177 0.68865L18.1823 1.31135ZM13.0228 10.8119L12.3404 10.5005L12.3404 10.5005L13.0228 10.8119ZM13.0722 11.7348L13.7159 11.3497L13.7159 11.3497L13.0722 11.7348ZM17.7075 19.0716L17.1118 19.5273C17.1334 19.5555 17.157 19.5822 17.1824 19.6071L17.7075 19.0716ZM2.09076 12.9471L2.81289 12.7445L2.81289 12.7445L2.09076 12.9471ZM5.2141 8.04746L4.54597 7.70672L4.54597 7.70673L5.2141 8.04746ZM8.70183 1.26444C8.84788 0.876829 8.65205 0.444213 8.26444 0.298166C7.87683 0.152119 7.44421 0.347947 7.29816 0.735559L8.70183 1.26444ZM8.6267 10.2372C8.98542 10.0301 9.10833 9.57139 8.90122 9.21267C8.69411 8.85395 8.23542 8.73104 7.8767 8.93815L8.6267 10.2372ZM7.08454 11.8945C7.29165 12.2532 7.75034 12.3761 8.10906 12.169C8.46778 11.9619 8.59069 11.5032 8.38358 11.1445L7.08454 11.8945ZM16.8177 0.68865L12.3404 10.5005L13.7051 11.1232L18.1823 1.31135L16.8177 0.68865ZM12.4286 12.1198C13.2788 13.541 16.0336 18.1178 17.1118 19.5273L18.3032 18.6159C17.2914 17.2933 14.5935 12.8169 13.7159 11.3497L12.4286 12.1198ZM17.1824 19.6071C17.406 19.8263 17.7824 20.0255 18.2504 20.1707C18.7408 20.3228 19.389 20.434 20.2061 20.434V18.934C19.5241 18.934 19.0271 18.8411 18.6949 18.7381C18.3405 18.6281 18.2172 18.521 18.2325 18.5361L17.1824 19.6071ZM20.2061 20.434C20.8511 20.434 21.0933 20.7201 21.1888 20.9582C21.322 21.2907 21.2067 21.5572 21.1647 21.5983L22.2148 22.6694C22.7975 22.0981 22.8774 21.1397 22.5811 20.4003C22.2471 19.5667 21.4352 18.934 20.2061 18.934V20.434ZM21.1647 21.5983C20.7476 22.0072 19.559 22.5624 17.9405 22.0334L17.4745 23.4592C19.604 24.1551 21.3826 23.4854 22.2148 22.6694L21.1647 21.5983ZM17.9405 22.0334C17.3917 21.8541 16.7931 21.7715 16.2194 21.7131C15.6128 21.6513 15.0725 21.6187 14.4846 21.5431C13.3436 21.3964 12.3549 21.118 11.5955 20.3734L10.5454 21.4445C11.6599 22.5372 13.0528 22.8713 14.2933 23.0308C14.8962 23.1084 15.5466 23.1523 16.0674 23.2054C16.6209 23.2617 17.0862 23.3323 17.4745 23.4592L17.9405 22.0334ZM11.5955 20.3734C10.7268 19.5217 10.0879 18.5232 9.47134 17.5872C9.17117 17.1315 8.8669 16.6771 8.55135 16.2963C8.23833 15.9186 7.86968 15.5572 7.41824 15.3359L6.75798 16.6828C6.9312 16.7677 7.13843 16.9422 7.3964 17.2535C7.65186 17.5617 7.91371 17.9494 8.2187 18.4124C8.81247 19.3138 9.54006 20.4588 10.5454 21.4445L11.5955 20.3734ZM7.41824 15.3359C6.98956 15.1258 6.46089 15.036 6.02413 14.9633C5.5459 14.8837 5.09863 14.8152 4.66552 14.6806C4.24285 14.5493 3.87359 14.3657 3.56931 14.0824C3.26974 13.8035 2.99459 13.3923 2.81289 12.7445L1.36863 13.1496C1.61639 14.033 2.02447 14.6936 2.54721 15.1802C3.06525 15.6625 3.6574 15.9382 4.22054 16.1131C4.77323 16.2848 5.33617 16.3694 5.77786 16.4429C6.26102 16.5233 6.56198 16.5867 6.75798 16.6828L7.41824 15.3359ZM2.81289 12.7445C2.59908 11.9822 2.95268 11.3399 3.69698 10.6042C4.07186 10.2336 4.45999 9.92042 4.86757 9.55824C5.23194 9.23444 5.65317 8.83735 5.88224 8.38819L4.54597 7.70673C4.46269 7.87002 4.25452 8.09633 3.87119 8.43697C3.53106 8.73922 3.05317 9.13145 2.64248 9.53742C1.81563 10.3547 0.919898 11.5498 1.36863 13.1496L2.81289 12.7445ZM5.88224 8.38819C6.15457 7.85417 6.86914 6.0424 7.49396 4.42678C7.81163 3.60537 8.11355 2.81491 8.336 2.22995C8.44724 1.93742 8.53865 1.69617 8.60227 1.528C8.63408 1.44392 8.65895 1.37809 8.67587 1.33326C8.68433 1.31084 8.69081 1.29367 8.69518 1.28209C8.69736 1.2763 8.69902 1.2719 8.70013 1.26895C8.70069 1.26747 8.70111 1.26635 8.7014 1.2656C8.70154 1.26522 8.70165 1.26494 8.70172 1.26474C8.70175 1.26465 8.70178 1.26457 8.7018 1.26452C8.70182 1.26447 8.70183 1.26444 8 1C7.29816 0.735559 7.29816 0.735575 7.29814 0.735615C7.29813 0.735659 7.2981 0.735722 7.29807 0.73581C7.298 0.735986 7.2979 0.736253 7.29777 0.736612C7.2975 0.73733 7.29709 0.738413 7.29654 0.739855C7.29546 0.74274 7.29383 0.747063 7.29167 0.752782C7.28736 0.764219 7.28094 0.781239 7.27253 0.803501C7.25572 0.848026 7.23098 0.913518 7.19931 0.997254C7.13595 1.16473 7.04485 1.40517 6.93395 1.69678C6.71213 2.28011 6.41127 3.06777 6.09494 3.88573C5.45174 5.54886 4.77337 7.26082 4.54597 7.70672L5.88224 8.38819ZM12.3404 10.5005C12.1033 11.0201 12.1322 11.6242 12.4286 12.1198L13.7159 11.3497C13.6759 11.2829 13.6701 11.1999 13.7051 11.1232L12.3404 10.5005ZM7.8767 8.93815C6.84157 9.53578 6.48691 10.8594 7.08454 11.8945L8.38358 11.1445C8.20016 10.8268 8.30901 10.4206 8.6267 10.2372L7.8767 8.93815Z" fill="black"/>
</svg>
