<svg width="24" height="24" viewBox="0 0 24 24" fill="none" xmlns="http://www.w3.org/2000/svg">
<path d="M1 12H7.5M16.5 12H23M7.52779 12C6.57771 13.0615 6 14.4633 6 16C6 19.3137 8.68629 22 12 22C15.3137 22 18 19.3137 18 16C18 14.4633 17.4223 13.0615 16.4722 12M8 1C8.58441 2.53407 9.78537 9.19962 9.97464 13.7869C9.37563 14.3353 9 15.1238 9 16C9 17.6569 10.3431 19 12 19C13.6569 19 15 17.6569 15 16C15 15.0802 14.586 14.2571 13.9343 13.7067C13.2822 7.44946 8 1 8 1Z" stroke="black" stroke-width="1.5" stroke-linecap="round" stroke-linejoin="round"/>
</svg>
