<svg width="24" height="24" viewBox="0 0 24 24" fill="none" xmlns="http://www.w3.org/2000/svg">
<path d="M8.8205 10.6474L10.779 10.0366C11.7459 9.73507 12.6181 9.19455 13.3167 8.46841M17.5878 3.26996L15.931 5.29866M19.4429 5.53993C19.4429 5.53993 18.9848 6.27233 16.4997 10C14.4997 13 10.9997 14 10.9997 14M10.1677 1V4.39663C10.1677 4.40123 10.164 4.40496 10.1594 4.40496C8.45644 4.40496 7.07596 5.78545 7.07596 7.48836V7.80993L7.08443 8.13703M13.0213 1V3.52781C13.0213 3.57725 13.0568 3.61911 13.1057 3.62601C13.6751 3.7063 15.1463 3.89587 15.7328 4.97246L15.931 5.29866M17.4997 8.50001C18.5042 9.06339 19.306 10.0987 18.9182 13.3526C18.6169 15.8808 17.8122 18.585 16.691 20.4852M9.99973 16.9454C10.4971 17.6102 11.1608 17.9622 11.8933 18.2095M10.6192 19.8851C11.4429 19.5231 11.755 18.8058 11.8539 18.5007C11.8843 18.4068 11.8933 18.3083 11.8933 18.2095V18.2095M7.44949 13.5179C7.16361 14.5848 6.06693 15.218 5 14.9321L4.46812 14.7828M13.3167 8.46841C13.429 8.35167 13.5368 8.23013 13.6398 8.10402L15.931 5.29866M13.3167 8.46841L13.0531 8.25607C12.6119 7.90314 12.0347 7.67313 12.0013 7.65994L11.9981 7.65878C10.6866 7.2008 8.70864 7.17335 7.08443 8.13703M7.08443 8.13703C6.69826 8.36616 6.33209 8.6513 5.99962 9.00001C4.32309 10.7585 4.04396 12.793 4.46812 14.7828M4.46812 14.7828C4.5915 15.3616 4.77439 15.9367 4.9997 16.5C6.49666 20.2429 10.8024 23 13.5077 23C14.7064 23 15.7989 21.9971 16.691 20.4852M11.8933 18.2095C13.3396 18.6979 15.0542 18.7786 16.288 20.0546L16.691 20.4852" stroke="black" stroke-width="1.5" stroke-linecap="round"/>
</svg>
