<svg width="24" height="24" viewBox="0 0 24 24" fill="none" xmlns="http://www.w3.org/2000/svg">
<path d="M3.5533 16.4746L3.9474 15.8365C3.77192 15.7281 3.55957 15.6968 3.36027 15.7498C3.16098 15.8029 2.99234 15.9357 2.89402 16.117L3.5533 16.4746ZM6.96527 15.3858L7.62459 15.7433L7.62459 15.7433L6.96527 15.3858ZM3.5526 16.4759L3.25482 17.1642C3.61137 17.3184 4.02668 17.1749 4.21188 16.8334L3.5526 16.4759ZM2.15754 8.45623L1.49824 8.0987L1.49824 8.0987L2.15754 8.45623ZM9.2824 5.80743L8.87586 6.4378L8.88593 6.44407L9.2824 5.80743ZM9.30464 5.82128L9.70467 5.18686L9.70112 5.18464L9.30464 5.82128ZM10.1166 9.57351L9.45732 9.21603L9.45732 9.21603L10.1166 9.57351ZM8.56284 10.8913L8.70502 11.6277L8.74578 11.6199L8.78543 11.6075L8.56284 10.8913ZM8.03764 14.5332C8.10407 14.1243 7.82647 13.739 7.41762 13.6726C7.00877 13.6062 6.62348 13.8838 6.55705 14.2926L8.03764 14.5332ZM7.5 10.25C7.08579 10.25 6.75 10.5858 6.75 11C6.75 11.4142 7.08579 11.75 7.5 11.75V10.25ZM8 16.241L8.75 16.241L8.75 16.241L8 16.241ZM7.25 19C7.25 19.4142 7.58579 19.75 8 19.75C8.41422 19.75 8.75 19.4142 8.75 19H7.25ZM4.87211 11.8489C4.51247 11.6433 4.05433 11.7683 3.84882 12.1279C3.64331 12.4876 3.76826 12.9457 4.1279 13.1512L4.87211 11.8489ZM6.48842 13.6363L6.86052 12.9851L6.86052 12.9851L6.48842 13.6363ZM10.498 16.2058L11.248 16.2058L11.248 16.2058L10.498 16.2058ZM9.74805 19C9.74805 19.4142 10.0838 19.75 10.498 19.75C10.9123 19.75 11.248 19.4142 11.248 19H9.74805ZM5.83549 9.32755C5.46502 9.14227 5.0145 9.29238 4.82922 9.66285C4.64393 10.0333 4.79405 10.4838 5.16452 10.6691L5.83549 9.32755ZM7.18192 10.8395L7.51741 10.1687L7.5174 10.1687L7.18192 10.8395ZM20.4467 16.4746L21.106 16.117C21.0077 15.9357 20.839 15.8029 20.6397 15.7498C20.4404 15.6968 20.2281 15.7281 20.0526 15.8365L20.4467 16.4746ZM17.0347 15.3858L16.3754 15.7433L16.3754 15.7433L17.0347 15.3858ZM20.4474 16.4759L19.7881 16.8334C19.9733 17.1749 20.3886 17.3184 20.7452 17.1642L20.4474 16.4759ZM21.8425 8.45623L22.5018 8.0987L22.5018 8.0987L21.8425 8.45623ZM14.7176 5.80743L15.1141 6.44414L15.1241 6.43772L14.7176 5.80743ZM14.6954 5.82128L14.2989 5.18463L14.2953 5.18687L14.6954 5.82128ZM13.8834 9.57351L14.5427 9.21603L14.5427 9.21603L13.8834 9.57351ZM15.4372 10.8913L15.2146 11.6075L15.2542 11.6199L15.295 11.6277L15.4372 10.8913ZM17.4429 14.2926C17.3765 13.8838 16.9912 13.6062 16.5824 13.6726C16.1735 13.739 15.8959 14.1243 15.9624 14.5332L17.4429 14.2926ZM16.5 11.75C16.9142 11.75 17.25 11.4142 17.25 11C17.25 10.5858 16.9142 10.25 16.5 10.25V11.75ZM16 16.241L15.25 16.241V16.241H16ZM15.25 19C15.25 19.4142 15.5858 19.75 16 19.75C16.4142 19.75 16.75 19.4142 16.75 19H15.25ZM19.8721 13.1512C20.2317 12.9457 20.3567 12.4875 20.1512 12.1279C19.9457 11.7683 19.4875 11.6433 19.1279 11.8488L19.8721 13.1512ZM17.5116 13.6362L17.1395 12.9851L17.1395 12.9851L17.5116 13.6362ZM13.5008 16.2046L14.2508 16.2048L14.2508 16.2048L13.5008 16.2046ZM12.75 18.9998C12.7499 19.414 13.0856 19.7499 13.4998 19.75C13.914 19.7501 14.2499 19.4144 14.25 19.0002L12.75 18.9998ZM18.8355 10.6691C19.2059 10.4838 19.3561 10.0333 19.1708 9.66285C18.9855 9.29239 18.535 9.14227 18.1645 9.32755L18.8355 10.6691ZM16.817 10.8401L16.4815 10.1693L16.4815 10.1693L16.817 10.8401ZM3.1592 17.1127C4.75319 18.0971 6.73414 17.3857 7.62459 15.7433L6.30594 15.0284C5.75786 16.0392 4.69169 16.2961 3.9474 15.8365L3.1592 17.1127ZM2.89402 16.117L2.89332 16.1183L4.21188 16.8334L4.21258 16.8321L2.89402 16.117ZM3.5526 16.4759C3.85038 15.7875 3.85081 15.7877 3.85123 15.7879C3.85134 15.7879 3.85174 15.7881 3.85197 15.7882C3.85244 15.7884 3.85284 15.7886 3.85317 15.7887C3.85382 15.789 3.85421 15.7892 3.85434 15.7892C3.85459 15.7893 3.85379 15.789 3.85199 15.7882C3.84838 15.7865 3.84077 15.783 3.82952 15.7775C3.80699 15.7665 3.77009 15.7479 3.72171 15.7212C3.62467 15.6675 3.48326 15.5824 3.32005 15.4627C2.99151 15.2218 2.58951 14.8519 2.27579 14.3314C1.68223 13.3468 1.28969 11.6298 2.81683 8.81377L1.49824 8.0987C-0.232213 11.2896 0.0727783 13.5824 0.991152 15.1058C1.43339 15.8395 1.99096 16.3481 2.43299 16.6723C2.65507 16.8352 2.8517 16.9542 2.99638 17.0341C3.06886 17.0742 3.12873 17.1046 3.17277 17.1261C3.1948 17.1368 3.21292 17.1453 3.22671 17.1516C3.23361 17.1548 3.23944 17.1574 3.24414 17.1595C3.24649 17.1606 3.24856 17.1615 3.25034 17.1623C3.25123 17.1626 3.25205 17.163 3.2528 17.1633C3.25317 17.1635 3.25368 17.1637 3.25387 17.1638C3.25435 17.164 3.25482 17.1642 3.5526 16.4759ZM2.81683 8.81377C4.18255 6.29542 5.63513 5.76687 6.66824 5.75041C7.78807 5.73256 8.67198 6.3062 8.87591 6.43772L9.68888 5.17713C9.45912 5.02896 8.24588 4.22508 6.64434 4.2506C4.95608 4.2775 3.06307 5.21319 1.49824 8.0987L2.81683 8.81377ZM9.70112 5.18464L9.67887 5.17078L8.88593 6.44407L8.90817 6.45792L9.70112 5.18464ZM10.776 9.93099C11.6589 8.30249 11.2586 6.16668 9.70467 5.18687L8.90462 6.4557C9.69374 6.95326 10.0205 8.17731 9.45732 9.21603L10.776 9.93099ZM8.78543 11.6075C9.60428 11.353 10.3243 10.7641 10.776 9.93099L9.45732 9.21603C9.18331 9.7214 8.76829 10.0421 8.34025 10.1751L8.78543 11.6075ZM7.62459 15.7433C7.83429 15.3565 7.97051 14.9464 8.03764 14.5332L6.55705 14.2926C6.51622 14.544 6.43341 14.7933 6.30594 15.0284L7.62459 15.7433ZM8.56284 10.8913C8.42066 10.1549 8.42072 10.1549 8.42077 10.1549C8.42079 10.1549 8.42084 10.1549 8.42087 10.1549C8.42093 10.1549 8.42099 10.1549 8.42103 10.1549C8.42113 10.1548 8.42118 10.1548 8.42121 10.1548C8.42126 10.1548 8.42118 10.1548 8.42097 10.1549C8.42054 10.1549 8.4196 10.1551 8.41816 10.1554C8.41528 10.1559 8.41041 10.1568 8.4037 10.1581C8.39027 10.1605 8.36954 10.1642 8.3427 10.1687C8.28886 10.1777 8.21134 10.19 8.11953 10.2023C7.9313 10.2274 7.70255 10.25 7.5 10.25V11.75C7.79745 11.75 8.10012 11.7182 8.31831 11.689C8.42971 11.6742 8.52415 11.6592 8.59147 11.6479C8.62521 11.6422 8.65236 11.6374 8.67166 11.6339C8.68131 11.6322 8.68902 11.6308 8.69463 11.6297C8.69744 11.6292 8.69972 11.6287 8.70146 11.6284C8.70232 11.6282 8.70306 11.6281 8.70365 11.628C8.70395 11.6279 8.70421 11.6279 8.70444 11.6278C8.70456 11.6278 8.70466 11.6278 8.70476 11.6278C8.70481 11.6278 8.70487 11.6278 8.7049 11.6278C8.70496 11.6277 8.70502 11.6277 8.56284 10.8913ZM7.25 16.241V19H8.75V16.241H7.25ZM4.1279 13.1512L6.11631 14.2875L6.86052 12.9851L4.87211 11.8489L4.1279 13.1512ZM8.75 16.241C8.75 14.8953 8.02893 13.6528 6.86052 12.9851L6.11631 14.2875C6.81736 14.6881 7.25 15.4336 7.25 16.241L8.75 16.241ZM9.74805 16.2058V19H11.248V16.2058H9.74805ZM5.16452 10.6691L6.84644 11.5103L7.5174 10.1687L5.83549 9.32755L5.16452 10.6691ZM11.248 16.2058C11.248 13.6493 9.80383 11.3123 7.51741 10.1687L6.84644 11.5103C8.62477 12.3997 9.74805 14.2174 9.74805 16.2058L11.248 16.2058ZM20.0526 15.8365C19.3083 16.2961 18.2421 16.0392 17.6941 15.0284L16.3754 15.7433C17.2659 17.3857 19.2468 18.0971 20.8408 17.1127L20.0526 15.8365ZM19.7874 16.8321L19.7881 16.8334L21.1067 16.1183L21.106 16.117L19.7874 16.8321ZM20.4474 16.4759C20.7452 17.1642 20.7456 17.164 20.7461 17.1638C20.7463 17.1637 20.7468 17.1635 20.7472 17.1633C20.7479 17.163 20.7488 17.1626 20.7497 17.1623C20.7514 17.1615 20.7535 17.1606 20.7559 17.1595C20.7606 17.1574 20.7664 17.1548 20.7733 17.1516C20.7871 17.1453 20.8052 17.1368 20.8272 17.1261C20.8713 17.1046 20.9311 17.0742 21.0036 17.0341C21.1483 16.9542 21.3449 16.8352 21.567 16.6723C22.009 16.3481 22.5666 15.8395 23.0088 15.1058C23.9272 13.5824 24.2322 11.2896 22.5018 8.0987L21.1832 8.81377C22.7103 11.6298 22.3178 13.3468 21.7242 14.3314C21.4105 14.8519 21.0085 15.2218 20.68 15.4627C20.5167 15.5824 20.3753 15.6675 20.2783 15.7212C20.2299 15.7479 20.193 15.7665 20.1705 15.7775C20.1592 15.783 20.1516 15.7865 20.148 15.7882C20.1462 15.789 20.1454 15.7893 20.1457 15.7892C20.1458 15.7892 20.1462 15.789 20.1468 15.7887C20.1472 15.7886 20.1476 15.7884 20.148 15.7882C20.1483 15.7881 20.1487 15.7879 20.1488 15.7879C20.1492 15.7877 20.1496 15.7875 20.4474 16.4759ZM22.5018 8.0987C20.9369 5.21319 19.0439 4.2775 17.3557 4.2506C15.7541 4.22508 14.5409 5.02896 14.3111 5.17713L15.1241 6.43772C15.328 6.3062 16.2119 5.73256 17.3318 5.75041C18.3649 5.76687 19.8175 6.29542 21.1832 8.81377L22.5018 8.0987ZM15.0918 6.45792L15.1141 6.44407L14.3211 5.17078L14.2989 5.18464L15.0918 6.45792ZM14.5427 9.21603C13.9795 8.17731 14.3063 6.95326 15.0954 6.4557L14.2953 5.18687C12.7414 6.16668 12.3411 8.30249 13.224 9.93099L14.5427 9.21603ZM15.6597 10.1751C15.2317 10.0421 14.8167 9.7214 14.5427 9.21603L13.224 9.93099C13.6757 10.7641 14.3957 11.353 15.2146 11.6075L15.6597 10.1751ZM17.6941 15.0284C17.5666 14.7933 17.4838 14.544 17.4429 14.2926L15.9624 14.5332C16.0295 14.9464 16.1657 15.3565 16.3754 15.7433L17.6941 15.0284ZM15.4372 10.8913C15.295 11.6277 15.295 11.6277 15.2951 11.6278C15.2951 11.6278 15.2952 11.6278 15.2952 11.6278C15.2953 11.6278 15.2954 11.6278 15.2956 11.6278C15.2958 11.6279 15.296 11.6279 15.2963 11.628C15.2969 11.6281 15.2977 11.6282 15.2985 11.6284C15.3003 11.6287 15.3026 11.6292 15.3054 11.6297C15.311 11.6308 15.3187 11.6322 15.3283 11.6339C15.3476 11.6374 15.3748 11.6422 15.4085 11.6479C15.4759 11.6592 15.5703 11.6742 15.6817 11.689C15.8999 11.7182 16.2026 11.75 16.5 11.75V10.25C16.2974 10.25 16.0687 10.2274 15.8805 10.2023C15.7887 10.19 15.7111 10.1777 15.6573 10.1687C15.6305 10.1642 15.6097 10.1605 15.5963 10.1581C15.5896 10.1568 15.5847 10.1559 15.5818 10.1554C15.5804 10.1551 15.5795 10.1549 15.579 10.1549C15.5788 10.1548 15.5787 10.1548 15.5788 10.1548C15.5788 10.1548 15.5789 10.1548 15.579 10.1549C15.579 10.1549 15.5791 10.1549 15.5791 10.1549C15.5792 10.1549 15.5792 10.1549 15.5792 10.1549C15.5793 10.1549 15.5793 10.1549 15.4372 10.8913ZM15.25 16.241V19H16.75V16.241H15.25ZM19.1279 11.8488L17.1395 12.9851L17.8837 14.2874L19.8721 13.1512L19.1279 11.8488ZM16.75 16.241C16.75 15.4335 17.1826 14.688 17.8837 14.2874L17.1395 12.9851C15.9711 13.6527 15.25 14.8953 15.25 16.241L16.75 16.241ZM12.7508 16.2043L12.75 18.9998L14.25 19.0002L14.2508 16.2048L12.7508 16.2043ZM18.1645 9.32755L16.4815 10.1693L17.1524 11.5109L18.8355 10.6691L18.1645 9.32755ZM14.2508 16.2048C14.2514 14.217 15.3746 12.4 17.1524 11.5109L16.4815 10.1693C14.1957 11.3125 12.7516 13.6486 12.7508 16.2043L14.2508 16.2048Z" fill="black"/>
</svg>
