<svg width="24" height="24" viewBox="0 0 24 24" fill="none" xmlns="http://www.w3.org/2000/svg">
<path d="M1.14488 11.7082C1.75101 11.5363 4.16077 10.8854 6.5 10.7C8.7 10.5324 10.62 11.9988 12.0004 11.9988C13.38 11.9988 15.3 10.5324 17.5 10.7C19.8393 10.8854 22.2494 11.5364 22.8555 11.7082M1.14488 11.7082C1.85987 13.3174 5.25201 18.9835 12.0004 18.9835C18.7487 18.9835 22.1406 13.3174 22.8555 11.7082M1.14488 11.7082C1.04772 11.4895 1 11.3457 1 11.3013C1 10.6216 4.69718 5.21425 7.4001 5C9.5149 4.83237 10.7185 5.99882 12.0004 5.99882C13.2823 5.99882 14.4855 4.83237 16.6003 5C19.3032 5.21425 23.0004 10.6216 23.0004 11.3013C23.0004 11.3457 22.9527 11.4895 22.8555 11.7082" stroke="black" stroke-width="1.5"/>
</svg>
