<svg width="24" height="24" viewBox="0 0 24 24" fill="none" xmlns="http://www.w3.org/2000/svg">
<path d="M10 6.03174V6.00001M14 6.03169V5.99996M12 11V23M12 23C13.8409 23 15.3332 22.5523 15.3332 22M12 23C10.1591 23 8.6665 22.5523 8.6665 22M6 13L12 14L18 13M5.5 15L3 22.5M18.5 15L21 22.5M14.6668 16C14.6668 16.3682 13.4729 16.6667 12.0002 16.6667C10.5274 16.6667 9.3335 16.3682 9.3335 16M16 18.6666C16 19.2189 14.2091 19.6666 12 19.6666C9.79086 19.6666 8 19.2189 8 18.6666M15 9.75L15.1082 9.4794C15.3448 8.88788 15.9178 8.5 16.5548 8.5C16.8007 8.5 17 8.3007 17 8.05485V6C17 3.23858 14.7614 1 12 1C9.23858 1 7 3.23858 7 6V8.05485C7 8.3007 7.1993 8.5 7.44515 8.5C8.08224 8.5 8.65515 8.88788 8.89176 9.4794L9 9.75C9.30198 10.505 10.0332 11 10.8463 11H13.1537C13.9668 11 14.698 10.505 15 9.75ZM11.9999 8L11.9028 8.24696H12.0899L11.9999 8Z" stroke="black" stroke-width="1.5" stroke-linecap="round" stroke-linejoin="round"/>
</svg>
