<svg width="24" height="24" viewBox="0 0 24 24" fill="none" xmlns="http://www.w3.org/2000/svg">
<g clip-path="url(#clip0_1607_9634)">
<path d="M19.7527 10.9742L19.2224 11.5045L19.2224 11.5045L19.7527 10.9742ZM22.4432 8.28368L22.9736 7.75335L22.9736 7.75335L22.4432 8.28368ZM15.7168 1.55722L15.1864 2.08755L15.1864 2.08755L15.7168 1.55722ZM13.0263 4.24772L13.5566 3.71739L13.5566 3.71739L13.0263 4.24772ZM14.3831 14.998L13.8527 14.4677L13.8527 14.4677L14.3831 14.998ZM9.00195 9.61686L8.47162 9.08653L8.47162 9.08653L9.00195 9.61686ZM14.5254 14.8556C14.8183 15.1485 15.2931 15.1485 15.586 14.8556C15.8789 14.5627 15.8789 14.0878 15.586 13.7949L14.5254 14.8556ZM10.2049 8.41379C9.91201 8.1209 9.43714 8.1209 9.14425 8.41379C8.85135 8.70669 8.85135 9.18156 9.14425 9.47445L10.2049 8.41379ZM3.5561 19.0661L3.89151 19.7369L3.89151 19.7369L3.5561 19.0661ZM1.05579 20.3163L1.3912 20.9871L1.3912 20.9871L1.05579 20.3163ZM1.02957 20.4778L0.499238 21.0082L0.499238 21.0082L1.02957 20.4778ZM3.52216 22.9704L4.05249 22.4401L4.05249 22.4401L3.52216 22.9704ZM3.68375 22.9442L4.35457 23.2796L4.35457 23.2796L3.68375 22.9442ZM4.9339 20.4439L5.60472 20.7793L5.60472 20.7793L4.9339 20.4439ZM4.915 20.3274L5.44533 19.7971L5.44533 19.7971L4.915 20.3274ZM3.67257 19.085L3.14224 19.6153L3.14224 19.6153L3.67257 19.085ZM3.76341 19.176C3.47052 19.4689 3.47052 19.9438 3.76342 20.2367C4.05632 20.5295 4.53119 20.5295 4.82408 20.2366L3.76341 19.176ZM15.1864 2.08755L21.9129 8.81401L22.9736 7.75335L16.2471 1.02689L15.1864 2.08755ZM20.2831 10.4439L13.5566 3.71739L12.4959 4.77805L19.2224 11.5045L20.2831 10.4439ZM21.9129 10.4439C21.4628 10.8939 20.7331 10.8939 20.2831 10.4439L19.2224 11.5045C20.2583 12.5404 21.9377 12.5404 22.9736 11.5045L21.9129 10.4439ZM21.9129 8.81401C22.363 9.26408 22.363 9.99378 21.9129 10.4439L22.9736 11.5045C24.0094 10.4687 24.0094 8.7892 22.9736 7.75335L21.9129 8.81401ZM13.5566 2.08755C14.0067 1.63748 14.7364 1.63748 15.1864 2.08755L16.2471 1.02689C15.2113 -0.00896345 13.5318 -0.00896381 12.4959 1.02689L13.5566 2.08755ZM12.4959 1.02689C11.4601 2.06275 11.4601 3.7422 12.4959 4.77805L13.5566 3.71739C13.1065 3.26732 13.1065 2.53762 13.5566 2.08755L12.4959 1.02689ZM18.5495 9.77092L13.8527 14.4677L14.9134 15.5283L19.6101 10.8316L18.5495 9.77092ZM9.53228 10.1472L14.229 5.45046L13.1684 4.3898L8.47162 9.08653L9.53228 10.1472ZM9.53228 14.4677C8.33922 13.2746 8.33922 11.3403 9.53228 10.1472L8.47162 9.08653C6.69277 10.8654 6.69277 13.7495 8.47162 15.5283L9.53228 14.4677ZM13.8527 14.4677C12.6597 15.6607 10.7253 15.6607 9.53228 14.4677L8.47162 15.5283C10.2505 17.3072 13.1346 17.3072 14.9134 15.5283L13.8527 14.4677ZM15.586 13.7949L10.2049 8.41379L9.14425 9.47445L14.5254 14.8556L15.586 13.7949ZM3.22069 18.3953L0.72038 19.6454L1.3912 20.9871L3.89151 19.7369L3.22069 18.3953ZM0.499238 21.0082L2.99183 23.5008L4.05249 22.4401L1.5599 19.9475L0.499238 21.0082ZM4.35457 23.2796L5.60472 20.7793L4.26308 20.1085L3.01293 22.6088L4.35457 23.2796ZM5.44533 19.7971L4.2029 18.5547L3.14224 19.6153L4.38467 20.8578L5.44533 19.7971ZM5.60472 20.7793C5.76851 20.4517 5.70431 20.0561 5.44533 19.7971L4.38467 20.8578C4.18711 20.6602 4.13813 20.3584 4.26308 20.1085L5.60472 20.7793ZM2.99183 23.5008C3.40251 23.9114 4.09483 23.7991 4.35457 23.2796L3.01293 22.6088C3.21106 22.2125 3.7392 22.1268 4.05249 22.4401L2.99183 23.5008ZM0.72038 19.6454C0.200907 19.9052 0.088563 20.5975 0.499238 21.0082L1.5599 19.9475C1.87318 20.2608 1.78748 20.7889 1.3912 20.9871L0.72038 19.6454ZM3.89151 19.7369C3.64161 19.8619 3.3398 19.8129 3.14224 19.6153L4.2029 18.5547C3.94392 18.2957 3.54828 18.2315 3.22069 18.3953L3.89151 19.7369ZM8.47161 14.4677L3.76341 19.176L4.82408 20.2366L9.53229 15.5283L8.47161 14.4677Z" fill="black"/>
</g>
<defs>
<clipPath id="clip0_1607_9634">
<rect width="24" height="24" fill="white"/>
</clipPath>
</defs>
</svg>
