<svg width="24" height="24" viewBox="0 0 24 24" fill="none" xmlns="http://www.w3.org/2000/svg">
<path d="M5 16.5659L2.81088 15.1898C1.68436 14.4817 1 13.2399 1 11.9038V11.5685C1 9.41567 2.87603 7.75002 5 8.01704M19 16.5659L21.1891 15.1898C22.3156 14.4817 23 13.2399 23 11.9038V11.5685C23 9.41567 21.124 7.75002 19 8.01704M8 9.02279L11.7575 8.07802C11.9167 8.03798 12.0833 8.03798 12.2425 8.07802L16 9.02279M16 14.0515L12.2425 14.9963C12.0833 15.0363 11.9167 15.0363 11.7575 14.9963L8 14.0515M12.2747 19.0013L18.2747 17.2772C18.704 17.1538 19 16.7592 19 16.3101V7.76993C19 7.32088 18.704 6.92624 18.2747 6.80288L12.2747 5.07874C12.0952 5.02714 11.9048 5.02714 11.7253 5.07874L5.72528 6.80288C5.29598 6.92624 5 7.32088 5 7.76993V16.3101C5 16.7592 5.29598 17.1538 5.72528 17.2772L11.7253 19.0013C11.9048 19.0529 12.0952 19.0529 12.2747 19.0013Z" stroke="black" stroke-width="1.5" stroke-linecap="round" stroke-linejoin="round"/>
</svg>
