<svg width="24" height="24" viewBox="0 0 24 24" fill="none" xmlns="http://www.w3.org/2000/svg">
<path d="M12.3334 4.66675L11.5834 4.66675L11.5834 4.66675L12.3334 4.66675ZM8.66669 8.33343L8.66669 7.58343L8.66669 8.33343ZM5 4.66675L4.25 4.66675V4.66675L5 4.66675ZM5 1L5 0.25C4.58579 0.25 4.25 0.585787 4.25 1L5 1ZM12.3334 1L13.0834 1C13.0834 0.801088 13.0044 0.610322 12.8637 0.46967C12.723 0.329018 12.5323 0.25 12.3334 0.25L12.3334 1ZM14.7273 18.2444L14.4248 18.9307L14.4248 18.9307L14.7273 18.2444ZM14.9407 18.3039L15.0369 17.5601L15.0369 17.5601L14.9407 18.3039ZM8.1757 17.7128L7.84032 18.3836L7.84032 18.3836L8.1757 17.7128ZM9.13738 17.6758L9.52326 18.319L9.52326 18.319L9.13738 17.6758ZM10.5144 16.8497L10.1285 16.2065L10.1285 16.2065L10.5144 16.8497ZM11.4322 16.7921L11.7347 16.1058L11.7347 16.1058L11.4322 16.7921ZM15.5229 18.3792L15.4266 19.123L15.4266 19.123L15.5229 18.3792ZM7.36386 17.3069L7.69925 16.6361L7.69924 16.6361L7.36386 17.3069ZM6.83334 10.7793C6.41913 10.7793 6.08334 11.1151 6.08334 11.5293C6.08334 11.9435 6.41913 12.2793 6.83334 12.2793V10.7793ZM10.5 12.2793C10.9142 12.2793 11.25 11.9435 11.25 11.5293C11.25 11.1151 10.9142 10.7793 10.5 10.7793V12.2793ZM5.62501 17.3607C5.62501 17.775 5.96079 18.1107 6.37501 18.1107C6.78922 18.1107 7.12501 17.775 7.12501 17.3607H5.62501ZM10.2084 16.7096C10.2084 17.1238 10.5442 17.4596 10.9584 17.4596C11.3726 17.4596 11.7084 17.1238 11.7084 16.7096H10.2084ZM5.91667 20.25C5.50246 20.25 5.16667 20.5858 5.16667 21C5.16667 21.4142 5.50246 21.75 5.91667 21.75V20.25ZM18.7705 21.75C19.1847 21.75 19.5205 21.4142 19.5205 21C19.5205 20.5858 19.1847 20.25 18.7705 20.25V21.75ZM9.75003 7.8429V15.1357H11.25V7.8429H9.75003ZM7.58334 15.1357V7.8429H6.08334V15.1357H7.58334ZM11.5834 4.66675C11.5834 6.27759 10.2775 7.58343 8.66669 7.58343L8.66669 9.08343C11.106 9.08343 13.0834 7.10602 13.0834 4.66675L11.5834 4.66675ZM8.66669 7.58343C7.05584 7.58343 5.75 6.27759 5.75 4.66675L4.25 4.66675C4.25 7.10602 6.22742 9.08343 8.66669 9.08343L8.66669 7.58343ZM5 1.75L12.3334 1.75L12.3334 0.25L5 0.25L5 1.75ZM11.5834 1L11.5834 4.66675L13.0834 4.66675L13.0834 1L11.5834 1ZM5.75 4.66675V1H4.25V4.66675H5.75ZM18.3351 22.25H6.91667V23.75H18.3351V22.25ZM6.66667 22V18.2013H5.16667V22H6.66667ZM7.02847 17.9777L7.84032 18.3836L8.51109 17.042L7.69925 16.6361L7.02847 17.9777ZM9.52326 18.319L10.9002 17.4928L10.1285 16.2065L8.75151 17.0327L9.52326 18.319ZM11.1297 17.4784L14.4248 18.9307L15.0297 17.5581L11.7347 16.1058L11.1297 17.4784ZM14.8444 19.0477L15.4266 19.123L15.6191 17.6354L15.0369 17.5601L14.8444 19.0477ZM14.4248 18.9307C14.5584 18.9895 14.6997 19.0289 14.8444 19.0477L15.0369 17.5601C15.0344 17.5598 15.032 17.5591 15.0297 17.5581L14.4248 18.9307ZM7.84032 18.3836C8.37547 18.6512 9.01021 18.6268 9.52326 18.319L8.75151 17.0327C8.67822 17.0767 8.58754 17.0802 8.51109 17.042L7.84032 18.3836ZM10.9002 17.4928C10.9698 17.451 11.0554 17.4456 11.1297 17.4784L11.7347 16.1058C11.2147 15.8766 10.6158 15.9142 10.1285 16.2065L10.9002 17.4928ZM6.91667 22.25C6.7786 22.25 6.66667 22.138 6.66667 22H5.16667C5.16667 22.9664 5.95017 23.75 6.91667 23.75V22.25ZM18.2499 22.3351C18.2499 22.2881 18.2881 22.25 18.3351 22.25V23.75C19.1165 23.75 19.7499 23.1165 19.7499 22.3351H18.2499ZM19.7499 22.3351C19.7499 19.953 17.9816 17.9411 15.6191 17.6354L15.4266 19.123C17.0413 19.3319 18.2499 20.707 18.2499 22.3351H19.7499ZM6.66667 18.2013C6.66667 18.0155 6.86225 17.8946 7.02847 17.9777L7.69924 16.6361C6.53567 16.0543 5.16667 16.9004 5.16667 18.2013H6.66667ZM6.83334 12.2793H10.5V10.7793H6.83334V12.2793ZM7.12501 16.4022C7.12501 15.7078 7.75588 15.0417 8.66669 15.0417V13.5417C7.04618 13.5417 5.62501 14.7654 5.62501 16.4022H7.12501ZM8.66669 15.0417C9.5775 15.0417 10.2084 15.7078 10.2084 16.4022H11.7084C11.7084 14.7654 10.2872 13.5417 8.66669 13.5417V15.0417ZM5.62501 16.4022V17.3607H7.12501V16.4022H5.62501ZM10.2084 16.4022V16.7096H11.7084V16.4022H10.2084ZM5.91667 21.75H18.7705V20.25H5.91667V21.75Z" fill="black"/>
</svg>
