<svg width="24" height="24" viewBox="0 0 24 24" fill="none" xmlns="http://www.w3.org/2000/svg">
<g clip-path="url(#clip0_1607_9687)">
<path d="M1.62534 20.0783L2.35745 20.2412L2.35745 20.2412L1.62534 20.0783ZM1.00242 22.8783L1.73453 23.0412L1.73453 23.0412L1.00242 22.8783ZM2.49912 19.8429C2.41234 20.2479 2.67032 20.6466 3.07534 20.7334C3.48036 20.8201 3.87905 20.5622 3.96583 20.1571L2.49912 19.8429ZM6.13497 6.45358L5.40162 6.29645L5.40162 6.29645L6.13497 6.45358ZM5.98095 9.25C5.56674 9.25 5.23095 9.58579 5.23095 10C5.23095 10.4142 5.56674 10.75 5.98095 10.75V9.25ZM18.6333 12.1442L19.3521 11.9301L19.3521 11.9301L18.6333 12.1442ZM19.9572 19.2142C20.0755 19.6111 20.4932 19.8371 20.8901 19.7188C21.2871 19.6005 21.513 19.1828 21.3947 18.7858L19.9572 19.2142ZM4.47927 15.25C4.06506 15.25 3.72927 15.5858 3.72927 16C3.72927 16.4142 4.06506 16.75 4.47927 16.75V15.25ZM0.893242 19.9154L0.270323 22.7154L1.73453 23.0412L2.35745 20.2412L0.893242 19.9154ZM1.10015 23.75H4.87972V22.25H1.10015V23.75ZM5.72983 22.9V20.1H4.22983V22.9H5.72983ZM4.87972 19.25H1.72307V20.75H4.87972V19.25ZM5.72983 20.1C5.72983 19.6298 5.34844 19.25 4.87972 19.25V20.75C4.52159 20.75 4.22983 20.4598 4.22983 20.1H5.72983ZM4.87972 23.75C5.34844 23.75 5.72983 23.3702 5.72983 22.9H4.22983C4.22983 22.5402 4.52159 22.25 4.87972 22.25V23.75ZM0.270323 22.7154C0.151985 23.2474 0.557289 23.75 1.10015 23.75V22.25C1.51492 22.25 1.82508 22.6342 1.73453 23.0412L0.270323 22.7154ZM2.35745 20.2412C2.29118 20.539 2.02705 20.75 1.72307 20.75V19.25C1.32525 19.25 0.979865 19.5261 0.893242 19.9154L2.35745 20.2412ZM22.25 21C22.25 21.6896 21.6901 22.25 20.9978 22.25V23.75C22.517 23.75 23.75 22.5196 23.75 21H22.25ZM20.9978 22.25C20.3054 22.25 19.7455 21.6896 19.7455 21H18.2455C18.2455 22.5196 19.4785 23.75 20.9978 23.75V22.25ZM19.7455 21C19.7455 20.3104 20.3054 19.75 20.9978 19.75V18.25C19.4785 18.25 18.2455 19.4804 18.2455 21H19.7455ZM20.9978 19.75C21.6901 19.75 22.25 20.3104 22.25 21H23.75C23.75 19.4804 22.517 18.25 20.9978 18.25V19.75ZM3.96583 20.1571L6.86833 6.61071L5.40162 6.29645L2.49912 19.8429L3.96583 20.1571ZM11.0297 3.25H11.9877V1.75H11.0297V3.25ZM6.86833 6.61071C7.2882 4.65113 9.02203 3.25 11.0297 3.25V1.75C8.31583 1.75 5.96991 3.64416 5.40162 6.29645L6.86833 6.61071ZM5.98095 10.75H15.7547V9.25H5.98095V10.75ZM17.9145 12.3584L19.9572 19.2142L21.3947 18.7858L19.3521 11.9301L17.9145 12.3584ZM15.7547 10.75C16.7522 10.75 17.6303 11.4047 17.9145 12.3584L19.3521 11.9301C18.8782 10.3396 17.4147 9.25 15.7547 9.25V10.75ZM4.47927 16.75H19.4961V15.25H4.47927V16.75ZM13.4894 1.75H21.4983V0.25H13.4894V1.75ZM21.4983 3.25H13.4894V4.75H21.4983V3.25ZM13.4894 3.25C13.0734 3.25 12.7377 2.91343 12.7377 2.5H11.2377C11.2377 3.74343 12.2466 4.75 13.4894 4.75V3.25ZM22.25 2.5C22.25 2.91342 21.9143 3.25 21.4983 3.25V4.75C22.7411 4.75 23.75 3.74343 23.75 2.5H22.25ZM21.4983 1.75C21.9143 1.75 22.25 2.08658 22.25 2.5H23.75C23.75 1.25657 22.7411 0.25 21.4983 0.25V1.75ZM13.4894 0.25C12.2466 0.25 11.2377 1.25657 11.2377 2.5H12.7377C12.7377 2.08657 13.0734 1.75 13.4894 1.75V0.25Z" fill="black"/>
</g>
<defs>
<clipPath id="clip0_1607_9687">
<rect width="24" height="24" fill="white"/>
</clipPath>
</defs>
</svg>
