<svg width="24" height="24" viewBox="0 0 24 24" fill="none" xmlns="http://www.w3.org/2000/svg">
<g clip-path="url(#clip0_1607_8388)">
<path d="M21.4915 22.9881C13.8102 23.2722 1.44773 18.5407 1.00039 2.70008C0.986128 2.19499 1.36294 1.75941 1.86392 1.69468L7.17494 1.00837C7.69535 0.941123 8.17985 1.28577 8.28718 1.79956L9.23258 6.32532C9.31361 6.71324 9.15919 7.11257 8.83828 7.34497L7.13138 8.5811C7.09347 8.60855 7.07987 8.65938 7.09822 8.70243C9.24269 13.7316 12.1227 15.9242 15.6257 17.1441C15.672 17.1602 15.7232 17.1404 15.7466 17.0974L16.8069 15.1534C17.0159 14.7704 17.448 14.5659 17.8766 14.6474L22.1828 15.4661C22.6967 15.5638 23.0497 16.0396 22.9943 16.5599L22.4028 22.1147C22.3519 22.5924 21.9714 22.9703 21.4915 22.9881Z" stroke="black" stroke-width="1.5" stroke-linecap="round" stroke-linejoin="round"/>
</g>
<defs>
<clipPath id="clip0_1607_8388">
<rect width="24" height="24" fill="white"/>
</clipPath>
</defs>
</svg>
