<svg width="24" height="24" viewBox="0 0 24 24" fill="none" xmlns="http://www.w3.org/2000/svg">
<g clip-path="url(#clip0_1607_6558)">
<path fill-rule="evenodd" clip-rule="evenodd" d="M5.26006 2.32733C5.44958 2.11885 5.71826 2 6 2H18C18.2817 2 18.5504 2.11885 18.7399 2.32733L23.7399 7.82733C24.0728 8.19349 24.0878 8.74805 23.7752 9.13167L12.7752 22.6317C12.5853 22.8647 12.3006 23 12 23C11.6994 23 11.4147 22.8647 11.2248 22.6317L0.224767 9.13167C-0.0878178 8.74805 -0.0728117 8.19349 0.260062 7.82733L5.26006 2.32733ZM5.56751 4.96235L6.36352 7.5H3.26055L5.56751 4.96235ZM3.10475 9.5H6.99296L9.46442 17.305L3.10475 9.5ZM14.5356 17.305L20.8953 9.5H17.007L14.5356 17.305ZM17.6365 7.5H20.7395L18.4325 4.96235L17.6365 7.5ZM16.6383 4H14.0438L15.8922 6.37831L16.6383 4ZM14.231 7.5L12 4.62954L9.769 7.5H14.231ZM8.10776 6.37831L9.95625 4H7.36173L8.10776 6.37831ZM9.09083 9.5H14.9092L12 18.6874L9.09083 9.5Z" fill="black"/>
</g>
<defs>
<clipPath id="clip0_1607_6558">
<rect width="24" height="24" fill="white"/>
</clipPath>
</defs>
</svg>
