<svg width="24" height="24" viewBox="0 0 24 24" fill="none" xmlns="http://www.w3.org/2000/svg">
<g clip-path="url(#clip0_1607_6567)">
<path d="M12 0.25C12.4142 0.25 12.75 0.585786 12.75 1V2.43951L14.0315 1.41434C14.3549 1.15559 14.8269 1.20804 15.0857 1.53148C15.3444 1.85493 15.292 2.3269 14.9685 2.58566L12.75 4.36043V8.31066L14.0783 8.86088L16.8717 6.06754L16.5579 3.24396C16.5122 2.83228 16.8088 2.46147 17.2205 2.41572C17.6322 2.36998 18.003 2.66662 18.0488 3.0783L18.23 4.70924L19.2479 3.69135C19.5408 3.39846 20.0156 3.39846 20.3085 3.69135C20.6014 3.98424 20.6014 4.45912 20.3085 4.75201L19.2904 5.7701L20.9217 5.95137C21.3334 5.99711 21.63 6.36793 21.5843 6.77961C21.5385 7.19129 21.1677 7.48794 20.756 7.44219L17.9321 7.12839L15.1391 9.92148L15.6893 11.25L19.6396 11.25L21.4143 9.03148C21.6731 8.70803 22.1451 8.65559 22.4685 8.91435C22.792 9.1731 22.8444 9.64507 22.5857 9.96852L21.5605 11.25H23C23.4142 11.25 23.75 11.5858 23.75 12C23.75 12.4142 23.4142 12.75 23 12.75H21.5605L22.5857 14.0315C22.8444 14.3549 22.792 14.8269 22.4685 15.0857C22.1451 15.3444 21.6731 15.292 21.4143 14.9685L19.6396 12.75L15.6893 12.75L15.1391 14.0785L17.9321 16.8716L20.756 16.5578C21.1677 16.5121 21.5385 16.8087 21.5843 17.2204C21.63 17.6321 21.3334 18.0029 20.9217 18.0486L19.2904 18.2299L20.3085 19.248C20.6014 19.5409 20.6014 20.0158 20.3085 20.3087C20.0156 20.6015 19.5408 20.6015 19.2479 20.3087L18.23 19.2908L18.0488 20.9217C18.003 21.3334 17.6322 21.63 17.2205 21.5843C16.8088 21.5385 16.5122 21.1677 16.5579 20.756L16.8717 17.9325L14.0783 15.1391L12.75 15.6893L12.75 19.6396L14.9685 21.4143C15.292 21.6731 15.3444 22.1451 15.0857 22.4685C14.8269 22.792 14.3549 22.8444 14.0315 22.5857L12.75 21.5605V23C12.75 23.4142 12.4142 23.75 12 23.75C11.5858 23.75 11.25 23.4142 11.25 23V21.5605L9.96852 22.5857C9.64507 22.8444 9.1731 22.792 8.91434 22.4685C8.65559 22.1451 8.70804 21.6731 9.03148 21.4143L11.25 19.6396L11.25 15.6893L9.92166 15.1391L7.12832 17.9325L7.44207 20.756C7.48781 21.1677 7.19116 21.5385 6.77948 21.5843C6.3678 21.63 5.99699 21.3334 5.95124 20.9217L5.77002 19.2908L4.75213 20.3087C4.45924 20.6015 3.98436 20.6015 3.69147 20.3087C3.39858 20.0158 3.39858 19.5409 3.69147 19.248L4.70956 18.2299L3.0783 18.0486C2.66662 18.0029 2.36997 17.6321 2.41572 17.2204C2.46147 16.8087 2.83228 16.5121 3.24396 16.5578L6.06786 16.8716L8.86095 14.0785L8.31066 12.75L4.36045 12.75L2.58565 14.9685C2.3269 15.292 1.85493 15.3444 1.53148 15.0857C1.20803 14.8269 1.15559 14.3549 1.41435 14.0315L2.43952 12.75H1C0.585786 12.75 0.25 12.4142 0.25 12C0.25 11.5858 0.585787 11.25 1 11.25H2.43951L1.41434 9.96852C1.15559 9.64507 1.20804 9.1731 1.53148 8.91434C1.85493 8.65559 2.3269 8.70804 2.58566 9.03148L4.36043 11.25L8.31066 11.25L8.86095 9.92149L6.06787 7.12841L3.24396 7.44219C2.83228 7.48793 2.46147 7.19129 2.41572 6.77961C2.36998 6.36793 2.66662 5.99711 3.0783 5.95136L4.70957 5.7701L3.69147 4.75201C3.39858 4.45912 3.39858 3.98424 3.69147 3.69135C3.98436 3.39846 4.45924 3.39846 4.75213 3.69135L5.77001 4.70923L5.95124 3.0783C5.99699 2.66662 6.36781 2.36997 6.77949 2.41572C7.19117 2.46147 7.48781 2.83228 7.44207 3.24396L7.12831 6.06753L9.92166 8.86088L11.25 8.31066V4.36045L9.03148 2.58565C8.70803 2.3269 8.65559 1.85493 8.91435 1.53148C9.1731 1.20803 9.64507 1.15559 9.96852 1.41435L11.25 2.43952V1C11.25 0.585786 11.5858 0.25 12 0.25Z" fill="black"/>
</g>
<defs>
<clipPath id="clip0_1607_6567">
<rect width="24" height="24" fill="white"/>
</clipPath>
</defs>
</svg>
