<svg width="24" height="24" viewBox="0 0 24 24" fill="none" xmlns="http://www.w3.org/2000/svg">
<path d="M12.3883 2.04228L14.1614 7.83145C14.4067 8.63213 15.1432 9.18444 15.9839 9.18444H21.8408C22.2167 9.18444 22.4096 9.68525 22.0853 9.93522L17.2488 13.6629C16.6144 14.1518 16.3524 14.9846 16.5864 15.7488L18.41 21.7025C18.5358 22.1132 18.0738 22.3895 17.7772 22.161L13.1602 18.6025C12.4757 18.0749 11.5243 18.0749 10.8398 18.6025L6.22277 22.161C5.92622 22.3895 5.46419 22.1132 5.59 21.7025L7.41356 15.7488C7.64763 14.9846 7.38563 14.1518 6.75125 13.6629L1.91471 9.93522C1.59038 9.68525 1.78326 9.18444 2.15922 9.18444H8.01606C8.85678 9.18444 9.59332 8.63213 9.83856 7.83145L11.6117 2.04228C11.7311 1.65258 12.2689 1.65257 12.3883 2.04228Z" fill="black" stroke="black" stroke-width="1.5" stroke-linejoin="round"/>
</svg>
