<svg width="24" height="24" viewBox="0 0 24 24" fill="none" xmlns="http://www.w3.org/2000/svg">
<g clip-path="url(#clip0_1607_6576)">
<path d="M11.234 23.234C11.234 23.6571 11.577 24 12 24C12.423 24 12.766 23.6571 12.766 23.234V20.1348C14.4471 19.9785 15.9805 19.3128 17.2103 18.2936L19.4021 20.4854C19.7012 20.7845 20.1862 20.7845 20.4853 20.4854C20.7844 20.1863 20.7844 19.7013 20.4853 19.4022L18.2935 17.2104C19.3128 15.9806 19.9785 14.4472 20.1348 12.766H23.234C23.6571 12.766 24 12.423 24 12C24 11.577 23.6571 11.234 23.234 11.234H20.1348C19.9785 9.55282 19.3128 8.01941 18.2935 6.78964L20.4853 4.59785C20.7844 4.29872 20.7844 3.81374 20.4853 3.51462C20.1862 3.21549 19.7012 3.21549 19.4021 3.51462L17.2103 5.70642C15.9805 4.6872 14.4471 4.02153 12.766 3.86522V0.765957C12.766 0.342931 12.423 0 12 0C11.577 0 11.234 0.342931 11.234 0.765958V3.86522C9.55282 4.02153 8.01941 4.68724 6.78964 5.70651L4.59795 3.51482C4.29883 3.21569 3.81385 3.21569 3.51473 3.51482C3.2156 3.81394 3.2156 4.29892 3.51473 4.59805L5.70642 6.78974C4.6872 8.01949 4.02153 9.55287 3.86522 11.234H0.765957C0.342931 11.234 0 11.577 0 12C0 12.423 0.342931 12.766 0.765957 12.766H3.86522C4.02153 14.4471 4.6872 15.9805 5.70642 17.2103L3.51473 19.402C3.2156 19.7011 3.2156 20.1861 3.51473 20.4852C3.81385 20.7843 4.29883 20.7843 4.59795 20.4852L6.78964 18.2935C8.01941 19.3128 9.55282 19.9785 11.234 20.1348V23.234Z" fill="black"/>
</g>
<defs>
<clipPath id="clip0_1607_6576">
<rect width="24" height="24" fill="white"/>
</clipPath>
</defs>
</svg>
