<svg width="24" height="24" viewBox="0 0 24 24" fill="none" xmlns="http://www.w3.org/2000/svg">
<path d="M21 8.81548C21 10.542 19.5347 11.9417 17.7272 11.9417H5.86359C4.28205 11.9417 2.99995 10.717 2.99995 9.20626C2.99995 7.69553 4.28205 6.47084 5.86359 6.47084H6.20949C6.25259 6.47084 6.28826 6.43863 6.29163 6.39759C6.53926 3.37723 9.18352 1 12.409 1C15.3863 1 17.8684 3.02542 18.4275 5.71248C18.4339 5.74314 18.4587 5.76751 18.4905 5.77477C19.8399 6.0827 20.8647 7.18893 20.9876 8.54179C20.9958 8.63198 21 8.72327 21 8.81548Z" fill="black"/>
<path d="M9.10636 15.385L10.493 13.4336H13.0115L12.9516 14.0756C12.9486 14.107 12.9693 14.1345 12.9959 14.1345H15.553C15.9328 14.1345 16.1389 14.6636 15.8935 15.0089L12.5533 19.7094C12.2688 20.1099 11.7208 19.829 11.7694 19.3076L12.0484 16.3183C12.0513 16.2868 12.0306 16.2593 12.004 16.2593H9.44691C9.06712 16.2593 8.86104 15.7302 9.10636 15.385Z" fill="black"/>
<path d="M7.89944 18.2693C8.25106 18.488 8.35743 18.9497 8.137 19.3005L5.63698 23.2793C5.41656 23.6301 4.95282 23.7372 4.60119 23.5184C4.24956 23.2997 4.14319 22.838 4.36362 22.4872L6.86364 18.5084C7.08406 18.1576 7.54781 18.0505 7.89944 18.2693Z" fill="black"/>
<path d="M17.137 19.3007C17.3574 18.9499 17.2511 18.4882 16.8994 18.2695C16.5478 18.0507 16.0841 18.1578 15.8636 18.5086L13.3636 22.4871C13.1432 22.8379 13.2496 23.2996 13.6012 23.5184C13.9528 23.7372 14.4166 23.6301 14.637 23.2793L17.137 19.3007Z" fill="black"/>
<path d="M4.8994 14.2904C5.25104 14.5092 5.35742 14.9709 5.13701 15.3217L2.63701 19.3008C2.4166 19.6516 1.95286 19.7586 1.60122 19.5399C1.24959 19.3212 1.14321 18.8595 1.36362 18.5086L3.86362 14.5296C4.08403 14.1788 4.54777 14.0717 4.8994 14.2904Z" fill="black"/>
<path d="M22.637 15.3215C22.8574 14.9707 22.751 14.509 22.3994 14.2902C22.0478 14.0715 21.584 14.1786 21.3636 14.5294L18.8636 18.5084C18.6432 18.8592 18.7496 19.3209 19.1012 19.5396C19.4529 19.7584 19.9166 19.6513 20.137 19.3005L22.637 15.3215Z" fill="black"/>
</svg>
