<svg width="24" height="24" viewBox="0 0 24 24" fill="none" xmlns="http://www.w3.org/2000/svg">
<path d="M15.7273 12C17.5347 12 19 10.5929 19 8.85714C19 7.37377 17.9299 6.13043 16.4905 5.80022C16.4587 5.79292 16.434 5.76842 16.4276 5.7376C15.8684 3.03621 13.3864 1 10.4091 1C7.18357 1 4.5393 3.3899 4.29167 6.42636C4.28831 6.46762 4.25264 6.5 4.20954 6.5H3.86364C2.28209 6.5 1 7.73122 1 9.25C1 10.7688 2.28209 12 3.86364 12H15.7273Z" fill="black"/>
<path d="M21 12.25C20.5858 12.25 20.25 12.5858 20.25 13C20.25 13.4142 20.5858 13.75 21 13.75H22C22.1381 13.75 22.25 13.8619 22.25 14C22.25 14.1381 22.1381 14.25 22 14.25H11C10.5858 14.25 10.25 14.5858 10.25 15C10.25 15.4142 10.5858 15.75 11 15.75H22C22.9665 15.75 23.75 14.9665 23.75 14C23.75 13.0335 22.9665 12.25 22 12.25H21Z" fill="black"/>
<path d="M20.25 23C20.25 23.4142 20.5858 23.75 21 23.75H22C22.9665 23.75 23.75 22.9665 23.75 22C23.75 21.0335 22.9665 20.25 22 20.25H11C10.5858 20.25 10.25 20.5858 10.25 21C10.25 21.4142 10.5858 21.75 11 21.75H22C22.1381 21.75 22.25 21.8619 22.25 22C22.25 22.1381 22.1381 22.25 22 22.25H21C20.5858 22.25 20.25 22.5858 20.25 23Z" fill="black"/>
<path d="M6 17.25C5.58579 17.25 5.25 17.5858 5.25 18C5.25 18.4142 5.58579 18.75 6 18.75H15.5C15.9142 18.75 16.25 18.4142 16.25 18C16.25 17.5858 15.9142 17.25 15.5 17.25H6Z" fill="black"/>
</svg>
