<svg width="24" height="24" viewBox="0 0 24 24" fill="none" xmlns="http://www.w3.org/2000/svg">
<g clip-path="url(#clip0_1607_8165)">
<path d="M15.4188 16.9875C15.6936 17.2975 16.1676 17.326 16.4776 17.0512C16.7875 16.7765 16.8161 16.3025 16.5413 15.9925L15.4188 16.9875ZM14.0397 8.2685C14.4539 8.26906 14.7901 7.93373 14.7907 7.51952C14.7912 7.1053 14.4559 6.76906 14.0417 6.7685L14.0397 8.2685ZM8.0199 7.51035L8.02092 6.76035C7.64072 6.75983 7.32028 7.04389 7.27519 7.4214L8.0199 7.51035ZM6.56117 13.3997C6.51204 13.811 6.80564 14.1842 7.21693 14.2333C7.62822 14.2825 8.00146 13.9889 8.05058 13.5776L6.56117 13.3997ZM3.20728 19.7944C7.51197 24.6504 14.9382 25.0974 19.7943 20.7927L18.7993 19.6703C14.5631 23.4254 8.0849 23.0355 4.32975 18.7994L3.20728 19.7944ZM19.7943 20.7927C24.6503 16.488 25.0973 9.06179 20.7926 4.20573L19.6701 5.20075C23.4253 9.43688 23.0354 15.9151 18.7993 19.6703L19.7943 20.7927ZM20.7926 4.20573C16.4879 -0.650322 9.06166 -1.09729 4.20561 3.2074L5.20063 4.32987C9.43676 0.574713 15.915 0.964621 19.6701 5.20075L20.7926 4.20573ZM4.20561 3.2074C-0.650444 7.51209 -1.09741 14.9383 3.20728 19.7944L4.32975 18.7994C0.57459 14.5632 0.964499 8.08502 5.20063 4.32987L4.20561 3.2074ZM14.0417 6.7685L8.02092 6.76035L8.01889 8.26035L14.0397 8.2685L14.0417 6.7685ZM7.27519 7.4214L6.56117 13.3997L8.05058 13.5776L8.76461 7.59929L7.27519 7.4214ZM16.5413 15.9925L8.58113 7.01283L7.45867 8.00786L15.4188 16.9875L16.5413 15.9925Z" fill="black"/>
</g>
<defs>
<clipPath id="clip0_1607_8165">
<rect width="24" height="24" fill="white"/>
</clipPath>
</defs>
</svg>
