<svg width="24" height="24" viewBox="0 0 24 24" fill="none" xmlns="http://www.w3.org/2000/svg">
<path d="M3 2C3 1.44772 3.44772 1 4 1H20C20.5523 1 21 1.44772 21 2V22C21 22.5523 20.5523 23 20 23H4C3.44772 23 3 22.5523 3 22V2Z" stroke="black" stroke-width="1.5"/>
<path d="M5 5C5 4.44772 5.44772 4 6 4H18C18.5523 4 19 4.44772 19 5V6C19 6.55228 18.5523 7 18 7H6C5.44772 7 5 6.55228 5 6V5Z" stroke="black" stroke-width="1.5"/>
<path d="M5 12C5 11.4477 5.44772 11 6 11H7C7.55228 11 8 11.4477 8 12V13C8 13.5523 7.55228 14 7 14H6C5.44772 14 5 13.5523 5 13V12Z" stroke="black" stroke-width="1.5"/>
<path d="M5 18C5 17.4477 5.44772 17 6 17H7C7.55228 17 8 17.4477 8 18V19C8 19.5523 7.55228 20 7 20H6C5.44772 20 5 19.5523 5 19V18Z" stroke="black" stroke-width="1.5"/>
<path d="M10.5 12C10.5 11.4477 10.9477 11 11.5 11H12.5C13.0523 11 13.5 11.4477 13.5 12V13C13.5 13.5523 13.0523 14 12.5 14H11.5C10.9477 14 10.5 13.5523 10.5 13V12Z" stroke="black" stroke-width="1.5"/>
<path d="M10.5 18C10.5 17.4477 10.9477 17 11.5 17H12.5C13.0523 17 13.5 17.4477 13.5 18V19C13.5 19.5523 13.0523 20 12.5 20H11.5C10.9477 20 10.5 19.5523 10.5 19V18Z" stroke="black" stroke-width="1.5"/>
<path d="M16 18C16 17.4477 16.4477 17 17 17H18C18.5523 17 19 17.4477 19 18V19C19 19.5523 18.5523 20 18 20H17C16.4477 20 16 19.5523 16 19V18Z" stroke="black" stroke-width="1.5"/>
<path d="M16 12C16 11.4477 16.4477 11 17 11H18C18.5523 11 19 11.4477 19 12V13C19 13.5523 18.5523 14 18 14H17C16.4477 14 16 13.5523 16 13V12Z" stroke="black" stroke-width="1.5"/>
</svg>
