<svg width="24" height="24" viewBox="0 0 24 24" fill="none" xmlns="http://www.w3.org/2000/svg">
<g clip-path="url(#clip0_1607_8080)">
<path d="M1.65842 2.58279L0.911504 2.51489L1.65842 2.58279ZM2.58279 1.65842L2.51489 0.911504L2.58279 1.65842ZM1.29905 10.5937L0.768719 11.124L0.768719 11.124L1.29905 10.5937ZM1.0042 9.77928L0.257278 9.71138L1.0042 9.77928ZM14.8502 22.701L15.3806 23.2313L15.3806 23.2313L14.8502 22.701ZM22.701 13.4063L23.2313 12.876L22.701 13.4063ZM22.701 14.8502L22.1706 14.3199L22.1706 14.3199L22.701 14.8502ZM10.5937 1.29905L10.0633 1.82938L10.5937 1.29905ZM9.77928 1.0042L9.71138 0.257278L9.77928 1.0042ZM12.6232 20.8571C12.3303 20.5642 11.8554 20.5642 11.5625 20.8571C11.2696 21.15 11.2696 21.6249 11.5625 21.9178L12.6232 20.8571ZM3.0823 13.4376C3.37519 13.7305 3.85006 13.7305 4.14296 13.4376C4.43585 13.1447 4.43585 12.6698 4.14296 12.3769L3.0823 13.4376ZM9.04684 15.5C9.04684 15.9142 9.38262 16.25 9.79684 16.25C10.2111 16.25 10.5468 15.9142 10.5468 15.5H9.04684ZM7.93805 16.8596L8.04497 16.1172L8.04497 16.1172L7.93805 16.8596ZM6.75 18.5C6.75 18.0858 6.41421 17.75 6 17.75C5.58579 17.75 5.25 18.0858 5.25 18.5H6.75ZM8.75 13C8.75 12.5858 8.41421 12.25 8 12.25C7.58579 12.25 7.25 12.5858 7.25 13L8.75 13ZM7.25 21C7.25 21.4142 7.58579 21.75 8 21.75C8.41421 21.75 8.75 21.4142 8.75 21L7.25 21ZM10.0633 1.82938L22.1706 13.9367L23.2313 12.876L11.124 0.768719L10.0633 1.82938ZM22.1706 14.3199L14.3199 22.1706L15.3806 23.2313L23.2313 15.3806L22.1706 14.3199ZM1.75112 9.84718L2.40534 2.6507L0.911504 2.51489L0.257278 9.71138L1.75112 9.84718ZM2.6507 2.40534L9.84718 1.75112L9.71138 0.257278L2.51489 0.911504L2.6507 2.40534ZM2.40534 2.6507C2.41719 2.52041 2.52041 2.41719 2.6507 2.40534L2.51489 0.911504C1.66348 0.988905 0.988905 1.66348 0.911504 2.51489L2.40534 2.6507ZM1.82938 10.0633C1.77251 10.0065 1.74384 9.92728 1.75112 9.84718L0.257278 9.71138C0.209693 10.2348 0.397066 10.7524 0.768719 11.124L1.82938 10.0633ZM14.3199 22.1706C14.2141 22.2765 14.0425 22.2765 13.9367 22.1706L12.876 23.2313C13.5676 23.9229 14.689 23.9229 15.3806 23.2313L14.3199 22.1706ZM22.1706 13.9367C22.2765 14.0425 22.2765 14.2141 22.1706 14.3199L23.2313 15.3806C23.9229 14.689 23.9229 13.5676 23.2313 12.876L22.1706 13.9367ZM11.124 0.768719C10.7524 0.397066 10.2348 0.209693 9.71138 0.257278L9.84718 1.75112C9.92728 1.74384 10.0065 1.77251 10.0633 1.82938L11.124 0.768719ZM7.25004 6.00004C7.25004 6.69039 6.69039 7.25004 6.00004 7.25004V8.75004C7.51882 8.75004 8.75004 7.51882 8.75004 6.00004H7.25004ZM6.00004 7.25004C5.30968 7.25004 4.75004 6.69039 4.75004 6.00004H3.25004C3.25004 7.51882 4.48125 8.75004 6.00004 8.75004V7.25004ZM4.75004 6.00004C4.75004 5.30968 5.30968 4.75004 6.00004 4.75004V3.25004C4.48125 3.25004 3.25004 4.48125 3.25004 6.00004H4.75004ZM6.00004 4.75004C6.69039 4.75004 7.25004 5.30968 7.25004 6.00004H8.75004C8.75004 4.48125 7.51882 3.25004 6.00004 3.25004V4.75004ZM13.9367 22.1706L12.6232 20.8571L11.5625 21.9178L12.876 23.2313L13.9367 22.1706ZM4.14296 12.3769L1.82938 10.0633L0.768719 11.124L3.0823 13.4376L4.14296 12.3769ZM13.25 17C13.25 19.8995 10.8995 22.25 8 22.25V23.75C11.7279 23.75 14.75 20.7279 14.75 17H13.25ZM8 22.25C5.10051 22.25 2.75 19.8995 2.75 17H1.25C1.25 20.7279 4.27208 23.75 8 23.75V22.25ZM2.75 17C2.75 14.1005 5.10051 11.75 8 11.75V10.25C4.27208 10.25 1.25 13.2721 1.25 17H2.75ZM8 11.75C10.8995 11.75 13.25 14.1005 13.25 17H14.75C14.75 13.2721 11.7279 10.25 8 10.25V11.75ZM10.5468 15.5C10.5468 14.2398 9.37558 13.25 7.93805 13.25V14.75C8.75307 14.75 9.04684 15.2602 9.04684 15.5H10.5468ZM7.93805 13.25C6.56464 13.25 5.35611 14.0989 5.35611 15.3616H6.85611C6.85611 15.226 7.0589 14.75 7.93805 14.75V13.25ZM5.35611 15.3616C5.35611 15.9106 5.56356 16.4446 6.02344 16.8586C6.46382 17.2551 7.08129 17.4939 7.83113 17.6019L8.04497 16.1172C7.46998 16.0344 7.17149 15.8739 7.0271 15.7439C6.90222 15.6314 6.85611 15.5118 6.85611 15.3616H5.35611ZM7.83113 17.6019C8.40028 17.6839 8.77205 17.8028 8.9905 17.9533C9.15232 18.0648 9.25 18.2002 9.25 18.5H10.75C10.75 17.7105 10.4127 17.1115 9.84147 16.7181C9.32692 16.3636 8.66771 16.2069 8.04497 16.1172L7.83113 17.6019ZM9.25 18.5C9.25 18.6299 9.18237 18.7978 8.94597 18.9632C8.70649 19.1307 8.34524 19.25 7.93805 19.25V20.75C8.61586 20.75 9.28559 20.5562 9.80584 20.1923C10.3292 19.8262 10.75 19.2441 10.75 18.5H9.25ZM7.93805 19.25C7.48308 19.25 7.16965 19.1529 6.99187 19.0286C6.85118 18.9302 6.75 18.7888 6.75 18.5H5.25C5.25 19.26 5.57534 19.8685 6.13242 20.258C6.65241 20.6215 7.308 20.75 7.93805 20.75V19.25ZM7.25 13L7.25 21L8.75 21L8.75 13L7.25 13Z" fill="black"/>
</g>
<defs>
<clipPath id="clip0_1607_8080">
<rect width="24" height="24" fill="white"/>
</clipPath>
</defs>
</svg>
