<svg width="24" height="24" viewBox="0 0 24 24" fill="none" xmlns="http://www.w3.org/2000/svg">
<g clip-path="url(#clip0_1607_8071)">
<path d="M9.77928 1.0042C10.081 0.976764 10.3794 1.08479 10.5937 1.29905L22.701 13.4063C23.0997 13.8051 23.0997 14.4515 22.701 14.8502L14.8502 22.701C14.4515 23.0997 13.8051 23.0997 13.4063 22.701L1.29905 10.5937C1.08479 10.3794 0.976764 10.081 1.0042 9.77928L1.65842 2.58279C1.70305 2.09195 2.09195 1.70305 2.58279 1.65842L9.77928 1.0042Z" stroke="black" stroke-width="1.5" stroke-linecap="round"/>
<path d="M8.00004 6.00004C8.00004 7.10461 7.10461 8.00004 6.00004 8.00004C4.89547 8.00004 4.00004 7.10461 4.00004 6.00004C4.00004 4.89547 4.89547 4.00004 6.00004 4.00004C7.10461 4.00004 8.00004 4.89547 8.00004 6.00004Z" stroke="black" stroke-width="1.5" stroke-linecap="round"/>
</g>
<defs>
<clipPath id="clip0_1607_8071">
<rect width="24" height="24" fill="white"/>
</clipPath>
</defs>
</svg>
