<svg width="24" height="24" viewBox="0 0 24 24" fill="none" xmlns="http://www.w3.org/2000/svg">
<path fill-rule="evenodd" clip-rule="evenodd" d="M1.12167 12.9739C0.483437 10.4449 2.43673 8 5.09554 8H18.9045C21.5633 8 23.5166 10.4449 22.8783 12.9739L22.4649 14.6122C22.0369 16.3084 20.4834 17.5 18.7002 17.5H17.2419C15.6202 17.5 14.1698 16.5113 13.6058 15.0215L12.8406 13H11.1594L10.3942 15.0215C9.83023 16.5113 8.37979 17.5 6.75812 17.5H5.29981C3.51655 17.5 1.96314 16.3084 1.53508 14.6122L1.12167 12.9739ZM11.4999 11.5H12.5001C12.4956 10.7724 12.728 10.0767 13.1357 9.5H10.8643C11.272 10.0767 11.5044 10.7724 11.4999 11.5Z" fill="black"/>
</svg>
