<svg width="24" height="24" viewBox="0 0 24 24" fill="none" xmlns="http://www.w3.org/2000/svg">
<path fill-rule="evenodd" clip-rule="evenodd" d="M5.15238 1H18.8476C18.9318 1 19 1.06822 19 1.15238V10C19 12.8898 17.2489 15.3705 14.75 16.4392L14.75 22C14.75 22.9665 13.9665 23.75 13 23.75H11C10.0335 23.75 9.25 22.9665 9.25 22L9.25 16.4392C6.75106 15.3705 5 12.8898 5 10V1.15238C5 1.06822 5.06822 1 5.15238 1ZM10.75 20.75V22C10.75 22.1381 10.8619 22.25 11 22.25H13C13.1381 22.25 13.25 22.1381 13.25 22V20.75H10.75ZM13.25 19.25H10.75L10.75 14C10.75 13.8619 10.8619 13.75 11 13.75H13C13.1381 13.75 13.25 13.8619 13.25 14L13.25 19.25ZM8 5C8 4.44772 8.44772 4 9 4H15C15.5523 4 16 4.44772 16 5V6C16 6.55228 15.5523 7 15 7H9C8.44772 7 8 6.55228 8 6V5ZM9.75 10C9.75 9.58579 9.41421 9.25 9 9.25C8.58579 9.25 8.25 9.58579 8.25 10V10.0317C8.25 10.4459 8.58579 10.7817 9 10.7817C9.41421 10.7817 9.75 10.4459 9.75 10.0317V10ZM12 9.25C12.4142 9.25 12.75 9.58579 12.75 10V10.0317C12.75 10.4459 12.4142 10.7817 12 10.7817C11.5858 10.7817 11.25 10.4459 11.25 10.0317V10C11.25 9.58579 11.5858 9.25 12 9.25ZM15.75 10C15.75 9.58579 15.4142 9.25 15 9.25C14.5858 9.25 14.25 9.58579 14.25 10V10.0317C14.25 10.4459 14.5858 10.7817 15 10.7817C15.4142 10.7817 15.75 10.4459 15.75 10.0317V10Z" fill="black"/>
</svg>
