<svg width="24" height="24" viewBox="0 0 24 24" fill="none" xmlns="http://www.w3.org/2000/svg">
<path d="M14.25 1C14.25 0.585786 14.5858 0.25 15 0.25C18.7279 0.25 21.75 3.27208 21.75 7C21.75 7.41421 21.4142 7.75 21 7.75C20.5858 7.75 20.25 7.41421 20.25 7C20.25 4.10051 17.8995 1.75 15 1.75C14.5858 1.75 14.25 1.41421 14.25 1Z" fill="black"/>
<path d="M14.25 4C14.25 3.58579 14.5858 3.25 15 3.25C17.0711 3.25 18.75 4.92893 18.75 7C18.75 7.41421 18.4142 7.75 18 7.75C17.5858 7.75 17.25 7.41421 17.25 7C17.25 5.75736 16.2426 4.75 15 4.75C14.5858 4.75 14.25 4.41421 14.25 4Z" fill="black"/>
<path d="M7.21588 15.1936C7.57759 15.2094 7.94406 15.0789 8.21949 14.8034C8.74125 14.2817 8.74125 13.4358 8.21949 12.914C7.85075 12.5453 7.31922 12.4369 6.85533 12.5897C6.90997 12.8004 6.98549 13.0048 7.08096 13.1989C7.24363 13.5298 7.3412 13.8311 7.37429 14.1222C7.40845 14.4225 7.36895 14.6689 7.31348 14.8742C7.27378 15.0211 7.24113 15.1192 7.21588 15.1936Z" fill="black"/>
<path fill-rule="evenodd" clip-rule="evenodd" d="M15.2151 15.167L12.1469 20.6695C10.9042 22.8981 8.15206 23.6616 5.99974 22.375C4.66612 21.5777 3.87571 20.1804 3.76298 18.7026C3.72049 18.1456 3.85468 17.759 3.98388 17.3868C4.19747 16.7715 4.39742 16.1955 3.76298 14.9537C2.74476 12.9609 2.70896 10.4864 3.87802 8.38977C5.68549 5.14825 9.68863 4.03762 12.8193 5.90911C15.9499 7.78061 17.0226 11.9255 15.2151 15.167ZM5.80855 9.52858C6.966 7.37158 9.58006 6.58496 11.6455 7.86798C13.6752 9.12883 14.3337 11.8743 13.1914 14.003L11.5456 17.0701L10.7262 18.4905C10.5449 18.8048 10.2097 18.9984 9.84689 18.9984C8.97414 18.9984 8.16836 19.4662 7.73565 20.2241L7.65133 20.3718C7.44597 20.7316 6.98788 20.8567 6.62816 20.6513C6.26844 20.446 6.14331 19.9879 6.34867 19.6282L6.43299 19.4805C7.08513 18.3382 8.26133 17.6034 9.56082 17.5088L10.2348 16.3405L11.8697 13.2937C12.6601 11.8207 12.1717 9.96073 10.854 9.14215C9.57187 8.34573 7.90551 8.79314 7.13028 10.2378C6.98936 10.5004 6.88881 10.7768 6.82663 11.0582C7.69345 10.9201 8.61179 11.185 9.28015 11.8533C10.3877 12.9609 10.3877 14.7566 9.28015 15.8641C8.43083 16.7134 7.17832 16.9104 6.14196 16.4593C6.06005 16.4282 5.98499 16.3832 5.91969 16.3272C5.73597 16.171 5.63907 15.9349 5.65791 15.6966V15.6369C5.63032 15.1631 5.77227 14.7549 5.83765 14.5669C5.85048 14.53 5.86036 14.5016 5.86543 14.4828C5.88554 14.4084 5.89136 14.3573 5.8839 14.2916C5.87537 14.2166 5.84438 14.0835 5.73487 13.8608C5.08842 12.546 5.06423 10.9157 5.80855 9.52858Z" fill="black"/>
</svg>
