<svg width="24" height="24" viewBox="0 0 24 24" fill="none" xmlns="http://www.w3.org/2000/svg">
<path d="M9.99996 1C14.718 1 18.588 4.63035 18.9692 9.25L14.2122 9.25L13.4992 7.85326C13.1686 7.20561 12.2302 7.24516 11.9552 7.91836L10.2816 12.0163L7.80133 5.94312C7.51348 5.23828 6.51537 5.23828 6.22752 5.94312L4.87699 9.25H1.03076C1.41188 4.63035 5.28196 1 9.99996 1Z" fill="black"/>
<path d="M7.01443 7.98368L6.10055 10.2214C5.96999 10.5411 5.65899 10.75 5.31365 10.75H1.03076C1.41187 15.3696 5.28196 19 9.99996 19C12.2155 19 14.244 18.1995 15.8121 16.8719C15.8191 16.8795 15.8262 16.8869 15.8336 16.8943L22.4696 23.5305C22.7625 23.8234 23.2374 23.8234 23.5303 23.5305C23.8232 23.2376 23.8232 22.7627 23.5303 22.4698L16.8943 15.8336C16.8869 15.8263 16.8794 15.8191 16.8718 15.8121C18.0481 14.4228 18.8106 12.672 18.9692 10.75L13.8143 10.75C13.4949 10.75 13.2024 10.5709 13.0572 10.2865L12.8078 9.79803L11.0685 14.0569C10.7807 14.7617 9.78258 14.7617 9.49472 14.0569L7.01443 7.98368Z" fill="black"/>
</svg>
