<svg width="24" height="24" viewBox="0 0 24 24" fill="none" xmlns="http://www.w3.org/2000/svg">
<path fill-rule="evenodd" clip-rule="evenodd" d="M15 1H5C4.44772 1 4 1.44772 4 2V22C4 22.5523 4.44772 23 5 23H15C15.5523 23 16 22.5523 16 22V17.5H15.6665C14.2858 17.5 13.1665 16.3807 13.1665 15V13.8333L12 13.8333C10.6193 13.8333 9.5 12.714 9.5 11.3333V9.66662C9.5 8.28591 10.6193 7.16662 12 7.16662H13.1665V6C13.1665 4.61929 14.2858 3.5 15.6665 3.5H16V2C16 1.44772 15.5523 1 15 1ZM10 19.25C10.4142 19.25 10.75 19.5858 10.75 20V20.0318C10.75 20.446 10.4142 20.7818 10 20.7818C9.58579 20.7818 9.25 20.446 9.25 20.0318V20C9.25 19.5858 9.58579 19.25 10 19.25ZM6.75 4C6.75 3.58579 7.08579 3.25 7.5 3.25H12.5C12.9142 3.25 13.25 3.58579 13.25 4C13.25 4.41421 12.9142 4.75 12.5 4.75H7.5C7.08579 4.75 6.75 4.41421 6.75 4Z" fill="black"/>
<path d="M17.3332 5C17.8854 5 18.3332 5.44772 18.3332 6V8.56662C18.3332 8.62185 18.3779 8.66662 18.4332 8.66662H21C21.5523 8.66662 22 9.11434 22 9.66662V11.3333C22 11.8856 21.5523 12.3333 21 12.3333H18.4332C18.3779 12.3333 18.3332 12.3781 18.3332 12.4333V15C18.3332 15.5523 17.8854 16 17.3332 16H15.6665C15.1142 16 14.6665 15.5523 14.6665 15V12.4333C14.6665 12.3781 14.6217 12.3333 14.5665 12.3333H12C11.4477 12.3333 11 11.8856 11 11.3333V9.66662C11 9.11434 11.4477 8.66662 12 8.66662H14.5665C14.6217 8.66662 14.6665 8.62185 14.6665 8.56662L14.6665 6C14.6665 5.44771 15.1142 5 15.6665 5H17.3332Z" fill="black"/>
</svg>
