<svg width="24" height="24" viewBox="0 0 24 24" fill="none" xmlns="http://www.w3.org/2000/svg">
<rect width="24" height="24" fill="white"/>
<path fill-rule="evenodd" clip-rule="evenodd" d="M9.25 2C9.25 1.0335 8.4665 0.25 7.5 0.25H6.5C5.5335 0.25 4.75 1.0335 4.75 2L4.75 3C4.75 3.0105 4.75021 3.02095 4.75064 3.03134C4.31901 3.14213 4 3.53381 4 4V13C4 13.466 4.31869 13.8575 4.75 13.9685L4.75 15.5C4.75 16.4665 5.5335 17.25 6.5 17.25H7.5C8.4665 17.25 9.25 16.4665 9.25 15.5L9.25 13.9685C9.68131 13.8575 10 13.466 10 13V12.4691C8.02684 12.223 6.5 10.5398 6.5 8.5C6.5 6.46019 8.02684 4.777 10 4.53095V4C10 3.53381 9.68099 3.14213 9.24936 3.03134C9.24978 3.02095 9.25 3.0105 9.25 3L9.25 2ZM7.75 3L7.75 2C7.75 1.86193 7.63807 1.75 7.5 1.75L6.5 1.75C6.36193 1.75 6.25 1.86193 6.25 2L6.25 3L7.75 3ZM6.25 14H7.75L7.75 15.5C7.75 15.6381 7.63807 15.75 7.5 15.75H6.5C6.36193 15.75 6.25 15.6381 6.25 15.5L6.25 14Z" fill="black"/>
<path d="M10 10.95C8.85888 10.7184 8 9.70948 8 8.5C8 7.29052 8.85888 6.28164 10 6.05001C10.1616 6.01721 10.3288 6 10.5 6C11.3247 6 12.0562 6.39936 12.5115 7.01525C12.8185 7.43043 13 7.94402 13 8.5C13 9.01777 12.8426 9.49877 12.573 9.89777C12.5447 9.93973 12.5151 9.98078 12.4843 10.0209C12.0274 10.6162 11.3085 11 10.5 11C10.3288 11 10.1616 10.9828 10 10.95Z" fill="black"/>
<path d="M3 22.25C2.58579 22.25 2.25 22.5858 2.25 23C2.25 23.4142 2.58579 23.75 3 23.75H21C21.4142 23.75 21.75 23.4142 21.75 23C21.75 22.5858 21.4142 22.25 21 22.25H19.277C20.3606 20.6648 21 18.712 21 16.6C21 12.1553 18.1682 8.41607 14.3241 7.32314C14.4384 7.69522 14.5 8.09042 14.5 8.5C14.5 9.18025 14.3302 9.82085 14.0307 10.3817C16.345 11.2833 18 13.6823 18 16.5C18 18.9941 16.7034 21.1601 14.8005 22.25H9V20.75H10C10.4142 20.75 10.75 20.4142 10.75 20C10.75 19.5858 10.4142 19.25 10 19.25H4C3.58579 19.25 3.25 19.5858 3.25 20C3.25 20.4142 3.58579 20.75 4 20.75H5V22.25H3Z" fill="black"/>
</svg>
