<svg width="24" height="24" viewBox="0 0 24 24" fill="none" xmlns="http://www.w3.org/2000/svg">
<path d="M19.0209 21H4.97906C2.78148 21 1 19.2185 1 17.0209C1 17.0094 1.00938 17 1.02094 17H10.625V17.3333C10.625 17.8856 11.0727 18.3333 11.625 18.3333H12.375C12.9273 18.3333 13.375 17.8856 13.375 17.3333V17H22.9791C22.9906 17 23 17.0094 23 17.0209C23 19.2185 21.2185 21 19.0209 21Z" fill="black"/>
<path fill-rule="evenodd" clip-rule="evenodd" d="M20 3H4C3.44772 3 3 3.44772 3 4L3.00008 15.5H7.35741C8.09539 13.6597 9.89592 12.36 12 12.36C14.1041 12.36 15.9046 13.6597 16.6426 15.5H21V4C21 3.44772 20.5523 3 20 3ZM14.25 8.25C14.25 9.49264 13.2426 10.5 12 10.5C10.7574 10.5 9.75 9.49264 9.75 8.25C9.75 7.00736 10.7574 6 12 6C13.2426 6 14.25 7.00736 14.25 8.25Z" fill="black"/>
</svg>
