<svg width="24" height="24" viewBox="0 0 24 24" fill="none" xmlns="http://www.w3.org/2000/svg">
<path fill-rule="evenodd" clip-rule="evenodd" d="M16.4511 3.50888C16.2191 3.11392 15.7478 2.92596 15.301 3.02691C14.5233 3.20263 13.2519 3.43694 12.0018 3.43694C10.7497 3.43694 9.47466 3.20483 8.69613 3.03123C8.25049 2.93186 7.7815 3.12 7.5502 3.51367L1.13513 14.432C0.948912 14.7489 0.950594 15.139 1.16866 15.435C2.22953 16.8746 5.81021 21.0008 12.0018 21.0008C18.1935 21.0008 21.7738 16.8745 22.8345 15.4349C23.0525 15.139 23.0541 14.749 22.868 14.432L16.4511 3.50888ZM15.5082 8.55147C15.8128 8.27074 15.8321 7.79626 15.5514 7.49169C15.2706 7.18712 14.7961 7.1678 14.4916 7.44853C13.7866 8.09828 12.9221 8.46708 11.9998 8.46708C11.0776 8.46708 10.213 8.09829 9.50811 7.44854C9.20354 7.1678 8.72906 7.18713 8.44833 7.4917C8.16759 7.79627 8.18692 8.27075 8.49149 8.55148C9.4413 9.42696 10.6594 9.96708 11.9998 9.96708C13.3403 9.96708 14.5584 9.42695 15.5082 8.55147ZM17.0698 11.7009C17.3743 11.4202 17.3936 10.9457 17.1129 10.6411C16.8322 10.3365 16.3577 10.3172 16.0531 10.598C14.9176 11.6447 13.5109 12.25 11.9998 12.25C10.4887 12.25 9.08212 11.6447 7.94654 10.598C7.64198 10.3172 7.16749 10.3366 6.88676 10.6411C6.60603 10.9457 6.62535 11.4202 6.92992 11.7009C8.31039 12.9733 10.0705 13.75 11.9998 13.75C13.9291 13.75 15.6893 12.9733 17.0698 11.7009ZM18.77 15.1321C19.0812 14.8587 19.1119 14.3848 18.8385 14.0736C18.5652 13.7625 18.0913 13.7318 17.7801 14.0052C16.1688 15.4206 14.1644 16.25 11.9998 16.25C9.8353 16.25 7.83091 15.4206 6.21959 14.0052C5.9084 13.7318 5.43451 13.7625 5.16114 14.0737C4.88777 14.3848 4.91844 14.8587 5.22963 15.1321C7.08881 16.7653 9.43793 17.75 11.9998 17.75C14.5617 17.75 16.9109 16.7653 18.77 15.1321Z" fill="black"/>
</svg>
