<svg width="24" height="24" viewBox="0 0 24 24" fill="none" xmlns="http://www.w3.org/2000/svg">
<path d="M4.31579 16.2632C2.48453 16.2632 1 14.7786 1 12.9474C1 11.1161 2.48453 9.63158 4.31579 9.63158H4.71138C4.76406 9.63158 4.80765 9.59037 4.8118 9.53786C5.10089 5.87902 8.1616 3 11.8947 3C15.8189 3 19 6.18114 19 10.1053V10.1379C17.7833 9.11566 16.2136 8.5 14.5 8.5C11.4232 8.5 8.81243 10.4838 7.87273 13.2417C6.40205 13.681 5.23309 14.8156 4.74592 16.2632H4.31579Z" fill="black"/>
<path d="M19.9991 15.3996C20.0001 15.4548 20.0447 15.5 20.1 15.5L20.25 15.5C21.7688 15.5 23 16.7312 23 18.25C23 19.7688 21.7688 21 20.25 21H15.1726L15.1667 21L9.22781 21C7.44514 21 6 19.5549 6 17.7722C6 16.0666 7.32332 14.6684 9.00177 14.5522C9.04858 14.549 9.08786 14.5145 9.09661 14.4684C9.57943 11.9239 11.815 10 14.5 10C17.504 10 19.9456 12.4084 19.9991 15.3996Z" fill="black"/>
</svg>
