<svg width="24" height="24" viewBox="0 0 24 24" fill="none" xmlns="http://www.w3.org/2000/svg">
<path d="M21.279 15.8873C22.25 15.5064 23.3988 16.3666 22.8638 17.2621C20.8109 20.6987 17.0544 23 12.7604 23C6.26531 23 1 17.7347 1 11.2396C1 6.94555 3.30137 3.18902 6.73798 1.13613C7.63348 0.601197 8.49363 1.74995 8.11271 2.72102C7.66215 3.8696 7.41477 5.12018 7.41477 6.42854C7.41477 12.0379 11.9621 16.5853 17.5715 16.5853C18.8798 16.5853 20.1304 16.3379 21.279 15.8873Z" fill="black"/>
<path d="M15.6487 3.75586C15.6487 3.34165 15.3129 3.00586 14.8987 3.00586C14.4845 3.00586 14.1487 3.34165 14.1487 3.75586V3.78978C14.1487 4.204 14.4845 4.53978 14.8987 4.53978C15.3129 4.53978 15.6487 4.204 15.6487 3.78978V3.75586Z" fill="black"/>
<path d="M22.0634 5.89411C22.0634 5.4799 21.7277 5.14411 21.3134 5.14411C20.8992 5.14411 20.5634 5.4799 20.5634 5.89411V5.92804C20.5634 6.34225 20.8992 6.67804 21.3134 6.67804C21.7277 6.67804 22.0634 6.34225 22.0634 5.92804V5.89411Z" fill="black"/>
<path d="M18.8561 11.2398C18.8561 10.8255 18.5203 10.4898 18.1061 10.4898C17.6919 10.4898 17.3561 10.8255 17.3561 11.2398V11.2737C17.3561 11.6879 17.6919 12.0237 18.1061 12.0237C18.5203 12.0237 18.8561 11.6879 18.8561 11.2737V11.2398Z" fill="black"/>
</svg>
