<svg width="24" height="24" viewBox="0 0 24 24" fill="none" xmlns="http://www.w3.org/2000/svg">
<g clip-path="url(#clip0_1607_9581)">
<path d="M16.6316 13.821V23M7.36842 13.821V23M13.7609 20.006H19.5503M4.49771 20.006H10.2872M16.6316 13.7368C13.1144 13.7368 10.2632 10.8856 10.2632 7.36842C10.2632 3.85124 13.1144 1 16.6316 1C20.1488 1 23 3.85124 23 7.36842C23 10.8856 20.1488 13.7368 16.6316 13.7368ZM13.7368 7.36842C13.7368 10.8856 10.8856 13.7368 7.36842 13.7368C3.85124 13.7368 1 10.8856 1 7.36842C1 3.85124 3.85124 1 7.36842 1C10.8856 1 13.7368 3.85124 13.7368 7.36842Z" stroke="black" stroke-width="1.5" stroke-linecap="round"/>
</g>
<defs>
<clipPath id="clip0_1607_9581">
<rect width="24" height="24" fill="white"/>
</clipPath>
</defs>
</svg>
