<svg width="24" height="24" viewBox="0 0 24 24" fill="none" xmlns="http://www.w3.org/2000/svg">
<path d="M4 13.5L11.019 17.9922M10 9V9.02724M14 9.00004V9.02724M11 11C11.5523 11.5523 12.4477 11.5523 13 11M20 14.3V9C20 4.58172 16.4183 1 12 1C7.58172 1 4 4.58172 4 9V15C4 19.4183 7.58172 23 12 23C13.7067 23 15.2885 22.4656 16.5873 21.555M20 14.3V15C20 17.7116 18.6509 20.1081 16.5873 21.555M20 14.3L11.019 17.9922M11.019 17.9922L16.5873 21.555M12 14C14.7614 14 17 11.7614 17 9C17 6.23858 14.7614 4 12 4C9.23858 4 7 6.23858 7 9C7 11.7614 9.23858 14 12 14Z" stroke="black" stroke-width="1.5" stroke-linecap="round"/>
</svg>
