<svg width="24" height="24" viewBox="0 0 24 24" fill="none" xmlns="http://www.w3.org/2000/svg">
<g clip-path="url(#clip0_1607_9595)">
<path d="M15.7726 0.257538C15.3625 0.198959 14.9826 0.483883 14.924 0.893934C14.8655 1.30398 15.1504 1.68388 15.5604 1.74246L15.7726 0.257538ZM22.0089 1.90606L21.9029 2.64853L21.9029 2.64853L22.0089 1.90606ZM22.0938 1.99092L22.8362 1.88485L22.8362 1.88485L22.0938 1.99092ZM22.2574 8.43939C22.3159 8.84944 22.6958 9.13436 23.1059 9.07579C23.5159 9.01721 23.8009 8.63731 23.7423 8.22726L22.2574 8.43939ZM12.4194 10.5199C12.1265 10.8128 12.1265 11.2877 12.4194 11.5806C12.7123 11.8735 13.1872 11.8735 13.4801 11.5806L12.4194 10.5199ZM22.0656 1.93443L22.5965 1.40471L22.0656 1.93443ZM8 9.75C11.4518 9.75 14.25 12.5482 14.25 16L15.75 16C15.75 11.7198 12.2802 8.25 8 8.25L8 9.75ZM1.75 16C1.75 12.5482 4.54822 9.75 8 9.75L8 8.25C3.71979 8.25 0.25 11.7198 0.25 16L1.75 16ZM8 22.25C4.54822 22.25 1.75 19.4518 1.75 16L0.25 16C0.25 20.2802 3.71979 23.75 8 23.75L8 22.25ZM8 23.75C12.2802 23.75 15.75 20.2802 15.75 16L14.25 16C14.25 19.4518 11.4518 22.25 8 22.25L8 23.75ZM15.5604 1.74246L21.9029 2.64853L22.115 1.1636L15.7726 0.257538L15.5604 1.74246ZM21.3513 2.09698L22.2574 8.43939L23.7423 8.22726L22.8362 1.88485L21.3513 2.09698ZM21.9029 2.64853C21.7597 2.62807 21.6314 2.56117 21.5346 2.46415L22.5965 1.40471C22.4698 1.27774 22.3022 1.19035 22.115 1.1636L21.9029 2.64853ZM21.5346 2.46415C21.4382 2.36747 21.3717 2.23962 21.3513 2.09699L22.8362 1.88485C22.8096 1.69829 22.7227 1.53123 22.5965 1.40471L21.5346 2.46415ZM13.4801 11.5806L22.5959 2.46476L21.5352 1.4041L12.4194 10.5199L13.4801 11.5806Z" fill="black"/>
</g>
<defs>
<clipPath id="clip0_1607_9595">
<rect width="24" height="24" fill="white"/>
</clipPath>
</defs>
</svg>
