<svg width="24" height="24" viewBox="0 0 24 24" fill="none" xmlns="http://www.w3.org/2000/svg">
<path d="M2.00003 13.7778L2.80772 13.7778V13.7778H2.00003ZM2 21.0001L2.80769 21.0001L2.80769 21.0001L2 21.0001ZM8.00277 22.8078C8.44885 22.8078 8.81046 22.4461 8.81046 22.0001C8.81046 21.554 8.44885 21.1924 8.00277 21.1924V22.8078ZM11.3606 11.3295L10.6567 11.7256L10.6606 11.7326L10.6647 11.7396L11.3606 11.3295ZM10.1924 14.3845C10.1924 14.8306 10.554 15.1922 11.0001 15.1922C11.4461 15.1922 11.8077 14.8306 11.8077 14.3845H10.1924ZM18.1924 14.3845C18.1924 14.8306 18.554 15.1922 19.0001 15.1922C19.4461 15.1922 19.8077 14.8306 19.8077 14.3845H18.1924ZM15.8077 17C15.8077 16.5539 15.4461 16.1923 15.0001 16.1923C14.554 16.1923 14.1924 16.5539 14.1924 17H15.8077ZM14.1924 20C14.1924 20.4461 14.554 20.8077 15.0001 20.8077C15.4461 20.8077 15.8077 20.4461 15.8077 20H14.1924ZM16.5001 19.3077C16.9461 19.3077 17.3077 18.9461 17.3077 18.5C17.3077 18.0539 16.9461 17.6923 16.5001 17.6923V19.3077ZM13.5001 17.6923C13.054 17.6923 12.6924 18.0539 12.6924 18.5C12.6924 18.9461 13.054 19.3077 13.5001 19.3077V17.6923ZM8.97015 3.77778C8.97015 4.86583 8.08811 5.74786 7.00006 5.74786V7.36325C8.98026 7.36325 10.5855 5.75798 10.5855 3.77778H8.97015ZM7.00006 5.74786C5.91201 5.74786 5.02998 4.86583 5.02998 3.77778H3.41459C3.41459 5.75798 5.01986 7.36325 7.00006 7.36325V5.74786ZM5.02998 3.77778C5.02998 2.68973 5.91201 1.80769 7.00006 1.80769V0.192308C5.01986 0.192308 3.41459 1.79758 3.41459 3.77778H5.02998ZM7.00006 1.80769C8.08811 1.80769 8.97015 2.68973 8.97015 3.77778H10.5855C10.5855 1.79758 8.98026 0.192308 7.00006 0.192308V1.80769ZM8.00277 21.1924H3V22.8078H8.00277V21.1924ZM2.80772 13.7778C2.80772 11.4625 4.68468 9.58552 7.00003 9.58552V7.97014C3.79253 7.97014 1.19234 10.5703 1.19234 13.7778H2.80772ZM7.00003 9.58552C8.56854 9.58552 9.93701 10.4465 10.6567 11.7256L12.0645 10.9334C11.0703 9.16656 9.17543 7.97014 7.00003 7.97014V9.58552ZM1.19231 21.0001C1.1923 21.9984 2.00164 22.8078 3 22.8078V21.1924C2.89379 21.1924 2.80769 21.1063 2.80769 21.0001L1.19231 21.0001ZM11.8077 14.3845V13.1538H10.1924V14.3845H11.8077ZM13.1539 11.8077H16.8462V10.1923H13.1539V11.8077ZM18.1924 13.1538V14.3845H19.8077V13.1538H18.1924ZM16.8462 11.8077C17.5897 11.8077 18.1924 12.4104 18.1924 13.1538H19.8077C19.8077 11.5182 18.4818 10.1923 16.8462 10.1923V11.8077ZM14.1924 17V20H15.8077V17H14.1924ZM16.5001 17.6923H13.5001V19.3077H16.5001V17.6923ZM9.07698 15.1922H20.9231V13.5768H9.07698V15.1922ZM21.1924 15.4614V21.923H22.8077V15.4614H21.1924ZM20.9231 22.1922H9.07698V23.8076H20.9231V22.1922ZM8.80775 21.923V15.4614H7.19236V21.923H8.80775ZM9.07698 22.1922C8.92829 22.1922 8.80775 22.0717 8.80775 21.923H7.19236C7.19236 22.9638 8.03613 23.8076 9.07698 23.8076V22.1922ZM21.1924 21.923C21.1924 22.0717 21.0718 22.1922 20.9231 22.1922V23.8076C21.964 23.8076 22.8077 22.9638 22.8077 21.923H21.1924ZM20.9231 15.1922C21.0718 15.1922 21.1924 15.3128 21.1924 15.4614H22.8077C22.8077 14.4206 21.964 13.5768 20.9231 13.5768V15.1922ZM9.07698 13.5768C8.03613 13.5768 7.19236 14.4206 7.19236 15.4614H8.80775C8.80775 15.3128 8.92829 15.1922 9.07698 15.1922V13.5768ZM2.80769 21.0001L2.80772 13.7778L1.19234 13.7778L1.19231 21.0001L2.80769 21.0001ZM11.8077 13.1538C11.8077 12.8003 11.943 12.4802 12.1659 12.2395L10.9808 11.1417C10.4922 11.6693 10.1924 12.3775 10.1924 13.1538H11.8077ZM12.1659 12.2395C12.4129 11.9728 12.7635 11.8077 13.1539 11.8077V10.1923C12.2951 10.1923 11.5207 10.5589 10.9808 11.1417L12.1659 12.2395ZM10.6647 11.7396L10.8775 12.1007L12.2693 11.2805L12.0565 10.9194L10.6647 11.7396Z" fill="black"/>
</svg>
