<svg width="24" height="24" viewBox="0 0 24 24" fill="none" xmlns="http://www.w3.org/2000/svg">
<path fill-rule="evenodd" clip-rule="evenodd" d="M8.60453 5.55165C8.20398 7.57461 7.601 8.84221 7.10245 9.59757C6.81938 10.0265 6.41992 10.4311 6.00154 10.8549C4.93988 11.9303 3.75639 13.1292 4.04371 15.1607C4.44427 17.9928 7.43624 18.0266 8.60453 17.6894L9.10227 17.5295C9.12913 17.5209 9.15617 17.5131 9.18335 17.5061C9.17127 17.4834 9.15943 17.4604 9.14786 17.4373L9.06342 17.2684C8.67476 16.4911 7.88028 16 7.01122 16H6.80007C6.4687 16 6.20007 15.7314 6.20007 15.4C6.20007 15.0687 6.4687 14.8 6.80007 14.8H7.01122C8.33481 14.8 9.5448 15.5479 10.1367 16.7317L10.2212 16.9006C10.5581 17.5744 11.2468 18 12.0001 18C12.7534 18 13.4421 17.5744 13.779 16.9007L13.8635 16.7317C14.4555 15.5478 15.6655 14.8 16.9891 14.8H17.2001C17.5314 14.8 17.8001 15.0687 17.8001 15.4C17.8001 15.7314 17.5314 16 17.2001 16H16.9891C16.12 16 15.3255 16.4911 14.9368 17.2684L14.8523 17.4374L14.843 17.4559C14.8753 17.467 14.9073 17.4794 14.9389 17.493L15.3955 17.6894C16.5638 18.0266 19.5557 17.9928 19.9563 15.1607C20.2436 13.1292 19.0601 11.9303 17.9985 10.8549C17.5801 10.4311 17.1806 10.0265 16.8976 9.59757C16.399 8.84221 15.796 7.57461 15.3955 5.55165L15.3684 5.41494C14.882 2.95408 14.4969 1.00577 12 1.00001C9.5031 1.00577 9.11799 2.95408 8.63157 5.41494L8.60453 5.55165ZM10.124 12.3979C10.124 12.8121 9.78824 13.1479 9.37402 13.1479C8.95981 13.1479 8.62402 12.8121 8.62402 12.3979V12.3662C8.62402 11.952 8.95981 11.6162 9.37402 11.6162C9.78824 11.6162 10.124 11.952 10.124 12.3662V12.3979ZM14.374 13.1478C14.7882 13.1478 15.124 12.812 15.124 12.3978V12.366C15.124 11.9518 14.7882 11.616 14.374 11.616C13.9598 11.616 13.624 11.9518 13.624 12.366V12.3978C13.624 12.812 13.9598 13.1478 14.374 13.1478ZM12.75 10.0317C12.75 10.4459 12.4142 10.7817 12 10.7817C11.5858 10.7817 11.25 10.4459 11.25 10.0317V9.99996C11.25 9.58575 11.5858 9.24996 12 9.24996C12.4142 9.24996 12.75 9.58575 12.75 9.99996V10.0317Z" fill="black"/>
<path d="M7.89442 21.2111L8.87782 19.2443C8.92815 19.1437 9.07181 19.1437 9.12215 19.2443L10.1056 21.2111C10.5165 22.033 9.91886 23 8.99999 23C8.08112 23 7.48349 22.033 7.89442 21.2111Z" fill="black"/>
</svg>
