<svg width="24" height="24" viewBox="0 0 24 24" fill="none" xmlns="http://www.w3.org/2000/svg">
<path fill-rule="evenodd" clip-rule="evenodd" d="M1 12.5C1 8.16152 5.63786 5.76869 9.0867 7.64648C9.12267 7.66606 9.1585 7.68611 9.19421 7.70662C9.61288 7.9472 10.0129 8.25201 10.3835 8.62531L10.3918 8.63372C10.4197 8.66192 10.4474 8.69051 10.475 8.71948L10.9692 9.23935L9.81665 10.4433L8.89622 11.4115L8.40122 10.8908L8.29999 10.7843C7.95144 10.4177 7.54237 10.1888 7.11758 10.0799C5.65227 9.70421 4 10.7555 4 12.5C4 14.7502 6.7491 15.8471 8.3 14.2157L9.92595 12.5053L9.93103 12.5L12 10.3237L14.583 7.84192C18.0576 5.61612 23 8.02136 23 12.5C23 16.0016 19.9788 18.2358 17 17.9801C16.5398 17.9406 16.0806 17.8417 15.6337 17.6789C15.1741 17.5114 14.7276 17.2763 14.3063 16.9687C14.0342 16.77 13.7727 16.541 13.525 16.2805M13.525 16.2805L13.0347 15.7648L13.0335 15.7635L14.0699 14.6761L15.1038 13.5885L15.1051 13.5899L15.7 14.2157C15.7793 14.2991 15.8618 14.3754 15.9468 14.4448C16.3799 14.798 16.8806 14.9717 17.3791 14.9937C18.6971 15.0516 20 14.0491 20 12.5C20 10.2498 17.2509 9.15292 15.7 10.7843L11.9967 14.6798L10.2738 16.4824C6.82557 19.7808 1 17.3624 1 12.5" fill="black"/>
</svg>
