<svg width="24" height="24" viewBox="0 0 24 24" fill="none" xmlns="http://www.w3.org/2000/svg">
<path d="M15.9999 5C15.9999 7.20914 14.2091 9 11.9999 9C9.7908 9 7.99994 7.20914 7.99994 5C7.99994 2.79086 9.7908 1 11.9999 1C14.2091 1 15.9999 2.79086 15.9999 5Z" fill="black"/>
<path d="M15.8758 12.0635C15.5899 12.0217 15.2974 12 14.9999 12L8.9999 12C6.29498 12 4.008 13.79 3.25903 16.25H10.9999C11.2063 16.25 11.4043 16.2857 11.5881 16.3513L15.8758 12.0635Z" fill="black"/>
<path d="M12.6487 17.412C12.7142 17.5958 12.7499 17.7937 12.7499 18V18.25H12.9999C14.5187 18.25 15.7499 19.4812 15.7499 21C15.7499 21.788 15.4185 22.4986 14.8874 23H19.9999C20.5522 23 20.9999 22.5523 20.9999 22V18C20.9999 15.583 19.5707 13.4997 17.5113 12.5493L12.6487 17.412Z" fill="black"/>
<path d="M12.9999 22.25H12.7322C12.7439 22.1683 12.7499 22.0849 12.7499 22V19.75H12.9999C13.6903 19.75 14.2499 20.3096 14.2499 21C14.2499 21.6903 13.6903 22.25 12.9999 22.25Z" fill="black"/>
<path d="M3.50903 17.75L8.24992 17.75V22.25L3.50906 22.25C3.37099 22.25 3.25906 22.1381 3.25906 22L3.25903 18C3.25903 17.8619 3.37096 17.75 3.50903 17.75Z" fill="black"/>
<path d="M9.74992 17.75V22.25H10.9999C11.138 22.25 11.2499 22.1381 11.2499 22V18C11.2499 17.8619 11.138 17.75 10.9999 17.75H9.74992Z" fill="black"/>
</svg>
