<svg width="24" height="24" viewBox="0 0 24 24" fill="none" xmlns="http://www.w3.org/2000/svg">
<g clip-path="url(#clip0_1607_10695)">
<path fill-rule="evenodd" clip-rule="evenodd" d="M16.8828 3.27116C16.1934 2.88471 15.4536 2.57757 14.6756 2.36208C14.3879 1.15091 13.2992 0.25 12 0.25C10.7008 0.25 9.612 1.15096 9.32435 2.36218C8.56028 2.57385 7.83296 2.87393 7.15411 3.25074L6.86606 2.97694C5.79154 1.91023 4.05575 1.91264 2.98423 2.98417C1.91423 4.05416 1.9103 5.78652 2.97242 6.86138L3.2474 7.16013C2.87216 7.83727 2.57322 8.56254 2.36217 9.32435C1.15096 9.612 0.25 10.7008 0.25 12C0.25 13.2992 1.15091 14.3879 2.36208 14.6756C2.57254 15.4354 2.87043 16.1589 3.24425 16.8345L2.96863 17.142C1.91025 18.2171 1.91543 19.9466 2.98417 21.0154C4.05416 22.0854 5.78652 22.0893 6.86138 21.0272L7.15964 20.7526C7.83695 21.128 8.56244 21.4271 9.32448 21.6382C9.61232 22.8491 10.701 23.7498 12 23.7498C13.299 23.7498 14.3876 22.8492 14.6755 21.6383C15.4355 21.4278 16.1592 21.1298 16.835 20.7558L17.1418 21.0309C18.217 22.0893 19.9465 22.0841 21.0153 21.0154C22.0892 19.9415 22.0892 18.2003 21.0153 17.1263L20.9914 17.1025L20.7289 16.8833C21.1155 16.1938 21.4227 15.4538 21.6382 14.6756C22.8494 14.3879 23.7503 13.2992 23.7503 12C23.7503 10.7008 22.8494 9.61201 21.6381 9.32435C21.4297 8.57179 21.1354 7.85488 20.7666 7.1848L21.0442 6.84397C22.0892 5.76789 22.0796 4.04842 21.0153 2.98419C19.9414 1.91025 18.2002 1.91025 17.1263 2.98419L17.1024 3.00806L16.8828 3.27116ZM13.2111 2.68948C13.0731 2.14934 12.5832 1.75 12 1.75C11.4168 1.75 10.9269 2.14934 10.7889 2.68948C11.5104 3.20808 12.4896 3.20808 13.2111 2.68948ZM4.04489 4.04483C4.53304 3.55667 5.3245 3.55667 5.81265 4.04483L5.81938 4.05155L5.86953 4.09923C5.208 4.61328 4.61274 5.20858 4.09874 5.87016L4.05587 5.82358L4.04489 5.81259C3.55673 5.32444 3.55673 4.53298 4.04489 4.04483ZM4.09804 18.1293L4.0593 18.1725L4.04483 18.187C3.55667 18.6751 3.55667 19.4666 4.04483 19.9547C4.53298 20.4429 5.32444 20.4429 5.81259 19.9547L5.82357 19.9437L5.86974 19.9012C5.20782 19.3869 4.61225 18.7913 4.09804 18.1293ZM18.1297 19.902L18.1724 19.9403L18.1869 19.9547C18.675 20.4429 19.4665 20.4429 19.9546 19.9547C20.4357 19.4736 20.4427 18.698 19.9755 18.2083L19.8938 18.1402C19.3813 18.7981 18.7883 19.3903 18.1297 19.902ZM19.9022 5.87093L19.9277 5.83963L19.9547 5.81262C20.4428 5.32447 20.4428 4.53301 19.9547 4.04486C19.4736 3.56376 18.6979 3.5568 18.2083 4.02398L18.1397 4.10616C18.7979 4.61883 19.3904 5.21202 19.9022 5.87093ZM17.3304 11.2322C15.8216 10.8279 14.9261 9.27694 15.3304 7.76807C16.287 7.21578 17.5102 7.54353 18.0625 8.50012C18.6148 9.4567 18.287 10.6799 17.3304 11.2322ZM8.67004 16.2322C9.07434 14.7234 8.17891 13.1724 6.67004 12.7681C5.71345 13.3204 5.3857 14.5436 5.93799 15.5002C6.49027 16.4568 7.71345 16.7845 8.67004 16.2322ZM12.7681 17.3302C13.1724 15.8213 14.7233 14.9259 16.2322 15.3302C16.7845 16.2868 16.4567 17.51 15.5001 18.0623C14.5435 18.6145 13.3204 18.2868 12.7681 17.3302ZM7.76831 8.6701C9.27718 9.0744 10.8281 8.17897 11.2324 6.6701C10.6801 5.71352 9.45695 5.38577 8.50036 5.93805C7.54378 6.49033 7.21603 7.71351 7.76831 8.6701ZM14.0002 12.0002C14.0002 13.1047 13.1048 14.0002 12.0002 14.0002C10.8957 14.0002 10.0002 13.1047 10.0002 12.0002C10.0002 10.8956 10.8957 10.0002 12.0002 10.0002C13.1048 10.0002 14.0002 10.8956 14.0002 12.0002ZM12 22.2498C11.4168 22.2498 10.9269 21.8505 10.7889 21.3103C11.5104 20.7917 12.4896 20.7917 13.2111 21.3103C13.0731 21.8505 12.5832 22.2498 12 22.2498ZM22.2503 12C22.2503 11.4168 21.851 10.9269 21.3108 10.7889C20.7922 11.5104 20.7922 12.4896 21.3108 13.2111C21.851 13.0731 22.2503 12.5832 22.2503 12ZM1.75 12C1.75 11.4168 2.14934 10.9269 2.68948 10.7889C3.20808 11.5104 3.20808 12.4896 2.68948 13.2111C2.14934 13.0731 1.75 12.5832 1.75 12Z" fill="black"/>
</g>
<defs>
<clipPath id="clip0_1607_10695">
<rect width="24" height="24" fill="white"/>
</clipPath>
</defs>
</svg>
