<svg width="24" height="24" viewBox="0 0 24 24" fill="none" xmlns="http://www.w3.org/2000/svg">
<path fill-rule="evenodd" clip-rule="evenodd" d="M9.37715 1.30461C9.3524 1.29465 9.32687 1.28591 9.30063 1.27847L7.84322 0.865569L7.83313 0.862862C6.48198 0.500379 5.2787 0.285728 4.34722 0.263836C3.88488 0.252971 3.4438 0.288045 3.07037 0.403848C2.70198 0.518087 2.28732 0.749146 2.0854 1.20797C1.93931 1.5399 1.95827 1.88262 2.0289 2.16695C2.09988 2.45267 2.23603 2.73598 2.4023 3.00518C2.60621 3.33534 2.88061 3.68439 3.21152 4.04247C2.59111 4.23586 2.05041 4.44664 1.61356 4.67307C1.25713 4.8578 0.929824 5.07316 0.685232 5.32938C0.440744 5.5855 0.21664 5.95187 0.241375 6.40875C0.262298 6.79521 0.461742 7.09262 0.681019 7.29849C0.89514 7.49953 1.16443 7.65042 1.439 7.76825C1.99012 8.00476 2.72454 8.17559 3.55289 8.29495C5.21883 8.53501 7.43872 8.5905 9.76858 8.4377C9.79924 8.43628 9.8297 8.43299 9.8598 8.42787C9.98057 8.40761 10.0908 8.35881 10.184 8.28902C10.2436 8.24448 10.2972 8.19061 10.3422 8.12825C10.4414 7.99151 10.4952 7.82065 10.4832 7.63893C10.4724 7.47521 10.4098 7.32723 10.3125 7.20991C10.2728 7.16189 10.2267 7.11839 10.1747 7.08081C10.1346 7.05172 10.0915 7.02654 10.0461 7.00578C7.88495 5.95367 6.09849 4.71269 4.92044 3.62745C4.32667 3.08047 3.91265 2.59606 3.6785 2.21695C3.57715 2.05285 3.52196 1.92835 3.49523 1.8428L3.51465 1.83654C3.66919 1.78862 3.92824 1.7544 4.31197 1.76342C5.04679 1.78069 6.07278 1.95094 7.3128 2.27668C7.00497 2.4842 6.71337 2.71396 6.4403 2.96366C7.49256 3.8378 8.96396 4.81202 10.7182 5.66454C11.2764 5.93577 11.681 6.41474 11.8684 6.97369C12.2404 6.46262 12.8216 6.11637 13.4851 6.05622C15.3021 5.89151 16.9424 5.5896 18.2543 5.23583C18.0811 4.87819 17.8804 4.53638 17.6549 4.21317C18.8678 4.27691 20.0323 4.44785 20.9273 4.67634C21.4581 4.81182 21.8578 4.95854 22.1104 5.09503L22.1279 5.1046C22.0644 5.16388 21.9782 5.23412 21.8638 5.3135C21.467 5.58899 20.8469 5.89608 20.0295 6.197C18.407 6.79431 16.1351 7.32087 13.636 7.54875C13.5017 7.55817 13.3727 7.60376 13.2627 7.67933C13.1506 7.75638 13.0583 7.86458 13.0005 7.9974C12.9847 8.03356 12.9717 8.07113 12.9618 8.10983C12.9099 8.30998 12.9445 8.51632 13.0458 8.68455C13.1202 8.80793 13.2303 8.91082 13.3686 8.97572C13.3894 8.98552 13.4106 8.9944 13.4323 9.00229C15.6184 9.83643 17.621 10.5197 19.1475 10.8664C19.9052 11.0386 20.5978 11.1403 21.1571 11.1152C21.657 11.0927 22.381 10.949 22.6792 10.2714C22.8437 9.89748 22.8004 9.51754 22.6914 9.20718C22.5841 8.9016 22.3963 8.60923 22.1779 8.33867C21.9219 8.02171 21.5875 7.69041 21.1913 7.35151C21.7939 7.09779 22.3145 6.82668 22.7192 6.5457C22.9896 6.35803 23.2375 6.14603 23.4217 5.90694C23.6037 5.67087 23.7698 5.34628 23.7489 4.95942C23.7305 4.61985 23.5576 4.36208 23.3942 4.19183C23.2298 4.02061 23.026 3.88486 22.8236 3.77544C22.4168 3.55559 21.8836 3.37236 21.2984 3.22295C20.1181 2.92165 18.578 2.72109 17.0451 2.69012L17.0312 2.68984L16.2589 2.70297C14.9642 1.63883 13.3067 0.999969 11.4999 0.999969C10.7627 0.999969 10.0502 1.10636 9.37715 1.30461ZM4.48605 5.24043C5.19086 5.8292 6.02917 6.43551 6.97319 7.02209C5.76391 7.01335 4.66636 6.93991 3.76682 6.81028C2.99142 6.69855 2.40587 6.55088 2.03055 6.38982C1.95296 6.35652 1.89112 6.32547 1.84251 6.29793C1.938 6.21746 2.08653 6.11743 2.30381 6.00481C2.80277 5.7462 3.54073 5.48366 4.48605 5.24043ZM16.7855 8.61888C17.7778 8.42889 18.7033 8.19936 19.5303 7.94608C20.2178 8.45884 20.7138 8.91322 21.0108 9.28098C21.1192 9.41523 21.1889 9.52324 21.2318 9.605C21.1935 9.60991 21.1466 9.61413 21.0897 9.6167C20.7332 9.63274 20.1967 9.56655 19.4797 9.4037C18.715 9.22999 17.8039 8.96052 16.7855 8.61888Z" fill="black"/>
<path d="M2.51562 11.9687L3.59279 9.81431C5.35704 10.0436 7.58756 10.0848 9.88291 9.93336C10.5657 9.88831 11.1708 9.53893 11.5546 9.01169C11.7633 9.63404 12.2404 10.1527 12.8858 10.3991C14.7611 11.1149 16.5551 11.7415 18.0581 12.1416C17.8113 12.585 17.5209 13.0008 17.1926 13.3831C17.175 13.4037 17.1663 13.4305 17.1686 13.4575L17.9906 22.8913C17.9957 22.9497 17.9496 23 17.891 23H10.092C10.04 23 9.99672 22.9601 9.99237 22.9083L9.71416 19.5916C9.70982 19.5398 9.6665 19.5 9.61451 19.5H6.44691C5.90051 19.5 5.45526 19.0614 5.44702 18.5151L5.38187 14.1978C5.38123 14.1553 5.35381 14.1179 5.3135 14.1045L3.09382 13.3646C2.51651 13.1721 2.24347 12.513 2.51562 11.9687Z" fill="black"/>
</svg>
