<svg width="24" height="24" viewBox="0 0 24 24" fill="none" xmlns="http://www.w3.org/2000/svg">
<path fill-rule="evenodd" clip-rule="evenodd" d="M20.9998 8.5C20.9998 10.365 20.3191 12.071 19.1925 13.3832C19.1749 13.4037 19.1662 13.4305 19.1685 13.4575L19.9905 22.8913C19.9956 22.9498 19.9495 23 19.8909 23H12.0919C12.0399 23 11.9966 22.9602 11.9923 22.9084L11.7141 19.5916C11.7097 19.5398 11.6664 19.5 11.6144 19.5H8.44682C7.90041 19.5 7.45517 19.0614 7.44693 18.5151L7.38178 14.1979C7.38114 14.1554 7.35372 14.1179 7.31341 14.1045L5.09373 13.3646C4.51641 13.1722 4.24338 12.513 4.51553 11.9687L6.00236 8.995C6.01024 8.97924 6.0138 8.96168 6.01278 8.94409C6.0042 8.79716 5.99985 8.64909 5.99985 8.5C5.99985 4.35786 9.35771 1 13.4998 1C17.642 1 20.9998 4.35786 20.9998 8.5ZM10.9999 12.2501C11.4141 12.2501 11.7499 12.5858 11.7499 13.0001V13.0318C11.7499 13.446 11.4141 13.7818 10.9999 13.7818C10.5857 13.7818 10.2499 13.446 10.2499 13.0318V13.0001C10.2499 12.5858 10.5857 12.2501 10.9999 12.2501ZM15.7499 14.0001C15.7499 13.5858 15.4141 13.2501 14.9999 13.2501C14.5857 13.2501 14.2499 13.5858 14.2499 14.0001V14.0318C14.2499 14.446 14.5857 14.7818 14.9999 14.7818C15.4141 14.7818 15.7499 14.446 15.7499 14.0318V14.0001ZM12.9999 16.2501C13.4141 16.2501 13.7499 16.5858 13.7499 17V17.0318C13.7499 17.446 13.4141 17.7818 12.9999 17.7818C12.5857 17.7818 12.2499 17.446 12.2499 17.0318V17C12.2499 16.5858 12.5857 16.2501 12.9999 16.2501Z" fill="black"/>
<path d="M3.8777 14.2443L2.89429 16.2111C2.48337 17.033 3.081 18 3.99987 18C4.91874 18 5.51638 17.033 5.10544 16.2111L4.12203 14.2443C4.07169 14.1437 3.92803 14.1437 3.8777 14.2443Z" fill="black"/>
</svg>
