<svg width="24" height="24" viewBox="0 0 24 24" fill="none" xmlns="http://www.w3.org/2000/svg">
<path d="M3.67076 0.664632C3.48552 0.294148 3.03502 0.14398 2.66453 0.329222C2.29405 0.514464 2.14388 0.964969 2.32912 1.33545L3.27554 3.22828C3.5127 3.70261 4.12155 3.84634 4.5458 3.52815L5.66704 2.68722L6.30359 4.27858C6.45742 4.66317 6.8939 4.85023 7.27849 4.6964C7.66307 4.54256 7.85014 4.10609 7.6963 3.7215L6.74476 1.34265C6.53704 0.823337 5.89301 0.64274 5.44556 0.978333L4.26887 1.86085L3.67076 0.664632Z" fill="black"/>
<path d="M21.1926 13.3832C22.3192 12.0711 22.9999 10.3651 22.9999 8.50004C22.9999 4.35791 19.642 1.00004 15.4999 1.00004C11.3578 1.00004 7.99989 4.35791 7.99989 8.50004C7.99989 8.64913 8.00424 8.7972 8.01282 8.94413C8.01385 8.96172 8.01029 8.97928 8.00241 8.99504L6.51557 11.9688C6.24343 12.5131 6.51646 13.1722 7.09378 13.3647L9.31346 14.1045C9.35376 14.118 9.38118 14.1554 9.38182 14.1979L9.44697 18.5151C9.45522 19.0615 9.90046 19.5 10.4469 19.5H13.6145C13.6665 19.5 13.7098 19.5399 13.7141 19.5917L13.9923 22.9084C13.9967 22.9602 14.04 23 14.092 23H21.8909C21.9496 23 21.9956 22.9498 21.9905 22.8914L21.1686 13.4575C21.1662 13.4305 21.1749 13.4038 21.1926 13.3832Z" fill="black"/>
<path d="M0.400103 5.05009C0.648647 4.71873 1.11875 4.6516 1.45011 4.90014L2.73101 5.86092L3.27561 4.77183C3.51279 4.29752 4.12161 4.15381 4.54586 4.47199L6.45 5.9001C6.78138 6.14863 6.84853 6.61873 6.6 6.9501C6.35148 7.28147 5.88138 7.34863 5.55 7.1001L4.2689 6.13928L3.72429 7.2284C3.48711 7.70273 2.87825 7.84643 2.45401 7.52821L0.55005 6.1001C0.218692 5.85155 0.151558 5.38145 0.400103 5.05009Z" fill="black"/>
<path d="M0.999988 11.25C0.585774 11.25 0.249993 11.5858 0.25 12C0.250007 12.4142 0.585799 12.75 1.00001 12.75L3.85214 12.7499C4.45346 12.7499 4.86465 12.1426 4.64134 11.5843L4.03114 10.0586L5.64705 9.73541C6.05322 9.65418 6.31663 9.25906 6.2354 8.85289C6.15416 8.44672 5.75904 8.1833 5.35288 8.26454L2.97075 8.74096C2.44964 8.84519 2.15089 9.39668 2.34823 9.89011L2.8921 11.2499L0.999988 11.25Z" fill="black"/>
</svg>
