<svg width="24" height="24" viewBox="0 0 24 24" fill="none" xmlns="http://www.w3.org/2000/svg">
<path fill-rule="evenodd" clip-rule="evenodd" d="M10.4999 1.25C10.9141 1.25 11.2499 1.58579 11.2499 2V7.93694C11.2499 8.89661 10.6944 9.76912 9.82593 10.1756L9.56999 10.3035L9.67179 12.3256L11.2174 11.5528C11.71 11.3064 12.29 11.3064 12.7826 11.5528L14.3282 12.3256L14.43 10.3035L14.1741 10.1756C13.3056 9.76912 12.7501 8.89661 12.7501 7.93694V2C12.7501 1.58579 13.0859 1.25 13.5001 1.25C13.9143 1.25 14.2501 1.58579 14.2501 2V7.93694C14.2501 8.18971 14.3481 8.4271 14.5155 8.6043L14.5549 7.82193C14.5903 7.11814 14.8553 6.385 15.5195 6.14962C16.6652 5.74362 18.5288 6.01709 20.7079 8.83627C22.7333 11.4566 23.1237 15.5782 22.9699 18.682C22.8815 20.4677 21.0708 21.4579 19.3938 20.838L16.0668 19.6082C14.837 19.1536 14.0448 17.953 14.1108 16.6435L14.2458 13.9614L12.1118 12.8944C12.0414 12.8592 11.9586 12.8592 11.8882 12.8944L9.75416 13.9614L9.88919 16.6435C9.95513 17.953 9.16298 19.1536 7.93312 19.6082L4.60612 20.838C2.92913 21.4579 1.11847 20.4677 1.03002 18.682C0.876278 15.5782 1.26663 11.4566 3.29204 8.83627C5.47114 6.01709 7.3348 5.74362 8.48047 6.14962C9.14467 6.385 9.40961 7.11814 9.44504 7.82193L9.48443 8.60435C9.65185 8.42714 9.74988 8.18973 9.74988 7.93694V2C9.74988 1.58579 10.0857 1.25 10.4999 1.25ZM18.3423 16.1475C17.9422 16.2547 17.7047 16.666 17.8119 17.0661C17.9191 17.4662 18.3304 17.7036 18.7305 17.5964L18.7611 17.5882C19.1612 17.481 19.3987 17.0698 19.2915 16.6697C19.1843 16.2696 18.773 16.0321 18.3729 16.1393L18.3423 16.1475ZM16.7768 13.2023C16.6696 12.8022 16.907 12.391 17.3071 12.2838L17.3378 12.2756C17.7379 12.1683 18.1491 12.4058 18.2563 12.8059C18.3635 13.206 18.1261 13.6172 17.726 13.7244L17.6953 13.7327C17.2952 13.8399 16.884 13.6024 16.7768 13.2023ZM19.7566 13.698C19.3565 13.8052 19.119 14.2164 19.2262 14.6165C19.3334 15.0166 19.7447 15.254 20.1448 15.1468L20.1754 15.1386C20.5755 15.0314 20.813 14.6202 20.7058 14.2201C20.5986 13.82 20.1873 13.5825 19.7872 13.6897L19.7566 13.698ZM6.1694 17.0661C6.27661 16.666 6.03917 16.2547 5.63907 16.1475L5.60842 16.1393C5.20832 16.0321 4.79707 16.2696 4.68986 16.6697C4.58266 17.0698 4.82009 17.481 5.22019 17.5882L5.25084 17.5964C5.65094 17.7036 6.06219 17.4662 6.1694 17.0661ZM6.67422 12.2838C7.07432 12.391 7.31176 12.8022 7.20456 13.2023C7.09735 13.6024 6.6861 13.8399 6.286 13.7327L6.25535 13.7244C5.85525 13.6172 5.61781 13.206 5.72502 12.8059C5.83222 12.4058 6.24348 12.1683 6.64358 12.2756L6.67422 12.2838ZM4.75509 14.6165C4.8623 14.2164 4.62486 13.8052 4.22476 13.698L4.19411 13.6897C3.79401 13.5825 3.38276 13.82 3.27556 14.2201C3.16835 14.6202 3.40579 15.0314 3.80589 15.1386L3.83653 15.1468C4.23663 15.254 4.64789 15.0166 4.75509 14.6165Z" fill="black"/>
</svg>
