<svg width="24" height="24" viewBox="0 0 24 24" fill="none" xmlns="http://www.w3.org/2000/svg">
<path fill-rule="evenodd" clip-rule="evenodd" d="M22.0002 8.5C22.0002 10.365 21.3194 12.071 20.1929 13.3832C20.1752 13.4037 20.1665 13.4305 20.1688 13.4575L20.9908 22.8913C20.9959 22.9498 20.9498 23 20.8912 23H13.0892C13.0385 23 12.9958 22.962 12.9899 22.9117L12.7171 20.5883C12.7111 20.538 12.6685 20.5 12.6177 20.5H9.43019C8.89053 20.5 8.44821 20.0718 8.43072 19.5324L8.38436 18.1032C8.38253 18.0468 8.42781 18 8.48431 18H11.4942C11.5618 18 11.6099 17.9344 11.5896 17.8699L11.1834 16.5811C11.0709 16.2242 10.7686 15.96 10.3998 15.8963L8.46399 15.5619C8.41604 15.5536 8.38101 15.512 8.38101 15.4634V14.199C8.38101 14.156 8.35347 14.1178 8.31264 14.1041L6.09404 13.3646C5.51672 13.1722 5.24369 12.513 5.51584 11.9687L7.00267 8.995C7.01055 8.97924 7.01411 8.96168 7.01309 8.94409C7.00451 8.79716 7.00016 8.64909 7.00016 8.5C7.00016 4.35786 10.358 1 14.5002 1C18.6423 1 22.0002 4.35786 22.0002 8.5ZM14.0002 17.25C14.4144 17.25 14.7502 17.5858 14.7502 18V18.0318C14.7502 18.446 14.4144 18.7818 14.0002 18.7818C13.586 18.7818 13.2502 18.446 13.2502 18.0318V18C13.2502 17.5858 13.586 17.25 14.0002 17.25ZM18.7502 18C18.7502 17.5858 18.4144 17.25 18.0002 17.25C17.586 17.25 17.2502 17.5858 17.2502 18V18.0318C17.2502 18.446 17.586 18.7818 18.0002 18.7818C18.4144 18.7818 18.7502 18.446 18.7502 18.0318V18ZM16.0002 19.25C16.4144 19.25 16.7502 19.5858 16.7502 20V20.0318C16.7502 20.446 16.4144 20.7818 16.0002 20.7818C15.586 20.7818 15.2502 20.446 15.2502 20.0318V20C15.2502 19.5858 15.586 19.25 16.0002 19.25Z" fill="black"/>
<path d="M1.27574 15.8059C1.38295 15.4058 1.7942 15.1683 2.1943 15.2756L4.12615 15.7932C4.52625 15.9004 4.76369 16.3117 4.65648 16.7118C4.54928 17.1119 4.13802 17.3493 3.73792 17.2421L1.80607 16.7244C1.40597 16.6172 1.16854 16.206 1.27574 15.8059Z" fill="black"/>
<path d="M1.89325 19.8146C1.53453 20.0217 1.41163 20.4804 1.61873 20.8391C1.82584 21.1978 2.28453 21.3207 2.64325 21.1136L4.3753 20.1136C4.73402 19.9065 4.85693 19.4478 4.64982 19.0891C4.44272 18.7304 3.98402 18.6075 3.6253 18.8146L1.89325 19.8146Z" fill="black"/>
<path d="M5.27574 22.7341C5.16854 23.1342 5.40597 23.5455 5.80607 23.6527C6.20617 23.7599 6.61742 23.5224 6.72463 23.1223L7.24227 21.1905C7.34947 20.7904 7.11204 20.3791 6.71194 20.2719C6.31184 20.1647 5.90059 20.4022 5.79338 20.8023L5.27574 22.7341Z" fill="black"/>
</svg>
