<svg width="24" height="24" viewBox="0 0 24 24" fill="none" xmlns="http://www.w3.org/2000/svg">
<path d="M21 8.5C21 10.365 20.3192 12.071 19.1927 13.3832C19.175 13.4037 19.1663 13.4305 19.1686 13.4575L19.9906 22.8913C19.9957 22.9498 19.9497 23 19.891 23H16.6C16.5448 23 16.5 22.9552 16.5 22.9V18.8549C16.5 17.2558 15.2458 15.9378 13.6487 15.8585L7.47587 15.5523C7.42264 15.5497 7.38083 15.5057 7.38083 15.4524V14.199C7.38083 14.156 7.35329 14.1178 7.31245 14.1041L5.09385 13.3646C4.51654 13.1722 4.24351 12.513 4.51565 11.9687L6.00249 8.995C6.01037 8.97924 6.01393 8.96168 6.0129 8.94409C6.00432 8.79716 5.99997 8.64909 5.99997 8.5C5.99997 4.35786 9.35783 1 13.5 1C17.6421 1 21 4.35786 21 8.5Z" fill="black"/>
<path d="M11.9897 22.9117L11.7169 20.5883C11.711 20.538 11.6683 20.5 11.6176 20.5H8.43001C7.89034 20.5 7.44803 20.0718 7.43053 19.5324L7.38418 18.1032C7.38235 18.0468 7.42763 18 7.48412 18H12.9259C13.471 18 13.9157 18.4365 13.9258 18.9815L13.9981 22.8982C13.9992 22.9541 13.9541 23 13.8982 23H12.089C12.0383 23 11.9956 22.962 11.9897 22.9117Z" fill="black"/>
</svg>
