<svg width="24" height="24" viewBox="0 0 24 24" fill="none" xmlns="http://www.w3.org/2000/svg">
<path fill-rule="evenodd" clip-rule="evenodd" d="M12 1C5.92487 1 1 5.92487 1 12C1 18.0751 5.92487 23 12 23C18.0751 23 23 18.0751 23 12C23 5.92487 18.0751 1 12 1ZM16.9983 14.5606C17.3079 14.2854 17.3357 13.8113 17.0606 13.5018C16.7854 13.1922 16.3113 13.1643 16.0017 13.4395L12.75 16.3299V6C12.75 5.58579 12.4142 5.25 12 5.25C11.5858 5.25 11.25 5.58579 11.25 6V16.3299L7.99827 13.4395C7.68868 13.1643 7.21463 13.1922 6.93944 13.5017C6.66426 13.8113 6.69214 14.2854 7.00173 14.5606L11.5017 18.5605C11.7859 18.8131 12.2141 18.8131 12.4983 18.5605L16.9983 14.5606Z" fill="black"/>
</svg>
