<svg width="24" height="24" viewBox="0 0 24 24" fill="none" xmlns="http://www.w3.org/2000/svg">
<path fill-rule="evenodd" clip-rule="evenodd" d="M12 23C18.0751 23 23 18.0751 23 12C23 5.92487 18.0751 1 12 1C5.92487 1 1 5.92487 1 12C1 18.0751 5.92487 23 12 23ZM7.00173 9.43942C6.69214 9.7146 6.66425 10.1887 6.93944 10.4982C7.21463 10.8078 7.68868 10.8357 7.99827 10.5605L11.25 7.67013V18C11.25 18.4142 11.5858 18.75 12 18.75C12.4142 18.75 12.75 18.4142 12.75 18V7.67014L16.0017 10.5605C16.3113 10.8357 16.7854 10.8078 17.0606 10.4983C17.3357 10.1887 17.3079 9.71461 16.9983 9.43943L12.4983 5.43946C12.2141 5.18687 11.7859 5.18687 11.5017 5.43945L7.00173 9.43942Z" fill="black"/>
</svg>
