<svg width="24" height="24" viewBox="0 0 24 24" fill="none" xmlns="http://www.w3.org/2000/svg">
<path fill-rule="evenodd" clip-rule="evenodd" d="M20.2314 19.2969C16.2015 23.843 9.24927 24.2614 4.70318 20.2315C0.157089 16.2016 -0.26135 9.24934 3.76857 4.70324C7.79849 0.15715 14.7507 -0.261289 19.2968 3.76863C23.8429 7.79856 24.2614 14.7508 20.2314 19.2969ZM15.4334 9.25758L15.9494 13.5776C15.9985 13.9889 16.3717 14.2825 16.783 14.2333C17.1943 14.1842 17.4879 13.811 17.4388 13.3997L16.7247 7.4214C16.6797 7.04389 16.3592 6.75983 15.979 6.76035L9.95825 6.7685C9.54404 6.76906 9.20871 7.1053 9.20927 7.51952C9.20983 7.93373 9.54607 8.26906 9.96028 8.2685L14.3109 8.26261L7.45864 15.9925C7.18388 16.3025 7.21241 16.7765 7.52237 17.0512C7.83233 17.326 8.30635 17.2975 8.58111 16.9875L15.4334 9.25758Z" fill="black"/>
</svg>
