<svg width="24" height="24" viewBox="0 0 24 24" fill="none" xmlns="http://www.w3.org/2000/svg">
<path fill-rule="evenodd" clip-rule="evenodd" d="M1 12C1 18.0751 5.92487 23 12 23C18.0751 23 23 18.0751 23 12C23 5.92487 18.0751 1 12 1C5.92487 1 1 5.92487 1 12ZM14.5606 7.00173C14.2854 6.69214 13.8113 6.66425 13.5018 6.93944C13.1922 7.21463 13.1643 7.68868 13.4395 7.99827L16.3299 11.25H6C5.58579 11.25 5.25 11.5858 5.25 12C5.25 12.4142 5.58579 12.75 6 12.75H16.3299L13.4395 16.0017C13.1643 16.3113 13.1922 16.7854 13.5017 17.0606C13.8113 17.3357 14.2854 17.3079 14.5606 16.9983L18.5605 12.4983C18.8131 12.2141 18.8131 11.7859 18.5605 11.5017L14.5606 7.00173Z" fill="black"/>
</svg>
