<svg width="24" height="24" viewBox="0 0 24 24" fill="none" xmlns="http://www.w3.org/2000/svg">
<path fill-rule="evenodd" clip-rule="evenodd" d="M23 12C23 5.92487 18.0751 1 12 1C5.92487 1 1 5.92487 1 12C1 18.0751 5.92487 23 12 23C18.0751 23 23 18.0751 23 12ZM9.43942 16.9983C9.7146 17.3079 10.1887 17.3357 10.4982 17.0606C10.8078 16.7854 10.8357 16.3113 10.5605 16.0017L7.67013 12.75H18C18.4142 12.75 18.75 12.4142 18.75 12C18.75 11.5858 18.4142 11.25 18 11.25H7.67014L10.5605 7.99827C10.8357 7.68868 10.8078 7.21463 10.4983 6.93944C10.1887 6.66426 9.71461 6.69214 9.43943 7.00173L5.43946 11.5017C5.18687 11.7859 5.18687 12.2141 5.43945 12.4983L9.43942 16.9983Z" fill="black"/>
</svg>
