<svg width="24" height="24" viewBox="0 0 24 24" fill="none" xmlns="http://www.w3.org/2000/svg">
<path fill-rule="evenodd" clip-rule="evenodd" d="M20.2314 4.7033C16.2015 0.157211 9.24927 -0.261228 4.70318 3.76869C0.157089 7.79862 -0.26135 14.7509 3.76857 19.2969C7.79849 23.843 14.7507 24.2615 19.2968 20.2316C23.8429 16.2016 24.2614 9.2494 20.2314 4.7033ZM15.4335 14.7426L15.9494 10.4226C15.9985 10.0113 16.3718 9.71772 16.7831 9.76685C17.1944 9.81597 17.488 10.1892 17.4388 10.6005L16.7248 16.5788C16.6797 16.9563 16.3593 17.2404 15.9791 17.2398L9.95831 17.2317C9.5441 17.2311 9.20877 16.8949 9.20933 16.4807C9.20989 16.0665 9.54613 15.7311 9.96035 15.7317L14.3109 15.7376L7.45868 8.00768C7.18391 7.69772 7.21244 7.2237 7.5224 6.94894C7.83236 6.67417 8.30638 6.7027 8.58114 7.01266L15.4335 14.7426Z" fill="black"/>
</svg>
