<svg width="24" height="24" viewBox="0 0 24 24" fill="none" xmlns="http://www.w3.org/2000/svg">
<path fill-rule="evenodd" clip-rule="evenodd" d="M1 12C1 18.0751 5.92487 23 12 23C18.0751 23 23 18.0751 23 12C23 5.92487 18.0751 0.999999 12 1C5.92487 1 0.999999 5.92487 1 12ZM16.4697 13.7961C16.7626 14.089 17.2374 14.089 17.5303 13.7961C17.8232 13.5032 17.8232 13.0284 17.5303 12.7355L12.5303 7.73545C12.2374 7.44256 11.7626 7.44256 11.4697 7.73545L6.46965 12.7355C6.17676 13.0284 6.17676 13.5032 6.46965 13.7961C6.76254 14.089 7.23742 14.089 7.53031 13.7961L12 9.32645L16.4697 13.7961Z" fill="black"/>
</svg>
