<svg width="24" height="24" viewBox="0 0 24 24" fill="none" xmlns="http://www.w3.org/2000/svg">
<path fill-rule="evenodd" clip-rule="evenodd" d="M23 12.0001C23 5.92496 18.0751 1.00009 12 1.00009C5.92487 1.00009 1 5.92496 1 12.0001C0.999999 18.0752 5.92487 23.0001 12 23.0001C18.0751 23.0001 23 18.0752 23 12.0001ZM7.53033 10.204C7.23744 9.91108 6.76256 9.91108 6.46967 10.204C6.17678 10.4969 6.17678 10.9717 6.46967 11.2646L11.4697 16.2646C11.7626 16.5575 12.2374 16.5575 12.5303 16.2646L17.5303 11.2646C17.8232 10.9717 17.8232 10.4969 17.5303 10.204C17.2375 9.91107 16.7626 9.91107 16.4697 10.204L12 14.6736L7.53033 10.204Z" fill="black"/>
</svg>
