<svg width="24" height="24" viewBox="0 0 24 24" fill="none" xmlns="http://www.w3.org/2000/svg">
<g clip-path="url(#clip0_1607_9568)">
<path d="M6.49001 17.6401C5.81622 17.6401 5.27 18.1864 5.27 18.8601C5.27 19.5339 5.81622 20.0801 6.49001 20.0801C7.1638 20.0801 7.71001 19.5339 7.71001 18.8601C7.71001 18.1864 7.1638 17.6401 6.49001 17.6401ZM6.49001 17.6401L6.48997 15.2M3.99998 12.1388V12.7002C3.99998 14.0809 5.11927 15.2002 6.49998 15.2002C7.88069 15.2002 8.99998 14.0809 8.99998 12.7002V12.1413M17.5 2.83317V10.1666M19.3333 3.29175C19.3333 3.54488 18.5125 3.75008 17.5 3.75008C16.4875 3.75008 15.6667 3.54488 15.6667 3.29175M20.25 5.5C20.25 5.8797 19.0188 6.1875 17.5 6.1875C15.9812 6.1875 14.75 5.8797 14.75 5.5M19.7916 8C19.7916 8.3797 18.7656 8.6875 17.4999 8.6875C16.2342 8.6875 15.2082 8.3797 15.2082 8M9.54019 6.05001C9.54019 7.73449 8.17466 9.10003 6.49018 9.10003C4.8057 9.10003 3.44017 7.73449 3.44017 6.05001C3.44017 4.36554 4.8057 3 6.49018 3C8.17466 3 9.54019 4.36554 9.54019 6.05001ZM1.00001 17.0375C1.00001 14.0014 3.46133 11.54 6.49752 11.54C9.52786 11.54 11.9867 13.9922 11.995 17.0226L11.9992 21.9992C11.9996 22.5518 11.5518 23 10.9992 23H2C1.44771 23 0.999999 22.5523 1 22L1.00001 17.0375ZM13 12H22C22.5523 12 23 11.5523 23 11V2C23 1.44772 22.5523 1 22 1H13C12.4477 1 12 1.44771 12 2V11C12 11.5523 12.4477 12 13 12Z" stroke="black" stroke-width="1.5" stroke-linecap="round"/>
</g>
<defs>
<clipPath id="clip0_1607_9568">
<rect width="24" height="24" fill="white"/>
</clipPath>
</defs>
</svg>
