<svg width="24" height="24" viewBox="0 0 24 24" fill="none" xmlns="http://www.w3.org/2000/svg">
<g clip-path="url(#clip0_1607_9577)">
<path d="M18.1061 0.257538C17.696 0.198959 17.3161 0.483883 17.2575 0.893934C17.199 1.30398 17.4839 1.68388 17.8939 1.74246L18.1061 0.257538ZM22.3008 1.6144L22.4068 0.871935L22.4068 0.871935L22.3008 1.6144ZM22.3856 1.69925L23.1281 1.59318L23.1281 1.59318L22.3856 1.69925ZM22.2575 6.10607C22.3161 6.51612 22.696 6.80104 23.1061 6.74246C23.5161 6.68388 23.801 6.30399 23.7425 5.89393L22.2575 6.10607ZM16.9101 6.02922C16.6172 6.32211 16.6172 6.79699 16.9101 7.08988C17.203 7.38277 17.6779 7.38277 17.9708 7.08988L16.9101 6.02922ZM7.25 16.0726C7.25 15.6584 6.91421 15.3226 6.5 15.3226C6.08579 15.3226 5.75 15.6584 5.75 16.0726H7.25ZM5.75 23C5.75 23.4142 6.08579 23.75 6.5 23.75C6.91421 23.75 7.25 23.4142 7.25 23H5.75ZM4 20.25C3.58579 20.25 3.25 20.5858 3.25 21C3.25 21.4142 3.58579 21.75 4 21.75V20.25ZM9 21.75C9.41421 21.75 9.75 21.4142 9.75 21C9.75 20.5858 9.41421 20.25 9 20.25V21.75ZM22.3573 1.64268L22.8876 1.11232L22.3573 1.64268ZM13.5 5.75C16.1234 5.75 18.25 7.87665 18.25 10.5L19.75 10.5C19.75 7.04822 16.9518 4.25 13.5 4.25L13.5 5.75ZM8.75 10.5C8.75 7.87665 10.8766 5.75 13.5 5.75L13.5 4.25C10.0482 4.25 7.25 7.04822 7.25 10.5L8.75 10.5ZM13.5 15.25C10.8766 15.25 8.75 13.1234 8.75 10.5L7.25 10.5C7.25 13.9518 10.0482 16.75 13.5 16.75L13.5 15.25ZM13.5 16.75C16.9518 16.75 19.75 13.9518 19.75 10.5L18.25 10.5C18.25 13.1234 16.1234 15.25 13.5 15.25L13.5 16.75ZM17.8939 1.74246L22.1947 2.35686L22.4068 0.871935L18.1061 0.257538L17.8939 1.74246ZM21.6431 1.80531L22.2575 6.10607L23.7425 5.89393L23.1281 1.59318L21.6431 1.80531ZM11.25 10.5C11.25 13.1234 9.12335 15.25 6.5 15.25L6.5 16.75C9.95178 16.75 12.75 13.9518 12.75 10.5L11.25 10.5ZM6.5 5.75C9.12335 5.75 11.25 7.87665 11.25 10.5L12.75 10.5C12.75 7.04822 9.95178 4.25 6.5 4.25L6.5 5.75ZM1.75 10.5C1.75 7.87665 3.87665 5.75 6.5 5.75L6.5 4.25C3.04822 4.25 0.25 7.04822 0.25 10.5L1.75 10.5ZM0.25 10.5C0.25 13.9518 3.04822 16.75 6.5 16.75L6.5 15.25C3.87665 15.25 1.75 13.1234 1.75 10.5L0.25 10.5ZM5.75 16.0726V23H7.25V16.0726H5.75ZM4 21.75H9V20.25H4V21.75ZM22.1947 2.35686C22.0518 2.33644 21.9237 2.26975 21.827 2.17303L22.8876 1.11232C22.761 0.98575 22.5937 0.898635 22.4068 0.871935L22.1947 2.35686ZM21.827 2.17303C21.7303 2.0763 21.6636 1.94824 21.6431 1.80532L23.1281 1.59318C23.1014 1.40625 23.0142 1.23892 22.8876 1.11232L21.827 2.17303ZM17.9708 7.08988L22.8877 2.17301L21.827 1.11235L16.9101 6.02922L17.9708 7.08988Z" fill="black"/>
</g>
<defs>
<clipPath id="clip0_1607_9577">
<rect width="24" height="24" fill="white"/>
</clipPath>
</defs>
</svg>
