<svg width="24" height="24" viewBox="0 0 24 24" fill="none" xmlns="http://www.w3.org/2000/svg">
<g clip-path="url(#clip0_1607_9586)">
<path d="M13.1061 0.257538C12.696 0.198959 12.3161 0.483883 12.2575 0.893934C12.199 1.30398 12.4839 1.68388 12.8939 1.74246L13.1061 0.257538ZM16.4258 1.4894L16.5318 0.746934L16.5318 0.746934L16.4258 1.4894ZM16.5106 1.57425L15.7681 1.68031L15.7681 1.68031L16.5106 1.57425ZM16.2575 5.10607C16.3161 5.51612 16.696 5.80104 17.1061 5.74246C17.5161 5.68388 17.801 5.30399 17.7425 4.89393L16.2575 5.10607ZM10.5395 6.39986C10.2466 6.69275 10.2466 7.16762 10.5395 7.46052C10.8324 7.75341 11.3072 7.75341 11.6001 7.46052L10.5395 6.39986ZM16.2923 2.76835C16.5852 2.47546 16.5852 2.00058 16.2923 1.70769C15.9994 1.4148 15.5245 1.4148 15.2316 1.70769L16.2923 2.76835ZM19.1061 6.25754C18.696 6.19896 18.3161 6.48388 18.2575 6.89393C18.199 7.30398 18.4839 7.68388 18.8939 7.74246L19.1061 6.25754ZM22.4258 7.4894L22.5318 6.74693L22.5318 6.74693L22.4258 7.4894ZM22.5106 7.57425L21.7681 7.68031L21.7681 7.68031L22.5106 7.57425ZM22.2575 11.1061C22.3161 11.5161 22.696 11.801 23.1061 11.7425C23.5161 11.6839 23.801 11.304 23.7425 10.8939L22.2575 11.1061ZM16.5395 12.3999C16.2466 12.6927 16.2466 13.1676 16.5395 13.4605C16.8324 13.7534 17.3072 13.7534 17.6001 13.4605L16.5395 12.3999ZM22.2923 8.76835C22.5852 8.47546 22.5852 8.00058 22.2923 7.70769C21.9994 7.4148 21.5245 7.4148 21.2316 7.70769L22.2923 8.76835ZM6.86667 6.01667C9.69252 6.01667 11.9833 8.30747 11.9833 11.1333L13.4833 11.1333C13.4833 7.47905 10.5209 4.51667 6.86667 4.51667L6.86667 6.01667ZM1.75 11.1333C1.75 8.30748 4.04081 6.01667 6.86667 6.01667L6.86667 4.51667C3.21238 4.51667 0.25 7.47905 0.25 11.1333L1.75 11.1333ZM6.86667 16.25C4.04081 16.25 1.75 13.9592 1.75 11.1333L0.25 11.1333C0.25 14.7876 3.21238 17.75 6.86667 17.75L6.86667 16.25ZM6.86667 17.75C10.521 17.75 13.4833 14.7876 13.4833 11.1333L11.9833 11.1333C11.9833 13.9592 9.69252 16.25 6.86667 16.25L6.86667 17.75ZM12.8939 1.74246L16.3197 2.23186L16.5318 0.746934L13.1061 0.257538L12.8939 1.74246ZM15.7681 1.68031L16.2575 5.10607L17.7425 4.89393L17.2531 1.46818L15.7681 1.68031ZM16.3197 2.23186C16.0337 2.191 15.809 1.96631 15.7681 1.68031L17.2531 1.46819C17.1996 1.0942 16.9058 0.800359 16.5318 0.746934L16.3197 2.23186ZM11.6001 7.46052L16.2923 2.76835L15.2316 1.70769L10.5395 6.39986L11.6001 7.46052ZM12.8667 12.0167C15.6925 12.0167 17.9833 14.3075 17.9833 17.1333L19.4833 17.1333C19.4833 13.479 16.521 10.5167 12.8667 10.5167L12.8667 12.0167ZM7.75 17.1333C7.75 14.3075 10.0408 12.0167 12.8667 12.0167L12.8667 10.5167C9.21238 10.5167 6.25 13.479 6.25 17.1333L7.75 17.1333ZM12.8667 22.25C10.0408 22.25 7.75 19.9592 7.75 17.1333L6.25 17.1333C6.25 20.7876 9.21238 23.75 12.8667 23.75L12.8667 22.25ZM12.8667 23.75C16.521 23.75 19.4833 20.7876 19.4833 17.1333L17.9833 17.1333C17.9833 19.9592 15.6925 22.25 12.8667 22.25L12.8667 23.75ZM18.8939 7.74246L22.3197 8.23186L22.5318 6.74693L19.1061 6.25754L18.8939 7.74246ZM21.7681 7.68031L22.2575 11.1061L23.7425 10.8939L23.2531 7.46818L21.7681 7.68031ZM22.3197 8.23186C22.0337 8.191 21.809 7.9663 21.7681 7.68031L23.2531 7.46819C23.1996 7.0942 22.9058 6.80036 22.5318 6.74693L22.3197 8.23186ZM17.6001 13.4605L22.2923 8.76835L21.2316 7.70769L16.5395 12.3999L17.6001 13.4605Z" fill="black"/>
</g>
<defs>
<clipPath id="clip0_1607_9586">
<rect width="24" height="24" fill="white"/>
</clipPath>
</defs>
</svg>
