<svg width="24" height="24" viewBox="0 0 24 24" fill="none" xmlns="http://www.w3.org/2000/svg">
<path d="M1.07648 7.83494C1.03219 7.35179 1.34111 6.90656 1.80919 6.7789L11.7368 4.07137C11.9091 4.02439 12.0908 4.02439 12.263 4.07137L22.1906 6.7789C22.6587 6.90656 22.9676 7.35179 22.9233 7.83494L21.9644 18.296C21.9323 18.6465 21.5712 18.8668 21.2448 18.7349C15.3144 16.3388 8.68538 16.3388 2.75499 18.7349C2.42865 18.8668 2.06754 18.6465 2.03541 18.296L1.07648 7.83494Z" stroke="black" stroke-width="1.5"/>
<path d="M13.3332 7.49961C13.3332 6.94732 12.8855 6.49961 12.3332 6.49961H11.6666C11.1143 6.49961 10.6666 6.94732 10.6666 7.49961V9.06628C10.6666 9.12151 10.6218 9.16628 10.5666 9.16628L8.99991 9.16628C8.44762 9.16628 7.99991 9.61399 7.99991 10.1663V10.8329C7.99991 11.3852 8.44762 11.8329 8.99991 11.8329H10.5666C10.6218 11.8329 10.6666 11.8777 10.6666 11.9329V13.4996C10.6666 14.0519 11.1143 14.4996 11.6666 14.4996H12.3332C12.8855 14.4996 13.3332 14.0519 13.3332 13.4996V11.9329C13.3332 11.8777 13.378 11.8329 13.4332 11.8329H14.9999C15.5522 11.8329 15.9999 11.3852 15.9999 10.8329V10.1663C15.9999 9.61399 15.5522 9.16628 14.9999 9.16628H13.4332C13.378 9.16628 13.3332 9.12151 13.3332 9.06628V7.49961Z" stroke="black" stroke-width="1.5"/>
</svg>
