<svg width="24" height="24" viewBox="0 0 24 24" fill="none" xmlns="http://www.w3.org/2000/svg">
<path d="M9 13.5L11.3598 15.4665C11.7307 15.7756 12.2693 15.7756 12.6402 15.4665L15 13.5M15.5 17V18M16.4995 5.5C16.4995 7.98528 14.4848 10 11.9995 10C9.51423 10 7.49951 7.98528 7.49951 5.5C7.49951 3.01472 9.51423 1 11.9995 1C14.4848 1 16.4995 3.01472 16.4995 5.5ZM2 22.8995C2.05391 17.423 6.51019 13 11.9995 13C17.4888 13 21.9451 17.423 21.999 22.8995C21.9996 22.9548 21.9547 23 21.8995 23H2.09951C2.04428 23 1.99946 22.9548 2 22.8995ZM17.5 19V19.5C17.5 20.0523 17.0523 20.5 16.5 20.5H14.5C13.9477 20.5 13.5 20.0523 13.5 19.5V19C13.5 18.4477 13.9477 18 14.5 18L16.5 18C17.0523 18 17.5 18.4477 17.5 19Z" stroke="black" stroke-width="1.5" stroke-linecap="round"/>
</svg>
