<svg width="24" height="24" viewBox="0 0 24 24" fill="none" xmlns="http://www.w3.org/2000/svg">
<g clip-path="url(#clip0_1607_9613)">
<path d="M11.6133 21C11.6133 21.4142 11.9491 21.75 12.3633 21.75C12.7775 21.75 13.1133 21.4142 13.1133 21L11.6133 21ZM12.3633 17.1591C11.9491 17.1591 11.6133 17.4949 11.6133 17.9091C11.6133 18.3233 11.9491 18.6591 12.3633 18.6591V17.1591ZM15.9638 17.7916L15.2464 18.0104L15.2465 18.0107L15.9638 17.7916ZM7.97682 21C7.97682 21.4142 8.3126 21.75 8.72682 21.75C9.14103 21.75 9.47682 21.4142 9.47682 21L7.97682 21ZM8.72681 18.6591C9.14102 18.6591 9.47681 18.3233 9.47681 17.9091C9.47681 17.4949 9.14102 17.1591 8.72681 17.1591V18.6591ZM5.12376 17.7931L5.84463 18.0001L5.84476 17.9997L5.12376 17.7931ZM13.1133 12.091C13.1133 11.6767 12.7775 11.341 12.3633 11.341C11.9491 11.341 11.6133 11.6767 11.6133 12.091L13.1133 12.091ZM9.47681 12.091C9.47681 11.6767 9.14102 11.341 8.72681 11.341C8.31259 11.341 7.97681 11.6767 7.97681 12.091L9.47681 12.091ZM1.45459 20.9087L2.20456 20.916L2.20456 20.916L1.45459 20.9087ZM18.4198 16.4545L19.069 16.079L18.4198 16.4545ZM19.8586 22.5096L20.3889 23.0399L20.3889 23.0399L19.8586 22.5096ZM17.4906 20.1415L18.0209 20.6719L18.0209 20.6719L17.4906 20.1415ZM20.1417 17.4904L19.6113 16.9601L19.6113 16.9601L20.1417 17.4904ZM22.5097 19.8585L23.04 20.3888L23.04 20.3888L22.5097 19.8585ZM14.4361 12.7816L14.7575 12.1039L14.7575 12.1039L14.4361 12.7816ZM12.3633 18.6591H15.8768V17.1591H12.3633V18.6591ZM15.8768 18.6591C16.4419 18.6591 16.8461 18.1129 16.681 17.5725L15.2465 18.0107C15.1171 17.5872 15.4339 17.1591 15.8768 17.1591V18.6591ZM8.72681 17.1591H5.21114V18.6591H8.72681V17.1591ZM5.21114 17.1591C5.6494 17.1591 5.96559 17.5789 5.84463 18.0001L4.4029 17.5861C4.24857 18.1235 4.65199 18.6591 5.21114 18.6591V17.1591ZM13.886 5.09091C13.886 6.93604 12.3902 8.43182 10.5451 8.43182V9.93182C13.2186 9.93182 15.386 7.76447 15.386 5.09091H13.886ZM10.5451 8.43182C8.69992 8.43182 7.20415 6.93604 7.20415 5.09091H5.70415C5.70415 7.76447 7.87149 9.93182 10.5451 9.93182V8.43182ZM7.20415 5.09091C7.20415 3.24578 8.69992 1.75 10.5451 1.75V0.25C7.87149 0.25 5.70415 2.41735 5.70415 5.09091H7.20415ZM10.5451 1.75C12.3902 1.75 13.886 3.24578 13.886 5.09091H15.386C15.386 2.41735 13.2186 0.25 10.5451 0.25V1.75ZM0.704631 20.9013C0.700029 21.3688 1.07797 21.75 1.54505 21.75V20.25C1.91172 20.25 2.20817 20.549 2.20456 20.916L0.704631 20.9013ZM17.0319 20.25H1.54505V21.75H17.0319V20.25ZM17.7706 16.8301C18.0819 17.3684 18.3348 17.9445 18.5205 18.5497L19.9545 18.1097C19.7351 17.3946 19.4364 16.7142 19.069 16.079L17.7706 16.8301ZM16.9602 23.0399C17.907 23.9867 19.4421 23.9867 20.3889 23.0399L19.3283 21.9792C18.9672 22.3403 18.3819 22.3403 18.0209 21.9792L16.9602 23.0399ZM16.9602 19.6112C16.0134 20.558 16.0134 22.0931 16.9602 23.0399L18.0209 21.9792C17.6599 21.6182 17.6599 21.0329 18.0209 20.6719L16.9602 19.6112ZM23.04 16.9601C22.0932 16.0133 20.5581 16.0133 19.6113 16.9601L20.672 18.0208C21.033 17.6597 21.6183 17.6597 21.9794 18.0208L23.04 16.9601ZM21.9794 18.0208C22.3404 18.3818 22.3404 18.9671 21.9794 19.3281L23.04 20.3888C23.9868 19.442 23.9868 17.9069 23.04 16.9601L21.9794 18.0208ZM2.20456 20.916C2.23657 17.6635 4.13047 14.8548 6.87492 13.5077L6.21397 12.1611C2.97985 13.7486 0.74243 17.0609 0.704631 20.9013L2.20456 20.916ZM6.87492 13.5077C7.98155 12.9645 9.22657 12.6591 10.5451 12.6591V11.1591C8.99242 11.1591 7.52176 11.5192 6.21397 12.1611L6.87492 13.5077ZM5.84476 17.9997L7.26544 13.041L5.82345 12.6278L4.40277 17.5865L5.84476 17.9997ZM10.5451 12.6591C11.8239 12.6591 13.0335 12.9464 14.1147 13.4592L14.7575 12.1039C13.4796 11.4978 12.0509 11.1591 10.5451 11.1591V12.6591ZM14.1147 13.4592C15.6479 14.1864 16.9248 15.3681 17.7706 16.8301L19.069 16.079C18.0718 14.3551 16.5668 12.962 14.7575 12.1039L14.1147 13.4592ZM16.6811 17.5729L15.1535 12.5628L13.7187 13.0003L15.2464 18.0104L16.6811 17.5729ZM11.6133 12.091L11.6133 21L13.1133 21L13.1133 12.091L11.6133 12.091ZM7.97681 12.091L7.97682 21L9.47682 21L9.47681 12.091L7.97681 12.091ZM19.6113 16.9601L18.2858 18.2857L19.3464 19.3463L20.672 18.0208L19.6113 16.9601ZM18.2858 18.2857L16.9602 19.6112L18.0209 20.6719L19.3464 19.3463L18.2858 18.2857ZM20.3889 23.0399L21.7145 21.7143L20.6538 20.6537L19.3283 21.9792L20.3889 23.0399ZM21.7145 21.7143L23.04 20.3888L21.9794 19.3281L20.6538 20.6537L21.7145 21.7143ZM21.7145 20.6537L19.3464 18.2857L18.2858 19.3463L20.6538 21.7143L21.7145 20.6537Z" fill="black"/>
</g>
<defs>
<clipPath id="clip0_1607_9613">
<rect width="24" height="24" fill="white"/>
</clipPath>
</defs>
</svg>
