<svg width="24" height="24" viewBox="0 0 24 24" fill="none" xmlns="http://www.w3.org/2000/svg">
<path d="M16.2123 5.22703C15.9194 5.51992 15.9194 5.9948 16.2123 6.28769C16.5052 6.58058 16.9801 6.58058 17.273 6.28769L16.2123 5.22703ZM22.0303 1.53033C22.3232 1.23744 22.3232 0.762563 22.0303 0.46967C21.7374 0.176777 21.2626 0.176777 20.9697 0.46967L22.0303 1.53033ZM11.75 22.9959C11.7477 23.4101 12.0817 23.7477 12.4959 23.75C12.9101 23.7523 13.2477 23.4183 13.25 23.0041L11.75 22.9959ZM9.5 20.25C9.08579 20.25 8.75 20.5858 8.75 21C8.75 21.4142 9.08579 21.75 9.5 21.75V20.25ZM15.5 21.75C15.9142 21.75 16.25 21.4142 16.25 21C16.25 20.5858 15.9142 20.25 15.5 20.25V21.75ZM20.9403 5.06586C21.2332 5.35876 21.708 5.35876 22.0009 5.06586C22.2938 4.77297 22.2938 4.2981 22.0009 4.0052L20.9403 5.06586ZM18.4654 0.46967C18.1725 0.176777 17.6976 0.176777 17.4047 0.46967C17.1118 0.762563 17.1118 1.23744 17.4047 1.53033L18.4654 0.46967ZM7.60607 1.74246C8.01612 1.68388 8.30104 1.30398 8.24246 0.893934C8.18388 0.483883 7.80398 0.198959 7.39393 0.257538L7.60607 1.74246ZM3.19924 1.6144L3.09318 0.871935L3.09318 0.871935L3.19924 1.6144ZM3.11439 1.69925L2.37193 1.59318L2.37193 1.59318L3.11439 1.69925ZM1.75754 5.89393C1.69896 6.30399 1.98388 6.68388 2.39393 6.74246C2.80399 6.80104 3.18388 6.51612 3.24246 6.10607L1.75754 5.89393ZM7.00561 7.07896C7.27981 7.38942 7.75377 7.41882 8.06424 7.14462C8.3747 6.87043 8.4041 6.39646 8.12991 6.086L7.00561 7.07896ZM17.273 6.28769L22.0303 1.53033L20.9697 0.46967L16.2123 5.22703L17.273 6.28769ZM17.75 10C17.75 12.912 15.4254 15.2884 12.5384 15.2884L12.5384 16.7884C16.2787 16.7884 19.25 13.7154 19.25 10L17.75 10ZM12.5 4.75C15.3995 4.75 17.75 7.1005 17.75 10L19.25 10C19.25 6.27208 16.2279 3.25 12.5 3.25L12.5 4.75ZM7.25 10C7.25 7.1005 9.6005 4.75 12.5 4.75L12.5 3.25C8.77208 3.25 5.75 6.27208 5.75 10L7.25 10ZM5.75 10C5.75 13.7279 8.81045 16.7884 12.5384 16.7884L12.5384 15.2884C9.63888 15.2884 7.25 12.8995 7.25 10L5.75 10ZM11.7884 16.0342L11.75 22.9959L13.25 23.0041L13.2884 16.0425L11.7884 16.0342ZM9.5 21.75H15.5V20.25H9.5V21.75ZM22.0009 4.0052L18.4654 0.46967L17.4047 1.53033L20.9403 5.06586L22.0009 4.0052ZM7.39393 0.257538L3.09318 0.871935L3.30531 2.35686L7.60607 1.74246L7.39393 0.257538ZM2.37193 1.59318L1.75754 5.89393L3.24246 6.10607L3.85685 1.80532L2.37193 1.59318ZM3.09318 0.871935C3.04685 0.878553 3.00148 0.888934 2.95747 0.902825L3.40902 2.33325C3.37533 2.34388 3.34065 2.35181 3.30531 2.35686L3.09318 0.871935ZM2.95747 0.902825C2.64972 0.999974 2.41873 1.2656 2.37193 1.59318L3.85685 1.80532C3.82105 2.05589 3.64439 2.25895 3.40902 2.33325L2.95747 0.902825ZM8.12991 6.086L3.74539 1.12156L2.6211 2.11451L7.00561 7.07896L8.12991 6.086Z" fill="black"/>
</svg>
