<svg width="24" height="24" viewBox="0 0 24 24" fill="none" xmlns="http://www.w3.org/2000/svg">
<path fill-rule="evenodd" clip-rule="evenodd" d="M22.1686 1.83147C21.0599 0.722843 19.2625 0.722843 18.1539 1.83147L5.70059 14.2848L2.82004 13.6675C1.19829 13.32 0.29612 15.4734 1.68131 16.3856L5.2586 18.7414L7.61437 22.3187C8.52657 23.7039 10.68 22.8017 10.3325 21.18L9.71526 18.2995L22.1686 5.84616C23.2772 4.73754 23.2772 2.9401 22.1686 1.83147ZM19.2403 3.98476C18.9475 3.69201 18.4729 3.69201 18.1801 3.98477C17.8874 4.27752 17.8874 4.75216 18.1801 5.04491L18.9551 5.81987C19.2479 6.11262 19.7225 6.11262 20.0152 5.81987C20.308 5.52712 20.308 5.05248 20.0152 4.75972L19.2403 3.98476Z" fill="black"/>
<path d="M14.4205 15.7146L17.6151 19.974C19.297 22.2166 22.8025 20.2466 21.7614 17.6438L19.1128 11.0222L14.4205 15.7146Z" fill="black"/>
<path d="M12.9778 4.88727L6.35626 2.23867C3.75348 1.19756 1.78342 4.70304 4.02604 6.38501L8.28547 9.57957L12.9778 4.88727Z" fill="black"/>
</svg>
