<svg width="24" height="24" viewBox="0 0 24 24" fill="none" xmlns="http://www.w3.org/2000/svg">
<path d="M7 4C7 5.65685 5.65685 7 4 7C2.34315 7 1 5.65685 1 4C1 2.34315 2.34315 1 4 1C5.65685 1 7 2.34315 7 4Z" fill="black"/>
<path d="M15 4C15 5.65685 13.6569 7 12 7C10.3431 7 9 5.65685 9 4C9 2.34315 10.3431 1 12 1C13.6569 1 15 2.34315 15 4Z" fill="black"/>
<path d="M23 4C23 5.65685 21.6569 7 20 7C18.3431 7 17 5.65685 17 4C17 2.34315 18.3431 1 20 1C21.6569 1 23 2.34315 23 4Z" fill="black"/>
<path d="M7 12C7 13.6569 5.65685 15 4 15C2.34315 15 1 13.6569 1 12C1 10.3431 2.34315 9 4 9C5.65685 9 7 10.3431 7 12Z" fill="black"/>
<path d="M15 12C15 13.6569 13.6569 15 12 15C10.3431 15 9 13.6569 9 12C9 10.3431 10.3431 9 12 9C13.6569 9 15 10.3431 15 12Z" fill="black"/>
<path d="M23 12C23 13.6569 21.6569 15 20 15C18.3431 15 17 13.6569 17 12C17 10.3431 18.3431 9 20 9C21.6569 9 23 10.3431 23 12Z" fill="black"/>
<path d="M7 20C7 21.6569 5.65685 23 4 23C2.34315 23 1 21.6569 1 20C1 18.3431 2.34315 17 4 17C5.65685 17 7 18.3431 7 20Z" fill="black"/>
<path d="M15 20C15 21.6569 13.6569 23 12 23C10.3431 23 9 21.6569 9 20C9 18.3431 10.3431 17 12 17C13.6569 17 15 18.3431 15 20Z" fill="black"/>
<path d="M23 20C23 21.6569 21.6569 23 20 23C18.3431 23 17 21.6569 17 20C17 18.3431 18.3431 17 20 17C21.6569 17 23 18.3431 23 20Z" fill="black"/>
</svg>
