<svg width="24" height="24" viewBox="0 0 24 24" fill="none" xmlns="http://www.w3.org/2000/svg">
<path d="M1 3C1 2.44772 1.44772 2 2 2H22C22.5523 2 23 2.44772 23 3V6C23 6.55228 22.5523 7 22 7H2C1.44772 7 1 6.55228 1 6V3Z" fill="black"/>
<path fill-rule="evenodd" clip-rule="evenodd" d="M2.6 8.5C2.54477 8.5 2.5 8.54477 2.5 8.6V21C2.5 21.5523 2.94771 22 3.5 22H20.5C21.0523 22 21.5 21.5523 21.5 21V8.6C21.5 8.54477 21.4552 8.5 21.4 8.5H2.6ZM8.25 12C8.25 11.5858 8.58579 11.25 9 11.25H15C15.4142 11.25 15.75 11.5858 15.75 12C15.75 12.4142 15.4142 12.75 15 12.75H9C8.58579 12.75 8.25 12.4142 8.25 12Z" fill="black"/>
</svg>
