<svg width="24" height="24" viewBox="0 0 24 24" fill="none" xmlns="http://www.w3.org/2000/svg">
<path d="M4.03089 1.56919C4.43639 0.81027 5.5636 0.810268 5.96911 1.56919L6.92914 3.36596C6.94007 3.38642 6.95769 3.40285 6.97927 3.41272L8.37806 4.05266C9.20731 4.43204 9.20731 5.56797 8.37806 5.94734L6.97927 6.58728C6.95769 6.59715 6.94007 6.61358 6.92914 6.63404L5.96911 8.43081C5.5636 9.18973 4.4364 9.18973 4.03089 8.43081L3.07086 6.63404C3.05993 6.61358 3.04231 6.59715 3.02073 6.58728L1.62194 5.94734C0.792685 5.56796 0.792687 4.43203 1.62194 4.05266L3.02073 3.41272C3.04231 3.40285 3.05993 3.38642 3.07086 3.36596L4.03089 1.56919Z" fill="black"/>
<path d="M13.5252 4.6282C13.8833 3.7906 15.1167 3.7906 15.4748 4.62819L18.0601 10.6748C18.0704 10.6987 18.0898 10.718 18.1143 10.7287L22.3788 12.5756C23.2071 12.9344 23.2071 14.0656 22.3788 14.4244L18.1143 16.2713C18.0898 16.282 18.0704 16.3013 18.0601 16.3252L15.4748 22.3718C15.1167 23.2094 13.8833 23.2094 13.5252 22.3718L10.9399 16.3252C10.9296 16.3013 10.9102 16.282 10.8857 16.2713L6.62125 14.4244C5.79292 14.0656 5.79292 12.9344 6.62125 12.5756L10.8857 10.7287C10.9102 10.718 10.9296 10.6987 10.9399 10.6748L13.5252 4.6282Z" fill="black"/>
</svg>
