<svg width="24" height="24" viewBox="0 0 24 24" fill="none" xmlns="http://www.w3.org/2000/svg">
<path fill-rule="evenodd" clip-rule="evenodd" d="M3 6C1.89543 6 1 6.89543 1 8V16C1 17.1046 1.89543 18 3 18H19C20.1046 18 21 17.1046 21 16V15H22C22.5523 15 23 14.5523 23 14V10C23 9.44772 22.5523 9 22 9H21V8C21 6.89543 20.1046 6 19 6H3ZM11 8.25C11.4142 8.25 11.75 8.58579 11.75 9V12.5C11.75 12.9142 11.4142 13.25 11 13.25C10.5858 13.25 10.25 12.9142 10.25 12.5V9C10.25 8.58579 10.5858 8.25 11 8.25ZM11.75 15C11.75 14.5858 11.4142 14.25 11 14.25C10.5858 14.25 10.25 14.5858 10.25 15V15.0457C10.25 15.4599 10.5858 15.7957 11 15.7957C11.4142 15.7957 11.75 15.4599 11.75 15.0457V15Z" fill="black"/>
</svg>
