<svg width="24" height="24" viewBox="0 0 24 24" fill="none" xmlns="http://www.w3.org/2000/svg">
<path fill-rule="evenodd" clip-rule="evenodd" d="M7.93005 4.75C7.93005 4.77878 7.93167 4.80718 7.93483 4.83511C5.97849 6.07642 4.68004 8.26157 4.68004 10.75V13.3411C4.68004 13.8307 4.56023 14.3128 4.33106 14.7454L3.23539 16.8138C2.5298 18.1458 3.49538 19.75 5.00274 19.75H7.93005C7.93007 21.821 9.60899 23.5 11.6801 23.5C13.7511 23.5 15.43 21.821 15.4301 19.75H18.3572C19.8646 19.75 20.8302 18.1458 20.1246 16.8138L19.029 14.7457C18.7999 14.3131 18.68 13.831 18.68 13.3414V10.75C18.68 8.26159 17.3816 6.07644 15.4253 4.83513C15.4284 4.80719 15.4301 4.77878 15.4301 4.75V3.75C15.4301 1.67893 13.7511 0 11.6801 0C9.60899 0 7.93005 1.67893 7.93005 3.75V4.75ZM13.9301 19.75H9.43005C9.43007 20.9926 10.4374 22 11.6801 22C12.9227 22 13.93 20.9926 13.9301 19.75ZM13.9301 3.75V4.11946C13.2239 3.87991 12.4671 3.75 11.68 3.75C10.8929 3.75 10.1362 3.87991 9.43005 4.11945V3.75C9.43005 2.50736 10.4374 1.5 11.6801 1.5C12.9227 1.5 13.9301 2.50736 13.9301 3.75Z" fill="black"/>
</svg>
