<svg width="24" height="24" viewBox="0 0 24 24" fill="none" xmlns="http://www.w3.org/2000/svg">
<path fill-rule="evenodd" clip-rule="evenodd" d="M15.4991 8.65006C15.3365 6.25032 13.8426 4.21581 11.75 3.27911V3C11.75 1.48122 10.5188 0.25 9 0.25C7.48122 0.25 6.25 1.48122 6.25 3V3.42756C4.19843 4.48266 2.79508 6.62066 2.79508 9.08643V11.7745C2.79508 11.914 2.73298 12.044 2.65633 12.1606L1.33235 14.1736C0.457672 15.5035 1.41157 17.2726 3.00332 17.2726L5.68325 17.2726V17.3818C5.68325 19.242 7.1912 20.7499 9.05135 20.7499C9.69998 20.7499 10.3054 20.5666 10.819 20.2492C10.5357 19.8379 10.2924 19.3969 10.0947 18.9318C9.79648 19.1328 9.43739 19.2499 9.05135 19.2499C8.01963 19.2499 7.18325 18.4136 7.18325 17.3818V17.2726H9.60753C9.57217 17.0658 9.5453 16.856 9.52726 16.6438C9.50921 16.4316 9.5 16.2169 9.5 16C9.5 16 9.5 16 9.5 16C9.5 12.3719 12.0762 9.34532 15.4991 8.65006ZM9.15445 2.72705C8.67384 2.72705 8.20567 2.78037 7.75555 2.88141C7.81529 2.24667 8.34964 1.75 9 1.75C9.62882 1.75 10.1492 2.21432 10.237 2.81882C9.88516 2.75848 9.52347 2.72705 9.15445 2.72705Z" fill="black"/>
<path fill-rule="evenodd" clip-rule="evenodd" d="M11.0983 17.0876C11.2362 17.8405 11.5146 18.5444 11.9054 19.1709C12.9649 20.8696 14.8504 22 17 22C20.3137 22 23 19.3137 23 16C23 12.6863 20.3137 10 17 10C16.925 10 16.8504 10.0014 16.7761 10.0041C14.0651 10.1036 11.8134 12.0016 11.1788 14.5402C11.062 15.0075 11 15.4965 11 16C11 16.2089 11.0107 16.4153 11.0315 16.6187C11.0477 16.7769 11.0701 16.9333 11.0983 17.0876ZM17 13.25C17.4142 13.25 17.75 13.5858 17.75 14V15.3729L18.608 16.5609C18.8505 16.8967 18.7749 17.3655 18.4391 17.608C18.1033 17.8505 17.6345 17.7749 17.392 17.4391L16.4639 16.1541C16.3249 15.9615 16.25 15.73 16.25 15.4925V14C16.25 13.5858 16.5858 13.25 17 13.25Z" fill="black"/>
</svg>
