<svg width="24" height="24" viewBox="0 0 24 24" fill="none" xmlns="http://www.w3.org/2000/svg">
<path d="M6.07734 2.30394L6 3L5.97409 3.20732C5.25315 3.51285 4.6871 4.13425 4.46912 4.92441L2.08525 13.5658C3.05449 12.8938 4.23125 12.5 5.5 12.5C7.29204 12.5 8.90058 13.2856 10 14.5313V5.83851C10 4.97215 9.61187 4.19645 9 3.67579L9 2.46581C9 1.65627 8.34373 1 7.53419 1C6.78728 1 6.15982 1.56161 6.07734 2.30394Z" fill="black"/>
<path d="M5.5 22.9998H5.5395C8.00659 22.9786 10 20.9721 10 18.5C10 16.0147 7.98528 14 5.5 14C3.01472 14 1 16.0147 1 18.5C1.00009 20.9852 3.01477 22.9998 5.5 22.9998Z" fill="black"/>
<path d="M19.5309 4.92441L21.9147 13.5658C20.9455 12.8938 19.7687 12.5 18.5 12.5C16.708 12.5 15.0994 13.2856 14 14.5313V5.83851C14 4.97215 14.3881 4.19645 15 3.67579V2.46581C15 1.65627 15.6563 1 16.4658 1C17.2127 1 17.8402 1.56161 17.9227 2.30394L18 3L18.0259 3.20732C18.7469 3.51285 19.3129 4.13425 19.5309 4.92441Z" fill="black"/>
<path d="M18.5 14C20.9853 14 23 16.0147 23 18.5C23 18.5582 22.9989 18.6161 22.9967 18.6738C22.9053 21.0784 20.927 22.9998 18.5 22.9998H18.4605C15.9934 22.9786 14 20.9721 14 18.5C14 16.0147 16.0147 14 18.5 14Z" fill="black"/>
<path d="M13.2553 16.75H10.7477V15.25H13.2553V16.75Z" fill="black"/>
<path d="M10.75 9.47215V13.0394L10.848 13.015C11.6043 12.8259 12.3957 12.8259 13.152 13.015L13.25 13.0394V9.47215C12.4502 9.13884 11.5498 9.13884 10.75 9.47215Z" fill="black"/>
</svg>
