<svg width="24" height="24" viewBox="0 0 24 24" fill="none" xmlns="http://www.w3.org/2000/svg">
<g clip-path="url(#clip0_1607_5668)">
<path fill-rule="evenodd" clip-rule="evenodd" d="M12.565 3.04879V10.2984L16.5491 6.3822L12.565 3.04879ZM10.558 9.72292V1.11185C10.558 0.171329 11.6489 -0.342795 12.368 0.258888L18.6023 5.47501C19.1052 5.8958 19.1357 6.66154 18.6679 7.12143C18.6679 7.12143 18.6679 7.12143 18.6678 7.12143L13.3477 12.3509L18.6451 17.341C19.1445 17.8114 19.1021 18.6206 18.5563 19.0357L12.3279 23.7732L11.7224 22.9687L12.3279 23.7732C11.6008 24.3263 10.558 23.8049 10.558 22.8883V15.0931L6.70511 18.8803C6.30883 19.2698 5.67347 19.2627 5.286 18.8643C4.89853 18.4659 4.90567 17.8272 5.30195 17.4377L10.4454 12.3819L5.31736 7.55131C4.91293 7.17034 4.89229 6.53191 5.27125 6.12535C5.65021 5.71878 6.28527 5.69803 6.68969 6.079L10.558 9.72292ZM12.565 14.3786V21.0627L16.4908 18.0767L12.565 14.3786ZM17.3444 17.4274L17.3453 17.4267L17.8903 18.1508L17.3453 17.4267C17.345 17.4269 17.3447 17.4272 17.3444 17.4274Z" fill="black"/>
</g>
<defs>
<clipPath id="clip0_1607_5668">
<rect width="24" height="24" fill="white"/>
</clipPath>
</defs>
</svg>
