<svg width="24" height="24" viewBox="0 0 24 24" fill="none" xmlns="http://www.w3.org/2000/svg">
<path fill-rule="evenodd" clip-rule="evenodd" d="M11.25 4.35271C11.25 4.32223 11.2361 4.29337 11.2121 4.27459C10.1621 3.45298 8.86177 3 7.51472 3H0.499999C0.223857 3 0 3.22386 0 3.5V19.3C0 19.5761 0.223858 19.8 0.5 19.8H7.51472C8.80814 19.8 10.0585 20.2194 11.0855 20.98C11.1528 21.0298 11.25 20.9837 11.25 20.9V4.35271ZM2.25 8C2.25 7.58579 2.58579 7.25 3 7.25H5C5.41421 7.25 5.75 7.58579 5.75 8C5.75 8.41421 5.41421 8.75 5 8.75H3C2.58579 8.75 2.25 8.41421 2.25 8ZM2.25 12C2.25 11.5858 2.58579 11.25 3 11.25H8C8.41421 11.25 8.75 11.5858 8.75 12C8.75 12.4142 8.41421 12.75 8 12.75H3C2.58579 12.75 2.25 12.4142 2.25 12ZM2.25 16C2.25 15.5858 2.58579 15.25 3 15.25H8C8.41421 15.25 8.75 15.5858 8.75 16C8.75 16.4142 8.41421 16.75 8 16.75H3C2.58579 16.75 2.25 16.4142 2.25 16Z" fill="black"/>
<path fill-rule="evenodd" clip-rule="evenodd" d="M12.75 4.35271C12.75 4.32223 12.7639 4.29337 12.7879 4.27459C13.8379 3.45298 15.1382 3 16.4853 3H23.5C23.7761 3 24 3.22386 24 3.5V19.3C24 19.5761 23.7761 19.8 23.5 19.8H16.4853C15.1919 19.8 13.9415 20.2194 12.9145 20.98C12.8472 21.0298 12.75 20.9837 12.75 20.9V4.35271ZM16 7.25C15.5858 7.25 15.25 7.58579 15.25 8C15.25 8.41421 15.5858 8.75 16 8.75H21C21.4142 8.75 21.75 8.41421 21.75 8C21.75 7.58579 21.4142 7.25 21 7.25H16ZM16 11.25C15.5858 11.25 15.25 11.5858 15.25 12C15.25 12.4142 15.5858 12.75 16 12.75H21C21.4142 12.75 21.75 12.4142 21.75 12C21.75 11.5858 21.4142 11.25 21 11.25H16ZM16 15.25C15.5858 15.25 15.25 15.5858 15.25 16C15.25 16.4142 15.5858 16.75 16 16.75H21C21.4142 16.75 21.75 16.4142 21.75 16C21.75 15.5858 21.4142 15.25 21 15.25H16Z" fill="black"/>
</svg>
