<svg width="24" height="24" viewBox="0 0 24 24" fill="none" xmlns="http://www.w3.org/2000/svg">
<path d="M6.25 1.75C6.25 1.33579 5.91421 1 5.5 1C5.08579 1 4.75 1.33579 4.75 1.75V3H2C1.44772 3 1 3.44772 1 4V8.9C1 8.95523 1.04477 9 1.1 9H22.9C22.9552 9 23 8.95523 23 8.9L23 4C23 3.44772 22.5523 3 22 3H19.25V1.75C19.25 1.33579 18.9142 1 18.5 1C18.0858 1 17.75 1.33579 17.75 1.75V3H6.25V1.75Z" fill="black"/>
<path fill-rule="evenodd" clip-rule="evenodd" d="M22.9 10.5C22.9552 10.5 23 10.5448 23 10.6V22C23 22.5523 22.5523 23 22 23H2C1.44772 23 1 22.5523 1 22V10.6C1 10.5448 1.04477 10.5 1.1 10.5H22.9ZM13.6788 13.1393C13.493 12.9536 13.1918 12.9536 13.006 13.1393L8.75949 17.3859C8.67801 17.4673 8.62888 17.5756 8.62121 17.6906L8.50108 19.4926C8.48193 19.7798 8.7202 20.0181 9.00738 19.9989L10.8094 19.8788C10.9244 19.8711 11.0327 19.822 11.1141 19.7405L15.3607 15.494C15.5464 15.3082 15.5464 15.007 15.3607 14.8212L13.6788 13.1393Z" fill="black"/>
</svg>
