<svg width="24" height="24" viewBox="0 0 24 24" fill="none" xmlns="http://www.w3.org/2000/svg">
<path d="M5.40002 0C5.81424 0 6.15002 0.335786 6.15002 0.75V2.53748H17.85V0.75C17.85 0.335786 18.1858 0 18.6 0C19.0142 0 19.35 0.335786 19.35 0.75V2.53748H21.5C22.3284 2.53748 23 3.20905 23 4.03748V9.05015H1V4.03747C1 3.20905 1.67157 2.53748 2.5 2.53748H4.65002V0.75C4.65002 0.335786 4.98581 0 5.40002 0Z" fill="black"/>
<path d="M1 10.5502H23V21.5C23 22.3285 22.3284 23 21.5 23H2.5C1.67157 23 1 22.3285 1 21.5V10.5502Z" fill="black"/>
</svg>
