<svg width="24" height="24" viewBox="0 0 24 24" fill="none" xmlns="http://www.w3.org/2000/svg">
<path d="M5.5 1C5.91421 1 6.25 1.33579 6.25 1.75V3H17.75V1.75C17.75 1.33579 18.0858 1 18.5 1C18.9142 1 19.25 1.33579 19.25 1.75V3H22C22.5523 3 23 3.44772 23 4L23 8.9C23 8.95523 22.9552 9 22.9 9H1.1C1.04477 9 1 8.95523 1 8.9V4C1 3.44772 1.44772 3 2 3H4.75V1.75C4.75 1.33579 5.08579 1 5.5 1Z" fill="black"/>
<path fill-rule="evenodd" clip-rule="evenodd" d="M23 22V10.6C23 10.5448 22.9552 10.5 22.9 10.5H1.1C1.04477 10.5 1 10.5448 1 10.6V22C1 22.5523 1.44772 23 2 23H22C22.5523 23 23 22.5523 23 22ZM14.6517 15.659C14.9445 15.3661 14.9445 14.8912 14.6517 14.5983C14.3588 14.3054 13.8839 14.3054 13.591 14.5983L12 16.1893L10.409 14.5983C10.1161 14.3054 9.64124 14.3054 9.34835 14.5983C9.05546 14.8912 9.05546 15.3661 9.34835 15.659L10.9393 17.25L9.34835 18.8409C9.05546 19.1338 9.05546 19.6087 9.34835 19.9016C9.64124 20.1945 10.1161 20.1945 10.409 19.9016L12 18.3106L13.591 19.9016C13.8839 20.1945 14.3588 20.1945 14.6517 19.9016C14.9445 19.6087 14.9445 19.1338 14.6517 18.8409L13.0607 17.25L14.6517 15.659Z" fill="black"/>
</svg>
