<svg width="24" height="24" viewBox="0 0 24 24" fill="none" xmlns="http://www.w3.org/2000/svg">
<path d="M5.39998 0.25C5.81499 0.25 6.15143 0.586436 6.15143 1.00145L6.15146 5.4016C6.15146 5.81662 5.81502 6.15305 5.40001 6.15305C5.03681 6.15305 4.7338 5.89539 4.66379 5.55289C4.66242 5.54621 4.66114 5.53949 4.65995 5.53273C4.65244 5.4901 4.64852 5.44624 4.64852 5.40145V1.00145C4.64852 0.586436 4.98496 0.25 5.39998 0.25Z" fill="black"/>
<path d="M18.6 0.25C19.015 0.25 19.3515 0.586436 19.3515 1.00145V5.40145C19.3515 5.43063 19.3498 5.45942 19.3466 5.48774C19.3441 5.50976 19.3406 5.53149 19.3362 5.55289C19.2662 5.89539 18.9632 6.15305 18.6 6.15305C18.185 6.15305 17.8485 5.81662 17.8485 5.4016L17.8486 1.00145C17.8486 0.586436 18.185 0.25 18.6 0.25Z" fill="black"/>
<path d="M7.65436 2.53909H16.3456V5.4016C16.3456 6.64665 17.3549 7.65596 18.6 7.65596C19.845 7.65596 20.8543 6.64665 20.8543 5.4016V2.53909H21.9981C22.5514 2.53909 23 2.98767 23 3.54102V9.26757L1 9.26756V3.54102C1 2.98767 1.44858 2.53909 2.00193 2.53909H3.14565V5.4016C3.14565 6.64665 4.15496 7.65596 5.40001 7.65596C6.64505 7.65596 7.65436 6.64665 7.65436 5.4016V2.53909Z" fill="black"/>
<path fill-rule="evenodd" clip-rule="evenodd" d="M1 10.7705L23 10.7705V21.9997C23 22.5531 22.5514 23.0017 21.9981 23.0017H2.00193C1.44858 23.0017 1 22.5531 1 21.9997V10.7705ZM6.76112 14.0268C6.76112 13.6118 6.42469 13.2754 6.00967 13.2754C5.59466 13.2754 5.25822 13.6118 5.25822 14.0268V14.0586C5.25822 14.4736 5.59466 14.81 6.00967 14.81C6.42469 14.81 6.76112 14.4736 6.76112 14.0586V14.0268ZM6.00967 18.285C6.42469 18.285 6.76112 18.6215 6.76112 19.0365V19.0683C6.76112 19.4833 6.42469 19.8197 6.00967 19.8197C5.59466 19.8197 5.25822 19.4833 5.25822 19.0683V19.0365C5.25822 18.6215 5.59466 18.285 6.00967 18.285ZM18.7843 14.0268C18.7843 13.6118 18.4479 13.2754 18.0329 13.2754C17.6179 13.2754 17.2814 13.6118 17.2814 14.0268V14.0586C17.2814 14.4736 17.6179 14.81 18.0329 14.81C18.4479 14.81 18.7843 14.4736 18.7843 14.0586V14.0268ZM18.0329 18.285C18.4479 18.285 18.7843 18.6215 18.7843 19.0365V19.0683C18.7843 19.4833 18.4479 19.8197 18.0329 19.8197C17.6179 19.8197 17.2814 19.4833 17.2814 19.0683V19.0365C17.2814 18.6215 17.6179 18.285 18.0329 18.285ZM12.7727 14.0268C12.7727 13.6118 12.4363 13.2754 12.0213 13.2754C11.6063 13.2754 11.2698 13.6118 11.2698 14.0268V14.0586C11.2698 14.4736 11.6063 14.81 12.0213 14.81C12.4363 14.81 12.7727 14.4736 12.7727 14.0586V14.0268ZM12.0213 18.285C12.4363 18.285 12.7727 18.6215 12.7727 19.0365V19.0683C12.7727 19.4833 12.4363 19.8197 12.0213 19.8197C11.6063 19.8197 11.2698 19.4833 11.2698 19.0683V19.0365C11.2698 18.6215 11.6063 18.285 12.0213 18.285Z" fill="black"/>
</svg>
