<svg width="24" height="24" viewBox="0 0 24 24" fill="none" xmlns="http://www.w3.org/2000/svg">
<path d="M15 9.75C13.2051 9.75 11.75 11.2051 11.75 13C11.75 14.7949 13.2051 16.25 15 16.25C16.7949 16.25 18.25 14.7949 18.25 13C18.25 11.2051 16.7949 9.75 15 9.75Z" fill="black"/>
<path fill-rule="evenodd" clip-rule="evenodd" d="M1 7.00004C1 6.44775 1.44772 6.00004 2 6.00004H6.25V4.75C6.25 4.33579 6.58579 4 7 4C7.41421 4 7.75 4.33579 7.75 4.75V6.00004H10.385C10.6207 6.00004 10.8489 5.91678 11.0292 5.76494L12.8458 4.2351C13.0261 4.08326 13.2543 4 13.49 4H17.1198C17.3647 4 17.6011 4.08988 17.7842 4.2526L19.4658 5.74744C19.6489 5.91016 19.8853 6.00004 20.1302 6.00004H22C22.5523 6.00004 23 6.44775 23 7.00004V19C23 19.5523 22.5523 20 22 20H2C1.44772 20 1 19.5523 1 19V7.00004ZM3.25 9.5C3.25 8.80964 3.80964 8.25 4.5 8.25C5.19036 8.25 5.75 8.80964 5.75 9.5C5.75 10.1904 5.19036 10.75 4.5 10.75C3.80964 10.75 3.25 10.1904 3.25 9.5ZM10.25 13C10.25 10.3766 12.3766 8.25 15 8.25C17.6234 8.25 19.75 10.3766 19.75 13C19.75 15.6234 17.6234 17.75 15 17.75C12.3766 17.75 10.25 15.6234 10.25 13Z" fill="black"/>
</svg>
