<svg width="24" height="24" viewBox="0 0 24 24" fill="none" xmlns="http://www.w3.org/2000/svg">
<path fill-rule="evenodd" clip-rule="evenodd" d="M15.3366 14.1551C14.3448 14.6939 13.2081 15 12 15C10.6803 15 9.44595 14.6348 8.39241 14C6.35958 12.7751 5 10.5463 5 8C5 4.13401 8.13401 1 12 1C15.866 1 19 4.13401 19 8C19 10.6579 17.5187 12.9698 15.3366 14.1551ZM15.4912 5.43323C15.8042 5.70451 15.838 6.17818 15.5668 6.4912L11.6668 10.9912C11.3965 11.303 10.9252 11.338 10.6119 11.0694L8.51191 9.26944C8.19741 8.99988 8.16099 8.5264 8.43056 8.21191C8.70012 7.89741 9.1736 7.86099 9.48809 8.13056L11.0218 9.44512L14.4332 5.5088C14.7045 5.19579 15.1782 5.16195 15.4912 5.43323Z" fill="black"/>
<path d="M7.25525 20.7027L7.8427 15.4157C9.07176 16.1062 10.4899 16.5 12 16.5C13.5101 16.5 14.9282 16.1062 16.1573 15.4157L16.7447 20.7027C16.8415 21.5733 15.8516 22.1387 15.1509 21.6131L12.6 19.7C12.2444 19.4333 11.7556 19.4333 11.4 19.7L8.84913 21.6131C8.1484 22.1387 7.15852 21.5733 7.25525 20.7027Z" fill="black"/>
</svg>
