<svg width="24" height="24" viewBox="0 0 24 24" fill="none" xmlns="http://www.w3.org/2000/svg">
<path fill-rule="evenodd" clip-rule="evenodd" d="M11.125 0.25C10.2179 0.25 9.46123 0.89416 9.28751 1.75H8C7.0335 1.75 6.25 2.5335 6.25 3.5V4H5C4.44772 4 4 4.44771 4 5V22C4 22.5523 4.44772 23 5 23H19C19.5523 23 20 22.5523 20 22V5C20 4.44772 19.5523 4 19 4H17.75V3.5C17.75 2.5335 16.9665 1.75 16 1.75H14.7125C14.5388 0.89416 13.7821 0.25 12.875 0.25H11.125ZM10.75 2.125C10.75 1.91789 10.9179 1.75 11.125 1.75H12.875C13.0821 1.75 13.25 1.91789 13.25 2.125C13.25 2.74632 13.7537 3.25 14.375 3.25H16C16.1381 3.25 16.25 3.36193 16.25 3.5V5C16.25 5.13807 16.1381 5.25 16 5.25H8C7.86193 5.25 7.75 5.13807 7.75 5V3.5C7.75 3.36193 7.86193 3.25 8 3.25H9.625C10.2463 3.25 10.75 2.74632 10.75 2.125ZM17.2334 11.4912C17.5047 11.1782 17.4709 10.7045 17.1579 10.4332C16.8448 10.162 16.3712 10.1958 16.0999 10.5088L10.9551 16.4451L8.48809 14.3306C8.1736 14.061 7.70012 14.0974 7.43056 14.4119C7.16099 14.7264 7.19741 15.1999 7.51191 15.4694L10.5452 18.0694C10.8585 18.338 11.3299 18.303 11.6001 17.9912L17.2334 11.4912Z" fill="black"/>
</svg>
