<svg width="24" height="24" viewBox="0 0 24 24" fill="none" xmlns="http://www.w3.org/2000/svg">
<path fill-rule="evenodd" clip-rule="evenodd" d="M23 12C23 18.0751 18.0751 23 12 23C5.92487 23 1 18.0751 1 12C1 5.92487 5.92487 1 12 1C18.0751 1 23 5.92487 23 12ZM11.6579 9.43323C11.9709 9.70451 12.0047 10.1782 11.7334 10.4912L7.4001 15.4912C7.12987 15.803 6.65852 15.838 6.34524 15.5694L4.01191 13.5694C3.69741 13.2999 3.66099 12.8264 3.93056 12.5119C4.20012 12.1974 4.6736 12.161 4.98809 12.4306L6.75509 13.9451L10.5999 9.5088C10.8712 9.19579 11.3448 9.16195 11.6579 9.43323ZM20.0667 10.4912C20.338 10.1782 20.3042 9.70451 19.9912 9.43323C19.6782 9.16195 19.2045 9.19579 18.9332 9.5088L15.0884 13.9451L13.3214 12.4306C13.0069 12.161 12.5334 12.1974 12.2639 12.5119C11.9943 12.8264 12.0307 13.2999 12.3452 13.5694L14.6786 15.5694C14.9918 15.838 15.4632 15.803 15.7334 15.4912L20.0667 10.4912Z" fill="black"/>
</svg>
