<svg width="24" height="24" viewBox="0 0 24 24" fill="none" xmlns="http://www.w3.org/2000/svg">
<path d="M11.75 1.75C11.75 1.33579 11.4142 1 11 1C10.5858 1 10.25 1.33579 10.25 1.75V3.50885C10.25 4.10493 10.0135 4.67664 9.59232 5.09849L9.34608 5.34515C8.6442 6.04823 8.24998 7.00109 8.24998 7.99455V8.75C8.24998 9.16421 8.58577 9.5 8.99998 9.5C9.4142 9.5 9.74998 9.16421 9.74998 8.75V7.99455C9.74998 7.39847 9.98651 6.82676 10.4076 6.40491L10.6539 6.15825C11.3558 5.45517 11.75 4.50231 11.75 3.50885V1.75Z" fill="black"/>
<path d="M6.75004 2.75C6.75004 2.33579 6.41426 2 6.00004 2C5.58583 2 5.25004 2.33579 5.25004 2.75L5.25004 3.63199C5.25004 4.03312 5.02341 4.39981 4.66464 4.5792C3.79769 5.01268 3.25006 5.89877 3.25006 6.86805V8.74999C3.25006 9.16421 3.58585 9.49999 4.00006 9.49999C4.41427 9.49999 4.75006 9.16421 4.75006 8.74999V6.86805C4.75006 6.46692 4.97669 6.10023 5.33546 5.92084C6.20241 5.48736 6.75004 4.60127 6.75004 3.632L6.75004 2.75Z" fill="black"/>
<path d="M16 2C16.4142 2 16.75 2.33579 16.75 2.75V3.50736C16.75 4.50192 16.3549 5.45575 15.6517 6.15901L15.409 6.40165C14.9871 6.82361 14.75 7.3959 14.75 7.99264V8.75C14.75 9.16421 14.4142 9.5 14 9.5C13.5858 9.5 13.25 9.16421 13.25 8.75V7.99264C13.25 6.99808 13.6451 6.04425 14.3483 5.34099L14.591 5.09835C15.0129 4.67639 15.25 4.1041 15.25 3.50736V2.75C15.25 2.33579 15.5858 2 16 2Z" fill="black"/>
<path fill-rule="evenodd" clip-rule="evenodd" d="M15.5622 20.25C15.0592 20.7366 14.4926 21.1579 13.876 21.5H17C17.4142 21.5 17.75 21.8358 17.75 22.25C17.75 22.6642 17.4142 23 17 23H3C2.58579 23 2.25 22.6642 2.25 22.25C2.25 21.8358 2.58579 21.5 3 21.5H6.12399C3.66458 20.1353 2 17.512 2 14.5V11.5C2 10.9477 2.44772 10.5 3 10.5H17C17.5523 10.5 18 10.9477 18 11.5V11.757C20.233 11.8841 22.0046 13.7351 22.0046 16C22.0046 18.3472 20.1018 20.25 17.7546 20.25H15.5622ZM18 13.2608V14.5C18 16.0616 17.5526 17.5186 16.779 18.75H17.7546C19.2734 18.75 20.5046 17.5188 20.5046 16C20.5046 14.5639 19.4038 13.3849 18 13.2608Z" fill="black"/>
</svg>
