<svg width="24" height="24" viewBox="0 0 24 24" fill="none" xmlns="http://www.w3.org/2000/svg">
<path d="M11.2478 1.09958C11.2478 1.04169 11.1986 0.995857 11.1409 1.0003C8.74011 1.18493 6.55456 2.13685 4.82983 3.61086C4.78576 3.64852 4.78351 3.71568 4.82453 3.75664L6.85837 5.78746C7.15213 6.08079 7.15213 6.55636 6.85837 6.84969C6.56461 7.14302 6.08832 7.14302 5.79456 6.84969L3.76055 4.8187C3.71959 4.7778 3.65254 4.78004 3.61487 4.82399C2.13862 6.54615 1.18524 8.72848 1.0003 11.1257C0.995847 11.1835 1.0417 11.2326 1.09962 11.2326H3.97624C4.39169 11.2326 4.72847 11.5689 4.72847 11.9837C4.72847 12.3985 4.39169 12.7348 3.97624 12.7348H1.09962C1.0417 12.7348 0.995846 12.7839 1.0003 12.8416C1.17442 15.0987 2.02976 17.1653 3.36134 18.8367C3.39899 18.8839 3.46965 18.8865 3.5116 18.843C4.80971 17.4975 6.42569 16.4598 8.23886 15.8505V14.9881C8.23886 13.083 9.65951 11.5092 11.5007 11.2654L13.8226 6.16473C13.9945 5.78709 14.4405 5.6201 14.8187 5.79176C15.1969 5.96341 15.3641 6.40871 15.1922 6.78636L13.0947 11.3941C14.638 11.8622 15.7611 13.2942 15.7611 14.9881V15.8505C17.5743 16.4598 19.1903 17.4975 20.4884 18.843C20.5303 18.8865 20.601 18.8839 20.6387 18.8367C21.9702 17.1653 22.8256 15.0987 22.9997 12.8416C23.0042 12.7839 22.9583 12.7348 22.9004 12.7348H20.0238C19.6083 12.7348 19.2715 12.3985 19.2715 11.9837C19.2715 11.5689 19.6083 11.2326 20.0238 11.2326H22.9004C22.9583 11.2326 23.0042 11.1835 22.9997 11.1257C22.8148 8.72848 21.8614 6.54615 20.3851 4.82399C20.3475 4.78004 20.2804 4.7778 20.2394 4.8187L18.2054 6.84969C17.9117 7.14302 17.4354 7.14302 17.1416 6.84969C16.8479 6.55636 16.8479 6.08079 17.1416 5.78746L19.1755 3.75664C19.2165 3.71568 19.2142 3.64852 19.1702 3.61086C17.4454 2.13685 15.2599 1.18493 12.8591 1.0003C12.8014 0.995857 12.7522 1.04169 12.7522 1.09958V3.97208C12.7522 4.38691 12.4154 4.72319 12 4.72319C11.5846 4.72319 11.2478 4.38691 11.2478 3.97208V1.09958Z" fill="black"/>
<path d="M14.2567 15.454V14.9881C14.2567 13.7437 13.2463 12.7348 12 12.7348C10.7537 12.7348 9.74332 13.7437 9.74332 14.9881V15.454C10.4737 15.3126 11.2282 15.2385 12 15.2385C12.7718 15.2385 13.5263 15.3126 14.2567 15.454Z" fill="black"/>
<path d="M12 16.7407C14.9428 16.7407 17.5967 17.9754 19.4708 19.9541C19.5087 19.9941 19.5064 20.0573 19.4658 20.0946C17.5012 21.8986 14.8794 23 12 23C9.12057 23 6.49879 21.8986 4.53417 20.0946C4.49357 20.0573 4.49134 19.9941 4.52924 19.9541C6.40326 17.9754 9.05724 16.7407 12 16.7407Z" fill="black"/>
</svg>
