<svg width="24" height="24" viewBox="0 0 24 24" fill="none" xmlns="http://www.w3.org/2000/svg">
<path d="M23 3.5C23 4.88071 18.0751 6 12 6C5.92487 6 1 4.88071 1 3.5C1 2.11929 5.92487 1 12 1C18.0751 1 23 2.11929 23 3.5Z" fill="black"/>
<path fill-rule="evenodd" clip-rule="evenodd" d="M20.1106 6.73047C17.9819 7.21426 15.1151 7.5 12 7.5C8.88485 7.5 6.01807 7.21426 3.88939 6.73047C2.83714 6.49132 1.88253 6.18567 1.15444 5.79444C1.10319 5.7669 1.05162 5.73818 1 5.70822V9.17083L1.03813 9.189C1.12797 9.23176 1.19761 9.26454 1.2445 9.2865L1.29743 9.31121L1.31049 9.31727L1.31357 9.31869L1 10C1.3721 9.34882 1.37182 9.34866 1.37156 9.34851L1.39408 9.3607C1.41503 9.37187 1.44965 9.38994 1.49807 9.41393C1.59489 9.46192 1.74691 9.53361 1.9551 9.62127C2.37143 9.79657 3.01274 10.0358 3.88695 10.277C5.63466 10.7591 8.31758 11.25 12 11.25C15.6824 11.25 18.3653 10.7591 20.1131 10.277C20.9873 10.0358 21.6286 9.79657 22.0449 9.62127C22.2531 9.53361 22.4051 9.46192 22.5019 9.41393C22.5503 9.38994 22.585 9.37187 22.6059 9.3607L22.6284 9.34851C22.6282 9.34866 22.6279 9.34882 23 10L22.6645 9.32921L23 9.12288V5.70822C22.9484 5.73818 22.8968 5.7669 22.8456 5.79444C22.1175 6.18567 21.1629 6.49132 20.1106 6.73047ZM4.75 8.5C4.75 8.08579 4.41421 7.75 4 7.75C3.58579 7.75 3.25 8.08579 3.25 8.5V8.54572C3.25 8.95993 3.58579 9.29572 4 9.29572C4.41421 9.29572 4.75 8.95993 4.75 8.54572V8.5ZM6.75 8.79085C6.75 8.37664 6.41421 8.04085 6 8.04085C5.58579 8.04085 5.25 8.37664 5.25 8.79085V8.83657C5.25 9.25078 5.58579 9.58657 6 9.58657C6.41421 9.58657 6.75 9.25078 6.75 8.83657V8.79085Z" fill="black"/>
<path fill-rule="evenodd" clip-rule="evenodd" d="M23 10.8386C22.8971 10.8867 22.7729 10.9423 22.627 11.0037C22.1527 11.2034 21.4502 11.4642 20.5119 11.723C18.6347 12.2409 15.8176 12.75 12 12.75C8.18242 12.75 5.36534 12.2409 3.48805 11.723C2.54976 11.4642 1.84732 11.2034 1.37302 11.0037C1.22714 10.9423 1.10288 10.8867 1 10.8386V14.6708C1.01309 14.6771 1.0258 14.6831 1.03813 14.689C1.12797 14.7318 1.19761 14.7645 1.2445 14.7865L1.29743 14.8112L1.31049 14.8173L1.31357 14.8187L1 15.5C1.3721 14.8488 1.37182 14.8487 1.37156 14.8485L1.39408 14.8607C1.41503 14.8719 1.44965 14.8899 1.49807 14.9139C1.59489 14.9619 1.74691 15.0336 1.9551 15.1213C2.37143 15.2966 3.01274 15.5358 3.88695 15.777C5.63466 16.2591 8.31758 16.75 12 16.75C15.6824 16.75 18.3653 16.2591 20.1131 15.777C20.9873 15.5358 21.6286 15.2966 22.0449 15.1213C22.2531 15.0336 22.4051 14.9619 22.5019 14.9139C22.5503 14.8899 22.585 14.8719 22.6059 14.8607L22.6284 14.8485C22.6282 14.8487 22.6279 14.8488 23 15.5L22.6645 14.8292L23 14.6229V10.8386ZM4 13.25C4.41421 13.25 4.75 13.5858 4.75 14V14.0457C4.75 14.4599 4.41421 14.7957 4 14.7957C3.58579 14.7957 3.25 14.4599 3.25 14.0457V14C3.25 13.5858 3.58579 13.25 4 13.25ZM6 13.5409C6.41421 13.5409 6.75 13.8766 6.75 14.2909V14.3366C6.75 14.7508 6.41421 15.0866 6 15.0866C5.58579 15.0866 5.25 14.7508 5.25 14.3366V14.2909C5.25 13.8766 5.58579 13.5409 6 13.5409Z" fill="black"/>
<path fill-rule="evenodd" clip-rule="evenodd" d="M23 16.3387C22.8971 16.3867 22.7729 16.4423 22.627 16.5037C22.1527 16.7034 21.4502 16.9642 20.5119 17.223C18.6347 17.7409 15.8176 18.25 12 18.25C8.18242 18.25 5.36534 17.7409 3.48805 17.223C2.54976 16.9642 1.84732 16.7034 1.37302 16.5037C1.22714 16.4423 1.10288 16.3867 1 16.3387V20.5C1 21.8807 5.92487 23 12 23C18.0751 23 23 21.8807 23 20.5V16.3387ZM4 18.7043C4.41421 18.7043 4.75 19.0401 4.75 19.4543V19.5C4.75 19.9142 4.41421 20.25 4 20.25C3.58579 20.25 3.25 19.9142 3.25 19.5V19.4543C3.25 19.0401 3.58579 18.7043 4 18.7043ZM6 18.9951C6.41421 18.9951 6.75 19.3309 6.75 19.7451V19.7909C6.75 20.2051 6.41421 20.5409 6 20.5409C5.58579 20.5409 5.25 20.2051 5.25 19.7909V19.7451C5.25 19.3309 5.58579 18.9951 6 18.9951Z" fill="black"/>
<path d="M23 3.5H1C1 4.88071 5.92487 6 12 6C18.0751 6 23 4.88071 23 3.5Z" fill="black"/>
</svg>
