<svg width="24" height="24" viewBox="0 0 24 24" fill="none" xmlns="http://www.w3.org/2000/svg">
<g clip-path="url(#clip0_1607_5801)">
<path fill-rule="evenodd" clip-rule="evenodd" d="M16.5052 0.900571C16.5602 0.351027 17.0502 -0.0499168 17.5998 0.00503761L22.5998 0.505038C23.0734 0.552397 23.4479 0.926982 23.4953 1.40057L23.9953 6.40057C24.0503 6.95012 23.6493 7.44016 23.0998 7.49511C22.5502 7.55007 22.0602 7.14912 22.0052 6.59958L21.7152 3.69931L14.2071 11.2072C13.8166 11.5977 13.1834 11.5977 12.7929 11.2072C12.4024 10.8166 12.4024 10.1835 12.7929 9.79296L20.301 2.28513L17.4008 1.99511C16.8512 1.94016 16.4503 1.45011 16.5052 0.900571ZM11.2072 12.793C11.5978 13.1835 11.5978 13.8167 11.2072 14.2072L3.69931 21.715L6.59952 22.005C7.14906 22.06 7.55001 22.55 7.49505 23.0996C7.4401 23.6491 6.95005 24.0501 6.40051 23.9951L1.40051 23.4951C0.926921 23.4478 0.552336 23.0732 0.504977 22.5996L0.00497657 17.5996C-0.0499778 17.05 0.350966 16.56 0.90051 16.505C1.45005 16.4501 1.9401 16.851 1.99505 17.4006L2.28508 20.3008L9.79303 12.793C10.1836 12.4024 10.8167 12.4024 11.2072 12.793Z" fill="black"/>
</g>
<defs>
<clipPath id="clip0_1607_5801">
<rect width="24" height="24" fill="white"/>
</clipPath>
</defs>
</svg>
