<svg width="24" height="24" viewBox="0 0 24 24" fill="none" xmlns="http://www.w3.org/2000/svg">
<path d="M10.9941 4.13997L11.0011 17.0005C11.0014 17.5528 11.4493 18.0003 12.0016 18C12.5539 17.9997 13.0014 17.5517 13.0011 16.9995L12.9941 4.13011L17.3598 7.76822C17.7841 8.12179 18.4147 8.06446 18.7682 7.64018C19.1218 7.21591 19.0645 6.58534 18.6402 6.23178L12.7042 1.28513C12.6782 1.26346 12.6514 1.24316 12.624 1.22425C12.4518 1.08394 12.2319 0.99987 11.9924 1C11.7148 1.00015 11.4637 1.1134 11.2826 1.29615L5.35982 6.23178C4.93554 6.58534 4.87821 7.21591 5.23178 7.64018C5.58534 8.06446 6.21591 8.12179 6.64018 7.76822L10.9941 4.13997Z" fill="black"/>
<path d="M3 12C3 10.8954 3.89543 10 5 10H8C8.55228 10 9 10.4477 9 11C9 11.5523 8.55228 12 8 12H5V22H19V12H16C15.4477 12 15 11.5523 15 11C15 10.4477 15.4477 10 16 10H19C20.1046 10 21 10.8954 21 12V22C21 23.1046 20.1046 24 19 24H5C3.89543 24 3 23.1046 3 22V12Z" fill="black"/>
</svg>
