<svg width="24" height="24" viewBox="0 0 24 24" fill="none" xmlns="http://www.w3.org/2000/svg">
<path fill-rule="evenodd" clip-rule="evenodd" d="M12 23C18.0751 23 23 18.0751 23 12C23 5.92487 18.0751 1 12 1C5.92487 1 1 5.92487 1 12C1 18.0751 5.92487 23 12 23ZM9.75 8C9.75 7.58579 9.41421 7.25 9 7.25C8.58579 7.25 8.25 7.58579 8.25 8V10C8.25 10.4142 8.58579 10.75 9 10.75C9.41421 10.75 9.75 10.4142 9.75 10V8ZM15 7.25C15.4142 7.25 15.75 7.58579 15.75 8V10C15.75 10.4142 15.4142 10.75 15 10.75C14.5858 10.75 14.25 10.4142 14.25 10V8C14.25 7.58579 14.5858 7.25 15 7.25ZM7.57617 16.8221C7.31099 17.1403 6.83807 17.1833 6.51986 16.9181C6.20165 16.6529 6.15866 16.18 6.42383 15.8618C9.32576 12.3795 14.6742 12.3795 17.5762 15.8618C17.8413 16.18 17.7983 16.6529 17.4801 16.9181C17.1619 17.1833 16.689 17.1403 16.4238 16.8221C14.1216 14.0594 9.8784 14.0594 7.57617 16.8221Z" fill="black"/>
</svg>
