<svg width="24" height="24" viewBox="0 0 24 24" fill="none" xmlns="http://www.w3.org/2000/svg">
<path fill-rule="evenodd" clip-rule="evenodd" d="M12 23C18.0751 23 23 18.0751 23 12C23 5.92487 18.0751 1 12 1C5.92487 1 1 5.92487 1 12C1 18.0751 5.92487 23 12 23ZM9.75 8C9.75 7.80359 9.6745 7.62481 9.55093 7.4911L9.7633 7.54801C10.1634 7.65521 10.5747 7.41778 10.6819 7.01768C10.7891 6.61758 10.5516 6.20632 10.1515 6.09912L7.73672 5.45207C7.33662 5.34486 6.92536 5.5823 6.81816 5.9824C6.71095 6.3825 6.94839 6.79375 7.34849 6.90096L8.77697 7.28372C8.47167 7.37868 8.25 7.66345 8.25 8V10C8.25 10.4142 8.58579 10.75 9 10.75C9.41421 10.75 9.75 10.4142 9.75 10V8ZM15.75 8C15.75 7.66341 15.5283 7.3786 15.2229 7.28368L16.6515 6.90088C17.0516 6.79368 17.2891 6.38242 17.1819 5.98232C17.0747 5.58222 16.6634 5.34479 16.2633 5.45199L13.8485 6.09904C13.4484 6.20625 13.211 6.6175 13.3182 7.0176C13.4254 7.4177 13.8366 7.65514 14.2367 7.54793L14.4492 7.49101C14.3255 7.62472 14.25 7.80354 14.25 8V10C14.25 10.4142 14.5858 10.75 15 10.75C15.4142 10.75 15.75 10.4142 15.75 10V8ZM7.57617 16.8221C7.31099 17.1403 6.83807 17.1833 6.51986 16.9181C6.20165 16.6529 6.15866 16.18 6.42383 15.8618C9.32576 12.3795 14.6742 12.3795 17.5762 15.8618C17.8413 16.18 17.7983 16.6529 17.4801 16.9181C17.1619 17.1833 16.689 17.1403 16.4238 16.8221C14.1216 14.0594 9.8784 14.0594 7.57617 16.8221Z" fill="black"/>
</svg>
