<svg width="24" height="24" viewBox="0 0 24 24" fill="none" xmlns="http://www.w3.org/2000/svg">
<path fill-rule="evenodd" clip-rule="evenodd" d="M12 23C18.0751 23 23 18.0751 23 12C23 5.92487 18.0751 1 12 1C5.92487 1 1 5.92487 1 12C1 18.0751 5.92487 23 12 23ZM9.75 8C9.75 7.58579 9.41421 7.25 9 7.25C8.58579 7.25 8.25 7.58579 8.25 8V10C8.25 10.4142 8.58579 10.75 9 10.75C9.41421 10.75 9.75 10.4142 9.75 10V8ZM15 7.25C15.4142 7.25 15.75 7.58579 15.75 8V10C15.75 10.4142 15.4142 10.75 15 10.75C14.5858 10.75 14.25 10.4142 14.25 10V8C14.25 7.58579 14.5858 7.25 15 7.25ZM7.57617 13.5199C7.31099 13.2017 6.83807 13.1587 6.51986 13.4238C6.20165 13.689 6.15866 14.1619 6.42383 14.4801C9.32576 17.9625 14.6742 17.9625 17.5762 14.4801C17.8413 14.1619 17.7983 13.689 17.4801 13.4238C17.1619 13.1587 16.689 13.2017 16.4238 13.5199C14.1216 16.2825 9.8784 16.2825 7.57617 13.5199Z" fill="black"/>
</svg>
