<svg width="24" height="24" viewBox="0 0 24 24" fill="none" xmlns="http://www.w3.org/2000/svg">
<path d="M9.06667 1.00001L15.4434 1C15.4987 1 15.5434 1.04477 15.5434 1.1V6.49332C15.5434 6.99406 15.9494 7.39999 16.4501 7.39999H21.9C21.9552 7.39999 22 7.44476 22 7.49999V15.9333C22 16.5224 21.5224 17 20.9333 17L9.06667 17C8.47756 17 8 16.5224 8 15.9333V2.06668C8 1.47758 8.47756 1.00001 9.06667 1.00001Z" fill="black"/>
<path d="M21.6859 5.50412C21.7349 5.55292 21.7787 5.606 21.8169 5.66247C21.8581 5.72341 21.8106 5.79999 21.7371 5.79999H17.2434C17.1882 5.79999 17.1434 5.75522 17.1434 5.69999V1.2389C17.1434 1.16704 17.2169 1.11927 17.2783 1.15677C17.3488 1.19993 17.4146 1.25147 17.4742 1.31077L21.6859 5.50412Z" fill="black"/>
<path fill-rule="evenodd" clip-rule="evenodd" d="M5.8 2.7C6.24183 2.7 6.6 3.05817 6.6 3.5V17.7C6.6 18.0866 6.9134 18.4 7.3 18.4H19.8C20.2418 18.4 20.6 18.7582 20.6 19.2C20.6 19.6419 20.2418 20 19.8 20H7.3C6.02975 20 5 18.9703 5 17.7V3.5C5 3.05817 5.35817 2.7 5.8 2.7ZM2.8 4.7C3.24183 4.7 3.6 5.05817 3.6 5.5V20.7C3.6 21.0866 3.9134 21.4 4.3 21.4H17.8C18.2418 21.4 18.6 21.7582 18.6 22.2C18.6 22.6418 18.2418 23 17.8 23H4.3C3.02974 23 2 21.9703 2 20.7V5.5C2 5.05817 2.35817 4.7 2.8 4.7Z" fill="black"/>
</svg>
