<svg width="24" height="24" viewBox="0 0 24 24" fill="none" xmlns="http://www.w3.org/2000/svg">
<path d="M4 0.25C4.41421 0.25 4.75 0.585786 4.75 1V3H8.25V1C8.25 0.585786 8.58579 0.25 9 0.25C9.41421 0.25 9.75 0.585786 9.75 1V3H14.25V1C14.25 0.585786 14.5858 0.25 15 0.25C15.4142 0.25 15.75 0.585786 15.75 1V3H19.25V1C19.25 0.585786 19.5858 0.25 20 0.25C20.4142 0.25 20.75 0.585786 20.75 1V3H22C22.5523 3 23 3.44772 23 4V14.15C23 14.2052 22.9552 14.25 22.9 14.25H15.1C14.6306 14.25 14.25 14.6306 14.25 15.1V22.9C14.25 22.9553 14.2052 23 14.15 23H2C1.44772 23 1 22.5523 1 22V4C1 3.44772 1.44772 3 2 3H3.25V1C3.25 0.585786 3.58579 0.25 4 0.25Z" fill="black"/>
<path d="M22.9602 15.865C22.9775 15.8057 22.9302 15.75 22.8684 15.75H15.85C15.7948 15.75 15.75 15.7948 15.75 15.85V22.8684C15.75 22.9302 15.8057 22.9775 15.865 22.9603C16.0252 22.9137 16.1728 22.8273 16.2929 22.7071L22.7071 16.2929C22.8272 16.1728 22.9136 16.0253 22.9602 15.865Z" fill="black"/>
</svg>
