<svg width="24" height="24" viewBox="0 0 24 24" fill="none" xmlns="http://www.w3.org/2000/svg">
<path d="M6.36069 8.54176C6.48934 8.29223 6.71443 8.11225 6.97686 8.03786L7.24952 8H21.9994C22.7482 8 23.2313 8.79269 22.8882 9.45824L21.9773 11.2251C21.9476 11.2827 21.8717 11.2973 21.8221 11.2556C20.5197 10.1617 18.8356 9.5 17 9.5C14.9294 9.5 13.0514 10.342 11.6967 11.6967C10.3639 13.0295 9.52732 14.8689 9.50066 16.8999C9.49993 16.9551 9.45523 17 9.4 17H2.16407C2.08919 17 2.04088 16.9207 2.07519 16.8542L6.36069 8.54176Z" fill="black"/>
<path d="M5.02746 7.8544L1.18888 15.2999C1.14083 15.3931 1 15.3589 1 15.2541V3C1 2.44772 1.44772 2 2 2H8C8.31476 2 8.61115 2.14819 8.8 2.4L9.7 3.6C9.88885 3.85181 10.1852 4 10.5 4H18C18.5523 4 19 4.44772 19 5V6.4C19 6.45523 18.9552 6.5 18.9 6.5H7.24953C6.31373 6.5 5.45628 7.02263 5.02746 7.8544Z" fill="black"/>
<path fill-rule="evenodd" clip-rule="evenodd" d="M14.3925 13.3319L20.6681 19.6075C21.1923 18.8717 21.5 17.9722 21.5 17C21.5 15.7754 21.0118 14.6663 20.2177 13.8542C19.3999 13.0177 18.2611 12.5 17 12.5C16.0278 12.5 15.1283 12.8077 14.3925 13.3319ZM19.6075 20.6681L13.3319 14.3925C12.8077 15.1283 12.5 16.0278 12.5 17C12.5 19.4853 14.5147 21.5 17 21.5C17.9722 21.5 18.8717 21.1923 19.6075 20.6681ZM12.7574 12.7574C13.8423 11.6724 15.3434 11 17 11C18.6811 11 20.2018 11.6923 21.2902 12.8055C22.3473 13.8865 23 15.3678 23 17C23 18.6566 22.3276 20.1577 21.2426 21.2426C20.1577 22.3276 18.6566 23 17 23C13.6863 23 11 20.3137 11 17C11 15.3434 11.6724 13.8423 12.7574 12.7574Z" fill="black"/>
</svg>
