<svg width="24" height="24" viewBox="0 0 24 24" fill="none" xmlns="http://www.w3.org/2000/svg">
<path d="M5.02746 10.3544L1.18888 17.7999C1.14083 17.8931 1 17.8589 1 17.7541V5.5C1 4.94772 1.44772 4.5 2 4.5H8C8.31476 4.5 8.61115 4.64819 8.8 4.9L9.7 6.1C9.88885 6.35181 10.1852 6.5 10.5 6.5H18C18.5523 6.5 19 6.94772 19 7.5V8.9C19 8.95523 18.9552 9 18.9 9H7.24953C6.31373 9 5.45628 9.52263 5.02746 10.3544Z" fill="black"/>
<path d="M7.24952 10.5C7.15595 10.5 7.06433 10.5131 6.97686 10.5379Z" fill="black"/>
<path d="M6.97686 10.5379C6.71443 10.6123 6.48934 10.7922 6.36069 11.0418L2.07519 19.3542C2.04088 19.4207 2.08919 19.5 2.16407 19.5H18.3905C18.7648 19.5 19.1078 19.2909 19.2793 18.9582L22.8882 11.9582C23.2313 11.2927 22.7482 10.5 21.9994 10.5H7.24952" fill="black"/>
</svg>
