<svg width="24" height="24" viewBox="0 0 24 24" fill="none" xmlns="http://www.w3.org/2000/svg">
<path fill-rule="evenodd" clip-rule="evenodd" d="M6.73657 1.7804C7.96193 0.555035 10.0126 0.807488 10.9042 2.29345L12 4.11983L13.0958 2.29345C13.9874 0.807488 16.0381 0.555035 17.2634 1.7804C18.4039 2.92083 18.2203 4.61143 17.2407 5.57764H22C22.5523 5.57764 23 6.02535 23 6.57764V9.57764C23 10.1299 22.5523 10.5776 22 10.5776H12.85C12.7948 10.5776 12.75 10.5329 12.75 10.4776V6.3276H11.25V10.4776C11.25 10.5329 11.2052 10.5776 11.15 10.5776H2C1.44772 10.5776 1 10.1299 1 9.57764V6.57764C1 6.02535 1.44772 5.57764 2 5.57764H6.75932C5.7797 4.61143 5.59614 2.92083 6.73657 1.7804ZM9.61794 3.0652C9.22843 2.41602 8.33255 2.30573 7.79723 2.84106C7.06414 3.57414 7.58334 4.8276 8.62008 4.8276H10.6754L9.61794 3.0652ZM14.3821 3.0652C14.7716 2.41602 15.6674 2.30573 16.2028 2.84106C16.9359 3.57414 16.4167 4.8276 15.3799 4.8276H13.3246L14.3821 3.0652Z" fill="black"/>
<path d="M3 22V12.2558C3 12.2006 3.04477 12.1558 3.1 12.1558H11.15C11.2052 12.1558 11.25 12.2006 11.25 12.2558L11.25 22.9C11.25 22.9552 11.2052 23 11.15 23H4C3.44772 23 3 22.5523 3 22Z" fill="black"/>
<path d="M12.85 23C12.7948 23 12.75 22.9552 12.75 22.9L12.75 12.2558C12.75 12.2006 12.7948 12.1558 12.85 12.1558H20.9C20.9552 12.1558 21 12.2006 21 12.2558V22C21 22.5523 20.5523 23 20 23H12.85Z" fill="black"/>
</svg>
