<svg width="24" height="24" viewBox="0 0 24 24" fill="none" xmlns="http://www.w3.org/2000/svg">
<g clip-path="url(#clip0_1607_5910)">
<path fill-rule="evenodd" clip-rule="evenodd" d="M11.0289 0.0360679C11.5611 0.183527 11.8731 0.734528 11.7256 1.26676L10.1718 6.87486H16.0965L17.7982 0.732767C17.9456 0.200532 18.4966 -0.111391 19.0289 0.0360679C19.5611 0.183527 19.873 0.734528 19.7256 1.26676L18.1718 6.87486H22C22.5523 6.87486 23 7.32258 23 7.87486C23 8.42715 22.5523 8.87486 22 8.87486H17.6177L15.8861 15.125H22C22.5523 15.125 23 15.5727 23 16.125C23 16.6773 22.5523 17.125 22 17.125H15.332L13.6303 23.2668C13.4829 23.799 12.9319 24.1109 12.3996 23.9635C11.8674 23.816 11.5555 23.265 11.7029 22.7328L13.2566 17.125H7.33197L5.63036 23.2668C5.4829 23.799 4.9319 24.1109 4.39967 23.9635C3.86743 23.816 3.55551 23.265 3.70297 22.7328L5.25663 17.125H2C1.44772 17.125 1 16.6773 1 16.125C1 15.5727 1.44772 15.125 2 15.125H5.81074L7.54239 8.87486H2C1.44772 8.87486 1 8.42715 1 7.87486C1 7.32258 1.44772 6.87486 2 6.87486H8.0965L9.79821 0.732767C9.94567 0.200531 10.4967 -0.111391 11.0289 0.0360679ZM9.61773 8.87486L7.88608 15.125H13.8107L15.5424 8.87486H9.61773Z" fill="black"/>
</g>
<defs>
<clipPath id="clip0_1607_5910">
<rect width="24" height="24" fill="white"/>
</clipPath>
</defs>
</svg>
