<svg width="24" height="24" viewBox="0 0 24 24" fill="none" xmlns="http://www.w3.org/2000/svg">
<path d="M6 1C5.44772 1 5 1.44772 5 2V6C5 6.55228 5.44772 7 6 7H11.25V11.25H4C3.0335 11.25 2.25 12.0335 2.25 13V19C2.25 19.0479 2.25449 19.0947 2.26307 19.1401C1.5232 19.4335 1 20.1557 1 21C1 22.1046 1.89543 23 3 23C4.10457 23 5 22.1046 5 21C5 20.1557 4.4768 19.4335 3.73693 19.1401C3.74551 19.0947 3.75 19.0479 3.75 19V13C3.75 12.8619 3.86193 12.75 4 12.75H11.25L11.25 19C11.25 19.0479 11.2545 19.0947 11.2631 19.1401C10.5232 19.4335 10 20.1557 10 21C10 22.1046 10.8954 23 12 23C13.1046 23 14 22.1046 14 21C14 20.1557 13.4768 19.4335 12.7369 19.1401C12.7455 19.0947 12.75 19.0479 12.75 19L12.75 12.75H20C20.1381 12.75 20.25 12.8619 20.25 13V19C20.25 19.0479 20.2545 19.0947 20.2631 19.1401C19.5232 19.4335 19 20.1557 19 21C19 22.1046 19.8954 23 21 23C22.1046 23 23 22.1046 23 21C23 20.1557 22.4768 19.4335 21.7369 19.1401C21.7455 19.0947 21.75 19.0479 21.75 19V13C21.75 12.0335 20.9665 11.25 20 11.25H12.75V7H18C18.5523 7 19 6.55228 19 6V2C19 1.44772 18.5523 1 18 1H6Z" fill="black"/>
</svg>
