<svg width="24" height="24" viewBox="0 0 24 24" fill="none" xmlns="http://www.w3.org/2000/svg">
<path d="M5 2C5 1.44772 5.44772 1 6 1H18C18.5523 1 19 1.44772 19 2V4C19 4.55228 18.5523 5 18 5H12.75L12.75 10H18C18.5523 10 19 10.4477 19 11V13C19 13.5523 18.5523 14 18 14H12.75L12.75 19H18C18.5523 19 19 19.4477 19 20V22C19 22.5523 18.5523 23 18 23H6C5.44772 23 5 22.5523 5 22V20C5 19.4477 5.44772 19 6 19H11.25L11.25 14H6C5.44772 14 5 13.5523 5 13V11C5 10.4477 5.44772 10 6 10H11.25L11.25 5H6C5.44772 5 5 4.55228 5 4V2Z" fill="black"/>
</svg>
