<svg width="24" height="24" viewBox="0 0 24 24" fill="none" xmlns="http://www.w3.org/2000/svg">
<path fill-rule="evenodd" clip-rule="evenodd" d="M1 2C1 1.44772 1.44772 1 2 1H22C22.5523 1 23 1.44772 23 2V15.6634C23 15.7529 22.8913 15.7973 22.8286 15.7334L17.4089 10.2037C16.7227 9.50361 15.5954 9.50361 14.9093 10.2037L9.84851 15.3671C9.80982 15.4066 9.74643 15.4072 9.707 15.3684L7.4445 13.1448C6.77019 12.482 5.69141 12.4747 5.00817 13.1282L1.16912 16.8004C1.10551 16.8612 1 16.8161 1 16.7281V2ZM7 7C7 8.10457 7.89543 9 9 9C10.1046 9 11 8.10457 11 7C11 5.89543 10.1046 5 9 5C7.89543 5 7 5.89543 7 7Z" fill="black"/>
<path d="M1.02929 19.0314C1.01054 19.0501 1 19.0755 1 19.1021V22C1 22.5523 1.44772 23 2 23H22C22.5523 23 23 22.5523 23 22V18.0854C23 18.059 22.9896 18.0338 22.9711 18.015L22.2392 17.275L16.3376 11.2536C16.2396 11.1536 16.0786 11.1536 15.9805 11.2536L10.3941 16.9535C10.0651 17.289 9.52633 17.2941 9.19119 16.9647L6.39305 14.2145C6.29672 14.1199 6.14261 14.1188 6.045 14.2122L1.52441 18.5362L1.02929 19.0314Z" fill="black"/>
</svg>
