<svg width="24" height="24" viewBox="0 0 24 24" fill="none" xmlns="http://www.w3.org/2000/svg">
<path d="M6.5002 9.70498L7.65508 12.75H5.34533L6.5002 9.70498Z" fill="black"/>
<path fill-rule="evenodd" clip-rule="evenodd" d="M2 1C1.44772 1 1 1.44772 1 2V22C1 22.5523 1.44772 23 2 23H22C22.5523 23 23 22.5523 23 22V2C23 1.44772 22.5523 1 22 1H2ZM13.2502 8.5C13.2502 8.08579 12.9144 7.75 12.5002 7.75C12.086 7.75 11.7502 8.08579 11.7502 8.5V15.5C11.7502 15.9142 12.086 16.25 12.5002 16.25H15.5002C15.9144 16.25 16.2502 15.9142 16.2502 15.5C16.2502 15.0858 15.9144 14.75 15.5002 14.75H13.2502V8.5ZM16.5002 7.75C16.086 7.75 15.7502 8.08579 15.7502 8.5C15.7502 8.91421 16.086 9.25 16.5002 9.25H17.7502V15.5C17.7502 15.9142 18.086 16.25 18.5002 16.25C18.9144 16.25 19.2502 15.9142 19.2502 15.5V9.25H20.5002C20.9144 9.25 21.2502 8.91421 21.2502 8.5C21.2502 8.08579 20.9144 7.75 20.5002 7.75H16.5002ZM7.66897 8.55673C7.26101 7.48109 5.73939 7.48109 5.33144 8.55673L2.79894 15.2341C2.65206 15.6214 2.84694 16.0544 3.23424 16.2013C3.62153 16.3482 4.05457 16.1533 4.20146 15.766L4.77643 14.25H8.22398L8.79894 15.766C8.94583 16.1533 9.37887 16.3482 9.76617 16.2013C10.1535 16.0544 10.3483 15.6214 10.2015 15.2341L7.66897 8.55673Z" fill="black"/>
</svg>
