<svg width="24" height="24" viewBox="0 0 24 24" fill="none" xmlns="http://www.w3.org/2000/svg">
<path fill-rule="evenodd" clip-rule="evenodd" d="M4 4C3.0335 4 2.25 4.7835 2.25 5.75V17H1.02094C1.00938 17 1 17.0094 1 17.0209C1 19.2185 2.78148 21 4.97906 21H19.0209C21.2185 21 23 19.2185 23 17.0209C23 17.0094 22.9906 17 22.9791 17H21.75V5.75C21.75 4.7835 20.9665 4 20 4H4ZM20.25 17V5.75C20.25 5.61193 20.1381 5.5 20 5.5H4C3.86193 5.5 3.75 5.61193 3.75 5.75V17H10.625V17.3333C10.625 17.8856 11.0727 18.3333 11.625 18.3333H12.375C12.9273 18.3333 13.375 17.8856 13.375 17.3333V17H20.25Z" fill="black"/>
</svg>
