<svg width="24" height="24" viewBox="0 0 24 24" fill="none" xmlns="http://www.w3.org/2000/svg">
<path fill-rule="evenodd" clip-rule="evenodd" d="M7.52747 17.9231V22.033C7.52747 22.567 7.96043 23 8.49451 23L22.033 23C22.567 23 23 22.567 23 22.033L23 8.49451C23 7.96043 22.567 7.52747 22.033 7.52747H17.9231L17.9231 2.69231C17.9231 1.75767 17.1654 1 16.2308 1H2.69231C1.75767 1 1 1.75767 1 2.69231V16.2308C1 17.1654 1.75767 17.9231 2.69231 17.9231L7.52747 17.9231ZM7.52747 16.4725L2.69231 16.4725C2.55879 16.4725 2.45055 16.3643 2.45055 16.2308L2.45055 2.69231C2.45055 2.55879 2.55879 2.45055 2.69231 2.45055L16.2308 2.45055C16.3643 2.45055 16.4725 2.55879 16.4725 2.69231L16.4725 7.52747L8.49451 7.52747C7.96043 7.52747 7.52747 7.96043 7.52747 8.49451L7.52747 16.4725Z" fill="black"/>
</svg>
