<svg width="24" height="24" viewBox="0 0 24 24" fill="none" xmlns="http://www.w3.org/2000/svg">
<path fill-rule="evenodd" clip-rule="evenodd" d="M16.4725 6.07692L16.4725 1.96704C16.4725 1.43296 16.0396 1 15.5055 1L1.96704 1C1.43296 1 1 1.43296 1 1.96703L1 15.5055C1 16.0396 1.43296 16.4725 1.96703 16.4725H6.07692L6.07692 21.3077C6.07692 22.2423 6.83459 23 7.76923 23L21.3077 23C22.2423 23 23 22.2423 23 21.3077V7.76923C23 6.8346 22.2423 6.07693 21.3077 6.07693L16.4725 6.07692ZM16.4725 7.52747L21.3077 7.52748C21.4412 7.52748 21.5494 7.63571 21.5494 7.76923L21.5494 21.3077C21.5494 21.4412 21.4412 21.5495 21.3077 21.5495L7.76923 21.5494C7.63571 21.5494 7.52747 21.4412 7.52747 21.3077L7.52747 16.4725L15.5055 16.4725C16.0396 16.4725 16.4725 16.0396 16.4725 15.5055L16.4725 7.52747Z" fill="black"/>
</svg>
