<svg width="24" height="24" viewBox="0 0 24 24" fill="none" xmlns="http://www.w3.org/2000/svg">
<path d="M12.9693 0.546103C12.3823 0.155366 11.6181 0.155192 11.0309 0.545662L2.02697 6.53282C0.977465 7.23069 0.987342 8.77585 2.04569 9.46023L11.0497 15.2827C11.6282 15.6568 12.3723 15.6566 12.9507 15.2823L21.9457 9.45981C23.0031 8.77531 23.013 7.23124 21.9644 6.53327L12.9693 0.546103Z" fill="black"/>
<path d="M22.6402 12.6127C22.856 12.9663 22.7444 13.428 22.3908 13.6439L12.9118 19.4315C12.352 19.7733 11.6481 19.7733 11.0883 19.4315L1.60929 13.6439C1.25574 13.428 1.14407 12.9663 1.35988 12.6127C1.57569 12.259 2.03725 12.1473 2.3908 12.3632L11.8698 18.1508C11.9498 18.1996 12.0503 18.1996 12.1303 18.1508L21.6093 12.3632C21.9628 12.1473 22.4244 12.259 22.6402 12.6127Z" fill="black"/>
<path d="M1.36181 16.6107C1.57935 16.2581 2.04145 16.1486 2.39394 16.3662L11.8688 22.2152C11.9492 22.2649 12.0509 22.2649 12.1313 22.2152L21.6062 16.3662C21.9586 16.1486 22.4207 16.2581 22.6383 16.6107C22.8558 16.9632 22.7464 17.4255 22.3939 17.6431L12.9191 23.4921C12.3557 23.8399 11.6444 23.8399 11.081 23.4921L1.60616 17.6431C1.25367 17.4255 1.14427 16.9632 1.36181 16.6107Z" fill="black"/>
</svg>
