<svg width="24" height="24" viewBox="0 0 24 24" fill="none" xmlns="http://www.w3.org/2000/svg">
<path d="M23 4C23 5.63089 21.6986 6.95782 20.0777 6.99901L18.3841 14.3377C19.3443 14.8379 20 15.8424 20 17C20 18.6569 18.6569 20 17 20C15.3431 20 14 18.6569 14 17C14 16.4436 14.1514 15.9227 14.4154 15.476L11.024 12.0846C10.5773 12.3486 10.0564 12.5 9.5 12.5C9.26479 12.5 9.0359 12.4729 8.81628 12.4217L6.01224 17.7749C6.61888 18.3239 7 19.1174 7 20C7 21.6569 5.65685 23 4 23C2.34315 23 1 21.6569 1 20C1 18.3431 2.34315 17 4 17C4.23524 17 4.46416 17.0271 4.68381 17.0783L7.48783 11.7252C6.88115 11.1762 6.5 10.3826 6.5 9.5C6.5 7.84315 7.84315 6.5 9.5 6.5C11.1569 6.5 12.5 7.84315 12.5 9.5C12.5 10.0564 12.3486 10.5773 12.0846 11.024L15.476 14.4154C15.9018 14.1638 16.3952 14.0144 16.9224 14.001L18.6159 6.66234C17.6557 6.16212 17 5.15763 17 4C17 2.34315 18.3431 1 20 1C21.6569 1 23 2.34315 23 4Z" fill="black"/>
</svg>
