<svg width="24" height="24" viewBox="0 0 24 24" fill="none" xmlns="http://www.w3.org/2000/svg">
<path fill-rule="evenodd" clip-rule="evenodd" d="M13.7257 13.9414C14.7815 12.5928 15.8404 11.2401 16.7873 9.83227C19.2978 6.09983 16.6165 1 12 1C7.38358 1 4.70217 6.09983 7.21269 9.83227C8.15963 11.2402 9.21854 12.5928 10.2743 13.9414C10.7829 14.5911 11.2908 15.2399 11.7851 15.8934C11.8926 16.0355 12.1074 16.0355 12.2149 15.8934C12.7092 15.2399 13.2171 14.5911 13.7257 13.9414ZM14.1613 6.57383C14.1613 7.76124 13.1996 8.72383 12.0132 8.72383C10.8269 8.72383 9.86511 7.76124 9.86511 6.57383C9.86511 5.38642 10.8269 4.42383 12.0132 4.42383C13.1996 4.42383 14.1613 5.38642 14.1613 6.57383Z" fill="black"/>
<path d="M6.54251 11.5C7.83633 13.3231 9.27709 15.0639 10.5887 16.7983C11.2964 17.7339 12.7036 17.7339 13.4112 16.7983C14.7229 15.064 16.1637 13.3231 17.4575 11.5H18.1372C18.811 11.5 19.4068 11.9492 19.5872 12.5984L21.9472 21.0984C22.2128 22.0542 21.4993 23 20.5072 23H3.50087C2.50883 23 1.79003 22.0542 2.05564 21.0984L4.41764 12.5984C4.59803 11.9492 5.18912 11.5 5.86288 11.5H6.54251Z" fill="black"/>
</svg>
