<svg width="24" height="24" viewBox="0 0 24 24" fill="none" xmlns="http://www.w3.org/2000/svg">
<path d="M15.25 1.10012C15.25 1.02709 15.1743 0.978695 15.108 1.00937L8.808 3.92507C8.77264 3.94144 8.75 3.97685 8.75 4.01582V22.9056C8.75 22.9774 8.82345 23.024 8.88944 22.9956L15.1894 20.2956C15.2262 20.2799 15.25 20.2356 15.25 20.1956V1.10012Z" fill="black"/>
<path d="M16.75 20.3156C16.75 20.3572 16.7757 20.3909 16.8145 20.4056L21.6438 22.2456C22.2984 22.4952 23 22.0162 23 21.3156V4.34954C23 3.94606 22.7575 3.58211 22.3852 3.4267L16.8885 1.13244C16.8226 1.10494 16.75 1.15334 16.75 1.22472V20.3156Z" fill="black"/>
<path d="M7.10658 22.7156C7.17298 22.7476 7.25 22.6993 7.25 22.6256V3.76333C7.25 3.72495 7.22804 3.68995 7.19348 3.67327L2.43475 1.37595C1.77075 1.0554 1 1.53918 1 2.27651V19.1456C1 19.5294 1.21964 19.8788 1.56525 20.0456L7.10658 22.7156Z" fill="black"/>
</svg>
