<svg width="24" height="24" viewBox="0 0 24 24" fill="none" xmlns="http://www.w3.org/2000/svg">
<path d="M5 12C5 13.1046 4.10457 14 3 14C1.89543 14 1 13.1046 1 12C1 10.8954 1.89543 10 3 10C4.10457 10 5 10.8954 5 12Z" fill="black"/>
<path d="M14 12C14 13.1046 13.1046 14 12 14C10.8954 14 10 13.1046 10 12C10 10.8954 10.8954 10 12 10C13.1046 10 14 10.8954 14 12Z" fill="black"/>
<path d="M23 12C23 13.1046 22.1046 14 21 14C19.8954 14 19 13.1046 19 12C19 10.8954 19.8954 10 21 10C22.1046 10 23 10.8954 23 12Z" fill="black"/>
</svg>
