<svg width="24" height="24" viewBox="0 0 24 24" fill="none" xmlns="http://www.w3.org/2000/svg">
<g clip-path="url(#clip0_1607_6060)">
<path d="M13.0021 2.98121L15.4071 4.78497C15.8498 5.11703 16.478 5.0273 16.81 4.58455C17.1421 4.1418 17.0524 3.51369 16.6096 3.18163L12.6614 0.22046C12.2695 -0.0734861 11.7306 -0.0734867 11.3386 0.220459L7.3904 3.18163C6.94765 3.51369 6.85792 4.1418 7.18998 4.58455C7.52204 5.0273 8.15015 5.11703 8.5929 4.78497L10.9979 2.98121V10.9979H2.98121L4.78497 8.5929C5.11703 8.15015 5.0273 7.52204 4.58455 7.18998C4.1418 6.85792 3.51369 6.94765 3.18163 7.3904L0.22046 11.3386C-0.0734861 11.7305 -0.0734868 12.2694 0.220459 12.6614L3.18163 16.6096C3.51369 17.0524 4.1418 17.1421 4.58455 16.81C5.0273 16.478 5.11703 15.8498 4.78497 15.4071L2.98121 13.0021H10.9979V21.0188L8.5929 19.215C8.15015 18.883 7.52204 18.9727 7.18998 19.4154C6.85792 19.8582 6.94764 20.4863 7.3904 20.8184L11.3386 23.7795C11.7305 24.0735 12.2694 24.0735 12.6614 23.7795L16.6096 20.8184C17.0524 20.4863 17.1421 19.8582 16.81 19.4154C16.478 18.9727 15.8498 18.883 15.4071 19.215L13.0021 21.0188V13.0021H21.0188L19.215 15.4071C18.883 15.8498 18.9727 16.478 19.4154 16.81C19.8582 17.1421 20.4863 17.0524 20.8184 16.6096L23.7795 12.6614C24.0735 12.2695 24.0735 11.7306 23.7795 11.3386L20.8184 7.3904C20.4863 6.94765 19.8582 6.85792 19.4154 7.18998C18.9727 7.52204 18.883 8.15015 19.215 8.5929L21.0188 10.9979H13.0021V2.98121Z" fill="black"/>
</g>
<defs>
<clipPath id="clip0_1607_6060">
<rect width="24" height="24" fill="white"/>
</clipPath>
</defs>
</svg>
