<svg width="24" height="24" viewBox="0 0 24 24" fill="none" xmlns="http://www.w3.org/2000/svg">
<path fill-rule="evenodd" clip-rule="evenodd" d="M6 23C5.17157 23 4.5 22.3284 4.5 21.5V20.75H3C2.58579 20.75 2.25 20.4142 2.25 20C2.25 19.5858 2.58579 19.25 3 19.25H4.5V15.75H3C2.58579 15.75 2.25 15.4142 2.25 15C2.25 14.5858 2.58579 14.25 3 14.25H4.5V10.75H3C2.58579 10.75 2.25 10.4142 2.25 10C2.25 9.58579 2.58579 9.25 3 9.25H4.5V5.75H3C2.58579 5.75 2.25 5.41421 2.25 5C2.25 4.58579 2.58579 4.25 3 4.25L4.5 4.25V2.5C4.5 1.67157 5.17157 1 6 1H20.75C21.5784 1 22.25 1.67157 22.25 2.5V21.5C22.25 22.3284 21.5784 23 20.75 23H6ZM9.00002 6C9.00002 5.44772 9.44774 5 10 5H17C17.5523 5 18 5.44772 18 6V8C18 8.55229 17.5523 9 17 9H10C9.44774 9 9.00002 8.55229 9.00002 8V6Z" fill="black"/>
</svg>
