<svg width="24" height="24" viewBox="0 0 24 24" fill="none" xmlns="http://www.w3.org/2000/svg">
<g clip-path="url(#clip0_1607_6080)">
<path fill-rule="evenodd" clip-rule="evenodd" d="M6.71004 6.29584C7.09894 6.68798 7.09631 7.32114 6.70416 7.71004L2.37836 12L6.70415 16.29C7.09629 16.6789 7.09893 17.312 6.71003 17.7042C6.32113 18.0963 5.68797 18.099 5.29583 17.7101L0.325373 12.7808C-0.108458 12.3505 -0.108458 11.6495 0.325373 11.2193L5.29584 6.28996C5.68798 5.90106 6.32114 5.90369 6.71004 6.29584ZM17.29 6.29584C17.6789 5.90369 18.312 5.90106 18.7042 6.28996L23.6746 11.2193C24.1085 11.6495 24.1085 12.3505 23.6746 12.7808L18.7042 17.7101C18.312 18.099 17.6789 18.0963 17.29 17.7042C16.9011 17.312 16.9037 16.6789 17.2958 16.29L21.6216 12L17.2958 7.71004C16.9037 7.32114 16.9011 6.68798 17.29 6.29584Z" fill="black"/>
</g>
<defs>
<clipPath id="clip0_1607_6080">
<rect width="24" height="24" fill="white"/>
</clipPath>
</defs>
</svg>
