<svg width="24" height="24" viewBox="0 0 24 24" fill="none" xmlns="http://www.w3.org/2000/svg">
<path d="M1 2C1 1.44772 1.44772 1 2 1H18C18.5523 1 19 1.44772 19 2V3.25H22C22.9665 3.25 23.75 4.0335 23.75 5V9C23.75 9.96649 22.9665 10.75 22 10.75H13C12.8619 10.75 12.75 10.8619 12.75 11V13.7353L14.3536 13.7325C14.524 13.7322 14.6617 13.8701 14.6611 14.0405L14.6247 20.3799C14.6197 21.8245 13.4446 22.9975 12 23C10.555 23.0026 9.38746 21.833 9.39252 20.388L9.42876 14.0495C9.42935 13.8792 9.56787 13.7409 9.73816 13.7406L11.25 13.738V11C11.25 10.0335 12.0335 9.25 13 9.25H22C22.1381 9.25 22.25 9.13807 22.25 9V5C22.25 4.86193 22.1381 4.75 22 4.75H19V6C19 6.55228 18.5523 7 18 7H2C1.44772 7 1 6.55228 1 6V2Z" fill="black"/>
</svg>
