<svg width="24" height="24" viewBox="0 0 24 24" fill="none" xmlns="http://www.w3.org/2000/svg">
<g clip-path="url(#clip0_1607_6092)">
<path d="M13.8718 0.46967C13.5789 0.176777 13.1041 0.176777 12.8112 0.46967C12.5183 0.762563 12.5183 1.23744 12.8112 1.53033L14.9134 3.63255L8.57907 8.99235C8.53654 9.02835 8.48063 9.04443 8.42547 9.03655L8.32439 9.02211C6.07809 8.70121 3.8118 9.45664 2.2073 11.0611C2.13321 11.1352 2.13321 11.2554 2.2073 11.3294L6.90866 16.0308L0.469675 22.4697C0.176779 22.7626 0.176774 23.2374 0.469665 23.5303C0.762555 23.8232 1.23743 23.8232 1.53032 23.5303L7.96932 17.0915L12.6707 21.7929C12.7448 21.867 12.865 21.867 12.939 21.7929C14.5435 20.1884 15.299 17.9221 14.9781 15.6758L14.9636 15.5747C14.9558 15.5195 14.9718 15.4636 15.0078 15.4211L20.3676 9.08679L22.4697 11.1889C22.7626 11.4818 23.2375 11.4818 23.5304 11.1889C23.8233 10.896 23.8233 10.4211 23.5304 10.1282L13.8718 0.46967Z" fill="black"/>
</g>
<defs>
<clipPath id="clip0_1607_6092">
<rect width="24" height="24" fill="white"/>
</clipPath>
</defs>
</svg>
