<svg width="24" height="24" viewBox="0 0 24 24" fill="none" xmlns="http://www.w3.org/2000/svg">
<path d="M8.25 16C8.25 15.5858 8.58579 15.25 9 15.25H11C11.4142 15.25 11.75 15.5858 11.75 16C11.75 16.4142 11.4142 16.75 11 16.75H9C8.58579 16.75 8.25 16.4142 8.25 16Z" fill="black"/>
<path d="M8.25 19C8.25 18.5858 8.58579 18.25 9 18.25H15C15.4142 18.25 15.75 18.5858 15.75 19C15.75 19.4142 15.4142 19.75 15 19.75H9C8.58579 19.75 8.25 19.4142 8.25 19Z" fill="black"/>
<path fill-rule="evenodd" clip-rule="evenodd" d="M5.25 2L5.25 5.5H2C1.44772 5.5 1 5.94772 1 6.5V17.9457C1 18.4979 1.44761 18.9456 1.99982 18.9457L5.25 18.9463V22C5.25 22.9665 6.0335 23.75 7 23.75H17C17.9665 23.75 18.75 22.9665 18.75 22V18.9821L22.0086 18.954C22.5575 18.9493 23 18.503 23 17.9541V6.5C23 5.94772 22.5523 5.5 22 5.5H18.75V2C18.75 1.0335 17.9665 0.25 17 0.25H7C6.0335 0.25 5.25 1.0335 5.25 2ZM7 1.75C6.86193 1.75 6.75 1.86193 6.75 2L6.75 5.5H17.25V2C17.25 1.86193 17.1381 1.75 17 1.75L7 1.75ZM6.70732 13.75C6.73496 13.8282 6.75 13.9123 6.75 14V22C6.75 22.1381 6.86193 22.25 7 22.25H17C17.1381 22.25 17.25 22.1381 17.25 22V14C17.25 13.9123 17.265 13.8282 17.2927 13.75H6.70732ZM5 8.25C4.58579 8.25 4.25 8.58579 4.25 9C4.25 9.41421 4.58579 9.75 5 9.75H7C7.41421 9.75 7.75 9.41421 7.75 9C7.75 8.58579 7.41421 8.25 7 8.25H5Z" fill="black"/>
</svg>
