<svg width="24" height="24" viewBox="0 0 24 24" fill="none" xmlns="http://www.w3.org/2000/svg">
<path d="M18.25 21.0532C16.4751 22.2808 14.3215 23 12 23C9.67849 23 7.52495 22.2808 5.75 21.0532V20.6167C5.75 17.1649 8.54822 14.3667 12 14.3667C15.4518 14.3667 18.25 17.1649 18.25 20.6167V21.0532Z" fill="black"/>
<path d="M12 5.75C10.6469 5.75 9.54999 6.8469 9.54999 8.2C9.54999 9.5531 10.6469 10.65 12 10.65C13.3531 10.65 14.45 9.5531 14.45 8.2C14.45 6.8469 13.3531 5.75 12 5.75Z" fill="black"/>
<path fill-rule="evenodd" clip-rule="evenodd" d="M19.7119 19.8438C19.3241 15.9265 16.0194 12.8667 12 12.8667C7.98061 12.8667 4.67587 15.9265 4.28805 19.8438C2.25856 17.8483 1 15.0711 1 12C1 5.92487 5.92487 1 12 1C18.0751 1 23 5.92487 23 12C23 15.0711 21.7414 17.8483 19.7119 19.8438ZM8.04999 8.2C8.04999 6.01848 9.81846 4.25 12 4.25C14.1815 4.25 15.95 6.01848 15.95 8.2C15.95 10.3815 14.1815 12.15 12 12.15C9.81846 12.15 8.04999 10.3815 8.04999 8.2Z" fill="black"/>
</svg>
