<svg width="24" height="24" viewBox="0 0 24 24" fill="none" xmlns="http://www.w3.org/2000/svg">
<path d="M22.25 12C22.25 17.6609 17.6609 22.25 12 22.25C6.33908 22.25 1.75 17.6609 1.75 12C1.75 6.33908 6.33908 1.75 12 1.75C17.6609 1.75 22.25 6.33908 22.25 12ZM8 12C8 9.79086 9.79086 8 12 8C13.4725 8 14.7597 8.79603 15.454 9.98111C14.8759 9.92172 14.2909 10.2032 13.9899 10.7431C13.5865 11.4666 13.846 12.3802 14.5695 12.7837L16.6355 13.9356C17.3129 14.3133 18.158 14.2004 18.7125 13.6583L20.4365 11.9725C21.0288 11.3933 21.0395 10.4437 20.4603 9.85132C19.957 9.33653 19.1738 9.26108 18.5885 9.63034C17.6173 6.93043 15.0346 5 12 5C8.13401 5 5 8.13401 5 12C5 15.866 8.13401 19 12 19C12.8284 19 13.5 18.3284 13.5 17.5C13.5 16.6716 12.8284 16 12 16C9.79086 16 8 14.2091 8 12Z" fill="black" stroke="black" stroke-width="1.5"/>
</svg>
