<svg width="24" height="24" viewBox="0 0 24 24" fill="none" xmlns="http://www.w3.org/2000/svg">
<g clip-path="url(#clip0_1607_6128)">
<path fill-rule="evenodd" clip-rule="evenodd" d="M12 0C5.37258 0 0 5.37258 0 12C0 18.6274 5.37258 24 12 24C18.6274 24 24 18.6274 24 12C24 5.37258 18.6274 0 12 0ZM5.67127 4.25705C7.39514 2.84637 9.59873 2 12 2C17.5228 2 22 6.47715 22 12C22 14.4013 21.1536 16.6049 19.7429 18.3287L5.67127 4.25705ZM4.25705 5.67127C2.84637 7.39514 2 9.59873 2 12C2 17.5228 6.47715 22 12 22C14.4013 22 16.6049 21.1536 18.3287 19.7429L4.25705 5.67127Z" fill="black"/>
</g>
<defs>
<clipPath id="clip0_1607_6128">
<rect width="24" height="24" fill="white"/>
</clipPath>
</defs>
</svg>
