<svg width="24" height="24" viewBox="0 0 24 24" fill="none" xmlns="http://www.w3.org/2000/svg">
<g clip-path="url(#clip0_1607_6132)">
<path fill-rule="evenodd" clip-rule="evenodd" d="M23.7071 0.292893C24.0976 0.683418 24.0976 1.31658 23.7071 1.70711L15.6993 9.71494L18.5995 10.005C19.149 10.0599 19.55 10.55 19.495 11.0995C19.4401 11.649 18.95 12.05 18.4005 11.995L13.4005 11.495C12.9269 11.4477 12.5523 11.0731 12.505 10.5995L12.005 5.5995C11.95 5.04996 12.351 4.55992 12.9005 4.50496C13.45 4.45001 13.9401 4.85095 13.995 5.4005L14.2851 8.30073L22.2929 0.292893C22.6834 -0.0976311 23.3166 -0.097631 23.7071 0.292893ZM4.50496 12.9005C4.55992 12.351 5.04996 11.95 5.5995 12.005L10.5995 12.505C11.0731 12.5523 11.4477 12.9269 11.495 13.4005L11.995 18.4005C12.05 18.95 11.649 19.4401 11.0995 19.495C10.55 19.55 10.0599 19.149 10.005 18.5995L9.71494 15.6993L1.70698 23.7071C1.31645 24.0976 0.683288 24.0976 0.292767 23.7071C-0.0977552 23.3166 -0.0977511 22.6834 0.292776 22.2929L8.30071 14.2851L5.4005 13.995C4.85095 13.9401 4.45001 13.45 4.50496 12.9005Z" fill="black"/>
</g>
<defs>
<clipPath id="clip0_1607_6132">
<rect width="24" height="24" fill="white"/>
</clipPath>
</defs>
</svg>
