<svg width="24" height="24" viewBox="0 0 24 24" fill="none" xmlns="http://www.w3.org/2000/svg">
<path d="M7.92406 15.4605C7.8611 15.426 7.78266 15.4658 7.77448 15.5371L7.0484 21.8693C6.94786 22.7461 7.94961 23.3138 8.65013 22.777L11.3975 20.6717C11.7537 20.3988 12.248 20.3965 12.6067 20.6662L15.4435 22.7991C16.148 23.3288 17.1434 22.7543 17.0372 21.8794L16.265 15.5147C16.2563 15.4435 16.1777 15.4042 16.115 15.439C14.8951 16.115 13.491 16.5 12 16.5C10.5249 16.5 9.13489 16.1231 7.92406 15.4605Z" fill="black"/>
<path fill-rule="evenodd" clip-rule="evenodd" d="M19 8C19 4.13401 15.866 1 12 1C8.13401 1 5 4.13401 5 8C5 11.866 8.13401 15 12 15C15.866 15 19 11.866 19 8ZM13.25 5C13.25 4.74007 13.1154 4.49867 12.8943 4.36201C12.6732 4.22536 12.3971 4.21293 12.1646 4.32918L10.1646 5.32918C9.79411 5.51442 9.64394 5.96493 9.82918 6.33541C10.0144 6.70589 10.4649 6.85606 10.8354 6.67082L11.75 6.21353V11C11.75 11.4142 12.0858 11.75 12.5 11.75C12.9142 11.75 13.25 11.4142 13.25 11V5Z" fill="black"/>
</svg>
