<svg width="24" height="24" viewBox="0 0 24 24" fill="none" xmlns="http://www.w3.org/2000/svg">
<g clip-path="url(#clip0_1607_6185)">
<path fill-rule="evenodd" clip-rule="evenodd" d="M3.17191 10.3104L1.70001 8.90993C1.29737 8.52682 0.660395 8.54265 0.277286 8.9453C-0.105823 9.34794 -0.0899889 9.98491 0.312653 10.368L3.08065 13.0017C3.33878 13.2473 3.66931 13.3808 4.00425 13.3971C4.30272 13.4117 4.60801 13.3334 4.87182 13.1582L8.05645 11.0438C8.51946 10.7364 8.6456 10.1118 8.33817 9.64878C8.03075 9.18577 7.40619 9.05963 6.94317 9.36706L5.17716 10.5396C5.80748 7.31682 8.79106 4.89689 12.3339 5.01692C14.8249 5.1013 16.9577 6.4246 18.1366 8.33918C18.4281 8.81243 19.0479 8.95983 19.5212 8.66841C19.9944 8.37699 20.1418 7.7571 19.8504 7.28385C18.3231 4.80354 15.5772 3.11297 12.402 3.00541C7.84893 2.85116 3.92487 6.01321 3.17191 10.3104Z" fill="black"/>
<path fill-rule="evenodd" clip-rule="evenodd" d="M19.1282 10.8406C19.392 10.6654 19.6973 10.5872 19.9958 10.6017C20.3307 10.618 20.6612 10.7515 20.9194 10.9971L23.6873 13.6308C24.09 14.0139 24.1058 14.6509 23.7227 15.0535C23.3396 15.4562 22.7026 15.472 22.3 15.0889L20.8281 13.6884C20.0751 17.9856 16.1511 21.1477 11.598 20.9934C8.42282 20.8859 5.6769 19.1953 4.14957 16.715C3.85816 16.2417 4.00556 15.6218 4.47881 15.3304C4.95206 15.039 5.57195 15.1864 5.86337 15.6596C7.04234 17.5742 9.17514 18.8975 11.6661 18.9819C15.2089 19.1019 18.1925 16.682 18.8228 13.4592L17.0568 14.6318C16.5938 14.9392 15.9693 14.8131 15.6618 14.3501C15.3544 13.887 15.4805 13.2625 15.9436 12.9551L19.1282 10.8406Z" fill="black"/>
</g>
<defs>
<clipPath id="clip0_1607_6185">
<rect width="24" height="24" fill="white"/>
</clipPath>
</defs>
</svg>
