<svg width="24" height="24" viewBox="0 0 24 24" fill="none" xmlns="http://www.w3.org/2000/svg">
<path d="M1.28731 4.44813C1.22674 4.38729 1.12376 4.41534 1.10527 4.49935C0.78819 5.9398 1.1874 7.50731 2.30291 8.6278C3.55094 9.88139 5.35604 10.2344 6.9178 9.68681L14.0996 16.9006C13.5544 18.4694 13.9058 20.2825 15.1539 21.5361C16.2694 22.6566 17.8299 23.0576 19.264 22.7391C19.3476 22.7205 19.3756 22.6171 19.315 22.5563L18.2994 21.5361C17.4308 20.6637 17.4308 19.2491 18.2994 18.3766C19.168 17.5041 20.5763 17.5041 21.4449 18.3766L22.4605 19.3967C22.5211 19.4576 22.624 19.4295 22.6425 19.3455C22.9596 17.9051 22.5604 16.3375 21.4449 15.2171C20.1969 13.9635 18.3919 13.6105 16.8301 14.158L9.64826 6.9441C10.1934 5.37539 9.84192 3.56229 8.59392 2.30872C7.47841 1.18824 5.91786 0.787245 4.48381 1.10574C4.40018 1.12432 4.37225 1.22775 4.43281 1.28859L5.4484 2.30871C6.31701 3.18119 6.31701 4.59576 5.4484 5.46824C4.57979 6.34073 3.1715 6.34073 2.3029 5.46824L1.28731 4.44813Z" fill="black"/>
<path d="M15.6897 1.72228C16.0868 1.32338 16.7307 1.32338 17.1278 1.72228L22.7022 7.32149C23.0993 7.72039 23.0993 8.36714 22.7022 8.76604L20.6341 10.8434C20.2369 11.2423 19.593 11.2423 19.1959 10.8434L17.7251 9.36605L15.971 11.128L13.2405 8.38537L14.9947 6.62337L13.6216 5.24416C13.2244 4.84526 13.2244 4.19851 13.6216 3.7996L15.6897 1.72228Z" fill="black"/>
<path d="M8.35274 13.2949L11.0832 16.0376L4.44959 22.7008C4.05246 23.0997 3.40858 23.0997 3.01145 22.7008L1.71909 21.4027C1.32196 21.0038 1.32196 20.3571 1.71909 19.9581L8.35274 13.2949Z" fill="black"/>
</svg>
