<svg width="24" height="24" viewBox="0 0 24 24" fill="none" xmlns="http://www.w3.org/2000/svg">
<path fill-rule="evenodd" clip-rule="evenodd" d="M2.70051 19.9958H21.3005L22.9896 8.61383C23.1119 7.78971 22.2318 7.18619 21.5071 7.59718L18.6627 9.21028C18.2715 9.43213 17.7803 9.36554 17.4623 9.04753L12.7076 4.29289C12.3171 3.90237 11.6839 3.90237 11.2934 4.29289L6.53879 9.04753C6.22078 9.36554 5.72959 9.43214 5.33838 9.21028L2.49394 7.59718C1.76922 7.18618 0.889172 7.7897 1.01147 8.61382L2.70051 19.9958ZM12 16C13.1046 16 14 15.1046 14 14C14 12.8954 13.1046 12 12 12C10.8954 12 10 12.8954 10 14C10 15.1046 10.8954 16 12 16Z" fill="black"/>
</svg>
