<svg width="24" height="24" viewBox="0 0 24 24" fill="none" xmlns="http://www.w3.org/2000/svg">
<path fill-rule="evenodd" clip-rule="evenodd" d="M12.8761 2.51436C12.4951 1.82855 11.5088 1.82855 11.1278 2.51436L1.12728 20.5152C0.756986 21.1818 1.23895 22.0009 2.00144 22.0009H22.0024C22.7649 22.0009 23.2469 21.1818 22.8766 20.5152L12.8761 2.51436ZM12.75 9C12.75 8.58579 12.4142 8.25 12 8.25C11.5858 8.25 11.25 8.58579 11.25 9V16C11.25 16.4142 11.5858 16.75 12 16.75C12.4142 16.75 12.75 16.4142 12.75 16V9ZM12.75 19.0001C12.75 18.5858 12.4142 18.2501 12 18.2501C11.5858 18.2501 11.25 18.5858 11.25 19.0001V19.0318C11.25 19.446 11.5858 19.7818 12 19.7818C12.4142 19.7818 12.75 19.446 12.75 19.0318V19.0001Z" fill="black"/>
</svg>
