<svg width="24" height="24" viewBox="0 0 24 24" fill="none" xmlns="http://www.w3.org/2000/svg">
<g clip-path="url(#clip0_1607_6265)">
<path d="M4.71498 1.29536C5.01618 1.01101 5.02983 0.536335 4.74548 0.235141C4.46113 -0.0660533 3.98646 -0.0797085 3.68526 0.204641C1.4171 2.34596 0 5.38309 0 8.75C0 12.1169 1.4171 15.154 3.68526 17.2954C3.98646 17.5797 4.46113 17.5661 4.74548 17.2649C5.02983 16.9637 5.01618 16.489 4.71498 16.2046C2.73446 14.3349 1.5 11.6872 1.5 8.75C1.5 5.8128 2.73446 3.16512 4.71498 1.29536Z" fill="black"/>
<path d="M20.3159 0.204641C20.0147 -0.0797085 19.54 -0.0660533 19.2557 0.235141C18.9713 0.536335 18.985 1.01101 19.2862 1.29536C21.2667 3.16512 22.5012 5.8128 22.5012 8.75C22.5012 11.6872 21.2667 14.3349 19.2862 16.2046C18.985 16.489 18.9713 16.9637 19.2557 17.2649C19.54 17.5661 20.0147 17.5797 20.3159 17.2954C22.5841 15.154 24.0012 12.1169 24.0012 8.75C24.0012 5.3831 22.5841 2.34596 20.3159 0.204641Z" fill="black"/>
<path d="M17.6749 3.21432C17.3791 2.92441 16.9043 2.92923 16.6143 3.22508C16.3244 3.52092 16.3293 3.99577 16.6251 4.28568C17.7836 5.42094 18.501 7.00102 18.501 8.75C18.501 10.499 17.7836 12.0791 16.6251 13.2143C16.3293 13.5042 16.3244 13.9791 16.6143 14.2749C16.9043 14.5708 17.3791 14.5756 17.6749 14.2857C19.1095 12.8799 20.001 10.9184 20.001 8.75C20.001 6.58161 19.1095 4.62009 17.6749 3.21432Z" fill="black"/>
<path d="M7.3867 3.22508C7.67661 3.52092 7.67179 3.99577 7.37594 4.28568C6.21742 5.42094 5.5 7.00102 5.5 8.75C5.5 10.499 6.21742 12.0791 7.37594 13.2143C7.67179 13.5042 7.67661 13.9791 7.3867 14.2749C7.09679 14.5708 6.62194 14.5756 6.32609 14.2857C4.89152 12.8799 4 10.9184 4 8.75C4 6.58161 4.89152 4.62009 6.32609 3.21432C6.62194 2.92441 7.09679 2.92923 7.3867 3.22508Z" fill="black"/>
<path d="M12.75 12.1695C14.3226 11.8261 15.5 10.4256 15.5 8.75C15.5 6.817 13.933 5.25 12 5.25C10.067 5.25 8.5 6.817 8.5 8.75C8.5 10.4256 9.67741 11.8261 11.25 12.1695V23.25C11.25 23.6642 11.5858 24 12 24C12.4142 24 12.75 23.6642 12.75 23.25V12.1695Z" fill="black"/>
</g>
<defs>
<clipPath id="clip0_1607_6265">
<rect width="24" height="24" fill="white"/>
</clipPath>
</defs>
</svg>
