<svg width="24" height="24" viewBox="0 0 24 24" fill="none" xmlns="http://www.w3.org/2000/svg">
<path d="M4 5.22217H7.55556V8.77772H4V5.22217Z" fill="black"/>
<path d="M13.7777 5.22217H10.2222V8.77772H13.7777V5.22217Z" fill="black"/>
<path d="M18.2222 4.47217C18.6364 4.47217 18.9722 4.80795 18.9722 5.22217V6.25H20C20.4142 6.25 20.75 6.58579 20.75 7C20.75 7.41421 20.4142 7.75 20 7.75H18.9722V8.77772C18.9722 9.19194 18.6364 9.52772 18.2222 9.52772C17.808 9.52772 17.4722 9.19194 17.4722 8.77772V7.75H16.4444C16.0302 7.75 15.6944 7.41421 15.6944 7C15.6944 6.58579 16.0302 6.25 16.4444 6.25H17.4722V5.22217C17.4722 4.80795 17.808 4.47217 18.2222 4.47217Z" fill="black"/>
<path fill-rule="evenodd" clip-rule="evenodd" d="M2 1C1.44772 1 1 1.44772 1 2V16.5C1 17.0523 1.44772 17.5 2 17.5H9.25V21.5H5.3999C4.98569 21.5 4.6499 21.8358 4.6499 22.25C4.6499 22.6642 4.98569 23 5.3999 23H18.5999C19.0141 23 19.3499 22.6642 19.3499 22.25C19.3499 21.8358 19.0141 21.5 18.5999 21.5H14.75V17.5H22C22.5523 17.5 23 17.0523 23 16.5V2C23 1.44772 22.5523 1 22 1H2ZM2.5 2.5V13H21.5V2.5H2.5ZM13.25 18.25H10.75V20.75H13.25V18.25Z" fill="black"/>
</svg>
