<svg width="24" height="24" viewBox="0 0 24 24" fill="none" xmlns="http://www.w3.org/2000/svg">
<path fill-rule="evenodd" clip-rule="evenodd" d="M10 1C14.9706 1 19 5.02944 19 10C19 12.2153 18.1996 14.2437 16.8722 15.8117L23.5303 22.4699C23.8232 22.7627 23.8232 23.2376 23.5303 23.5305C23.2374 23.8234 22.7626 23.8234 22.4697 23.5305L15.8116 16.8723C14.2436 18.1997 12.2153 19 10 19C5.02944 19 1 14.9706 1 10C1 5.02944 5.02944 1 10 1ZM5.25 10C5.25 9.58579 5.58579 9.25 6 9.25H14C14.4142 9.25 14.75 9.58579 14.75 10C14.75 10.4142 14.4142 10.75 14 10.75H6C5.58579 10.75 5.25 10.4142 5.25 10Z" fill="black"/>
</svg>
