<svg width="24" height="24" viewBox="0 0 24 24" fill="none" xmlns="http://www.w3.org/2000/svg">
<path d="M11.25 1C11.25 1.41421 10.9142 1.75 10.5 1.75H10V3.25H6L6 1.75H5.49961C5.08539 1.75 4.74961 1.41421 4.74961 1C4.74961 0.585786 5.08539 0.25 5.49961 0.25H10.5C10.9142 0.25 11.25 0.585786 11.25 1Z" fill="black"/>
<path d="M10 7.8L11.8824 10.4354C12.4781 11.2694 12.8481 12.2389 12.9622 13.25H3.03783C3.15193 12.2389 3.52187 11.2694 4.1176 10.4354L6 7.8L6 4.75H10V7.8Z" fill="black"/>
<path d="M3 14.75H13V19.25H3V14.75Z" fill="black"/>
<path d="M3 20.75H13V22C13 22.5523 12.5523 23 12 23H4C3.44771 23 3 22.5523 3 22V20.75Z" fill="black"/>
<path d="M14.7778 10C14.3482 10 14 10.3482 14 10.7778V13C14 14.9539 15.401 16.5806 17.2532 16.9304C17.2511 16.9533 17.25 16.9765 17.25 17V22.25H16C15.5858 22.25 15.25 22.5858 15.25 23C15.25 23.4142 15.5858 23.75 16 23.75H20C20.4142 23.75 20.75 23.4142 20.75 23C20.75 22.5858 20.4142 22.25 20 22.25H18.75V17C18.75 16.9765 18.7489 16.9533 18.7468 16.9304C20.599 16.5806 22 14.9539 22 13V10.7778C22 10.3482 21.6518 10 21.2222 10H14.7778Z" fill="black"/>
</svg>
