<svg width="24" height="24" viewBox="0 0 24 24" fill="none" xmlns="http://www.w3.org/2000/svg">
<path d="M20.5155 6.55685C19.58 8.35971 18.6376 10.1758 18.1219 12.1003L18.0831 12.2451L18.206 12.2786L21.722 13.2831L22.055 13.3941L22.115 13.1702C22.6161 11.3002 22.7164 9.17893 22.8138 7.11835C22.8608 6.12528 22.9071 5.14629 22.9972 4.2163C23.026 3.91951 22.836 3.64541 22.548 3.56823C22.2599 3.49105 21.9583 3.63342 21.8349 3.90484C21.4308 4.79311 20.974 5.67339 20.5155 6.55685Z" fill="black"/>
<path d="M21.6661 14.8456L21.2786 14.7165L17.7983 13.7222L17.6949 13.694L17.333 15.0448C17.19 15.5782 17.5066 16.1266 18.0401 16.2695L20.1013 16.8218C20.6347 16.9648 21.1831 16.6482 21.326 16.1147L21.6661 14.8456Z" fill="black"/>
<path d="M19.0455 16.5391C17.9564 16.2472 16.837 16.8936 16.5451 17.9826C16.4532 18.3258 16.4524 18.6871 16.5428 19.0306L17.0048 20.7862C17.2084 21.5595 18.1754 21.8186 18.7383 21.2507L20.0162 19.9613C20.2663 19.709 20.4463 19.3958 20.5382 19.0526C20.83 17.9635 20.1837 16.844 19.0946 16.5522L19.0455 16.5391Z" fill="black"/>
<path fill-rule="evenodd" clip-rule="evenodd" d="M12.1625 20.0413C11.3348 21.2983 10.1465 22.0361 8 22C3.61519 21.9262 1 17.1746 1 12.7892C1 6.83048 5.13392 2 12.8277 2C15.4383 2 18.193 2.83175 19.9196 4.49282L16.8141 11.3189C16.7564 11.4459 16.7092 11.5775 16.6731 11.7123L16.1192 13.7794C15.4503 13.9277 14.8019 14.2467 14.1446 14.9185C13.0497 16.0377 12.9705 16.8702 12.8882 17.7358C12.8224 18.4285 12.7545 19.1424 12.1625 20.0413ZM13.9186 8.2009C14.7748 8.2009 15.4689 7.50685 15.4689 6.65068C15.4689 5.79452 14.7748 5.10046 13.9186 5.10046C13.0625 5.10046 12.3684 5.79452 12.3684 6.65068C12.3684 7.50685 13.0625 8.2009 13.9186 8.2009ZM9.26798 8.71764C9.26798 9.5738 8.57393 10.2679 7.71776 10.2679C6.8616 10.2679 6.16755 9.5738 6.16755 8.71764C6.16755 7.86148 6.8616 7.16742 7.71776 7.16742C8.57393 7.16742 9.26798 7.86148 9.26798 8.71764ZM7.20102 14.9185C7.20102 15.7747 6.50697 16.4687 5.65081 16.4687C4.79464 16.4687 4.10059 15.7747 4.10059 14.9185C4.10059 14.0624 4.79464 13.3683 5.65081 13.3683C6.50697 13.3683 7.20102 14.0624 7.20102 14.9185Z" fill="black"/>
</svg>
