<svg width="24" height="24" viewBox="0 0 24 24" fill="none" xmlns="http://www.w3.org/2000/svg">
<path fill-rule="evenodd" clip-rule="evenodd" d="M9.23701 0.288636C8.84402 0.157741 8.41933 0.37021 8.28843 0.763198C8.15754 1.15619 8.37001 1.58088 8.76299 1.71177L8.91694 1.76305C10.0149 2.12875 10.8314 3.01534 11.1281 4.09287C9.50233 4.44349 8.20964 5.75554 7.92881 7.45328L7.71729 8.73201C7.57439 9.59596 7.23277 10.4149 6.71938 11.1243L6.36257 11.6174C5.47684 12.8413 5 14.3136 5 15.8244V16.0002C5 19.8662 8.13401 23.0002 12 23.0002C15.866 23.0002 19 19.8662 19 16.0002V15.8244C19 14.3136 18.5232 12.8413 17.6374 11.6174L17.2806 11.1243C16.7672 10.4149 16.4256 9.59596 16.2827 8.73201L16.0712 7.45328C15.7785 5.68413 14.3871 4.33379 12.6651 4.05377L12.6071 3.82037C12.2098 2.2125 11.0141 0.880552 9.39096 0.339913L9.23701 0.288636ZM15 16.0002C15 17.6571 13.6569 19.0002 12 19.0002C10.3431 19.0002 9 17.6571 9 16.0002C9 14.3433 10.3431 13.0002 12 13.0002C13.6569 13.0002 15 14.3433 15 16.0002Z" fill="black"/>
</svg>
