<svg width="24" height="24" viewBox="0 0 24 24" fill="none" xmlns="http://www.w3.org/2000/svg">
<path d="M4.22172 4.22172C6.2772 2.16624 8.94376 1.09429 11.6366 1.00586C11.6366 1.01487 11.6368 1.02391 11.6371 1.03298C11.6639 1.80115 11.605 2.57154 11.4602 3.32864L11.1159 2.98433C10.823 2.69143 10.3481 2.69143 10.0552 2.98433C9.76231 3.27722 9.76231 3.75209 10.0552 4.04499L10.9961 4.98586C10.5811 6.09717 9.96662 7.15077 9.15262 8.09164L8.28774 7.22676C7.99484 6.93386 7.51997 6.93386 7.22708 7.22676C6.93418 7.51965 6.93418 7.99452 7.22708 8.28742L8.09199 9.15233C7.15119 9.96635 6.09767 10.5809 4.98644 10.9959L4.04555 10.055C3.75266 9.76211 3.27778 9.76211 2.98489 10.055C2.692 10.3479 2.692 10.8228 2.98489 11.1157L3.32932 11.4601C2.57199 11.605 1.80134 11.664 1.03293 11.6371C1.02387 11.6368 1.01485 11.6367 1.00586 11.6367C1.09428 8.94379 2.16623 6.27721 4.22172 4.22172Z" fill="black"/>
<path d="M5.81332 13.9441L4.57554 12.7063C3.42786 13.0281 2.24101 13.1722 1.05865 13.1387C1.30952 15.5632 2.36388 17.9202 4.22172 19.7781C6.07965 21.636 8.43683 22.6904 10.8614 22.9412C10.8279 21.759 10.972 20.5724 11.2937 19.4249L10.0555 18.1868C9.76261 17.8939 9.76261 17.419 10.0555 17.1261C10.3484 16.8332 10.8233 16.8332 11.1162 17.1261L11.8534 17.8633C12.3277 16.7872 12.9714 15.7676 13.7845 14.8452L12.8836 13.9443C12.5907 13.6514 12.5907 13.1766 12.8836 12.8837C13.1765 12.5908 13.6514 12.5908 13.9443 12.8837L14.8451 13.7845C15.7677 12.9713 16.7875 12.3275 17.8638 11.8531L17.1268 11.1161C16.8339 10.8232 16.8339 10.3483 17.1268 10.0554C17.4197 9.76254 17.8946 9.76254 18.1875 10.0554L19.4255 11.2934C20.5728 10.9719 21.7592 10.8279 22.9412 10.8613C22.6903 8.43679 21.636 6.07963 19.7781 4.22172C17.9202 2.36386 15.5631 1.3095 13.1386 1.05864C13.1721 2.24079 13.0281 3.42742 12.7065 4.57492L13.9443 5.81275C14.2372 6.10565 14.2372 6.58052 13.9443 6.87341C13.6514 7.16631 13.1765 7.16631 12.8836 6.87341L12.1468 6.13654C11.6724 7.2127 11.0287 8.23231 10.2157 9.15474L11.1162 10.0552C11.4091 10.3481 11.4091 10.823 11.1162 11.1158C10.8233 11.4087 10.3484 11.4087 10.0555 11.1158L9.15508 10.2154C8.23272 11.0284 7.21318 11.6722 6.13709 12.1465L6.87398 12.8834C7.16687 13.1763 7.16687 13.6512 6.87398 13.9441C6.58108 14.237 6.10621 14.237 5.81332 13.9441Z" fill="black"/>
<path d="M12.5399 20.6712L12.8839 21.0152C13.1768 21.3081 13.6517 21.3081 13.9446 21.0152C14.2375 20.7223 14.2375 20.2474 13.9446 19.9545L13.004 19.014C13.419 17.9027 14.0335 16.8491 14.8475 15.9083L15.7121 16.7728C16.0049 17.0657 16.4798 17.0657 16.7727 16.7728C17.0656 16.4799 17.0656 16.005 16.7727 15.7121L15.9082 14.8476C16.8492 14.0334 17.903 13.4188 19.0145 13.0038L19.9552 13.9445C20.2481 14.2374 20.723 14.2374 21.0159 13.9445C21.3088 13.6516 21.3088 13.1767 21.0159 12.8839L20.6718 12.5397C21.4288 12.395 22.1991 12.3361 22.9671 12.3629C22.9761 12.3632 22.985 12.3634 22.9939 12.3634C22.9055 15.0562 21.8335 17.7226 19.7781 19.7781C17.7227 21.8335 15.0562 22.9054 12.3634 22.9939C12.3634 22.985 12.3633 22.976 12.363 22.9671C12.3361 22.1988 12.3951 21.4283 12.5399 20.6712Z" fill="black"/>
</svg>
