<svg width="24" height="24" viewBox="0 0 24 24" fill="none" xmlns="http://www.w3.org/2000/svg">
<path d="M15.7066 1H15.9997C19.5881 1 22.5458 3.70006 22.9521 7.17936C22.9565 7.21727 22.93 7.25194 22.8923 7.25774L19.1333 7.77034C19.0777 7.77792 19.0268 7.73836 19.0204 7.68267L18.9995 7.50005C18.8735 6.40269 17.8817 5.61525 16.7844 5.74126C15.687 5.86727 14.8996 6.859 15.0256 7.95636L15.0567 8.22746C15.0629 8.28151 15.0248 8.3306 14.9709 8.33795L2.29854 10.066C2.20124 10.0793 2.14509 9.959 2.21776 9.89294L7.30491 5.26826C7.34441 5.23235 7.40514 5.2338 7.44289 5.27154L7.99971 5.82836C8.78076 6.60941 10.0471 6.60941 10.8281 5.82836C11.6092 5.04731 11.6092 3.78098 10.8281 2.99994L10.505 2.67683C10.4603 2.6321 10.4678 2.55756 10.521 2.52335C12.0584 1.53478 13.8567 1 15.7066 1Z" fill="black"/>
<path d="M1.08586 11.7454C1.03659 11.7524 1 11.7946 1 11.8444V14.9C1 14.9552 1.04477 15 1.1 15L2 15C3.10457 15 4 15.8955 4 17C4 18.1046 3.10457 19 2 19L1.1 19C1.04477 19 1 19.0448 1 19.1V22C1 22.606 1.53468 23.0727 2.13511 22.9908L12.2655 21.5357C12.3347 21.5257 12.3727 21.4495 12.3418 21.3867C12.1398 20.9773 12 20.4747 12 20C12 18.3431 13.3431 17 15 17C16.6569 17 18 18.3431 18 20C18 20.1889 17.9759 20.3939 17.9398 20.5815C17.9265 20.6507 17.9846 20.7141 18.0544 20.7041L22.1351 20.1179C22.6306 20.0504 23 19.6272 23 19.1271V14.9058C23 14.8288 22.9161 14.78 22.8463 14.8127C22.5893 14.9329 22.3025 15 22 15C20.8954 15 20 14.1046 20 13C20 11.8955 20.8954 11 22 11C22.3025 11 22.5893 11.0672 22.8463 11.1874C22.9161 11.22 23 11.1712 23 11.0942V8.8715C23 8.8109 22.9465 8.76423 22.8865 8.77242L11.8374 10.2791C11.768 10.2886 11.7294 10.3649 11.7595 10.4282C11.8608 10.6421 11.9333 10.8742 11.9711 11.1201C12.1809 12.4848 11.2447 13.7612 9.87999 13.971C8.51531 14.1808 7.23895 13.2445 7.02915 11.8799C6.98681 11.6044 6.99115 11.3325 7.03629 11.0723C7.04827 11.0032 6.99073 10.94 6.92126 10.9495L1.10606 11.7425L1.08586 11.7454Z" fill="black"/>
</svg>
