<svg width="24" height="24" viewBox="0 0 24 24" fill="none" xmlns="http://www.w3.org/2000/svg">
<path fill-rule="evenodd" clip-rule="evenodd" d="M12 1C8 3.5 4.38396 8.49692 3.23076 13.1143C1.9698 18.1632 6.03592 23 11.5413 23H12.0535C17.7263 23 21.9657 18.0881 20.8088 12.856L20.6873 12.3069C20.495 11.4369 20.232 10.5821 19.9008 9.75003L18.8062 7L17.214 9L12 1ZM8.83303 13.9724C7.48357 15.799 7.95506 18.3854 9.86224 19.6183C11.1631 20.4592 12.8362 20.4592 14.137 19.6183C16.0442 18.3854 16.5157 15.799 15.1662 13.9724L12.4706 10.3238C12.2366 10.007 11.7627 10.007 11.5286 10.3238L8.83303 13.9724Z" fill="black"/>
</svg>
