<svg width="24" height="24" viewBox="0 0 24 24" fill="none" xmlns="http://www.w3.org/2000/svg">
<path fill-rule="evenodd" clip-rule="evenodd" d="M22.9914 17.1719L22.0792 12.1704C22.0576 12.0523 22.0576 11.9312 22.0792 11.813L22.9914 6.81153C23.009 6.71517 22.8914 6.65376 22.8219 6.72301L19.0824 10.4507C19.0607 10.4723 19.0244 10.468 19.0083 10.4419C17.1593 7.44976 13.886 5.62744 10.3606 5.62744C6.47349 5.62744 2.92728 7.83898 1.22698 11.3235L1.07614 11.6326C0.965504 11.8593 0.965504 12.1242 1.07615 12.3509L1.22697 12.66C2.92728 16.1445 6.47349 18.3561 10.3606 18.3561C13.886 18.3561 17.1593 16.5337 19.0083 13.5416C19.0244 13.5154 19.0607 13.5111 19.0825 13.5328L22.8219 17.2604C22.8914 17.3297 23.009 17.2683 22.9914 17.1719ZM10.377 8.63485C10.0837 8.34242 9.60878 8.34317 9.31635 8.63652C9.02392 8.92988 9.02468 9.40475 9.31803 9.69718C10.5896 10.9647 10.5896 13.0189 9.31803 14.2864C9.02468 14.5788 9.02392 15.0537 9.31635 15.3471C9.60878 15.6404 10.0837 15.6412 10.377 15.3487C12.2366 13.495 12.2366 10.4886 10.377 8.63485ZM6.76087 9.99367C6.76087 9.57946 6.42509 9.24367 6.01087 9.24367C5.59666 9.24367 5.26087 9.57946 5.26087 9.99367V10.0333C5.26087 10.4475 5.59666 10.7833 6.01087 10.7833C6.42509 10.7833 6.76087 10.4475 6.76087 10.0333V9.99367Z" fill="black"/>
<path d="M16.2569 5.72425L17.4548 3.93305C17.494 3.87442 17.4617 3.79485 17.3926 3.77998L14.4828 3.15334C12.6515 2.75899 10.7831 3.15725 9.30054 4.17545C9.65084 4.14363 10.0045 4.12744 10.3606 4.12744C12.4675 4.12744 14.4964 4.69483 16.2569 5.72425Z" fill="black"/>
<path d="M9.28783 19.8069C10.7597 20.8384 12.6259 21.2479 14.4568 20.8581L17.4284 20.2255C17.4976 20.2107 17.5301 20.1311 17.4908 20.0723L16.2723 18.2503C14.5082 19.2854 12.4736 19.8561 10.3606 19.8561C10.0002 19.8561 9.64228 19.8395 9.28783 19.8069Z" fill="black"/>
</svg>
