<svg width="24" height="24" viewBox="0 0 24 24" fill="none" xmlns="http://www.w3.org/2000/svg">
<path fill-rule="evenodd" clip-rule="evenodd" d="M12 23C18.0751 23 23 18.0751 23 12C23 5.92487 18.0751 1 12 1C5.92487 1 1 5.92487 1 12C1 18.0751 5.92487 23 12 23ZM9.75 6C9.75 5.58579 9.41421 5.25 9 5.25C8.58579 5.25 8.25 5.58579 8.25 6V10.0001C7.94639 9.77204 7.75 9.40895 7.75 9V6C7.75 5.58579 7.41421 5.25 7 5.25C6.58579 5.25 6.25 5.58579 6.25 6V9C6.25 10.2588 7.09575 11.32 8.25 11.6465L8.25 19C8.25 19.4142 8.58579 19.75 9 19.75C9.41421 19.75 9.75 19.4142 9.75 19V11.6465C10.9043 11.32 11.75 10.2588 11.75 9V6C11.75 5.58579 11.4142 5.25 11 5.25C10.5858 5.25 10.25 5.58579 10.25 6V9C10.25 9.40895 10.0536 9.77204 9.75 10.0001V6ZM15 5.25C14.5858 5.25 14.25 5.58579 14.25 6V6.16779L14.25 6.17366L14.25 13.5L14.25 13.5115V19C14.25 19.4142 14.5858 19.75 15 19.75C15.4142 19.75 15.75 19.4142 15.75 19V15.2323C15.8316 15.244 15.9151 15.25 16 15.25H17.8286C18.3375 15.25 18.75 14.8375 18.75 14.3286L18.75 11.4319C18.75 9.0371 17.5531 6.80071 15.5605 5.4723C15.5349 5.45526 15.509 5.43984 15.4827 5.42598C15.3523 5.31616 15.1839 5.25 15 5.25Z" fill="black"/>
</svg>
