<svg width="24" height="24" viewBox="0 0 24 24" fill="none" xmlns="http://www.w3.org/2000/svg">
<path d="M11.293 1.70696C11.6835 1.31643 12.3166 1.31643 12.7072 1.70696L13.4143 2.41406C14.5858 3.58564 14.5858 5.48513 13.4143 6.6567L12.7072 7.36381C12.6584 7.41263 12.6057 7.45534 12.5503 7.49195C12.1621 7.74823 11.6347 7.70552 11.293 7.36381L10.5858 6.6567C9.41427 5.48513 9.41427 3.58564 10.5858 2.41406L11.293 1.70696Z" fill="black"/>
<path d="M4.00006 9.99985C4.00006 9.44756 4.44777 8.99985 5.00006 8.99985H6.00006C7.65691 8.99985 9.00006 10.343 9.00006 11.9998V12.9998C9.00006 13.5521 8.55234 13.9998 8.00006 13.9998H7.00006C5.34321 13.9998 4.00006 12.6567 4.00006 10.9998V9.99985Z" fill="black"/>
<path d="M4.8831 19.9998C3.16137 19.9998 1.63282 21.1016 1.08836 22.7349C1.04492 22.8653 1.14193 22.9998 1.2793 22.9998H22.7208C22.8582 22.9998 22.9552 22.8653 22.9118 22.7349C22.3673 21.1016 20.8387 19.9998 19.117 19.9998H18.8831C18.2383 19.9998 17.6206 20.1544 17.0715 20.4335C16.3803 20.7849 15.3146 20.6305 14.752 20.0969C14.2415 19.6128 13.6034 19.2619 12.8934 19.1C13.1702 17.6542 13.8403 16.3076 14.8344 15.212C14.3822 14.9732 14.012 14.5999 13.7773 14.1453C13.3944 14.5602 13.051 15.0063 12.7501 15.4774V9.04209C12.2626 9.19491 11.7375 9.19491 11.2501 9.04209V15.4774C10.9491 15.0063 10.6058 14.5602 10.2228 14.1453C9.98807 14.5999 9.61794 14.9732 9.16575 15.212C10.1599 16.3075 10.8299 17.6542 11.1067 19.1C10.3967 19.2619 9.75863 19.6128 9.24814 20.0969C8.68549 20.6305 7.61986 20.7849 6.92863 20.4335C6.37955 20.1544 5.76184 19.9998 5.11702 19.9998H4.8831Z" fill="black"/>
<path d="M19.0001 8.99985C19.5523 8.99985 20.0001 9.44756 20.0001 9.99985V10.9998C20.0001 12.6567 18.6569 13.9998 17.0001 13.9998H16.0001C15.4478 13.9998 15.0001 13.5521 15.0001 12.9998V11.9998C15.0001 10.343 16.3432 8.99985 18.0001 8.99985H19.0001Z" fill="black"/>
</svg>
