<svg width="24" height="24" viewBox="0 0 24 24" fill="none" xmlns="http://www.w3.org/2000/svg">
<path fill-rule="evenodd" clip-rule="evenodd" d="M10 1C3.92487 1 1 4.32588 1 8.42857C1 11.9825 3.97061 15.4656 3.99978 15.4997L4.11611 15.6343C4.03977 16.0781 4 16.5344 4 17C4 19.2534 4.93165 21.2892 6.43078 22.7432C6.60572 22.9128 6.84284 23 7.08654 23H16.9135C17.1572 23 17.3943 22.9128 17.5692 22.7432C19.0683 21.2892 20 19.2534 20 17C20 16.5301 19.9595 16.0696 19.8818 15.622L19.9787 15.522C19.9929 15.5073 20.0046 15.4946 20.0178 15.4789C20.2646 15.1841 23 11.8389 23 8.42857C23 4.32588 20.0751 1 14 1H10ZM10 4C5.58172 4 4 6.0467 4 8.57143C4 10.2701 5.16371 12.0242 5.44114 12.4183C6.88756 10.3515 9.28595 9 12 9C14.7141 9 17.1124 10.3515 18.5589 12.4183C18.8363 12.0242 20 10.2701 20 8.57143C20 6.0467 18.4183 4 14 4H10ZM7.75 16C7.75 14.2051 9.20507 12.75 11 12.75C11.4142 12.75 11.75 12.4142 11.75 12C11.75 11.5858 11.4142 11.25 11 11.25C8.37665 11.25 6.25 13.3766 6.25 16C6.25 16.4142 6.58579 16.75 7 16.75C7.41421 16.75 7.75 16.4142 7.75 16Z" fill="black"/>
</svg>
