<svg width="24" height="24" viewBox="0 0 24 24" fill="none" xmlns="http://www.w3.org/2000/svg">
<path fill-rule="evenodd" clip-rule="evenodd" d="M2 1C1.44772 1 1 1.44772 1 2V8C1 16.2843 7.71573 23 16 23H22C22.5523 23 23 22.5523 23 22V16C23 7.71573 16.2843 1 8 1H2ZM11.3884 16.6086C10.9767 16.6543 10.68 17.0251 10.7258 17.4368C10.7715 17.8485 11.1423 18.1452 11.554 18.0994L16.4903 17.5509L18.5886 19.6492C18.8815 19.9421 19.3563 19.9421 19.6492 19.6492C19.9421 19.3563 19.9421 18.8815 19.6492 18.5886L17.551 16.4903L18.0995 11.5539C18.1452 11.1423 17.8486 10.7715 17.4369 10.7257C17.0252 10.68 16.6544 10.9766 16.6087 11.3883L16.1927 15.132L11.6682 10.6075L12.2167 5.67101C12.2624 5.25933 11.9658 4.88852 11.5541 4.84278C11.1424 4.79703 10.7716 5.09369 10.7258 5.50537L10.3099 9.2492L5.53033 4.46967C5.23744 4.17678 4.76256 4.17678 4.46967 4.46967C4.17678 4.76256 4.17678 5.23744 4.46967 5.53033L9.24905 10.3097L5.50556 10.7257C5.09388 10.7714 4.79722 11.1422 4.84297 11.5539C4.88871 11.9656 5.25952 12.2622 5.6712 12.2165L10.6074 11.668L15.132 16.1926L11.3884 16.6086Z" fill="black"/>
</svg>
