<svg width="24" height="24" viewBox="0 0 24 24" fill="none" xmlns="http://www.w3.org/2000/svg">
<path d="M4.67445 1.49247L7.15925 3.97727H9.31872V2.75H9.77246C10.1867 2.75 10.5225 2.41421 10.5225 2C10.5225 1.58579 10.1867 1.25 9.77246 1.25H5.22665C5.00818 1.25 4.81153 1.34341 4.67445 1.49247Z" fill="black"/>
<path d="M4.07268 10.4354L5.39797 8.57995L9.8862 13.0682H3.01625C3.15229 12.1228 3.51275 11.2193 4.07268 10.4354Z" fill="black"/>
<path d="M8.65925 5.47727L9.31872 6.13674V5.47727H8.65925Z" fill="black"/>
<path d="M12.046 15.228L11.3862 14.5682H2.95508V18.5227H12.0455V20.0227H2.95508V21C2.95508 21.5523 3.40279 22 3.95508 22H11.046C11.5983 22 12.046 21.5523 12.046 21L12.046 15.228Z" fill="black"/>
<path d="M19.568 22.75L17.614 20.796V21.25H16.546C16.1318 21.25 15.796 21.5858 15.796 22C15.796 22.4142 16.1318 22.75 16.546 22.75H18.3598L18.364 22.75L18.3682 22.75H19.568Z" fill="black"/>
<path d="M15.2163 12.0343L20.6977 17.5158C21.4938 16.8487 22 15.8471 22 14.7273V12.7071C22 12.3166 21.6834 12 21.2929 12H15.4343C15.3582 12 15.2849 12.012 15.2163 12.0343Z" fill="black"/>
<path d="M2.53033 1.46967C2.23744 1.17678 1.76256 1.17678 1.46967 1.46967C1.17678 1.76256 1.17678 2.23744 1.46967 2.53033L21.4697 22.5303C21.7626 22.8232 22.2374 22.8232 22.5303 22.5303C22.8232 22.2374 22.8232 21.7626 22.5303 21.4697L2.53033 1.46967Z" fill="black"/>
</svg>
