<svg width="24" height="24" viewBox="0 0 24 24" fill="none" xmlns="http://www.w3.org/2000/svg">
<path d="M15 4C15 5.65685 13.6569 7 12 7C10.3431 7 9 5.65685 9 4C9 2.34315 10.3431 1 12 1C13.6569 1 15 2.34315 15 4Z" fill="black"/>
<path d="M7 9C7 10.6569 5.65685 12 4 12C2.34315 12 1 10.6569 1 9C1 7.34315 2.34315 6 4 6C5.65685 6 7 7.34315 7 9Z" fill="black"/>
<path d="M23 9C23 10.6569 21.6569 12 20 12C18.3431 12 17 10.6569 17 9C17 7.34315 18.3431 6 20 6C21.6569 6 23 7.34315 23 9Z" fill="black"/>
<path d="M8.60862 13.1074C10.5239 11.3394 13.4761 11.3394 15.3914 13.1074L18.2612 15.7564C18.4202 15.9032 18.5675 16.0621 18.7017 16.2317C21.3212 19.5404 17.925 24.1987 13.9736 22.717L13.5108 22.5434C12.5367 22.1781 11.4633 22.1781 10.4893 22.5434L10.0264 22.717C9.5037 22.913 8.99067 23.0016 8.5 23C5.28175 22.9898 3.02541 19.1027 5.29829 16.2317C5.43257 16.0621 5.57986 15.9032 5.73882 15.7564L8.60862 13.1074Z" fill="black"/>
</svg>
