<svg width="24" height="24" viewBox="0 0 24 24" fill="none" xmlns="http://www.w3.org/2000/svg">
<g clip-path="url(#clip0_1607_10314)">
<path d="M17.4365 0.646754C17.5669 0.890982 17.5521 1.18719 17.3981 1.41725L15.119 4.82143H16.7749C17.1891 4.82143 17.5249 5.15722 17.5249 5.57143C17.5249 5.98564 17.1891 6.32143 16.7749 6.32143H13.7143C13.4375 6.32143 13.1831 6.1689 13.0527 5.92467C12.9223 5.68045 12.9371 5.38424 13.0911 5.15418L15.3702 1.75H13.7143C13.3001 1.75 12.9643 1.41421 12.9643 1C12.9643 0.585786 13.3001 0.25 13.7143 0.25H16.7749C17.0518 0.25 17.3061 0.402526 17.4365 0.646754Z" fill="black"/>
<path fill-rule="evenodd" clip-rule="evenodd" d="M1 11.25C1.41421 11.25 1.75 11.5858 1.75 12V17H4.11253C3.58144 16.4986 3.25 15.788 3.25 15C3.25 13.4812 4.48122 12.25 6 12.25C7.51878 12.25 8.75 13.4812 8.75 15C8.75 15.788 8.41856 16.4986 7.88747 17H9.25V14C9.25 13.0335 10.0335 12.25 11 12.25H19C21.6234 12.25 23.75 14.3766 23.75 17V23C23.75 23.4142 23.4142 23.75 23 23.75C22.5858 23.75 22.25 23.4142 22.25 23V21.75L1.75 21.75V23C1.75 23.4142 1.41421 23.75 1 23.75C0.585786 23.75 0.25 23.4142 0.25 23V12C0.25 11.5858 0.585786 11.25 1 11.25ZM11 13.75H12.25V17.75L11 17.75C10.8619 17.75 10.75 17.6381 10.75 17.5V14C10.75 13.8619 10.8619 13.75 11 13.75ZM13.75 13.75V17.75L22.25 17.75V17C22.25 15.2051 20.7949 13.75 19 13.75H13.75ZM4.75 15C4.75 15.6904 5.30964 16.25 6 16.25C6.69036 16.25 7.25 15.6904 7.25 15C7.25 14.3096 6.69036 13.75 6 13.75C5.30964 13.75 4.75 14.3096 4.75 15Z" fill="black"/>
<path d="M11.9097 6.98731C12.0631 6.75717 12.0774 6.46126 11.9469 6.2174C11.8164 5.97353 11.5622 5.82129 11.2856 5.82129H8.99993C8.58572 5.82129 8.24993 6.15708 8.24993 6.57129C8.24993 6.9855 8.58572 7.32129 8.99993 7.32129H9.88426L8.3759 9.58384C8.22247 9.81398 8.20817 10.1099 8.33868 10.3538C8.4692 10.5976 8.72334 10.7499 8.99994 10.7499H11.2856C11.6999 10.7499 12.0356 10.4141 12.0356 9.99986C12.0356 9.58565 11.6999 9.24986 11.2856 9.24986H10.4013L11.9097 6.98731Z" fill="black"/>
</g>
<defs>
<clipPath id="clip0_1607_10314">
<rect width="24" height="24" fill="white"/>
</clipPath>
</defs>
</svg>
