<svg width="24" height="24" viewBox="0 0 24 24" fill="none" xmlns="http://www.w3.org/2000/svg">
<g clip-path="url(#clip0_1607_10310)">
<path d="M11.8531 8.03374L8.27334 10.6346C8.18572 10.6982 8.14905 10.8111 8.18252 10.9141L9.54985 15.1223C9.58332 15.2253 9.67931 15.295 9.78761 15.295H14.2124C14.3207 15.295 14.4167 15.2253 14.4501 15.1223L15.8175 10.9141C15.8509 10.8111 15.8143 10.6982 15.7267 10.6346L12.1469 8.03374C12.0593 7.97008 11.9407 7.97008 11.8531 8.03374Z" fill="black"/>
<path fill-rule="evenodd" clip-rule="evenodd" d="M12 23.75C18.4893 23.75 23.75 18.4893 23.75 12C23.75 5.51066 18.4893 0.25 12 0.25C5.51066 0.25 0.25 5.51065 0.25 12C0.25 18.4893 5.51065 23.75 12 23.75ZM8.11166 21.4868L7.43477 19.2523L7.75869 18.8402L7.76688 18.8296L9.35023 16.7396C9.49082 16.7759 9.63753 16.795 9.78761 16.795H14.2124C14.3622 16.795 14.5086 16.776 14.6489 16.7398L16.2404 18.8405L16.5661 19.2544L15.89 21.4861C17.5481 20.8054 18.9883 19.7027 20.0769 18.3116L17.7692 18.3578L17.4237 17.9185L15.8018 15.7775C15.8302 15.7157 15.8553 15.6517 15.8767 15.5858L17.2441 11.3776C17.2758 11.2799 17.2985 11.181 17.3126 11.0819L19.8607 10.2636L20.3452 10.0865L22.2366 11.4706C22.1432 9.63458 21.5666 7.92605 20.6316 6.46967L19.916 8.64627L19.3736 8.84461L16.8658 9.6499C16.7888 9.56645 16.7028 9.48966 16.6083 9.42103L13.0286 6.82022C12.9399 6.75573 12.8465 6.70057 12.75 6.65474V3.45517L14.6287 2.0902C13.7898 1.86825 12.9087 1.75 12 1.75C11.0914 1.75 10.2104 1.86822 9.37158 2.09012L11.25 3.45487V6.65474C11.1535 6.70057 11.0601 6.75573 10.9714 6.82022L7.39166 9.42103C7.29724 9.48963 7.21127 9.56639 7.13425 9.6498L4.60594 8.83794L4.09546 8.67891L3.36895 6.46889C2.43348 7.92562 1.85672 9.63466 1.7634 11.4713L3.63025 10.1051L4.1566 10.2691L6.68741 11.0818C6.70147 11.1809 6.7242 11.2799 6.75594 11.3776L8.12326 15.5858C8.14459 15.6514 8.16954 15.7151 8.19785 15.7767L6.5753 17.9185L6.22977 18.358L3.92334 18.3118C5.01228 19.7033 6.45299 20.8062 8.11166 21.4868Z" fill="black"/>
</g>
<defs>
<clipPath id="clip0_1607_10310">
<rect width="24" height="24" fill="white"/>
</clipPath>
</defs>
</svg>
