<svg width="24" height="24" viewBox="0 0 24 24" fill="none" xmlns="http://www.w3.org/2000/svg">
<path d="M12.2983 0.998244C12.5611 1.01211 12.8177 1.11315 13.0232 1.29517L16.2062 4.11494C16.2228 4.12962 16.2466 4.13289 16.2665 4.12324L18.669 2.95958C18.8966 2.84935 19.1396 2.80772 19.3747 2.82656C19.8434 2.86402 20.2805 3.14189 20.5003 3.59568C20.8303 4.27694 20.5455 5.09671 19.8643 5.42668L17.4977 6.57297C17.4802 6.58333 17.4697 6.60266 17.4709 6.62322L17.7165 10.9852C17.7435 11.4637 17.4801 11.9115 17.0487 12.1204C16.8617 12.211 16.6643 12.2479 16.4727 12.2382C15.9879 12.2138 15.5402 11.8913 15.3919 11.3867L14.4341 8.12754C14.425 8.09654 14.3914 8.08042 14.3618 8.0918L11.8488 9.30896C11.8314 9.31735 11.8198 9.33422 11.8181 9.3534L11.6862 10.8234C11.664 11.0708 11.5137 11.2884 11.2901 11.3967C11.1781 11.451 11.0597 11.4729 10.9448 11.4667C10.9353 11.4662 10.9258 11.4655 10.9164 11.4646C10.6442 11.439 10.3965 11.256 10.3072 10.9731L9.65687 8.91298C9.65192 8.89731 9.64732 8.88165 9.64307 8.86601C9.6412 8.85911 9.63806 8.85262 9.63381 8.84687C9.62417 8.83384 9.61473 8.82053 9.6055 8.80693L8.39225 7.01943C8.15003 6.66256 8.28094 6.17385 8.66911 5.98584C8.78355 5.93041 8.90858 5.9078 9.03125 5.91717C9.14831 5.92607 9.26324 5.96408 9.36478 6.0305L10.5999 6.83842C10.6077 6.8435 10.6165 6.84643 10.6254 6.84718C10.6349 6.84791 10.6447 6.84616 10.6535 6.84186L13.1465 5.63439C13.177 5.61962 13.1869 5.58101 13.1674 5.55336L11.2668 2.86999C10.8428 2.27128 11.0579 1.43514 11.7182 1.11534C11.8544 1.04935 11.999 1.01128 12.1443 1.00009C12.1957 0.996132 12.2471 0.995533 12.2983 0.998244Z" fill="black"/>
<path d="M13.6325 9.83358L13.0021 10.1389L12.9307 10.935C12.8693 11.6197 12.4532 12.2219 11.8345 12.5216C10.8601 12.9936 9.71153 12.5814 9.2383 11.6512C7.15488 13.0304 5.50089 14.4496 4.43624 15.6718C4.2819 15.8489 4.14504 16.0162 4.02427 16.173C4.40589 16.9009 4.88424 17.5702 5.44224 18.1637C4.44315 18.3676 3.61103 18.4276 2.98147 18.3591C2.25315 18.2798 1.95501 18.0515 1.84587 17.8625C1.74503 17.6878 1.69429 17.3581 1.92546 16.7701C2.15289 16.1915 2.61102 15.483 3.30483 14.6866C3.33011 14.6575 3.35567 14.6285 3.38149 14.5993C3.38147 14.5992 3.38152 14.5994 3.38149 14.5993C4.61546 13.2058 6.47194 11.6506 8.74612 10.1808C8.74615 10.1807 8.74608 10.1808 8.74612 10.1808L8.50197 9.40692L8.0991 8.81338C5.61639 10.3998 3.55213 12.119 2.1738 13.7013C1.42104 14.5654 0.843814 15.4216 0.529466 16.2212C0.218859 17.0113 0.119925 17.8731 0.546834 18.6125C1.00773 19.4108 1.89588 19.7498 2.81911 19.8503C3.76112 19.9529 4.9111 19.8313 6.16905 19.5404L6.85141 19.3826C8.31037 20.4021 10.0856 21.0001 12.0005 21.0001C16.971 21.0001 21.0005 16.9706 21.0005 12.0001C21.0005 11.761 20.9912 11.5241 20.9729 11.2898L21.563 10.593C22.4029 9.67485 23.0502 8.76555 23.4117 7.92061C23.7682 7.08735 23.9039 6.17005 23.4524 5.38797C23.1124 4.79909 22.542 4.45913 21.8862 4.28094C21.8686 4.79183 21.7015 5.28829 21.4072 5.70556C21.8517 5.80963 22.065 5.985 22.1533 6.13797C22.2602 6.32298 22.3096 6.68327 22.0326 7.33059C21.7823 7.91559 21.3103 8.61882 20.6191 9.39964C20.3594 8.53792 19.9741 7.73069 19.4844 6.99925L18.7635 7.34838L18.9644 10.9148C19.0197 11.8972 18.4789 12.8164 17.5934 13.2453C16.238 13.9019 14.6174 13.1841 14.1927 11.7392L13.6325 9.83358Z" fill="black"/>
<path d="M7.26326 7.56756C6.72624 6.59789 7.10452 5.35458 8.12404 4.86078C8.74272 4.56113 9.47325 4.60802 10.0485 4.98431L10.7174 5.42184L11.3317 5.12433L10.2468 3.59235C10.1612 3.47145 10.0882 3.34584 10.0276 3.21698C6.42827 4.02195 3.64282 6.98285 3.09757 10.6734C4.29981 9.61582 5.71062 8.56156 7.26326 7.56756Z" fill="black"/>
</svg>
