<svg width="24" height="24" viewBox="0 0 24 24" fill="none" xmlns="http://www.w3.org/2000/svg">
<path fill-rule="evenodd" clip-rule="evenodd" d="M1 4C1 3.44772 1.44772 3 2 3H22C22.5523 3 23 3.44772 23 4V17C23 17.5523 22.5523 18 22 18H18.25L21.45 20.4C21.7814 20.6485 21.8485 21.1186 21.6 21.45C21.3515 21.7814 20.8814 21.8485 20.55 21.6L16.55 18.6C16.5398 18.5923 16.5297 18.5844 16.5199 18.5762L15.8285 18H8.29035L7.44302 18.6052L3.45 21.6C3.11863 21.8485 2.64853 21.7814 2.4 21.45C2.15147 21.1186 2.21863 20.6485 2.55 20.4L5.75 18H2C1.44772 18 1 17.5523 1 17V4ZM3.25 7C3.25 6.0335 4.0335 5.25 5 5.25H8C8.41421 5.25 8.75 5.58579 8.75 6C8.75 6.41421 8.41421 6.75 8 6.75H5C4.86193 6.75 4.75 6.86193 4.75 7V10C4.75 10.4142 4.41421 10.75 4 10.75C3.58579 10.75 3.25 10.4142 3.25 10V7Z" fill="black"/>
</svg>
