<svg width="24" height="24" viewBox="0 0 24 24" fill="none" xmlns="http://www.w3.org/2000/svg">
<path fill-rule="evenodd" clip-rule="evenodd" d="M6 3C3.23858 3 1 5.23858 1 8V18.8646C1 20.0436 1.95589 20.9993 3.1349 20.9991C3.96731 20.999 4.72369 20.515 5.07255 19.7592L5.9573 17.8424C5.07468 17.207 4.5 16.1706 4.5 15C4.5 13.067 6.067 11.5 8 11.5C9.58551 11.5 10.9248 12.5543 11.3551 14H12.6449C13.0752 12.5543 14.4145 11.5 16 11.5C17.933 11.5 19.5 13.067 19.5 15C19.5 16.1706 18.9253 17.207 18.0427 17.8424L18.9274 19.7592C19.2763 20.515 20.0327 20.999 20.8651 20.9991C22.0441 20.9993 23 20.0436 23 18.8646V8C23 5.23858 20.7614 3 18 3C17.2173 3 16.4766 3.17986 15.8169 3.50049C15.7947 3.50015 15.7723 3.49998 15.75 3.49998H8.25001C8.22766 3.49998 8.20535 3.50015 8.18308 3.50049C7.52344 3.17986 6.78272 3 6 3ZM6.75 6.00001C6.75 5.58579 6.41421 5.25001 6 5.25001C5.58579 5.25001 5.25 5.58579 5.25 6.00001V6.50001C5.25 6.91422 5.58579 7.25001 6 7.25001C6.41421 7.25001 6.75 6.91422 6.75 6.50001V6.00001ZM18.75 6.25018C18.75 5.83597 18.4142 5.50018 18 5.50018C17.5858 5.50018 17.25 5.83597 17.25 6.25018V6.27742C17.25 6.69164 17.5858 7.02742 18 7.02742C18.4142 7.02742 18.75 6.69164 18.75 6.27742V6.25018ZM3.75 7.50001C3.33579 7.50001 3 7.83579 3 8.25001C3 8.66422 3.33579 9.00001 3.75 9.00001H4.25C4.66421 9.00001 5 8.66422 5 8.25001C5 7.83579 4.66421 7.50001 4.25 7.50001H3.75ZM7.75 7.50001C7.33579 7.50001 7 7.83579 7 8.25001C7 8.66422 7.33579 9.00001 7.75 9.00001H8.25C8.66421 9.00001 9 8.66422 9 8.25001C9 7.83579 8.66421 7.50001 8.25 7.50001H7.75ZM16.75 8.25018C16.75 7.83597 16.4142 7.50018 16 7.50018C15.5858 7.50018 15.25 7.83597 15.25 8.25018V8.27742C15.25 8.69164 15.5858 9.02742 16 9.02742C16.4142 9.02742 16.75 8.69164 16.75 8.27742V8.25018ZM20.75 8.25018C20.75 7.83597 20.4142 7.50018 20 7.50018C19.5858 7.50018 19.25 7.83597 19.25 8.25018V8.27742C19.25 8.69164 19.5858 9.02742 20 9.02742C20.4142 9.02742 20.75 8.69164 20.75 8.27742V8.25018ZM6.75 10C6.75 9.58579 6.41421 9.25001 6 9.25001C5.58579 9.25001 5.25 9.58579 5.25 10V10.5C5.25 10.9142 5.58579 11.25 6 11.25C6.41421 11.25 6.75 10.9142 6.75 10.5V10ZM18.75 10.2269C18.75 9.81264 18.4142 9.47685 18 9.47685C17.5858 9.47685 17.25 9.81264 17.25 10.2269V10.2541C17.25 10.6683 17.5858 11.0041 18 11.0041C18.4142 11.0041 18.75 10.6683 18.75 10.2541V10.2269Z" fill="black"/>
<path d="M10 15C10 16.1046 9.10457 17 8 17C6.89543 17 6 16.1046 6 15C6 13.8954 6.89543 13 8 13C9.10457 13 10 13.8954 10 15Z" fill="black"/>
<path d="M18 15C18 16.1046 17.1046 17 16 17C14.8954 17 14 16.1046 14 15C14 13.8954 14.8954 13 16 13C17.1046 13 18 13.8954 18 15Z" fill="black"/>
</svg>
