<svg width="24" height="24" viewBox="0 0 24 24" fill="none" xmlns="http://www.w3.org/2000/svg">
<path d="M14.6233 4.12023C14.6233 5.56734 13.4502 6.74046 12.003 6.74046C10.5559 6.74046 9.38281 5.56734 9.38281 4.12023C9.38281 2.67312 10.5559 1.5 12.003 1.5C13.4502 1.5 14.6233 2.67312 14.6233 4.12023Z" fill="black"/>
<path d="M3.33406 8.86158L4.18791 10.3403L6.79061 8.95421C6.93531 8.87715 7.09674 8.83684 7.26068 8.83684L8.26354 8.83685L8.2861 8.8366H15.7216L15.7427 8.83681L16.7605 8.83681C16.9244 8.83681 17.0858 8.87712 17.2305 8.95418L19.8325 10.3399L20.6668 8.89492C21.0121 8.29699 21.7767 8.09214 22.3746 8.43736C22.9726 8.78261 23.1775 9.54726 22.8322 10.1452L20.6111 13.9919C20.5921 14.0247 20.5502 14.036 20.5174 14.017L18.4707 12.8354C18.4677 12.8336 18.4648 12.8316 18.4621 12.8295L17.2407 12.1316C17.0896 12.0453 16.9186 11.9999 16.7446 11.9999H16.7275L16.7306 14.4613L12 15.7288L7.2861 14.4658L7.2861 11.9999H7.27653C7.10252 11.9999 6.93152 12.0454 6.78044 12.1317L5.55193 12.8336L5.5489 12.8354L3.50306 14.0166C3.47004 14.0357 3.42783 14.0244 3.40876 13.9913L1.16871 10.1119C0.823437 9.51393 1.0283 8.74928 1.62629 8.40403C2.22423 8.05881 2.98881 8.26366 3.33406 8.86158Z" fill="black"/>
<path d="M20.1986 20.2547C20.3032 20.2828 20.3653 20.3903 20.3373 20.4949L19.5712 23.3538C19.5432 23.4584 19.4357 23.5205 19.3311 23.4924L5.2319 19.7149C4.33781 19.4754 3.80721 18.5564 4.04678 17.6623C4.28634 16.7682 5.20531 16.2376 6.09937 16.4772L20.1986 20.2547Z" fill="black"/>
<path d="M14.8988 17.2818L19.925 18.6284C20.0263 18.3267 20.043 17.9928 19.9544 17.6623C19.7149 16.7682 18.7959 16.2376 17.9019 16.4772L14.8988 17.2818Z" fill="black"/>
<path d="M9.10276 22.3048L4.67012 23.4924C4.56553 23.5205 4.45803 23.4584 4.43001 23.3538L3.68707 20.5812C4.01849 20.8453 4.40852 21.0471 4.84407 21.1638L9.10276 22.3048Z" fill="black"/>
</svg>
