<svg width="24" height="24" viewBox="0 0 24 24" fill="none" xmlns="http://www.w3.org/2000/svg">
<path fill-rule="evenodd" clip-rule="evenodd" d="M11 0C11.5523 0 12 0.447715 12 1V8.58579L17.2929 3.29289C17.6834 2.90237 18.3166 2.90237 18.7071 3.29289C19.0976 3.68342 19.0976 4.31658 18.7071 4.70711L13.4142 10H21C21.5523 10 22 10.4477 22 11C22 11.5523 21.5523 12 21 12H13.4142L18.7071 17.2929C19.0976 17.6834 19.0976 18.3166 18.7071 18.7071C18.3166 19.0976 17.6834 19.0976 17.2929 18.7071L12 13.4142V21C12 21.5523 11.5523 22 11 22C10.4477 22 10 21.5523 10 21V13.4142L4.70711 18.7071C4.31658 19.0976 3.68342 19.0976 3.29289 18.7071C2.90237 18.3166 2.90237 17.6834 3.29289 17.2929L8.58579 12H1C0.447715 12 0 11.5523 0 11C0 10.4477 0.447715 10 1 10H8.58579L3.29289 4.70711C2.90237 4.31658 2.90237 3.68342 3.29289 3.29289C3.68342 2.90237 4.31658 2.90237 4.70711 3.29289L10 8.58579V1C10 0.447715 10.4477 0 11 0Z" fill="black"/>
</svg>
