<svg width="24" height="24" viewBox="0 0 24 24" fill="none" xmlns="http://www.w3.org/2000/svg">
<path fill-rule="evenodd" clip-rule="evenodd" d="M1 8C1 6.89543 1.89543 6 3 6H19C20.1046 6 21 6.89543 21 8V9H22C22.5523 9 23 9.44772 23 10V14C23 14.5523 22.5523 15 22 15H21V16C21 17.1046 20.1046 18 19 18H3C1.89543 18 1 17.1046 1 16V8ZM11.4466 8.16138C11.7312 7.82072 12.2792 8.05965 12.2305 8.50316L11.9516 11.0461C11.9487 11.0728 11.9694 11.0963 11.9959 11.0963H14.553C14.9328 11.0963 15.1389 11.5463 14.8936 11.84L11.5534 15.8386C11.2688 16.1793 10.7208 15.9404 10.7695 15.4968L11.0484 12.9539C11.0513 12.9272 11.0306 12.9037 11.0041 12.9037H8.44696C8.06716 12.9037 7.86109 12.4537 8.10641 12.16L11.4466 8.16138Z" fill="black"/>
</svg>
