<svg width="24" height="24" viewBox="0 0 24 24" fill="none" xmlns="http://www.w3.org/2000/svg">
<path d="M4.42857 8.5C3.91574 8.5 3.5 8.89175 3.5 9.375V14.625C3.5 15.1082 3.91574 15.5 4.42857 15.5H6.90476C7.4176 15.5 7.83333 15.1082 7.83333 14.625V9.375C7.83333 8.89175 7.4176 8.5 6.90476 8.5H4.42857Z" fill="black"/>
<path d="M9.76195 8.5C9.24911 8.5 8.83337 8.89175 8.83337 9.375V14.625C8.83337 15.1082 9.24911 15.5 9.76194 15.5H12.2381C12.751 15.5 13.1667 15.1082 13.1667 14.625V9.375C13.1667 8.89175 12.751 8.5 12.2381 8.5H9.76195Z" fill="black"/>
<path d="M15.0952 8.5C14.5824 8.5 14.1666 8.89175 14.1666 9.375V14.625C14.1666 15.1082 14.5824 15.5 15.0952 15.5H17.5714C18.0842 15.5 18.5 15.1082 18.5 14.625V9.375C18.5 8.89175 18.0842 8.5 17.5714 8.5H15.0952Z" fill="black"/>
<path fill-rule="evenodd" clip-rule="evenodd" d="M1 8C1 6.89543 1.89543 6 3 6H19C20.1046 6 21 6.89543 21 8V9H22C22.5523 9 23 9.44772 23 10V14C23 14.5523 22.5523 15 22 15H21V16C21 17.1046 20.1046 18 19 18H3C1.89543 18 1 17.1046 1 16V8ZM3 7.5H19C19.2761 7.5 19.5 7.72386 19.5 8V16C19.5 16.2761 19.2761 16.5 19 16.5H3C2.72386 16.5 2.5 16.2761 2.5 16V8C2.5 7.72386 2.72386 7.5 3 7.5Z" fill="black"/>
</svg>
