<svg width="24" height="24" viewBox="0 0 24 24" fill="none" xmlns="http://www.w3.org/2000/svg">
<g clip-path="url(#clip0_1607_5656)">
<path d="M7 0.25C7.41421 0.25 7.75 0.585786 7.75 1C7.75 1.41421 7.41421 1.75 7 1.75C4.10051 1.75 1.75 4.10051 1.75 7C1.75 7.41421 1.41421 7.75 1 7.75C0.585786 7.75 0.25 7.41421 0.25 7C0.25 3.27208 3.27208 0.25 7 0.25Z" fill="black"/>
<path d="M17 0.25C16.5858 0.25 16.25 0.585786 16.25 1C16.25 1.41421 16.5858 1.75 17 1.75C19.8995 1.75 22.25 4.10051 22.25 7C22.25 7.41421 22.5858 7.75 23 7.75C23.4142 7.75 23.75 7.41421 23.75 7C23.75 3.27208 20.7279 0.25 17 0.25Z" fill="black"/>
<path d="M16.25 4C16.25 3.58579 16.5858 3.25 17 3.25C19.0711 3.25 20.75 4.92893 20.75 7C20.75 7.41421 20.4142 7.75 20 7.75C19.5858 7.75 19.25 7.41421 19.25 7C19.25 5.75736 18.2426 4.75 17 4.75C16.5858 4.75 16.25 4.41421 16.25 4Z" fill="black"/>
<path fill-rule="evenodd" clip-rule="evenodd" d="M14.75 8.67394C16.6543 9.66874 17.9542 11.6625 17.9542 13.9598V16.4343C17.9542 16.5917 18.0275 16.7375 18.114 16.8691L19.2082 18.5326C20.0829 19.8625 19.129 21.6317 17.5372 21.6317H15.3774C14.7706 22.8854 13.4863 23.75 12 23.75C10.5137 23.75 9.22945 22.8854 8.62264 21.6317H6.46268C4.87092 21.6317 3.91702 19.8625 4.7917 18.5326L5.88581 16.8691C5.9672 16.7454 6.03456 16.6078 6.03456 16.4597V13.9598C6.03456 11.658 7.33952 9.6609 9.25 8.66808L9.25 8C9.25 6.48122 10.4812 5.25 12 5.25C13.5188 5.25 14.75 6.48122 14.75 8V8.67394ZM13.25 8.1325V8C13.25 7.30964 12.6904 6.75 12 6.75C11.3096 6.75 10.75 7.30964 10.75 8V8.1301C11.1513 8.04485 11.5676 8 11.9944 8C12.4251 8 12.8452 8.0457 13.25 8.1325ZM12 22.25C11.3997 22.25 10.8542 22.0149 10.4508 21.6317H13.5492C13.1458 22.0149 12.6003 22.25 12 22.25Z" fill="black"/>
<path d="M7.75 4C7.75 3.58579 7.41421 3.25 7 3.25C4.92893 3.25 3.25 4.92893 3.25 7C3.25 7.41421 3.58579 7.75 4 7.75C4.41421 7.75 4.75 7.41421 4.75 7C4.75 5.75736 5.75736 4.75 7 4.75C7.41421 4.75 7.75 4.41421 7.75 4Z" fill="black"/>
</g>
<defs>
<clipPath id="clip0_1607_5656">
<rect width="24" height="24" fill="white"/>
</clipPath>
</defs>
</svg>
