<svg width="24" height="24" viewBox="0 0 24 24" fill="none" xmlns="http://www.w3.org/2000/svg">
<path d="M16.85 3C16.7948 3 16.75 3.04477 16.75 3.1V8.23147C16.75 8.31532 16.847 8.36194 16.9125 8.30956L18.0315 7.41435C18.3054 7.19522 18.6946 7.19522 18.9685 7.41435L20.0875 8.30956C20.153 8.36194 20.25 8.31532 20.25 8.23147V3.1C20.25 3.04477 20.2052 3 20.15 3H16.85Z" fill="black"/>
<path d="M15.1297 3.15512C15.1915 3.14077 15.25 3.18823 15.25 3.25174V10C15.25 10.2883 15.4153 10.5511 15.6751 10.676C15.935 10.8009 16.2434 10.7658 16.4685 10.5857L18.5 8.96047L20.5315 10.5857C20.7566 10.7658 21.065 10.8009 21.3249 10.676C21.5847 10.5511 21.75 10.2883 21.75 10V3.1C21.75 3.04477 21.7948 3 21.85 3H23.5C23.7761 3 24 3.22386 24 3.5V19.3C24 19.5761 23.7761 19.8 23.5 19.8H16.4853C15.1919 19.8 13.9415 20.2194 12.9145 20.98C12.8472 21.0298 12.75 20.9837 12.75 20.9V4.35271C12.75 4.32223 12.7639 4.29338 12.7879 4.2746C13.4793 3.73356 14.2793 3.35238 15.1297 3.15512Z" fill="black"/>
<path d="M11.25 4.35271C11.25 4.32224 11.2361 4.29337 11.2121 4.27459C10.1621 3.45298 8.86177 3 7.51472 3H0.499999C0.223857 3 0 3.22386 0 3.5V19.3C0 19.5761 0.223858 19.8 0.5 19.8H7.51472C8.80814 19.8 10.0585 20.2194 11.0855 20.98C11.1528 21.0298 11.25 20.9837 11.25 20.9V4.35271Z" fill="black"/>
</svg>
