<svg width="24" height="24" viewBox="0 0 24 24" fill="none" xmlns="http://www.w3.org/2000/svg">
<path d="M4.75 12.75L1.75 12.75C1.33579 12.75 1 12.4142 1 12C1 11.5858 1.33579 11.25 1.75 11.25L4.75 11.25C5.16421 11.25 5.5 11.5858 5.5 12C5.5 12.4142 5.16421 12.75 4.75 12.75Z" fill="black"/>
<path d="M22.25 12.75L19.25 12.75C18.8358 12.75 18.5 12.4142 18.5 12C18.5 11.5858 18.8358 11.25 19.25 11.25L22.25 11.25C22.6642 11.25 23 11.5858 23 12C23 12.4142 22.6642 12.75 22.25 12.75Z" fill="black"/>
<path d="M11.25 4.75L11.25 1.75C11.25 1.33579 11.5858 1 12 1C12.4142 1 12.75 1.33579 12.75 1.75L12.75 4.75C12.75 5.16421 12.4142 5.5 12 5.5C11.5858 5.5 11.25 5.16421 11.25 4.75Z" fill="black"/>
<path d="M11.25 22.25L11.25 19.25C11.25 18.8358 11.5858 18.5 12 18.5C12.4142 18.5 12.75 18.8358 12.75 19.25L12.75 22.25C12.75 22.6642 12.4142 23 12 23C11.5858 23 11.25 22.6642 11.25 22.25Z" fill="black"/>
<path d="M6.34315 7.40381L4.22182 5.28249C3.92893 4.9896 3.92893 4.51472 4.22182 4.22183C4.51472 3.92893 4.98959 3.92893 5.28248 4.22183L7.40381 6.34315C7.6967 6.63604 7.6967 7.11091 7.40381 7.40381C7.11091 7.6967 6.63604 7.6967 6.34315 7.40381Z" fill="black"/>
<path d="M18.7175 19.7782L16.5962 17.6569C16.3033 17.364 16.3033 16.8891 16.5962 16.5962C16.8891 16.3033 17.364 16.3033 17.6569 16.5962L19.7782 18.7175C20.0711 19.0104 20.0711 19.4853 19.7782 19.7782C19.4853 20.0711 19.0104 20.0711 18.7175 19.7782Z" fill="black"/>
<path d="M16.5962 6.34315L18.7175 4.22182C19.0104 3.92893 19.4853 3.92893 19.7782 4.22182C20.0711 4.51472 20.0711 4.98959 19.7782 5.28248L17.6569 7.40381C17.364 7.6967 16.8891 7.6967 16.5962 7.40381C16.3033 7.11091 16.3033 6.63604 16.5962 6.34315Z" fill="black"/>
<path d="M4.22183 18.7175L6.34314 16.5962C6.63604 16.3033 7.11091 16.3033 7.4038 16.5962C7.6967 16.8891 7.6967 17.364 7.4038 17.6569L5.28249 19.7782C4.98959 20.0711 4.51472 20.0711 4.22183 19.7782C3.92893 19.4853 3.92893 19.0104 4.22183 18.7175Z" fill="black"/>
<path d="M17 12C17 14.7614 14.7614 17 12 17C9.23858 17 7 14.7614 7 12C7 9.23858 9.23858 7 12 7C14.7614 7 17 9.23858 17 12Z" fill="black"/>
</svg>
