<svg width="24" height="24" viewBox="0 0 24 24" fill="none" xmlns="http://www.w3.org/2000/svg">
<path d="M5.40001 0.25C5.81503 0.25 6.15146 0.586436 6.15146 1.00145V2.53909H17.8485V1.00145C17.8485 0.586436 18.185 0.25 18.6 0.25C19.015 0.25 19.3514 0.586436 19.3514 1.00145V2.53909H21.9981C22.5514 2.53909 23 2.98767 23 3.54102V9.26759L1 9.26759V3.54102C1 2.98767 1.44858 2.53909 2.00193 2.53909H4.64856V1.00145C4.64856 0.586436 4.985 0.25 5.40001 0.25Z" fill="black"/>
<path fill-rule="evenodd" clip-rule="evenodd" d="M23 10.7705L1 10.7705V21.9997C1 22.5531 1.44858 23.0017 2.00193 23.0017H21.9981C22.5514 23.0017 23 22.5531 23 21.9997V10.7705ZM15.5192 13.4589C15.8329 13.7307 15.8668 14.2053 15.5949 14.5189L11.6874 19.0276C11.4166 19.34 10.9444 19.3751 10.6305 19.106L8.52644 17.3026C8.21134 17.0325 8.17484 16.5581 8.44493 16.243C8.71502 15.9279 9.18941 15.8914 9.50451 16.1615L11.0411 17.4786L14.4592 13.5346C14.731 13.221 15.2056 13.1871 15.5192 13.4589Z" fill="black"/>
</svg>
