<svg width="24" height="24" viewBox="0 0 24 24" fill="none" xmlns="http://www.w3.org/2000/svg">
<path d="M6.25 1.75C6.25 1.33579 5.91421 1 5.5 1C5.08579 1 4.75 1.33579 4.75 1.75V3H2C1.44772 3 1 3.44772 1 4V8.9C1 8.95523 1.04477 9 1.1 9H22.9C22.9552 9 23 8.95523 23 8.9L23 4C23 3.44772 22.5523 3 22 3H19.25V1.75C19.25 1.33579 18.9142 1 18.5 1C18.0858 1 17.75 1.33579 17.75 1.75V3H6.25V1.75Z" fill="black"/>
<path fill-rule="evenodd" clip-rule="evenodd" d="M22.9 10.5C22.9552 10.5 23 10.5448 23 10.6V22C23 22.5523 22.5523 23 22 23H2C1.44772 23 1 22.5523 1 22V10.6C1 10.5448 1.04477 10.5 1.1 10.5H22.9ZM12 13.5C12.4142 13.5 12.75 13.8358 12.75 14.25V16.5H15C15.4142 16.5 15.75 16.8358 15.75 17.25C15.75 17.6642 15.4142 18 15 18H12.75V20.25C12.75 20.6642 12.4142 21 12 21C11.5858 21 11.25 20.6642 11.25 20.25V18H9C8.58579 18 8.25 17.6642 8.25 17.25C8.25 16.8358 8.58579 16.5 9 16.5H11.25V14.25C11.25 13.8358 11.5858 13.5 12 13.5Z" fill="black"/>
</svg>
