<svg width="24" height="24" viewBox="0 0 24 24" fill="none" xmlns="http://www.w3.org/2000/svg">
<path fill-rule="evenodd" clip-rule="evenodd" d="M12 23C18.0751 23 23 18.0751 23 12C23 5.92487 18.0751 1 12 1C5.92487 1 1 5.92487 1 12C1 18.0751 5.92487 23 12 23ZM17.5668 9.4912C17.838 9.17818 17.8042 8.70451 17.4912 8.43323C17.1782 8.16195 16.7045 8.19579 16.4332 8.5088L10.4218 15.4451L7.48809 12.9306C7.1736 12.661 6.70012 12.6974 6.43056 13.0119C6.16099 13.3264 6.19741 13.7999 6.51191 14.0694L10.0119 17.0694C10.3252 17.338 10.7965 17.303 11.0668 16.9912L17.5668 9.4912Z" fill="black"/>
</svg>
