<svg width="24" height="24" viewBox="0 0 24 24" fill="none" xmlns="http://www.w3.org/2000/svg">
<path fill-rule="evenodd" clip-rule="evenodd" d="M11.2478 1.0996C11.2478 1.04168 11.1984 0.99585 11.1406 1.0003C5.73266 1.41695 1.41695 5.73266 1.0003 11.1406C0.99585 11.1984 1.04168 11.2478 1.0996 11.2478H4.47772C4.89316 11.2478 5.22995 11.5846 5.22995 12C5.22995 12.4154 4.89316 12.7522 4.47772 12.7522H1.0996C1.04168 12.7522 0.99585 12.8016 1.0003 12.8594C1.41695 18.2673 5.73266 22.5831 11.1406 22.9997C11.1984 23.0042 11.2478 22.9583 11.2478 22.9004V19.5223C11.2478 19.1068 11.5846 18.7701 12 18.7701C12.4154 18.7701 12.7522 19.1068 12.7522 19.5223V22.9004C12.7522 22.9583 12.8016 23.0042 12.8594 22.9997C18.2673 22.5831 22.5831 18.2673 22.9997 12.8594C23.0042 12.8016 22.9583 12.7522 22.9004 12.7522H19.5223C19.1068 12.7522 18.7701 12.4154 18.7701 12C18.7701 11.5846 19.1068 11.2478 19.5223 11.2478H22.9004C22.9583 11.2478 23.0042 11.1984 22.9997 11.1406C22.5831 5.73266 18.2673 1.41695 12.8594 1.0003C12.8016 0.99585 12.7522 1.04168 12.7522 1.0996V4.47772C12.7522 4.89316 12.4154 5.22995 12 5.22995C11.5846 5.22995 11.2478 4.89316 11.2478 4.47772V1.0996ZM12.7522 8.99109C12.7522 8.57564 12.4154 8.23886 12 8.23886C11.5846 8.23886 11.2478 8.57564 11.2478 8.99109V11.8421C11.2478 12.1427 11.3672 12.431 11.5797 12.6435L15.48 16.5438C15.7737 16.8375 16.25 16.8375 16.5438 16.5438C16.8375 16.25 16.8375 15.7737 16.5438 15.48L12.7522 11.6884V8.99109Z" fill="black"/>
</svg>
