<svg width="24" height="24" viewBox="0 0 24 24" fill="none" xmlns="http://www.w3.org/2000/svg">
<path d="M15.656 8.6602C15.7212 8.46475 15.5352 8.27882 15.3398 8.34397L11.0419 9.77661C10.9714 9.80012 10.9502 9.88962 11.0028 9.94219L14.0578 12.9972C14.1104 13.0498 14.1999 13.0286 14.2234 12.9581L15.656 8.6602Z" fill="black"/>
<path d="M12.958 14.2234C13.0286 14.1999 13.0497 14.1104 12.9971 14.0578L9.94216 11.0029C9.88959 10.9503 9.80009 10.9714 9.77658 11.042L8.34397 15.3398C8.27882 15.5352 8.46476 15.7212 8.66019 15.656L12.958 14.2234Z" fill="black"/>
<path fill-rule="evenodd" clip-rule="evenodd" d="M23 12C23 18.0751 18.0751 23 12 23C5.92487 23 1 18.0751 1 12C1 5.92487 5.92487 1 12 1C18.0751 1 23 5.92487 23 12ZM14.8655 6.92094C16.2335 6.46492 17.5351 7.76646 17.0791 9.13454L15.3696 14.2628C15.1954 14.7854 14.7854 15.1954 14.2628 15.3696L9.13454 17.0791C7.76646 17.5351 6.46492 16.2335 6.92094 14.8655L8.63037 9.73717C8.80456 9.21461 9.21461 8.80456 9.73717 8.63037L14.8655 6.92094Z" fill="black"/>
</svg>
