<svg width="24" height="24" viewBox="0 0 24 24" fill="none" xmlns="http://www.w3.org/2000/svg">
<path d="M12 13.003C12.5539 13.003 13.003 12.5539 13.003 12C13.003 11.4461 12.5539 10.9971 12 10.9971C11.4461 10.9971 10.997 11.4461 10.997 12C10.997 12.5539 11.4461 13.003 12 13.003Z" fill="black"/>
<path fill-rule="evenodd" clip-rule="evenodd" d="M4.82441 3.7606C4.78344 3.71963 4.78569 3.65252 4.8297 3.61484C6.55445 2.13859 8.74004 1.18521 11.1409 1.0003C11.1986 0.995851 11.2478 1.0417 11.2478 1.09962V3.97625C11.2478 4.39169 11.5846 4.72848 12 4.72848C12.4154 4.72848 12.7522 4.39169 12.7522 3.97625V1.09962C12.7522 1.0417 12.8014 0.995851 12.8591 1.0003C15.26 1.18521 17.4455 2.13859 19.1703 3.61484C19.2143 3.65252 19.2166 3.71963 19.1756 3.7606L17.1418 5.79442C16.848 6.08819 16.848 6.56447 17.1418 6.85823C17.4355 7.152 17.9118 7.152 18.2056 6.85823L20.2394 4.82441C20.2804 4.78344 20.3475 4.78569 20.3852 4.8297C21.8614 6.55445 22.8148 8.74004 22.9997 11.1409C23.0042 11.1986 22.9583 11.2478 22.9004 11.2478H20.0237C19.6083 11.2478 19.2715 11.5846 19.2715 12C19.2715 12.4154 19.6083 12.7522 20.0237 12.7522H22.9004C22.9583 12.7522 23.0042 12.8014 22.9997 12.8591C22.8148 15.26 21.8614 17.4455 20.3852 19.1703C20.3475 19.2143 20.2804 19.2166 20.2394 19.1756L18.2056 17.1418C17.9118 16.848 17.4355 16.848 17.1418 17.1418C16.848 17.4355 16.848 17.9118 17.1418 18.2056L19.1756 20.2394C19.2166 20.2804 19.2143 20.3475 19.1703 20.3852C17.4455 21.8614 15.26 22.8148 12.8591 22.9997C12.8014 23.0042 12.7522 22.9583 12.7522 22.9004V20.0237C12.7522 19.6083 12.4154 19.2715 12 19.2715C11.5846 19.2715 11.2478 19.6083 11.2478 20.0237V22.9004C11.2478 22.9583 11.1986 23.0042 11.1409 22.9997C8.74004 22.8148 6.55445 21.8614 4.8297 20.3852C4.78568 20.3475 4.78344 20.2804 4.82441 20.2394L6.85825 18.2056C7.15201 17.9118 7.15201 17.4355 6.85825 17.1417C6.56449 16.848 6.0882 16.848 5.79444 17.1417L3.7606 19.1756C3.71963 19.2166 3.65252 19.2143 3.61484 19.1703C2.13859 17.4455 1.18521 15.26 1.0003 12.8591C0.995851 12.8014 1.0417 12.7522 1.09962 12.7522H3.97625C4.39169 12.7522 4.72848 12.4154 4.72848 12C4.72848 11.5846 4.39169 11.2478 3.97625 11.2478H1.09962C1.0417 11.2478 0.995851 11.1986 1.0003 11.1409C1.18521 8.74004 2.13859 6.55445 3.61484 4.8297C3.65252 4.78569 3.71963 4.78344 3.7606 4.82441L5.79444 6.85825C6.0882 7.15201 6.56449 7.15201 6.85825 6.85825C7.15201 6.56449 7.15201 6.0882 6.85825 5.79444L4.82441 3.7606ZM14.3522 8.37906C15.1363 8.1177 15.8822 8.86365 15.6209 9.64773L14.2862 13.6518C14.1863 13.9513 13.9513 14.1863 13.6518 14.2862L9.64774 15.6209C8.86366 15.8822 8.11771 15.1363 8.37907 14.3522L9.71377 10.3481C9.8136 10.0486 10.0486 9.81359 10.3481 9.71376L14.3522 8.37906Z" fill="black"/>
</svg>
