<svg width="24" height="24" viewBox="0 0 24 24" fill="none" xmlns="http://www.w3.org/2000/svg">
<g clip-path="url(#clip0_1607_5765)">
<path d="M12.75 0.999997C12.75 0.585784 12.4142 0.25 12 0.25C11.5858 0.25 11.25 0.585789 11.25 1L11.25 3.99999C11.25 4.4142 11.5858 4.74999 12 4.74998C12.4142 4.74998 12.75 4.4142 12.75 3.99998L12.75 0.999997Z" fill="black"/>
<path d="M12.75 20C12.75 19.5858 12.4142 19.25 12 19.25C11.5858 19.25 11.25 19.5858 11.25 20L11.25 23C11.25 23.4142 11.5858 23.75 12 23.75C12.4142 23.75 12.75 23.4142 12.75 23L12.75 20Z" fill="black"/>
<path d="M23 12.75C23.4142 12.75 23.75 12.4142 23.75 12C23.75 11.5858 23.4142 11.25 23 11.25L20 11.25C19.5858 11.25 19.25 11.5858 19.25 12C19.25 12.4142 19.5858 12.75 20 12.75L23 12.75Z" fill="black"/>
<path d="M4 12.75C4.41422 12.75 4.75 12.4142 4.75 12C4.75 11.5858 4.41421 11.25 4 11.25L1 11.25C0.585785 11.25 0.25 11.5858 0.25 12C0.25 12.4142 0.585787 12.75 1 12.75L4 12.75Z" fill="black"/>
<path d="M20.3086 3.69135C20.6015 3.98424 20.6015 4.45911 20.3086 4.75201L18.1873 6.87332C17.8944 7.16622 17.4196 7.16622 17.1267 6.87333C16.8338 6.58044 16.8338 6.10556 17.1267 5.81267L19.248 3.69135C19.5409 3.39846 20.0157 3.39846 20.3086 3.69135Z" fill="black"/>
<path d="M6.87362 17.1264C7.16652 17.4193 7.16652 17.8941 6.87362 18.187L4.75231 20.3084C4.45941 20.6012 3.98454 20.6013 3.69165 20.3084C3.39875 20.0155 3.39875 19.5406 3.69165 19.2477L5.81296 17.1264C6.10586 16.8335 6.58073 16.8335 6.87362 17.1264Z" fill="black"/>
<path d="M19.248 20.3087C19.5409 20.6015 20.0157 20.6015 20.3086 20.3086C20.6015 20.0158 20.6015 19.5409 20.3086 19.248L18.1873 17.1267C17.8944 16.8338 17.4195 16.8338 17.1267 17.1267C16.8338 17.4196 16.8338 17.8945 17.1267 18.1873L19.248 20.3087Z" fill="black"/>
<path d="M5.81295 6.87364C6.10585 7.16653 6.58072 7.16653 6.87361 6.87364C7.1665 6.58075 7.1665 6.10587 6.87361 5.81298L4.75229 3.69166C4.45939 3.39877 3.98452 3.39877 3.69163 3.69166C3.39874 3.98455 3.39874 4.45943 3.69163 4.75232L5.81295 6.87364Z" fill="black"/>
<path fill-rule="evenodd" clip-rule="evenodd" d="M6.24998 12C6.24998 8.82436 8.82435 6.25 12 6.25C15.1756 6.25 17.75 8.82436 17.75 12C17.75 15.1756 15.1756 17.75 12 17.75C8.82435 17.75 6.24998 15.1756 6.24998 12ZM12 7.75C9.65277 7.75 7.74998 9.65279 7.74998 12C7.74998 14.3472 9.65277 16.25 12 16.25C12.0105 16.25 12.0211 16.25 12.0316 16.2499C12.011 16.1701 12 16.0862 12 16V8C12 7.91381 12.011 7.82992 12.0316 7.75012C12.0211 7.75004 12.0105 7.75 12 7.75Z" fill="black"/>
</g>
<defs>
<clipPath id="clip0_1607_5765">
<rect width="24" height="24" fill="white"/>
</clipPath>
</defs>
</svg>
