<svg width="24" height="24" viewBox="0 0 24 24" fill="none" xmlns="http://www.w3.org/2000/svg">
<path fill-rule="evenodd" clip-rule="evenodd" d="M6.26772 2.5C6.38903 1.65193 7.11838 1 8 1H11C11.8816 1 12.611 1.65193 12.7323 2.5H13C13.8816 2.5 14.611 3.15193 14.7323 4H16C16.5523 4 17 4.44772 17 5V10.4C17 10.4552 16.9552 10.5 16.9 10.5H14C12.6193 10.5 11.5 11.6193 11.5 13V20.9C11.5 20.9552 11.4552 21 11.4 21H3C2.44772 21 2 20.5523 2 20V5C2 4.44772 2.44772 4 3 4H4.26772C4.38903 3.15193 5.11838 2.5 6 2.5H6.26772ZM8 2.5C7.86193 2.5 7.75 2.61193 7.75 2.75C7.75 3.44036 7.19036 4 6.5 4H6C5.86193 4 5.75 4.11193 5.75 4.25V5.25C5.75 5.38807 5.86193 5.5 6 5.5H13C13.1381 5.5 13.25 5.38807 13.25 5.25V4.25C13.25 4.11193 13.1381 4 13 4H12.5C11.8096 4 11.25 3.44036 11.25 2.75C11.25 2.61193 11.1381 2.5 11 2.5H8Z" fill="black"/>
<path d="M17.25 12.1C17.25 12.0448 17.2052 12 17.15 12H14C13.4477 12 13 12.4477 13 13V22C13 22.5523 13.4477 23 14 23H21C21.5523 23 22 22.5523 22 22V16.85C22 16.7948 21.9552 16.75 21.9 16.75H19C18.0335 16.75 17.25 15.9665 17.25 15V12.1Z" fill="black"/>
<path d="M21.8684 15.25C21.9302 15.25 21.9775 15.1943 21.9602 15.135C21.9136 14.9748 21.8272 14.8272 21.7071 14.7071L19.2929 12.2929C19.1728 12.1728 19.0252 12.0864 18.865 12.0398C18.8057 12.0225 18.75 12.0698 18.75 12.1316V15C18.75 15.1381 18.8619 15.25 19 15.25H21.8684Z" fill="black"/>
</svg>
