<svg width="24" height="24" viewBox="0 0 24 24" fill="none" xmlns="http://www.w3.org/2000/svg">
<path fill-rule="evenodd" clip-rule="evenodd" d="M1 2C1 1.44772 1.44772 1 2 1H22C22.5523 1 23 1.44772 23 2V7.3333C23 7.88324 22.5561 8.3295 22.007 8.33328C22.5561 8.33706 23 8.78331 23 9.33325V14.6666C23 15.2165 22.5561 15.6628 22.007 15.6665C22.5561 15.6703 23 16.1166 23 16.6665V21.9998C23 22.5521 22.5523 22.9998 22 22.9998H2C1.44772 22.9998 1 22.5521 1 21.9998V16.6665C1 16.1166 1.44393 15.6703 1.993 15.6665C1.44394 15.6628 1 15.2165 1 14.6666V9.33325C1 8.78331 1.44392 8.33706 1.99297 8.33328C1.44392 8.3295 1 7.88324 1 7.3333V2ZM3.79999 4.66675C3.79999 4.39061 4.02385 4.16675 4.29999 4.16675H9.22671C9.50286 4.16675 9.72671 4.39061 9.72671 4.66675C9.72671 4.94289 9.50286 5.16675 9.22671 5.16675H4.29999C4.02385 5.16675 3.79999 4.94289 3.79999 4.66675ZM4.29999 11.5C4.02385 11.5 3.79999 11.7239 3.79999 12C3.79999 12.2761 4.02385 12.5 4.29999 12.5H9.22671C9.50286 12.5 9.72671 12.2761 9.72671 12C9.72671 11.7239 9.50286 11.5 9.22671 11.5H4.29999ZM4.29999 18.8333C4.02385 18.8333 3.79999 19.0571 3.79999 19.3333C3.79999 19.6094 4.02385 19.8333 4.29999 19.8333H9.22671C9.50286 19.8333 9.72671 19.6094 9.72671 19.3333C9.72671 19.0571 9.50286 18.8333 9.22671 18.8333H4.29999Z" fill="black"/>
</svg>
