<svg width="24" height="24" viewBox="0 0 24 24" fill="none" xmlns="http://www.w3.org/2000/svg">
<path fill-rule="evenodd" clip-rule="evenodd" d="M2 1C1.44772 1 1 1.44772 1 2V16.5C1 17.0523 1.44772 17.5 2 17.5H9.25V21.5H5.3999C4.98569 21.5 4.6499 21.8358 4.6499 22.25C4.6499 22.6642 4.98569 23 5.3999 23H18.5999C19.0141 23 19.3499 22.6642 19.3499 22.25C19.3499 21.8358 19.0141 21.5 18.5999 21.5H14.75V17.5H22C22.5523 17.5 23 17.0523 23 16.5V2C23 1.44772 22.5523 1 22 1H2ZM2.5 2.5V13H21.5V2.5H2.5ZM13.25 18.25H10.75V20.75H13.25V18.25Z" fill="black"/>
</svg>
