<svg width="24" height="24" viewBox="0 0 24 24" fill="none" xmlns="http://www.w3.org/2000/svg">
<path fill-rule="evenodd" clip-rule="evenodd" d="M10.15 1C10.2052 1 10.25 1.04477 10.25 1.1V7.08984C10.25 8.05634 11.0335 8.83984 12 8.83984H16.8318L17.4246 8.24703C18.0873 7.58432 19.1618 7.58432 19.8245 8.24703L22.503 10.9255C23.1657 11.5882 23.1657 12.6627 22.503 13.3254L18 17.8283V22C18 22.5523 17.5523 23 17 23H2C1.44772 23 1 22.5523 1 22V2C1 1.44772 1.44772 1 2 1H10.15ZM18.4853 9.30769C18.5622 9.23077 18.6869 9.23077 18.7639 9.30769L21.4423 11.9861C21.5192 12.0631 21.5192 12.1878 21.4423 12.2647L14.0147 19.6923C13.9778 19.7292 13.9277 19.75 13.8754 19.75H11.197C11.0882 19.75 11 19.6618 11 19.553V16.8746C11 16.8223 11.0208 16.7722 11.0577 16.7353L18.4853 9.30769Z" fill="black"/>
<path d="M11.9207 1.92071C11.8577 1.85771 11.75 1.90233 11.75 1.99142V7.08984C11.75 7.22791 11.8619 7.33984 12 7.33984H17.0984C17.1875 7.33984 17.2321 7.23213 17.1691 7.16913L11.9207 1.92071Z" fill="black"/>
</svg>
