<svg width="24" height="24" viewBox="0 0 24 24" fill="none" xmlns="http://www.w3.org/2000/svg">
<path fill-rule="evenodd" clip-rule="evenodd" d="M1 2C1 0.895431 1.89543 0 3 0H18C19.1046 0 20 0.895431 20 2V7C20 7.55228 19.5523 8 19 8C18.4477 8 18 7.55228 18 7V2L3 2V22H18V17.5C18 16.9477 18.4477 16.5 19 16.5C19.5523 16.5 20 16.9477 20 17.5V22C20 23.1046 19.1046 24 18 24H3C1.89543 24 1 23.1046 1 22V2Z" fill="black"/>
<path fill-rule="evenodd" clip-rule="evenodd" d="M14.4954 7.2526C14.9082 7.61952 14.9454 8.25159 14.5784 8.66437L12.0579 11.5H22C22.5523 11.5 23 11.9477 23 12.5C23 13.0523 22.5523 13.5 22 13.5H12.0579L14.5784 16.3356C14.9453 16.7484 14.9082 17.3805 14.4954 17.7474C14.0826 18.1143 13.4505 18.0772 13.0836 17.6644L9.37889 13.4966C9.12641 13.2125 8.99999 12.8551 9 12.5C9.00001 12.1448 9.12643 11.7875 9.37889 11.5035L13.0836 7.33565C13.4505 6.92286 14.0826 6.88568 14.4954 7.2526Z" fill="black"/>
</svg>
