<svg width="24" height="24" viewBox="0 0 24 24" fill="none" xmlns="http://www.w3.org/2000/svg">
<g clip-path="url(#clip0_1607_5797)">
<path d="M8.47475 1.99008C9.02149 1.91197 9.40138 1.40544 9.32328 0.858707C9.24518 0.311973 8.73864 -0.0679267 8.19191 0.0101778L1.8495 0.916231C1.36553 0.98537 0.985261 1.36563 0.91612 1.84961L0.0100559 8.19203C-0.0680494 8.73876 0.311849 9.24529 0.858583 9.3234C1.40532 9.4015 1.91185 9.02161 1.98995 8.47487L2.6238 4.03801L10.5859 12.0001L2.62378 19.9623L1.98995 15.5255C1.91185 14.9787 1.40532 14.5988 0.858585 14.6769C0.311851 14.755 -0.0680488 15.2616 0.0100557 15.8083L0.916109 22.1507C0.985248 22.6347 1.36551 23.0149 1.84949 23.0841L8.19191 23.9901C8.73864 24.0683 9.24517 23.6884 9.32328 23.1416C9.40138 22.5949 9.02148 22.0884 8.47475 22.0103L4.03804 21.3764L12.0001 13.4143L19.9622 21.3764L15.5252 22.0102C14.9785 22.0884 14.5986 22.5949 14.6767 23.1416C14.7548 23.6884 15.2613 24.0683 15.8081 23.9901L22.1505 23.0841C22.6344 23.015 23.0147 22.6347 23.0838 22.1507L23.9899 15.8083C24.068 15.2616 23.6881 14.755 23.1414 14.6769C22.5946 14.5988 22.0881 14.9787 22.01 15.5255L21.3762 19.962L13.4143 12.0001L21.3762 4.03826L22.01 8.47487C22.0881 9.02161 22.5946 9.40151 23.1414 9.3234C23.6881 9.2453 24.068 8.73876 23.9899 8.19203L23.0839 1.84962C23.0147 1.36565 22.6344 0.985381 22.1505 0.916241L15.8081 0.0101779C15.2613 -0.0679272 14.7548 0.311971 14.6767 0.858705C14.5986 1.40544 14.9785 1.91197 15.5252 1.99008L19.9621 2.62392L12.0001 10.5859L4.0381 2.62388L8.47475 1.99008Z" fill="black"/>
</g>
<defs>
<clipPath id="clip0_1607_5797">
<rect width="24" height="24" fill="white"/>
</clipPath>
</defs>
</svg>
