<svg width="24" height="24" viewBox="0 0 24 24" fill="none" xmlns="http://www.w3.org/2000/svg">
<g clip-path="url(#clip0_1607_5805)">
<path fill-rule="evenodd" clip-rule="evenodd" d="M16.5052 0.900571C16.5602 0.351027 17.0502 -0.0499168 17.5998 0.00503761L22.5998 0.505038C23.0733 0.552397 23.4479 0.926982 23.4953 1.40057L23.9953 6.40057C24.0502 6.95012 23.6493 7.44016 23.0998 7.49511C22.5502 7.55007 22.0602 7.14912 22.0052 6.59958L21.7152 3.69932L8.7071 16.7072C8.31658 17.0977 7.68341 17.0977 7.29289 16.7072C6.90237 16.3166 6.90238 15.6835 7.2929 15.293L20.301 2.28513L17.4007 1.99511C16.8512 1.94016 16.4503 1.45011 16.5052 0.900571ZM0 7.00007C0 5.89551 0.895431 5.00007 2 5.00007H13C13.5523 5.00007 14 5.44779 14 6.00007C14 6.55236 13.5523 7.00007 13 7.00007H2V22.0001H17V11.0001C17 10.4478 17.4477 10.0001 18 10.0001C18.5523 10.0001 19 10.4478 19 11.0001V22.0001C19 23.1046 18.1046 24.0001 17 24.0001H2C0.89543 24.0001 0 23.1046 0 22.0001V7.00007Z" fill="black"/>
</g>
<defs>
<clipPath id="clip0_1607_5805">
<rect width="24" height="24" fill="white"/>
</clipPath>
</defs>
</svg>
