<svg width="24" height="24" viewBox="0 0 24 24" fill="none" xmlns="http://www.w3.org/2000/svg">
<path fill-rule="evenodd" clip-rule="evenodd" d="M14.25 1.1C14.25 1.04477 14.2052 1 14.15 1H3C2.44772 1 2 1.44772 2 2V22C2 22.5523 2.44772 23 3 23H21C21.5523 23 22 22.5523 22 22V8.93984C22 8.88462 21.9552 8.83984 21.9 8.83984H16C15.0335 8.83984 14.25 8.05634 14.25 7.08984V1.1ZM6 8.25002C5.58579 8.25002 5.25 8.58581 5.25 9.00002C5.25 9.41424 5.58579 9.75002 6 9.75002H11C11.4142 9.75002 11.75 9.41424 11.75 9.00002C11.75 8.58581 11.4142 8.25002 11 8.25002H6ZM6 12.75C5.58579 12.75 5.25 13.0858 5.25 13.5C5.25 13.9142 5.58579 14.25 6 14.25H17C17.4142 14.25 17.75 13.9142 17.75 13.5C17.75 13.0858 17.4142 12.75 17 12.75H6ZM6 17.25C5.58579 17.25 5.25 17.5858 5.25 18C5.25 18.4142 5.58579 18.75 6 18.75H17C17.4142 18.75 17.75 18.4142 17.75 18C17.75 17.5858 17.4142 17.25 17 17.25H6Z" fill="black"/>
<path d="M21.0984 7.33984C21.1875 7.33984 21.2321 7.23213 21.1691 7.16913L15.9207 1.92071C15.8577 1.85771 15.75 1.90233 15.75 1.99142V7.08984C15.75 7.22791 15.8619 7.33984 16 7.33984H21.0984Z" fill="black"/>
</svg>
