<svg width="24" height="24" viewBox="0 0 24 24" fill="none" xmlns="http://www.w3.org/2000/svg">
<path fill-rule="evenodd" clip-rule="evenodd" d="M2.75 1C3.16421 1 3.5 1.33579 3.5 1.75V5.5H11.25C11.6642 5.5 12 5.83579 12 6.25C12 6.66421 11.6642 7 11.25 7H3.5V18.25C3.5 18.3881 3.61193 18.5 3.75 18.5H11.25C11.6642 18.5 12 18.8358 12 19.25C12 19.6642 11.6642 20 11.25 20H3.75C2.7835 20 2 19.2165 2 18.25V1.75C2 1.33579 2.33579 1 2.75 1Z" fill="black"/>
<path d="M17.25 1.1C17.25 1.04477 17.2052 1 17.15 1H15C14.4477 1 14 1.44772 14 2V9.5C14 10.0523 14.4477 10.5 15 10.5H21C21.5523 10.5 22 10.0523 22 9.5V5.85C22 5.79477 21.9552 5.75 21.9 5.75H18C17.5858 5.75 17.25 5.41421 17.25 5V1.1Z" fill="black"/>
<path d="M21.8684 4.25C21.9302 4.25 21.9775 4.19432 21.9602 4.13499C21.9136 3.97475 21.8272 3.82722 21.7071 3.70711L19.2929 1.29289C19.1728 1.17278 19.0252 1.08637 18.865 1.03977C18.8057 1.02252 18.75 1.06981 18.75 1.13159V4.15C18.75 4.20523 18.7948 4.25 18.85 4.25H21.8684Z" fill="black"/>
<path d="M17.25 13.6C17.25 13.5448 17.2052 13.5 17.15 13.5H15C14.4477 13.5 14 13.9477 14 14.5V22C14 22.5523 14.4477 23 15 23H21C21.5523 23 22 22.5523 22 22V18.35C22 18.2948 21.9552 18.25 21.9 18.25H18C17.5858 18.25 17.25 17.9142 17.25 17.5V13.6Z" fill="black"/>
<path d="M21.8684 16.75C21.9302 16.75 21.9775 16.6943 21.9602 16.635C21.9136 16.4748 21.8272 16.3272 21.7071 16.2071L19.2929 13.7929C19.1728 13.6728 19.0252 13.5864 18.865 13.5398C18.8057 13.5225 18.75 13.5698 18.75 13.6316V16.65C18.75 16.7052 18.7948 16.75 18.85 16.75H21.8684Z" fill="black"/>
</svg>
