<svg width="24" height="24" viewBox="0 0 24 24" fill="none" xmlns="http://www.w3.org/2000/svg">
<path d="M9.54344 7.1C9.54344 7.04477 9.49867 7 9.44344 7L3.06667 7.00001C2.47756 7.00002 2 7.47758 2 8.06668V21.9333C2 22.5224 2.47756 23 3.06667 23H14.9333C15.5224 23 16 22.5224 16 21.9333L16 13.5C16 13.4448 15.9552 13.4 15.9 13.4H10.4501C9.94937 13.4 9.54344 12.9941 9.54344 12.4933V7.1Z" fill="black"/>
<path d="M15.7371 11.8C15.8106 11.8 15.8581 11.7234 15.8169 11.6625C15.7787 11.606 15.7349 11.5529 15.6859 11.5041L11.4742 7.31077C11.4146 7.25147 11.3488 7.19993 11.2783 7.15677C11.2169 7.11927 11.1434 7.16704 11.1434 7.2389V11.8H15.7371Z" fill="black"/>
<path d="M9.06667 1.00001L15.4434 1C15.4987 1 15.5434 1.04477 15.5434 1.1V6.49332C15.5434 6.99406 15.9494 7.39999 16.4501 7.39999H21.9C21.9552 7.39999 22 7.44476 22 7.49999V15.9333C22 16.5224 21.5224 17 20.9333 17H17.5V12.26C17.5 11.5773 17.228 10.9228 16.7443 10.4411L12.5325 6.24779C12.0515 5.76887 11.4004 5.5 10.7216 5.5L8 5.50001V2.06668C8 1.47758 8.47756 1.00001 9.06667 1.00001Z" fill="black"/>
<path d="M21.6859 5.50412C21.7349 5.55292 21.7787 5.606 21.8169 5.66247C21.8581 5.72341 21.8106 5.79999 21.7371 5.79999H17.1434V1.2389C17.1434 1.16704 17.2169 1.11927 17.2783 1.15677C17.3488 1.19993 17.4146 1.25147 17.4742 1.31077L21.6859 5.50412Z" fill="black"/>
</svg>
