<svg width="24" height="24" viewBox="0 0 24 24" fill="none" xmlns="http://www.w3.org/2000/svg">
<path d="M4.5 0.75C4.5 0.335786 4.16421 0 3.75 0C3.33579 0 3 0.335786 3 0.75V22.75C3 23.1642 3.33579 23.5 3.75 23.5C4.16421 23.5 4.5 23.1642 4.5 22.75L4.5 13.6875L7.36003 13.4492C8.93038 13.3183 10.5092 13.5663 11.9638 14.1724C14.387 15.1821 17.113 15.1821 19.5362 14.1724L21.1346 13.5064C21.5073 13.3511 21.75 12.987 21.75 12.5833V2.75C21.75 2.03642 21.0241 1.55247 20.3654 1.82692L19.5362 2.17241C17.113 3.18207 14.387 3.18207 11.9638 2.17241C10.5092 1.56633 8.93038 1.3183 7.36003 1.44916L4.5 1.6875V0.75Z" fill="black"/>
</svg>
