<svg width="24" height="24" viewBox="0 0 24 24" fill="none" xmlns="http://www.w3.org/2000/svg">
<path fill-rule="evenodd" clip-rule="evenodd" d="M1.21967 1.21967C1.51256 0.926777 1.98744 0.926777 2.28033 1.21967L22.7803 21.7197C23.0732 22.0126 23.0732 22.4874 22.7803 22.7803C22.4874 23.0732 22.0126 23.0732 21.7197 22.7803L1.21967 2.28033C0.926777 1.98744 0.926777 1.51256 1.21967 1.21967Z" fill="black"/>
<path d="M6.90987 9.38474C6.86854 9.34342 6.80073 9.34619 6.76291 9.39075L4.24322 12.36C3.68249 13.0208 4.15352 14.0334 5.02161 14.0334H10.8664C10.9272 14.0334 10.9745 14.0861 10.9678 14.1463L10.3302 19.8679C10.219 20.8658 11.4716 21.4034 12.122 20.6369L14.8351 17.4398C14.8687 17.4001 14.8663 17.3412 14.8295 17.3044L6.90987 9.38474Z" fill="black"/>
<path d="M17.0901 14.6153C17.1315 14.6566 17.1993 14.6538 17.2371 14.6092L19.7568 11.64C20.3175 10.9792 19.8465 9.96658 18.9784 9.96658H13.1336C13.0728 9.96658 13.0255 9.91391 13.0322 9.85368L13.6698 4.13211C13.781 3.1342 12.5284 2.59662 11.878 3.3631L9.16494 6.56019C9.13125 6.59989 9.13366 6.65879 9.17048 6.6956L17.0901 14.6153Z" fill="black"/>
</svg>
