<svg width="24" height="24" viewBox="0 0 24 24" fill="none" xmlns="http://www.w3.org/2000/svg">
<path d="M1 4V20C1 20.5523 1.44772 21 2 21H22C22.5523 21 23 20.5523 23 20V7.21785C23 6.66556 22.5523 6.21785 22 6.21785H20.85C20.7948 6.21785 20.75 6.26262 20.75 6.31785V12.8079C20.75 13.4956 19.9759 13.8986 19.4126 13.5043L17.5573 12.2056C17.5229 12.1815 17.4771 12.1815 17.4427 12.2056L15.5874 13.5043C15.0241 13.8986 14.25 13.4956 14.25 12.8079V6.31785C14.25 6.26262 14.2052 6.21785 14.15 6.21785H12.4548C12.1658 6.21785 11.891 6.09286 11.7011 5.87507L9.49292 3.34277C9.30301 3.12499 9.02818 3 8.73922 3H2C1.44772 3 1 3.44771 1 4Z" fill="black"/>
<path d="M15.85 6.21785C15.7948 6.21785 15.75 6.26262 15.75 6.31785V11.3674C15.75 11.4483 15.8411 11.4958 15.9073 11.4494L17.0126 10.6757C17.3052 10.4708 17.6948 10.4708 17.9874 10.6757L19.0927 11.4494C19.1589 11.4958 19.25 11.4483 19.25 11.3674V6.31785C19.25 6.26262 19.2052 6.21785 19.15 6.21785H15.85Z" fill="black"/>
</svg>
