<svg width="24" height="24" viewBox="0 0 24 24" fill="none" xmlns="http://www.w3.org/2000/svg">
<path d="M4.25035 8.67578C4.29018 4.42976 7.74456 1 12 1C16.2554 1 19.7098 4.42976 19.7497 8.67579C21.627 9.21735 23 10.9483 23 13C23 15.0515 21.6271 16.7824 19.75 17.3241V19.5C19.75 20.4665 18.9665 21.25 18 21.25H15.3856C15.067 22.2643 14.1194 23 13 23H12C10.6193 23 9.5 21.8807 9.5 20.5C9.5 19.1193 10.6193 18 12 18H13C14.1194 18 15.067 18.7357 15.3856 19.75H18C18.1381 19.75 18.25 19.6381 18.25 19.5V17.5H17C16.4477 17.5 16 17.0523 16 16.5V9.5C16 8.94772 16.4477 8.5 17 8.5H18.2451C18.1139 5.16412 15.3681 2.5 12 2.5C8.63195 2.5 5.88613 5.16412 5.75491 8.5H7C7.55229 8.5 8 8.94772 8 9.5L8 16.5C8 17.0523 7.55228 17.5 7 17.5H5.5C3.01472 17.5 1 15.4853 1 13C1 10.9483 2.37303 9.21734 4.25035 8.67578Z" fill="black"/>
</svg>
