<svg width="24" height="24" viewBox="0 0 24 24" fill="none" xmlns="http://www.w3.org/2000/svg">
<path d="M12.7621 9.64442C12.7617 9.64447 12.7627 9.64239 12.766 9.63804C12.764 9.6422 12.7624 9.64437 12.7621 9.64442Z" fill="black"/>
<path fill-rule="evenodd" clip-rule="evenodd" d="M1 2.00001C1 1.44772 1.44772 1.00001 2 1.00001L22 1C22.5523 1 23 1.44772 23 2V16.06C23 16.6123 22.5523 17.06 22 17.06H18.5472C18.492 17.06 18.4472 17.1048 18.4472 17.16L18.4406 22C18.4394 22.8828 17.3783 23.3345 16.7445 22.72L10.9418 17.09C10.9232 17.0719 10.8982 17.06 10.8722 17.06H2C1.44772 17.06 1 16.6123 1 16.06V2.00001ZM12 12.2501C12.4142 12.2501 12.75 12.5858 12.75 13.0001V13.0318C12.75 13.446 12.4142 13.7818 12 13.7818C11.5858 13.7818 11.25 13.446 11.25 13.0318V13.0001C11.25 12.5858 11.5858 12.2501 12 12.2501ZM10.75 6.89429C10.75 6.3429 11.3107 5.75 12.0249 5.75C13.0332 5.75 13.4845 6.36511 13.4845 6.89429C13.4845 7.30853 13.2647 7.53597 12.7387 7.85733C12.6911 7.88639 12.6367 7.91854 12.5779 7.95324C12.3667 8.07791 12.0995 8.23558 11.8965 8.40098C11.6082 8.6358 11.2749 9.01748 11.2749 9.59417V10.4993C11.2749 10.9136 11.6107 11.25 12.0249 11.25C12.4391 11.25 12.7749 10.9142 12.7749 10.5V9.62734C12.7866 9.61426 12.8077 9.59342 12.8438 9.56397C12.952 9.47587 13.0765 9.40216 13.2558 9.29605C13.333 9.25039 13.4203 9.19873 13.5207 9.13735C14.0995 8.78374 14.9845 8.16747 14.9845 6.89429C14.9845 5.39856 13.7164 4.25 12.0249 4.25C10.5792 4.25 9.25 5.42077 9.25 6.89429C9.25 7.30851 9.58579 7.64429 10 7.64429C10.4142 7.64429 10.75 7.30851 10.75 6.89429Z" fill="black"/>
</svg>
