<svg width="24" height="24" viewBox="0 0 24 24" fill="none" xmlns="http://www.w3.org/2000/svg">
<path d="M2.53033 1.46967C2.23744 1.17678 1.76256 1.17678 1.46967 1.46967C1.17678 1.76256 1.17678 2.23744 1.46967 2.53033L21.4697 22.5303C21.7626 22.8232 22.2374 22.8232 22.5303 22.5303C22.8232 22.2374 22.8232 21.7626 22.5303 21.4697L2.53033 1.46967Z" fill="black"/>
<path d="M1.17413 11.3589C2.13781 10.0392 3.44711 8.64031 5.01672 7.49159L9.03916 11.514C9.01339 11.6722 9 11.8345 9 12C9 13.6569 10.3431 15 12 15C12.1655 15 12.3278 14.9866 12.486 14.9608L15.7871 18.2619C11.6429 19.8822 6.46801 19.1998 1.20705 12.493C0.947807 12.1625 0.92658 11.6978 1.17413 11.3589Z" fill="black"/>
<path d="M15 12C15 12.1655 14.9866 12.3278 14.9608 12.486L18.954 16.4792C20.5395 15.3008 21.8609 13.8609 22.831 12.5039C23.0752 12.1623 23.0498 11.6979 22.787 11.3698C17.5236 4.79814 12.3467 4.13493 8.2022 5.72733L11.514 9.03916C11.6722 9.01339 11.8345 9 12 9C13.6569 9 15 10.3431 15 12Z" fill="black"/>
</svg>
