<svg width="24" height="24" viewBox="0 0 24 24" fill="none" xmlns="http://www.w3.org/2000/svg">
<path d="M9 4C9 2.34315 10.3431 1 12 1C13.6569 1 15 2.34315 15 4C15 5.31133 14.1586 6.42616 12.9863 6.8341C12.9953 6.88806 13 6.94348 13 7V11H20C21.1046 11 22 11.8954 22 13V19C22 19.0862 21.9891 19.1699 21.9686 19.2498C22.5837 19.5909 23 20.2468 23 21C23 22.1046 22.1046 23 21 23C19.8954 23 19 22.1046 19 21C19 20.2468 19.4163 19.5909 20.0314 19.2498C20.0109 19.1699 20 19.0862 20 19V13H13V19C13 19.0862 12.9891 19.1699 12.9686 19.2498C13.5837 19.5909 14 20.2468 14 21C14 22.1046 13.1046 23 12 23C10.8954 23 10 22.1046 10 21C10 20.2468 10.4163 19.5909 11.0314 19.2498C11.0109 19.1699 11 19.0862 11 19V13H4L4 19C4 19.0862 3.98908 19.1699 3.96856 19.2498C4.58366 19.5909 5 20.2468 5 21C5 22.1046 4.10457 23 3 23C1.89543 23 1 22.1046 1 21C1 20.2468 1.41634 19.5909 2.03144 19.2498C2.01092 19.1699 2 19.0862 2 19L2 13C2 11.8954 2.89543 11 4 11H11V7C11 6.94348 11.0047 6.88806 11.0137 6.8341C9.84136 6.42616 9 5.31133 9 4Z" fill="black"/>
</svg>
