<svg width="24" height="24" viewBox="0 0 24 24" fill="none" xmlns="http://www.w3.org/2000/svg">
<path d="M11.25 3C11.25 3.41421 11.5858 3.75 12 3.75C12.4142 3.75 12.75 3.41421 12.75 3V0.75C12.75 0.335786 12.4142 0 12 0C11.5858 0 11.25 0.335786 11.25 0.75V3Z" fill="black"/>
<path d="M18 11.5C18 13.3899 17.1263 15.0756 15.7607 16.1754C15.7431 16.1896 15.7211 16.1973 15.6985 16.1973H12.8501C12.7949 16.1973 12.7501 16.1525 12.7501 16.0973V12.9156C12.7501 12.8848 12.7643 12.8556 12.7887 12.8367L15.0312 11.092C15.3581 10.8376 15.4169 10.3664 15.1626 10.0395C14.9082 9.71257 14.437 9.65374 14.1101 9.90809L12.0001 11.5498L9.89002 9.90809C9.5631 9.65374 9.09189 9.71257 8.83753 10.0395C8.58318 10.3664 8.64201 10.8376 8.96893 11.092L11.2115 12.8367C11.2358 12.8557 11.2501 12.8848 11.2501 12.9157V16.0973C11.2501 16.1525 11.2053 16.1973 11.1501 16.1973H8.30151C8.27889 16.1973 8.25691 16.1896 8.23929 16.1754C6.87374 15.0756 6 13.3899 6 11.5C6 8.18629 8.68629 5.5 12 5.5C15.3137 5.5 18 8.18629 18 11.5Z" fill="black"/>
<path d="M0 12C0 11.5858 0.335786 11.25 0.75 11.25H3C3.41421 11.25 3.75 11.5858 3.75 12C3.75 12.4142 3.41421 12.75 3 12.75H0.75C0.335786 12.75 0 12.4142 0 12Z" fill="black"/>
<path d="M20.25 12C20.25 11.5858 20.5858 11.25 21 11.25H23.25C23.6642 11.25 24 11.5858 24 12C24 12.4142 23.6642 12.75 23.25 12.75H21C20.5858 12.75 20.25 12.4142 20.25 12Z" fill="black"/>
<path d="M3.51471 3.51471C3.80761 3.22181 4.28248 3.22181 4.57537 3.51471L6.16636 5.1057C6.45926 5.39859 6.45926 5.87346 6.16636 6.16636C5.87347 6.45925 5.3986 6.45925 5.1057 6.16636L3.51471 4.57537C3.22182 4.28247 3.22182 3.8076 3.51471 3.51471Z" fill="black"/>
<path d="M17.8336 17.8336C18.1265 17.5407 18.6014 17.5407 18.8943 17.8336L20.4853 19.4246C20.7782 19.7175 20.7782 20.1924 20.4853 20.4853C20.1924 20.7782 19.7175 20.7782 19.4246 20.4853L17.8336 18.8943C17.5407 18.6014 17.5407 18.1265 17.8336 17.8336Z" fill="black"/>
<path d="M3.51471 19.4245C3.22181 19.7174 3.22181 20.1923 3.51471 20.4852C3.8076 20.7781 4.28247 20.7781 4.57537 20.4852L6.16636 18.8942C6.45925 18.6013 6.45925 18.1264 6.16636 17.8335C5.87346 17.5406 5.39859 17.5406 5.1057 17.8335L3.51471 19.4245Z" fill="black"/>
<path d="M17.8336 5.10559C17.5407 5.39848 17.5407 5.87336 17.8336 6.16625C18.1265 6.45915 18.6014 6.45915 18.8943 6.16625L20.4853 4.57526C20.7782 4.28237 20.7782 3.80749 20.4853 3.5146C20.1924 3.22171 19.7175 3.22171 19.4246 3.5146L17.8336 5.10559Z" fill="black"/>
<path d="M14.9 17.6973C14.9552 17.6973 15 17.742 15 17.7973V20C15 20.5522 14.5523 21 14 21C14 22.1045 13.1046 23 12 23C10.8954 23 10 22.1046 10 21C9.44772 21 9 20.5522 9 20V17.7973C9 17.742 9.04477 17.6973 9.1 17.6973H14.9Z" fill="black"/>
</svg>
