<svg width="24" height="24" viewBox="0 0 24 24" fill="none" xmlns="http://www.w3.org/2000/svg">
<path fill-rule="evenodd" clip-rule="evenodd" d="M2 2.25C1.0335 2.25 0.25 3.0335 0.25 4V14C0.25 14.9665 1.0335 15.75 2 15.75H7V18.0331L9.72789 15.8137C10.378 15.2848 11.3118 15.291 11.9548 15.8286L13.4485 17.0773L16.9918 14.0024C17.6498 13.4313 18.6277 13.4313 19.2858 14.0024L23 17.2257V10C23 9.44772 22.5523 9 22 9H17.75V4C17.75 3.0335 16.9665 2.25 16 2.25H2ZM16.25 9V4C16.25 3.86193 16.1381 3.75 16 3.75H2C1.86193 3.75 1.75 3.86193 1.75 4V14C1.75 14.1381 1.86193 14.25 2 14.25H7V10C7 9.44771 7.44772 9 8 9H16.25ZM13 12.2501C13.4142 12.2501 13.75 12.5858 13.75 13V13.0318C13.75 13.446 13.4142 13.7818 13 13.7818C12.5858 13.7818 12.25 13.446 12.25 13.0318V13C12.25 12.5858 12.5858 12.2501 13 12.2501Z" fill="black"/>
<path d="M23 19.1984L22.5084 18.7853L18.3026 15.1352C18.2086 15.0537 18.0689 15.0537 17.9749 15.1352L14.0135 18.5731C13.6984 18.8466 13.2314 18.8509 12.9112 18.5833L10.9927 16.9794C10.9008 16.9026 10.7674 16.9017 10.6745 16.9773L7.46185 19.5911L7 19.9375V20C7 20.5523 7.44772 21 8 21H22C22.5523 21 23 20.5523 23 20V19.1984Z" fill="black"/>
</svg>
