<svg width="24" height="24" viewBox="0 0 24 24" fill="none" xmlns="http://www.w3.org/2000/svg">
<path fill-rule="evenodd" clip-rule="evenodd" d="M23 12C23 18.0751 18.0751 23 12 23C5.92487 23 1 18.0751 1 12C1 5.92487 5.92487 1 12 1C18.0751 1 23 5.92487 23 12ZM12 18.75C11.5858 18.75 11.25 18.4142 11.25 18L11.25 11C11.25 10.5858 11.5858 10.25 12 10.25C12.4142 10.25 12.75 10.5858 12.75 11L12.75 18C12.75 18.4142 12.4142 18.75 12 18.75ZM12.75 7.00005C12.75 6.58584 12.4142 6.25005 12 6.25005C11.5858 6.25005 11.25 6.58584 11.25 7.00005V7.03178C11.25 7.44599 11.5858 7.78178 12 7.78178C12.4142 7.78178 12.75 7.44599 12.75 7.03178V7.00005Z" fill="black"/>
</svg>
