<svg width="24" height="24" viewBox="0 0 24 24" fill="none" xmlns="http://www.w3.org/2000/svg">
<path d="M11.25 1.09814C11.25 1.02324 11.1718 0.975143 11.1079 1.01353C10.67 1.27642 10.2134 1.74158 9.76497 2.45598C9.08444 3.54007 8.51464 5.06466 8.13593 6.88102C8.12186 6.94848 8.17822 7.00961 8.24622 7.00117C9.1756 6.88572 10.1496 6.81248 11.1523 6.78599C11.2066 6.78455 11.25 6.73992 11.25 6.68527V1.09814Z" fill="black"/>
<path d="M11.25 8.39721C11.25 8.3407 11.2037 8.29526 11.1476 8.29682C10.0133 8.32839 8.93174 8.4223 7.9252 8.56766C7.88092 8.57406 7.84638 8.60934 7.8407 8.65398C7.70674 9.70743 7.63373 10.8302 7.63373 11.9999C7.63373 13.1699 7.70675 14.2926 7.84067 15.3457C7.84634 15.3903 7.88088 15.4256 7.92517 15.432C8.93171 15.5773 10.0133 15.6713 11.1476 15.7028C11.2037 15.7044 11.25 15.6589 11.25 15.6024L11.25 8.39721Z" fill="black"/>
<path d="M12.8524 15.7028C12.7963 15.7044 12.75 15.659 12.75 15.6024L12.75 8.39721C12.75 8.3407 12.7963 8.29526 12.8524 8.29682C13.9863 8.32838 15.068 8.42226 16.0748 8.56766C16.1191 8.57405 16.1536 8.60933 16.1593 8.65397C16.2933 9.70742 16.3663 10.8302 16.3663 11.9999C16.3663 13.1699 16.2933 14.2926 16.1594 15.3457C16.1537 15.3903 16.1191 15.4256 16.0749 15.432C15.068 15.5774 13.9864 15.6713 12.8524 15.7028Z" fill="black"/>
<path d="M11.25 17.3144C11.25 17.2597 11.2066 17.2151 11.1523 17.2137C10.1495 17.1872 9.17557 17.1139 8.24618 16.9985C8.17818 16.99 8.12183 17.0512 8.1359 17.1187C8.53096 19.0135 9.13379 20.5898 9.85229 21.6796C10.2737 22.3188 10.6993 22.7411 11.1079 22.9865C11.1718 23.0249 11.25 22.9767 11.25 22.9019V17.3144Z" fill="black"/>
<path d="M12.8921 22.9865C12.8282 23.0249 12.75 22.9768 12.75 22.9019V17.3144C12.75 17.2597 12.7934 17.2151 12.8477 17.2137C13.8507 17.1872 14.8247 17.1139 15.7538 16.9985C15.8218 16.9901 15.8782 17.0512 15.8641 17.1187C15.4691 19.0135 14.8662 20.5898 14.1477 21.6796C13.7263 22.3188 13.3007 22.7411 12.8921 22.9865Z" fill="black"/>
<path d="M12.8477 6.78598C12.7934 6.78455 12.75 6.73991 12.75 6.68527V1.09813C12.75 1.02323 12.8282 0.975134 12.8921 1.01352C13.33 1.2764 13.7866 1.74157 14.2351 2.45598C14.9156 3.54007 15.4854 5.06464 15.8641 6.881C15.8782 6.94845 15.8218 7.00959 15.7538 7.00115C14.8246 6.88573 13.8507 6.81248 12.8477 6.78598Z" fill="black"/>
<path d="M8.49697 1.64917C7.62164 3.04359 6.94596 4.9719 6.54546 7.20278C6.5381 7.2438 6.50626 7.27628 6.46558 7.28425C4.56357 7.65715 2.92852 8.22033 1.72917 8.92544C1.6769 8.95618 1.62506 8.98742 1.57372 9.01918C1.49569 9.06745 1.39724 8.99584 1.42206 8.90714C2.41416 5.36118 5.06968 2.53205 8.4716 1.35624C8.56226 1.3249 8.63902 1.42931 8.58629 1.50985C8.55616 1.55586 8.52639 1.60231 8.49697 1.64917Z" fill="black"/>
<path d="M2.48557 10.2296C1.51524 10.8 1.09951 11.351 1.00356 11.7957C1.00223 11.8019 1.00156 11.8081 1.00146 11.8144C1.00049 11.876 1 11.9377 1 11.9996C1 12.0616 1.00049 12.1235 1.00147 12.1853C1.00157 12.1916 1.00224 12.1978 1.00357 12.204C1.09953 12.6487 1.51527 13.1996 2.48556 13.7701C3.39944 14.3074 4.66175 14.7709 6.16952 15.1104C6.23628 15.1255 6.29768 15.0698 6.2904 15.0013C6.18763 14.0356 6.13373 13.0299 6.13373 11.9999C6.13373 10.9696 6.18765 9.96386 6.2904 8.9983C6.29768 8.92988 6.23628 8.87418 6.16952 8.88921C4.66175 9.22879 3.39944 9.69229 2.48557 10.2296Z" fill="black"/>
<path d="M8.60254 22.5147C8.65009 22.5869 8.58126 22.6806 8.49982 22.6527C5.08455 21.4828 2.41719 18.6481 1.42221 15.0926C1.39739 15.0039 1.49584 14.9323 1.57387 14.9806C1.62516 15.0123 1.67695 15.0435 1.72917 15.0742C2.92852 15.7793 4.56356 16.3425 6.46557 16.7154C6.50625 16.7234 6.53808 16.7558 6.54545 16.7969C6.96165 19.1153 7.67525 21.1082 8.60254 22.5147Z" fill="black"/>
<path d="M15.3975 22.5147C16.3248 21.1082 17.0384 19.1153 17.4546 16.7969C17.4619 16.7559 17.4938 16.7234 17.5344 16.7154C19.3539 16.3587 20.9283 15.828 22.1103 15.1664C22.2174 15.1064 22.3228 15.0445 22.4262 14.9805C22.5042 14.9322 22.6026 15.0038 22.5778 15.0925C21.5829 18.6481 18.9155 21.4828 15.5002 22.6527C15.4188 22.6806 15.3499 22.5869 15.3975 22.5147Z" fill="black"/>
<path d="M21.3814 13.8465C22.4422 13.2526 22.8953 12.6709 22.9964 12.2043C22.9978 12.1981 22.9984 12.1919 22.9985 12.1855C22.9995 12.1237 23 12.0617 23 11.9996C23 11.9377 22.9995 11.8759 22.9985 11.8142C22.9984 11.8078 22.9978 11.8016 22.9964 11.7954C22.8953 11.3288 22.4423 10.747 21.3814 10.1532C20.4788 9.64796 19.2655 9.21236 17.8305 8.88919C17.7637 8.87415 17.7023 8.92985 17.7096 8.99828C17.8124 9.96385 17.8663 10.9696 17.8663 11.9999C17.8663 13.0299 17.8124 14.0356 17.7096 15.0014C17.7023 15.0698 17.7637 15.1255 17.8305 15.1105C19.2655 14.7873 20.4788 14.3517 21.3814 13.8465Z" fill="black"/>
<path d="M15.4137 1.50985C15.361 1.42932 15.4378 1.32491 15.5284 1.35625C18.9304 2.53207 21.5859 5.36124 22.578 8.90723C22.6028 8.99593 22.5043 9.06754 22.4263 9.01925C22.3229 8.95525 22.2174 8.89327 22.1103 8.8333C20.9283 8.17162 19.3539 7.64095 17.5344 7.28423C17.4937 7.27625 17.4619 7.24378 17.4546 7.20276C17.0541 4.97188 16.3784 3.04359 15.503 1.64917C15.4736 1.60231 15.4439 1.55587 15.4137 1.50985Z" fill="black"/>
</svg>
