<svg width="24" height="24" viewBox="0 0 24 24" fill="none" xmlns="http://www.w3.org/2000/svg">
<path fill-rule="evenodd" clip-rule="evenodd" d="M7 2C7 1.44772 7.44772 1 8 1H16C16.5523 1 17 1.44772 17 2V10C17 10.5523 16.5523 11 16 11H8C7.44772 11 7 10.5523 7 10V2ZM12.4685 2.41435C12.1946 2.19522 11.8054 2.19522 11.5315 2.41435L9.03148 4.41435C8.70803 4.67311 8.65559 5.14507 8.91435 5.46852C9.17311 5.79197 9.64507 5.84441 9.96852 5.58565L11.25 4.56047V9C11.25 9.41421 11.5858 9.75 12 9.75C12.4142 9.75 12.75 9.41421 12.75 9V4.56047L14.0315 5.58565C14.3549 5.84441 14.8269 5.79197 15.0857 5.46852C15.3444 5.14507 15.292 4.67311 14.9685 4.41435L12.4685 2.41435Z" fill="black"/>
<path fill-rule="evenodd" clip-rule="evenodd" d="M13 14C13 13.4477 13.4477 13 14 13H22C22.5523 13 23 13.4477 23 14V22C23 22.5523 22.5523 23 22 23H14C13.4477 23 13 22.5523 13 22V14ZM19.5857 15.0315C19.3269 14.708 18.8549 14.6556 18.5315 14.9143C18.208 15.1731 18.1556 15.6451 18.4143 15.9685L19.4395 17.25H15C14.5858 17.25 14.25 17.5858 14.25 18C14.25 18.4142 14.5858 18.75 15 18.75H19.4395L18.4143 20.0315C18.1556 20.3549 18.208 20.8269 18.5315 21.0857C18.8549 21.3444 19.3269 21.292 19.5857 20.9685L21.5857 18.4685C21.8048 18.1946 21.8048 17.8054 21.5857 17.5315L19.5857 15.0315Z" fill="black"/>
<path fill-rule="evenodd" clip-rule="evenodd" d="M2 13C1.44772 13 1 13.4477 1 14V22C1 22.5523 1.44772 23 2 23H10C10.5523 23 11 22.5523 11 22V14C11 13.4477 10.5523 13 10 13H2ZM5.58565 15.9685C5.84441 15.6451 5.79197 15.1731 5.46852 14.9143C5.14507 14.6556 4.67311 14.708 4.41435 15.0315L2.41435 17.5315C2.19522 17.8054 2.19522 18.1946 2.41435 18.4685L4.41435 20.9685C4.67311 21.292 5.14507 21.3444 5.46852 21.0857C5.79197 20.8269 5.84441 20.3549 5.58565 20.0315L4.56047 18.75H9C9.41421 18.75 9.75 18.4142 9.75 18C9.75 17.5858 9.41421 17.25 9 17.25H4.56047L5.58565 15.9685Z" fill="black"/>
</svg>
