<svg width="24" height="24" viewBox="0 0 24 24" fill="none" xmlns="http://www.w3.org/2000/svg">
<path d="M8.06818 6.90909V7.96818C8.06818 8.02341 8.02341 8.06818 7.96818 8.06818H6.90909C6.26894 8.06818 5.75 7.54924 5.75 6.90909C5.75 6.26894 6.26894 5.75 6.90909 5.75C7.54924 5.75 8.06818 6.26894 8.06818 6.90909Z" fill="black"/>
<path d="M9.66818 14.4318C9.61295 14.4318 9.56818 14.387 9.56818 14.3318V9.66818C9.56818 9.61295 9.61295 9.56818 9.66818 9.56818H14.3318C14.387 9.56818 14.4318 9.61295 14.4318 9.66818V14.3318C14.4318 14.387 14.387 14.4318 14.3318 14.4318H9.66818Z" fill="black"/>
<path d="M6.90909 15.9318H7.96818C8.02341 15.9318 8.06818 15.9766 8.06818 16.0318V17.0909C8.06818 17.7311 7.54924 18.25 6.90909 18.25C6.26894 18.25 5.75 17.7311 5.75 17.0909C5.75 16.4508 6.26894 15.9318 6.90909 15.9318Z" fill="black"/>
<path d="M15.9318 17.0909V16.0318C15.9318 15.9766 15.9766 15.9318 16.0318 15.9318H17.0909C17.7311 15.9318 18.25 16.4508 18.25 17.0909C18.25 17.7311 17.7311 18.25 17.0909 18.25C16.4508 18.25 15.9318 17.7311 15.9318 17.0909Z" fill="black"/>
<path d="M17.0909 8.06818H16.0318C15.9766 8.06818 15.9318 8.02341 15.9318 7.96818V6.90909C15.9318 6.26894 16.4508 5.75 17.0909 5.75C17.7311 5.75 18.25 6.26894 18.25 6.90909C18.25 7.54924 17.7311 8.06818 17.0909 8.06818Z" fill="black"/>
<path fill-rule="evenodd" clip-rule="evenodd" d="M2 1C1.44772 1 1 1.44772 1 2V22C1 22.5523 1.44772 23 2 23H22C22.5523 23 23 22.5523 23 22V2C23 1.44772 22.5523 1 22 1H2ZM6.90909 4.25C5.44052 4.25 4.25 5.44052 4.25 6.90909C4.25 8.37767 5.44052 9.56818 6.90909 9.56818H7.96818C8.02341 9.56818 8.06818 9.61295 8.06818 9.66818V14.3318C8.06818 14.387 8.02341 14.4318 7.96818 14.4318H6.90909C5.44052 14.4318 4.25 15.6223 4.25 17.0909C4.25 18.5595 5.44052 19.75 6.90909 19.75C8.37767 19.75 9.56818 18.5595 9.56818 17.0909V16.0318C9.56818 15.9766 9.61295 15.9318 9.66818 15.9318H14.3318C14.387 15.9318 14.4318 15.9766 14.4318 16.0318V17.0909C14.4318 18.5595 15.6223 19.75 17.0909 19.75C18.5595 19.75 19.75 18.5595 19.75 17.0909C19.75 15.6223 18.5595 14.4318 17.0909 14.4318H16.0318C15.9766 14.4318 15.9318 14.387 15.9318 14.3318V9.66818C15.9318 9.61295 15.9766 9.56818 16.0318 9.56818H17.0909C18.5595 9.56818 19.75 8.37767 19.75 6.90909C19.75 5.44052 18.5595 4.25 17.0909 4.25C15.6223 4.25 14.4318 5.44052 14.4318 6.90909V7.96818C14.4318 8.02341 14.387 8.06818 14.3318 8.06818H9.66818C9.61295 8.06818 9.56818 8.02341 9.56818 7.96818V6.90909C9.56818 5.44052 8.37767 4.25 6.90909 4.25Z" fill="black"/>
</svg>
