<svg width="24" height="24" viewBox="0 0 24 24" fill="none" xmlns="http://www.w3.org/2000/svg">
<path d="M11.8339 5.1511C11.9286 5.06691 12.0714 5.06691 12.1661 5.1511L18.5359 10.8131C18.7077 10.9659 18.5997 11.25 18.3698 11.25H16.1C15.6306 11.25 15.25 11.6306 15.25 12.1V19C15.25 19.1381 15.1381 19.25 15 19.25H9C8.86193 19.25 8.75 19.1381 8.75 19V12.1C8.75 11.6306 8.36944 11.25 7.9 11.25H5.6302C5.40032 11.25 5.29229 10.9659 5.46411 10.8131L11.8339 5.1511Z" fill="black"/>
<path fill-rule="evenodd" clip-rule="evenodd" d="M2 1C1.44772 1 1 1.44772 1 2V22C1 22.5523 1.44772 23 2 23H22C22.5523 23 23 22.5523 23 22V2C23 1.44772 22.5523 1 22 1H2ZM13.1626 4.02999C12.4996 3.44061 11.5004 3.44061 10.8374 4.02999L4.46756 9.69203C3.26487 10.7611 4.02104 12.75 5.6302 12.75H7.25V19C7.25 19.9665 8.0335 20.75 9 20.75H15C15.9665 20.75 16.75 19.9665 16.75 19V12.75H18.3698C19.979 12.75 20.7351 10.7611 19.5324 9.69203L13.1626 4.02999Z" fill="black"/>
</svg>
