<svg width="24" height="24" viewBox="0 0 24 24" fill="none" xmlns="http://www.w3.org/2000/svg">
<path fill-rule="evenodd" clip-rule="evenodd" d="M0.75 8.25C1.16421 8.25 1.5 8.58579 1.5 9V19C1.5 19.1381 1.61193 19.25 1.75 19.25H16.75C17.1642 19.25 17.5 19.5858 17.5 20C17.5 20.4142 17.1642 20.75 16.75 20.75H1.75C0.783502 20.75 0 19.9665 0 19V9C0 8.58579 0.335786 8.25 0.75 8.25Z" fill="black"/>
<path d="M4.25 5.25C4.66421 5.25 5 5.58579 5 6V16C5 16.1381 5.11193 16.25 5.25 16.25H20.25C20.6642 16.25 21 16.5858 21 17C21 17.4142 20.6642 17.75 20.25 17.75H5.25C4.2835 17.75 3.5 16.9665 3.5 16V6C3.5 5.58579 3.83579 5.25 4.25 5.25Z" fill="black"/>
<path d="M8.75 2.75C8.05964 2.75 7.5 3.30964 7.5 4V13C7.5 13.6904 8.05964 14.25 8.75 14.25H22.75C23.4404 14.25 24 13.6904 24 13V4C24 3.30964 23.4404 2.75 22.75 2.75H8.75Z" fill="black"/>
</svg>
