<svg width="24" height="24" viewBox="0 0 24 24" fill="none" xmlns="http://www.w3.org/2000/svg">
<path d="M11.5922 1.08624C11.8508 0.971254 12.1461 0.971254 12.4047 1.08624L21.4032 5.08686C22.1948 5.43883 22.1948 6.56242 21.4032 6.91439L12.4047 10.915C12.1461 11.03 11.8508 11.03 11.5922 10.915L2.59375 6.91439C1.80208 6.56242 1.80208 5.43883 2.59375 5.08686L11.5922 1.08624Z" fill="black"/>
<path d="M5.48072 9.83947C5.45486 9.82797 5.42533 9.82797 5.39947 9.83947L2.59375 11.0869C1.80208 11.4388 1.80208 12.5624 2.59375 12.9144L11.5922 16.915C11.8508 17.03 12.1461 17.03 12.4047 16.915L21.4032 12.9144C22.1948 12.5624 22.1948 11.4388 21.4032 11.0869L18.5974 9.83947C18.5716 9.82797 18.5421 9.82797 18.5162 9.83947L13.0141 12.2857C12.3675 12.5731 11.6294 12.5731 10.9828 12.2857L5.48072 9.83947Z" fill="black"/>
<path d="M2.59375 17.0869L5.39947 15.8395C5.42533 15.828 5.45486 15.828 5.48072 15.8395L10.9828 18.2857C11.6294 18.5731 12.3675 18.5731 13.0141 18.2857L18.5162 15.8395C18.5421 15.828 18.5716 15.828 18.5974 15.8395L21.4032 17.0869C22.1948 17.4388 22.1948 18.5624 21.4032 18.9144L12.4047 22.915C12.1461 23.03 11.8508 23.03 11.5922 22.915L2.59375 18.9144C1.80208 18.5624 1.80208 17.4388 2.59375 17.0869Z" fill="black"/>
</svg>
