<svg width="24" height="24" viewBox="0 0 24 24" fill="none" xmlns="http://www.w3.org/2000/svg">
<path fill-rule="evenodd" clip-rule="evenodd" d="M12 0C12.5523 0 13 0.447715 13 1V3C13 3.55228 12.5523 4 12 4C11.4477 4 11 3.55228 11 3V1C11 0.447715 11.4477 0 12 0ZM12 5C12.5523 5 13 5.44772 13 6V8C13 8.55228 12.5523 9 12 9C11.4477 9 11 8.55228 11 8V6C11 5.44772 11.4477 5 12 5ZM12 10C12.5523 10 13 10.4477 13 11V13C13 13.5523 12.5523 14 12 14C11.4477 14 11 13.5523 11 13V11C11 10.4477 11.4477 10 12 10ZM12 15C12.5523 15 13 15.4477 13 16V18C13 18.5523 12.5523 19 12 19C11.4477 19 11 18.5523 11 18V16C11 15.4477 11.4477 15 12 15ZM12 20C12.5523 20 13 20.4477 13 21V23C13 23.5523 12.5523 24 12 24C11.4477 24 11 23.5523 11 23V21C11 20.4477 11.4477 20 12 20Z" fill="black"/>
</svg>
