<svg width="24" height="24" viewBox="0 0 24 24" fill="none" xmlns="http://www.w3.org/2000/svg">
<g clip-path="url(#clip0_1607_6031)">
<path fill-rule="evenodd" clip-rule="evenodd" d="M11.235 4.54931C11.2344 4.5365 11.234 4.52361 11.234 4.51065V0.765957C11.234 0.342931 11.577 0 12 0C12.423 0 12.766 0.342931 12.766 0.765957V4.51065C12.766 4.52361 12.7656 4.5365 12.765 4.54931C16.2904 4.90698 19.0931 7.70967 19.4508 11.235C19.4636 11.2344 19.4764 11.2341 19.4894 11.2341H23.234C23.6571 11.2341 24 11.577 24 12C24 12.423 23.6571 12.766 23.234 12.766H19.4894C19.4764 12.766 19.4636 12.7657 19.4508 12.765C19.0931 16.2904 16.2904 19.0932 12.765 19.4509C12.7656 19.4636 12.7659 19.4765 12.7659 19.4894V23.234C12.7659 23.6571 12.423 24 12 24C11.577 24 11.234 23.6571 11.234 23.234V19.4894C11.234 19.4765 11.2344 19.4636 11.235 19.4509C7.70957 19.0932 4.90682 16.2904 4.5492 12.765C4.53643 12.7656 4.52357 12.766 4.51065 12.766H0.765957C0.342931 12.766 0 12.423 0 12C0 11.577 0.342931 11.234 0.765957 11.234H4.51065C4.52358 11.234 4.53644 11.2344 4.54922 11.235C4.90693 7.70965 7.70964 4.90697 11.235 4.54931ZM12 14.8085C13.5511 14.8085 14.8085 13.5511 14.8085 12C14.8085 10.4489 13.5511 9.19151 12 9.19151C10.4489 9.19151 9.19147 10.4489 9.19147 12C9.19147 13.5511 10.4489 14.8085 12 14.8085Z" fill="black"/>
</g>
<defs>
<clipPath id="clip0_1607_6031">
<rect width="24" height="24" fill="white"/>
</clipPath>
</defs>
</svg>
