<svg width="24" height="24" viewBox="0 0 24 24" fill="none" xmlns="http://www.w3.org/2000/svg">
<path fill-rule="evenodd" clip-rule="evenodd" d="M17 1H7C6.44772 1 6 1.44772 6 2V22C6 22.5523 6.44772 23 7 23H17C17.5523 23 18 22.5523 18 22V2C18 1.44772 17.5523 1 17 1ZM8.75 4C8.75 3.58579 9.08579 3.25 9.5 3.25H14.5C14.9142 3.25 15.25 3.58579 15.25 4C15.25 4.41421 14.9142 4.75 14.5 4.75H9.5C9.08579 4.75 8.75 4.41421 8.75 4ZM12.75 20C12.75 19.5858 12.4142 19.25 12 19.25C11.5858 19.25 11.25 19.5858 11.25 20V20.0318C11.25 20.446 11.5858 20.7818 12 20.7818C12.4142 20.7818 12.75 20.446 12.75 20.0318V20Z" fill="black"/>
</svg>
