<svg width="24" height="24" viewBox="0 0 24 24" fill="none" xmlns="http://www.w3.org/2000/svg">
<path fill-rule="evenodd" clip-rule="evenodd" d="M2 1C1.44772 1 1 1.44772 1 2V22C1 22.5523 1.44772 23 2 23H14.15C14.2052 23 14.25 22.9553 14.25 22.9V15.1C14.25 14.6306 14.6306 14.25 15.1 14.25H22.9C22.9552 14.25 23 14.2052 23 14.15V2C23 1.44772 22.5523 1 22 1H2ZM4.25 6C4.25 5.58579 4.58579 5.25 5 5.25H12C12.4142 5.25 12.75 5.58579 12.75 6C12.75 6.41421 12.4142 6.75 12 6.75H5C4.58579 6.75 4.25 6.41421 4.25 6ZM5 10.25C4.58579 10.25 4.25 10.5858 4.25 11C4.25 11.4142 4.58579 11.75 5 11.75H20C20.4142 11.75 20.75 11.4142 20.75 11C20.75 10.5858 20.4142 10.25 20 10.25H5Z" fill="black"/>
<path d="M22.9602 15.865C22.9775 15.8057 22.9302 15.75 22.8684 15.75H15.85C15.7948 15.75 15.75 15.7948 15.75 15.85V22.8684C15.75 22.9302 15.8057 22.9775 15.865 22.9603C16.0252 22.9137 16.1728 22.8273 16.2929 22.7071L22.7071 16.2929C22.8272 16.1728 22.9136 16.0253 22.9602 15.865Z" fill="black"/>
</svg>
