<svg width="24" height="24" viewBox="0 0 24 24" fill="none" xmlns="http://www.w3.org/2000/svg">
<path d="M2 1C1.44772 1 1 1.44772 1 2V22C1 22.5523 1.44772 23 2 23H14.15C14.2052 23 14.25 22.9553 14.25 22.9V15.1C14.25 14.6306 14.6306 14.25 15.1 14.25H22.9C22.9552 14.25 23 14.2052 23 14.15V2C23 1.44772 22.5523 1 22 1H2Z" fill="black"/>
<path d="M22.9602 15.865C22.9775 15.8057 22.9302 15.75 22.8684 15.75H15.85C15.7948 15.75 15.75 15.7948 15.75 15.85V22.8684C15.75 22.9302 15.8057 22.9775 15.865 22.9603C16.0252 22.9137 16.1728 22.8273 16.2929 22.7071L22.7071 16.2929C22.8272 16.1728 22.9136 16.0253 22.9602 15.865Z" fill="black"/>
</svg>
