<svg width="24" height="24" viewBox="0 0 24 24" fill="none" xmlns="http://www.w3.org/2000/svg">
<g clip-path="url(#clip0_1607_6084)">
<path fill-rule="evenodd" clip-rule="evenodd" d="M20.9209 4.00417C19.487 2.65163 17.1735 2.66769 15.7603 4.03856L1.69627 17.6812C1.29986 18.0658 0.666766 18.0562 0.282224 17.6597C-0.102317 17.2633 -0.0926898 16.6302 0.303727 16.2457L14.3677 2.60301C16.5497 0.48643 20.0816 0.463152 22.2932 2.5493C24.5464 4.67463 24.5724 8.1766 22.3494 10.333L10.4879 21.8391C8.90774 23.372 6.3542 23.3887 4.7528 21.8781C3.11032 20.3288 3.097 17.7696 4.72447 16.2043L13.9675 7.31456C14.9469 6.3726 16.5161 6.3656 17.5044 7.29779C18.542 8.2766 18.5355 9.9035 17.4908 10.8744L10.2758 17.5801C9.87125 17.9561 9.2385 17.933 8.86252 17.5284C8.48653 17.1239 8.50968 16.4911 8.91422 16.1152L16.1293 9.4094C16.3274 9.2253 16.3281 8.93766 16.132 8.75266C15.9193 8.55201 15.564 8.55401 15.3539 8.75605L6.11087 17.6458C5.30758 18.4184 5.31342 19.6575 6.12516 20.4232C6.94884 21.2002 8.28393 21.1907 9.09536 20.4036L20.9568 8.89746C22.3612 7.53513 22.3459 5.34841 20.9209 4.00417Z" fill="black"/>
</g>
<defs>
<clipPath id="clip0_1607_6084">
<rect width="24" height="24" fill="white"/>
</clipPath>
</defs>
</svg>
