<svg width="24" height="24" viewBox="0 0 24 24" fill="none" xmlns="http://www.w3.org/2000/svg">
<path d="M17.7001 1.29289C17.3096 0.902369 16.6764 0.902369 16.2859 1.29289L14.3197 3.25913L20.7397 9.67913L22.7059 7.71289C23.0964 7.32237 23.0964 6.6892 22.7059 6.29868L17.7001 1.29289Z" fill="black"/>
<path d="M19.679 10.7398L13.259 4.31979L4.31967 13.2591L10.7397 19.6791L19.679 10.7398Z" fill="black"/>
<path d="M9.67901 20.7398L3.25901 14.3198L1.57103 16.0078C1.39634 16.1825 1.2925 16.4156 1.27951 16.6623L1.00141 21.9462C0.970204 22.5392 1.4596 23.0286 2.05259 22.9974L7.33648 22.7193C7.58318 22.7063 7.81634 22.6025 7.99102 22.4278L9.67901 20.7398Z" fill="black"/>
</svg>
