<svg width="24" height="24" viewBox="0 0 24 24" fill="none" xmlns="http://www.w3.org/2000/svg">
<path d="M13 1C13 0.447715 12.5523 0 12 0C11.4477 0 11 0.447715 11 1L11 12C11 12.5523 11.4477 13 12 13C12.5523 13 13 12.5523 13 12L13 1Z" fill="black"/>
<path d="M8.00133 4.89514C8.49571 4.64895 8.6969 4.0486 8.4507 3.55422C8.20451 3.05985 7.60416 2.85866 7.10978 3.10486C3.48988 4.90754 1 8.65167 1 12.9792C1 19.0639 5.92291 24 12 24C18.0771 24 23 19.0639 23 12.9792C23 8.65167 20.5101 4.90754 16.8902 3.10486C16.3958 2.85866 15.7955 3.05985 15.5493 3.55422C15.3031 4.0486 15.5043 4.64895 15.9987 4.89514C18.9642 6.37195 21 9.43764 21 12.9792C21 17.9632 16.9686 22 12 22C7.0314 22 3 17.9632 3 12.9792C3 9.43764 5.03582 6.37195 8.00133 4.89514Z" fill="black"/>
</svg>
