<svg width="24" height="24" viewBox="0 0 24 24" fill="none" xmlns="http://www.w3.org/2000/svg">
<path fill-rule="evenodd" clip-rule="evenodd" d="M4.75 2.25C4.75 1.2835 5.5335 0.5 6.5 0.5H17.5C18.4665 0.5 19.25 1.2835 19.25 2.25V4.5H22C22.5523 4.5 23 4.94772 23 5.5V17.5C23 18.0523 22.5523 18.5 22 18.5H17.25V21.75C17.25 22.7165 16.4665 23.5 15.5 23.5H8.5C7.5335 23.5 6.75 22.7165 6.75 21.75V18.5H2C1.44772 18.5 1 18.0523 1 17.5V5.5C1 4.94772 1.44772 4.5 2 4.5H4.75V2.25ZM6.25 4.5H17.75V2.25C17.75 2.11193 17.6381 2 17.5 2H6.5C6.36193 2 6.25 2.11193 6.25 2.25V4.5ZM8.25 15V21.75C8.25 21.8881 8.36193 22 8.5 22H15.5C15.6381 22 15.75 21.8881 15.75 21.75V15H8.25ZM4 9.25C4 8.83579 4.33579 8.5 4.75 8.5H7.25C7.66421 8.5 8 8.83579 8 9.25C8 9.66421 7.66421 10 7.25 10H4.75C4.33579 10 4 9.66421 4 9.25Z" fill="black"/>
</svg>
