<svg width="24" height="24" viewBox="0 0 24 24" fill="none" xmlns="http://www.w3.org/2000/svg">
<path fill-rule="evenodd" clip-rule="evenodd" d="M23 12C23 18.0751 18.0751 23 12 23C5.92487 23 1 18.0751 1 12C1 5.92487 5.92487 1 12 1C18.0751 1 23 5.92487 23 12ZM12.0125 6.75C10.9248 6.75 10.0373 7.64791 10.0373 8.54947C10.0373 8.96369 9.70148 9.29947 9.28726 9.29947C8.87305 9.29947 8.53726 8.96369 8.53726 8.54947C8.53726 6.72578 10.1933 5.25 12.0125 5.25C14.171 5.25 15.7364 6.70357 15.7364 8.54947C15.7364 10.1145 14.6603 10.8766 13.8905 11.347C13.7671 11.4223 13.6558 11.4882 13.5544 11.5483C13.3027 11.6972 13.1122 11.81 12.9509 11.9414C12.7609 12.0962 12.7621 12.161 12.7625 12.181L12.7625 12.1832V14C12.7625 14.4142 12.4267 14.75 12.0125 14.75C11.5983 14.75 11.2625 14.4142 11.2625 14V12.1832C11.2625 11.5189 11.6436 11.0716 12.0035 10.7784C12.2597 10.5697 12.5927 10.373 12.8757 10.2059C12.9586 10.1569 13.0374 10.1104 13.1084 10.067C13.8255 9.62888 14.2364 9.25553 14.2364 8.54947C14.2364 7.67012 13.4878 6.75 12.0125 6.75ZM12.75 17.4683C12.75 17.0541 12.4142 16.7183 12 16.7183C11.5858 16.7183 11.25 17.0541 11.25 17.4683V17.5C11.25 17.9142 11.5858 18.25 12 18.25C12.4142 18.25 12.75 17.9142 12.75 17.5V17.4683Z" fill="black"/>
</svg>
