<svg width="24" height="24" viewBox="0 0 24 24" fill="none" xmlns="http://www.w3.org/2000/svg">
<g clip-path="url(#clip0_1607_6116)">
<path d="M18.4187 10.8768C17.8399 6.89321 14.2432 3.85951 9.96117 4.005C5.38242 4.16057 1.8476 7.88906 2.00514 12.2782C2.16272 16.669 5.9588 20.1506 10.5389 19.995C10.8549 19.9842 11.1657 19.9565 11.4706 19.9127C12.0173 19.8341 12.5241 20.2136 12.6026 20.7603C12.6812 21.3069 12.3017 21.8138 11.755 21.8923C11.3785 21.9464 10.9954 21.9806 10.6068 21.9938C4.97598 22.1851 0.205405 17.8941 0.00642067 12.35C-0.192623 6.80415 4.26108 2.19752 9.89326 2.00616C15.1628 1.82711 19.6789 5.57361 20.3998 10.599L22.3097 8.77655C22.7092 8.39527 23.3422 8.41008 23.7235 8.80963C24.1048 9.20918 24.09 9.84217 23.6904 10.2235L20.5055 13.2627C19.998 13.7471 19.2225 13.8149 18.6386 13.4261L14.9743 10.986C14.5146 10.6799 14.3901 10.0591 14.6962 9.59941C15.0023 9.13972 15.6231 9.01522 16.0828 9.32133L18.4187 10.8768Z" fill="black"/>
</g>
<defs>
<clipPath id="clip0_1607_6116">
<rect width="24" height="24" fill="white"/>
</clipPath>
</defs>
</svg>
