<svg width="24" height="24" viewBox="0 0 24 24" fill="none" xmlns="http://www.w3.org/2000/svg">
<path fill-rule="evenodd" clip-rule="evenodd" d="M23 12C23 18.0751 18.0751 23 12 23C5.92487 23 1 18.0751 1 12C1 5.92487 5.92487 1 12 1C18.0751 1 23 5.92487 23 12ZM15.279 18.0411C15.3261 18.0882 15.3148 18.1673 15.2559 18.1983C14.2833 18.7103 13.1755 19 12 19C8.13401 19 5 15.866 5 12C5 10.8245 5.28974 9.7167 5.80171 8.74408C5.83272 8.68516 5.9118 8.67395 5.95889 8.72103L15.279 18.0411ZM18.1983 15.2559C18.1673 15.3148 18.0882 15.326 18.0411 15.279L8.72105 5.95888C8.67396 5.9118 8.68518 5.83271 8.7441 5.8017C9.71671 5.28974 10.8245 5 12 5C15.866 5 19 8.13401 19 12C19 13.1755 18.7103 14.2833 18.1983 15.2559Z" fill="black"/>
</svg>
