<svg width="24" height="24" viewBox="0 0 24 24" fill="none" xmlns="http://www.w3.org/2000/svg">
<path d="M1.95652 1C1.42825 1 1 1.42825 1 1.95652C1 2.48479 1.42825 2.91304 1.95652 2.91304C12.522 2.91304 21.087 11.478 21.087 22.0435C21.087 22.5718 21.5152 23 22.0435 23C22.5718 23 23 22.5718 23 22.0435C23 10.4215 13.5785 1 1.95652 1Z" fill="black"/>
<path d="M1.95652 6.73913C1.42825 6.73913 1 7.16738 1 7.69565C1 8.22392 1.42825 8.65217 1.95652 8.65217C9.35234 8.65217 15.3478 14.6477 15.3478 22.0435C15.3478 22.5718 15.7761 23 16.3043 23C16.8326 23 17.2609 22.5718 17.2609 22.0435C17.2609 13.5911 10.4089 6.73913 1.95652 6.73913Z" fill="black"/>
<path d="M1.95652 12.4783C1.42825 12.4783 1 12.9065 1 13.4348C1 13.9631 1.42825 14.3913 1.95652 14.3913C6.1827 14.3913 9.6087 17.8173 9.6087 22.0435C9.6087 22.5718 10.0369 23 10.5652 23C11.0935 23 11.5217 22.5718 11.5217 22.0435C11.5217 16.7608 7.23925 12.4783 1.95652 12.4783Z" fill="black"/>
<path d="M3.3913 23C4.71199 23 5.78261 21.9294 5.78261 20.6087C5.78261 19.288 4.71199 18.2174 3.3913 18.2174C2.07062 18.2174 1 19.288 1 20.6087C1 21.9294 2.07062 23 3.3913 23Z" fill="black"/>
</svg>
