<svg width="24" height="24" viewBox="0 0 24 24" fill="none" xmlns="http://www.w3.org/2000/svg">
<path fill-rule="evenodd" clip-rule="evenodd" d="M6.36297 5.16659C6.21877 3.27541 4.4773 1.89117 2.61799 2.33106C-0.131528 2.98155 -0.584136 6.67998 1.78348 8.10331L8.26552 12.0001L1.78348 15.8969C-0.584136 17.3202 -0.131528 21.0187 2.61799 21.6691C4.4773 22.109 6.21877 20.7248 6.36297 18.8336L6.36315 18.8312L6.70154 14.6905L9.36051 13.092L10.2957 15.3577L10.3033 15.3755C11.4009 17.8508 13.5216 19.606 15.9002 20.5281C18.2745 21.4485 20.9691 21.5638 23.2682 20.6832C23.5361 20.5806 23.722 20.3343 23.7471 20.0486C23.7722 19.7629 23.6322 19.4878 23.3864 19.3401L11.1768 12.0001L23.3864 4.66014C23.6322 4.51237 23.7722 4.23733 23.7471 3.95162C23.722 3.66591 23.5361 3.41955 23.2682 3.31696C20.9691 2.43641 18.2745 2.55173 15.9002 3.47211C13.5216 4.39415 11.4009 6.14942 10.3033 8.62466L10.2957 8.64251L9.36051 10.9082L6.70154 9.3097L6.36297 5.16659ZM5.11878 8.3582L2.55633 6.81774C1.27206 6.04568 1.60081 4.11311 2.96333 3.79076C3.86006 3.57861 4.78869 4.23969 4.86741 5.28193L5.11878 8.3582ZM5.11878 15.642L2.55633 17.1825C1.27206 17.9545 1.60081 19.8871 2.96333 20.2094C3.86006 20.4216 4.78869 19.7605 4.86741 18.7183L4.86776 18.7137L5.11878 15.642Z" fill="black"/>
</svg>
