<svg width="24" height="24" viewBox="0 0 24 24" fill="none" xmlns="http://www.w3.org/2000/svg">
<path fill-rule="evenodd" clip-rule="evenodd" d="M15.75 14C14.2312 14 13 15.2312 13 16.75C13 18.2688 14.2312 19.5 15.75 19.5C16.5096 19.5 17.1961 19.193 17.6945 18.6945C18.193 18.1961 18.5 17.5096 18.5 16.75C18.5 15.2312 17.2688 14 15.75 14ZM11.5 16.75C11.5 14.4028 13.4028 12.5 15.75 12.5C18.0972 12.5 20 14.4028 20 16.75C20 17.6524 19.7182 18.4898 19.2386 19.1779L21.7803 21.7197C22.0732 22.0126 22.0732 22.4874 21.7803 22.7803C21.4874 23.0732 21.0126 23.0732 20.7197 22.7803L18.1779 20.2386C17.4898 20.7182 16.6524 21 15.75 21C13.4028 21 11.5 19.0972 11.5 16.75Z" fill="black"/>
<path d="M5 1H11.15C11.2052 1 11.25 1.04477 11.25 1.1V6C11.25 6.9665 12.0335 7.75 13 7.75H17.9C17.9552 7.75 18 7.79477 18 7.85V11.3056C18 11.3773 17.9268 11.4258 17.8601 11.3995C17.2068 11.1417 16.4949 11 15.75 11C12.5744 11 10 13.5744 10 16.75C10 17.4949 10.1417 18.2068 10.3995 18.8601C10.4258 18.9268 10.3773 19 10.3056 19H5C4.44772 19 4 18.5523 4 18V2C4 1.44772 4.44772 1 5 1Z" fill="black"/>
<path d="M17.7071 5.70711C17.8272 5.82722 17.9136 5.97475 17.9602 6.13499C17.9775 6.19432 17.9302 6.25 17.8684 6.25H13C12.8619 6.25 12.75 6.13807 12.75 6V1.13159C12.75 1.06981 12.8057 1.02252 12.865 1.03977C13.0252 1.08637 13.1728 1.17278 13.2929 1.29289L17.7071 5.70711Z" fill="black"/>
</svg>
