<svg width="24" height="24" viewBox="0 0 24 24" fill="none" xmlns="http://www.w3.org/2000/svg">
<g clip-path="url(#clip0_1607_6148)">
<path fill-rule="evenodd" clip-rule="evenodd" d="M10 2C5.58172 2 2 5.58172 2 10C2 14.4183 5.58172 18 10 18C12.2094 18 14.208 17.1057 15.6569 15.6569C17.1057 14.208 18 12.2094 18 10C18 5.58172 14.4183 2 10 2ZM0 10C-2.38419e-07 4.47715 4.47715 2.38419e-07 10 0C15.5228 -2.38419e-07 20 4.47715 20 10C20 12.4009 19.1529 14.6053 17.7429 16.3287L23.7071 22.2931C24.0976 22.6836 24.0976 23.3168 23.7071 23.7073C23.3166 24.0978 22.6834 24.0978 22.2929 23.7073L16.3287 17.7429C14.6053 19.1529 12.4009 20 10 20C4.47715 20 2.38419e-07 15.5228 0 10Z" fill="black"/>
</g>
<defs>
<clipPath id="clip0_1607_6148">
<rect width="24" height="24" fill="white"/>
</clipPath>
</defs>
</svg>
