<svg width="24" height="24" viewBox="0 0 24 24" fill="none" xmlns="http://www.w3.org/2000/svg">
<path d="M10.1129 1C9.25309 1 8.55605 1.69704 8.55605 2.55689V12.6284C8.55605 12.8802 8.43864 13.1175 8.23855 13.2703C7.90699 13.5235 7.43719 13.4824 7.15452 13.1756L6.58209 12.5544C5.75354 11.6551 4.40538 11.4995 3.38312 12.1851C3.00971 12.4355 2.88984 12.938 3.11015 13.3292L6.19901 18.8148C6.4715 19.2987 6.7874 19.7478 7.14015 20.1582C8.61062 21.9394 10.815 23 13.1723 23L13.2403 22.9997L13.309 23C13.3508 23 13.3923 22.9986 13.4336 22.9957C17.6329 22.8579 20.9949 19.4103 20.9949 15.1775V13.2136C21.0007 13.1591 21.0036 13.1036 21.0036 13.0475V10.5569C21.0036 9.69704 20.3066 9 19.4467 9C18.6377 9 17.9729 9.61703 17.897 10.4062V9.56053C17.897 8.69867 17.1984 8 16.3365 8C15.5259 8 14.8596 8.61807 14.7833 9.40867V8.55689C14.7833 7.69704 14.0862 7 13.2264 7C12.3776 7 11.6874 7.67924 11.6698 8.52382V2.55689C11.6698 1.69704 10.9728 1 10.1129 1Z" fill="black"/>
</svg>
