<svg width="24" height="24" viewBox="0 0 24 24" fill="none" xmlns="http://www.w3.org/2000/svg">
<path d="M4.75 22.25C4.75 22.6642 4.41421 23 4 23C3.58579 23 3.25 22.6642 3.25 22.25V20.6555C1.95608 20.3225 1 19.1479 1 17.75C1 16.3521 1.95608 15.1775 3.25 14.8445V1.75C3.25 1.33579 3.58579 1 4 1C4.41421 1 4.75 1.33579 4.75 1.75V14.8445C6.04392 15.1775 7 16.3521 7 17.75C7 19.1479 6.04392 20.3225 4.75 20.6555V22.25Z" fill="black"/>
<path d="M20 23C20.4142 23 20.75 22.6642 20.75 22.25V20.6555C22.0439 20.3225 23 19.1479 23 17.75C23 16.3521 22.0439 15.1775 20.75 14.8445V1.75C20.75 1.33579 20.4142 1 20 1C19.5858 1 19.25 1.33579 19.25 1.75V14.8445C17.9561 15.1775 17 16.3521 17 17.75C17 19.1479 17.9561 20.3225 19.25 20.6555V22.25C19.25 22.6642 19.5858 23 20 23Z" fill="black"/>
<path d="M12.75 1.75C12.75 1.33579 12.4142 1 12 1C11.5858 1 11.25 1.33579 11.25 1.75V3.34452C9.95608 3.67755 9 4.85212 9 6.25C9 7.64788 9.95608 8.82245 11.25 9.15548V22.25C11.25 22.6642 11.5858 23 12 23C12.4142 23 12.75 22.6642 12.75 22.25V9.15548C14.0439 8.82245 15 7.64788 15 6.25C15 4.85212 14.0439 3.67755 12.75 3.34452V1.75Z" fill="black"/>
</svg>
