<svg width="24" height="24" viewBox="0 0 24 24" fill="none" xmlns="http://www.w3.org/2000/svg">
<g clip-path="url(#clip0_1607_6173)">
<path d="M23.9157 18.4024C23.8731 18.4995 23.8143 18.5912 23.7392 18.6735C23.7183 18.6964 23.6964 18.7183 23.6734 18.7392C23.4964 18.9006 23.2612 18.9992 23.003 19C23.002 19 23.001 19 23 19H16C15.4477 19 15 18.5523 15 18C15 17.4477 15.4477 17 16 17H20.5858L14 10.4142L10.4142 14C9.63315 14.781 8.36682 14.781 7.58578 14L0.292893 6.70711C-0.0976311 6.31658 -0.0976311 5.68342 0.292893 5.29289C0.683418 4.90237 1.31658 4.90237 1.70711 5.29289L8.99999 12.5858L12.5858 9C13.3668 8.21895 14.6332 8.21896 15.4142 9L22 15.5858V11C22 10.4477 22.4477 10 23 10C23.5523 10 24 10.4477 24 11V18C24 18.1431 23.9699 18.2793 23.9157 18.4024Z" fill="black"/>
</g>
<defs>
<clipPath id="clip0_1607_6173">
<rect width="24" height="24" fill="white"/>
</clipPath>
</defs>
</svg>
