<svg width="24" height="24" viewBox="0 0 24 24" fill="none" xmlns="http://www.w3.org/2000/svg">
<g clip-path="url(#clip0_1607_6169)">
<path d="M23.9157 5.5976C23.8731 5.50049 23.8143 5.40877 23.7392 5.32654C23.7183 5.30361 23.6964 5.28166 23.6734 5.26076C23.4957 5.09877 23.2594 5 23 5C22.9999 5 23.0001 5 23 5H16C15.4477 5 15 5.44772 15 6C15 6.55228 15.4477 7 16 7H20.5858L14 13.5858L10.4142 10C9.63315 9.21896 8.36682 9.21896 7.58578 10L0.292893 17.2929C-0.0976311 17.6834 -0.0976311 18.3166 0.292893 18.7071C0.683418 19.0976 1.31658 19.0976 1.70711 18.7071L8.99999 11.4142L12.5858 15C13.3668 15.781 14.6332 15.781 15.4142 15L22 8.4142V13C22 13.5523 22.4477 14 23 14C23.5523 14 24 13.5523 24 13V6C24 5.85685 23.9699 5.72072 23.9157 5.5976Z" fill="black"/>
</g>
<defs>
<clipPath id="clip0_1607_6169">
<rect width="24" height="24" fill="white"/>
</clipPath>
</defs>
</svg>
