<svg width="24" height="24" viewBox="0 0 24 24" fill="none" xmlns="http://www.w3.org/2000/svg">
<path fill-rule="evenodd" clip-rule="evenodd" d="M6.26772 2.5C6.38903 1.65193 7.11838 1 8 1H11C11.8816 1 12.611 1.65193 12.7323 2.5H13C13.8816 2.5 14.611 3.15193 14.7323 4H16C16.5523 4 17 4.44772 17 5V9.89604C16.6031 9.81754 16.1947 9.76958 15.7771 9.75486C12.7351 9.64759 10.0615 11.3271 8.72206 13.8408C7.93333 13.5742 7.02665 13.7576 6.40133 14.389C5.52691 15.2719 5.5338 16.6965 6.41672 17.5709L8.29211 19.4283C8.40155 19.5367 8.51938 19.6338 8.6439 19.7192C8.53017 20.1324 8.53386 20.5775 8.66896 21H3C2.44772 21 2 20.5523 2 20V5C2 4.44772 2.44772 4 3 4H4.26772C4.38903 3.15193 5.11838 2.5 6 2.5H6.26772ZM8 2.5C7.86193 2.5 7.75 2.61193 7.75 2.75C7.75 3.44036 7.19036 4 6.5 4H6C5.86193 4 5.75 4.11193 5.75 4.25V5.25C5.75 5.38807 5.86193 5.5 6 5.5H13C13.1381 5.5 13.25 5.38807 13.25 5.25V4.25C13.25 4.11193 13.1381 4 13 4H12.5C11.8096 4 11.25 3.44036 11.25 2.75C11.25 2.61193 11.1381 2.5 11 2.5H8Z" fill="black"/>
<path d="M10 18.6611C10.0088 18.6617 10.0176 18.6623 10.0264 18.6628C10.25 18.6741 10.4761 18.6126 10.6682 18.4798L12.8259 16.9887C13.1667 16.7532 13.252 16.2861 13.0165 15.9453C12.781 15.6045 12.3139 15.5192 11.9731 15.7547L10.9189 16.4832C11.3936 14.2785 13.3728 12.6719 15.6714 12.7529C17.3225 12.8112 18.748 13.7245 19.5413 15.0654C19.7522 15.4219 20.2122 15.5399 20.5687 15.329C20.9252 15.1181 21.0432 14.6581 20.8323 14.3016C19.792 12.5432 17.9121 11.331 15.7243 11.2539C12.6221 11.1445 9.98219 13.3511 9.4209 16.3239L8.52776 15.4393C8.23345 15.1479 7.75858 15.1502 7.46711 15.4445C7.18361 15.7307 7.17803 16.1878 7.44876 16.4808C7.45651 16.4892 7.46449 16.4975 7.4727 16.5056L9.34763 18.3625C9.39537 18.4098 9.4469 18.4518 9.5014 18.4883C9.59825 18.5532 9.70447 18.6009 9.81543 18.6301C9.8758 18.6459 9.93758 18.6563 10 18.6611Z" fill="black"/>
<path d="M20.9736 16.3372C20.75 16.3259 20.5239 16.3874 20.3318 16.5202L18.1741 18.0113C17.8333 18.2468 17.748 18.7139 17.9835 19.0547C18.219 19.3955 18.6861 19.4808 19.0269 19.2453L20.0811 18.5168C19.6064 20.7215 17.6272 22.3281 15.3286 22.2471C13.6775 22.1888 12.2519 21.2755 11.4587 19.9346C11.2478 19.5781 10.7878 19.4601 10.4313 19.671C10.0748 19.8819 9.95676 20.3419 10.1677 20.6984C11.208 22.4568 13.0879 23.669 15.2757 23.7461C18.3779 23.8555 21.0178 21.6489 21.5791 18.6761L22.4722 19.5607C22.7665 19.8521 23.2414 19.8498 23.5329 19.5555C23.8244 19.2612 23.8221 18.7863 23.5278 18.4949L21.6524 16.6375C21.4672 16.4541 21.2248 16.35 20.9736 16.3372Z" fill="black"/>
</svg>
