<svg width="24" height="24" viewBox="0 0 24 24" fill="none" xmlns="http://www.w3.org/2000/svg">
<path d="M21.3811 15.943C22.2752 15.943 23 15.2183 23 14.3242C23 13.4359 22.2845 12.7147 21.3984 12.7055C22.2845 12.6962 23 11.975 23 11.0867C23 10.1927 22.2752 9.46789 21.3811 9.46789L21.0402 9.46789C21.8616 9.38787 22.5036 8.6954 22.5036 7.85299C22.5036 6.95684 21.7771 6.23037 20.8809 6.23037L20.0415 6.23037C20.862 6.15154 21.5036 5.46021 21.5036 4.61903C21.5036 3.72497 20.7788 3.0002 19.8847 3.0002L12.6109 3.0002C12.5526 3.0002 12.4949 3.00329 12.4381 3.00932L9.00149 3.00931C8.44928 3.00931 8.00159 3.45692 8.00149 4.00913L7.99996 12.3997C7.99996 12.4195 8.00054 12.4393 8.00167 12.4588L8.00165 15.8775C8.00165 16.0797 8.06216 16.277 8.17524 16.4434L12.351 22.5888C12.5972 22.9511 13.0582 23.0946 13.466 22.9359C14.8829 22.3842 15.6236 20.8062 15.1462 19.3563L14.4192 17.1483C14.2236 16.5544 14.666 15.943 15.2912 15.943L21.3811 15.943Z" fill="black"/>
<path d="M6.50166 15.888L2 15.888C1.44772 15.888 0.999999 15.4403 0.999999 14.888L0.999998 4.19045C0.999998 3.63817 1.44771 3.19046 2 3.19045L6.50178 3.19045L6.50018 11.9997C6.50018 12.0287 6.50067 12.0576 6.50165 12.0863L6.50163 15.8775C6.50163 15.881 6.50164 15.8845 6.50166 15.888Z" fill="black"/>
</svg>
