<svg width="24" height="24" viewBox="0 0 24 24" fill="none" xmlns="http://www.w3.org/2000/svg">
<path d="M21.3811 8.05696C22.2752 8.05696 23 8.78174 23 9.67579C23 10.5641 22.2845 11.2853 21.3984 11.2945C22.2845 11.3038 23 12.025 23 12.9133C23 13.8073 22.2752 14.5321 21.3811 14.5321H21.0402C21.8616 14.6121 22.5036 15.3046 22.5036 16.147C22.5036 17.0432 21.7771 17.7696 20.8809 17.7696H20.0415C20.862 17.8485 21.5036 18.5398 21.5036 19.381C21.5036 20.275 20.7788 20.9998 19.8847 20.9998H12.6109C12.5526 20.9998 12.4949 20.9967 12.4381 20.9907L9.00149 20.9907C8.44928 20.9907 8.00159 20.5431 8.00149 19.9909L7.99997 11.6003C7.99996 11.5805 8.00054 11.5607 8.00167 11.5412L8.00166 8.12254C8.00165 7.92026 8.06216 7.72299 8.17524 7.55657L12.351 1.41122C12.5972 1.04889 13.0582 0.905381 13.466 1.06414C14.8829 1.61576 15.6236 3.19379 15.1462 4.64372L14.4192 6.85167C14.2236 7.44557 14.666 8.05695 15.2912 8.05695L21.3811 8.05696Z" fill="black"/>
<path d="M6.50166 8.112H2C1.44772 8.112 1 8.55972 1 9.112V19.8095C1 20.3618 1.44771 20.8095 2 20.8095L6.50178 20.8095L6.50018 12.0003C6.50018 11.9713 6.50067 11.9424 6.50166 11.9137L6.50163 8.12249C6.50163 8.11899 6.50164 8.1155 6.50166 8.112Z" fill="black"/>
</svg>
