<svg width="24" height="24" viewBox="0 0 24 24" fill="none" xmlns="http://www.w3.org/2000/svg">
<path fill-rule="evenodd" clip-rule="evenodd" d="M7.25 5V4.75C7.25 2.67893 8.92893 1 11 1H13C15.0711 1 16.75 2.67893 16.75 4.75V5L22.25 5C22.6642 5 23 5.33579 23 5.75C23 6.16422 22.6642 6.5 22.25 6.5H20.3334L18.6 22.1104C18.5437 22.6169 18.1096 23 17.6 23H6.4C5.89045 23 5.45627 22.6169 5.4 22.1104L3.66657 6.5H1.75C1.33579 6.5 1 6.16421 1 5.75C1 5.33579 1.33579 5 1.75 5L7.25 5ZM8.75 4.75C8.75 3.50736 9.75736 2.5 11 2.5H13C14.2426 2.5 15.25 3.50736 15.25 4.75V5H8.75V4.75ZM10 9.25C10.4142 9.25 10.75 9.58579 10.75 10V18C10.75 18.4142 10.4142 18.75 10 18.75C9.58579 18.75 9.25 18.4142 9.25 18V10C9.25 9.58579 9.58579 9.25 10 9.25ZM14 9.25C14.4142 9.25 14.75 9.58579 14.75 10V18C14.75 18.4142 14.4142 18.75 14 18.75C13.5858 18.75 13.25 18.4142 13.25 18V10C13.25 9.58579 13.5858 9.25 14 9.25Z" fill="black"/>
</svg>
