<svg width="24" height="24" viewBox="0 0 24 24" fill="none" xmlns="http://www.w3.org/2000/svg">
<g clip-path="url(#clip0_1607_6217)">
<path d="M5.58131 10.8768C6.16011 6.89321 9.75684 3.85951 14.0389 4.005C18.6176 4.16057 22.1524 7.88906 21.9949 12.2782C21.8373 16.669 18.0412 20.1506 13.4611 19.995C13.1451 19.9842 12.8343 19.9565 12.5294 19.9127C11.9828 19.8341 11.4759 20.2136 11.3974 20.7603C11.3188 21.3069 11.6983 21.8138 12.245 21.8923C12.6215 21.9464 13.0047 21.9806 13.3932 21.9938C19.0241 22.1851 23.7946 17.8941 23.9936 12.35C24.1927 6.80415 19.7389 2.19752 14.1068 2.00616C8.83728 1.82711 4.32118 5.57361 3.60019 10.599L1.69038 8.77655C1.29083 8.39527 0.657834 8.41008 0.27655 8.80963C-0.104734 9.20918 -0.0899247 9.84217 0.309627 10.2235L3.49451 13.2627C4.00205 13.7471 4.77752 13.8149 5.36146 13.4261L9.02572 10.986C9.48541 10.6799 9.60991 10.0591 9.30381 9.59941C8.9977 9.13972 8.37689 9.01522 7.9172 9.32133L5.58131 10.8768Z" fill="black"/>
</g>
<defs>
<clipPath id="clip0_1607_6217">
<rect width="24" height="24" fill="white"/>
</clipPath>
</defs>
</svg>
