<svg width="24" height="24" viewBox="0 0 24 24" fill="none" xmlns="http://www.w3.org/2000/svg">
<path fill-rule="evenodd" clip-rule="evenodd" d="M12 23C5.92487 23 1 18.0751 1 12C1 5.92487 5.92487 1 12 1C18.0751 1 23 5.92487 23 12C23 18.0751 18.0751 23 12 23ZM16.25 12C16.25 9.65279 14.3472 7.75 12 7.75C9.88061 7.75 8.12355 9.30135 7.80244 11.3304L8.63476 10.8664C8.99654 10.6647 9.45334 10.7944 9.65506 11.1562C9.85677 11.518 9.72702 11.9748 9.36524 12.1765L7.48705 13.2237C7.10865 13.4347 6.63654 13.3716 6.32677 13.0688L4.75945 11.5363C4.46328 11.2467 4.45794 10.7718 4.74753 10.4757C5.03711 10.1795 5.51196 10.1742 5.80812 10.4637L6.33959 10.9834C6.81961 8.29265 9.17126 6.25 12 6.25C15.1756 6.25 17.75 8.82436 17.75 12C17.75 15.1756 15.1756 17.75 12 17.75C11.5858 17.75 11.25 17.4142 11.25 17C11.25 16.5858 11.5858 16.25 12 16.25C14.3472 16.25 16.25 14.3472 16.25 12Z" fill="black"/>
</svg>
