<svg width="24" height="24" viewBox="0 0 24 24" fill="none" xmlns="http://www.w3.org/2000/svg">
<path d="M17.9999 1.75C16.3107 1.75 14.7466 2.38285 13.4886 3.46364C13.1744 3.73357 12.7009 3.6977 12.431 3.38352C12.1611 3.06934 12.1969 2.59582 12.5111 2.32589C14.0184 1.03084 15.9232 0.25 17.9999 0.25C20.0767 0.25 21.9814 1.03084 23.4887 2.32588C23.8029 2.59581 23.8388 3.06933 23.5689 3.38351C23.2989 3.69769 22.8254 3.73356 22.5112 3.46363C21.2533 2.38285 19.6892 1.75 17.9999 1.75Z" fill="black"/>
<path d="M17.9999 4.02252C16.8332 4.02252 15.7464 4.47939 14.8675 5.27173C14.5598 5.54908 14.0856 5.52451 13.8082 5.21686C13.5309 4.90921 13.5554 4.43497 13.8631 4.15762C14.9889 3.14266 16.4254 2.52252 17.9999 2.52252C19.5745 2.52252 21.0109 3.14266 22.1368 4.15761C22.4444 4.43496 22.469 4.90919 22.1916 5.21685C21.9143 5.5245 21.4401 5.54907 21.1324 5.27172C20.2535 4.47939 19.1667 4.02252 17.9999 4.02252Z" fill="black"/>
<path d="M17.9999 6.29505C17.3697 6.29505 16.7652 6.5657 16.2626 7.06741C15.9694 7.36005 15.4945 7.35963 15.2019 7.06648C14.9093 6.77333 14.9097 6.29845 15.2028 6.00582C15.9436 5.26638 16.9153 4.79505 17.9999 4.79505C19.0845 4.79505 20.0563 5.26637 20.797 6.0058C21.0902 6.29844 21.0906 6.77331 20.798 7.06646C20.5053 7.35962 20.0304 7.36004 19.7373 7.0674C19.2347 6.5657 18.6302 6.29505 17.9999 6.29505Z" fill="black"/>
<path d="M12.8637 8.68182C12.8637 10.7152 11.2153 12.3636 9.18191 12.3636C7.14849 12.3636 5.50009 10.7152 5.50009 8.68182C5.50009 6.64841 7.14849 5 9.18191 5C11.2153 5 12.8637 6.64841 12.8637 8.68182Z" fill="black"/>
<path d="M9.18191 14.8182C4.69064 14.8182 1.0446 18.437 1.00049 22.9178C1.00005 22.963 1.03672 23 1.08191 23H17.2819C17.3271 23 17.3638 22.963 17.3633 22.9178C17.3192 18.437 13.6732 14.8182 9.18191 14.8182Z" fill="black"/>
<path d="M18 10C18.5523 10 19 9.55229 19 9C19 8.44771 18.5523 8 18 8C17.4477 8 17 8.44771 17 9C17 9.55229 17.4477 10 18 10Z" fill="black"/>
</svg>
