<svg width="24" height="24" viewBox="0 0 24 24" fill="none" xmlns="http://www.w3.org/2000/svg">
<path d="M12 1.75C6.33908 1.75 1.75 6.33908 1.75 12C1.75 14.6176 2.7302 17.0044 4.34473 18.8163C4.6203 19.1255 4.59299 19.5996 4.28374 19.8752C3.9745 20.1508 3.50041 20.1234 3.22484 19.8142C1.37496 17.7382 0.25 14.9996 0.25 12C0.25 5.51065 5.51065 0.25 12 0.25C18.4893 0.25 23.75 5.51065 23.75 12C23.75 14.9996 22.625 17.7382 20.7752 19.8142C20.4996 20.1234 20.0255 20.1508 19.7163 19.8752C19.407 19.5996 19.3797 19.1255 19.6553 18.8163C21.2698 17.0044 22.25 14.6176 22.25 12C22.25 6.33908 17.6609 1.75 12 1.75Z" fill="black"/>
<path d="M12 5.75C8.57798 5.75 5.75 8.65408 5.75 12.3043C5.75 13.7933 6.22257 15.1618 7.01558 16.259C7.25821 16.5947 7.18276 17.0636 6.84705 17.3062C6.51134 17.5489 6.0425 17.4734 5.79987 17.1377C4.82538 15.7894 4.25 14.1144 4.25 12.3043C4.25 7.88646 7.69003 4.25 12 4.25C16.31 4.25 19.75 7.88646 19.75 12.3043C19.75 14.1144 19.1746 15.7894 18.2001 17.1377C17.9575 17.4734 17.4887 17.5489 17.1529 17.3062C16.8172 17.0636 16.7418 16.5947 16.9844 16.259C17.7774 15.1618 18.25 13.7933 18.25 12.3043C18.25 8.65408 15.422 5.75 12 5.75Z" fill="black"/>
<path d="M15 12C15 13.6569 13.6569 15 12 15C10.3431 15 9 13.6569 9 12C9 10.3431 10.3431 9 12 9C13.6569 9 15 10.3431 15 12Z" fill="black"/>
<path d="M6.59998 22.8624V22.9723C6.59998 22.9876 6.61231 22.9999 6.62753 22.9999H17.3724C17.3876 22.9999 17.4 22.9876 17.4 22.9723V22.8624C17.4 19.8801 14.9823 17.4624 12 17.4624C9.01764 17.4624 6.59998 19.8801 6.59998 22.8624Z" fill="black"/>
</svg>
