<svg width="24" height="24" viewBox="0 0 24 24" fill="none" xmlns="http://www.w3.org/2000/svg">
<path fill-rule="evenodd" clip-rule="evenodd" d="M12 23C18.0751 23 23 18.0751 23 12C23 5.92487 18.0751 1 12 1C5.92487 1 1 5.92487 1 12C1 18.0751 5.92487 23 12 23ZM12 6.25C12.4142 6.25 12.75 6.58579 12.75 7V14C12.75 14.4142 12.4142 14.75 12 14.75C11.5858 14.75 11.25 14.4142 11.25 14V7C11.25 6.58579 11.5858 6.25 12 6.25ZM12.75 17C12.75 16.5858 12.4142 16.2501 12 16.2501C11.5858 16.2501 11.25 16.5858 11.25 17V17.0318C11.25 17.446 11.5858 17.7818 12 17.7818C12.4142 17.7818 12.75 17.446 12.75 17.0318V17Z" fill="black"/>
</svg>
