<svg width="24" height="24" viewBox="0 0 24 24" fill="none" xmlns="http://www.w3.org/2000/svg">
<path d="M9.75 9.5C9.75 8.25736 10.7574 7.25 12 7.25C13.2426 7.25 14.25 8.25736 14.25 9.5C14.25 10.7426 13.2426 11.75 12 11.75C10.7574 11.75 9.75 10.7426 9.75 9.5Z" fill="black"/>
<path fill-rule="evenodd" clip-rule="evenodd" d="M7 3C3.68629 3 1 5.68629 1 9C1 12.3137 3.68629 15 7 15H8.95896L7.45896 19.5H5C4.58579 19.5 4.25 19.8358 4.25 20.25C4.25 20.6642 4.58579 21 5 21H19C19.4142 21 19.75 20.6642 19.75 20.25C19.75 19.8358 19.4142 19.5 19 19.5H16.5409L15.0409 15H17C20.3137 15 23 12.3137 23 9C23 5.68629 20.3137 3 17 3H7ZM13.4598 15H10.5401L9.0401 19.5H14.9598L13.4598 15ZM12 5.75C9.92893 5.75 8.25 7.42893 8.25 9.5C8.25 11.5711 9.92893 13.25 12 13.25C14.0711 13.25 15.75 11.5711 15.75 9.5C15.75 7.42893 14.0711 5.75 12 5.75ZM4.25 6C4.25 5.58579 4.58579 5.25 5 5.25H7C7.41421 5.25 7.75 5.58579 7.75 6C7.75 6.41421 7.41421 6.75 7 6.75H5C4.58579 6.75 4.25 6.41421 4.25 6Z" fill="black"/>
</svg>
