<svg width="24" height="24" viewBox="0 0 24 24" fill="none" xmlns="http://www.w3.org/2000/svg">
<path d="M2.86327 5.6917C2.12665 6.16051 1.42259 6.68402 0.755673 7.25701C0.448207 7.52118 0.413105 7.98458 0.677269 8.29204C0.941433 8.59951 1.40483 8.63461 1.7123 8.37045C2.41054 7.77053 3.15143 7.23064 3.92886 6.75729L2.86327 5.6917Z" fill="black"/>
<path d="M6.43794 9.26637C5.44812 9.78131 4.52384 10.4287 3.68249 11.1872C3.38141 11.4586 3.35736 11.9227 3.62879 12.2238C3.90021 12.5249 4.36431 12.5489 4.66539 12.2775C5.53648 11.4922 6.5004 10.8453 7.5336 10.362L6.43794 9.26637Z" fill="black"/>
<path d="M12.1913 9.36283L10.7836 7.95522C11.1841 7.91415 11.5898 7.89315 12 7.89315C15.1508 7.89315 18.0384 9.13252 20.3175 11.1872C20.6186 11.4586 20.6426 11.9227 20.3712 12.2238C20.0998 12.5248 19.6357 12.5489 19.3346 12.2775C17.3444 10.4833 14.8696 9.41161 12.1913 9.36283Z" fill="black"/>
<path d="M10.192 13.0204L11.4525 14.2809C10.0361 14.4196 8.7204 15.093 7.63679 16.1747C7.3499 16.4611 6.88518 16.4607 6.5988 16.1738C6.31242 15.8869 6.31283 15.4222 6.59972 15.1358C7.6172 14.1201 8.84079 13.3761 10.192 13.0204Z" fill="black"/>
<path d="M7.86558 5.03715L6.69115 3.86272C8.37058 3.30203 10.1528 3 12 3C16.244 3 20.1452 4.59437 23.2443 7.257C23.5518 7.52116 23.5869 7.98456 23.3227 8.29203C23.0586 8.59949 22.5952 8.6346 22.2877 8.37043C19.4327 5.91749 15.8649 4.46794 12 4.46794C10.5745 4.46794 9.18941 4.66514 7.86558 5.03715Z" fill="black"/>
<path d="M12 21.5C13.1046 21.5 14 20.6046 14 19.5C14 18.3954 13.1046 17.5 12 17.5C10.8954 17.5 10 18.3954 10 19.5C10 20.6046 10.8954 21.5 12 21.5Z" fill="black"/>
<path fill-rule="evenodd" clip-rule="evenodd" d="M1.21967 1.21967C1.51256 0.926777 1.98744 0.926777 2.28033 1.21967L22.7803 21.7197C23.0732 22.0126 23.0732 22.4874 22.7803 22.7803C22.4874 23.0732 22.0126 23.0732 21.7197 22.7803L1.21967 2.28033C0.926777 1.98744 0.926777 1.51256 1.21967 1.21967Z" fill="black"/>
</svg>
