<svg width="24" height="24" viewBox="0 0 24 24" fill="none" xmlns="http://www.w3.org/2000/svg">
<path fill-rule="evenodd" clip-rule="evenodd" d="M12 4.46794C8.13516 4.46794 4.56733 5.9175 1.7123 8.37045C1.40483 8.63461 0.941433 8.59951 0.677269 8.29204C0.413105 7.98458 0.448207 7.52118 0.755673 7.25701C3.85477 4.59438 7.75598 3 12 3C16.244 3 20.1452 4.59437 23.2443 7.257C23.5518 7.52116 23.5869 7.98456 23.3227 8.29203C23.0586 8.59949 22.5952 8.6346 22.2877 8.37043C19.4327 5.91749 15.8649 4.46794 12 4.46794ZM12 9.36109C9.24831 9.36109 6.70288 10.4407 4.66539 12.2775C4.36431 12.5489 3.90021 12.5249 3.62879 12.2238C3.35736 11.9227 3.38141 11.4586 3.68249 11.1872C5.96163 9.13253 8.84924 7.89315 12 7.89315C15.1508 7.89315 18.0384 9.13252 20.3175 11.1872C20.6186 11.4586 20.6426 11.9227 20.3712 12.2238C20.0998 12.5248 19.6357 12.5489 19.3346 12.2775C17.2971 10.4407 14.7517 9.36109 12 9.36109ZM12 14.2542C10.3761 14.2542 8.85883 14.9549 7.63679 16.1747C7.3499 16.4611 6.88518 16.4607 6.5988 16.1738C6.31242 15.8869 6.31283 15.4222 6.59972 15.1358C8.05482 13.6833 9.93146 12.7863 12 12.7863C14.0685 12.7863 15.9452 13.6833 17.4003 15.1358C17.6872 15.4222 17.6876 15.8869 17.4012 16.1738C17.1148 16.4607 16.6501 16.4611 16.3632 16.1747C15.1412 14.9548 13.6239 14.2542 12 14.2542Z" fill="black"/>
<path d="M14 19.5C14 20.6046 13.1046 21.5 12 21.5C10.8954 21.5 10 20.6046 10 19.5C10 18.3954 10.8954 17.5 12 17.5C13.1046 17.5 14 18.3954 14 19.5Z" fill="black"/>
</svg>
