<svg width="24" height="24" viewBox="0 0 24 24" fill="none" xmlns="http://www.w3.org/2000/svg">
<path d="M9.69184 1C8.64113 1 7.78936 1.85177 7.78936 2.90249V3.75H11.5943V2.90249C11.5943 1.85177 10.7426 1 9.69184 1Z" fill="black"/>
<path d="M7.78936 6.67756L11.4593 5.25H7.78936V6.67756Z" fill="black"/>
<path d="M11.5943 6.80698L7.88461 8.25H11.5943V6.80698Z" fill="black"/>
<path d="M7.78936 15.2096V9.75H11.5943V10.1939C11.6158 9.16188 12.4592 8.33186 13.4964 8.33186C14.5471 8.33186 15.3989 9.18363 15.3989 10.2343V11.2752C15.4922 10.3092 16.3064 9.55384 17.2969 9.55384C18.3501 9.55384 19.2038 10.4076 19.2038 11.4608V12.4941C19.2965 11.5298 20.1089 10.7758 21.0975 10.7758C22.1482 10.7758 23 11.6276 23 12.6783V15.7218C23 15.7904 22.9964 15.8581 22.9893 15.9248V21.9956C22.9893 22.5479 22.5416 22.9956 21.9893 22.9956H5.84419C5.49234 22.9956 5.16639 22.8107 4.98586 22.5087L1.1346 16.066C0.865386 15.5879 1.01186 14.9739 1.46816 14.6679C2.71734 13.8301 4.36476 14.0203 5.37723 15.1191L6.07673 15.8783C6.42214 16.2532 6.99623 16.3034 7.40139 15.994C7.6459 15.8073 7.78936 15.5173 7.78936 15.2096Z" fill="black"/>
</svg>
