<svg width="24" height="24" viewBox="0 0 24 24" fill="none" xmlns="http://www.w3.org/2000/svg">
<path d="M9.24854 1.04496C9.27335 0.631491 8.95829 0.276189 8.54482 0.251371C8.13135 0.226553 7.77605 0.541618 7.75123 0.955087L7.62444 3.06753C7.59266 3.59689 8.04807 4.02579 8.57458 3.96236L9.96607 3.79471L9.72165 5.49115C9.66258 5.90113 9.94705 6.28137 10.357 6.34044C10.767 6.3995 11.1473 6.11503 11.2063 5.70505L11.5717 3.16914C11.6515 2.61554 11.184 2.13712 10.6287 2.20403L9.16841 2.37997L9.24854 1.04496Z" fill="black"/>
<path d="M4.3596 3.33951C4.19691 2.95859 3.75622 2.78167 3.37529 2.94437C2.99437 3.10706 2.81745 3.54775 2.98015 3.92867L3.91496 6.11744C4.12326 6.60514 4.7224 6.78512 5.16497 6.49293L6.18118 5.82203L6.81023 7.29468C6.97294 7.6756 7.41364 7.85249 7.79456 7.68978C8.17547 7.52707 8.35236 7.08637 8.18965 6.70545L7.25467 4.5166C7.04635 4.02892 6.44724 3.84897 6.00468 4.14114L4.9885 4.81202L4.3596 3.33951Z" fill="black"/>
<path d="M6.25537 9.8181L4.69436 9.29003L4.45933 10.9208C4.37504 11.5057 3.73434 11.8283 3.21429 11.5476L0.643662 10.1601C0.279156 9.96331 0.14316 9.50832 0.339905 9.14382C0.536651 8.77931 0.991634 8.64332 1.35614 8.84006L3.10748 9.78536L3.32116 8.30267C3.39697 7.77667 3.93145 7.44844 4.43485 7.61874L6.73604 8.3972C7.12841 8.52994 7.33889 8.95562 7.20615 9.34799C7.07342 9.74036 6.64774 9.95084 6.25537 9.8181Z" fill="black"/>
<path d="M14.2499 7.53552C13.8667 7.20198 13.366 7.00002 12.8181 7.00002C11.6466 7.00002 10.6908 7.92325 10.6385 9.0818C10.636 9.13698 10.5913 9.18167 10.5361 9.18353C10.0172 9.20109 9.53272 9.35456 9.11721 9.60946C9.1152 9.6296 9.11388 9.6524 9.11359 9.67803C9.11152 9.86519 9.16474 10.044 9.16792 10.0546L9.1713 10.0651L9.17529 10.0789L9.17908 10.0924C9.28018 10.4677 9.66617 10.6903 10.0417 10.5897C10.4418 10.4824 10.8531 10.7199 10.9603 11.12C11.0675 11.5201 10.83 11.9313 10.4299 12.0385C9.43826 12.3043 8.42328 11.8497 7.94047 10.9955C7.80294 11.3336 7.72717 11.7034 7.72717 12.0909C7.72717 12.4555 7.79425 12.8045 7.91673 13.1261C7.93352 13.1702 7.91864 13.2202 7.8808 13.2483C7.34621 13.646 6.9999 14.2826 6.9999 15C6.9999 15.7175 7.34621 16.3541 7.8808 16.7517C7.91864 16.7799 7.93352 16.8299 7.91673 16.874C7.79425 17.1956 7.72717 17.5445 7.72717 17.9091C7.72717 18.5611 7.94169 19.1631 8.30399 19.6482C8.63378 18.4937 9.83001 17.813 10.9941 18.125C11.3942 18.2322 11.6317 18.6434 11.5245 19.0435C11.4173 19.4436 11.006 19.6811 10.6059 19.5738C10.2304 19.4732 9.84447 19.6958 9.74331 20.0709L9.7396 20.0842L9.73452 20.1018L9.72995 20.1155C9.729 20.1184 9.70263 20.1994 9.67614 20.3229C9.6559 20.4172 9.6377 20.5267 9.62872 20.639C9.91294 20.7439 10.218 20.8057 10.5361 20.8165C10.5913 20.8184 10.636 20.8631 10.6385 20.9182C10.6908 22.0768 11.6466 23 12.8181 23C13.366 23 13.8667 22.7981 14.2499 22.4645V15.8746C13.8095 15.9062 13.355 15.8378 12.9206 15.6564C12.7191 15.5722 12.532 15.468 12.3607 15.347C11.6405 15.6723 10.8431 15.6799 10.144 15.4185C9.756 15.2734 9.55911 14.8413 9.70421 14.4533C9.8493 14.0653 10.2814 13.8684 10.6694 14.0135C10.8875 14.0951 11.1234 14.1227 11.3561 14.0911C11.0688 13.4014 11.0463 12.6021 11.3577 11.8581C11.5176 11.476 11.957 11.2959 12.3391 11.4558C12.7212 11.6157 12.9013 12.0551 12.7414 12.4372C12.4433 13.1495 12.7798 13.972 13.4987 14.2723C13.7459 14.3755 14.0042 14.4033 14.2499 14.3666V7.53552Z" fill="black"/>
<path d="M15.7499 22.4645C16.1331 22.7981 16.6338 23 17.1817 23C18.3532 23 19.309 22.0768 19.3613 20.9182C19.3638 20.8631 19.4085 20.8184 19.4637 20.8165C19.7819 20.8057 20.0871 20.7439 20.3714 20.6389C20.3625 20.5267 20.3443 20.4172 20.324 20.3229C20.2976 20.1997 20.2713 20.1189 20.2702 20.1155L20.2657 20.1018L20.2606 20.0844L20.2569 20.0709C20.1557 19.6958 19.7697 19.4732 19.3943 19.5739C18.9942 19.6811 18.5829 19.4436 18.4757 19.0435C18.3685 18.6434 18.6059 18.2322 19.006 18.125C20.17 17.8131 21.3661 18.4936 21.6961 19.6478C22.0582 19.1628 22.2726 18.561 22.2726 17.9091C22.2726 17.5445 22.2056 17.1956 22.0831 16.874C22.0663 16.8299 22.0812 16.7799 22.119 16.7517C22.6536 16.3541 22.9999 15.7175 22.9999 15C22.9999 14.2826 22.6536 13.646 22.119 13.2483C22.0812 13.2202 22.0663 13.1702 22.0831 13.1261C22.2056 12.8045 22.2726 12.4555 22.2726 12.0909C22.2726 11.7035 22.1969 11.3337 22.0594 10.9956C21.5765 11.8497 20.5616 12.3043 19.57 12.0385C19.1699 11.9313 18.9324 11.5201 19.0396 11.12C19.1468 10.7199 19.5581 10.4824 19.9582 10.5897C20.3303 10.6894 20.7127 10.4717 20.818 10.1026C20.8257 10.0659 20.8727 9.83196 20.8453 9.58696C20.4382 9.34554 19.9672 9.20057 19.4637 9.18353C19.4085 9.18167 19.3638 9.13698 19.3613 9.0818C19.309 7.92325 18.3532 7.00002 17.1817 7.00002C16.6338 7.00002 16.1331 7.20198 15.7499 7.53552V16.5019C15.8917 16.4896 16.0341 16.4554 16.1731 16.3974C16.8919 16.0971 17.2285 15.2746 16.9304 14.5623C16.7705 14.1802 16.9506 13.7408 17.3327 13.5809C17.7148 13.421 18.1542 13.6011 18.3141 13.9832C18.6255 14.7272 18.603 15.5265 18.3157 16.2162C18.5484 16.2478 18.7843 16.2202 19.0024 16.1386C19.3904 15.9935 19.8225 16.1904 19.9676 16.5784C20.1127 16.9664 19.9158 17.3985 19.5278 17.5436C18.8287 17.805 18.0313 17.7974 17.3111 17.4721C17.1398 17.5931 16.9527 17.6973 16.7512 17.7815C16.424 17.9182 16.0853 17.9907 15.7499 18.0046V22.4645Z" fill="black"/>
</svg>
