<svg width="24" height="24" viewBox="0 0 24 24" fill="none" xmlns="http://www.w3.org/2000/svg">
<path fill-rule="evenodd" clip-rule="evenodd" d="M9 1C9.89602 1 10.7003 1.39282 11.25 2.01563V21.9844C10.7003 22.6072 9.89602 23 9 23C7.37667 23 6.05449 21.7107 6.00164 20.1002C5.99983 20.045 5.95492 20.0001 5.89971 19.9988C5.34538 19.9851 4.81903 19.8587 4.34273 19.6416C4.35764 19.5041 4.38049 19.3735 4.40483 19.26C4.44539 19.0709 4.48611 18.9475 4.4868 18.9454L4.49149 18.9313L4.49693 18.9125L4.50064 18.8993C4.68013 18.2336 5.36487 17.8388 6.03104 18.0173C6.43114 18.1245 6.84239 17.8871 6.9496 17.487C7.05681 17.0869 6.81937 16.6757 6.41927 16.5685C4.95929 16.1773 3.45882 17.0376 3.05697 18.4919C3.04747 18.5214 3.02996 18.5778 3.00866 18.6556C2.38114 17.9493 2 17.0191 2 16C2 15.488 2.09622 14.9984 2.27155 14.5484C2.28867 14.5044 2.27379 14.4544 2.23566 14.4266C1.48675 13.8811 1 12.9974 1 12C1 11.0026 1.48675 10.1189 2.23566 9.5734C2.27379 9.54563 2.28867 9.49557 2.27155 9.45162C2.09622 9.00161 2 8.51204 2 8C2 7.34043 2.15964 6.71815 2.44238 6.16968C2.99704 7.35369 4.33649 8.0065 5.64349 7.65629C6.04359 7.54909 6.28103 7.13783 6.17382 6.73773C6.06662 6.33763 5.65536 6.1002 5.25526 6.2074C4.58901 6.38593 3.90418 5.99103 3.7248 5.32525L3.72101 5.3117L3.71667 5.29672L3.71339 5.28653C3.71256 5.28389 3.68989 5.21169 3.66761 5.09979C3.64902 5.00644 3.63266 4.8951 3.62706 4.77956C4.26584 4.3081 5.0499 4.02215 5.89971 4.00123C5.95492 3.99987 5.99983 3.95501 6.00164 3.89981C6.05449 2.28934 7.37667 1 9 1ZM7.63907 13.1475C8.03917 13.2547 8.27661 13.666 8.1694 14.0661C8.06219 14.4662 7.65094 14.7036 7.25084 14.5964L7.22019 14.5882C6.82009 14.481 6.58266 14.0698 6.68986 13.6697C6.79707 13.2696 7.20832 13.0321 7.60842 13.1393L7.63907 13.1475ZM9.20456 10.2023C9.31176 9.80223 9.07432 9.39097 8.67422 9.28377L8.64358 9.27556C8.24348 9.16835 7.83222 9.40579 7.72502 9.80589C7.61781 10.206 7.85525 10.6172 8.25535 10.7244L8.286 10.7327C8.6861 10.8399 9.09735 10.6024 9.20456 10.2023ZM6.22476 10.698C6.62486 10.8052 6.8623 11.2164 6.75509 11.6165C6.64789 12.0166 6.23663 12.254 5.83653 12.1468L5.80589 12.1386C5.40579 12.0314 5.16835 11.6202 5.27556 11.2201C5.38276 10.82 5.79401 10.5825 6.19411 10.6897L6.22476 10.698Z" fill="black"/>
<path fill-rule="evenodd" clip-rule="evenodd" d="M15 23C14.104 23 13.2997 22.6072 12.75 21.9844V2.01563C13.2997 1.39282 14.104 1 15 1C16.6233 1 17.9455 2.28934 17.9984 3.89981C18.0002 3.95501 18.0451 3.99987 18.1003 4.00123C18.9312 4.02168 19.6993 4.29552 20.3301 4.7484C20.3335 5.04931 20.2812 5.29636 20.2729 5.33406C20.0899 5.99452 19.4082 6.38515 18.7449 6.20741C18.3447 6.1002 17.9335 6.33764 17.8263 6.73774C17.7191 7.13784 17.9565 7.54909 18.3566 7.6563C19.6636 8.0065 21.003 7.35373 21.5577 6.1698C21.8404 6.71824 22 7.34048 22 8C22 8.51204 21.9038 9.00161 21.7285 9.45162C21.7113 9.49557 21.7262 9.54563 21.7643 9.5734C22.5133 10.1189 23 11.0026 23 12C23 12.9974 22.5133 13.8811 21.7643 14.4266C21.7262 14.4544 21.7113 14.5044 21.7285 14.5484C21.9038 14.9984 22 15.488 22 16C22 17.0189 21.619 17.9489 20.9917 18.6552C20.9705 18.5776 20.953 18.5214 20.9435 18.4919C20.5417 17.0376 19.0412 16.1773 17.5812 16.5685C17.1811 16.6757 16.9437 17.0869 17.0509 17.487C17.1581 17.8871 17.5694 18.1246 17.9695 18.0174C18.6356 17.8389 19.3204 18.2336 19.4999 18.8993L19.5036 18.9127L19.509 18.9314L19.5137 18.9454L20.9435 18.4919L19.5957 19.26C19.62 19.3734 19.6428 19.5039 19.6577 19.6414C19.1813 19.8586 18.6548 19.9851 18.1003 19.9988C18.0451 20.0001 18.0002 20.045 17.9984 20.1002C17.9455 21.7107 16.6233 23 15 23ZM15.812 14.0661C15.7048 13.666 15.9422 13.2547 16.3423 13.1475L16.373 13.1393C16.7731 13.0321 17.1843 13.2696 17.2915 13.6697C17.3987 14.0698 17.1613 14.481 16.7612 14.5882L16.7305 14.5964C16.3304 14.7036 15.9192 14.4662 15.812 14.0661ZM15.3072 9.28377C14.9071 9.39097 14.6696 9.80223 14.7768 10.2023C14.884 10.6024 15.2953 10.8399 15.6954 10.7327L15.726 10.7244C16.1261 10.6172 16.3636 10.206 16.2564 9.80589C16.1492 9.40579 15.7379 9.16835 15.3378 9.27556L15.3072 9.28377ZM17.2263 11.6165C17.1191 11.2164 17.3565 10.8052 17.7566 10.698L17.7873 10.6897C18.1874 10.5825 18.5986 10.82 18.7058 11.2201C18.813 11.6202 18.5756 12.0314 18.1755 12.1386L18.1448 12.1468C17.7447 12.254 17.3335 12.0166 17.2263 11.6165Z" fill="black"/>
</svg>
