<svg width="24" height="24" viewBox="0 0 24 24" fill="none" xmlns="http://www.w3.org/2000/svg">
<path d="M9.24854 1.04496C9.27335 0.631491 8.95829 0.276189 8.54482 0.251371C8.13135 0.226553 7.77605 0.541618 7.75123 0.955087L7.62444 3.06753C7.59266 3.59689 8.04807 4.02579 8.57458 3.96236L9.96607 3.79471L9.72165 5.49115C9.66258 5.90113 9.94705 6.28137 10.357 6.34044C10.767 6.3995 11.1473 6.11503 11.2063 5.70505L11.5717 3.16914C11.6515 2.61554 11.184 2.13712 10.6287 2.20403L9.16841 2.37997L9.24854 1.04496Z" fill="black"/>
<path d="M4.3596 3.33951C4.19691 2.95859 3.75622 2.78167 3.37529 2.94437C2.99437 3.10706 2.81745 3.54775 2.98015 3.92867L3.91496 6.11744C4.12326 6.60514 4.7224 6.78512 5.16497 6.49293L6.18118 5.82203L6.81023 7.29468C6.97294 7.6756 7.41364 7.85249 7.79456 7.68978C8.17547 7.52707 8.35236 7.08637 8.18965 6.70545L7.25467 4.5166C7.04635 4.02892 6.44724 3.84897 6.00468 4.14114L4.9885 4.81202L4.3596 3.33951Z" fill="black"/>
<path d="M6.25537 9.8181L4.69436 9.29003L4.45933 10.9208C4.37504 11.5057 3.73434 11.8283 3.21429 11.5476L0.643662 10.1601C0.279156 9.96331 0.14316 9.50832 0.339905 9.14382C0.536651 8.77931 0.991634 8.64332 1.35614 8.84006L3.10748 9.78536L3.32116 8.30267C3.39697 7.77667 3.93145 7.44844 4.43485 7.61874L6.73604 8.3972C7.12841 8.52994 7.33889 8.95562 7.20615 9.34799C7.07342 9.74036 6.64774 9.95084 6.25537 9.8181Z" fill="black"/>
<path d="M15.6181 1.82942C14.9638 2.48369 14.6966 3.37846 14.8165 4.22915C14.8719 4.6217 14.7999 5.03992 14.5195 5.32024L10.8772 8.96254L12.2141 10.5L11.4999 13L9.4999 11.5L7.83975 12L5.12865 14.7111C4.88618 14.9536 4.53724 15.0496 4.19829 14.9977C3.3465 14.8672 2.372 14.8772 1.8293 15.4199C0.723434 16.5258 0.723434 18.3187 1.8293 19.4246C2.054 19.6493 2.30706 19.8283 2.57696 19.9617C3.07908 20.2099 3.46779 20.7054 3.56565 21.2568C3.63029 21.6211 3.76999 21.9376 4.00356 22.1711C4.55498 22.7226 5.27735 22.9989 6.00008 23C6.7259 23.0012 7.45209 22.7249 8.00588 22.1711C8.6604 21.5166 8.53969 20.2336 8.3324 19.2961C8.25378 18.9405 8.34636 18.5645 8.60387 18.307L18.3648 8.54609C18.7352 8.17563 19.3196 8.1718 19.7744 8.43188C20.1485 8.6458 20.5348 8.77829 20.9177 8.77829C22.0677 8.77829 22.9999 7.81318 22.9999 6.62265C22.9999 5.59878 22.3104 4.74162 21.3858 4.52172L21.1031 4.78414L20.8893 4.98333C20.7035 5.15634 20.5941 5.39605 20.5851 5.64973C20.5704 6.06369 20.2229 6.38734 19.8089 6.37264C19.395 6.35793 19.0713 6.01044 19.086 5.59649C19.1092 4.94523 19.3901 4.32984 19.8669 3.88569L20.0822 3.68522L20.4154 3.37585C20.3236 2.80966 20.0593 2.266 19.6228 1.82942C18.5169 0.723557 16.7239 0.723557 15.6181 1.82942Z" fill="black"/>
</svg>
