<svg width="24" height="24" viewBox="0 0 24 24" fill="none" xmlns="http://www.w3.org/2000/svg">
<path d="M20.1926 13.3832C21.3192 12.071 21.9999 10.365 21.9999 8.5C21.9999 4.35786 18.642 1 14.4999 1C10.3578 1 6.99989 4.35786 6.99989 8.5C6.99989 8.64909 7.00424 8.79716 7.01282 8.94409C7.01385 8.96168 7.01029 8.97924 7.00241 8.995L5.51557 11.9687C5.24343 12.513 5.51646 13.1722 6.09378 13.3646L8.31237 14.1041C8.35321 14.1178 8.38075 14.156 8.38075 14.199V15.4634C8.38075 15.512 8.41578 15.5536 8.46373 15.5619L10.3996 15.8963C10.7683 15.96 11.0706 16.2242 11.1831 16.5811L11.5893 17.8699C11.6096 17.9344 11.5615 18 11.494 18H8.48405C8.42755 18 8.38227 18.0468 8.3841 18.1032L8.43045 19.5324C8.44795 20.0718 8.89026 20.5 9.42993 20.5H12.6175C12.6682 20.5 12.7109 20.538 12.7168 20.5883L12.9896 22.9117C12.9956 22.962 13.0382 23 13.089 23H20.8909C20.9496 23 20.9956 22.9498 20.9905 22.8913L20.1686 13.4575C20.1662 13.4305 20.1749 13.4037 20.1926 13.3832Z" fill="black"/>
<path d="M1.89301 19.8146C1.53429 20.0217 1.41138 20.4804 1.61849 20.8391C1.8256 21.1978 2.28429 21.3207 2.64301 21.1136L4.37506 20.1136C4.73378 19.9065 4.85668 19.4478 4.64958 19.0891C4.44247 18.7304 3.98378 18.6075 3.62506 18.8146L1.89301 19.8146Z" fill="black"/>
<path d="M5.80583 23.6527C5.40573 23.5455 5.16829 23.1342 5.2755 22.7341L5.79314 20.8023C5.90034 20.4022 6.31159 20.1647 6.71169 20.2719C7.11179 20.3791 7.34923 20.7904 7.24202 21.1905L6.72439 23.1223C6.61718 23.5224 6.20593 23.7599 5.80583 23.6527Z" fill="black"/>
<path d="M2.19406 15.2756C1.79396 15.1683 1.3827 15.4058 1.2755 15.8059C1.16829 16.206 1.40573 16.6172 1.80583 16.7244L3.73768 17.2421C4.13778 17.3493 4.54903 17.1119 4.65624 16.7118C4.76344 16.3117 4.52601 15.9004 4.12591 15.7932L2.19406 15.2756Z" fill="black"/>
</svg>
