<svg width="24" height="24" viewBox="0 0 24 24" fill="none" xmlns="http://www.w3.org/2000/svg">
<g clip-path="url(#clip0_1607_10704)">
<path fill-rule="evenodd" clip-rule="evenodd" d="M13.2455 1.75C13.6597 1.75 13.9955 1.41421 13.9955 1C13.9955 0.585787 13.6597 0.25 13.2455 0.25H10.7545C10.3403 0.25 10.0045 0.585786 10.0045 1C10.0045 1.41421 10.3403 1.75 10.7545 1.75H11.25V4C11.25 4.0116 11.2503 4.02315 11.2508 4.03462C9.60406 4.18757 8.10212 4.83961 6.8977 5.83803C6.88986 5.82943 6.88179 5.82098 6.87348 5.81267L5.28267 4.22186L5.63288 3.87164C5.92578 3.57875 5.92578 3.10387 5.63288 2.81098C5.33999 2.51809 4.86512 2.51809 4.57222 2.81098L2.81084 4.57236C2.51795 4.86525 2.51795 5.34013 2.81084 5.63302C3.10373 5.92592 3.57861 5.92592 3.8715 5.63302L4.22201 5.28252L5.81282 6.87333C5.82113 6.88163 5.82958 6.8897 5.83816 6.89753C4.83967 8.10199 4.18757 9.60398 4.03462 11.2508C4.02315 11.2503 4.0116 11.25 4 11.25H1.75L1.75 10.7544C1.75 10.3402 1.41421 10.0044 1 10.0044C0.585787 10.0044 0.25 10.3402 0.25 10.7544V13.2454C0.25 13.6596 0.585786 13.9954 1 13.9954C1.41421 13.9954 1.75 13.6596 1.75 13.2454L1.75 12.75H4C4.0116 12.75 4.02315 12.7497 4.03462 12.7492C4.18757 14.396 4.83967 15.898 5.83816 17.1025C5.82958 17.1103 5.82113 17.1184 5.81282 17.1267L4.22192 18.7176L3.87147 18.3671C3.57858 18.0742 3.1037 18.0742 2.81081 18.3671C2.51792 18.66 2.51792 19.1349 2.81081 19.4278L4.57219 21.1892C4.86509 21.4821 5.33996 21.4821 5.63285 21.1892C5.92575 20.8963 5.92575 20.4214 5.63285 20.1285L5.28258 19.7782L6.87348 18.1873C6.88179 18.179 6.88986 18.1706 6.8977 18.162C8.10212 19.1604 9.60406 19.8124 11.2508 19.9654C11.2503 19.9769 11.25 19.9884 11.25 20V22.25H10.7545C10.3403 22.25 10.0045 22.5858 10.0045 23C10.0045 23.4142 10.3403 23.75 10.7545 23.75H13.2455C13.6597 23.75 13.9955 23.4142 13.9955 23C13.9955 22.5858 13.6597 22.25 13.2455 22.25H12.75V20C12.75 19.9884 12.7497 19.9769 12.7492 19.9654C14.3959 19.8124 15.8979 19.1604 17.1023 18.162C17.1101 18.1706 17.1182 18.179 17.1265 18.1873L18.7173 19.7781L18.3671 20.1284C18.0742 20.4213 18.0742 20.8961 18.3671 21.189C18.66 21.4819 19.1349 21.4819 19.4278 21.189L21.1892 19.4276C21.4821 19.1347 21.4821 18.6599 21.1892 18.367C20.8963 18.0741 20.4214 18.0741 20.1285 18.367L19.778 18.7175L18.1872 17.1267C18.1789 17.1184 18.1704 17.1103 18.1618 17.1025C19.1603 15.898 19.8124 14.396 19.9654 12.7492C19.9769 12.7497 19.9884 12.75 20 12.75H22.25V13.2456C22.25 13.6598 22.5858 13.9956 23 13.9956C23.4142 13.9956 23.75 13.6598 23.75 13.2456V10.7546C23.75 10.3404 23.4142 10.0046 23 10.0046C22.5858 10.0046 22.25 10.3404 22.25 10.7546V11.25H20C19.9884 11.25 19.9769 11.2503 19.9654 11.2508C19.8124 9.60398 19.1603 8.10199 18.1618 6.89753C18.1704 6.8897 18.1789 6.88163 18.1872 6.87333L19.7781 5.28242L20.1285 5.63287C20.4214 5.92576 20.8963 5.92576 21.1892 5.63287C21.4821 5.33998 21.4821 4.8651 21.1892 4.57221L19.4278 2.81083C19.1349 2.51793 18.66 2.51793 18.3671 2.81083C18.0743 3.10372 18.0743 3.57859 18.3671 3.87149L18.7174 4.22176L17.1265 5.81267C17.1182 5.82098 17.1101 5.82943 17.1023 5.83803C15.8979 4.83961 14.3959 4.18757 12.7492 4.03462C12.7497 4.02315 12.75 4.0116 12.75 4V1.75H13.2455ZM12 9.5C12 10.3284 11.3284 11 10.5 11C9.67157 11 9 10.3284 9 9.5C9 8.67157 9.67157 8 10.5 8C11.3284 8 12 8.67157 12 9.5ZM11 16C11.5523 16 12 15.5523 12 15C12 14.4477 11.5523 14 11 14C10.4477 14 10 14.4477 10 15C10 15.5523 10.4477 16 11 16ZM17 12C17 12.5523 16.5523 13 16 13C15.4477 13 15 12.5523 15 12C15 11.4477 15.4477 11 16 11C16.5523 11 17 11.4477 17 12Z" fill="black"/>
</g>
<defs>
<clipPath id="clip0_1607_10704">
<rect width="24" height="24" fill="white"/>
</clipPath>
</defs>
</svg>
