<svg width="24" height="24" viewBox="0 0 24 24" fill="none" xmlns="http://www.w3.org/2000/svg">
<path d="M3.67079 0.664632C3.48555 0.294148 3.03504 0.14398 2.66456 0.329222C2.29407 0.514464 2.14391 0.964969 2.32915 1.33545L3.27556 3.22828C3.51273 3.70261 4.12157 3.84634 4.54583 3.52815L5.66707 2.68722L6.30361 4.27858C6.45745 4.66317 6.89392 4.85023 7.27851 4.6964C7.6631 4.54256 7.85016 4.10609 7.69633 3.7215L6.74479 1.34265C6.53706 0.823337 5.89304 0.64274 5.44558 0.978333L4.2689 1.86085L3.67079 0.664632Z" fill="black"/>
<path d="M1.45007 4.90014C1.11872 4.6516 0.648611 4.71873 0.400067 5.05009C0.151522 5.38145 0.218656 5.85155 0.550014 6.1001L2.45397 7.52821C2.87822 7.84643 3.48707 7.70273 3.72426 7.2284L4.26887 6.13928L5.54997 7.1001C5.88134 7.34863 6.35144 7.28147 6.59997 6.9501C6.8485 6.61873 6.78134 6.14863 6.44997 5.9001L4.54582 4.47199C4.12158 4.15381 3.51275 4.29752 3.27557 4.77183L2.73098 5.86092L1.45007 4.90014Z" fill="black"/>
<path d="M0.250147 12C0.250141 11.5858 0.585921 11.25 1.00014 11.25L2.89225 11.2499L2.34838 9.89011C2.15103 9.39668 2.44979 8.84519 2.9709 8.74096L5.35302 8.26454C5.75919 8.1833 6.15431 8.44672 6.23554 8.85289C6.31678 9.25906 6.05337 9.65418 5.6472 9.73541L4.03129 10.0586L4.64149 11.5843C4.86479 12.1426 4.45361 12.7499 3.85229 12.7499L1.00016 12.75C0.585946 12.75 0.250154 12.4142 0.250147 12Z" fill="black"/>
<path d="M13.8754 4.39667V1.10004C13.8754 1.04481 13.9202 1.00004 13.9754 1.00004H16.629C16.6842 1.00004 16.729 1.04481 16.729 1.10004V3.52785C16.729 3.57729 16.7645 3.61915 16.8134 3.62606L16.8431 3.63023C17.3588 3.70268 18.5195 3.86575 19.1878 4.61467L17.3905 6.81537C16.8989 6.54676 16.2976 6.27961 16.2599 6.26475L16.259 6.26438C16.2493 6.26058 16.2396 6.25688 16.2299 6.25329L16.2268 6.25212L16.2005 6.24267C14.8252 5.7624 12.8336 5.64142 10.9924 6.37078C11.44 5.22035 12.5583 4.40501 13.8671 4.40501C13.8717 4.40501 13.8754 4.40128 13.8754 4.39667Z" fill="black"/>
<path d="M18.1077 8.30852L21.7593 3.83739L23.1053 5.48446C23.1324 5.51765 23.1354 5.56417 23.1124 5.6003C22.9887 5.79408 22.5277 6.50882 21.2044 8.50187C21.2088 8.50304 21.2132 8.50451 21.2174 8.50628C20.956 8.89976 20.6626 9.34062 20.3336 9.8341C19.4221 11.2014 18.1558 12.1293 17.0934 12.7195C16.5654 13.0129 16.0966 13.2178 15.7625 13.3486C15.5957 13.4138 15.4633 13.4603 15.3748 13.4898C15.3306 13.5045 15.2974 13.515 15.2764 13.5215L15.2544 13.5282L15.251 13.5292C14.8531 13.6432 14.6228 14.0581 14.7365 14.4562C14.8503 14.8544 15.2654 15.0851 15.6637 14.9713L15.4577 14.2501C15.6637 14.9713 15.6648 14.971 15.6648 14.971L15.6662 14.9706L15.6699 14.9695L15.6812 14.9662L15.7185 14.9549C15.7498 14.9452 15.7938 14.9313 15.8491 14.9128C15.9599 14.8759 16.1165 14.8208 16.3091 14.7454C16.6938 14.5949 17.225 14.3624 17.8219 14.0307C19.0096 13.3709 20.4932 12.2989 21.5817 10.6662C21.8411 10.2771 22.0784 9.92058 22.2955 9.59404C22.6766 10.3296 22.8506 11.4696 22.6262 13.3526C22.3591 15.5939 21.6964 17.9735 20.7683 19.8086L20.5535 19.5525L20.5351 19.5333C19.4765 18.4385 18.1213 18.1002 17.0271 17.827L16.8921 17.7933C15.7038 17.495 14.8663 17.2422 14.3081 16.4961C14.06 16.1645 13.59 16.0967 13.2583 16.3449C12.9267 16.593 12.8589 17.063 13.1071 17.3947C13.5491 17.9855 14.096 18.3712 14.6693 18.6438C14.5383 18.8478 14.337 19.0614 14.0252 19.1985C13.646 19.3651 13.4736 19.8076 13.6403 20.1868C13.8069 20.566 14.2494 20.7384 14.6286 20.5717C15.344 20.2573 15.7706 19.7424 16.0133 19.3197C16.0484 19.2585 16.0799 19.1988 16.1082 19.1415C16.2442 19.1772 16.378 19.2108 16.5084 19.2435L16.5269 19.2481C17.7112 19.5454 18.6854 19.7902 19.4391 20.5579L19.9541 21.1722C19.1532 22.2934 18.2219 23 17.2156 23C14.5104 23 10.2046 20.2429 8.70768 16.5C8.59135 16.2092 8.48633 15.9152 8.39497 15.6192L8.49462 15.6515L8.51338 15.6566C9.98041 16.0496 11.4883 15.179 11.8814 13.712C11.9886 13.3119 11.7512 12.9007 11.3511 12.7935C10.951 12.6862 10.5397 12.9237 10.4325 13.3238C10.2553 13.9851 9.5798 14.3797 8.91824 14.212L8.03926 13.927C7.86042 12.2165 8.27094 10.5069 9.7076 9.00004C10.0376 8.65397 10.4007 8.37049 10.7837 8.14226C11.666 7.61643 12.6535 7.38377 13.5821 7.35435C13.6961 7.35073 13.8093 7.35018 13.9213 7.35253C14.5775 7.36629 15.1928 7.47958 15.7061 7.6588L15.7092 7.65997C15.7328 7.66926 16.0257 7.78597 16.351 7.97736C15.7998 8.46317 15.1502 8.83006 14.4427 9.0507L12.4842 9.66149C12.0888 9.78481 11.8682 10.2053 11.9915 10.6008C12.1148 10.9962 12.5353 11.2168 12.9308 11.0935L14.8893 10.4827C16.1519 10.0889 17.2711 9.33289 18.1077 8.30852Z" fill="black"/>
</svg>
