<svg width="24" height="24" viewBox="0 0 24 24" fill="none" xmlns="http://www.w3.org/2000/svg">
<path d="M6.61453 2.9037C6.55121 2.96562 6.44878 2.96562 6.38547 2.9037C5.15417 1.69945 3.15703 1.69867 1.92474 2.90195C0.692453 4.10523 0.69165 6.05691 1.92295 7.26115L5.7807 11.2553C6.17385 11.6623 6.82614 11.6623 7.21928 11.2553L11.0729 7.26524L11.0771 7.26115C12.3084 6.05691 12.3075 4.10523 11.0753 2.90195C9.84297 1.69867 7.84583 1.69945 6.61453 2.9037Z" fill="black"/>
<path d="M23.5595 9.50058C23.612 9.55923 23.6536 9.62414 23.6844 9.69274C23.7265 9.78651 23.75 9.89052 23.75 10V17C23.75 17.4142 23.4142 17.75 23 17.75C22.5858 17.75 22.25 17.4142 22.25 17V11.8106L15.2374 18.8232C14.554 19.5066 13.446 19.5066 12.7626 18.8232L9.17677 15.2374C9.07913 15.1398 8.92084 15.1398 8.82321 15.2374L1.53033 22.5303C1.23744 22.8232 0.762563 22.8232 0.46967 22.5303C0.176777 22.2374 0.176777 21.7626 0.46967 21.4697L7.76255 14.1768C8.44597 13.4934 9.55401 13.4934 10.2374 14.1768L13.8232 17.7626C13.9208 17.8602 14.0791 17.8602 14.1768 17.7626L21.1893 10.75H16C15.5858 10.75 15.25 10.4142 15.25 10C15.25 9.58579 15.5858 9.25 16 9.25H23C23.1929 9.25 23.3688 9.32281 23.5016 9.44244C23.522 9.46076 23.5413 9.48016 23.5595 9.50058Z" fill="black"/>
</svg>
