<svg width="24" height="24" viewBox="0 0 24 24" fill="none" xmlns="http://www.w3.org/2000/svg">
<path d="M10.1684 1.1V4.39663C10.1684 4.40123 10.1647 4.40496 10.1601 4.40496C8.85133 4.40496 7.73305 5.22031 7.28545 6.37074C9.12656 5.64138 11.1182 5.76236 12.4935 6.24262L12.5198 6.25208L12.5229 6.25325C12.5326 6.25684 12.5423 6.26054 12.552 6.26434L12.5529 6.26471C12.5906 6.27957 13.1919 6.54672 13.6835 6.81532L15.4808 4.61463C14.8125 3.86571 13.6518 3.70264 13.1361 3.63019L13.1064 3.62601C13.0575 3.61911 13.022 3.57725 13.022 3.52781V1.1C13.022 1.04477 12.9772 1 12.922 1H10.2684C10.2132 1 10.1684 1.04477 10.1684 1.1Z" fill="black"/>
<path fill-rule="evenodd" clip-rule="evenodd" d="M18.0523 3.83735L14.4007 8.30848C13.5641 9.33285 12.4449 10.0889 11.1823 10.4826L9.22378 11.0934C8.82835 11.2168 8.40782 10.9962 8.2845 10.6007C8.16118 10.2053 8.38177 9.78477 8.7772 9.66145L10.7357 9.05066C11.4432 8.83002 12.0928 8.46313 12.644 7.97732C12.3187 7.78592 12.0258 7.66922 12.0022 7.65993L11.9991 7.65876C11.4858 7.47954 10.8705 7.36625 10.2143 7.35249C10.1023 7.35014 9.98914 7.35069 9.87507 7.35431C8.94647 7.38373 7.95902 7.61638 7.07666 8.14222C6.69371 8.37045 6.33055 8.65392 6.0006 9C3.83639 11.27 4.00079 14 5.00068 16.5C6.49764 20.2428 10.8034 23 13.5086 23C14.5149 23 15.7083 21.9264 16.2471 21.1722C16.7858 20.4179 17.0613 19.8085 17.0613 19.8085C17.9894 17.9734 18.6521 15.5938 18.9192 13.3526C19.1436 11.4696 18.9696 10.3296 18.5885 9.594C18.3714 9.92054 18.1341 10.2771 17.8747 10.6661C16.7862 12.2989 15.3026 13.3709 14.1149 14.0307C13.518 14.3623 12.9868 14.5949 12.6021 14.7454C12.3918 14.8277 12.1792 14.9043 11.9629 14.9694L11.9592 14.9705L11.9578 14.9709L11.9567 14.9712C11.5584 15.085 11.1433 14.8544 11.0295 14.4561C10.9158 14.0581 11.1461 13.6432 11.544 13.5291C11.7171 13.4768 11.8872 13.4144 12.0555 13.3485C12.3896 13.2178 12.8584 13.0129 13.3864 12.7195C14.4488 12.1293 15.7151 11.2013 16.6266 9.83406C16.9556 9.34057 17.249 8.89972 17.5104 8.50624C17.5062 8.50447 17.5018 8.503 17.4974 8.50183C18.8207 6.50878 19.2817 5.79403 19.4054 5.60025C19.4284 5.56413 19.4254 5.5176 19.3983 5.48442L19.3972 5.48306L18.0523 3.83735ZM9.75 18.0317C9.75 18.446 9.41421 18.7817 9 18.7817C8.58579 18.7817 8.25 18.446 8.25 18.0317V18C8.25 17.5858 8.58579 17.25 9 17.25C9.41421 17.25 9.75 17.5858 9.75 18V18.0317ZM13 20.7817C13.4142 20.7817 13.75 20.446 13.75 20.0317V20C13.75 19.5858 13.4142 19.25 13 19.25C12.5858 19.25 12.25 19.5858 12.25 20V20.0317C12.25 20.446 12.5858 20.7817 13 20.7817ZM12.75 17.0317C12.75 17.446 12.4142 17.7817 12 17.7817C11.5858 17.7817 11.25 17.446 11.25 17.0317V17C11.25 16.5858 11.5858 16.25 12 16.25C12.4142 16.25 12.75 16.5858 12.75 17V17.0317Z" fill="black"/>
</svg>
