<svg width="24" height="24" viewBox="0 0 24 24" fill="none" xmlns="http://www.w3.org/2000/svg">
<path d="M12.7318 1.27936C12.8861 0.894969 12.6996 0.458259 12.3152 0.303945C11.9308 0.149631 11.4941 0.336149 11.3398 0.720545L10.4531 2.92925C10.2555 3.4214 10.5519 3.97232 11.0715 4.07866L12.2644 4.32282L11.6679 5.80895C11.5136 6.19335 11.7002 6.63006 12.0846 6.78435C12.469 6.93865 12.9057 6.75211 13.06 6.3677L13.9466 4.15882C14.1441 3.66668 13.8477 3.11579 13.3282 3.00945L12.1353 2.76529L12.7318 1.27936Z" fill="black"/>
<path d="M17.8113 3.11387C18.1212 2.83906 18.1496 2.36504 17.8748 2.05512C17.6 1.7452 17.126 1.71675 16.8161 1.99157L15.2327 3.39564C14.8359 3.74748 14.8546 4.37278 15.2718 4.70023L16.3743 5.56561L15.0019 6.59235C14.6702 6.84048 14.6025 7.3105 14.8506 7.64217C15.0988 7.97383 15.5688 8.04155 15.9005 7.79342L17.952 6.25862C18.3998 5.92356 18.4076 5.25473 17.9676 4.90938L16.8106 4.0012L17.8113 3.11387Z" fill="black"/>
<path d="M6.71854 3.04508C6.59992 2.64821 6.18203 2.42265 5.78516 2.54128C5.3883 2.6599 5.16274 3.07779 5.28137 3.47465L6.11795 6.27349C6.28719 6.83971 6.96831 7.06468 7.44151 6.71069L8.76084 5.72373L9.49124 7.20093C9.67483 7.57224 10.1247 7.72441 10.496 7.54082C10.8673 7.35723 11.0194 6.9074 10.8359 6.53609L9.75912 4.35845C9.52358 3.88207 8.91355 3.73623 8.48802 4.05456L7.28849 4.95189L6.71854 3.04508Z" fill="black"/>
<path d="M4.85937 16.7053C4.50129 16.5346 4.06831 16.6728 3.87743 17.0257C3.68036 17.3901 3.81596 17.8452 4.18029 18.0422L5.59292 18.8063C6.06729 19.0629 6.3916 19.5204 6.48361 20.0407C5.68724 20.8516 4.50327 21.0613 3.5533 20.4746L3.5526 20.4759C3.5526 20.4759 -1.10006 18.4632 2.15754 12.4562C5.06915 7.08729 8.80016 9.49609 9.27358 9.80173L9.2824 9.80743L9.30464 9.82128C10.4762 10.56 10.8397 12.2399 10.1166 13.5735C9.91491 13.9456 9.6499 14.2514 9.34718 14.4829C9.0195 14.2202 8.66461 13.986 8.2853 13.785L6.73212 12.9618C6.36613 12.7678 5.9122 12.9073 5.71822 13.2732C5.55033 13.59 5.63223 13.9727 5.89461 14.1957L7.18192 14.8395C9.2143 15.856 10.498 17.9334 10.498 20.2057L10.4993 22C10.4997 22.5523 10.0523 23.0003 9.50008 23.0007L9.00203 23.0011C8.44971 23.0015 8.00164 22.5541 8.00125 22.0018L8 20.2409C8 19.5271 7.74637 18.8495 7.30297 18.3183L7.3028 18.3211C7.28571 18.2996 7.26834 18.2784 7.25069 18.2573C7.03568 18.0133 6.77939 17.8025 6.48842 17.6362L4.85937 16.7053Z" fill="black"/>
<path d="M16 21.9992V20.2409C16 19.5271 16.2536 18.8495 16.697 18.3183L16.6972 18.3211C16.7143 18.2996 16.7317 18.2784 16.7493 18.2573C16.9643 18.0133 17.2206 17.8025 17.5116 17.6362L18.7447 16.9316C18.7832 16.9096 18.8198 16.8853 18.8543 16.8591L19.1061 16.7229C19.4704 16.5258 19.9255 16.6614 20.1226 17.0257C20.3196 17.3901 20.184 17.8452 19.8197 18.0422L18.4071 18.8063C17.9327 19.0629 17.6084 19.5204 17.5164 20.0407C18.3128 20.8516 19.4967 21.0613 20.4467 20.4746L20.4474 20.4759C20.4474 20.4759 25.1001 18.4632 21.8425 12.4562C18.9308 7.08729 15.1998 9.49609 14.7264 9.80173L14.7176 9.80743L14.6954 9.82128C13.5238 10.56 13.1603 12.2399 13.8834 13.5735C14.0851 13.9456 14.3501 14.2514 14.6528 14.4829C14.9805 14.2202 15.3354 13.986 15.7147 13.785L17.2679 12.9618C17.6339 12.7678 18.0878 12.9073 18.2818 13.2732C18.4497 13.59 18.3678 13.9727 18.1054 14.1956L16.8181 14.8395C14.7857 15.856 13.502 17.9334 13.502 20.2057V21.9988C13.502 22.5507 13.9492 22.9983 14.5012 22.9988L14.9992 22.9992C15.5518 22.9996 16 22.5517 16 21.9992Z" fill="black"/>
</svg>
