<svg width="24" height="24" viewBox="0 0 24 24" fill="none" xmlns="http://www.w3.org/2000/svg">
<path d="M9.24878 1.04496C9.2736 0.631491 8.95853 0.276189 8.54506 0.251371C8.1316 0.226553 7.77629 0.541618 7.75148 0.955087L7.62468 3.06753C7.59291 3.59689 8.04831 4.02579 8.57483 3.96236L9.96631 3.79471L9.7219 5.49115C9.66283 5.90113 9.9473 6.28137 10.3573 6.34044C10.7673 6.3995 11.1475 6.11503 11.2066 5.70505L11.5719 3.16914C11.6517 2.61554 11.1843 2.13712 10.6289 2.20403L9.16865 2.37997L9.24878 1.04496Z" fill="black"/>
<path d="M4.35984 3.33951C4.19715 2.95859 3.75646 2.78167 3.37554 2.94437C2.99461 3.10706 2.8177 3.54775 2.98039 3.92867L3.91521 6.11744C4.12351 6.60514 4.72264 6.78512 5.16521 6.49293L6.18142 5.82203L6.81047 7.29468C6.97319 7.6756 7.41388 7.85249 7.7948 7.68978C8.17572 7.52707 8.35261 7.08637 8.1899 6.70545L7.25491 4.5166C7.0466 4.02892 6.44748 3.84897 6.00492 4.14114L4.98875 4.81202L4.35984 3.33951Z" fill="black"/>
<path d="M6.25561 9.8181L4.69461 9.29003L4.45958 10.9208C4.37528 11.5057 3.73458 11.8283 3.21453 11.5476L0.643906 10.1601C0.2794 9.96331 0.143404 9.50832 0.340149 9.14382C0.536895 8.77931 0.991878 8.64332 1.35638 8.84006L3.10772 9.78536L3.32141 8.30267C3.39721 7.77667 3.93169 7.44844 4.4351 7.61874L6.73629 8.3972C7.12866 8.52994 7.33913 8.95562 7.2064 9.34799C7.07367 9.74036 6.64798 9.95084 6.25561 9.8181Z" fill="black"/>
<path d="M12.075 6.25002C12.4892 6.25002 12.825 6.58581 12.825 7.00002V12.0464C12.825 12.9051 12.3285 13.6858 11.5519 14.0502L11.2908 14.1813L11.365 15.6541L12.5675 15.0528C13.0602 14.8065 13.6401 14.8065 14.1328 15.0528L15.3352 15.654L15.4097 14.1743L15.1566 14.054C14.3753 13.6913 13.8752 12.9081 13.8752 12.0464V7.00002C13.8752 6.58581 14.211 6.25002 14.6252 6.25002C15.0394 6.25002 15.3752 6.58581 15.3752 7.00002V12.0464C15.3752 12.1913 15.4191 12.3293 15.4968 12.4448L15.5136 12.112C15.549 11.4082 15.8176 10.6629 16.4977 10.4784C17.4801 10.2118 18.9954 10.5384 20.7519 12.8108C22.3663 14.8994 22.7586 18.1102 22.6934 20.6774C22.648 22.4647 20.8404 23.4578 19.1634 22.838L17.117 22.0815C15.8871 21.6269 15.095 20.4263 15.1609 19.1168L15.2517 17.3136L14.7031 17.015L13.462 16.3945C13.3916 16.3593 13.3087 16.3593 13.2384 16.3945L11.9904 17.0184L11.4478 17.2995L11.5393 19.1168C11.6053 20.4263 10.8131 21.6269 9.58327 22.0815L7.53688 22.838C5.85988 23.4578 4.05224 22.4647 4.00686 20.6774C3.94167 18.1102 4.33394 14.8994 5.94838 12.8108C7.70479 10.5384 9.22011 10.2118 10.2026 10.4784C10.8827 10.6629 11.1512 11.4082 11.1867 12.112L11.2034 12.4448C11.2811 12.3293 11.325 12.1913 11.325 12.0464V7.00002C11.325 6.58581 11.6608 6.25002 12.075 6.25002Z" fill="black"/>
</svg>
