<svg width="24" height="24" viewBox="0 0 24 24" fill="none" xmlns="http://www.w3.org/2000/svg">
<path fill-rule="evenodd" clip-rule="evenodd" d="M18.1875 3.75C17.7645 3.75 17.3594 3.82639 16.9852 3.96612C16.9367 3.98424 16.8819 3.96382 16.8575 3.9181C15.9328 2.18189 14.1044 1 12 1C9.7516 1 7.81832 2.34915 6.96553 4.28205C6.93806 4.34432 6.8581 4.36365 6.80422 4.32205C6.33971 3.96338 5.75727 3.75 5.125 3.75C3.60622 3.75 2.375 4.98122 2.375 6.5C2.375 7.18568 2.62595 7.81275 3.04102 8.29437C3.08367 8.34386 3.07178 8.42091 3.01566 8.45436C1.80857 9.17402 1 10.4926 1 12C1 13.3443 1.64304 14.5384 2.63829 15.2915C2.67668 15.3205 2.68992 15.3724 2.67034 15.4164C2.48051 15.843 2.375 16.3154 2.375 16.8125C2.375 18.711 3.91402 20.25 5.8125 20.25C6.23545 20.25 6.64057 20.1736 7.01479 20.0339C7.06332 20.0158 7.1181 20.0362 7.14245 20.0819C8.06721 21.8181 9.89558 23 12 23C14.2484 23 16.1817 21.6509 17.0345 19.718C17.0619 19.6557 17.1419 19.6363 17.1958 19.6779C17.6603 20.0366 18.2427 20.25 18.875 20.25C20.3938 20.25 21.625 19.0188 21.625 17.5C21.625 16.8143 21.374 16.1873 20.959 15.7056C20.9163 15.6561 20.9282 15.5791 20.9843 15.5456C22.1914 14.826 23 13.5074 23 12C23 10.6557 22.357 9.46162 21.3617 8.70852C21.3233 8.67947 21.3101 8.62761 21.3297 8.58362C21.5195 8.15701 21.625 7.68458 21.625 7.1875C21.625 5.28902 20.086 3.75 18.1875 3.75ZM7.875 7.12507C8.28921 7.12507 8.625 7.46086 8.625 7.87507V7.9187C8.625 8.33291 8.28921 8.6687 7.875 8.6687C7.46079 8.6687 7.125 8.33291 7.125 7.9187V7.87507C7.125 7.46086 7.46079 7.12507 7.875 7.12507ZM19.625 12.0001C19.625 11.5859 19.2892 11.2501 18.875 11.2501C18.4608 11.2501 18.125 11.5859 18.125 12.0001V12.0437C18.125 12.4579 18.4608 12.7937 18.875 12.7937C19.2892 12.7937 19.625 12.4579 19.625 12.0437V12.0001ZM10.625 16.7501C11.0392 16.7501 11.375 17.0859 11.375 17.5001V17.5437C11.375 17.9579 11.0392 18.2937 10.625 18.2937C10.2108 18.2937 9.875 17.9579 9.875 17.5437V17.5001C9.875 17.0859 10.2108 16.7501 10.625 16.7501ZM7.5395 15.1789C7.87129 15.4269 8.34127 15.3589 8.58924 15.0271C8.83721 14.6953 8.76925 14.2253 8.43746 13.9774L8.15634 13.7673C7.62588 13.3708 7.29701 12.7608 7.25733 12.0998L7.24865 11.9551C7.22383 11.5416 6.86853 11.2265 6.45506 11.2513C6.04159 11.2762 5.72652 11.6315 5.75134 12.0449L5.76003 12.1897C5.82616 13.2914 6.37428 14.308 7.25837 14.9688L7.5395 15.1789ZM14.1492 12.926C14.3972 12.5942 14.8672 12.5263 15.199 12.7742L15.4801 12.9843C16.3642 13.6451 16.9123 14.6617 16.9785 15.7635L16.9871 15.9082C17.012 16.3217 16.6969 16.677 16.2834 16.7018C15.87 16.7266 15.5147 16.4115 15.4898 15.9981L15.4811 15.8533C15.4415 15.1923 15.1126 14.5823 14.5821 14.1859L14.301 13.9758C13.9692 13.7278 13.9013 13.2578 14.1492 12.926ZM11.5555 9.46807C11.5066 9.87939 11.8005 10.2524 12.2118 10.3013C12.6231 10.3501 12.9961 10.0563 13.045 9.64497L13.0864 9.29646C13.1645 8.63885 13.5283 8.04904 14.081 7.68416L14.202 7.60427C14.5476 7.37604 14.6428 6.91081 14.4146 6.56514C14.1864 6.21948 13.7211 6.12427 13.3755 6.3525L13.2545 6.43239C12.3334 7.04053 11.727 8.02354 11.5969 9.11955L11.5555 9.46807Z" fill="black"/>
</svg>
