<svg width="24" height="24" viewBox="0 0 24 24" fill="none" xmlns="http://www.w3.org/2000/svg">
<path d="M9.95187 5.88669C9.58604 5.69241 9.13199 5.83147 8.93771 6.1973C8.74343 6.56313 8.8825 7.01718 9.24833 7.21146C11.0563 8.17163 12.9439 8.17163 14.7519 7.21146C15.1177 7.01718 15.2568 6.56313 15.0625 6.1973C14.8682 5.83147 14.4142 5.69241 14.0483 5.88669C12.6803 6.61322 11.3199 6.61322 9.95187 5.88669Z" fill="black"/>
<path fill-rule="evenodd" clip-rule="evenodd" d="M1 2C1 1.44772 1.44772 1 2 1H22C22.5523 1 23 1.44772 23 2V22C23 22.5523 22.5523 23 22 23H2C1.44772 23 1 22.5523 1 22V2ZM3.25 20C3.25 19.5858 3.58579 19.25 4 19.25H6C6.41421 19.25 6.75 19.5858 6.75 20C6.75 20.4143 6.41421 20.75 6 20.75H4C3.58579 20.75 3.25 20.4143 3.25 20ZM4.00004 17.25C3.58582 17.25 3.25002 17.5857 3.25 18C3.24998 18.4142 3.58575 18.75 3.99996 18.75L4.99996 18.75C5.41418 18.7501 5.74998 18.4143 5.75 18.0001C5.75002 17.5859 5.41425 17.2501 5.00004 17.25L4.00004 17.25ZM8.43194 16.9134L7.19972 11.0254C7.19762 11.0154 7.1929 11.0063 7.1861 10.999L7.11514 10.9234C6.40101 10.1627 5.99999 9.13231 6 8.05805L6.00001 7.5435C6.00003 5.58647 7.4937 4 9.33624 4C9.75762 4 10.1752 4.08479 10.5669 4.24988L10.8953 4.38833C11.6005 4.68557 12.3859 4.68606 13.0914 4.38968L13.4265 4.24892C13.818 4.08445 14.2352 4 14.6563 4C16.503 4 18 5.59007 18 7.55152V8.05565C18 9.13128 17.5977 10.1628 16.8816 10.9234L16.8104 10.999C16.8036 11.0063 16.7989 11.0154 16.7968 11.0254L15.5471 16.987C15.4257 17.5661 14.942 17.9781 14.3834 17.9781C13.8861 17.9781 13.4411 17.6502 13.2668 17.1555L12.1083 13.8667C12.0726 13.7655 11.9368 13.7689 11.9057 13.8718L10.9517 17.0355C10.7755 17.6198 10.259 18.0119 9.68144 17.9997C9.0789 17.987 8.56271 17.5382 8.43194 16.9134Z" fill="black"/>
</svg>
