<svg width="24" height="24" viewBox="0 0 24 24" fill="none" xmlns="http://www.w3.org/2000/svg">
<path d="M5.38554 0.569968C5.62308 0.230631 6.09073 0.148105 6.43006 0.38564L10.2597 3.06641C11.255 3.76309 11.255 5.23704 10.2597 5.93372L6.8566 8.31591C6.78977 8.36269 6.74997 8.43914 6.74997 8.52072L6.74997 14.0001L6.74996 14.0026L6.99777 14.0021C7.55083 14.001 7.99978 14.449 7.99979 15.0021L7.99994 21.9946C7.99996 22.5462 7.55335 22.9936 7.00177 22.9946L5.00206 22.9982C4.44908 22.9992 4.00026 22.5513 4.00024 21.9983L4 15.0062C3.99998 14.4547 4.44647 14.0072 4.99798 14.0061L5.24999 14.0056L5.24997 14.0001L5.24997 8.52072C5.24997 7.94967 5.52859 7.41454 5.99641 7.08706L9.39954 4.70487C9.54172 4.60535 9.54172 4.39478 9.39954 4.29526L5.56987 1.61449C5.23053 1.37695 5.14801 0.909305 5.38554 0.569968Z" fill="black"/>
<path fill-rule="evenodd" clip-rule="evenodd" d="M17.5319 8.62393C19.3804 8.16286 20.75 6.4914 20.75 4.50006C20.75 2.15285 18.8472 0.250064 16.5 0.250064C14.1528 0.250064 12.25 2.15285 12.25 4.50006C12.25 6.59462 13.7652 8.33528 15.7593 8.68574L14.5029 10.8223C14.3441 11.0924 14.2603 11.3998 14.2603 11.7125V17.0038L13.9987 17.0041C13.4469 17.0048 13 17.4524 13 18.0042L13.0002 21.9989C13.0003 22.5516 13.4487 22.9995 14.0014 22.9988L16.0011 22.9964C16.553 22.9957 17 22.5482 16.9999 21.9964L16.9998 18.0014C16.9998 17.4486 16.5512 17.0007 15.9985 17.0014L15.7603 17.0017L15.7603 16.9963V11.7049C15.7603 11.6602 15.7723 11.6163 15.795 11.5777L17.5319 8.62393ZM16.5 2.25006C16.0858 2.25006 15.75 2.58585 15.75 3.00006C15.75 3.41428 16.0858 3.75006 16.5 3.75006C16.9142 3.75006 17.25 4.08585 17.25 4.50006C17.25 4.91428 17.5858 5.25006 18 5.25006C18.4142 5.25006 18.75 4.91428 18.75 4.50006C18.75 3.25742 17.7426 2.25006 16.5 2.25006Z" fill="black"/>
</svg>
