<svg width="24" height="24" viewBox="0 0 24 24" fill="none" xmlns="http://www.w3.org/2000/svg">
<path d="M9.7345 18.0773L10.9003 12.5138C10.9022 12.5048 10.9065 12.4964 10.9128 12.4896L10.9802 12.417C11.2991 12.0734 11.5491 11.6772 11.7218 11.25H8.5C8.4895 11.25 8.47905 11.2498 8.46866 11.2494C8.35787 11.681 7.96619 12 7.5 12H5.5C5.03381 12 4.64213 11.681 4.53134 11.2494C4.52095 11.2498 4.5105 11.25 4.5 11.25H1.5C1.41763 11.25 1.33837 11.2367 1.26423 11.2122C1.43779 11.6541 1.69377 12.0636 2.02293 12.4172L2.09029 12.4896C2.09664 12.4964 2.10099 12.5048 2.10287 12.514L3.26309 18.1462C3.36549 18.6433 3.80314 19 4.31068 19C4.76696 19 5.173 18.7105 5.32179 18.2792L6.39415 15.1705C6.42721 15.0746 6.56377 15.0775 6.59274 15.1747L7.48595 18.1708C7.63261 18.6628 8.08501 19 8.59837 19C9.14771 19 9.62183 18.6149 9.7345 18.0773Z" fill="black"/>
<path d="M1.00196 9.93922C1.13441 9.8215 1.30886 9.75 1.5 9.75H4.5C4.5105 9.75 4.52095 9.75022 4.53134 9.75064C4.64213 9.31901 5.03381 9 5.5 9H7.5C7.96619 9 8.35787 9.31901 8.46866 9.75064C8.47905 9.75022 8.4895 9.75 8.5 9.75H12L12 9.02487C12 7.35428 10.6457 6 8.97507 6C8.56732 6 8.16377 6.08244 7.78869 6.24236L7.5151 6.35901C6.87055 6.63382 6.14188 6.63427 5.49699 6.36024L5.21746 6.24146C4.84248 6.08212 4.43922 6 4.03179 6C2.35738 6 1 7.35738 1 9.03179V9.81677C1 9.85766 1.00066 9.89848 1.00196 9.93922Z" fill="black"/>
<path d="M20.7345 18.0773L21.9003 12.5138C21.9022 12.5048 21.9065 12.4964 21.9128 12.4896L21.9802 12.417C22.3086 12.0631 22.564 11.6536 22.737 11.2118C22.6625 11.2366 22.5828 11.25 22.5 11.25H19.5C19.4895 11.25 19.4791 11.2498 19.4687 11.2494C19.3579 11.681 18.9662 12 18.5 12H16.5C16.0338 12 15.6421 11.681 15.5313 11.2494C15.5209 11.2498 15.5105 11.25 15.5 11.25H12.2793C12.4525 11.6774 12.7032 12.0737 13.0229 12.4172L13.0903 12.4896C13.0966 12.4964 13.101 12.5048 13.1029 12.514L14.2631 18.1462C14.3655 18.6433 14.8031 19 15.3107 19C15.767 19 16.173 18.7105 16.3218 18.2792L17.3941 15.1705C17.4272 15.0746 17.5638 15.0775 17.5927 15.1747L18.486 18.1708C18.6326 18.6628 19.085 19 19.5984 19C20.1477 19 20.6218 18.6149 20.7345 18.0773Z" fill="black"/>
<path d="M12 9.75H15.5C15.5105 9.75 15.5209 9.75022 15.5313 9.75064C15.6421 9.31901 16.0338 9 16.5 9H18.5C18.9662 9 19.3579 9.31901 19.4687 9.75064C19.4791 9.75022 19.4895 9.75 19.5 9.75H22.5C22.6912 9.75 22.8656 9.82153 22.9981 9.93928C22.9994 9.89927 23 9.85918 23 9.81903L23 9.02487C23 7.35428 21.6457 6 19.9751 6C19.5673 6 19.1638 6.08244 18.7887 6.24236L18.5151 6.35901C17.8706 6.63382 17.1419 6.63427 16.497 6.36024L16.2175 6.24146C15.8425 6.08212 15.4392 6 15.0318 6C13.3574 6 12 7.35738 12 9.03179L12 9.75Z" fill="black"/>
</svg>
