<svg width="24" height="24" viewBox="0 0 24 24" fill="none" xmlns="http://www.w3.org/2000/svg">
<g clip-path="url(#clip0_1607_9174)">
<path d="M15.75 1C15.75 0.585786 15.4142 0.25 15 0.25C14.5858 0.25 14.25 0.585786 14.25 1H15.75ZM14.25 13C14.25 13.4142 14.5858 13.75 15 13.75C15.4142 13.75 15.75 13.4142 15.75 13H14.25ZM3 6.75C2.58579 6.75 2.25 7.08579 2.25 7.5C2.25 7.91421 2.58579 8.25 3 8.25V6.75ZM6.76009 5.19363L6.08075 5.51142L6.08075 5.51142L6.76009 5.19363ZM6.57893 5.19363L7.25827 5.51142L7.25827 5.51142L6.57893 5.19363ZM5.52696 7.44237L6.2063 7.76018L6.2063 7.76017L5.52696 7.44237ZM10.3608 7.5L11.0205 7.85685L11.0245 7.84929L10.3608 7.5ZM9.10296 9.82542L8.44328 9.46859L8.44328 9.4686L9.10296 9.82542ZM8.92443 9.82022L8.24509 10.138L8.24509 10.138L8.92443 9.82022ZM15 8.25C15.4142 8.25 15.75 7.91421 15.75 7.5C15.75 7.08579 15.4142 6.75 15 6.75V8.25ZM11.6484 7.44657L12.3121 7.09729L12.3121 7.09728L11.6484 7.44657ZM11.1071 6.41815L11.7708 6.06886L11.7708 6.06886L11.1071 6.41815ZM10.9302 6.41815L10.2665 6.06886L10.2665 6.06886L10.9302 6.41815ZM18.75 5.00005C18.75 4.58584 18.4142 4.25005 18 4.25005C17.5858 4.25005 17.25 4.58584 17.25 5.00005H18.75ZM17.25 5.03178C17.25 5.44599 17.5858 5.78178 18 5.78178C18.4142 5.78178 18.75 5.44599 18.75 5.03178H17.25ZM18.75 8.00005C18.75 7.58584 18.4142 7.25005 18 7.25005C17.5858 7.25005 17.25 7.58584 17.25 8.00005H18.75ZM17.25 8.03178C17.25 8.44599 17.5858 8.78178 18 8.78178C18.4142 8.78178 18.75 8.44599 18.75 8.03178H17.25ZM10 16L10 16.75H10L10 16ZM11 17L11.75 17L11.75 17L11 17ZM7 17L7.75 17L7.75 17L7 17ZM8 16L8 15.25L8 15.25L8 16ZM8 23L8 22.25L8 22.25L8 23ZM7 22L6.25 22L6.25 22L7 22ZM10 23L10 23.75L10 23.75L10 23ZM11 22L10.25 22L10.25 22L11 22ZM14 16L14 16.75H14V16ZM13 17L12.25 17V17H13ZM17 17L17.75 17L17.75 17L17 17ZM16 16L16 15.25H16V16ZM16 23L16 22.25H16V23ZM17 22L16.25 22L16.25 22L17 22ZM14 23L14 23.75H14V23ZM13 22L13.75 22V22H13ZM17 20.75C16.5858 20.75 16.25 21.0858 16.25 21.5C16.25 21.9142 16.5858 22.25 17 22.25V20.75ZM18.5 21.5L18.5 20.75H18.5V21.5ZM19.5 20.5L20.25 20.5V20.5H19.5ZM19.5 18.5L18.75 18.5V18.5H19.5ZM18.5 17.5L18.5 16.75H18.5V17.5ZM17 16.75C16.5858 16.75 16.25 17.0858 16.25 17.5C16.25 17.9142 16.5858 18.25 17 18.25V16.75ZM7 22.25C7.41421 22.25 7.75 21.9142 7.75 21.5C7.75 21.0858 7.41421 20.75 7 20.75V22.25ZM5.5 21.5L5.5 20.75L5.5 20.75L5.5 21.5ZM4.5 20.5L5.25 20.5L5.25 20.5L4.5 20.5ZM4.5 18.5L3.75 18.5L3.75 18.5L4.5 18.5ZM5.5 17.5L5.5 16.75H5.5L5.5 17.5ZM7 18.25C7.41421 18.25 7.75 17.9142 7.75 17.5C7.75 17.0858 7.41421 16.75 7 16.75V18.25ZM4 1.75H20V0.25H4V1.75ZM3.75 12V2H2.25V12H3.75ZM4 13.75H20V12.25H4V13.75ZM20.25 2V12H21.75V2H20.25ZM2.25 12C2.25 12.9665 3.0335 13.75 4 13.75V12.25C3.86193 12.25 3.75 12.1381 3.75 12H2.25ZM20 13.75C20.9665 13.75 21.75 12.9665 21.75 12H20.25C20.25 12.1381 20.1381 12.25 20 12.25V13.75ZM20 1.75C20.1381 1.75 20.25 1.86193 20.25 2H21.75C21.75 1.0335 20.9665 0.25 20 0.25V1.75ZM4 0.25C3.0335 0.25 2.25 1.0335 2.25 2H3.75C3.75 1.86193 3.86193 1.75 4 1.75V0.25ZM14.25 1V13H15.75V1H14.25ZM5.43638 6.75H3V8.25H5.43638V6.75ZM5.89959 4.87583L4.84762 7.12457L6.2063 7.76017L7.25827 5.51142L5.89959 4.87583ZM9.70112 7.14317L8.44328 9.46859L9.76264 10.1822L11.0205 7.85683L9.70112 7.14317ZM11.7369 8.25H15V6.75H11.7369V8.25ZM12.3121 7.09728L11.7708 6.06886L10.4434 6.76744L10.9847 7.79586L12.3121 7.09728ZM10.2665 6.06886L9.6971 7.15071L11.0245 7.84929L11.5939 6.76744L10.2665 6.06886ZM11.7708 6.06886C11.4522 5.46335 10.5851 5.46334 10.2665 6.06886L11.5939 6.76744C11.3502 7.23049 10.6871 7.23048 10.4434 6.76744L11.7708 6.06886ZM11.7369 6.75C11.9782 6.75 12.1997 6.88371 12.3121 7.09729L10.9847 7.79586C11.1317 8.07514 11.4213 8.25 11.7369 8.25V6.75ZM8.44328 9.4686C8.69726 8.99906 9.37758 9.01892 9.60377 9.50241L8.24509 10.138C8.54087 10.7703 9.43053 10.7962 9.76264 10.1822L8.44328 9.4686ZM7.43943 4.87583C7.13391 4.22272 6.20511 4.22272 5.89959 4.87583L7.25827 5.51142C7.02464 6.01086 6.31438 6.01086 6.08075 5.51142L7.43943 4.87583ZM5.43638 8.25C5.76634 8.25 6.06648 8.05905 6.2063 7.76018L4.84762 7.12457C4.95454 6.89602 5.18406 6.75 5.43638 6.75V8.25ZM3 9.25H2V10.75H3V9.25ZM0.25 11V18.5H1.75V11H0.25ZM2 20.25H4.5V18.75H2V20.25ZM0.25 18.5C0.25 19.4665 1.0335 20.25 2 20.25V18.75C1.86193 18.75 1.75 18.6381 1.75 18.5H0.25ZM2 9.25C1.0335 9.25 0.25 10.0335 0.25 11H1.75C1.75 10.8619 1.86193 10.75 2 10.75V9.25ZM21 10.75H22V9.25H21V10.75ZM22.25 11V18.5H23.75V11H22.25ZM22 18.75H19.5V20.25H22V18.75ZM22.25 18.5C22.25 18.6381 22.1381 18.75 22 18.75V20.25C22.9665 20.25 23.75 19.4665 23.75 18.5H22.25ZM22 10.75C22.1381 10.75 22.25 10.8619 22.25 11H23.75C23.75 10.0335 22.9665 9.25 22 9.25V10.75ZM17.25 5.00005V5.03178H18.75V5.00005H17.25ZM17.25 8.00005V8.03178H18.75V8.00005H17.25ZM10 22.25H8V23.75H10V22.25ZM7.75 22V17H6.25V22H7.75ZM8 16.75H10V15.25H8V16.75ZM10.25 17V22H11.75V17H10.25ZM10 16.75C10.1381 16.75 10.25 16.8619 10.25 17L11.75 17C11.75 16.0335 10.9665 15.25 10 15.25L10 16.75ZM7.75 17C7.75 16.8619 7.86193 16.75 8 16.75L8 15.25C7.0335 15.25 6.25 16.0335 6.25 17L7.75 17ZM8 22.25C7.86193 22.25 7.75 22.1381 7.75 22L6.25 22C6.25 22.9665 7.0335 23.75 8 23.75L8 22.25ZM10 23.75C10.9665 23.75 11.75 22.9665 11.75 22L10.25 22C10.25 22.1381 10.1381 22.25 10 22.25L10 23.75ZM14 23.75H16V22.25H14V23.75ZM17.75 22L17.75 17L16.25 17L16.25 22L17.75 22ZM16 15.25H14V16.75H16V15.25ZM12.25 17V22H13.75V17H12.25ZM14 15.25C13.0335 15.25 12.25 16.0335 12.25 17L13.75 17C13.75 16.8619 13.8619 16.75 14 16.75L14 15.25ZM17.75 17C17.75 16.0335 16.9665 15.25 16 15.25L16 16.75C16.1381 16.75 16.25 16.8619 16.25 17L17.75 17ZM16 23.75C16.9665 23.75 17.75 22.9665 17.75 22L16.25 22C16.25 22.1381 16.1381 22.25 16 22.25L16 23.75ZM14 22.25C13.8619 22.25 13.75 22.1381 13.75 22L12.25 22C12.25 22.9665 13.0335 23.75 14 23.75L14 22.25ZM17 22.25H18.5V20.75H17V22.25ZM20.25 20.5V18.5H18.75V20.5H20.25ZM18.5 16.75H17V18.25H18.5V16.75ZM20.25 18.5C20.25 17.5335 19.4665 16.75 18.5 16.75L18.5 18.25C18.6381 18.25 18.75 18.3619 18.75 18.5L20.25 18.5ZM18.5 22.25C19.4665 22.25 20.25 21.4665 20.25 20.5L18.75 20.5C18.75 20.6381 18.6381 20.75 18.5 20.75L18.5 22.25ZM7 20.75H5.5V22.25H7V20.75ZM5.25 20.5L5.25 18.5L3.75 18.5L3.75 20.5L5.25 20.5ZM5.5 18.25H7V16.75H5.5V18.25ZM5.25 18.5C5.25 18.3619 5.36193 18.25 5.5 18.25L5.5 16.75C4.5335 16.75 3.75 17.5335 3.75 18.5L5.25 18.5ZM5.5 20.75C5.36193 20.75 5.25 20.6381 5.25 20.5L3.75 20.5C3.75 21.4665 4.5335 22.25 5.5 22.25L5.5 20.75ZM9.60377 9.50242L7.43943 4.87583L6.08075 5.51142L8.24509 10.138L9.60377 9.50242Z" fill="black"/>
</g>
<defs>
<clipPath id="clip0_1607_9174">
<rect width="24" height="24" fill="white"/>
</clipPath>
</defs>
</svg>
