<svg width="24" height="24" viewBox="0 0 24 24" fill="none" xmlns="http://www.w3.org/2000/svg">
<path d="M10 16.7101C7.10851 15.8496 5 13.171 5 10V1.15238C5 1.06822 5.06822 1 5.15238 1H18.8476C18.9318 1 19 1.06822 19 1.15238V10C19 13.171 16.8915 15.8496 14 16.7101M10 20H14M9 10V10.0317M12 10V10.0317M15 10V10.0317M13 23H11C10.4477 23 10 22.5523 10 22L10 14C10 13.4477 10.4477 13 11 13H13C13.5523 13 14 13.4477 14 14L14 22C14 22.5523 13.5523 23 13 23ZM9 7H15C15.5523 7 16 6.55228 16 6V5C16 4.44772 15.5523 4 15 4H9C8.44772 4 8 4.44772 8 5V6C8 6.55228 8.44772 7 9 7Z" stroke="black" stroke-width="1.5" stroke-linecap="round"/>
</svg>
