<svg width="24" height="24" viewBox="0 0 24 24" fill="none" xmlns="http://www.w3.org/2000/svg">
<path d="M13.375 17V16.25C12.9608 16.25 12.625 16.5858 12.625 17H13.375ZM10.625 17H11.375C11.375 16.5858 11.0392 16.25 10.625 16.25V17ZM15 8.66667L15 7.91667H15V8.66667ZM13.4333 8.66667L13.4333 9.41667H13.4333V8.66667ZM10.5667 8.66667L10.5667 7.91667H10.5667V8.66667ZM4 3.75H20V2.25H4V3.75ZM20.25 4V17H21.75V4H20.25ZM3.75 17V4H2.25V17H3.75ZM20 3.75C20.1381 3.75 20.25 3.86193 20.25 4H21.75C21.75 3.0335 20.9665 2.25 20 2.25V3.75ZM4 2.25C3.0335 2.25 2.25 3.0335 2.25 4H3.75C3.75 3.86193 3.86193 3.75 4 3.75V2.25ZM4.97906 21.75H19.0209V20.25H4.97906V21.75ZM22.9791 16.25H13.375V17.75H22.9791V16.25ZM10.625 16.25H1.02094V17.75H10.625V16.25ZM11.375 17.3333V17H9.875V17.3333H11.375ZM12.625 17V17.3333H14.125V17H12.625ZM12.375 17.5833H11.625V19.0833H12.375V17.5833ZM12.625 17.3333C12.625 17.4714 12.5131 17.5833 12.375 17.5833V19.0833C13.3415 19.0833 14.125 18.2998 14.125 17.3333H12.625ZM9.875 17.3333C9.875 18.2998 10.6585 19.0833 11.625 19.0833V17.5833C11.4869 17.5833 11.375 17.4714 11.375 17.3333H9.875ZM19.0209 21.75C21.6327 21.75 23.75 19.6327 23.75 17.0209H22.25C22.25 18.8043 20.8043 20.25 19.0209 20.25V21.75ZM0.25 17.0209C0.25 19.6327 2.36727 21.75 4.97906 21.75V20.25C3.1957 20.25 1.75 18.8043 1.75 17.0209H0.25ZM1.75 17.0209C1.75 17.4236 1.42359 17.75 1.02094 17.75V16.25C0.595165 16.25 0.25 16.5952 0.25 17.0209H1.75ZM23.75 17.0209C23.75 16.5952 23.4048 16.25 22.9791 16.25V17.75C22.5764 17.75 22.25 17.4236 22.25 17.0209H23.75ZM12.3333 6.75C12.4714 6.75 12.5833 6.86193 12.5833 7H14.0833C14.0833 6.0335 13.2998 5.25 12.3333 5.25V6.75ZM11.6667 6.75H12.3333V5.25H11.6667V6.75ZM11.4167 7C11.4167 6.86193 11.5286 6.75 11.6667 6.75V5.25C10.7002 5.25 9.91667 6.0335 9.91667 7H11.4167ZM11.4167 8.56667V7H9.91667V8.56667H11.4167ZM9 9.41667H10.5667V7.91667H9V9.41667ZM8.75 9.66667C8.75 9.5286 8.86193 9.41667 9 9.41667V7.91667C8.0335 7.91667 7.25 8.70017 7.25 9.66667H8.75ZM8.75 10.3333V9.66667H7.25V10.3333H8.75ZM9 10.5833C8.86193 10.5833 8.75 10.4714 8.75 10.3333H7.25C7.25 11.2998 8.0335 12.0833 9 12.0833V10.5833ZM10.5667 10.5833H9V12.0833H10.5667V10.5833ZM11.4167 13V11.4333H9.91667V13H11.4167ZM11.6667 13.25C11.5286 13.25 11.4167 13.1381 11.4167 13H9.91667C9.91667 13.9665 10.7002 14.75 11.6667 14.75V13.25ZM12.3333 13.25H11.6667V14.75H12.3333V13.25ZM12.5833 13C12.5833 13.1381 12.4714 13.25 12.3333 13.25V14.75C13.2998 14.75 14.0833 13.9665 14.0833 13H12.5833ZM12.5833 11.4333V13H14.0833V11.4333H12.5833ZM15 10.5833H13.4333V12.0833H15V10.5833ZM15.25 10.3333C15.25 10.4714 15.1381 10.5833 15 10.5833V12.0833C15.9665 12.0833 16.75 11.2998 16.75 10.3333H15.25ZM15.25 9.66667V10.3333H16.75V9.66667H15.25ZM15 9.41667C15.1381 9.41667 15.25 9.5286 15.25 9.66667H16.75C16.75 8.70017 15.9665 7.91667 15 7.91667L15 9.41667ZM13.4333 9.41667H15V7.91667H13.4333V9.41667ZM12.5833 7V8.56667H14.0833V7H12.5833ZM13.4333 7.91667C13.7923 7.91667 14.0833 8.20769 14.0833 8.56667H12.5833C12.5833 9.0361 12.9639 9.41667 13.4333 9.41667L13.4333 7.91667ZM14.0833 11.4333C14.0833 11.7923 13.7923 12.0833 13.4333 12.0833V10.5833C12.9639 10.5833 12.5833 10.9639 12.5833 11.4333H14.0833ZM10.5667 12.0833C10.2077 12.0833 9.91667 11.7923 9.91667 11.4333H11.4167C11.4167 10.9639 11.0361 10.5833 10.5667 10.5833V12.0833ZM9.91667 8.56667C9.91667 8.20769 10.2077 7.91667 10.5667 7.91667L10.5667 9.41667C11.0361 9.41667 11.4167 9.0361 11.4167 8.56667H9.91667Z" fill="black"/>
</svg>
