<svg width="24" height="24" viewBox="0 0 24 24" fill="none" xmlns="http://www.w3.org/2000/svg">
<path d="M9.5 4H14.5M12 20V20.0318M7 23H17C17.5523 23 18 22.5523 18 22V2C18 1.44772 17.5523 1 17 1H7C6.44772 1 6 1.44772 6 2V22C6 22.5523 6.44772 23 7 23ZM12.3333 8C12.8856 8 13.3333 8.44772 13.3333 9V10.5667C13.3333 10.6219 13.3781 10.6667 13.4333 10.6667H15C15.5523 10.6667 16 11.1144 16 11.6667V12.3333C16 12.8856 15.5523 13.3333 15 13.3333H13.4333C13.3781 13.3333 13.3333 13.3781 13.3333 13.4333V15C13.3333 15.5523 12.8856 16 12.3333 16H11.6667C11.1144 16 10.6667 15.5523 10.6667 15V13.4333C10.6667 13.3781 10.6219 13.3333 10.5667 13.3333H9C8.44772 13.3333 8 12.8856 8 12.3333V11.6667C8 11.1144 8.44772 10.6667 9 10.6667H10.5667C10.6219 10.6667 10.6667 10.6219 10.6667 10.5667V9C10.6667 8.44772 11.1144 8 11.6667 8H12.3333Z" stroke="black" stroke-width="1.5" stroke-linecap="round"/>
</svg>
