<svg width="24" height="24" viewBox="0 0 24 24" fill="none" xmlns="http://www.w3.org/2000/svg">
<path d="M16 16V22C16 22.5523 15.5523 23 15 23H5C4.44772 23 4 22.5523 4 22V2C4 1.44772 4.44772 1 5 1H15C15.5523 1 16 1.44772 16 2V5M10 20V20.0318M7.5 4H12.5M17.3332 5C17.8854 5 18.3332 5.44772 18.3332 6V8.56662C18.3332 8.62185 18.3779 8.66662 18.4332 8.66662H21C21.5523 8.66662 22 9.11434 22 9.66662V11.3333C22 11.8856 21.5523 12.3333 21 12.3333H18.4332C18.3779 12.3333 18.3332 12.3781 18.3332 12.4333V15C18.3332 15.5523 17.8854 16 17.3332 16H15.6665C15.1142 16 14.6665 15.5523 14.6665 15V12.4333C14.6665 12.3781 14.6217 12.3333 14.5665 12.3333H12C11.4477 12.3333 11 11.8856 11 11.3333V9.66662C11 9.11434 11.4477 8.66662 12 8.66662H14.5665C14.6217 8.66662 14.6665 8.62185 14.6665 8.56662L14.6665 6C14.6665 5.44771 15.1142 5 15.6665 5H17.3332Z" stroke="black" stroke-width="1.5" stroke-linecap="round"/>
</svg>
