<svg width="24" height="24" viewBox="0 0 24 24" fill="none" xmlns="http://www.w3.org/2000/svg">
<path d="M18.7083 23C20.1334 21.3016 21 19.0587 21 16.6C21 11.4812 17.2441 7.2981 12.5115 7.01525M21 23H3M5.5 14V15.5C5.5 16.0523 5.94772 16.5 6.5 16.5H7.5C8.05228 16.5 8.5 16.0523 8.5 15.5L8.5 14M8.5 3V2C8.5 1.44772 8.05228 1 7.5 1L6.5 1C5.94772 1 5.5 1.44771 5.5 2L5.5 3M12 23C15.3137 23 18 20.0899 18 16.5C18 13.0868 15.5716 10.288 12.4843 10.0209M9 20V23M5 23V20M10 20H4M10 6.05001V4C10 3.44772 9.55228 3 9 3L5 3C4.44772 3 4 3.44771 4 4L4 13C4 13.5523 4.44772 14 5 14H9C9.55228 14 10 13.5523 10 13V10.95M12.4843 10.0209C12.8078 9.59952 13 9.07221 13 8.5C13 7.94402 12.8185 7.43043 12.5115 7.01525M12.4843 10.0209C12.0274 10.6162 11.3085 11 10.5 11C9.11929 11 8 9.88071 8 8.5C8 7.11929 9.11929 6 10.5 6C11.3247 6 12.0562 6.39936 12.5115 7.01525" stroke="black" stroke-width="1.5" stroke-linecap="round"/>
</svg>
