<svg width="24" height="24" viewBox="0 0 24 24" fill="none" xmlns="http://www.w3.org/2000/svg">
<g clip-path="url(#clip0_1607_9233)">
<path d="M1 9.5H7.43412C7.47409 9.5 7.51023 9.4762 7.526 9.43947L8.91178 6.21386C8.94645 6.13316 9.06087 6.13316 9.09554 6.21386L11.9257 12.8015C11.9593 12.8797 12.0692 12.8828 12.1071 12.8065L13.7496 9.5L14.5054 7.93629C14.5418 7.86097 14.649 7.86097 14.6854 7.93629L15.4139 9.44352C15.4306 9.47805 15.4656 9.5 15.5039 9.5H23M1 17H23M5 20V20.0318M9 20V20.0318M2 23H22C22.5523 23 23 22.5523 23 22V2C23 1.44772 22.5523 1 22 1H2C1.44772 1 1 1.44772 1 2V22C1 22.5523 1.44772 23 2 23Z" stroke="black" stroke-width="1.5" stroke-linecap="round"/>
</g>
<defs>
<clipPath id="clip0_1607_9233">
<rect width="24" height="24" fill="white"/>
</clipPath>
</defs>
</svg>
