<svg width="24" height="24" viewBox="0 0 24 24" fill="none" xmlns="http://www.w3.org/2000/svg">
<path d="M12 20V20.0318M9.5 4H14.5M7 1H17C17.5523 1 18 1.44772 18 2V22C18 22.5523 17.5523 23 17 23H7C6.44772 23 6 22.5523 6 22V2C6 1.44772 6.44772 1 7 1ZM13.8523 8.85409C13.8523 9.87808 13.0222 10.7082 11.9982 10.7082C10.9743 10.7082 10.1442 9.87808 10.1442 8.85409C10.1442 7.8301 10.9743 7 11.9982 7C13.0222 7 13.8523 7.8301 13.8523 8.85409ZM7.88 16.7974C7.90221 14.5409 9.73829 12.7186 12 12.7186C14.2617 12.7186 16.0978 14.5409 16.12 16.7974C16.1202 16.8202 16.1018 16.8388 16.079 16.8388H7.921C7.89824 16.8388 7.87978 16.8202 7.88 16.7974Z" stroke="black" stroke-width="1.5" stroke-linecap="round"/>
</svg>
