<svg width="24" height="24" viewBox="0 0 24 24" fill="none" xmlns="http://www.w3.org/2000/svg">
<path d="M21 17V4C21 3.44772 20.5523 3 20 3H4C3.44772 3 3 3.44772 3 4V17M7.0127 17C7.19721 14.4066 9.35956 12.36 11.9999 12.36C14.6403 12.36 16.8027 14.4066 16.9872 17M4.97906 21H19.0209C21.2185 21 23 19.2185 23 17.0209C23 17.0094 22.9906 17 22.9791 17H13.375V17.3333C13.375 17.8856 12.9273 18.3333 12.375 18.3333H11.625C11.0727 18.3333 10.625 17.8856 10.625 17.3333V17H1.02094C1.00938 17 1 17.0094 1 17.0209C1 19.2185 2.78148 21 4.97906 21ZM14.2499 8.25C14.2499 9.49264 13.2426 10.5 11.9999 10.5C10.7573 10.5 9.74993 9.49264 9.74993 8.25C9.74993 7.00736 10.7573 6 11.9999 6C13.2426 6 14.2499 7.00736 14.2499 8.25Z" stroke="black" stroke-width="1.5" stroke-linecap="round" stroke-linejoin="round"/>
</svg>
