<svg width="24" height="24" viewBox="0 0 24 24" fill="none" xmlns="http://www.w3.org/2000/svg">
<path d="M9.65314 14.8858L10.3808 14.7039L10.3807 14.7036L9.65314 14.8858ZM14.3467 14.8858L13.6195 14.7022L13.6191 14.7039L14.3467 14.8858ZM9.62958 18.279L8.88136 18.2274L9.62958 18.279ZM9.7713 16.2241L9.02308 16.1725L9.02308 16.1725L9.7713 16.2241ZM14.2285 16.2241L13.4803 16.2757L13.4803 16.2757L14.2285 16.2241ZM14.3702 18.2787L15.1184 18.2271L15.1184 18.2271L14.3702 18.2787ZM11.25 23C11.25 23.4142 11.5859 23.75 12.0001 23.7499C12.4143 23.7499 12.75 23.4141 12.75 22.9998L11.25 23ZM2.50502 3.92364C2.19383 4.19701 2.16316 4.6709 2.43653 4.98209C2.7099 5.29328 3.18379 5.32395 3.49498 5.05058L2.50502 3.92364ZM20.505 5.05057C20.8162 5.32394 21.2901 5.29327 21.5635 4.98208C21.8368 4.67088 21.8062 4.197 21.495 3.92363L20.505 5.05057ZM4.94938 6.44853C4.64481 6.72926 4.62549 7.20374 4.90622 7.50831C5.18696 7.81288 5.66144 7.8322 5.96601 7.55147L4.94938 6.44853ZM18.034 7.55145C18.3386 7.83219 18.813 7.81286 19.0938 7.50829C19.3745 7.20372 19.3552 6.72924 19.0506 6.44851L18.034 7.55145ZM8.24969 11.5925L8.99897 11.6254L8.99897 11.6254L8.24969 11.5925ZM15.7534 11.5912L16.5027 11.5573L16.5027 11.5573L15.7534 11.5912ZM15.6794 9.95482L14.9302 9.98871L14.9302 9.98871L15.6794 9.95482ZM8.32154 9.95613L7.57227 9.92323L7.57227 9.92323L8.32154 9.95613ZM12.75 16C12.75 15.5858 12.4142 15.25 12 15.25C11.5858 15.25 11.25 15.5858 11.25 16H12.75ZM11.25 16.0272C11.25 16.4415 11.5858 16.7772 12 16.7772C12.4142 16.7772 12.75 16.4415 12.75 16.0272H11.25ZM10.3778 18.3306L10.5195 16.2757L9.02308 16.1725L8.88136 18.2274L10.3778 18.3306ZM13.4803 16.2757L13.622 18.3303L15.1184 18.2271L14.9767 16.1725L13.4803 16.2757ZM13.622 18.3303C13.6868 19.2702 12.9419 20.0683 11.9998 20.0683V21.5683C13.8109 21.5683 15.2431 20.034 15.1184 18.2271L13.622 18.3303ZM11.9998 20.0683C11.0578 20.0683 10.313 19.2703 10.3778 18.3306L8.88136 18.2274C8.75676 20.0341 10.1888 21.5683 11.9998 21.5683V20.0683ZM13.6191 14.7039C13.4907 15.2173 13.4439 15.7477 13.4803 16.2757L14.9767 16.1725C14.9512 15.8014 14.9841 15.4285 15.0743 15.0677L13.6191 14.7039ZM8.92554 15.0677C9.01576 15.4285 9.04867 15.8014 9.02308 16.1725L10.5195 16.2757C10.5559 15.7477 10.5091 15.2173 10.3808 14.7039L8.92554 15.0677ZM11.2498 20.8184L11.25 23L12.75 22.9998L12.7498 20.8182L11.2498 20.8184ZM3.49498 5.05058C5.85977 2.97321 8.80933 1.75 12 1.75V0.25C8.41195 0.25 5.11767 1.62855 2.50502 3.92364L3.49498 5.05058ZM12 1.75C15.1907 1.75 18.1402 2.9732 20.505 5.05057L21.495 3.92363C18.8823 1.62854 15.5881 0.25 12 0.25V1.75ZM5.96601 7.55147C7.64784 6.00126 9.74199 5.09587 12 5.09587V3.59587C9.32378 3.59587 6.8761 4.6726 4.94938 6.44853L5.96601 7.55147ZM12 5.09587C14.258 5.09587 16.3522 6.00126 18.034 7.55145L19.0506 6.44851C17.1239 4.67259 14.6762 3.59587 12 3.59587V5.09587ZM9.32058 9.75H14.6805V8.25H9.32058V9.75ZM14.9302 9.98871L15.0042 11.6251L16.5027 11.5573L16.4287 9.92094L14.9302 9.98871ZM14.7545 11.8864H9.24873V13.3864H14.7545V11.8864ZM8.99897 11.6254L9.07082 9.98903L7.57227 9.92323L7.50041 11.5596L8.99897 11.6254ZM14.6805 9.75C14.8141 9.75 14.9242 9.85516 14.9302 9.98871L16.4287 9.92094C16.3864 8.98614 15.6162 8.25 14.6805 8.25V9.75ZM9.32058 8.25C8.38394 8.25 7.61335 8.98749 7.57227 9.92323L9.07082 9.98903C9.07669 9.85536 9.18677 9.75 9.32058 9.75V8.25ZM11.25 16V16.0272H12.75V16H11.25ZM9.24873 11.8864C9.23401 11.8864 9.22018 11.8852 9.20717 11.8831L8.96633 13.3636C9.05871 13.3786 9.15308 13.3864 9.24873 13.3864V11.8864ZM9.20717 11.8831C9.0851 11.8632 8.99337 11.753 8.99897 11.6254L7.50041 11.5596C7.4609 12.4596 8.1062 13.2237 8.96633 13.3636L9.20717 11.8831ZM10.3807 14.7036L9.8143 12.4412L8.3592 12.8055L8.9256 15.0679L10.3807 14.7036ZM15.0042 11.6251C15.01 11.7527 14.9184 11.863 14.7964 11.883L15.0394 13.3632C15.8991 13.2221 16.5434 12.4573 16.5027 11.5573L15.0042 11.6251ZM14.7964 11.883C14.7833 11.8852 14.7693 11.8864 14.7545 11.8864V13.3864C14.851 13.3864 14.9462 13.3785 15.0394 13.3632L14.7964 11.883ZM14.1907 12.4395L13.6195 14.7022L15.0739 15.0693L15.6451 12.8067L14.1907 12.4395Z" fill="black"/>
</svg>
