<svg width="24" height="24" viewBox="0 0 24 24" fill="none" xmlns="http://www.w3.org/2000/svg">
<path d="M19.7409 21C19.7409 20.5858 19.4051 20.25 18.9909 20.25C18.5767 20.25 18.2409 20.5858 18.2409 21H19.7409ZM18.2409 21.0318C18.2409 21.446 18.5767 21.7818 18.9909 21.7818C19.4051 21.7818 19.7409 21.446 19.7409 21.0318H18.2409ZM4.07392 19.1513L4.81529 19.0379L4.81529 19.0379L4.07392 19.1513ZM20.4902 3.8156L19.7488 3.70221L19.7488 3.70221L20.4902 3.8156ZM19.9124 2.76612L19.6232 3.45811L19.6232 3.45811L19.9124 2.76612ZM1.72837 3.8156L0.986992 3.929L0.986992 3.929L1.72837 3.8156ZM2.30613 2.76612L2.59534 3.45811L2.30613 2.76612ZM6.11448 16.4591L5.3731 16.5725L6.11448 16.4591ZM16.9758 10.7631L17.7171 10.8769L17.7172 10.8765L16.9758 10.7631ZM5.24329 10.7631L5.98467 10.6497L5.98467 10.6497L5.24329 10.7631ZM5.46812 4.21699L5.72127 4.92298L5.46812 4.21699ZM16.751 4.21699L16.4978 4.92298L16.751 4.21699ZM10.4663 6.99016C10.2533 7.3454 10.3685 7.80606 10.7238 8.0191C11.079 8.23213 11.5397 8.11685 11.7527 7.76161L10.4663 6.99016ZM13.0475 5.60252C13.2605 5.24729 13.1453 4.78662 12.79 4.57359C12.4348 4.36056 11.9741 4.47584 11.7611 4.83107L13.0475 5.60252ZM15.8801 12.9571C15.8172 13.3666 16.0981 13.7494 16.5075 13.8123C16.9169 13.8752 17.2998 13.5943 17.3627 13.1848L15.8801 12.9571ZM18.3441 12.8866C18.2814 13.2961 18.5626 13.6788 18.972 13.7414C19.3815 13.804 19.7642 13.5228 19.8268 13.1134L18.3441 12.8866ZM15.9878 20.75C16.402 20.75 16.7378 20.4142 16.7378 20C16.7378 19.5858 16.402 19.25 15.9878 19.25V20.75ZM18.2409 21V21.0318H19.7409V21H18.2409ZM4.81529 19.0379L2.46975 3.70221L0.986992 3.929L3.33254 19.2647L4.81529 19.0379ZM2.59534 3.45811C8.04478 1.18063 14.1737 1.18063 19.6232 3.45811L20.2016 2.07412C14.3821 -0.35804 7.83646 -0.35804 2.01693 2.07412L2.59534 3.45811ZM5.0619 19.25C4.93899 19.25 4.834 19.1602 4.81529 19.0379L3.33254 19.2647C3.46317 20.1187 4.19757 20.75 5.0619 20.75V19.25ZM21.2315 3.929C21.3489 3.1615 20.9453 2.38493 20.2016 2.07412L19.6232 3.45811C19.7041 3.49192 19.7666 3.58592 19.7488 3.70221L21.2315 3.929ZM2.46975 3.70221C2.45196 3.58592 2.51446 3.49192 2.59534 3.45811L2.01693 2.07412C1.27324 2.38493 0.869606 3.1615 0.986992 3.929L2.46975 3.70221ZM15.9925 16.5578H7.10246V18.0578H15.9925V16.5578ZM6.85585 16.3457L5.98467 10.6497L4.50191 10.8765L5.3731 16.5725L6.85585 16.3457ZM6.23128 10.3618H15.9878V8.86182H6.23128V10.3618ZM7.10246 16.5578C6.97955 16.5578 6.87456 16.468 6.85585 16.3457L5.3731 16.5725C5.50373 17.4265 6.23813 18.0578 7.10246 18.0578V16.5578ZM17.7172 10.8765C17.8792 9.81729 17.0599 8.86182 15.9878 8.86182V10.3618C16.1402 10.3618 16.2577 10.4978 16.2344 10.6497L17.7172 10.8765ZM5.98467 10.6497C5.96145 10.4978 6.07888 10.3618 6.23128 10.3618V8.86182C5.15918 8.86182 4.33991 9.81729 4.50191 10.8765L5.98467 10.6497ZM16.4019 4.78685V6.37591H17.9019V4.78685H16.4019ZM16.1524 6.62591H6.06669V8.12591H16.1524V6.62591ZM5.81721 6.37591V4.78685H4.31721V6.37591H5.81721ZM5.72127 4.92298C9.20497 3.67379 13.0141 3.67379 16.4978 4.92298L17.0041 3.51101C13.1931 2.14445 9.026 2.14445 5.21497 3.51101L5.72127 4.92298ZM6.06669 6.62591C5.92927 6.62591 5.81721 6.51434 5.81721 6.37591H4.31721C4.31721 7.34204 5.10012 8.12591 6.06669 8.12591V6.62591ZM16.4019 6.37591C16.4019 6.51435 16.2898 6.62591 16.1524 6.62591V8.12591C17.119 8.12591 17.9019 7.34204 17.9019 6.37591H16.4019ZM17.9019 4.78685C17.9019 4.21486 17.5428 3.70417 17.0041 3.51101L16.4978 4.92298C16.4401 4.90227 16.4019 4.84768 16.4019 4.78685H17.9019ZM5.81721 4.78685C5.81721 4.84768 5.77901 4.90227 5.72127 4.92298L5.21497 3.51101C4.67628 3.70417 4.31721 4.21486 4.31721 4.78685H5.81721ZM11.7527 7.76161L13.0475 5.60252L11.7611 4.83107L10.4663 6.99016L11.7527 7.76161ZM16.2345 10.6492L15.8801 12.9571L17.3627 13.1848L17.7171 10.8769L16.2345 10.6492ZM19.7488 3.70221L18.3441 12.8866L19.8268 13.1134L21.2315 3.929L19.7488 3.70221ZM15.9878 19.25H5.0619V20.75H15.9878V19.25ZM16.992 13.75H20.7173V12.25H16.992V13.75ZM16.7425 22V14H15.2425V22H16.7425ZM16.992 23.75H20.7173V22.25H16.992V23.75ZM20.9668 14V22H22.4668V14H20.9668ZM15.2425 22C15.2425 22.9661 16.0254 23.75 16.992 23.75V22.25C16.8545 22.25 16.7425 22.1384 16.7425 22H15.2425ZM20.7173 23.75C21.6839 23.75 22.4668 22.9661 22.4668 22H20.9668C20.9668 22.1384 20.8547 22.25 20.7173 22.25V23.75ZM20.7173 13.75C20.8547 13.75 20.9668 13.8616 20.9668 14H22.4668C22.4668 13.0339 21.6839 12.25 20.7173 12.25V13.75ZM16.992 12.25C16.0254 12.25 15.2425 13.0339 15.2425 14H16.7425C16.7425 13.8616 16.8545 13.75 16.992 13.75V12.25Z" fill="#251111"/>
</svg>
