<svg width="24" height="24" viewBox="0 0 24 24" fill="none" xmlns="http://www.w3.org/2000/svg">
<path d="M11.9995 10C14.4848 10 16.4995 7.98528 16.4995 5.5C16.4995 3.01472 14.4848 1 11.9995 1C9.51423 1 7.49951 3.01472 7.49951 5.5C7.49951 7.98528 9.51423 10 11.9995 10Z" fill="black"/>
<path d="M11.84 14.8903L9.84956 13.2317C10.5421 13.08 11.2615 13 11.9995 13C12.7378 13 13.4575 13.08 14.1502 13.2319L12.16 14.8903C12.0673 14.9676 11.9327 14.9676 11.84 14.8903Z" fill="black"/>
<path d="M15.25 14.2679L13.1203 16.0427C12.4713 16.5835 11.5287 16.5835 10.8797 16.0427L8.75 14.2679V16.3535C9.90425 16.68 10.75 17.7412 10.75 19V20C10.75 20.6903 10.1904 21.25 9.50001 21.25C9.0858 21.25 8.75001 20.9142 8.75 20.5C8.75 20.1735 8.9587 19.8956 9.25 19.7927L9.25 19C9.25 18.3096 8.69036 17.75 8 17.75C7.30964 17.75 6.75 18.3096 6.75 19L6.75 19.7927C7.0413 19.8956 7.25 20.1734 7.25 20.5C7.25 20.9142 6.91421 21.25 6.5 21.25C5.80964 21.25 5.25 20.6904 5.25 20L5.25 19C5.25 17.7412 6.09575 16.68 7.25 16.3535V14.1977C4.15096 15.8734 2.03703 19.1379 2 22.8995C1.99946 22.9548 2.04428 23 2.09951 23H21.8995C21.9547 23 21.9996 22.9548 21.999 22.8995C21.962 19.1383 19.8485 15.8741 16.75 14.1982V16.3535C17.9043 16.68 18.75 17.7412 18.75 19C18.75 20.5188 17.5188 21.75 16 21.75C14.4812 21.75 13.25 20.5188 13.25 19C13.25 17.7412 14.0957 16.68 15.25 16.3535V14.2679Z" fill="black"/>
<path d="M14.75 19C14.75 18.3096 15.3096 17.75 16 17.75C16.6904 17.75 17.25 18.3096 17.25 19C17.25 19.6904 16.6904 20.25 16 20.25C15.3096 20.25 14.75 19.6904 14.75 19Z" fill="black"/>
</svg>
