<svg width="24" height="24" viewBox="0 0 24 24" fill="none" xmlns="http://www.w3.org/2000/svg">
<g clip-path="url(#clip0_1607_10807)">
<path fill-rule="evenodd" clip-rule="evenodd" d="M14.6766 0.858705C14.7547 0.311971 15.2612 -0.0679272 15.8079 0.0101779L22.1503 0.916241C22.6343 0.985381 23.0146 1.36565 23.0837 1.84962L23.9898 8.19203C24.0679 8.73876 23.688 9.2453 23.1412 9.3234C22.5945 9.40151 22.088 9.02161 22.0099 8.47487L21.3761 4.03826L14.3199 11.0945C15.3729 12.4492 16 14.1514 16 16.0001C16 20.4184 12.4183 24.0001 8 24.0001C3.58172 24.0001 0 20.4184 0 16.0001C0 11.5819 3.58172 8.00013 8 8.00013C9.84871 8.00013 11.551 8.62721 12.9056 9.68027L19.962 2.62392L15.5251 1.99008C14.9783 1.91197 14.5984 1.40544 14.6766 0.858705ZM8 22.0001C11.3137 22.0001 14 19.3138 14 16.0001C14 12.6864 11.3137 10.0001 8 10.0001C4.68629 10.0001 2 12.6864 2 16.0001C2 19.3138 4.68629 22.0001 8 22.0001Z" fill="black"/>
</g>
<defs>
<clipPath id="clip0_1607_10807">
<rect width="24" height="24" fill="white"/>
</clipPath>
</defs>
</svg>
