<svg width="24" height="24" viewBox="0 0 24 24" fill="none" xmlns="http://www.w3.org/2000/svg">
<path fill-rule="evenodd" clip-rule="evenodd" d="M1.80919 6.77987C1.34111 6.90753 1.03219 7.35277 1.07648 7.83592L2.03541 18.297C2.06754 18.6475 2.42865 18.8678 2.75499 18.7359C8.68538 16.3398 15.3144 16.3398 21.2448 18.7359C21.5712 18.8678 21.9323 18.6475 21.9644 18.297L22.9233 7.83592C22.9676 7.35277 22.6587 6.90753 22.1906 6.77987L12.263 4.07235C12.0908 4.02536 11.9091 4.02536 11.7368 4.07235L1.80919 6.77987ZM12.3332 6.50059C12.8855 6.50059 13.3332 6.9483 13.3332 7.50059V9.06725C13.3332 9.12248 13.378 9.16725 13.4332 9.16725H14.9999C15.5522 9.16725 15.9999 9.61497 15.9999 10.1673V10.8339C15.9999 11.3862 15.5522 11.8339 14.9999 11.8339H13.4332C13.378 11.8339 13.3332 11.8787 13.3332 11.9339V13.5006C13.3332 14.0529 12.8855 14.5006 12.3332 14.5006H11.6666C11.1143 14.5006 10.6666 14.0529 10.6666 13.5006V11.9339C10.6666 11.8787 10.6218 11.8339 10.5666 11.8339H8.99991C8.44762 11.8339 7.99991 11.3862 7.99991 10.8339V10.1673C7.99991 9.61497 8.44762 9.16725 8.99991 9.16725H10.5666C10.6218 9.16725 10.6666 9.12248 10.6666 9.06725V7.50059C10.6666 6.9483 11.1143 6.50059 11.6666 6.50059H12.3332Z" fill="black"/>
</svg>
