<svg width="24" height="24" viewBox="0 0 24 24" fill="none" xmlns="http://www.w3.org/2000/svg">
<path d="M7.87107 19.3772L8.19647 18.7014L8.19647 18.7014L7.87107 19.3772ZM16.1369 19.3977L16.459 20.075L16.459 20.075L16.1369 19.3977ZM10.2075 7.95847L10.1288 7.21261L10.2075 7.95847ZM5.91127 8.26207C5.52931 8.42232 5.34958 8.86187 5.50983 9.24383C5.67009 9.62579 6.10963 9.80552 6.49159 9.64526L5.91127 8.26207ZM4.30578 11.2917L5.01536 11.5346C5.09844 11.2918 5.0517 11.0235 4.89143 10.8232L4.30578 11.2917ZM19.6385 11.2019L19.0529 10.7334C18.8874 10.9402 18.8433 11.2191 18.9369 11.4669L19.6385 11.2019ZM7.00147 13.7807L7.75122 13.7613L7.00147 13.7807ZM16.9989 13.8183L17.7486 13.8377L17.7486 13.8377L16.9989 13.8183ZM7.10055 13.6804L7.09768 14.4304L7.09768 14.4304L7.10055 13.6804ZM16.9006 13.718L16.9034 12.968L16.9034 12.968L16.9006 13.718ZM8.0329 1.52798C8.32446 1.23376 8.32231 0.75889 8.02809 0.467328C7.73387 0.175765 7.259 0.177917 6.96744 0.472135L8.0329 1.52798ZM7.25978 1.24264L6.72705 0.714718L6.72705 0.714718L7.25978 1.24264ZM6.43738 10.5778C6.71117 10.8886 7.18509 10.9186 7.49592 10.6448C7.80674 10.371 7.83676 9.89709 7.56296 9.58627L6.43738 10.5778ZM4.58582 1.46858C4.84458 1.14513 4.79214 0.673161 4.46869 0.414404C4.14524 0.155647 3.67328 0.208088 3.41452 0.531535L4.58582 1.46858ZM17.0329 0.472078C16.7413 0.177861 16.2665 0.175709 15.9722 0.467272C15.678 0.758835 15.6759 1.2337 15.9674 1.52792L17.0329 0.472078ZM16.7406 1.24258L17.2733 0.714662L17.2733 0.714661L16.7406 1.24258ZM16.4374 9.58621C16.1636 9.89703 16.1936 10.371 16.5044 10.6447C16.8152 10.9185 17.2892 10.8885 17.563 10.5777L16.4374 9.58621ZM20.5858 0.531479C20.3271 0.208032 19.8551 0.155591 19.5316 0.414348C19.2082 0.673106 19.1558 1.14507 19.4145 1.46852L20.5858 0.531479ZM8.19647 18.7014C6.15587 17.7188 4.75017 15.6324 4.75017 13.2192H3.25017C3.25017 16.2302 5.00568 18.8298 7.54568 20.0529L8.19647 18.7014ZM13.2535 22.2471H10.7564V23.7471H13.2535V22.2471ZM19.2502 13.2846C19.2502 15.6822 17.8475 17.7537 15.8148 18.7204L16.459 20.075C18.9947 18.8691 20.7502 16.2826 20.7502 13.2846H19.2502ZM10.2862 8.70432C10.8007 8.65002 11.3517 8.6192 11.94 8.6192V7.1192C11.2992 7.1192 10.6956 7.15277 10.1288 7.21261L10.2862 8.70432ZM6.49159 9.64526C8.07328 8.98166 9.76972 8.75885 10.2862 8.70432L10.1288 7.21261C9.56398 7.27223 7.69534 7.51356 5.91127 8.26207L6.49159 9.64526ZM11.94 8.6192C12.6029 8.6192 13.2206 8.65832 13.7936 8.72615L13.9699 7.23655C13.3387 7.16182 12.662 7.1192 11.94 7.1192V8.6192ZM16.7453 9.41143C16.9138 9.4723 17.3449 9.63505 17.4878 9.69377L18.0577 8.30623C17.8857 8.23559 17.4315 8.06446 17.255 8.00069L16.7453 9.41143ZM13.7936 8.72615C14.0403 8.75536 14.727 8.90772 15.4264 9.07621C15.7642 9.15758 16.0883 9.23858 16.3377 9.30283C16.4625 9.33501 16.567 9.36256 16.6443 9.3836C16.7366 9.40873 16.7586 9.41625 16.7453 9.41143L17.255 8.00069C17.1693 7.96971 16.9441 7.9101 16.712 7.85028C16.4545 7.78394 16.1227 7.70103 15.7777 7.61792C15.1116 7.45746 14.3254 7.27863 13.9699 7.23655L13.7936 8.72615ZM4.75017 13.2192C4.75017 12.6275 4.83845 12.0514 5.01536 11.5346L3.5962 11.0488C3.35951 11.7402 3.25017 12.4827 3.25017 13.2192H4.75017ZM18.9369 11.4669C19.1452 12.0184 19.2502 12.6422 19.2502 13.2846H20.7502C20.7502 12.4841 20.6201 11.678 20.3401 10.9368L18.9369 11.4669ZM14.6469 22.3537C14.6469 21.4479 15.3817 20.5874 16.459 20.075L15.8148 18.7204C14.4991 19.3461 13.1469 20.6096 13.1469 22.3537H14.6469ZM13.2535 23.7471C14.0231 23.7471 14.6469 23.1232 14.6469 22.3537H13.1469C13.1469 22.2948 13.1947 22.2471 13.2535 22.2471V23.7471ZM9.35764 22.3483C9.35764 23.1208 9.98388 23.7471 10.7564 23.7471V22.2471C10.8123 22.2471 10.8576 22.2924 10.8576 22.3483H9.35764ZM7.54567 20.0529C8.62298 20.5717 9.35764 21.4369 9.35764 22.3483H10.8576C10.8576 20.6037 9.51216 19.335 8.19647 18.7014L7.54567 20.0529ZM12.8474 16.9301H11.1931V18.4301H12.8474V16.9301ZM11.1931 16.9301C9.28797 16.9301 7.7959 15.4868 7.75122 13.7613L6.25172 13.8001C6.31904 16.3999 8.53736 18.4301 11.1931 18.4301V16.9301ZM16.2491 13.7988C16.2049 15.5035 14.7306 16.9301 12.8474 16.9301V18.4301C15.4812 18.4301 17.6817 16.4167 17.7486 13.8377L16.2491 13.7988ZM7.09768 14.4304L16.8977 14.468L16.9034 12.968L7.10343 12.9304L7.09768 14.4304ZM17.7486 13.8377C17.7612 13.3523 17.3693 12.9698 16.9034 12.968L16.8977 14.468C16.542 14.4666 16.2394 14.1742 16.2491 13.7988L17.7486 13.8377ZM7.75122 13.7613C7.76099 14.1386 7.45535 14.4318 7.09768 14.4304L7.10343 12.9304C6.635 12.9287 6.23909 13.3122 6.25172 13.8001L7.75122 13.7613ZM6.96744 0.472135L6.72705 0.714718L7.7925 1.77056L8.0329 1.52798L6.96744 0.472135ZM6.72705 0.714718C4.05157 3.41456 3.92496 7.72555 6.43738 10.5778L7.56296 9.58627C5.57206 7.32611 5.67239 3.90998 7.7925 1.77056L6.72705 0.714718ZM4.89143 10.8232C2.73801 8.13138 2.49871 4.07747 4.58582 1.46858L3.41452 0.531535C0.824555 3.76899 1.19646 8.60562 3.72013 11.7602L4.89143 10.8232ZM15.9674 1.52792L16.2078 1.7705L17.2733 0.714661L17.0329 0.472078L15.9674 1.52792ZM16.2078 1.7705C18.328 3.90992 18.4283 7.32605 16.4374 9.58621L17.563 10.5777C20.0754 7.72549 19.9488 3.41451 17.2733 0.714662L16.2078 1.7705ZM20.2242 11.6704C22.7409 8.52449 23.182 3.77665 20.5858 0.531479L19.4145 1.46852C21.4955 4.0697 21.2132 8.03294 19.0529 10.7334L20.2242 11.6704Z" fill="black"/>
</svg>
