<svg width="24" height="24" viewBox="0 0 24 24" fill="none" xmlns="http://www.w3.org/2000/svg">
<path d="M5.1946 16.0468C5.21653 15.0873 5.44658 14.1069 5.91936 13.1613L9.85235 5.29531M5.1946 16.0468C5.1117 19.6739 8.00338 23 12 23C15.9956 23 18.8868 19.6756 18.8055 16.0496M5.1946 16.0468L5.07261 16C2.59735 14.972 1.25128 12.1597 2.43584 9.59392L6.10963 1.63635C6.50134 0.787884 7.7714 0.787885 8.16311 1.63635L9.85235 5.29531M18.8055 16.0496C18.7839 15.0892 18.5539 14.1078 18.0807 13.1613L14.1477 5.2953M18.8055 16.0496L18.9274 16C21.4027 14.972 22.7487 12.1597 21.5642 9.59392L17.8904 1.63635C17.4987 0.787885 16.2286 0.787885 15.8369 1.63635L14.1477 5.2953M9.85235 5.29531L11.1056 2.78885C11.4741 2.0518 12.5259 2.05181 12.8944 2.78885L14.1477 5.2953M12.3333 12C12.8856 12 13.3333 12.4477 13.3333 13V14.5667C13.3333 14.6219 13.3781 14.6667 13.4333 14.6667H15C15.5523 14.6667 16 15.1144 16 15.6667V16.3333C16 16.8856 15.5523 17.3333 15 17.3333H13.4333C13.3781 17.3333 13.3333 17.3781 13.3333 17.4333V19C13.3333 19.5523 12.8856 20 12.3333 20H11.6667C11.1144 20 10.6667 19.5523 10.6667 19V17.4333C10.6667 17.3781 10.6219 17.3333 10.5667 17.3333H9C8.44772 17.3333 8 16.8856 8 16.3333V15.6667C8 15.1144 8.44772 14.6667 9 14.6667H10.5667C10.6219 14.6667 10.6667 14.6219 10.6667 14.5667V13C10.6667 12.4477 11.1144 12 11.6667 12H12.3333Z" stroke="black" stroke-width="1.5"/>
</svg>
