<svg width="24" height="24" viewBox="0 0 24 24" fill="none" xmlns="http://www.w3.org/2000/svg">
<g clip-path="url(#clip0_1607_8696)">
<path d="M12 4C12 2.34315 10.6569 1 9 1C7.37667 1 6.05449 2.28934 6.00164 3.89981C5.99983 3.95501 5.95492 3.99987 5.89971 4.00123C4.72663 4.0301 3.67883 4.56401 2.96553 5.39375M12 4C12 2.34315 13.3431 1 15 1C16.6233 1 17.9455 2.28934 17.9984 3.89981C18.0002 3.95501 18.0451 3.99987 18.1003 4.00123C19.27 4.03002 20.3151 4.5609 21.0282 5.3865M12 4C12 4 12 8.80653 12 11.8863M12 20C12 21.6569 10.6569 23 9 23C7.37667 23 6.05449 21.7107 6.00164 20.1002C5.99983 20.045 5.95492 20.0001 5.89971 19.9988C5.03788 19.9776 4.24368 19.6838 3.60005 19.2003M12 20C12 21.6569 13.3431 23 15 23C16.6233 23 17.9455 21.7107 17.9984 20.1002C18.0002 20.045 18.0451 20.0001 18.1003 19.9988C18.9513 19.9778 19.7364 19.6911 20.3756 19.2185M12 20C12 20 12 17.5313 12 14.9648M7.9431 8.07798C7.48421 9.17441 7.73688 10.3907 8.49051 11.2154M5.68417 11.6095C6.48577 11.9093 7.41002 11.8626 8.20861 11.403L8.49051 11.2154M15.6056 11C16.0655 12.099 15.8106 13.3183 15.0529 14.1432M17.8645 14.5315C17.0629 14.8313 16.1386 14.7846 15.34 14.325L15.0529 14.1432M6.22482 17.2929C5.15789 17.007 4.06121 17.6402 3.77533 18.7071L3.60005 19.2003M17.7752 17.2929C18.8421 17.007 19.9388 17.6402 20.2247 18.7071L20.3756 19.2185M5.44943 6.93186C4.3825 7.21774 3.28582 6.58457 2.99994 5.51764L2.96553 5.39375M18.5506 6.93186C19.6175 7.21774 20.7142 6.58457 21.0001 5.51764L21.0282 5.3865M12 11.8863C11.8092 11.9797 11.4425 12.0827 11.4425 12.0827C10.8324 12.244 10.1659 12.2131 9.53825 11.9509C9.12599 11.7787 8.77305 11.5246 8.49051 11.2154M12 11.8863C12 12.8161 12 13.8989 12 14.9648M2.96553 5.39375C2.36372 6.0938 2 7.00442 2 8C2 8.51205 2.09622 9.00161 2.27155 9.45162C2.28867 9.49557 2.27379 9.54563 2.23566 9.5734C1.48675 10.1189 1 11.0026 1 12C1 12.9974 1.48675 13.8811 2.23566 14.4266C2.27379 14.4544 2.28867 14.5044 2.27155 14.5484C2.09622 14.9984 2 15.488 2 16C2 17.3087 2.62847 18.4706 3.60005 19.2003M20.3756 19.2185C21.361 18.4899 22 17.3196 22 16C22 15.488 21.9038 14.9984 21.7285 14.5484C21.7113 14.5044 21.7262 14.4544 21.7643 14.4266C22.5133 13.8811 23 12.9974 23 12C23 11.0026 22.5133 10.1189 21.7643 9.5734C21.7262 9.54563 21.7113 9.49557 21.7285 9.45162C21.9038 9.00161 22 8.51205 22 8C22 7.00098 21.6338 6.0875 21.0282 5.3865M12 14.9648L12.1062 15.0047C12.7162 15.1661 13.3827 15.1351 14.0104 14.873C14.4201 14.7018 14.7712 14.4498 15.0529 14.1432" stroke="black" stroke-width="1.5" stroke-linecap="round"/>
</g>
<defs>
<clipPath id="clip0_1607_8696">
<rect width="24" height="24" fill="white"/>
</clipPath>
</defs>
</svg>
