<svg width="24" height="24" viewBox="0 0 24 24" fill="none" xmlns="http://www.w3.org/2000/svg">
<path d="M1.13625 11.3944L1.77515 11.7872L1.77515 11.7872L1.13625 11.3944ZM22.8288 11.406L23.4491 10.9844L23.4491 10.9844L22.8288 11.406ZM22.8681 12.4452L23.5107 12.832L23.5107 12.832L22.8681 12.4452ZM1.16608 12.4338L0.541757 12.8494L1.16608 12.4338ZM1.00049 11.915L0.250857 11.9386L1.00049 11.915ZM22.9991 11.9217L22.2498 11.9532L22.9991 11.9217ZM16.1542 9.23616L16.7791 8.8213L16.1542 9.23616ZM16.9556 12.5565L17.7011 12.639L16.9556 12.5565ZM1.6765 11.3082L1.15918 10.7651L1.6765 11.3082ZM1.77515 11.7872C3.52341 8.94376 6.55992 5.8324 10.1331 4.97864C11.8938 4.55795 13.8076 4.67775 15.8192 5.67466C17.8443 6.67827 20.0094 8.5919 22.2085 11.8276L23.4491 10.9844C21.1536 7.60694 18.8089 5.48217 16.4853 4.33065C14.1482 3.17245 11.8742 3.02041 9.78453 3.51971C5.65687 4.50594 2.34165 8.00191 0.497354 11.0016L1.77515 11.7872ZM22.2255 12.0585C20.476 14.9649 17.4374 18.1427 13.8658 19.0147C12.1076 19.444 10.1962 19.3226 8.18524 18.3055C6.15963 17.281 3.99228 15.326 1.79041 12.0182L0.541757 12.8494C2.83719 16.2977 5.18245 18.4677 7.50823 19.644C9.84864 20.8278 12.1274 20.9832 14.2216 20.4719C18.3548 19.4628 21.6698 15.8902 23.5107 12.832L22.2255 12.0585ZM0.497354 11.0016C0.318391 11.2927 0.240856 11.6207 0.250857 11.9386L1.75011 11.8914C1.74874 11.8477 1.7596 11.8125 1.77515 11.7872L0.497354 11.0016ZM0.250857 11.9386C0.260901 12.2579 0.359273 12.5753 0.541757 12.8494L1.79041 12.0182C1.76571 11.9811 1.75152 11.9362 1.75011 11.8914L0.250857 11.9386ZM22.2085 11.8276C22.2334 11.8642 22.2479 11.9087 22.2498 11.9532L23.7485 11.8901C23.7351 11.5718 23.6338 11.2562 23.4491 10.9844L22.2085 11.8276ZM22.2498 11.9532C22.2516 11.997 22.2411 12.0326 22.2255 12.0585L23.5107 12.832C23.6873 12.5386 23.7619 12.2089 23.7485 11.8901L22.2498 11.9532ZM11.9905 16.25C9.6463 16.25 7.74483 14.3478 7.74483 12H6.24483C6.24483 15.175 8.81665 17.75 11.9905 17.75V16.25ZM7.74483 12C7.74483 9.65218 9.6463 7.75 11.9905 7.75V6.25C8.81665 6.25 6.24483 8.82497 6.24483 12H7.74483ZM11.9905 7.75C13.4666 7.75 14.7675 8.50347 15.5294 9.65102L16.7791 8.8213C15.7512 7.27325 13.9905 6.25 11.9905 6.25V7.75ZM15.5294 9.65102C15.976 10.3236 16.2362 11.1302 16.2362 12H17.7362C17.7362 10.8261 17.3839 9.73221 16.7791 8.8213L15.5294 9.65102ZM16.2362 12C16.2362 12.1605 16.2273 12.3187 16.2102 12.474L17.7011 12.639C17.7243 12.429 17.7362 12.2157 17.7362 12H16.2362ZM16.2102 12.474C15.9751 14.5983 14.1746 16.25 11.9905 16.25V17.75C14.9486 17.75 17.383 15.5138 17.7011 12.639L16.2102 12.474ZM2.19381 11.8512C3.98077 10.1488 6.84876 8.34319 10.266 7.86962C13.6484 7.40089 17.643 8.22506 21.7688 11.8984L22.7663 10.7781C18.3266 6.8253 13.8965 5.85218 10.0601 6.38382C6.25862 6.91063 3.11384 8.90302 1.15918 10.7651L2.19381 11.8512ZM21.7872 12.1492C20.0003 13.8515 17.1323 15.6572 13.715 16.1307C10.3326 16.5995 6.33803 15.7753 2.21219 12.1019L1.21474 13.2222C5.65445 17.1751 10.0846 18.1482 13.9209 17.6165C17.7224 17.0897 20.8672 15.0973 22.8219 13.2352L21.7872 12.1492ZM21.7688 11.8984C21.8605 11.9801 21.8455 12.0937 21.7872 12.1492L22.8219 13.2352C23.5455 12.5459 23.4812 11.4146 22.7663 10.7781L21.7688 11.8984ZM1.15918 10.7651C0.435532 11.4545 0.499831 12.5857 1.21474 13.2222L2.21219 12.1019C2.12052 12.0203 2.13554 11.9067 2.19381 11.8512L1.15918 10.7651Z" fill="black"/>
</svg>
