<svg width="24" height="24" viewBox="0 0 24 24" fill="none" xmlns="http://www.w3.org/2000/svg">
<path d="M7.18232 0.68865C7.01037 0.311815 6.56549 0.145726 6.18865 0.317679C5.81182 0.489633 5.64573 0.934514 5.81768 1.31135L7.18232 0.68865ZM10.9772 10.8119L11.6596 10.5005L11.6596 10.5005L10.9772 10.8119ZM10.9278 11.7348L10.2841 11.3497L10.2841 11.3497L10.9278 11.7348ZM6.29252 19.0716L6.81759 19.6071C6.843 19.5822 6.8666 19.5555 6.88822 19.5273L6.29252 19.0716ZM21.9092 12.9471L21.1871 12.7445L21.1871 12.7445L21.9092 12.9471ZM18.7859 8.04746L19.454 7.70673L19.454 7.70672L18.7859 8.04746ZM16.7018 0.735559C16.5558 0.347947 16.1232 0.152119 15.7356 0.298166C15.3479 0.444213 15.1521 0.876829 15.2982 1.26444L16.7018 0.735559ZM16.1233 8.93815C15.7646 8.73104 15.3059 8.85395 15.0988 9.21267C14.8917 9.57139 15.0146 10.0301 15.3733 10.2372L16.1233 8.93815ZM15.6164 11.1445C15.4093 11.5032 15.5322 11.9619 15.8909 12.169C16.2497 12.3761 16.7083 12.2532 16.9155 11.8945L15.6164 11.1445ZM5.81768 1.31135L10.2949 11.1232L11.6596 10.5005L7.18232 0.68865L5.81768 1.31135ZM10.2841 11.3497C9.40648 12.8169 6.70859 17.2933 5.69683 18.6159L6.88822 19.5273C7.96644 18.1178 10.7212 13.541 11.5714 12.1198L10.2841 11.3497ZM5.76746 18.5361C5.78282 18.521 5.65952 18.6281 5.30506 18.7381C4.9729 18.8411 4.47592 18.934 3.79385 18.934V20.434C4.61098 20.434 5.25923 20.3228 5.74955 20.1707C6.21757 20.0255 6.59401 19.8263 6.81759 19.6071L5.76746 18.5361ZM3.79385 18.934C2.5648 18.934 1.75289 19.5667 1.41886 20.4003C1.12259 21.1397 1.20249 22.0981 1.78518 22.6694L2.83532 21.5983C2.79334 21.5572 2.67803 21.2907 2.81124 20.9582C2.90667 20.7201 3.14889 20.434 3.79385 20.434V18.934ZM1.78518 22.6694C2.61743 23.4854 4.39602 24.1551 6.52551 23.4592L6.05954 22.0334C4.44102 22.5624 3.25241 22.0072 2.83532 21.5983L1.78518 22.6694ZM6.52551 23.4592C6.91379 23.3323 7.37907 23.2617 7.93263 23.2054C8.45341 23.1523 9.1038 23.1084 9.7067 23.0308C10.9472 22.8713 12.3401 22.5372 13.4546 21.4445L12.4045 20.3734C11.645 21.118 10.6564 21.3964 9.51539 21.5431C8.92753 21.6187 8.38716 21.6513 7.78062 21.7131C7.20686 21.7715 6.60826 21.8541 6.05954 22.0334L6.52551 23.4592ZM13.4546 21.4445C14.4599 20.4588 15.1875 19.3138 15.7813 18.4124C16.0863 17.9494 16.3481 17.5617 16.6036 17.2535C16.8616 16.9422 17.0688 16.7677 17.242 16.6828L16.5818 15.3359C16.1303 15.5572 15.7617 15.9186 15.4486 16.2963C15.1331 16.6771 14.8288 17.1315 14.5287 17.5872C13.9121 18.5232 13.2732 19.5217 12.4045 20.3734L13.4546 21.4445ZM17.242 16.6828C17.438 16.5867 17.739 16.5233 18.2221 16.4429C18.6638 16.3694 19.2268 16.2848 19.7795 16.1131C20.3426 15.9382 20.9347 15.6625 21.4528 15.1802C21.9755 14.6936 22.3836 14.033 22.6314 13.1496L21.1871 12.7445C21.0054 13.3923 20.7303 13.8035 20.4307 14.0824C20.1264 14.3657 19.7571 14.5493 19.3345 14.6806C18.9014 14.8152 18.4541 14.8837 17.9759 14.9633C17.5391 15.036 17.0104 15.1258 16.5818 15.3359L17.242 16.6828ZM22.6314 13.1496C23.0801 11.5498 22.1844 10.3547 21.3575 9.53742C20.9468 9.13145 20.4689 8.73922 20.1288 8.43697C19.7455 8.09633 19.5373 7.87001 19.454 7.70673L18.1178 8.38819C18.3468 8.83735 18.7681 9.23444 19.1324 9.55824C19.54 9.92042 19.9281 10.2336 20.303 10.6042C21.0473 11.3399 21.4009 11.9822 21.1871 12.7445L22.6314 13.1496ZM19.454 7.70672C19.2266 7.26082 18.5483 5.54886 17.9051 3.88573C17.5887 3.06777 17.2879 2.28011 17.066 1.69678C16.9551 1.40517 16.864 1.16473 16.8007 0.997254C16.769 0.913518 16.7443 0.848026 16.7275 0.803501C16.7191 0.781239 16.7126 0.764219 16.7083 0.752782C16.7062 0.747063 16.7045 0.74274 16.7035 0.739855C16.7029 0.738413 16.7025 0.73733 16.7022 0.736612C16.7021 0.736253 16.702 0.735986 16.7019 0.73581C16.7019 0.735722 16.7019 0.735659 16.7019 0.735615C16.7018 0.735575 16.7018 0.735559 16 1C15.2982 1.26444 15.2982 1.26447 15.2982 1.26452C15.2982 1.26457 15.2982 1.26465 15.2983 1.26474C15.2984 1.26494 15.2985 1.26522 15.2986 1.2656C15.2989 1.26635 15.2993 1.26747 15.2999 1.26895C15.301 1.2719 15.3026 1.2763 15.3048 1.28209C15.3092 1.29367 15.3157 1.31084 15.3241 1.33326C15.3411 1.37809 15.3659 1.44392 15.3977 1.528C15.4613 1.69617 15.5528 1.93742 15.664 2.22995C15.8864 2.81491 16.1884 3.60537 16.506 4.42678C17.1309 6.0424 17.8454 7.85417 18.1178 8.38819L19.454 7.70672ZM10.2949 11.1232C10.3299 11.1999 10.3241 11.2829 10.2841 11.3497L11.5714 12.1198C11.8678 11.6242 11.8967 11.0201 11.6596 10.5005L10.2949 11.1232ZM15.3733 10.2372C15.691 10.4206 15.7998 10.8268 15.6164 11.1445L16.9155 11.8945C17.5131 10.8594 17.1584 9.53578 16.1233 8.93815L15.3733 10.2372Z" fill="black"/>
</svg>
