<svg width="24" height="24" viewBox="0 0 24 24" fill="none" xmlns="http://www.w3.org/2000/svg">
<path d="M21.7857 8L22 7.5M18.9999 14.5L19.9218 12.3489M20.6697 10.6038L21.0246 9.77595M7.25241 7.84343L6.94766 5.83404M6.65264 3.94855L6.5 3M8.2433 14.0043L7.60582 9.99995M11.8298 13.37L11.7169 9.14419M11.6646 7.18476L11.582 4.09213M11.5304 2.15925L11.4994 0.999512M10.5 22.0001V21.4089C10.5 20.7264 9.8313 20.2444 9.18377 20.4602L8.18377 20.7936C7.77543 20.9297 7.5 21.3118 7.5 21.7422V22.0001C7.5 22.5523 7.9477 23.0001 8.49998 23.0001L9.49998 23.0001C10.0523 23.0001 10.5 22.5524 10.5 22.0001ZM10.5 22.0001V21C10.5 20.4477 10.9477 20 11.5 20H15.0002C15.5525 20 16.0002 20.4477 16.0002 21V22M10.5 22.0001C10.5 22.5524 10.9477 23 11.5 23H15.0002C15.5525 23 16.0002 22.5523 16.0002 22M16.0002 22L16 21.3874C16 20.7049 16.6687 20.2229 17.3162 20.4388L17.9061 20.6354C18.4834 20.8278 18.7564 21.4869 18.4843 22.0312L18.2764 22.4472C18.107 22.786 17.7607 23 17.3819 23H17C16.4477 23 16.0002 22.5523 16.0002 22ZM2 14L2.30701 14.4844M6.91211 21.75L4.91656 18.6016M3.30478 16.0586L3.95717 17.0879M17.296 3.17293L17.5 2M16.5859 7.25614L16.9479 5.17486M15.5 13.5L16.2022 9.46257M10.9998 18.2405L10.9998 16.5001C10.9998 15.9478 11.4475 15.5001 11.9998 15.5001C12.5521 15.5 12.9999 15.9478 12.9999 16.5001L12.9998 18.2406C12.9997 18.7928 12.552 19.2405 11.9998 19.2405C11.4475 19.2404 10.9998 18.7928 10.9998 18.2405ZM16.0774 18.3746L16.1974 17.9242C16.3381 17.3964 16.877 17.0793 17.4069 17.2118C17.9704 17.3527 18.2964 17.9426 18.1151 18.4943L17.9696 18.9371C17.8364 19.3424 17.458 19.6163 17.0315 19.6163C16.3828 19.6163 15.9103 19.0014 16.0774 18.3746ZM8.31635 19.2438L7.88423 17.465C7.75447 16.9309 8.08019 16.3921 8.61348 16.2588L8.64465 16.251C9.19396 16.1137 9.74759 16.4595 9.86529 17.0133L10.2459 18.8045C10.3768 19.42 9.90729 19.9998 9.27797 19.9998C8.82142 19.9998 8.42412 19.6874 8.31635 19.2438ZM13.6141 18.0624L13.8325 16.6698C13.9184 16.1223 14.436 15.7494 14.9832 15.8381C15.5315 15.927 15.9051 16.4462 15.8117 16.9938L15.5748 18.3833C15.4934 18.8606 15.0797 19.2097 14.5955 19.2097C13.9855 19.2097 13.5196 18.665 13.6141 18.0624Z" stroke="black" stroke-width="1.5" stroke-linecap="round"/>
</svg>
