<svg width="24" height="24" viewBox="0 0 24 24" fill="none" xmlns="http://www.w3.org/2000/svg">
<g clip-path="url(#clip0_1607_8754)">
<path d="M7.75 10.5H4.375C2.51104 10.5 1 12.011 1 13.875C1 15.739 2.51104 17.25 4.375 17.25H13M7.75 10.5C5.67893 10.5 4 8.82107 4 6.75C4 4.67893 5.67893 3 7.75 3H9C9.55228 3 10 2.55228 10 2V1M7.75 10.5H19M13.9999 1.00001V3.75001C13.9999 5.40686 12.6567 6.75001 10.9999 6.75001M10.9999 6.75001H8.25002M10.9999 6.75001H19.375C21.377 6.75001 23 8.37298 23 10.375C23 12.377 21.377 14 19.375 14H5.00002M16.4998 14C18.4328 14 20 15.567 20 17.5C20 19.433 18.433 21 16.5 21H14V23M10 23V20.2487C10 18.5918 11.3431 17.2487 13 17.2487H15.1143" stroke="black" stroke-width="1.5" stroke-linecap="round" stroke-linejoin="round"/>
</g>
<defs>
<clipPath id="clip0_1607_8754">
<rect width="24" height="24" fill="white"/>
</clipPath>
</defs>
</svg>
