<svg width="24" height="24" viewBox="0 0 24 24" fill="none" xmlns="http://www.w3.org/2000/svg">
<g clip-path="url(#clip0_1607_8763)">
<path d="M3 20.4L3 17.2341C1.82383 16.7295 1 15.561 1 14.2C1 13.5989 1.16071 13.0354 1.4415 12.55C1.16071 12.0646 1 11.5011 1 10.9C1 10.2989 1.16069 9.73539 1.44146 9.25001C1.16069 8.76464 1 8.20111 1 7.60005C1 6.99897 1.16071 6.43542 1.4415 5.95002C1.16071 5.46463 1 4.90108 1 4.3C1 2.47746 2.47746 1 4.3 1C5.28256 1 6.16482 1.42941 6.76935 2.11081C7.67926 2.18431 8.4849 2.62692 9.03639 3.28875C9.28149 3.23068 9.53716 3.19995 9.80001 3.19995C10.4011 3.19995 10.9646 3.36065 11.45 3.64143C11.9354 3.36065 12.4989 3.19995 13.1 3.19995C13.3628 3.19995 13.6185 3.23068 13.8636 3.28875C14.4689 2.56231 15.3805 2.09998 16.4 2.09998C16.6628 2.09998 16.9185 2.13071 17.1636 2.18877C17.7689 1.46233 18.6805 1 19.7 1C21.5225 1 23 2.47746 23 4.3C23 4.90108 22.8393 5.46463 22.5585 5.95002C22.8393 6.43541 23 6.99896 23 7.60005C23 8.20111 22.8393 8.76464 22.5585 9.25001C22.8393 9.73539 23 10.2989 23 10.9C23 11.5011 22.8393 12.0646 22.5585 12.55C22.8393 13.0354 23 13.5989 23 14.2C23 16.0226 21.5225 17.5 19.7 17.5C19.6328 17.5 19.5662 17.498 19.5 17.4941V23M5.5 20.4V17.2751C6.72921 16.795 7.6 15.5992 7.6 14.2C7.6 13.5989 7.43929 13.0354 7.1585 12.55C7.43929 12.0646 7.6 11.5011 7.6 10.9C7.6 10.2989 7.43931 9.73539 7.15854 9.25001C7.2493 9.09312 7.32751 8.92805 7.3918 8.75619C7.9939 9.39859 8.85008 9.79995 9.80001 9.79995C10.4011 9.79995 10.9646 9.63925 11.45 9.35847C11.9354 9.63925 12.4989 9.79995 13.1 9.79995C14.1195 9.79995 15.031 9.33762 15.6364 8.61118C15.8815 8.66924 16.1371 8.69998 16.4 8.69998C16.4624 8.69998 16.5244 8.69824 16.5859 8.69482C16.6541 8.88882 16.7399 9.07452 16.8415 9.25001C16.5607 9.73539 16.4 10.2989 16.4 10.9C16.4 11.5011 16.5607 12.0646 16.8415 12.55C16.7585 12.6935 16.6859 12.8439 16.625 13H16.5391C14.7414 13 13.4223 14.6894 13.8583 16.4334L13.9639 16.8555C14.3778 18.5111 15.5214 19.8308 17 20.5064V23" stroke="black" stroke-width="1.5" stroke-linecap="round" stroke-linejoin="round"/>
</g>
<defs>
<clipPath id="clip0_1607_8763">
<rect width="24" height="24" fill="white"/>
</clipPath>
</defs>
</svg>
