<svg width="24" height="24" viewBox="0 0 24 24" fill="none" xmlns="http://www.w3.org/2000/svg">
<path d="M9.77226 8.3581H11.4242C13.1175 8.3581 14.4902 9.7304 14.4902 11.4232L14.4902 14.4022M14.4902 14.4022C17.865 12.0842 20.9331 8.72017 22.4623 6.92058C23.7751 5.37573 22.5085 3 20.5534 3H8.1539C4.20291 3 1 6.20208 1 10.152V18.9675C1 19.7011 1.59483 20.2957 2.3286 20.2957C2.99593 20.2957 3.59981 20.2636 4.0494 19.6827M14.4902 14.4022C13.4629 15.1078 12.3876 15.7476 11.1981 16.139M11.1981 16.139C9.75529 18.6808 10.7836 22.0038 8.02961 22.0038C5.82398 22.0038 4.61695 20.6904 4.0494 19.6827M11.1981 16.139C10.256 16.4489 9.21415 16.6344 8.08573 16.6344C5.97366 16.6344 5.15967 18.2481 4.0494 19.6827" stroke="black" stroke-width="1.5" stroke-linecap="round"/>
</svg>
