<svg width="24" height="24" viewBox="0 0 24 24" fill="none" xmlns="http://www.w3.org/2000/svg">
<path d="M5.5 19H5.76393C7.23651 19 8.44147 19.8829 9.08342 21.1668M18.5 19L18.2363 19C16.7639 19 15.5588 19.8827 14.9168 21.1665M9.08342 21.1668C6.27437 22.9537 2.54083 22.1385 2.05464 18.7009C1.55395 15.1607 4.62633 13.6435 5.87806 11.747C6.50125 10.8028 7.25497 9.21826 7.75566 6.68957C8.38153 3.5287 8.80947 0.999999 12.0008 1C15.1921 0.999999 15.6193 3.5287 16.2451 6.68957C16.7458 9.21826 17.4995 10.8028 18.1227 11.747C19.3745 13.6435 22.4468 15.1607 21.9461 18.7009C21.4599 22.1387 17.7259 22.9538 14.9168 21.1665M9.08342 21.1668C9.63591 22.2718 10.7551 23 12 23C13.2453 23 14.3642 22.2716 14.9168 21.1665" stroke="black" stroke-width="1.5" stroke-linecap="round" stroke-linejoin="round"/>
</svg>
