<svg width="24" height="24" viewBox="0 0 24 24" fill="none" xmlns="http://www.w3.org/2000/svg">
<g clip-path="url(#clip0_1607_8784)">
<path d="M8.14987 10.9163C7.09188 9.08381 4.74869 8.45595 2.9162 9.51394C0.877339 10.6911 0.372496 13.4113 1.85321 15.2417L3.14386 16.837C4.14308 18.0722 4.99859 19.4719 5.91112 20.8007C6.27169 21.3258 6.54983 21.9245 7.01578 22.3587C7.75741 23.0499 8.89798 23.2219 9.8373 22.6796C10.2901 22.4182 10.6346 22.022 10.8343 21.5604C11.1405 20.8529 10.8747 20.0609 10.5834 19.3472C10.4713 19.0728 10.2217 18.8788 9.92814 18.8379L9.13591 18.7277C8.39167 18.6241 8.02327 17.7674 8.46002 17.156L10 15M15.8501 10.9163C16.9081 9.08381 19.2513 8.45595 21.0838 9.51394C23.1227 10.6911 23.6275 13.4113 22.1468 15.2417L20.8561 16.837C19.8569 18.0722 19.0014 19.4719 18.0889 20.8007C17.7283 21.3258 17.4502 21.9245 16.9842 22.3587C16.2426 23.0499 15.102 23.2219 14.1627 22.6796C13.7099 22.4182 13.3654 22.022 13.1657 21.5604C12.8595 20.8529 13.1253 20.0609 13.4166 19.3472C13.5287 19.0728 13.7783 18.8788 14.0719 18.8379L14.8641 18.7277C15.6083 18.6241 15.9767 17.7674 15.54 17.156L14 15M14 5H10M14 5C14.5523 5 15 5.44772 15 6V8C15 8.55228 14.5523 9 14 9H10C9.44772 9 9 8.55228 9 8V6C9 5.44772 9.44772 5 10 5M14 5C14.5523 5 15 4.55228 15 4V2C15 1.44772 14.5523 1 14 1H10C9.44772 1 9 1.44772 9 2V4C9 4.55228 9.44772 5 10 5M8 7H9M8 3H9M15 7H16M15 3H16M9 21.0317V21M15 21.0317V21M14.8074 14C14.3198 14 13.8812 14.2969 13.7001 14.7497L13.5738 15.0655C13.0055 16.4862 10.9945 16.4862 10.4262 15.0655L10.2999 14.7497C10.1188 14.2969 9.68023 14 9.19258 14C8.53394 14 8 13.4661 8 12.8074V11.5616C8 10.6438 8.62459 9.84385 9.51493 9.62127L11.5149 9.12127C11.8334 9.04165 12.1666 9.04165 12.4851 9.12127L14.4851 9.62127C15.3754 9.84385 16 10.6438 16 11.5616V12.8074C16 13.4661 15.4661 14 14.8074 14Z" stroke="black" stroke-width="1.5" stroke-linecap="round"/>
</g>
<defs>
<clipPath id="clip0_1607_8784">
<rect width="24" height="24" fill="white"/>
</clipPath>
</defs>
</svg>
