<svg width="24" height="24" viewBox="0 0 24 24" fill="none" xmlns="http://www.w3.org/2000/svg">
<path d="M11 4.03174V4.00001M13 4.03169V3.99996M12 9V15M10 17.5V21M14 17.5V21M9.5 23H10M7.25 23H7.5M14.5 23H14M16.75 23H16.5M7 10L6 12.5M5.5 14.5V16.5M14.0956 10C14.0956 10.2893 13.1575 10.5238 12.0004 10.5238C10.8432 10.5238 9.90515 10.2893 9.90515 10M15.143 12.0952C15.143 12.5291 13.736 12.8809 12.0002 12.8809C10.2645 12.8809 8.85742 12.5291 8.85742 12.0952M14.6191 14.7142C14.6191 15.1481 13.4467 15.4999 12.0002 15.4999C10.5538 15.4999 9.38109 15.1481 9.38109 14.7142M8.08691 8.47852L8.57604 8.56004M15.9131 8.47852L15.424 8.56004M17 10L18 12.5M18.5 14.5V16.5M13.8 6.25L13.8649 6.08764C14.0069 5.73273 14.3507 5.5 14.7329 5.5C14.8804 5.5 15 5.38042 15 5.23291V4C15 2.34315 13.6569 1 12 1C10.3431 1 9 2.34315 9 4V5.23291C9 5.38042 9.11958 5.5 9.26709 5.5C9.64935 5.5 9.99309 5.73272 10.1351 6.08764L10.2 6.25C10.3812 6.70297 10.8199 7 11.3078 7H12.6922C13.1801 7 13.6188 6.70297 13.8 6.25Z" stroke="black" stroke-width="1.5" stroke-linecap="round" stroke-linejoin="round"/>
</svg>
