<svg width="24" height="24" viewBox="0 0 24 24" fill="none" xmlns="http://www.w3.org/2000/svg">
<path d="M10 4.5V3M10 12.4502V11.0001M10 20.5V19M7.49996 2C7.49996 1.44772 7.94768 1 8.49996 1H15.5C16.0522 1 16.5 1.44772 16.5 2L16.5 2.50009C17.3284 2.50009 18 3.17166 18 4.00009C18 4.82852 17.3284 5.50009 16.5 5.50009V6C16.5 6.55228 16.0522 7 15.5 7H8.49996C7.94768 7 7.49996 6.55228 7.49996 6V5.50009C6.67155 5.50007 6 4.82851 6 4.00009C6 3.17168 6.67155 2.50011 7.49996 2.50009V2ZM7.49996 10C7.49996 9.44772 7.94768 9 8.49996 9H15.5C16.0522 9 16.5 9.44772 16.5 10L16.5 10.5001C17.3284 10.5001 18 11.1717 18 12.0001C18 12.8285 17.3284 13.5001 16.5 13.5001V14C16.5 14.5523 16.0522 15 15.5 15H8.49996C7.94768 15 7.49996 14.5523 7.49996 14V13.5001C6.67155 13.5001 6 12.8285 6 12.0001C6 11.1717 6.67155 10.5001 7.49996 10.5001V10ZM7.49996 18C7.49996 17.4477 7.94768 17 8.49996 17H15.5C16.0522 17 16.5 17.4477 16.5 18L16.5 18.5001C17.3284 18.5001 18 19.1717 18 20.0001C18 20.8285 17.3284 21.5001 16.5 21.5001V22C16.5 22.5523 16.0522 23 15.5 23H8.49996C7.94768 23 7.49996 22.5523 7.49996 22V21.5001C6.67155 21.5001 6 20.8285 6 20.0001C6 19.1717 6.67155 18.5001 7.49996 18.5001V18Z" stroke="black" stroke-width="1.5" stroke-linecap="round" stroke-linejoin="round"/>
</svg>
