<svg width="24" height="24" viewBox="0 0 24 24" fill="none" xmlns="http://www.w3.org/2000/svg">
<g clip-path="url(#clip0_1607_8796)">
<path d="M7.68049 1L7.6805 2.00004C7.68054 4.35606 9.75478 4.99997 11.6801 5.00003C12.8386 0.787242 18.9632 0.742527 21.4591 3.78735C24.2063 7.13873 22.6805 13.5 21.4591 15.9577C20.2378 18.4154 17.1384 22.0726 9.98672 22.0726C7.33344 22.0726 5.43961 20.4257 4.78049 18.3391C4.25769 18.879 4.00018 19.6148 4.00018 20.4257V23.0002M4.68036 1L4.68037 2.00009C4.68043 5.72221 7.80179 7.99985 11.2676 8.00003C11.1313 9.87656 11.0496 11.357 8.90826 11.6257C6.77839 11.893 5.25392 13.1412 4.78049 14.4358C2.58106 15.3256 1.00049 17.4816 1.00049 20.0001V23.0002M8.24444 16.618C8.24444 15.5558 9.07801 14.8242 9.90049 14.6595C11.6902 14.3012 12.7915 13.704 13.4986 12.3H18.6805C17.939 15.3188 15.997 17.6602 13.4805 18.4999C10.0553 19.6429 8.24444 18.6551 8.24444 16.618Z" stroke="black" stroke-width="1.5" stroke-linecap="round" stroke-linejoin="round"/>
</g>
<defs>
<clipPath id="clip0_1607_8796">
<rect width="24" height="24" fill="white"/>
</clipPath>
</defs>
</svg>
