<svg width="24" height="24" viewBox="0 0 24 24" fill="none" xmlns="http://www.w3.org/2000/svg">
<path d="M8.118 4.73038L8.54378 5.3478L8.54378 5.3478L8.118 4.73038ZM15.882 4.73038L16.3078 4.11296L16.3078 4.11296L15.882 4.73038ZM10.3039 21.2788C10.4578 21.6634 10.8942 21.8505 11.2788 21.6966C11.6634 21.5428 11.8505 21.1064 11.6967 20.7218L10.3039 21.2788ZM10.3717 19.4284L9.67528 19.7069L9.67528 19.7069L10.3717 19.4284ZM10.0378 14.9668L9.30775 14.795L9.30775 14.795L10.0378 14.9668ZM10.0969 14.7155L10.827 14.8873L10.827 14.8873L10.0969 14.7155ZM13.9029 14.7154L13.1728 14.8871L13.1728 14.8871L13.9029 14.7154ZM13.962 14.967L14.6921 14.7953L14.6921 14.7953L13.962 14.967ZM13.6282 19.4282L12.9318 19.1497L12.9318 19.1497L13.6282 19.4282ZM12.3033 20.7218C12.1495 21.1064 12.3366 21.5429 12.7213 21.6967C13.1059 21.8504 13.5423 21.6633 13.6961 21.2787L12.3033 20.7218ZM14.5688 11.6001L15.1648 12.0553L15.1648 12.0553L14.5688 11.6001ZM9.43116 11.6L8.83509 12.0552L8.83509 12.0552L9.43116 11.6ZM4.00246 5.9999L4.5329 6.53012L4.5329 6.53012L4.00246 5.9999ZM4.00246 2.99988L4.00247 3.74988L4.00249 3.74988L4.00246 2.99988ZM3.00281 12.4999L3.63236 12.0923L3.63087 12.09L3.00281 12.4999ZM7.15608 14.2886L7.88801 14.125L7.88801 14.125L7.15608 14.2886ZM3.8732 15.8829L3.29178 16.3567L3.29178 16.3567L3.8732 15.8829ZM4.01134 11.9882L4.33897 12.6629L4.01134 11.9882ZM3.30502 15.1856L3.88644 14.7118L3.30502 15.1856ZM6.95979 13.4108L6.22786 13.5744L6.22786 13.5744L6.95979 13.4108ZM19.9975 6.00004L19.4671 6.53027L19.4671 6.53027L19.9975 6.00004ZM19.9975 3.00002L19.9975 3.75002L19.9975 3.75002L19.9975 3.00002ZM20.9972 12.5L20.3691 12.0901L20.3645 12.0973L20.9972 12.5ZM16.8439 14.2888L17.5758 14.4524L17.5758 14.4524L16.8439 14.2888ZM20.1268 15.883L20.7082 16.3568L20.7082 16.3568L20.1268 15.883ZM19.9887 11.9884L20.3163 11.3137L19.9887 11.9884ZM20.695 15.1857L21.2764 15.6595L21.2764 15.6595L20.695 15.1857ZM17.0402 13.4109L16.3083 13.2473L16.3083 13.2473L17.0402 13.4109ZM22.9961 6.00004L23.7456 5.97291L22.9961 6.00004ZM11.7931 10.2241L11.1931 10.674L11.1931 10.674L11.7931 10.2241ZM11.5879 9.95031L12.188 9.50042L12.188 9.50042L11.5879 9.95031ZM12.4121 9.95034L11.812 9.50045L11.812 9.50045L12.4121 9.95034ZM12.2069 10.2241L12.8069 10.674L12.8069 10.674L12.2069 10.2241ZM10.5004 6.68687L9.75036 6.68691L10.5004 6.68687ZM18.5086 11.8573L18.7141 12.5786L18.5086 11.8573ZM20.84 12.747L20.2061 13.1478L20.2061 13.1478L20.84 12.747ZM15.8709 4.72279L15.4488 5.34273L15.4488 5.34273L15.8709 4.72279ZM8.12917 4.72272L8.55126 5.34268L8.12917 4.72272ZM5.49136 11.8572L5.2859 12.5785L5.2859 12.5785L5.49136 11.8572ZM7.97445 7.97656L7.48345 8.54349L7.97445 7.97656ZM8.75126 7.37129V4.96522H7.25126V7.37129H8.75126ZM15.2487 4.96522V7.37117H16.7487V4.96522H15.2487ZM11.6967 20.7218L11.068 19.1499L9.67528 19.7069L10.3039 21.2788L11.6967 20.7218ZM10.7679 15.1385L10.827 14.8873L9.36687 14.5437L9.30775 14.795L10.7679 15.1385ZM13.1728 14.8871L13.232 15.1387L14.6921 14.7953L14.6329 14.5437L13.1728 14.8871ZM12.9318 19.1497L12.3033 20.7218L13.6961 21.2787L14.3246 19.7066L12.9318 19.1497ZM13.232 15.1387C13.5462 16.4748 13.4414 17.8753 12.9318 19.1497L14.3246 19.7066C14.9485 18.1461 15.0769 16.4313 14.6921 14.7953L13.232 15.1387ZM11.068 19.1499C10.5583 17.8754 10.4535 16.4747 10.7679 15.1385L9.30775 14.795C8.9228 16.4312 9.05113 18.1462 9.67528 19.7069L11.068 19.1499ZM15.2487 7.37117C15.2487 8.73508 14.8003 10.0611 13.9727 11.1449L15.1648 12.0553C16.1922 10.71 16.7487 9.06405 16.7487 7.37117H15.2487ZM8.83509 12.0552C9.37577 12.7632 9.57093 13.6764 9.36687 14.5437L10.827 14.8873C11.1339 13.583 10.8404 12.2097 10.0272 11.1448L8.83509 12.0552ZM13.9727 11.1449C13.1596 12.2097 12.8661 13.5828 13.1728 14.8871L14.6329 14.5437C14.429 13.6764 14.6242 12.7633 15.1648 12.0553L13.9727 11.1449ZM15.4562 5.3478C15.3009 5.24066 15.2487 5.08073 15.2487 4.96522H16.7487C16.7487 4.66299 16.6168 4.32607 16.3078 4.11296L15.4562 5.3478ZM7.69222 4.11296C7.38317 4.32608 7.25126 4.663 7.25126 4.96522H8.75126C8.75126 5.08072 8.69915 5.24066 8.54378 5.3478L7.69222 4.11296ZM4.5329 6.53012C4.45846 6.60459 4.38514 6.60476 4.40401 6.60415C4.43376 6.60318 4.51615 6.61067 4.66354 6.66002C4.95757 6.75847 5.33851 6.96369 5.75107 7.23083C6.5648 7.75774 7.33509 8.41501 7.48345 8.54349L8.46546 7.40962C8.30431 7.27006 7.47036 6.5571 6.56635 5.97174C6.12003 5.68274 5.61372 5.39632 5.13979 5.23763C4.90319 5.15841 4.63143 5.09597 4.35529 5.10494C4.06827 5.11427 3.73734 5.20425 3.47203 5.46967L4.5329 6.53012ZM3.63087 12.09C2.88272 10.9437 1.93576 8.68613 1.77384 6.76483C1.69261 5.80096 1.81957 5.04215 2.14108 4.54682C2.42734 4.10578 2.94903 3.74989 4.00247 3.74988L4.00246 2.24988C2.5568 2.24989 1.50339 2.77414 0.882871 3.73016C0.297597 4.63189 0.186121 5.78703 0.279142 6.8908C0.465727 9.10478 1.51803 11.5972 2.37474 12.9098L3.63087 12.09ZM6.22786 13.5744L6.42415 14.4523L7.88801 14.125L7.69172 13.2471L6.22786 13.5744ZM4.45462 15.4091L3.88644 14.7118L2.7236 15.6594L3.29178 16.3567L4.45462 15.4091ZM6.42415 14.4523C6.53807 14.9618 6.28683 15.4826 5.81761 15.7105L6.47286 17.0598C7.56794 16.528 8.15363 15.313 7.88801 14.125L6.42415 14.4523ZM3.29178 16.3567C4.0608 17.3004 5.37772 17.5916 6.47286 17.0598L5.81761 15.7105C5.34846 15.9383 4.78422 15.8136 4.45462 15.4091L3.29178 16.3567ZM20.528 5.46982C20.2468 5.1885 19.8937 5.10512 19.5963 5.10423C19.3089 5.10337 19.0248 5.17693 18.7766 5.26693C18.2781 5.44774 17.7437 5.763 17.2787 6.07384C16.8047 6.39072 16.362 6.73092 16.0403 6.98937C15.8787 7.11921 15.746 7.22981 15.653 7.30845C15.6065 7.3478 15.5699 7.37922 15.5445 7.40113C15.5318 7.41209 15.522 7.42068 15.5151 7.4267C15.5116 7.42971 15.5089 7.43208 15.507 7.43378C15.506 7.43463 15.5052 7.43531 15.5046 7.43583C15.5043 7.43609 15.5041 7.4363 15.5039 7.43647C15.5038 7.43656 15.5037 7.43666 15.5036 7.4367C15.5035 7.43679 15.5034 7.43686 15.9987 8.00004C16.494 8.56323 16.494 8.56328 16.4939 8.56332C16.4939 8.56332 16.4939 8.56336 16.4939 8.56336C16.4939 8.56336 16.4939 8.56332 16.494 8.56324C16.4942 8.56307 16.4946 8.56274 16.4952 8.56225C16.4963 8.56126 16.4982 8.55961 16.5008 8.55733C16.506 8.55278 16.5142 8.5457 16.525 8.5363C16.5468 8.51748 16.5796 8.48938 16.6219 8.45354C16.7067 8.38182 16.8296 8.27942 16.9798 8.15869C17.2819 7.91601 17.6875 7.60487 18.1124 7.32084C18.5463 7.03078 18.9612 6.7956 19.288 6.67708C19.4525 6.61742 19.5502 6.6041 19.5918 6.60422C19.6234 6.60432 19.5466 6.60978 19.4671 6.53027L20.528 5.46982ZM16.3083 13.2473L16.112 14.1251L17.5758 14.4524L17.7721 13.5746L16.3083 13.2473ZM20.7082 16.3568L21.2764 15.6595L20.1136 14.712L19.5454 15.4093L20.7082 16.3568ZM16.112 14.1251C15.8464 15.3131 16.4321 16.5281 17.5271 17.0599L18.1824 15.7106C17.7132 15.4827 17.4619 14.9619 17.5758 14.4524L16.112 14.1251ZM19.5454 15.4093C19.2158 15.8138 18.6515 15.9384 18.1824 15.7106L17.5271 17.0599C18.6223 17.5917 19.9392 17.3006 20.7082 16.3568L19.5454 15.4093ZM21.6253 12.91C22.1218 12.1492 22.6673 11.021 23.0795 9.7998C23.4902 8.58326 23.7904 7.21101 23.7456 5.97291L22.2465 6.02718C22.2822 7.01311 22.0391 8.19201 21.6583 9.32002C21.2791 10.4434 20.7848 11.4532 20.3691 12.0901L21.6253 12.91ZM23.7456 5.97291C23.7116 5.03503 23.4758 4.09016 22.8468 3.37248C22.1986 2.63294 21.2357 2.25003 19.9975 2.25002L19.9975 3.75002C20.9165 3.75003 21.4222 4.02285 21.7188 4.36117C22.0344 4.72135 22.2194 5.27649 22.2465 6.02718L23.7456 5.97291ZM12.3932 9.77422L12.188 9.50042L10.9878 10.4002L11.1931 10.674L12.3932 9.77422ZM11.812 9.50045L11.6068 9.77422L12.8069 10.674L13.0122 10.4002L11.812 9.50045ZM10.7179 7.21926H13.282V5.71926H10.7179V7.21926ZM12.7495 6.68684C12.7495 7.70149 12.4206 8.68875 11.812 9.50045L13.0122 10.4002C13.8154 9.32889 14.2495 8.02591 14.2495 6.68684H12.7495ZM12.188 9.50042C11.5794 8.68872 11.2504 7.70148 11.2504 6.68682L9.75036 6.68691C9.75044 8.02596 10.1846 9.32889 10.9878 10.4002L12.188 9.50042ZM11.1931 10.674C11.5965 11.2121 12.4035 11.2121 12.8069 10.674L11.6068 9.77422C11.8033 9.51202 12.1967 9.51202 12.3932 9.77422L11.1931 10.674ZM14.2495 6.68684C14.2495 6.15268 13.8166 5.71926 13.282 5.71926V7.21926C12.9877 7.21926 12.7495 6.98066 12.7495 6.68684H14.2495ZM11.2504 6.68682C11.2504 6.98065 11.0122 7.21926 10.7179 7.21926V5.71926C10.1833 5.71926 9.75033 6.15272 9.75036 6.68691L11.2504 6.68682ZM20.3163 11.3137C19.6576 10.9938 18.9441 10.9535 18.3032 11.136L18.7141 12.5786C19.0156 12.4928 19.3482 12.5111 19.661 12.663L20.3163 11.3137ZM18.3032 11.136C17.3504 11.4074 16.5478 12.1759 16.3083 13.2473L17.7721 13.5746C17.8847 13.071 18.2589 12.7083 18.7141 12.5786L18.3032 11.136ZM19.165 12.2202C19.393 11.8078 20.0555 10.5713 20.5262 9.28667C20.76 8.64826 20.9619 7.95741 21.0257 7.33013C21.0853 6.7443 21.0477 5.98971 20.528 5.46982L19.4671 6.53027C19.4832 6.54639 19.583 6.69128 19.5334 7.17835C19.4881 7.62397 19.3343 8.17942 19.1177 8.77065C18.6874 9.94527 18.0696 11.1014 17.8523 11.4944L19.165 12.2202ZM19.661 12.663C19.8977 12.778 20.0798 12.9481 20.2061 13.1478L21.4739 12.3461C21.2025 11.917 20.811 11.554 20.3163 11.3137L19.661 12.663ZM20.2061 13.1478C20.5031 13.6175 20.4928 14.2466 20.1136 14.712L21.2764 15.6595C22.0851 14.667 22.0964 13.3305 21.4739 12.3461L20.2061 13.1478ZM20.3645 12.0973L20.2073 12.3442L21.4727 13.1497L21.6299 12.9028L20.3645 12.0973ZM19.9976 2.25002C19.0624 2.24999 18.1008 2.60128 17.3204 2.98106C16.5253 3.36801 15.8392 3.82421 15.4355 4.11217L16.3064 5.33342C16.6727 5.07217 17.2841 4.66696 17.9768 4.32981C18.6843 3.98549 19.401 3.75 19.9975 3.75002L19.9976 2.25002ZM12 4.57864C14.1856 4.57864 15.2108 5.18066 15.4488 5.34273L16.293 4.10286C15.8017 3.7683 14.4813 3.07864 12 3.07864V4.57864ZM15.4488 5.34273C15.4513 5.34445 15.4538 5.34614 15.4562 5.3478L16.3078 4.11296C16.303 4.10965 16.2981 4.10628 16.293 4.10286L15.4488 5.34273ZM4.00249 3.74988C4.59899 3.74985 5.31573 3.98537 6.02325 4.32971C6.71604 4.66688 7.3274 5.07211 7.69369 5.33334L8.56466 4.11211C8.16091 3.82416 7.47479 3.36794 6.67967 2.98096C5.89928 2.60116 4.93768 2.24984 4.00243 2.24988L4.00249 3.74988ZM8.54378 5.3478C8.5462 5.34614 8.54869 5.34443 8.55126 5.34268L7.70709 4.10277C7.70203 4.10621 7.69708 4.10961 7.69222 4.11296L8.54378 5.3478ZM8.55126 5.34268C8.78939 5.18055 9.81463 4.57864 12 4.57864V3.07864C9.51889 3.07864 8.19854 3.76817 7.70709 4.10277L8.55126 5.34268ZM10.0272 11.1448C9.31773 10.2157 8.88694 9.10862 8.77845 7.95223L7.28501 8.09235C7.41968 9.52768 7.95437 10.9019 8.83509 12.0552L10.0272 11.1448ZM8.77845 7.95223C8.76039 7.75976 8.75126 7.56592 8.75126 7.37129H7.25126C7.25126 7.61284 7.26259 7.85344 7.28501 8.09235L8.77845 7.95223ZM3.68371 11.3136C3.19007 11.5533 2.7992 11.9153 2.52792 12.3431L3.79474 13.1463C3.92099 12.9472 4.10283 12.7776 4.33897 12.6629L3.68371 11.3136ZM2.52792 12.3431C1.90356 13.3278 1.91408 14.6659 2.7236 15.6594L3.88644 14.7118C3.50687 14.246 3.49684 13.6162 3.79474 13.1463L2.52792 12.3431ZM2.37325 12.9075L2.53178 13.1523L3.79089 12.3371L3.63236 12.0923L2.37325 12.9075ZM4.33897 12.6629C4.65179 12.511 4.98438 12.4926 5.2859 12.5785L5.69682 11.1359C5.05588 10.9533 4.34244 10.9937 3.68371 11.3136L4.33897 12.6629ZM5.2859 12.5785C5.74108 12.7081 6.11527 13.0708 6.22786 13.5744L7.69172 13.2471C7.45218 12.1758 6.64956 11.4073 5.69682 11.1359L5.2859 12.5785ZM6.14771 11.4943C5.9304 11.1013 5.31264 9.94512 4.8823 8.77051C4.66569 8.17928 4.51188 7.62382 4.46656 7.1782C4.41702 6.69113 4.51679 6.54624 4.5329 6.53012L3.47203 5.46967C2.95235 5.98956 2.91467 6.74416 2.97426 7.32999C3.03806 7.95726 3.23995 8.64811 3.47385 9.28653C3.94452 10.5712 4.60699 11.8077 4.83501 12.2201L6.14771 11.4943ZM7.48345 8.54349C7.51755 8.57303 7.5511 8.59983 7.58756 8.62662L8.4759 7.41797C8.47175 7.41492 8.46944 7.41307 8.46546 7.40962L7.48345 8.54349Z" fill="black"/>
</svg>
