<svg width="24" height="24" viewBox="0 0 24 24" fill="none" xmlns="http://www.w3.org/2000/svg">
<path d="M13.8429 4.34143L14.4669 4.75748L14.4669 4.75747L13.8429 4.34143ZM15.2882 3.52554C15.518 3.1809 15.4249 2.71524 15.0802 2.48547C14.7356 2.2557 14.2699 2.34882 14.0402 2.69346L15.2882 3.52554ZM16.072 13.9555L15.3683 14.215L15.3883 14.2693L15.4165 14.32L16.072 13.9555ZM14.2911 10.9738L14.8535 10.4776L14.8535 10.4776L14.2911 10.9738ZM16.6439 14.9843L17.2994 14.6198L17.2994 14.6198L16.6439 14.9843ZM19.2307 16.5263L19.2219 17.2763H19.2307V16.5263ZM21 17.2763C21.4142 17.2763 21.75 16.9405 21.75 16.5263C21.75 16.1121 21.4142 15.7763 21 15.7763V17.2763ZM19.1662 19.0238L19.1574 19.7737L19.1574 19.7737L19.1662 19.0238ZM20.9515 19.7948C21.3657 19.7996 21.7054 19.4678 21.7102 19.0536C21.7151 18.6395 21.3833 18.2998 20.9691 18.2949L20.9515 19.7948ZM16.5826 18.4053L16.9145 17.7327C16.6968 17.6254 16.4407 17.6299 16.227 17.745C16.0134 17.86 15.8686 18.0714 15.8384 18.3122L16.5826 18.4053ZM15.1781 22.3027L14.5453 21.9001L14.5453 21.9001L15.1781 22.3027ZM10.8034 20.1553L11.4362 20.558L11.4362 20.558L10.8034 20.1553ZM9.68001 20.5237C9.45763 20.8732 9.56066 21.3367 9.91012 21.5591C10.2596 21.7815 10.7231 21.6785 10.9455 21.329L9.68001 20.5237ZM8.07316 9.02288L8.81159 8.89165C8.76753 8.64378 8.60206 8.43454 8.371 8.33456C8.13995 8.23458 7.87415 8.25719 7.66331 8.39477L8.07316 9.02288ZM10.2917 13.6203L9.72935 14.1165L9.72935 14.1165L10.2917 13.6203ZM3 9.24811C2.58579 9.24811 2.25 9.58389 2.25 9.99811C2.25 10.4123 2.58579 10.7481 3 10.7481V9.24811ZM3 6.75007C2.58579 6.75007 2.25 7.08585 2.25 7.50007C2.25 7.91428 2.58579 8.25007 3 8.25007L3 6.75007ZM4.75903 7.50007L4.75903 8.25007L4.75903 8.25007L4.75903 7.50007ZM7.36376 5.98849L6.71258 5.61638L6.71258 5.61638L7.36376 5.98849ZM8.5 4.00007L9.15118 4.37217L9.16151 4.3541L9.17082 4.33548L8.5 4.00007ZM8.78296 3.43414L9.45378 3.76955L9.45952 3.75807L9.46487 3.7464L8.78296 3.43414ZM9.51471 2.12256L10.1387 2.5386L10.1387 2.5386L9.51471 2.12256ZM10.7071 9.12132L11.4186 8.88415L11.4186 8.88415L10.7071 9.12132ZM10.2885 10.2372C10.4195 10.6301 10.8442 10.8425 11.2372 10.7115C11.6301 10.5805 11.8425 10.1558 11.7115 9.76283L10.2885 10.2372ZM11.6708 5.33541C11.8561 4.96493 11.7059 4.51442 11.3354 4.32918C10.9649 4.14394 10.5144 4.29411 10.3292 4.66459L11.6708 5.33541ZM13.7929 19.1213L14.5044 19.3585L14.5044 19.3585L13.7929 19.1213ZM12.7885 19.7628C12.6575 20.1558 12.8699 20.5805 13.2628 20.7115C13.6558 20.8425 14.0805 20.6301 14.2115 20.2372L12.7885 19.7628ZM14.1708 14.6646C13.9856 14.2941 13.5351 14.1439 13.1646 14.3292C12.7941 14.5144 12.6439 14.9649 12.8292 15.3354L14.1708 14.6646ZM5.47542 10.0323L6.19986 9.83813L6.19173 9.8078L6.1811 9.77825L5.47542 10.0323ZM6.15589 9.70823C6.0156 9.31849 5.58594 9.11628 5.1962 9.25657C4.80647 9.39686 4.60426 9.82652 4.74455 10.2163L6.15589 9.70823ZM4.40236 12.0162C4.15282 12.3468 4.21853 12.8171 4.54913 13.0666C4.87974 13.3162 5.35005 13.2505 5.59959 12.9199L4.40236 12.0162ZM19.424 16.1539L18.6995 15.9598L18.6995 15.9601L19.424 16.1539ZM18.5996 16.3332C18.4924 16.7333 18.7298 17.1446 19.1298 17.2518C19.5299 17.3591 19.9412 17.1217 20.0485 16.7216L18.5996 16.3332ZM21.2925 14.9196C21.6739 14.7581 21.8522 14.3179 21.6906 13.9365C21.5291 13.5551 21.0889 13.3769 20.7075 13.5384L21.2925 14.9196ZM16.23 5.79671L16.23 6.54671L16.23 6.54671L16.23 5.79671ZM16.2635 6.54671C16.6777 6.5467 17.0135 6.2109 17.0135 5.79669C17.0134 5.38247 16.6776 5.0467 16.2634 5.04671L16.2635 6.54671ZM14 4.70801L13.3948 5.15096L13.4016 5.16023L13.4086 5.16928L14 4.70801ZM4.92997 4.01066L5.1241 4.7351L5.1241 4.7351L4.92997 4.01066ZM4.70349 3.29489C4.30339 3.4021 4.06596 3.81336 4.17318 4.21346C4.28039 4.61356 4.69165 4.85098 5.09175 4.74377L4.70349 3.29489ZM7.36572 4.48511L7.8288 3.89497L7.81756 3.88649L7.36572 4.48511ZM8.92997 18.0107L8.73584 17.2862L8.73583 17.2862L8.92997 18.0107ZM8.70348 17.2949C8.30339 17.4021 8.06596 17.8134 8.17318 18.2135C8.2804 18.6136 8.69166 18.851 9.09175 18.7438L8.70348 17.2949ZM11.3657 18.4851L11.8619 17.9227L11.8404 17.9037L11.8176 17.8865L11.3657 18.4851ZM7.95749 4.94946L8.60867 5.32156L8.60867 5.32156L7.95749 4.94946ZM13.7904 4.42162L13.1592 4.0165L13.1592 4.01651L13.7904 4.42162ZM11.4836 18.5891L12.2099 18.7762L11.4836 18.5891ZM10.8871 1.41604C11.1169 1.0714 11.0238 0.605744 10.6792 0.375972C10.3345 0.1462 9.86886 0.23932 9.63909 0.583961L10.8871 1.41604ZM14.1016 22.5974C13.8793 22.9468 13.9823 23.4104 14.3318 23.6328C14.6812 23.8551 15.1448 23.7521 15.3672 23.4026L14.1016 22.5974ZM14.4669 4.75747L15.2882 3.52554L14.0402 2.69346L13.2188 3.92539L14.4669 4.75747ZM16.7757 13.6961C16.3486 12.5375 15.706 11.4438 14.8535 10.4776L13.7287 11.4701C14.4565 12.2949 15.0042 13.2274 15.3683 14.215L16.7757 13.6961ZM17.2994 14.6198L16.7275 13.5911L15.4165 14.32L15.9884 15.3487L17.2994 14.6198ZM19.2395 15.7764C18.4321 15.7669 17.6918 15.3255 17.2994 14.6198L15.9884 15.3487C16.6423 16.5249 17.8763 17.2605 19.2219 17.2763L19.2395 15.7764ZM21 15.7763H19.3243V17.2763H21V15.7763ZM19.3243 15.7763H19.2307V17.2763H19.3243V15.7763ZM19.1574 19.7737L20.9515 19.7948L20.9691 18.2949L19.175 18.2738L19.1574 19.7737ZM16.2508 19.0779C17.1395 19.5164 18.1295 19.7617 19.1574 19.7737L19.175 18.2738C18.3753 18.2644 17.6057 18.0738 16.9145 17.7327L16.2508 19.0779ZM15.8109 22.7054C16.6408 21.401 17.1436 19.9626 17.3268 18.4985L15.8384 18.3122C15.6822 19.5605 15.2538 20.7868 14.5453 21.9001L15.8109 22.7054ZM10.1706 19.7527L9.68001 20.5237L10.9455 21.329L11.4362 20.558L10.1706 19.7527ZM7.33473 9.15411C7.65416 10.9516 8.45725 12.6748 9.72935 14.1165L10.8541 13.1241C9.76863 11.8939 9.08406 10.4248 8.81159 8.89165L7.33473 9.15411ZM7.66331 8.39477C6.8254 8.94151 5.83318 9.24811 4.79419 9.24811V10.7481C6.13002 10.7481 7.40616 10.3536 8.483 9.65099L7.66331 8.39477ZM4.79419 9.24811H3V10.7481H4.79419V9.24811ZM3 8.25007L4.75903 8.25007L4.75903 6.75007L3 6.75007L3 8.25007ZM4.75903 8.25007C6.10474 8.25007 7.34728 7.529 8.01494 6.36059L6.71258 5.61638C6.31198 6.31743 5.56646 6.75007 4.75903 6.75007L4.75903 8.25007ZM9.17082 4.33548L9.45378 3.76955L8.11214 3.09873L7.82918 3.66466L9.17082 4.33548ZM8.89068 1.70652C8.58688 2.16219 8.32374 2.63558 8.10106 3.12188L9.46487 3.7464C9.65471 3.33182 9.8792 2.92788 10.1387 2.5386L8.89068 1.70652ZM9.99559 9.35849L10.2885 10.2372L11.7115 9.76283L11.4186 8.88415L9.99559 9.35849ZM10.3292 4.66459C9.59993 6.12308 9.47994 7.81153 9.99559 9.35849L11.4186 8.88415C11.0288 7.7146 11.1195 6.43808 11.6708 5.33541L10.3292 4.66459ZM13.0814 18.8841L12.7885 19.7628L14.2115 20.2372L14.5044 19.3585L13.0814 18.8841ZM12.8292 15.3354C13.3805 16.4381 13.4712 17.7146 13.0814 18.8841L14.5044 19.3585C15.0201 17.8115 14.9001 16.1231 14.1708 14.6646L12.8292 15.3354ZM6.1811 9.77825L6.15589 9.70823L4.74455 10.2163L4.76975 10.2863L6.1811 9.77825ZM5.59959 12.9199C6.26376 12.0399 6.48522 10.903 6.19986 9.83813L4.75098 10.2264C4.91671 10.8448 4.78809 11.5051 4.40236 12.0162L5.59959 12.9199ZM18.6995 15.9601L18.5998 16.3324L20.0488 16.7202L20.1485 16.3478L18.6995 15.9601ZM18.5999 16.3321L18.5996 16.3332L20.0485 16.7216L20.0488 16.7205L18.5999 16.3321ZM20.7075 13.5384C19.6497 13.9864 18.9717 14.944 18.6995 15.9598L20.1484 16.348C20.3272 15.6806 20.7456 15.1512 21.2925 14.9196L20.7075 13.5384ZM16.23 6.54671L16.2635 6.54671L16.2634 5.04671L16.2299 5.04671L16.23 6.54671ZM13.4086 5.16928C14.0867 6.03855 15.1275 6.54674 16.23 6.54671L16.2299 5.04671C15.5897 5.04672 14.9852 4.75159 14.5914 4.24674L13.4086 5.16928ZM4.73584 3.28622L4.70349 3.29489L5.09175 4.74377L5.1241 4.7351L4.73584 3.28622ZM7.81756 3.88649C6.93765 3.22232 5.8007 3.00086 4.73583 3.28622L5.1241 4.7351C5.74254 4.56937 6.40285 4.69799 6.91388 5.08372L7.81756 3.88649ZM8.73583 17.2862L8.70348 17.2949L9.09175 18.7438L9.1241 18.7351L8.73583 17.2862ZM11.8176 17.8865C10.9377 17.2223 9.8007 17.0009 8.73584 17.2862L9.1241 18.7351C9.74254 18.5694 10.4029 18.698 10.9139 19.0837L11.8176 17.8865ZM8.01494 6.36059L8.60867 5.32156L7.30631 4.57735L6.71258 5.61638L8.01494 6.36059ZM8.60867 5.32156L9.15118 4.37217L7.84881 3.62797L7.30631 4.57735L8.60867 5.32156ZM6.90273 5.07514L7.4945 5.53949L8.42048 4.35943L7.82871 3.89507L6.90273 5.07514ZM14.8535 10.4776C13.4612 8.89968 13.2885 6.59201 14.4216 4.82674L13.1592 4.01651C11.6646 6.3451 11.8923 9.38875 13.7287 11.4701L14.8535 10.4776ZM14.4216 4.82674C14.4365 4.80355 14.4516 4.78046 14.4669 4.75748L13.2188 3.92539C13.1987 3.95564 13.1788 3.98601 13.1592 4.0165L14.4216 4.82674ZM14.6052 4.26505L14.3956 3.97867L13.1852 4.86458L13.3948 5.15096L14.6052 4.26505ZM9.72935 14.1165C10.7815 15.3089 11.1389 16.9209 10.7573 18.402L12.2099 18.7762C12.7129 16.8239 12.2424 14.6975 10.8541 13.1241L9.72935 14.1165ZM10.7573 18.402C10.6365 18.8709 10.4416 19.3269 10.1706 19.7527L11.4362 20.558C11.7929 19.9974 12.0503 19.3956 12.2099 18.7762L10.7573 18.402ZM10.8696 19.0475L10.9875 19.1516L11.9798 18.0267L11.8619 17.9227L10.8696 19.0475ZM9.63909 0.583961L8.89068 1.70652L10.1387 2.5386L10.8871 1.41604L9.63909 0.583961ZM15.3672 23.4026L15.8109 22.7054L14.5453 21.9001L14.1016 22.5974L15.3672 23.4026Z" fill="black"/>
</svg>
