<svg width="24" height="24" viewBox="0 0 24 24" fill="none" xmlns="http://www.w3.org/2000/svg">
<path d="M16.5943 22.9964C10.704 23.132 1.45287 19.4854 1.01603 7.59069C0.99758 7.08827 1.3735 6.65809 1.87246 6.59368L5.55289 6.11856C6.0712 6.05164 6.55375 6.39457 6.66065 6.90578L7.30315 9.9785C7.38981 10.3929 7.20592 10.817 6.84406 11.0371L5.46027 11.8792C5.4179 11.905 5.40112 11.9587 5.42068 12.0042C7.07029 15.8464 9.55942 17.5536 12.2475 18.4914C12.2935 18.5075 12.3443 18.4877 12.3677 18.4449L13.0952 17.1124C13.3033 16.7313 13.7337 16.5279 14.1605 16.609L17.106 17.1684C17.6178 17.2657 17.9694 17.7391 17.9142 18.2568L17.501 22.1334C17.4503 22.6087 17.0726 22.9854 16.5943 22.9964Z" fill="black"/>
<path d="M13.0528 4.73075C13.0528 4.62893 13.1354 4.54639 13.2373 4.54639C13.338 4.54639 13.4199 4.627 13.4218 4.72716V4.73435C13.4215 4.74927 13.4195 4.76375 13.4158 4.7776L13.3944 4.82748C13.3619 4.88008 13.3037 4.91512 13.2373 4.91512C13.1354 4.91512 13.0528 4.83258 13.0528 4.73075Z" fill="black"/>
<path fill-rule="evenodd" clip-rule="evenodd" d="M22.0862 1C22.5994 1 23.0154 1.41574 23.0154 1.92857V9.40476C23.0154 9.9176 22.5994 10.3333 22.0862 10.3333L17.3609 10.3333C17.3341 10.3333 17.3085 10.344 17.2897 10.363L14.2873 13.3966C13.7039 13.9861 12.6986 13.574 12.6974 12.7449L12.6944 10.4332C12.6943 10.378 12.6495 10.3333 12.5943 10.3333H10.9355C10.4223 10.3333 10.0063 9.9176 10.0063 9.40477V1.92857C10.0063 1.41574 10.4223 1 10.9355 1H22.0862ZM16.5853 7.41177V5.10446L16.4971 5.14856C16.1263 5.3338 15.6755 5.18363 15.4901 4.81315C15.3048 4.44266 15.455 3.99216 15.8258 3.80692L16.8554 3.29247C17.421 3.00989 18.0864 3.42086 18.0864 4.05273V7.41177C18.0864 7.82598 17.7504 8.16177 17.3359 8.16177C16.9214 8.16177 16.5853 7.82598 16.5853 7.41177ZM19.9688 5.11825V7.42556C19.9688 7.83978 20.3048 8.17556 20.7193 8.17556C21.1338 8.17556 21.4699 7.83978 21.4699 7.42556V4.06653C21.4699 3.43465 20.8044 3.02368 20.2389 3.30626L19.2093 3.82071C18.8385 4.00595 18.6882 4.45646 18.8736 4.82694C19.059 5.19742 19.5098 5.34759 19.8805 5.16235L19.9688 5.11825ZM13.2373 3.04639C14.1104 3.04639 14.8285 3.70975 14.9143 4.55963C14.9199 4.59668 14.9229 4.63463 14.9229 4.67325V4.71989L14.9229 4.73075L14.9229 4.74162V4.76419C14.9229 4.93886 14.8923 5.11196 14.8327 5.27572C14.8093 5.34432 14.7815 5.41092 14.7497 5.4752L13.7401 7.82935C13.5769 8.21007 13.1356 8.38644 12.7546 8.22327C12.3737 8.06011 12.1972 7.6192 12.3604 7.23847L12.7449 6.34209C12.0542 6.13157 11.5518 5.4898 11.5518 4.73075C11.5518 3.8005 12.3064 3.04639 13.2373 3.04639Z" fill="black"/>
</svg>
