<svg width="24" height="24" viewBox="0 0 24 24" fill="none" xmlns="http://www.w3.org/2000/svg">
<path d="M2.5 4C3.32843 4 4 3.32843 4 2.5C4 1.67157 3.32843 1 2.5 1C1.67157 1 1 1.67157 1 2.5C1 3.32843 1.67157 4 2.5 4Z" fill="black"/>
<path d="M15.5 4C16.3284 4 17 3.32843 17 2.5C17 1.67157 16.3284 1 15.5 1C14.6716 1 14 1.67157 14 2.5C14 3.32843 14.6716 4 15.5 4Z" fill="black"/>
<path d="M4 8.5C4 9.32843 3.32843 10 2.5 10C1.67157 10 1 9.32843 1 8.5C1 7.67157 1.67157 7 2.5 7C3.32843 7 4 7.67157 4 8.5Z" fill="black"/>
<path d="M2.5 16C3.32843 16 4 15.3284 4 14.5C4 13.6716 3.32843 13 2.5 13C1.67157 13 1 13.6716 1 14.5C1 15.3284 1.67157 16 2.5 16Z" fill="black"/>
<path d="M23 2.5C23 3.32843 22.3284 4 21.5 4C20.6716 4 20 3.32843 20 2.5C20 1.67157 20.6716 1 21.5 1C22.3284 1 23 1.67157 23 2.5Z" fill="black"/>
<path d="M8.5 10C9.32843 10 10 9.32843 10 8.5C10 7.67157 9.32843 7 8.5 7C7.67157 7 7 7.67157 7 8.5C7 9.32843 7.67157 10 8.5 10Z" fill="black"/>
<path d="M23 8.5C23 9.32843 22.3284 10 21.5 10C20.6716 10 20 9.32843 20 8.5C20 7.67157 20.6716 7 21.5 7C22.3284 7 23 7.67157 23 8.5Z" fill="black"/>
<path d="M13.3213 6.99878C12.5572 6.99878 11.9377 7.61825 11.9377 8.38241V17.3331C11.9377 17.5568 11.8334 17.7677 11.6556 17.9035C11.3609 18.1285 10.9434 18.092 10.6922 17.8194L10.1834 17.2673C9.4471 16.4681 8.24897 16.3298 7.34048 16.9391C7.00863 17.1616 6.9021 17.6082 7.09789 17.9559L10.0814 22.9469C10.0994 22.9771 10.132 22.9956 10.1672 22.9956H22.8922C22.9474 22.9956 22.9922 22.9508 22.9922 22.8956V17.8532C22.9974 17.8047 23 17.7554 23 17.7056V15.4921C23 14.7279 22.3805 14.1085 21.6164 14.1085C20.8974 14.1085 20.3065 14.6568 20.2392 15.3581V14.6066C20.2392 13.8407 19.6182 13.2198 18.8523 13.2198C18.1319 13.2198 17.5398 13.769 17.4719 14.4716L17.4719 13.7147C17.4719 12.9505 16.8524 12.331 16.0883 12.331C15.334 12.331 14.7206 12.9347 14.705 13.6853V8.38241C14.705 7.61825 14.0855 6.99878 13.3213 6.99878Z" fill="black"/>
</svg>
