<svg width="24" height="24" viewBox="0 0 24 24" fill="none" xmlns="http://www.w3.org/2000/svg">
<path d="M14 3C14 3.84433 13.4768 4.56645 12.7369 4.85986C12.7455 4.90526 12.75 4.9521 12.75 5L12.75 16.051L12.7754 16.0403L12.75 16.1019V16.1041L12.7765 16.0399C12.9783 15.9554 13.1697 15.8715 13.354 15.7812C13.8512 15.5378 14.0761 15.3454 14.1578 15.2014C14.3373 14.8849 14.3692 14.6553 14.3594 14.4997C14.3494 14.3405 14.2919 14.2001 14.2043 14.0722C14.1141 13.9407 13.9991 13.8336 13.8998 13.7572C13.8516 13.7201 13.8111 13.6933 13.7853 13.6772C13.7725 13.6693 13.7637 13.6641 13.7597 13.6619L13.7583 13.6611C13.3958 13.467 13.2569 13.0165 13.4483 12.6517C13.6407 12.2848 14.094 12.1434 14.4608 12.3358L14.1174 12.9906C14.4608 12.3358 14.4605 12.3356 14.4608 12.3358L14.4622 12.3365L14.4638 12.3374L14.4675 12.3393L14.4767 12.3443L14.5021 12.3585C14.522 12.3699 14.548 12.3851 14.5787 12.4043C14.64 12.4425 14.7218 12.4971 14.8144 12.5683C14.9966 12.7084 15.2368 12.9255 15.4416 13.2243C15.6489 13.5268 15.8261 13.9229 15.8565 14.4053C15.8871 14.8912 15.7652 15.408 15.4626 15.9415C15.1391 16.5117 14.5405 16.8705 14.0135 17.1284C13.9411 17.1639 13.8658 17.1993 13.7885 17.2346C14.5443 17.7244 15.2146 18.4037 15.4337 19.4123C15.6345 20.3371 15.4079 21.1194 15.1449 21.653C15.0135 21.9197 14.8701 22.1308 14.7578 22.2775C14.7013 22.3512 14.6519 22.4097 14.6143 22.452C14.5956 22.4732 14.5797 22.4904 14.5673 22.5035L14.5515 22.52L14.5457 22.5259L14.5433 22.5283L14.5423 22.5294C14.542 22.5296 14.5413 22.5303 14.011 22L14.5413 22.5303C14.2484 22.8232 13.7735 22.8232 13.4807 22.5303C13.1892 22.2389 13.1878 21.7672 13.4764 21.4739L13.479 21.4713L13.4923 21.4565C13.5083 21.4385 13.5345 21.4077 13.567 21.3654C13.6324 21.2799 13.7197 21.1518 13.7995 20.9899C13.9589 20.6663 14.0772 20.2343 13.9678 19.7306C13.8454 19.167 13.4212 18.7445 12.75 18.3594V19.7066L13.479 21.4713L13.4764 21.4739L12.75 19.712L12.75 23C12.75 23.4142 12.4142 23.75 12 23.75C11.5858 23.75 11.25 23.4142 11.25 23L11.25 19.7386L10.534 21.4734L10.532 21.4712L11.25 19.7332V18.3657C10.5851 18.7492 10.1649 19.1701 10.0432 19.7306C9.93376 20.2343 10.052 20.6663 10.2115 20.9899C10.2913 21.1518 10.3785 21.2799 10.444 21.3654C10.4765 21.4077 10.5027 21.4385 10.5186 21.4565L10.532 21.4712L10.5332 21.4726L10.534 21.4734C10.8227 21.7666 10.8218 22.2389 10.5303 22.5303C10.2374 22.8232 9.76256 22.8232 9.46967 22.5303L10 22C9.46967 22.5303 9.4699 22.5306 9.46967 22.5303L9.46872 22.5294L9.46768 22.5283L9.46532 22.5259L9.45949 22.52L9.44365 22.5035C9.4313 22.4904 9.41543 22.4732 9.39664 22.452C9.35912 22.4097 9.30964 22.3512 9.25318 22.2775C9.14085 22.1308 8.99748 21.9197 8.86605 21.653C8.60308 21.1194 8.37647 20.3371 8.57732 19.4123C8.79637 18.4037 9.46672 17.7244 10.2225 17.2346C10.1452 17.1993 10.0699 17.1639 9.99744 17.1284C9.47051 16.8705 8.87188 16.5117 8.54842 15.9415C8.24584 15.408 8.12391 14.8912 8.15452 14.4053C8.18492 13.9229 8.36209 13.5268 8.56942 13.2243C8.77421 12.9255 9.01439 12.7084 9.19659 12.5683C9.28918 12.4971 9.37096 12.4425 9.43225 12.4043C9.46301 12.3851 9.48894 12.3699 9.5089 12.3585L9.53433 12.3443L9.5435 12.3393L9.54715 12.3374L9.54874 12.3365C9.54909 12.3364 9.55017 12.3358 9.89358 12.9906L9.55017 12.3358C9.91701 12.1434 10.3703 12.2848 10.5627 12.6517C10.754 13.0165 10.6152 13.467 10.2527 13.6611L10.2512 13.6619C10.2473 13.6641 10.2385 13.6693 10.2257 13.6772C10.1999 13.6933 10.1593 13.7201 10.1112 13.7572C10.0119 13.8336 9.89689 13.9407 9.80673 14.0722C9.71911 14.2001 9.66158 14.3405 9.65155 14.4997C9.64174 14.6553 9.67365 14.8849 9.85315 15.2014C9.93484 15.3454 10.1598 15.5378 10.657 15.7812C10.8413 15.8715 11.0327 15.9554 11.2345 16.0399L11.25 16.0775V16.0753L11.2355 16.0403L11.25 16.0464L11.25 5C11.25 4.9521 11.2545 4.90526 11.2631 4.85986C10.5232 4.56645 10 3.84433 10 3C10 1.89543 10.8954 1 12 1C13.1046 1 14 1.89543 14 3Z" fill="black"/>
<path d="M11.2355 16.0403L11.2345 16.0399L10.2527 13.6611L11.2355 16.0403Z" fill="black"/>
<path d="M13.7583 13.6611L12.7765 16.0399L12.7754 16.0403L13.7583 13.6611Z" fill="black"/>
<path d="M7.56108 4.15271C7.97673 5.19183 8.76686 6.01548 9.75 6.48103L9.75 9.625L8.39832 10.3008C7.58858 10.7057 6.60517 10.4736 6.06198 9.7493L5.96848 9.62464L5.95445 9.60621L7.03033 8.53033C7.32322 8.23744 7.32322 7.76256 7.03033 7.46967C6.73744 7.17678 6.26256 7.17678 5.96967 7.46967L4.44783 8.99151C3.99306 8.94062 3.58956 8.66427 3.37978 8.25L3.35656 8.20414L4.53034 7.03032C4.82323 6.73742 4.82322 6.26254 4.53032 5.96966C4.23742 5.67677 3.76254 5.67678 3.46966 5.96968L2.10802 7.33136C1.45443 7.03409 1 6.3754 1 5.61058V4.0814C1 4.03644 1.03644 4 1.0814 4H7.33553C7.43486 4 7.52419 4.06048 7.56108 4.15271Z" fill="black"/>
<path d="M15.6017 10.3008L14.25 9.625L14.25 6.48103C15.2331 6.01548 16.0233 5.19183 16.4389 4.15271C16.4758 4.06048 16.5651 4 16.6645 4H22.9186C22.9636 4 23 4.03644 23 4.0814V5.61058C23 6.3754 22.5456 7.03409 21.892 7.33136L20.5303 5.96968C20.2375 5.67678 19.7626 5.67677 19.4697 5.96966C19.1768 6.26254 19.1768 6.73742 19.4697 7.03032L20.6434 8.20414L20.6202 8.25C20.4104 8.66427 20.0069 8.94062 19.5522 8.99151L18.0303 7.46967C17.7374 7.17678 17.2626 7.17678 16.9697 7.46967C16.6768 7.76256 16.6768 8.23744 16.9697 8.53033L18.0456 9.60621L18.0315 9.62464L17.938 9.7493C17.3948 10.4736 16.4114 10.7057 15.6017 10.3008Z" fill="black"/>
</svg>
