<svg width="24" height="24" viewBox="0 0 24 24" fill="none" xmlns="http://www.w3.org/2000/svg">
<path fill-rule="evenodd" clip-rule="evenodd" d="M12.9196 1.40194C12.9663 1.16823 13.1715 1 13.4099 1H21.5901C21.8284 1 22.0336 1.16823 22.0804 1.40194L22.9903 5.95145C22.9967 5.98374 23 6.01658 23 6.04951V10.5C23 10.7761 22.7761 11 22.5 11H16.25V8C16.25 7.0335 15.4665 6.25 14.5 6.25C13.5335 6.25 12.75 7.0335 12.75 8V11H12.5C12.2238 11 12 10.7761 12 10.5V6.04951C12 6.01658 12.0032 5.98374 12.0097 5.95145L12.9196 1.40194ZM17.5 7.25C17.9142 7.25 18.25 7.58579 18.25 8V8.03178C18.25 8.44599 17.9142 8.78178 17.5 8.78178C17.0858 8.78178 16.75 8.44599 16.75 8.03178V8C16.75 7.58579 17.0858 7.25 17.5 7.25ZM21.25 8C21.25 7.58579 20.9142 7.25 20.5 7.25C20.0858 7.25 19.75 7.58579 19.75 8V8.03178C19.75 8.44599 20.0858 8.78178 20.5 8.78178C20.9142 8.78178 21.25 8.44599 21.25 8.03178V8ZM15 3.5C15 3.22386 15.2238 3 15.5 3H19.5C19.7761 3 20 3.22386 20 3.5V4.5C20 4.77614 19.7761 5 19.5 5H15.5C15.2238 5 15 4.77614 15 4.5V3.5Z" fill="black"/>
<path d="M9.54018 6.05001C9.54018 7.73449 8.17464 9.10003 6.49017 9.10003C4.80569 9.10003 3.44016 7.73449 3.44016 6.05001C3.44016 4.36554 4.80569 3 6.49017 3C8.17464 3 9.54018 4.36554 9.54018 6.05001Z" fill="black"/>
<path d="M14.5 7.25C14.9142 7.25 15.25 7.58579 15.25 8V15.5C15.25 16.4665 14.4665 17.25 13.5 17.25H8.99997C8.8619 17.25 8.74997 17.3619 8.74997 17.5V17.75H8.99997C9.41418 17.75 9.74997 18.0858 9.74997 18.5C9.74997 18.9142 9.41418 19.25 8.99997 19.25H8.74997V19.5C8.74997 19.9142 8.41418 20.25 7.99997 20.25C7.58576 20.25 7.24997 19.9142 7.24997 19.5V19.25H6.99997C6.58576 19.25 6.24997 18.9142 6.24997 18.5C6.24997 18.0858 6.58576 17.75 6.99997 17.75H7.24997V17.5C7.24997 16.5335 8.03347 15.75 8.99997 15.75H13.5C13.638 15.75 13.75 15.6381 13.75 15.5V8C13.75 7.58579 14.0858 7.25 14.5 7.25Z" fill="black"/>
<path d="M8.99998 14.75H11.498C10.6299 12.8555 8.71697 11.54 6.49752 11.54C3.46133 11.54 1.00002 14.0014 1.00002 17.0375L1 21.78C0.999991 22.4538 1.54621 23 2.22001 23H10.78C11.4538 23 12 22.4538 12 21.78L12 18.8601L11.9984 18.25H10.7323C10.7439 18.3316 10.75 18.4151 10.75 18.5C10.75 19.2435 10.2863 19.8788 9.63227 20.1323C9.37876 20.7863 8.74353 21.25 7.99998 21.25C7.25644 21.25 6.62121 20.7863 6.3677 20.1323C5.7137 19.8788 5.24998 19.2435 5.24998 18.5C5.24998 17.7753 5.69051 17.1535 6.3184 16.8877C6.59673 15.6636 7.69166 14.75 8.99998 14.75Z" fill="black"/>
</svg>
