<svg width="24" height="24" viewBox="0 0 24 24" fill="none" xmlns="http://www.w3.org/2000/svg">
<path fill-rule="evenodd" clip-rule="evenodd" d="M13.5 1C12.9477 1 12.5 1.44771 12.5 2V11C12.5 11.5523 12.9477 12 13.5 12H15.0273V7.85011C15.0231 7.78427 15.021 7.71799 15.021 7.65137C15.021 5.92905 16.4172 4.53284 18.1395 4.53284C19.8618 4.53284 21.2581 5.92905 21.2581 7.65137C21.2581 9.24239 20.0666 10.5551 18.5273 10.746V12H22.5C23.0523 12 23.5 11.5523 23.5 11V2C23.5 1.44772 23.0523 1 22.5 1H13.5ZM18.75 3.5C18.75 3.08579 18.4142 2.75 18 2.75C17.5858 2.75 17.25 3.08579 17.25 3.5V3.53178C17.25 3.94599 17.5858 4.28178 18 4.28178C18.4142 4.28178 18.75 3.94599 18.75 3.53178V3.5ZM15 2.75C15.4142 2.75 15.75 3.08579 15.75 3.5V3.53178C15.75 3.94599 15.4142 4.28178 15 4.28178C14.5858 4.28178 14.25 3.94599 14.25 3.53178V3.5C14.25 3.08579 14.5858 2.75 15 2.75ZM21.75 3.5C21.75 3.08579 21.4142 2.75 21 2.75C20.5858 2.75 20.25 3.08579 20.25 3.5V3.53178C20.25 3.94599 20.5858 4.28178 21 4.28178C21.4142 4.28178 21.75 3.94599 21.75 3.53178V3.5Z" fill="black"/>
<path d="M10.0405 6.05001C10.0405 7.73449 8.67492 9.10003 6.99044 9.10003C5.30597 9.10003 3.94043 7.73449 3.94043 6.05001C3.94043 4.36554 5.30597 3 6.99044 3C8.67492 3 10.0405 4.36554 10.0405 6.05001Z" fill="black"/>
<path fill-rule="evenodd" clip-rule="evenodd" d="M6.75 18.5C6.75 18.0858 7.08579 17.75 7.5 17.75H7.75V17.5017C7.75 16.5344 8.53476 15.7506 9.50207 15.7517L15.777 15.7592C15.9152 15.7593 16.0273 15.6473 16.0273 15.5092V7.80889C16.0234 7.75684 16.0215 7.70427 16.0215 7.65125C16.0215 6.48121 16.97 5.53271 18.14 5.53271C19.31 5.53271 20.2585 6.48121 20.2585 7.65125C20.2585 8.82128 19.31 9.76978 18.14 9.76978C17.927 9.76978 17.7212 9.73832 17.5273 9.67981V15.5092C17.5273 16.4765 16.7425 17.2603 15.7752 17.2592L9.5003 17.2517C9.36211 17.2516 9.25 17.3635 9.25 17.5017V17.75H9.5C9.91421 17.75 10.25 18.0858 10.25 18.5C10.25 18.9142 9.91421 19.25 9.5 19.25H9.25V19.5006C9.25 19.9148 8.91421 20.2506 8.5 20.2506C8.08579 20.2506 7.75 19.9148 7.75 19.5006V19.25H7.5C7.08579 19.25 6.75 18.9142 6.75 18.5ZM17.5215 7.65125C17.5215 7.30964 17.7984 7.03271 18.14 7.03271C18.4816 7.03271 18.7585 7.30964 18.7585 7.65125C18.7585 7.99285 18.4816 8.26978 18.14 8.26978C17.8269 8.26978 17.5682 8.03716 17.5272 7.73533C17.5267 7.70803 17.5248 7.68109 17.5215 7.65458L17.5215 7.65125Z" fill="black"/>
<path d="M11.2328 18.2538L12.4984 18.2553L12.5 18.8601L12.5 21.78C12.5 22.4538 11.9538 23 11.28 23H2.72001C2.04621 23 1.49999 22.4538 1.5 21.78L1.50002 17.0375C1.50002 14.0014 3.96133 11.54 6.99752 11.54C9.2188 11.54 11.133 12.8576 12.0001 14.7547L9.50324 14.7517C8.19434 14.7502 7.09812 15.6633 6.81883 16.8875C6.19072 17.1532 5.74998 17.7751 5.74998 18.5C5.74998 19.2434 6.21358 19.8786 6.86745 20.1322C7.12079 20.7865 7.7562 21.2506 8.49998 21.2506C9.24377 21.2506 9.87918 20.7865 10.1325 20.1322C10.7864 19.8786 11.25 19.2434 11.25 18.5C11.25 18.4164 11.2441 18.3342 11.2328 18.2538Z" fill="black"/>
</svg>
