<svg width="24" height="24" viewBox="0 0 24 24" fill="none" xmlns="http://www.w3.org/2000/svg">
<path fill-rule="evenodd" clip-rule="evenodd" d="M9.31027 5.20633C10.0432 5.31867 10.7529 5.64918 11.3407 6.20217L11.5033 6.35503L11.5903 6.26031L13.4325 4.19709C13.7084 3.88812 14.1766 3.86771 14.4783 4.15151C14.78 4.43531 14.801 4.91585 14.5251 5.22482L12.6722 7.30002L12.596 7.38287L14.3197 9.00425L14.406 8.9157L16.2516 6.84865C16.5275 6.53967 16.9957 6.51927 17.2974 6.80307C17.5991 7.08687 17.6201 7.56741 17.3442 7.87638L15.4877 9.95562C15.4804 9.96375 15.473 9.97171 15.4654 9.9795L15.4133 10.033L17.139 11.6563L17.2249 11.5675L19.0707 9.50025C19.3465 9.19128 19.8148 9.17087 20.1165 9.45467C20.4182 9.73847 20.4391 10.219 20.1633 10.528L18.3076 12.6063C18.301 12.6137 18.2942 12.621 18.2873 12.6281L18.1843 12.7346C18.5031 13.1736 18.7224 13.6667 18.8408 14.1801L19.0553 14.1523L19.0706 14.1504L21.9225 13.8397C22.3342 13.7948 22.7026 14.0925 22.7452 14.5045C22.7878 14.9165 22.4886 15.2869 22.0768 15.3317L19.2326 15.6416L18.9013 15.6846C18.8267 16.1916 18.6553 16.6873 18.3857 17.1404L18.5593 17.3066L20.5287 19.1591C20.8304 19.4429 20.8513 19.9234 20.5755 20.2324C20.2996 20.5414 19.8314 20.5618 19.5296 20.278L17.553 18.4187L17.3873 18.2599C17.0189 18.5393 16.6115 18.743 16.186 18.87L16.1831 19.0712L16.1297 22.0143C16.1222 22.4284 15.7803 22.7577 15.3662 22.7498C14.9521 22.7419 14.6224 22.3998 14.63 21.9856L14.6833 19.0439L14.6839 19.0031C14.1839 18.9462 13.6916 18.7887 13.2379 18.5291L12.8514 18.958L11.2378 20.7651C10.9619 21.0741 10.4937 21.0945 10.192 20.8107C9.89029 20.5269 9.86935 20.0464 10.1452 19.7374L11.7623 17.9263L12.0745 17.5799L10.3544 15.9619L10.0277 16.3112L8.41873 18.1133C8.14285 18.4222 7.67462 18.4426 7.37291 18.1588C7.0712 17.875 7.05026 17.3945 7.32613 17.0855L8.94085 15.2771L8.95245 15.2644L9.26148 14.9339L7.41085 13.1931L5.48269 15.352C5.20682 15.661 4.73859 15.6814 4.43688 15.3976C4.13517 15.1138 4.11422 14.6333 4.3901 14.3243L6.31825 12.1654L6.15414 12.011C5.51929 11.4138 5.12388 10.6489 4.97347 9.84347L4.94396 9.8473L4.92867 9.84913L2.07679 10.1599C1.66501 10.2047 1.29666 9.9071 1.25404 9.49508C1.21143 9.08307 1.51069 8.71269 1.92247 8.66783L4.76669 8.35792L4.97726 8.33059C5.06293 7.88526 5.22431 7.45162 5.46232 7.05108L5.32448 6.91589L3.31987 5.03029C3.01816 4.74649 2.99722 4.26595 3.27309 3.95698C3.54897 3.648 4.0172 3.62759 4.31891 3.91139L6.32923 5.80237L6.34053 5.81322L6.46055 5.93094C6.87098 5.61941 7.32992 5.40195 7.80832 5.27984L7.81595 4.92742L7.86932 1.98568C7.87684 1.57154 8.21866 1.24222 8.63279 1.25014C9.04693 1.25806 9.37656 1.6002 9.36905 2.01435L9.31561 4.96002L9.31027 5.20633ZM8.44452 7.49569C8.72306 7.18911 9.19739 7.16638 9.50396 7.44492L11.7053 9.44492C12.0119 9.72345 12.0346 10.1978 11.7561 10.5044C11.4775 10.8109 11.0032 10.8337 10.6966 10.5551L8.49529 8.55513C8.18871 8.2766 8.16598 7.80227 8.44452 7.49569Z" fill="black"/>
</svg>
