<svg width="24" height="24" viewBox="0 0 24 24" fill="none" xmlns="http://www.w3.org/2000/svg">
<path d="M4.29517 3.14969C4.17195 2.98484 4.28957 2.75 4.49535 2.75H5.01303C5.08973 2.75 5.16218 2.78522 5.20956 2.84554L9.92289 8.84595L11.5359 8.57705L11.5872 8.53674L6.38876 1.91881C6.05707 1.49655 5.54991 1.25 5.01303 1.25H4.49535C3.05484 1.25 2.23154 2.89385 3.09407 4.04785L8.39758 11.1435C8.64554 11.4753 9.11543 11.5432 9.44711 11.2951C9.77878 11.0471 9.84664 10.5771 9.59868 10.2454L4.29517 3.14969Z" fill="black"/>
<path fill-rule="evenodd" clip-rule="evenodd" d="M14.4568 2.25C13.946 2.25 13.4608 2.47323 13.1284 2.86112L11.6753 4.55678C10.7551 5.63066 11.4226 7.29624 12.8296 7.43698L13.3159 7.48562L12.8549 8.08508C12.7007 8.28558 12.4762 8.42018 12.2268 8.46177L12.0112 8.49771L12.0359 8.71429L12.3165 11.3211L12.3585 11.3421L17.0922 14.1829C17.1062 14.1532 17.1217 14.1241 17.1387 14.0958L18.1047 12.4855C18.2854 12.1843 18.6108 12 18.962 12H19.9387C20.6836 12 21.3768 11.7255 21.909 11.2619L21.7371 11.2045L20.6249 10.7596C19.4587 10.293 19.1494 8.78569 20.0376 7.89731L20.973 6.96164C20.7805 5.29441 19.3643 4 17.6458 4C17.5857 4 17.5259 4.00162 17.4662 4.00481C17.4708 3.06393 16.7086 2.25 15.7158 2.25H14.4568ZM14.267 3.8373C14.3145 3.78189 14.3838 3.75 14.4568 3.75H15.7158C15.8784 3.75 15.9977 3.90285 15.9583 4.06063L15.4786 5.9796C15.4486 6.09998 15.3347 6.18007 15.2113 6.16772L12.9788 5.94442C12.7778 5.92432 12.6825 5.68638 12.8139 5.53297L14.267 3.8373ZM17.996 6.25005C18.4101 6.25005 18.7459 6.58584 18.7459 7.00005V7.03178C18.7459 7.44599 18.4101 7.78178 17.996 7.78178C17.5819 7.78178 17.2462 7.44599 17.2462 7.03178V7.00005C17.2462 6.58584 17.5819 6.25005 17.996 6.25005Z" fill="black"/>
<path d="M5.97861 9.50337L5.81289 9.531C5.61498 9.56399 5.41173 9.53666 5.22957 9.45256L2.41873 8.15495C1.75626 7.84913 1 8.33312 1 9.06291V10.4648C1 10.7992 1.16706 11.1114 1.4452 11.2969L2.84802 12.2323C2.94547 12.2973 2.99953 12.4093 2.99953 12.5264C2.99953 12.5971 3.00117 12.6674 3.00441 12.7372C3.00728 12.799 3.00458 12.861 3.00189 12.9228L3.00035 12.9593C2.99981 12.9728 2.99953 12.9864 2.99953 13L2.99953 21C2.99953 21.5523 3.44714 22 3.9993 22H6.49872C7.05087 22 7.49848 21.5523 7.49848 21V20C7.49848 19.8735 7.475 19.7525 7.43216 19.6411C7.36552 19.4678 7.26841 19.291 7.17011 19.1121C6.95526 18.721 6.73475 18.3196 6.81432 17.9216L6.91139 17.4362C6.96357 17.1752 7.20597 17 7.47204 17H9.24807V13.5382L7.50432 13.8271C6.93755 13.921 6.40846 13.5189 6.34695 12.9476L5.99883 9.71431L5.97861 9.50337Z" fill="black"/>
<path d="M22.8484 9.72761C22.8278 9.81 22.8039 9.89087 22.7769 9.9701L22.2531 9.79546L21.1819 9.36687C21.0153 9.30021 20.9711 9.08489 21.098 8.95797L22.0543 8.00144C22.6766 8.03447 23.123 8.62917 22.9697 9.24254L22.8484 9.72761Z" fill="black"/>
<path d="M12.0659 12.9157C11.9294 13.0371 11.7582 13.1224 11.5655 13.1544L10.7477 13.2898V17H12.5923C13.1059 17 13.536 17.3893 13.5871 17.9005L13.9069 21.0995C13.958 21.6107 14.3881 22 14.9017 22H16.9963C17.5484 22 17.996 21.5523 17.996 21V20C17.996 19.8009 17.9379 19.6154 17.8376 19.4596C17.7502 19.3236 17.6418 19.1895 17.5322 19.0539C17.2677 18.7265 16.9963 18.3906 16.9963 18V15.8638L16.6173 15.6472L12.0659 12.9157Z" fill="black"/>
</svg>
