<svg width="24" height="24" viewBox="0 0 24 24" fill="none" xmlns="http://www.w3.org/2000/svg">
<path d="M11.4696 0.25C11.8839 0.25 12.2196 0.585786 12.2196 1V2L12.2194 2.01787C19.6538 2.37934 20.7718 8.13776 20.94 11.3532C20.9762 12.0461 20.2804 12.5271 19.6283 12.2902L17.8776 11.6542C17.6173 11.5597 17.3296 11.5773 17.0828 11.7028L15.3869 12.5654C15.1225 12.6998 14.8122 12.71 14.5396 12.5932L12.2196 11.599V21.5C12.2196 22.7426 11.2123 23.75 9.96965 23.75C8.72701 23.75 7.71965 22.7426 7.71965 21.5V21.1623C7.71965 20.7481 8.05544 20.4123 8.46965 20.4123C8.88386 20.4123 9.21965 20.7481 9.21965 21.1623V21.5C9.21965 21.9142 9.55544 22.25 9.96965 22.25C10.3839 22.25 10.7196 21.9142 10.7196 21.5V11.6525L8.91696 12.5539C8.63543 12.6947 8.30405 12.6947 8.02252 12.5539L5.88458 11.485C5.62148 11.3534 5.31381 11.3444 5.04344 11.4602L3.36366 12.1801C2.70379 12.4629 1.96333 11.9802 2.0014 11.2633C2.17598 7.97662 3.31309 2.37051 10.7198 2.01751L10.7196 2V1C10.7196 0.585786 11.0554 0.25 11.4696 0.25Z" fill="black"/>
<path d="M18.5743 16.5422C18.5333 16.58 18.4695 16.58 18.4285 16.5422C17.645 15.8197 16.3741 15.8192 15.5899 16.5412C14.8057 17.2631 14.8052 18.4342 15.5887 19.1567L17.8028 21.3181C18.1913 21.6973 18.8114 21.6973 19.1999 21.3181L21.4114 19.1591L21.4141 19.1567C22.1976 18.4342 22.1971 17.2631 21.4129 16.5412C20.6287 15.8192 19.3578 15.8197 18.5743 16.5422Z" fill="black"/>
</svg>
