<svg width="24" height="24" viewBox="0 0 24 24" fill="none" xmlns="http://www.w3.org/2000/svg">
<path fill-rule="evenodd" clip-rule="evenodd" d="M22.3981 1.38622C22.6068 1.02823 22.4858 0.568667 22.128 0.359751C21.7702 0.150834 21.311 0.271682 21.1024 0.629671L19.658 3.10831L18.5694 4.83088H14.1533C14.0639 4.83088 13.9814 4.87858 13.9367 4.95601L11.3699 9.40611C11.3253 9.48344 11.3253 9.57868 11.3699 9.656L13.9367 14.1061C13.9813 14.1835 14.0639 14.2312 14.1533 14.2312H18.5516L19.1812 15.3622L19.1868 15.3721L20.9016 18.3451C21.1086 18.704 21.5672 18.8269 21.926 18.6196C22.2847 18.4123 22.4077 17.9532 22.2007 17.5943L20.4888 14.6263L19.8567 13.4908L22.0685 9.656C22.1131 9.57868 22.1131 9.48344 22.0685 9.40611L19.8662 5.58773L20.9402 3.88817L22.3981 1.38622ZM18.005 12.7538C18.4193 12.7538 18.7552 12.4179 18.7552 12.0035C18.7552 11.5892 18.4193 11.2533 18.005 11.2533H15.5042C15.0899 11.2533 14.754 11.5892 14.754 12.0035C14.754 12.4179 15.0899 12.7538 15.5042 12.7538H18.005Z" fill="black"/>
<path fill-rule="evenodd" clip-rule="evenodd" d="M5.4642 10.2816L4.79042 9.1512L3.07834 6.18291C2.87133 5.824 2.41269 5.70111 2.05395 5.90843C1.69521 6.11575 1.57221 6.57477 1.77923 6.93369L3.49399 9.90664L3.49943 9.91591L4.1543 11.0146L1.93813 14.8569C1.89352 14.9342 1.89353 15.0294 1.93813 15.1067L4.07591 18.8131L3.39449 20.0346L1.89676 22.6313C1.68975 22.9902 1.81274 23.4493 2.17148 23.6566C2.53022 23.8639 2.98886 23.741 3.19588 23.3821L4.69629 20.7808L4.7016 20.7714L5.30931 19.682H9.85336C9.94274 19.682 10.0253 19.6343 10.07 19.5569L12.6367 15.1067C12.6813 15.0294 12.6813 14.9342 12.6367 14.8569L10.07 10.4067C10.0253 10.3293 9.94274 10.2816 9.85336 10.2816H5.4642ZM4.128 14.9801C3.76917 14.773 3.64623 14.3141 3.8534 13.9553L5.10378 11.7896C5.31095 11.4308 5.76978 11.3078 6.12861 11.515C6.48743 11.7222 6.61038 12.181 6.40321 12.5398L5.15283 14.7055C4.94566 15.0644 4.48683 15.1873 4.128 14.9801Z" fill="black"/>
</svg>
