<svg width="24" height="24" viewBox="0 0 24 24" fill="none" xmlns="http://www.w3.org/2000/svg">
<path fill-rule="evenodd" clip-rule="evenodd" d="M3 2C3 0.89543 3.89543 0 5 0H10C12.7614 0 15 2.23858 15 5V6C15 8.76142 12.7614 11 10 11H9.41421L15.5 17.0858L19.2929 13.2929C19.6834 12.9024 20.3166 12.9024 20.7071 13.2929C21.0976 13.6834 21.0976 14.3166 20.7071 14.7071L16.9142 18.5L20.7071 22.2929C21.0976 22.6834 21.0976 23.3166 20.7071 23.7071C20.3166 24.0976 19.6834 24.0976 19.2929 23.7071L15.5 19.9142L11.7071 23.7071C11.3166 24.0976 10.6834 24.0976 10.2929 23.7071C9.90237 23.3166 9.90237 22.6834 10.2929 22.2929L14.0858 18.5L6.58579 11H5V18C5 18.5523 4.55228 19 4 19C3.44772 19 3 18.5523 3 18V2ZM5 9H10C11.6569 9 13 7.65685 13 6V5C13 3.34315 11.6569 2 10 2H5V9Z" fill="black"/>
</svg>
