<svg width="24" height="24" viewBox="0 0 24 24" fill="none" xmlns="http://www.w3.org/2000/svg">
<path d="M11.9318 1C10.174 1 8.53447 1.51323 7.15127 2.39986C7.16662 2.41842 7.18162 2.43743 7.19626 2.45688L9.96782 6.14023C10.451 5.84771 11.1056 5.59762 11.9317 5.59762C12.851 5.59762 13.558 5.90729 14.0525 6.2405L16.8042 2.58366C16.8251 2.55579 16.8468 2.52884 16.8693 2.50281C15.4538 1.55308 13.7566 1 11.9318 1Z" fill="black"/>
<path d="M7.47289 5.31976L7.4758 5.32317L5.99767 3.35877C5.98471 3.34154 5.96375 3.33446 5.94432 3.33841C5.9351 3.34023 5.92621 3.34453 5.91868 3.35142C4.25695 4.87052 4.02422 7.42763 5.38376 9.22902L8.59849 13.4886L11.109 10.1521L7.47289 5.31976Z" fill="black"/>
<path d="M18.6164 9.35549C19.9759 7.55409 19.7432 4.99698 18.0814 3.47788C18.0581 3.45656 18.0218 3.45998 18.0028 3.4853L5.29567 20.3727C4.93093 20.8575 5.07092 21.5567 5.59324 21.8592L7.33365 22.8669C7.76622 23.1173 8.31492 23.005 8.61756 22.604L18.6164 9.35549Z" fill="black"/>
<path d="M15.3826 22.4775L12.9874 19.3039L15.4951 15.9811L18.7045 20.2463C19.0692 20.731 18.9292 21.4303 18.4069 21.7327L16.6665 22.7404C16.2339 22.9909 15.6852 22.8785 15.3826 22.4775Z" fill="black"/>
</svg>
