<svg width="24" height="24" viewBox="0 0 24 24" fill="none" xmlns="http://www.w3.org/2000/svg">
<g clip-path="url(#clip0_1607_11217)">
<path fill-rule="evenodd" clip-rule="evenodd" d="M16.9311 4.01148C16.4254 3.64416 15.8811 3.32679 15.3055 3.06664L16.171 1.33557C16.3562 0.965091 16.2061 0.514586 15.8356 0.329344C15.4651 0.144102 15.0146 0.29427 14.8294 0.664754L13.8819 2.55968C13.1991 2.37827 12.4854 2.27298 11.7502 2.25348V1.00016C11.7502 0.585951 11.4144 0.250164 11.0002 0.250164C10.586 0.250164 10.2502 0.585951 10.2502 1.00016V2.33391C9.55017 2.42847 8.87501 2.60134 8.23381 2.8434C8.22081 2.78277 8.20002 2.72278 8.17101 2.66475L7.17101 0.664754C6.98577 0.29427 6.53526 0.144102 6.16478 0.329344C5.79429 0.514586 5.64412 0.965091 5.82937 1.33557L6.82937 3.33557C6.85297 3.38279 6.88089 3.42642 6.9124 3.46624C6.41438 3.75125 5.9454 4.08124 5.511 4.45066L3.52229 2.52228C3.22492 2.23393 2.7501 2.24124 2.46175 2.53861C2.17341 2.83598 2.18072 3.3108 2.47809 3.59914L4.45025 5.51148C4.03139 6.00408 3.66325 6.54114 3.35388 7.11458L1.30449 6.20481C0.925905 6.03675 0.482758 6.20741 0.314696 6.586C0.146633 6.96458 0.317297 7.40773 0.695883 7.57579L2.75158 8.48836C2.45143 9.36041 2.27799 10.2914 2.25326 11.2594L0.969878 11.3113C0.556002 11.3281 0.23406 11.6771 0.2508 12.091C0.26754 12.5049 0.616622 12.8268 1.0305 12.8101L2.3349 12.7573C2.43909 13.5241 2.63723 14.2609 2.91734 14.956L0.658313 16.1129C0.289636 16.3017 0.143826 16.7536 0.332638 17.1223C0.52145 17.491 0.973385 17.6368 1.34206 17.448L3.58955 16.297C3.85259 16.7298 4.15015 17.1394 4.47842 17.5218L3.46986 18.5304C3.17696 18.8233 3.17696 19.2981 3.46986 19.591C3.76275 19.8839 4.23762 19.8839 4.53052 19.591L5.54397 18.5776C6.23777 19.1621 7.01872 19.6464 7.86453 20.0083L6.99158 22.0723C6.83023 22.4538 7.00869 22.8939 7.39018 23.0552C7.77168 23.2166 8.21174 23.0381 8.3731 22.6566L9.29163 20.4849C9.92161 20.6392 10.5769 20.729 11.2502 20.7469V22.5002C11.2502 22.9144 11.586 23.2502 12.0002 23.2502C12.4144 23.2502 12.7502 22.9144 12.7502 22.5002V20.6664C13.3655 20.5833 13.9617 20.4397 14.5324 20.2417L15.8294 22.8356C16.0146 23.2061 16.4651 23.3562 16.8356 23.171C17.2061 22.9857 17.3562 22.5352 17.171 22.1648L15.9063 19.6354C16.3673 19.3851 16.8047 19.0969 17.2142 18.7748L21.4699 23.0305C21.7628 23.3234 22.2376 23.3234 22.5305 23.0305C22.8234 22.7376 22.8234 22.2627 22.5305 21.9698L18.3153 17.7546C18.8271 17.1972 19.2715 16.5767 19.6354 15.9063L22.1648 17.171C22.5353 17.3562 22.9858 17.2061 23.171 16.8356C23.3562 16.4651 23.2061 16.0146 22.8356 15.8293L20.2417 14.5324C20.5453 13.6573 20.7211 12.7224 20.7469 11.7502H22.0002C22.4144 11.7502 22.7502 11.4144 22.7502 11.0002C22.7502 10.586 22.4144 10.2502 22.0002 10.2502H20.6664C20.5822 9.62652 20.4358 9.02259 20.2337 8.44483L23.3723 6.65135C23.7319 6.44584 23.8569 5.9877 23.6514 5.62806C23.4459 5.26842 22.9877 5.14348 22.6281 5.34898L19.6209 7.0674C19.2037 6.30485 18.6823 5.6075 18.0758 4.99451L21.4882 2.06961C21.8027 1.80004 21.8391 1.32657 21.5696 1.01207C21.3 0.697577 20.8265 0.661156 20.512 0.930722L17.012 3.93072C16.9826 3.95595 16.9556 3.98297 16.9311 4.01148ZM12.0002 9.50016C12.0002 10.8809 10.8809 12.0002 9.50019 12.0002C8.11948 12.0002 7.00019 10.8809 7.00019 9.50016C7.00019 8.11945 8.11948 7.00016 9.50019 7.00016C10.8809 7.00016 12.0002 8.11945 12.0002 9.50016ZM14.5002 16.0002C15.3286 16.0002 16.0002 15.3286 16.0002 14.5002C16.0002 13.6717 15.3286 13.0002 14.5002 13.0002C13.6718 13.0002 13.0002 13.6717 13.0002 14.5002C13.0002 15.3286 13.6718 16.0002 14.5002 16.0002Z" fill="black"/>
</g>
<defs>
<clipPath id="clip0_1607_11217">
<rect width="24" height="24" fill="white"/>
</clipPath>
</defs>
</svg>
