<svg width="24" height="24" viewBox="0 0 24 24" fill="none" xmlns="http://www.w3.org/2000/svg">
<path d="M12.0111 1C9.45805 0.999999 9.10522 3.02295 8.60453 5.55165C8.20397 7.5746 7.60099 8.8422 7.10245 9.59756C6.10106 11.1148 3.64316 12.3285 4.04371 15.1607C4.44427 17.9928 7.43624 18.0265 8.60453 17.6894L9.76411 17.3163M11.9889 1C14.542 0.999999 14.8948 3.02295 15.3955 5.55165C15.796 7.5746 16.399 8.8422 16.8976 9.59756C17.8989 11.1148 20.3568 12.3285 19.9563 15.1607C19.5557 17.9928 16.5638 18.0265 15.3955 17.6894L14.286 17.2121M6.79992 15.4H7.01107C8.10739 15.4 9.10962 16.0194 9.59992 17L9.68436 17.1689C9.70947 17.2191 9.73607 17.2682 9.76411 17.3163M17.1999 15.4L16.989 15.4C15.8926 15.4 14.8903 16.0194 14.4 17L14.3155 17.1689C13.8769 18.046 12.9805 18.6 11.9999 18.6C11.0755 18.6 10.2258 18.1076 9.76411 17.3163M9.37402 12.3979V12.3662M14.374 12.3978V12.366M12 10.0317V9.99996M8.87782 19.2443L7.89442 21.2111C7.48349 22.033 8.08112 23 8.99999 23C9.91886 23 10.5165 22.033 10.1056 21.2111L9.12215 19.2443C9.07181 19.1437 8.92815 19.1437 8.87782 19.2443Z" stroke="black" stroke-width="1.5" stroke-linecap="round"/>
</svg>
