<svg width="24" height="24" viewBox="0 0 24 24" fill="none" xmlns="http://www.w3.org/2000/svg">
<path d="M12 10.3236L10.475 8.71948C7.05761 5.12474 1 7.54174 1 12.5C1 17.4583 7.05762 19.8753 10.475 16.2805L12 14.6764M12 10.3236L13.525 8.71949C16.9424 5.12474 23 7.54173 23 12.5C23 17.4583 16.9424 19.8753 13.525 16.2805L12 14.6764M12 10.3236L9.93103 12.5M12 14.6764L14.069 12.5M9.93103 12.5L8.29999 10.7843C6.7491 9.15292 4 10.2498 4 12.5C4 14.7502 6.7491 15.8471 8.3 14.2157L9.93103 12.5ZM14.069 12.5L15.7 14.2157C17.2509 15.8471 20 14.7502 20 12.5C20 10.2498 17.2509 9.15292 15.7 10.7843L14.069 12.5Z" stroke="black" stroke-width="1.5" stroke-linecap="round"/>
</svg>
