<svg width="24" height="24" viewBox="0 0 24 24" fill="none" xmlns="http://www.w3.org/2000/svg">
<path d="M3 21.9V18M3 18C3 14.6863 5.68628 12 8.99998 12L15 12C15.609 12 16.1967 12.0907 16.7506 12.2594M3 18L3.00003 22C3.00003 22.5523 3.44775 23 4.00003 23H11M3 18C3 17.4478 3.44772 17 4.00001 17H11C11.5523 17 12 17.4477 12 18V22C12 22.5523 11.5523 23 11 23M13 23H20C20.5523 23 21 22.5523 21 22V18C21 15.2953 19.2103 13.0085 16.7506 12.2594M13 23H11M13 23C14.1046 23 15 22.1046 15 21C15 19.8954 14.1046 19 13 19H12M9 23V17M11.7182 17.2818L16.7506 12.2594M16 5C16 7.20914 14.2091 9 12 9C9.79086 9 8 7.20914 8 5C8 2.79086 9.79086 1 12 1C14.2091 1 16 2.79086 16 5Z" stroke="black" stroke-width="1.5" stroke-linecap="round"/>
</svg>
