<svg width="24" height="24" viewBox="0 0 24 24" fill="none" xmlns="http://www.w3.org/2000/svg">
<g clip-path="url(#clip0_1607_9479)">
<path d="M14.9999 20.6626L14.2499 20.6625L14.2499 20.6626L14.9999 20.6626ZM10.6363 20.6626L11.3863 20.6626C11.3863 20.2483 11.0505 19.9126 10.6363 19.9126V20.6626ZM10.6363 9.02615L10.6363 9.77615C11.0505 9.77614 11.3863 9.44036 11.3863 9.02615H10.6363ZM14.9999 9.02615L14.2499 9.02615L14.2499 9.02617L14.9999 9.02615ZM7.91675 16.7182L7.21587 16.4512L7.21587 16.4512L7.91675 16.7182ZM7.88082 16.596L7.43316 17.1977L7.88082 16.596ZM7.88081 13.0926L7.43315 12.4909L7.43315 12.4909L7.88081 13.0926ZM7.91674 12.9704L8.61764 12.7035L7.91674 12.9704ZM19.3638 20.8183V20.0683C18.9496 20.0683 18.6138 20.404 18.6138 20.8182L19.3638 20.8183ZM19.3638 9.18185H18.6138C18.6138 9.59606 18.9496 9.93184 19.3638 9.93185L19.3638 9.18185ZM22.0833 16.8739L22.7842 16.6069L22.7842 16.6069L22.0833 16.8739ZM22.1193 16.7517L22.5669 17.3534L22.1193 16.7517ZM22.1193 13.2483L22.5669 12.6466L22.5669 12.6466L22.1193 13.2483ZM22.0833 13.1261L21.3824 12.8592L22.0833 13.1261ZM13.2097 14.9643L12.9206 15.6564L12.9206 15.6564L13.2097 14.9643ZM12.7414 12.4372C12.9013 12.0551 12.7212 11.6157 12.3391 11.4558C11.957 11.2959 11.5176 11.476 11.3577 11.8581L12.7414 12.4372ZM14.5946 15.0601L14.7863 15.7852L14.8703 15.763L14.947 15.7222L14.5946 15.0601ZM12.2426 14.5658L12.6168 15.2159L12.6704 15.185L12.7182 15.1458L12.2426 14.5658ZM10.6694 14.0135C10.2814 13.8684 9.84929 14.0653 9.7042 14.4533C9.5591 14.8413 9.75599 15.2734 10.144 15.4185L10.6694 14.0135ZM16.462 17.0895L16.1729 16.3975L16.1729 16.3975L16.462 17.0895ZM18.3139 13.9833C18.154 13.6012 17.7146 13.4211 17.3325 13.581C16.9504 13.7409 16.7703 14.1803 16.9302 14.5624L18.3139 13.9833ZM15.0771 17.1854L14.8439 17.8982L14.8644 17.9049L14.8853 17.9104L15.0771 17.1854ZM17.429 16.691L16.9973 17.3044L17.0253 17.324L17.0549 17.3411L17.429 16.691ZM19.5277 17.5437C19.9156 17.3986 20.1125 16.9665 19.9674 16.5785C19.8223 16.1905 19.3902 15.9936 19.0022 16.1387L19.5277 17.5437ZM9.01859 19.8779L9.72732 20.1233L9.73609 20.0979L9.74304 20.072L9.01859 19.8779ZM10.6059 19.5738C11.006 19.681 11.4173 19.4436 11.5245 19.0435C11.6317 18.6434 11.3943 18.2321 10.9942 18.1249L10.6059 19.5738ZM20.9816 19.8779L21.7105 19.7013L21.7084 19.6925L21.706 19.6838L20.9816 19.8779ZM19.006 18.1249C18.6059 18.2321 18.3685 18.6434 18.4757 19.0435C18.5829 19.4436 18.9942 19.681 19.3943 19.5738L19.006 18.1249ZM10.4301 12.0385C10.8302 11.9313 11.0677 11.5201 10.9605 11.12C10.8533 10.7199 10.442 10.4825 10.0419 10.5897L10.4301 12.0385ZM21.5456 10.2856L22.2701 10.4797L22.273 10.4685L21.5456 10.2856ZM19.9583 10.5897C19.5582 10.4825 19.1469 10.7199 19.0397 11.12C18.9325 11.5201 19.1699 11.9313 19.57 12.0385L19.9583 10.5897ZM9.24864 1.04494C9.27345 0.631467 8.95839 0.276165 8.54492 0.251347C8.13145 0.22653 7.77615 0.541594 7.75133 0.955064L9.24864 1.04494ZM8.37319 3.11244L7.62454 3.06751L7.62454 3.06751L8.37319 3.11244ZM8.48497 3.21772L8.57468 3.96233L8.57468 3.96233L8.48497 3.21772ZM10.7185 2.94862L10.8082 3.69324L10.8082 3.69324L10.7185 2.94862ZM10.8295 3.06216L10.0871 2.95521L10.0871 2.95521L10.8295 3.06216ZM9.72175 5.49112C9.66268 5.9011 9.94715 6.28134 10.3571 6.34041C10.7671 6.39948 11.1474 6.11501 11.2064 5.70503L9.72175 5.49112ZM4.3597 3.33949C4.197 2.95856 3.75632 2.78165 3.37539 2.94434C2.99447 3.10703 2.81755 3.54772 2.98025 3.92865L4.3597 3.33949ZM4.60479 5.82284L5.29452 5.52826L5.29452 5.52825L4.60479 5.82284ZM4.75185 5.86701L4.33863 5.24111L4.33863 5.24111L4.75185 5.86701ZM6.418 4.76702L6.83122 5.39292L6.83122 5.39292L6.418 4.76702ZM6.56506 4.81119L5.87535 5.1058L5.87535 5.1058L6.56506 4.81119ZM6.81033 7.29466C6.97304 7.67557 7.41374 7.85247 7.79466 7.68975C8.17557 7.52704 8.35246 7.08634 8.18975 6.70543L6.81033 7.29466ZM1.35624 8.84004C0.991734 8.64329 0.53675 8.77929 0.340005 9.14379C0.143259 9.5083 0.279256 9.96328 0.643761 10.16L1.35624 8.84004ZM3.57063 10.8876L3.92687 10.2276L3.92687 10.2276L3.57063 10.8876ZM3.7171 10.8138L2.97477 10.7068L2.97477 10.7068L3.7171 10.8138ZM4.06359 8.40963L4.80592 8.51661L4.80592 8.51661L4.06359 8.40963ZM4.19461 8.32916L4.43495 7.61871L4.43495 7.61871L4.19461 8.32916ZM6.25547 9.81808C6.64784 9.95081 7.07352 9.74034 7.20625 9.34797C7.33899 8.95559 7.12851 8.52991 6.73614 8.39718L6.25547 9.81808ZM15 14.8443L15.75 14.8443L15.75 14.8443L15 14.8443ZM8.93662 20.1147L8.49795 20.723L8.93662 20.1147ZM17.2283 16.5498L16.6731 16.0456L17.2283 16.5498ZM8.45679 10.2938L9.18011 10.0955L8.45679 10.2938ZM8.45379 10.2772L9.2005 10.2071L8.45379 10.2772ZM12.8181 23.5944C14.4373 23.5944 15.7499 22.2818 15.7499 20.6626L14.2499 20.6626C14.2499 21.4533 13.6089 22.0944 12.8181 22.0944V23.5944ZM9.88627 20.6626C9.88627 22.2818 11.1989 23.5944 12.8181 23.5944V22.0944C12.0273 22.0944 11.3863 21.4533 11.3863 20.6626L9.88627 20.6626ZM7.21587 16.4512C7.0614 16.8568 6.97716 17.2961 6.97716 17.7534H8.47716C8.47716 17.4814 8.52709 17.2229 8.61763 16.9852L7.21587 16.4512ZM6.24998 14.8443C6.24998 15.8089 6.71657 16.6646 7.43316 17.1977L8.32847 15.9942C7.97596 15.732 7.74998 15.3146 7.74998 14.8443H6.24998ZM7.43315 12.4909C6.71657 13.024 6.24998 13.8797 6.24998 14.8443H7.74998C7.74998 14.374 7.97596 13.9566 8.32847 13.6944L7.43315 12.4909ZM6.97719 11.9353C6.97719 12.3925 7.06141 12.8318 7.21585 13.2373L8.61764 12.7035C8.52712 12.4658 8.47719 12.2072 8.47719 11.9353H6.97719ZM12.8181 6.09433C11.1989 6.09433 9.88627 7.40695 9.88627 9.02615H11.3863C11.3863 8.23538 12.0273 7.59433 12.8181 7.59433V6.09433ZM15.7499 9.02615C15.7499 7.40695 14.4373 6.09433 12.8181 6.09433V7.59433C13.6089 7.59433 14.2499 8.23538 14.2499 9.02615H15.7499ZM8.61763 16.9852C8.75531 16.6237 8.6323 16.2202 8.32847 15.9942L7.43316 17.1977C7.20502 17.028 7.11176 16.7246 7.21587 16.4512L8.61763 16.9852ZM8.32847 13.6944C8.63228 13.4684 8.7553 13.065 8.61764 12.7035L7.21585 13.2373C7.11176 12.964 7.20503 12.6606 7.43315 12.4909L8.32847 13.6944ZM17.182 22.2501C16.4559 22.2501 15.7499 21.5211 15.7499 20.6626L14.2499 20.6626C14.2499 22.214 15.4981 23.7501 17.182 23.7501V22.2501ZM18.6138 20.8182C18.6138 21.609 17.9728 22.2501 17.182 22.2501V23.7501C18.8012 23.7501 20.1138 22.4374 20.1138 20.8183L18.6138 20.8182ZM21.3824 17.1408C21.473 17.3785 21.5229 17.6371 21.5229 17.9091H23.0229C23.0229 17.4518 22.9387 17.0125 22.7842 16.6069L21.3824 17.1408ZM22.2501 15C22.2501 15.4703 22.0241 15.8877 21.6716 16.1499L22.5669 17.3534C23.2835 16.8203 23.7501 15.9646 23.7501 15H22.2501ZM21.6716 13.8501C22.0241 14.1123 22.2501 14.5297 22.2501 15H23.7501C23.7501 14.0354 23.2835 13.1797 22.5669 12.6466L21.6716 13.8501ZM21.5229 12.091C21.5229 12.3629 21.473 12.6215 21.3824 12.8592L22.7842 13.393C22.9387 12.9875 23.0229 12.5482 23.0229 12.091H21.5229ZM17.182 7.75003C17.9728 7.75003 18.6138 8.39108 18.6138 9.18185H20.1138C20.1138 7.56265 18.8012 6.25003 17.182 6.25003V7.75003ZM15.7499 9.02615C15.7499 8.30682 16.316 7.75003 17.182 7.75003V6.25003C15.638 6.25003 14.2499 7.33551 14.2499 9.02615H15.7499ZM22.7842 16.6069C22.8883 16.8803 22.7951 17.1837 22.5669 17.3534L21.6716 16.1499C21.3678 16.3759 21.2448 16.7794 21.3824 17.1408L22.7842 16.6069ZM22.5669 12.6466C22.795 12.8163 22.8883 13.1197 22.7842 13.393L21.3824 12.8592C21.2448 13.2207 21.3678 13.6241 21.6716 13.8501L22.5669 12.6466ZM12.9206 15.6564C13.5345 15.9128 14.1886 15.9433 14.7863 15.7852L14.4028 14.3351C14.1132 14.4117 13.7978 14.3972 13.4987 14.2723L12.9206 15.6564ZM11.8685 13.9158C11.49 14.1336 11.0522 14.1567 10.6694 14.0135L10.144 15.4185C10.9271 15.7114 11.8337 15.6666 12.6168 15.2159L11.8685 13.9158ZM16.1729 16.3975C15.8738 16.5224 15.5585 16.5369 15.2688 16.4603L14.8853 17.9104C15.483 18.0685 16.1371 18.038 16.751 17.7816L16.1729 16.3975ZM17.0549 17.3411C17.838 17.7918 18.7445 17.8366 19.5277 17.5437L19.0022 16.1387C18.6194 16.2819 18.1816 16.2589 17.8031 16.041L17.0549 17.3411ZM9.74304 20.072C9.84375 19.6961 10.2301 19.4731 10.6059 19.5738L10.9942 18.1249C9.8181 17.8098 8.60927 18.5077 8.29415 19.6838L9.74304 20.072ZM21.706 19.6838C21.3909 18.5077 20.1821 17.8098 19.006 18.1249L19.3943 19.5738C19.7701 19.4731 20.1564 19.6961 20.2571 20.072L21.706 19.6838ZM7.73346 10.492C8.05376 11.6607 9.2582 12.3526 10.4301 12.0385L10.0419 10.5897C9.6674 10.69 9.28244 10.4689 9.18011 10.0955L7.73346 10.492ZM20.8212 10.0915C20.7205 10.4673 20.3341 10.6904 19.9583 10.5897L19.57 12.0385C20.7461 12.3537 21.9549 11.6557 22.2701 10.4797L20.8212 10.0915ZM7.75133 0.955064L7.62454 3.06751L9.12184 3.15738L9.24864 1.04494L7.75133 0.955064ZM8.57468 3.96233L10.8082 3.69324L10.6288 2.20401L8.39526 2.4731L8.57468 3.96233ZM10.0871 2.95521L9.72175 5.49112L11.2064 5.70503L11.5718 3.16912L10.0871 2.95521ZM10.8082 3.69324C10.3836 3.7444 10.0261 3.37855 10.0871 2.95521L11.5718 3.16912C11.6515 2.61552 11.1841 2.1371 10.6288 2.20401L10.8082 3.69324ZM7.62454 3.06751C7.59276 3.59687 8.04817 4.02577 8.57468 3.96233L8.39526 2.4731C8.79789 2.42459 9.14614 2.75258 9.12184 3.15738L7.62454 3.06751ZM2.98025 3.92865L3.91506 6.11742L5.29452 5.52825L4.3597 3.33949L2.98025 3.92865ZM5.16507 6.49291L6.83122 5.39292L6.00478 4.14112L4.33863 5.24111L5.16507 6.49291ZM5.87535 5.1058L6.81033 7.29466L8.18975 6.70543L7.25477 4.51657L5.87535 5.1058ZM6.83122 5.39292C6.49279 5.61635 6.03465 5.47874 5.87535 5.1058L7.25477 4.51657C7.04645 4.0289 6.44733 3.84894 6.00478 4.14112L6.83122 5.39292ZM3.91506 6.11742C4.12336 6.60512 4.7225 6.7851 5.16507 6.49291L4.33863 5.24111C4.67707 5.01768 5.13523 5.1553 5.29452 5.52826L3.91506 6.11742ZM0.643761 10.16L3.21439 11.5475L3.92687 10.2276L1.35624 8.84004L0.643761 10.16ZM4.45943 10.9208L4.80592 8.51661L3.32126 8.30264L2.97477 10.7068L4.45943 10.9208ZM3.95428 9.03961L6.25547 9.81808L6.73614 8.39718L4.43495 7.61871L3.95428 9.03961ZM4.80592 8.51661C4.74795 8.91884 4.33923 9.16984 3.95428 9.03961L4.43495 7.61871C3.93155 7.44842 3.39707 7.77664 3.32126 8.30264L4.80592 8.51661ZM3.21439 11.5475C3.73444 11.8283 4.37514 11.5057 4.45943 10.9208L2.97477 10.7068C3.03923 10.2595 3.52918 10.0129 3.92687 10.2276L3.21439 11.5475ZM14.2499 9.02617L14.25 14.8443L15.75 14.8443L15.7499 9.02614L14.2499 9.02617ZM14.947 15.7222L15.3524 15.5063L14.6476 14.1823L14.2421 14.3981L14.947 15.7222ZM13.4987 14.2723C13.2963 14.1877 13.1257 14.0629 12.9906 13.9116L11.8718 14.9108C12.1531 15.2257 12.5073 15.4837 12.9206 15.6564L13.4987 14.2723ZM12.9906 13.9116C12.6401 13.519 12.527 12.9494 12.7414 12.4372L11.3577 11.8581C10.9113 12.9246 11.1518 14.1045 11.8718 14.9108L12.9906 13.9116ZM12.7182 15.1458L12.9068 14.9912L11.9557 13.8312L11.7671 13.9859L12.7182 15.1458ZM10.6363 8.27615C9.52728 8.27617 8.53292 8.77047 7.86305 9.54814L8.99954 10.5271C9.39663 10.0661 9.98219 9.77616 10.6363 9.77615L10.6363 8.27615ZM7.86305 9.54814C7.31143 10.1885 6.97719 11.0238 6.97719 11.9353H8.47719C8.47719 11.3966 8.67353 10.9056 8.99954 10.5271L7.86305 9.54814ZM9.2005 10.2071L9.17801 9.96752L7.68458 10.1077L7.70707 10.3473L9.2005 10.2071ZM6.97716 17.7534C6.97716 18.9768 7.57828 20.0598 8.49795 20.723L9.37529 19.5063C8.82979 19.113 8.47716 18.4744 8.47716 17.7534H6.97716ZM8.49795 20.723C9.09954 21.1568 9.83914 21.4126 10.6363 21.4126V19.9126C10.1644 19.9126 9.72995 19.7621 9.37529 19.5063L8.49795 20.723ZM8.30986 19.6325L8.22789 19.8693L9.64535 20.36L9.72732 20.1233L8.30986 19.6325ZM21.5229 17.9091C21.5229 18.6264 21.1739 19.2621 20.6331 19.656L21.5162 20.8685C22.4279 20.2044 23.0229 19.1262 23.0229 17.9091H21.5229ZM20.6331 19.656C20.2769 19.9154 19.8393 20.0683 19.3638 20.0683V21.5683C20.1672 21.5683 20.9121 21.3085 21.5162 20.8685L20.6331 19.656ZM20.2527 20.0544L20.3457 20.4388L21.8036 20.0857L21.7105 19.7013L20.2527 20.0544ZM16.751 17.7816C17.1564 17.6123 17.5049 17.3608 17.7835 17.0541L16.6731 16.0456C16.5393 16.1929 16.3714 16.3146 16.1729 16.3975L16.751 17.7816ZM17.7835 17.0541C18.5162 16.2474 18.7637 15.0579 18.3139 13.9833L16.9302 14.5624C17.1462 15.0784 17.0298 15.6528 16.6731 16.0456L17.7835 17.0541ZM17.8606 16.0777L17.66 15.9365L16.7967 17.1631L16.9973 17.3044L17.8606 16.0777ZM14.25 14.8443V17.1602H15.75V14.8443H14.25ZM14.25 17.1601L14.2499 20.6625L15.7499 20.6626L15.75 17.1602L14.25 17.1601ZM15.3102 16.4725L15.2332 16.4473L14.7669 17.873L14.8439 17.8982L15.3102 16.4725ZM19.3638 9.93185C20.0179 9.93186 20.6035 10.2218 21.0005 10.6828L22.1371 9.70388C21.4672 8.92618 20.4728 8.43187 19.3638 8.43185L19.3638 9.93185ZM21.0005 10.6828C21.3265 11.0613 21.5229 11.5523 21.5229 12.091H23.0229C23.0229 11.1795 22.6887 10.3442 22.1371 9.70388L21.0005 10.6828ZM22.273 10.4685L22.2962 10.3763L20.8415 10.0104L20.8183 10.1027L22.273 10.4685ZM9.18011 10.0955C9.1906 10.1338 9.19713 10.1712 9.2005 10.2071L7.70707 10.3473C7.71149 10.3944 7.72001 10.4429 7.73346 10.492L9.18011 10.0955Z" fill="black"/>
</g>
<defs>
<clipPath id="clip0_1607_9479">
<rect width="24" height="24" fill="white"/>
</clipPath>
</defs>
</svg>
