<svg width="24" height="24" viewBox="0 0 24 24" fill="none" xmlns="http://www.w3.org/2000/svg">
<g clip-path="url(#clip0_1607_9483)">
<path d="M12 4V20M12 4C12 2.34315 10.6569 1 9 1C7.37667 1 6.05449 2.28934 6.00164 3.89981C5.99983 3.95501 5.95492 3.99987 5.89971 4.00123C4.72746 4.03008 3.68033 4.56325 2.96705 5.39198M12 4C12 2.34315 13.3431 1 15 1C16.6233 1 17.9455 2.28934 17.9984 3.89981C18.0002 3.95501 18.0451 3.99987 18.1003 4.00123C19.2699 4.03002 20.315 4.56089 21.0282 5.38649M12 20C12 21.6569 10.6569 23 9 23C7.37667 23 6.05449 21.7107 6.00164 20.1002C5.99983 20.045 5.95492 20.0001 5.89971 19.9988C5.05341 19.9779 4.27232 19.6943 3.63498 19.2263M12 20C12 21.6569 13.3431 23 15 23C16.6233 23 17.9455 21.7107 17.9984 20.1002C18.0002 20.045 18.0451 20.0001 18.1003 19.9988C18.9458 19.978 19.7262 19.6948 20.3632 19.2276M6.22482 17.293C5.15789 17.0071 4.06121 17.6403 3.77533 18.7072L3.63498 19.2263M17.7752 17.293C18.8421 17.0071 19.9388 17.6403 20.2247 18.7072L20.3632 19.2276M5.44943 6.93182C4.30305 7.239 3.25451 6.49003 2.96705 5.39198M18.5506 6.93182C19.6175 7.21771 20.7142 6.58454 21.0001 5.51761L21.0282 5.38649M16.5364 13.8721L16.5671 13.8638M15.5013 9.00829L15.5319 9.00008M17.9507 11.4223L17.9814 11.4141M7.4449 13.8721L7.41425 13.8638M8.48018 9.00829L8.44953 9.00008M6.03059 11.4223L5.99994 11.4141M2.96705 5.39198C2.36433 6.09226 2 7.00358 2 8C2 8.51205 2.09622 9.00161 2.27155 9.45162C2.28867 9.49557 2.27379 9.54563 2.23566 9.5734C1.48675 10.1189 1 11.0026 1 12C1 12.9974 1.48675 13.8811 2.23566 14.4266C2.27379 14.4544 2.28867 14.5044 2.27155 14.5484C2.09622 14.9984 2 15.488 2 16C2 17.3243 2.64355 18.4983 3.63498 19.2263M20.3632 19.2276C21.3557 18.4997 22 17.3251 22 16C22 15.488 21.9038 14.9984 21.7285 14.5484C21.7113 14.5044 21.7262 14.4544 21.7643 14.4266C22.5133 13.8811 23 12.9974 23 12C23 11.0026 22.5133 10.1189 21.7643 9.5734C21.7262 9.54563 21.7113 9.49557 21.7285 9.45162C21.9038 9.00161 22 8.51205 22 8C22 7.00098 21.6338 6.0875 21.0282 5.38649" stroke="black" stroke-width="1.5" stroke-linecap="round"/>
</g>
<defs>
<clipPath id="clip0_1607_9483">
<rect width="24" height="24" fill="white"/>
</clipPath>
</defs>
</svg>
