<svg width="24" height="24" viewBox="0 0 24 24" fill="none" xmlns="http://www.w3.org/2000/svg">
<g clip-path="url(#clip0_1607_9487)">
<path d="M20.5925 4.23486L20.3782 4.43449C20.0469 4.74307 19.8517 5.17062 19.8357 5.62308M8.49998 1L8.37319 3.11244C8.36945 3.17472 8.42303 3.22518 8.48497 3.21772L10.7185 2.94862C10.7838 2.94075 10.8388 2.99703 10.8295 3.06216L10.4641 5.59808M3.66997 3.63407L4.60479 5.82284C4.6293 5.88021 4.69978 5.90139 4.75185 5.86701L6.418 4.76702C6.47006 4.73264 6.54055 4.75382 6.56506 4.81119L7.50004 7.00004M1 9.50003L3.57063 10.8876C3.63181 10.9206 3.70719 10.8826 3.7171 10.8138L4.06359 8.40963C4.07251 8.34774 4.13539 8.30913 4.19461 8.32916L6.4958 9.10763M14.8166 4.22913C14.6967 3.37843 14.9639 2.48367 15.6182 1.8294C16.724 0.723533 18.517 0.723534 19.6229 1.8294C20.2169 2.42346 20.4919 3.21581 20.4477 3.9934C20.4334 4.24469 20.6661 4.467 20.9178 4.467C22.0678 4.467 23 5.43211 23 6.62263C23 7.81315 22.0678 8.77826 20.9178 8.77826C20.5349 8.77826 20.1486 8.64578 19.7745 8.43186C19.3197 8.17178 18.7353 8.17561 18.3649 8.54607L8.60397 18.307C8.34645 18.5645 8.25388 18.9405 8.3325 19.2961C8.53979 20.2336 8.66049 21.5166 8.00598 22.1711C7.45219 22.7249 6.726 23.0012 6.00018 23C5.27745 22.9988 4.55508 22.7225 4.00366 22.1711C3.77009 21.9375 3.63039 21.6211 3.56575 21.2568C3.46789 20.7053 3.07917 20.2098 2.57706 19.9617C2.30716 19.8283 2.0541 19.6493 1.8294 19.4246C0.723533 18.3187 0.723534 16.5257 1.8294 15.4199C2.3721 14.8772 3.3466 14.8671 4.19839 14.9976C4.53734 15.0496 4.88628 14.9536 5.12875 14.7111L7.83985 12L9.5 11.5L11.5 13L12.2142 10.5L10.8773 8.96252L14.5196 5.32022C14.8 5.0399 14.872 4.62168 14.8166 4.22913Z" stroke="black" stroke-width="1.5" stroke-linecap="round" stroke-linejoin="round"/>
</g>
<defs>
<clipPath id="clip0_1607_9487">
<rect width="24" height="24" fill="white"/>
</clipPath>
</defs>
</svg>
