<svg width="24" height="24" viewBox="0 0 24 24" fill="none" xmlns="http://www.w3.org/2000/svg">
<g clip-path="url(#clip0_1607_9491)">
<path d="M10.1808 2.16783C10.1198 2.30089 10.073 2.4418 10.0424 2.58862C9.98807 2.84823 10.1004 3.11237 10.3131 3.27079C11.3114 4.0143 12.6886 4.0143 13.6869 3.27079C13.8996 3.11237 14.0119 2.84823 13.9576 2.58862C13.9262 2.43806 13.8778 2.29372 13.8145 2.15768M10.1808 2.16783C10.4966 1.4787 11.1924 1 12 1C12.8036 1 13.4966 1.474 13.8145 2.15768M10.1808 2.16783L9.99991 2.2002C8.72308 2.45938 7.53459 2.96184 6.48493 3.65709M13.8145 2.15768L13.9999 2.2002C15.277 2.45943 16.4657 2.96204 17.5155 3.65751M17.5155 3.65751L17.6568 3.51452C18.4379 2.73348 19.7042 2.73348 20.4853 3.51453C21.2663 4.29557 21.2663 5.5619 20.4853 6.34295L20.3428 6.48482M17.5155 3.65751C18.637 4.40041 19.5999 5.36337 20.3428 6.48482M20.3428 6.48482C21.0381 7.53456 21.5407 8.72318 21.7999 10.0002L21.8316 10.1805M21.8316 10.1805C21.6987 10.1197 21.558 10.073 21.4114 10.0424C21.1518 9.98807 20.8877 10.1004 20.7293 10.3131C19.9858 11.3114 19.9858 12.6886 20.7293 13.6869C20.8877 13.8996 21.1518 14.0119 21.4114 13.9576C21.561 13.9264 21.7043 13.8784 21.8396 13.8158M21.8316 10.1805C22.5211 10.4962 23.0001 11.1922 23.0001 12C23.0001 12.8047 22.5248 13.4985 21.8396 13.8158M21.8396 13.8158L21.7999 14.0002C21.5422 15.2697 21.044 16.4519 20.3549 17.4971M20.3549 17.4971L20.4852 17.6566C21.2662 18.4377 21.2662 19.704 20.4852 20.4851C19.7042 21.2661 18.4378 21.2661 17.6568 20.4851L17.5364 20.3289M20.3549 17.4971C19.615 18.6194 18.655 19.5838 17.5364 20.3289M17.5364 20.3289C16.4815 21.0316 15.2855 21.5392 13.9999 21.8001L13.8076 21.8568M13.8076 21.8568C13.8743 21.7165 13.925 21.5672 13.9576 21.4112C14.0119 21.1516 13.8996 20.8874 13.6869 20.729C12.6886 19.9855 11.3114 19.9855 10.3131 20.729C10.1004 20.8874 9.98807 21.1516 10.0424 21.4112C10.075 21.5672 10.1257 21.7165 10.1924 21.8568M13.8076 21.8568C13.4867 22.5326 12.7979 22.9998 12 22.9998C11.2021 22.9998 10.5133 22.5326 10.1924 21.8568M10.1924 21.8568L9.99991 21.8001C8.72155 21.5406 7.53174 21.0373 6.48116 20.3407M6.48116 20.3407L6.34317 20.485C5.56212 21.2661 4.29579 21.2661 3.51474 20.485C2.73369 19.704 2.73369 18.4377 3.51474 17.6566L3.66048 17.5206M6.48116 20.3407C5.36279 19.5992 4.40219 18.6388 3.66048 17.5206M3.66048 17.5206C2.96335 16.4696 2.45959 15.2792 2.19995 14.0002L2.16193 13.8165M2.16193 13.8165C2.29673 13.8788 2.43963 13.9265 2.58862 13.9576C2.84823 14.0119 3.11237 13.8996 3.27079 13.6869C4.0143 12.6886 4.0143 11.3114 3.27079 10.3131C3.11237 10.1004 2.84823 9.98807 2.58862 10.0424C2.44027 10.0734 2.29795 10.1208 2.16366 10.1827M2.16193 13.8165C1.47597 13.4995 1 12.8053 1 12C1 11.194 1.47677 10.4994 2.16366 10.1827M2.16366 10.1827L2.19995 10.0002C2.45931 8.72247 2.96227 7.53324 3.65824 6.48306M3.65824 6.48306L3.5148 6.34292C2.73375 5.56188 2.73375 4.29555 3.5148 3.5145C4.29585 2.73345 5.56218 2.73345 6.34323 3.5145L6.48493 3.65709M3.65824 6.48306C4.40109 5.36215 5.36382 4.39966 6.48493 3.65709M18.0623 8.50012C18.544 9.33458 18.3561 10.3719 17.6653 10.9898C17.4676 11.1666 17.1827 11.2014 16.9391 11.0964C15.7961 10.6036 15.1075 9.41089 15.2522 8.17462C15.2831 7.91121 15.4557 7.68185 15.7076 7.59906C16.5882 7.30971 17.5805 7.66565 18.0623 8.50012ZM5.93774 15.4999C5.45596 14.6654 5.64387 13.6281 6.33471 13.0102C6.53239 12.8334 6.81732 12.7986 7.06086 12.9036C8.20389 13.3964 8.89253 14.5891 8.74776 15.8254C8.71691 16.0888 8.54432 16.3181 8.29236 16.4009C7.41184 16.6903 6.41952 16.3343 5.93774 15.4999ZM15.4999 18.062C14.6654 18.5438 13.6281 18.3559 13.0102 17.665C12.8334 17.4674 12.7986 17.1824 12.9036 16.9389C13.3964 15.7959 14.5891 15.1072 15.8254 15.252C16.0888 15.2828 16.3181 15.4554 16.4009 15.7074C16.6903 16.5879 16.3343 17.5802 15.4999 18.062ZM8.50012 5.93799C9.33458 5.45621 10.3719 5.64411 10.9898 6.33495C11.1666 6.53264 11.2014 6.81756 11.0964 7.06111C10.6036 8.20414 9.41089 8.89277 8.17462 8.748C7.91121 8.71715 7.68185 8.54456 7.59905 8.2926C7.30971 7.41208 7.66565 6.41977 8.50012 5.93799ZM14 12C14 13.1046 13.1046 14 12 14C10.8954 14 10 13.1046 10 12C10 10.8954 10.8954 10 12 10C13.1046 10 14 10.8954 14 12Z" stroke="black" stroke-width="1.5" stroke-linecap="round"/>
</g>
<defs>
<clipPath id="clip0_1607_9491">
<rect width="24" height="24" fill="white"/>
</clipPath>
</defs>
</svg>
