<svg width="24" height="24" viewBox="0 0 24 24" fill="none" xmlns="http://www.w3.org/2000/svg">
<g clip-path="url(#clip0_1607_9500)">
<path d="M20 12C20 16.4183 16.4183 20 12 20M20 12C20 7.58172 16.4183 4 12 4M20 12H23M12 20C7.58172 20 4 16.4183 4 12M12 20V23M4 12C4 7.58172 7.58172 4 12 4M4 12H1M12 4V1M13.2455 1L10.7545 1M10.7545 23H13.2455M23 13.2455V10.7546M1 10.7545L1 13.2454M19.7782 4.22183L17.6569 6.34315M4.22183 19.7782L6.34315 17.6569M20.6589 5.10252L18.8975 3.34113M3.34114 18.8975L5.10252 20.6589M19.7782 19.7782L17.6569 17.6569M4.22183 4.22183L6.34315 6.34315M18.8974 20.6589L20.6588 18.8975M5.10256 3.34109L3.34118 5.10248M12 9.5C12 10.3284 11.3284 11 10.5 11C9.67157 11 9 10.3284 9 9.5C9 8.67157 9.67157 8 10.5 8C11.3284 8 12 8.67157 12 9.5ZM12 16C12 16.5523 11.5523 17 11 17C10.4477 17 10 16.5523 10 16C10 15.4477 10.4477 15 11 15C11.5523 15 12 15.4477 12 16ZM17 12C17 12.5523 16.5523 13 16 13C15.4477 13 15 12.5523 15 12C15 11.4477 15.4477 11 16 11C16.5523 11 17 11.4477 17 12Z" stroke="black" stroke-width="1.5" stroke-linecap="round"/>
</g>
<defs>
<clipPath id="clip0_1607_9500">
<rect width="24" height="24" fill="white"/>
</clipPath>
</defs>
</svg>
