<svg width="24" height="24" viewBox="0 0 24 24" fill="none" xmlns="http://www.w3.org/2000/svg">
<g clip-path="url(#clip0_1607_9504)">
<path d="M17.1844 13.3832L17.7536 13.8716L17.7536 13.8716L17.1844 13.3832ZM17.982 22.8913L18.7291 22.8263L18.7291 22.8262L17.982 22.8913ZM17.1604 13.4575L16.4132 13.5225L16.4132 13.5226L17.1604 13.4575ZM9.70971 19.5916L8.96233 19.6543L8.96233 19.6543L9.70971 19.5916ZM9.98778 22.9084L10.7352 22.8457L10.7352 22.8457L9.98778 22.9084ZM3.09271 13.3646L2.85543 14.0761L2.85543 14.0761L3.09271 13.3646ZM5.31127 14.1045L5.07399 14.816L5.074 14.816L5.31127 14.1045ZM4.00088 8.995L4.67177 9.33027L4.67177 9.33027L4.00088 8.995ZM2.5148 11.9687L1.84391 11.6334L1.84391 11.6334L2.5148 11.9687ZM4.01129 8.94409L3.26256 8.98779L3.26256 8.98779L4.01129 8.94409ZM5.3796 14.1979L4.62968 14.2092L4.62968 14.2092L5.3796 14.1979ZM5.44472 18.5151L6.19463 18.5038L6.19463 18.5038L5.44472 18.5151ZM2.77103 1.50998L3.45754 1.81196L3.45754 1.81196L2.77103 1.50998ZM7.63551 1.58715L7.83195 0.863327L7.82994 0.862787L7.63551 1.58715ZM9.73032 7.68822L9.77972 8.43659C10.1191 8.41419 10.401 8.16615 10.4663 7.83231C10.5317 7.49848 10.3642 7.16247 10.0583 7.01372L9.73032 7.68822ZM21.9822 9.96914L21.2957 9.66716L21.9822 9.96914ZM13.6817 8.29702L13.614 7.55009C13.2664 7.58161 12.9865 7.84873 12.9388 8.19446C12.891 8.54019 13.0881 8.87315 13.4142 8.99766L13.6817 8.29702ZM8.03116 2.47165C8.43091 2.58014 8.84292 2.34403 8.95141 1.94428C9.05991 1.54452 8.82379 1.13251 8.42404 1.02402L8.03116 2.47165ZM22.9888 5L23.7377 4.95948L22.9888 5ZM17.0445 2.69246C16.6304 2.6844 16.2881 3.01358 16.28 3.42771C16.272 3.84185 16.6012 4.18411 17.0153 4.19218L17.0445 2.69246ZM0.990227 6.36816L1.73913 6.32764L0.990227 6.36816ZM4.85025 5.14678C5.25311 5.05046 5.50162 4.6458 5.4053 4.24294C5.30899 3.84008 4.90433 3.59158 4.50147 3.68789L4.85025 5.14678ZM17.7536 13.8716C18.9919 12.4286 19.7408 10.5508 19.7408 8.5H18.2408C18.2408 10.1792 17.629 11.7135 16.6153 12.8947L17.7536 13.8716ZM18.7291 22.8262L17.9076 13.3924L16.4132 13.5226L17.2348 22.9564L18.7291 22.8262ZM10.0874 23.75H17.8824V22.25H10.0874V23.75ZM8.96233 19.6543L9.2404 22.971L10.7352 22.8457L10.4571 19.529L8.96233 19.6543ZM6.4441 20.25H9.61011V18.75H6.4441V20.25ZM2.85543 14.0761L5.07399 14.816L5.54855 13.393L3.32999 12.6531L2.85543 14.0761ZM3.32999 8.65973L1.84391 11.6334L3.18569 12.304L4.67177 9.33027L3.32999 8.65973ZM3.24837 8.5C3.24837 8.66367 3.25314 8.82631 3.26256 8.98779L4.76002 8.90039C4.75229 8.768 4.74837 8.6345 4.74837 8.5H3.24837ZM11.4946 0.25C6.93997 0.25 3.24837 3.94401 3.24837 8.5H4.74837C4.74837 4.77172 7.76911 1.75 11.4946 1.75V0.25ZM4.62968 14.2092L4.6948 18.5264L6.19463 18.5038L6.12951 14.1865L4.62968 14.2092ZM4.67177 9.33027C4.7389 9.19594 4.76861 9.04756 4.76002 8.90039L3.26256 8.98779C3.25603 8.8758 3.27861 8.76254 3.32999 8.65973L4.67177 9.33027ZM3.32999 12.6531C3.18612 12.6052 3.11752 12.4404 3.18569 12.304L1.84391 11.6334C1.36806 12.5856 1.84524 13.7392 2.85543 14.0761L3.32999 12.6531ZM5.074 14.816C4.81183 14.7286 4.63385 14.4851 4.62968 14.2092L6.12951 14.1865C6.12407 13.8257 5.89128 13.5073 5.54854 13.393L5.074 14.816ZM10.4571 19.529C10.4202 19.0889 10.0523 18.75 9.61011 18.75V20.25C9.27184 20.25 8.99054 19.9907 8.96233 19.6543L10.4571 19.529ZM10.0874 22.25C10.4257 22.25 10.707 22.5093 10.7352 22.8457L9.2404 22.971C9.27729 23.4111 9.64518 23.75 10.0874 23.75V22.25ZM17.2348 22.9564C17.2018 22.577 17.5007 22.25 17.8824 22.25V23.75C18.3813 23.75 18.7723 23.3225 18.7291 22.8263L17.2348 22.9564ZM6.4441 18.75C6.30813 18.75 6.1967 18.6407 6.19463 18.5038L4.6948 18.5264C4.70922 19.4821 5.48782 20.25 6.4441 20.25V18.75ZM16.6153 12.8947C16.4677 13.0667 16.3932 13.2925 16.4132 13.5225L17.9076 13.3924C17.9229 13.5685 17.8658 13.7407 17.7536 13.8716L16.6153 12.8947ZM3.45754 1.81196C3.41315 1.91288 3.35431 1.88585 3.51366 1.83641C3.66802 1.78852 3.92685 1.7543 4.31035 1.76332C5.07055 1.7812 6.14263 1.96299 7.44108 2.31151L7.82994 0.862787C6.47945 0.500298 5.2767 0.28563 4.34561 0.263736C3.88346 0.25287 3.44252 0.287945 3.06917 0.40378C2.70082 0.518066 2.28632 0.749201 2.08451 1.20799L3.45754 1.81196ZM10.0583 7.01372C7.89093 5.95994 6.09933 4.71545 4.91892 3.62748C4.32546 3.08051 3.91166 2.59611 3.67762 2.21699C3.56039 2.02708 3.50493 1.89019 3.48386 1.80531C3.46243 1.71902 3.48888 1.74071 3.45754 1.81196L2.08451 1.20799C1.93853 1.53985 1.95748 1.88249 2.02806 2.16676C2.09899 2.45245 2.23506 2.73574 2.40124 3.00494C2.73404 3.54403 3.25468 4.13352 3.90233 4.73045C5.20414 5.93031 7.12147 7.25372 9.40237 8.36272L10.0583 7.01372ZM21.2957 9.66716C21.3731 9.49129 21.495 9.59789 21.0796 9.6166C20.7234 9.63263 20.1872 9.56647 19.4707 9.40362C18.0513 9.08106 16.1278 8.42834 13.9493 7.59637L13.4142 8.99766C15.6037 9.83384 17.6097 10.519 19.1382 10.8663C19.8956 11.0384 20.5879 11.1403 21.147 11.1151C21.6468 11.0926 22.3707 10.9488 22.6687 10.2711L21.2957 9.66716ZM18.3076 7.10613C19.3958 7.80951 20.2349 8.47078 20.7547 9.01629C21.0171 9.29164 21.1672 9.50566 21.2373 9.6526C21.3112 9.80778 21.2472 9.7774 21.2957 9.66716L22.6687 10.2711C22.8713 9.81066 22.7538 9.34817 22.5913 9.00729C22.425 8.65819 22.1558 8.3122 21.8407 7.98151C21.2055 7.31496 20.2569 6.58002 19.1219 5.84639L18.3076 7.10613ZM7.43907 2.31096L8.03116 2.47165L8.42404 1.02402L7.83195 0.86333L7.43907 2.31096ZM23.7377 4.95948C23.7194 4.62004 23.5467 4.36231 23.3833 4.19204C23.2191 4.02081 23.0154 3.88504 22.813 3.77561C22.4065 3.55575 21.8738 3.37258 21.2893 3.22329C20.1105 2.92225 18.573 2.72224 17.0445 2.69246L17.0153 4.19218C18.4473 4.22008 19.8681 4.40849 20.9181 4.67665C21.448 4.81197 21.8472 4.95859 22.0994 5.09499C22.2265 5.1637 22.2838 5.21267 22.3009 5.23045C22.3188 5.24919 22.2477 5.18474 22.2399 5.04052L23.7377 4.95948ZM13.7495 9.04395C16.3669 8.80656 18.7744 8.25415 20.538 7.60458C21.4154 7.28144 22.1661 6.92241 22.7086 6.54563C22.9788 6.35794 23.2266 6.14593 23.4108 5.90684C23.5927 5.67074 23.7587 5.34621 23.7377 4.95948L22.2399 5.04052C22.2344 4.93811 22.2811 4.91532 22.2225 4.99143C22.1662 5.06454 22.0522 5.17518 21.8529 5.31361C21.4563 5.58906 20.8366 5.89612 20.0196 6.19701C18.3946 6.79551 16.1179 7.32299 13.614 7.55009L13.7495 9.04395ZM0.241322 6.40869C0.262228 6.79503 0.461513 7.09241 0.680727 7.29832C0.894772 7.49939 1.16398 7.65031 1.43845 7.76815C1.98936 8.00469 2.72347 8.17552 3.55143 8.29488C5.22031 8.53548 7.44531 8.59067 9.77972 8.43659L9.68093 6.93985C7.41788 7.08922 5.30246 7.03181 3.76546 6.81023C2.99048 6.69851 2.4053 6.55086 2.03024 6.38983C1.84173 6.30889 1.74628 6.24125 1.70771 6.20503C1.67432 6.17366 1.73304 6.21502 1.73913 6.32764L0.241322 6.40869ZM4.50147 3.68789C3.3311 3.9677 2.33298 4.29841 1.6148 4.67129C1.258 4.85654 0.930476 5.07235 0.685742 5.32875C0.441386 5.58475 0.216576 5.95137 0.241322 6.40869L1.73913 6.32764C1.74504 6.43684 1.68534 6.45397 1.7708 6.36444C1.85587 6.27531 2.02286 6.14955 2.306 6.00255C2.86771 5.7109 3.73125 5.41431 4.85025 5.14678L4.50147 3.68789ZM19.7408 8.5C19.7408 7.72991 19.6351 6.98328 19.4371 6.27442L17.9924 6.6781C18.1541 7.2568 18.2408 7.86766 18.2408 8.5H19.7408ZM19.4371 6.27442C18.4662 2.79999 15.2792 0.25 11.4946 0.25V1.75C14.5883 1.75 17.1978 3.8344 17.9924 6.6781L19.4371 6.27442Z" fill="black"/>
</g>
<defs>
<clipPath id="clip0_1607_9504">
<rect width="24" height="24" fill="white"/>
</clipPath>
</defs>
</svg>
