<svg width="24" height="24" viewBox="0 0 24 24" fill="none" xmlns="http://www.w3.org/2000/svg">
<path d="M10.9999 13.0001V13.0318M14.9999 14.0001V14.0318M12.9999 17V17.0318M19.1925 13.3832C20.3191 12.071 20.9998 10.365 20.9998 8.5C20.9998 4.35786 17.642 1 13.4998 1C9.35769 1 5.99983 4.35786 5.99983 8.5C5.99983 8.64909 6.00418 8.79716 6.01276 8.94409C6.01378 8.96168 6.01022 8.97924 6.00234 8.995L4.51551 11.9687C4.24336 12.513 4.51639 13.1722 5.09371 13.3646L7.31339 14.1045C7.3537 14.1179 7.38111 14.1554 7.38176 14.1979L7.44691 18.5151C7.45515 19.0614 7.90039 19.5 8.44679 19.5H11.6144C11.6664 19.5 11.7097 19.5398 11.714 19.5916L11.9923 22.9084C11.9966 22.9602 12.0399 23 12.0919 23H19.8909C19.9495 23 19.9956 22.9498 19.9905 22.8913L19.1685 13.4575C19.1661 13.4305 19.1749 13.4037 19.1925 13.3832ZM3.8777 14.2443L2.89429 16.2111C2.48337 17.033 3.081 18 3.99987 18C4.91874 18 5.51638 17.033 5.10544 16.2111L4.12203 14.2443C4.07169 14.1437 3.92803 14.1437 3.8777 14.2443Z" stroke="black" stroke-width="1.5" stroke-linecap="round"/>
</svg>
