<svg width="24" height="24" viewBox="0 0 24 24" fill="none" xmlns="http://www.w3.org/2000/svg">
<g clip-path="url(#clip0_1607_9513)">
<path d="M12.3783 10.6475L14.3369 10.0367C15.2994 9.73648 16.1682 9.19943 16.8652 8.47818M21.1457 3.27002L19.4691 5.32283M23.0007 5.54C23.0007 5.54 22.5426 6.27239 20.0575 10.0001C18.0575 13.0001 14.5575 14.0001 14.5575 14.0001M13.7254 1V4.39663C13.7254 4.40123 13.7217 4.40496 13.7171 4.40496C12.0142 4.40496 10.6337 5.78545 10.6337 7.48836V8.14215M16.5791 1V3.52781C16.5791 3.57725 16.6145 3.61911 16.6635 3.62601C17.2329 3.7063 18.704 3.89587 19.2905 4.97246L19.4691 5.32283M21.0576 8.49999C22.0621 9.06338 22.8639 10.0987 22.4761 13.3526C22.176 15.8706 21.3766 18.5632 20.2625 20.4622M13.5575 16.9453C14.0615 17.6189 14.7362 17.9714 15.4802 18.2192M14.1768 19.885C14.8706 19.5802 15.3272 18.9456 15.4802 18.2192M2.99992 1L3.94634 2.89283C3.97424 2.94863 4.04587 2.96554 4.09578 2.92811L5.89554 1.57829C5.94818 1.53881 6.02395 1.56006 6.04839 1.62115L6.99992 4M1 5.50008L2.90396 6.9282C2.95387 6.96563 3.0255 6.94873 3.0534 6.89292L3.94634 5.10723C3.97424 5.05142 4.04587 5.03452 4.09578 5.07195L5.99992 6.50006M1.0001 11.9999L3.85223 11.9999C3.92297 11.9999 3.97135 11.9284 3.94508 11.8627L3.04471 9.61155C3.02149 9.5535 3.05664 9.48862 3.11794 9.47636L5.50007 8.99993M11.0176 13.5179C10.7317 14.5848 9.63501 15.218 8.56807 14.9321L8.01858 14.7475M16.8652 8.47818C16.9808 8.35847 17.0918 8.23369 17.1976 8.10408L19.4691 5.32283M16.8652 8.47818L16.611 8.25606C16.1698 7.90312 15.5926 7.67312 15.5592 7.65993L15.556 7.65876C13.9327 7.0919 11.2883 7.18463 9.55753 9C7.89091 10.7481 7.60522 12.769 8.01858 14.7475M8.01858 14.7475C8.14199 15.3383 8.32772 15.9252 8.55761 16.5C10.0546 20.2428 14.3603 23 17.0656 23C18.2704 23 19.3679 21.9869 20.2625 20.4622M20.2625 20.4622L19.8458 20.0546C18.6203 18.7871 16.9203 18.699 15.4802 18.2192" stroke="black" stroke-width="1.5" stroke-linecap="round"/>
</g>
<defs>
<clipPath id="clip0_1607_9513">
<rect width="24" height="24" fill="white"/>
</clipPath>
</defs>
</svg>
