<svg width="24" height="24" viewBox="0 0 24 24" fill="none" xmlns="http://www.w3.org/2000/svg">
<g clip-path="url(#clip0_1607_9285)">
<path d="M16 23V6C16 5.44772 15.5523 5 15 5L13 5M2 23V6C2 5.44772 2.44772 5 3 5L5 5M22 23V11C22 10.4477 21.5523 10 21 10H16M11 23V17C11 16.4477 10.5523 16 10 16H8C7.44772 16 7 16.4477 7 17V23M1 23H23M10.6001 5L7.39998 5.0001M9 6.6001V3.4001M13 13.0001V13.0318M5 13.0001V13.0318M9 13.0001V13.0318M5 2V8C5 8.55228 5.44772 9 6 9H12C12.5523 9 13 8.55228 13 8V2C13 1.44772 12.5523 1 12 1H6C5.44772 1 5 1.44772 5 2Z" stroke="black" stroke-width="1.5" stroke-linecap="round"/>
</g>
<defs>
<clipPath id="clip0_1607_9285">
<rect width="24" height="24" fill="white"/>
</clipPath>
</defs>
</svg>
