<svg width="24" height="24" viewBox="0 0 24 24" fill="none" xmlns="http://www.w3.org/2000/svg">
<g clip-path="url(#clip0_1607_9280)">
<path d="M21 23V6C21 5.44772 20.5523 5 20 5H16M3 23V6C3 5.44772 3.44772 5 4 5H8M8 5C8 7.20914 9.79086 9 12 9C14.2091 9 16 7.20914 16 5M8 5C8 2.79086 9.79086 1 12 1C14.2091 1 16 2.79086 16 5M14 23V18C14 17.4477 13.5523 17 13 17H11C10.4477 17 10 17.4477 10 18V23M1 23H23M13.6001 5L10.4 5.0001M12 6.6001V3.4001M6 13.0001V13.0318M6 18V18.0318M18 13.0001V13.0318M18 18V18.0318M12 13.0001V13.0318" stroke="black" stroke-width="1.5" stroke-linecap="round"/>
</g>
<defs>
<clipPath id="clip0_1607_9280">
<rect width="24" height="24" fill="white"/>
</clipPath>
</defs>
</svg>
