<svg width="24" height="24" viewBox="0 0 24 24" fill="none" xmlns="http://www.w3.org/2000/svg">
<g clip-path="url(#clip0_1607_9307)">
<path d="M18 10.9991V7C18 6.44772 17.5523 6 17 6H15C14.4477 6 14 6.44771 14 7V9.9C14 9.95523 13.9552 10 13.9 10H10.1C10.0448 10 10 9.95523 10 9.9V7C10 6.44772 9.55228 6 9 6H7C6.44772 6 6 6.44771 6 7V17C6 17.5523 6.44772 18 7 18H9C9.55228 18 10 17.5523 10 17V14.1C10 14.0448 10.0448 14 10.1 14H13.9C13.9552 14 14 14.0448 14 14.1V17C14 17.5523 14.4477 18 15 18H17C17.5523 18 18 17.5523 18 17V13.0011C18 13.0007 18 13.0004 18 13V10.9991ZM18 10.9991C18 10.9994 18 10.9988 18 10.9991ZM2 23H22C22.5523 23 23 22.5523 23 22V2C23 1.44772 22.5523 1 22 1H2C1.44772 1 1 1.44772 1 2V22C1 22.5523 1.44772 23 2 23Z" stroke="black" stroke-width="1.5"/>
</g>
<defs>
<clipPath id="clip0_1607_9307">
<rect width="24" height="24" fill="white"/>
</clipPath>
</defs>
</svg>
