<svg width="24" height="24" viewBox="0 0 24 24" fill="none" xmlns="http://www.w3.org/2000/svg">
<g clip-path="url(#clip0_1607_9325)">
<path d="M4 16.9999V6.9999M4 16.9999H20M4 16.9999C3.44772 16.9999 3 17.4476 3 17.9999V19.6971C3 19.8946 2.94156 20.0876 2.83205 20.2518L2.03647 21.4452C1.59343 22.1098 2.06982 22.9999 2.86852 22.9999H21.1315C21.9302 22.9999 22.4066 22.1098 21.9635 21.4452L21.1679 20.2518C21.0584 20.0876 21 19.8946 21 19.6971V17.9999C21 17.4476 20.5523 16.9999 20 16.9999M9 16.9999V6.9999M15 16.9999V6.9999M20 6.9999V16.9999M12 3.99995V4.03168M2.95306 19.9999H21.0469M23 5.9999V5.70033C23 5.27982 22.7369 4.90424 22.3417 4.76054L12.3417 1.12417C12.121 1.0439 11.879 1.0439 11.6583 1.12417L1.65826 4.76054C1.26307 4.90424 1 5.27982 1 5.70033V5.9999C1 6.55219 1.44772 6.9999 2 6.9999H22C22.5523 6.9999 23 6.55219 23 5.9999Z" stroke="black" stroke-width="1.5" stroke-linecap="round"/>
</g>
<defs>
<clipPath id="clip0_1607_9325">
<rect width="24" height="24" fill="white"/>
</clipPath>
</defs>
</svg>
