<svg width="24" height="24" viewBox="0 0 24 24" fill="none" xmlns="http://www.w3.org/2000/svg">
<path fill-rule="evenodd" clip-rule="evenodd" d="M5.99994 0C6.55222 0 6.99994 0.447715 6.99994 1V21.0217L9.39954 19.2201C9.8412 18.8885 10.468 18.9778 10.7996 19.4194C11.1312 19.8611 11.042 20.4879 10.6003 20.8195L6.66037 23.7776C6.26908 24.0713 5.73078 24.0713 5.33949 23.7776L1.39954 20.8195C0.957874 20.4879 0.868645 19.8611 1.20024 19.4194C1.53183 18.9777 2.15868 18.8885 2.60034 19.2201L4.99994 21.0217V1C4.99994 0.447715 5.44765 0 5.99994 0ZM21.0836 9.40881C21.3048 9.91487 21.8943 10.1458 22.4004 9.92465C22.9065 9.70348 23.1374 9.11394 22.9162 8.60787L19.486 0.759133C19.11 -0.101092 17.8898 -0.101097 17.5139 0.759133L14.0836 8.60787C13.8625 9.11394 14.0934 9.70348 14.5995 9.92465C15.1055 10.1458 15.6951 9.91487 15.9162 9.40881L16.5292 8.00626H20.4706L21.0836 9.40881ZM18.4999 3.49708L19.5966 6.00626H17.4033L18.4999 3.49708ZM20.9999 23.0219C21.5522 23.0219 21.9999 22.5742 21.9999 22.0219C21.9999 21.4696 21.5522 21.0219 20.9999 21.0219H16.9987L21.709 14.7349C22.2406 14.0254 21.7343 13.0136 20.8478 13.0136H14.9999C14.4477 13.0136 13.9999 13.4613 13.9999 14.0136C13.9999 14.5658 14.4477 15.0136 14.9999 15.0136H19.0012L14.1996 21.4223C13.9726 21.7254 13.9362 22.1307 14.1056 22.4693C14.2751 22.808 14.6213 23.0219 14.9999 23.0219H20.9999Z" fill="black"/>
</svg>
