<svg width="24" height="24" viewBox="0 0 24 24" fill="none" xmlns="http://www.w3.org/2000/svg">
<path d="M17.1361 3.28867C16.7512 2.90378 16.1272 2.90378 15.7423 3.28867L9.07726 9.95368L16.0463 16.9227L22.7113 10.2577C23.0962 9.87284 23.0962 9.24881 22.7113 8.86392L17.1361 3.28867Z" fill="black"/>
<path d="M15.001 17.9681L8.0319 10.999L5.28867 13.7423C4.90378 14.1272 4.90378 14.7512 5.28867 15.1361L8.65259 18.5H1.75C1.33579 18.5 1 18.8358 1 19.25C1 19.6642 1.33579 20 1.75 20H12.5548C12.8201 20 13.0744 19.8946 13.2619 19.7071L15.001 17.9681Z" fill="black"/>
</svg>
