<svg width="24" height="24" viewBox="0 0 24 24" fill="none" xmlns="http://www.w3.org/2000/svg">
<g clip-path="url(#clip0_1607_6336)">
<path fill-rule="evenodd" clip-rule="evenodd" d="M12 0C12.5523 0 13 0.447715 13 1V3C13 3.55228 12.5523 4 12 4C11.4477 4 11 3.55228 11 3V1C11 0.447715 11.4477 0 12 0ZM7.29289 2.29289C7.68342 1.90237 8.31658 1.90237 8.70711 2.29289L10.1213 3.70711C10.5118 4.09763 10.5118 4.7308 10.1213 5.12132C9.7308 5.51184 9.09763 5.51184 8.70711 5.12132L7.29289 3.70711C6.90237 3.31658 6.90237 2.68342 7.29289 2.29289ZM16.7071 2.29289C17.0976 2.68342 17.0976 3.31658 16.7071 3.70711L15.2929 5.12132C14.9024 5.51184 14.2692 5.51184 13.8787 5.12132C13.4882 4.7308 13.4882 4.09763 13.8787 3.70711L15.2929 2.29289C15.6834 1.90237 16.3166 1.90237 16.7071 2.29289ZM6 8C3.79086 8 2 9.79086 2 12C2 14.2091 3.79086 16 6 16H9.25C9.80229 16 10.25 16.4477 10.25 17C10.25 17.5523 9.80229 18 9.25 18H6C2.68629 18 0 15.3137 0 12C0 8.68629 2.68629 6 6 6H9.25C9.80229 6 10.25 6.44772 10.25 7C10.25 7.55228 9.80229 8 9.25 8H6ZM13.75 7C13.75 6.44772 14.1977 6 14.75 6H18C21.3137 6 24 8.68629 24 12C24 15.3137 21.3137 18 18 18H14.75C14.1977 18 13.75 17.5523 13.75 17C13.75 16.4477 14.1977 16 14.75 16H18C20.2091 16 22 14.2091 22 12C22 9.79086 20.2091 8 18 8H14.75C14.1977 8 13.75 7.55228 13.75 7ZM10.1213 19.293C10.5118 19.6835 10.5118 20.3167 10.1213 20.7072L8.70711 22.1214C8.31658 22.5119 7.68342 22.5119 7.29289 22.1214C6.90237 21.7309 6.90237 21.0977 7.29289 20.7072L8.70711 19.293C9.09763 18.9025 9.7308 18.9025 10.1213 19.293ZM13.8787 19.293C14.2692 18.9025 14.9024 18.9025 15.2929 19.293L16.7071 20.7072C17.0976 21.0977 17.0976 21.7309 16.7071 22.1214C16.3166 22.5119 15.6834 22.5119 15.2929 22.1214L13.8787 20.7072C13.4882 20.3167 13.4882 19.6835 13.8787 19.293ZM12 20C12.5523 20 13 20.4477 13 21V23C13 23.5523 12.5523 24 12 24C11.4477 24 11 23.5523 11 23V21C11 20.4477 11.4477 20 12 20Z" fill="black"/>
</g>
<defs>
<clipPath id="clip0_1607_6336">
<rect width="24" height="24" fill="white"/>
</clipPath>
</defs>
</svg>
