<svg width="24" height="24" viewBox="0 0 24 24" fill="none" xmlns="http://www.w3.org/2000/svg">
<g clip-path="url(#clip0_1607_6328)">
<path fill-rule="evenodd" clip-rule="evenodd" d="M20.9796 6.023C19.6214 4.659 17.4212 4.659 16.063 6.023L14.3519 7.74153C16.4178 9.8934 16.394 13.3182 14.2805 15.4407L12.8621 16.8652C13.977 17.1057 15.1866 16.7907 16.0533 15.9203L20.9796 10.9728C22.3401 9.60646 22.3401 7.38937 20.9796 6.023ZM11.2964 18.4376C13.322 19.3766 15.8013 19.0079 17.4706 17.3315L22.3968 12.384C24.5344 10.2373 24.5344 6.75854 22.3968 4.61182C20.2569 2.46273 16.7857 2.46273 14.6458 4.61182L12.7036 6.56237C10.678 5.62341 8.19868 5.99213 6.52945 7.66854L1.60315 12.616C-0.534384 14.7627 -0.534384 18.2415 1.60315 20.3882C3.74305 22.5373 7.2143 22.5373 9.3542 20.3882L11.2964 18.4376ZM11.0599 15.8407L12.8633 14.0296C14.1977 12.6894 14.2233 10.5309 12.9401 9.15935L11.1367 10.9705C9.80234 12.3106 9.77672 14.4691 11.0599 15.8407ZM11.1379 8.13481L9.71951 9.55928C7.60603 11.6818 7.58224 15.1066 9.64814 17.2585L7.93696 18.977C6.5788 20.341 4.37856 20.341 3.0204 18.977C1.65987 17.6106 1.65987 15.3935 3.02039 14.0272L7.94669 9.07972C8.81339 8.20929 10.023 7.89432 11.1379 8.13481Z" fill="black"/>
</g>
<defs>
<clipPath id="clip0_1607_6328">
<rect width="24" height="24" fill="white"/>
</clipPath>
</defs>
</svg>
