<svg width="24" height="24" viewBox="0 0 24 24" fill="none" xmlns="http://www.w3.org/2000/svg">
<path d="M2 12C2 9.79086 3.79086 8 6 8H9.25C9.80229 8 10.25 7.55228 10.25 7C10.25 6.44772 9.80229 6 9.25 6H6C2.68629 6 0 8.68629 0 12C0 15.3137 2.68629 18 6 18H9.25C9.80229 18 10.25 17.5523 10.25 17C10.25 16.4477 9.80229 16 9.25 16H6C3.79086 16 2 14.2091 2 12Z" fill="black"/>
<path d="M14.75 6C14.1977 6 13.75 6.44772 13.75 7C13.75 7.55228 14.1977 8 14.75 8H18C20.2091 8 22 9.79086 22 12C22 14.2091 20.2091 16 18 16H14.75C14.1977 16 13.75 16.4477 13.75 17C13.75 17.5523 14.1977 18 14.75 18H18C21.3137 18 24 15.3137 24 12C24 8.68629 21.3137 6 18 6H14.75Z" fill="black"/>
<path d="M8 11C7.44772 11 7 11.4477 7 12C7 12.5523 7.44772 13 8 13L16 13C16.5523 13 17 12.5523 17 12C17 11.4477 16.5523 11 16 11L8 11Z" fill="black"/>
</svg>
