<svg width="24" height="24" viewBox="0 0 24 24" fill="none" xmlns="http://www.w3.org/2000/svg">
<path d="M1 2C1 1.44772 1.44772 1 2 1H22C22.5523 1 23 1.44772 23 2V7.15C23 7.20523 22.9552 7.25 22.9 7.25L1.1 7.25C1.04477 7.25 1 7.20523 1 7.15V2Z" fill="black"/>
<path d="M8.25 8.85C8.25 8.79477 8.20523 8.75 8.15 8.75L1.1 8.75C1.04477 8.75 1 8.79477 1 8.85V22C1 22.5523 1.44772 23 2 23H8.15C8.20523 23 8.25 22.9552 8.25 22.9L8.25 8.85Z" fill="black"/>
<path d="M9.75 22.9C9.75 22.9552 9.79477 23 9.85 23H22C22.5523 23 23 22.5523 23 22V8.85C23 8.79477 22.9552 8.75 22.9 8.75L9.85 8.75C9.79477 8.75 9.75 8.79477 9.75 8.85L9.75 22.9Z" fill="black"/>
</svg>
