<svg width="24" height="24" viewBox="0 0 24 24" fill="none" xmlns="http://www.w3.org/2000/svg">
<path d="M3 5C1.89543 5 1 4.10457 1 3C1 1.89543 1.89543 1 3 1C4.10457 1 5 1.89543 5 3C5 4.10457 4.10457 5 3 5Z" fill="black"/>
<path d="M3 14C1.89543 14 1 13.1046 1 12C1 10.8954 1.89543 10 3 10C4.10457 10 5 10.8954 5 12C5 13.1046 4.10457 14 3 14Z" fill="black"/>
<path d="M3 23C1.89543 23 1 22.1046 1 21C1 19.8954 1.89543 19 3 19C4.10457 19 5 19.8954 5 21C5 22.1046 4.10457 23 3 23Z" fill="black"/>
<path d="M9 2C8.44772 2 8 2.44772 8 3C8 3.55228 8.44772 4 9 4H22C22.5523 4 23 3.55228 23 3C23 2.44772 22.5523 2 22 2H9Z" fill="black"/>
<path d="M9 11C8.44772 11 8 11.4477 8 12C8 12.5523 8.44772 13 9 13H22C22.5523 13 23 12.5523 23 12C23 11.4477 22.5523 11 22 11H9Z" fill="black"/>
<path d="M9 20C8.44772 20 8 20.4477 8 21C8 21.5523 8.44772 22 9 22H22C22.5523 22 23 21.5523 23 21C23 20.4477 22.5523 20 22 20H9Z" fill="black"/>
</svg>
