<svg width="24" height="24" viewBox="0 0 24 24" fill="none" xmlns="http://www.w3.org/2000/svg">
<g clip-path="url(#clip0_1607_6370)">
<path d="M2.66701 2.58427V5.97158C2.66701 6.52474 3.11472 6.97316 3.66701 6.97316C4.21929 6.97316 4.66701 6.52474 4.66701 5.97158V1.06649C4.66701 0.274697 3.83506 -0.240275 3.12799 0.113821L1.55313 0.902495C1.05915 1.14987 0.858925 1.7515 1.10591 2.24625C1.3529 2.74101 1.95358 2.94155 2.44755 2.69417L2.66701 2.58427Z" fill="black"/>
<path d="M8.0005 2.96684C7.44822 2.96684 7.0005 3.41527 7.0005 3.96842C7.0005 4.52158 7.44822 4.97 8.0005 4.97H22.0005C22.5528 4.97 23.0005 4.52158 23.0005 3.96842C23.0005 3.41527 22.5528 2.96684 22.0005 2.96684H8.0005Z" fill="black"/>
<path d="M7.0005 11.9811C7.0005 11.4279 7.44822 10.9795 8.0005 10.9795H22.0005C22.5528 10.9795 23.0005 11.4279 23.0005 11.9811C23.0005 12.5342 22.5528 12.9826 22.0005 12.9826H8.0005C7.44822 12.9826 7.0005 12.5342 7.0005 11.9811Z" fill="black"/>
<path d="M8.0005 18.9921H22.0005C22.5528 18.9921 23.0005 19.4405 23.0005 19.9937C23.0005 20.5468 22.5528 20.9953 22.0005 20.9953H8.0005C7.44822 20.9953 7.0005 20.5468 7.0005 19.9937C7.0005 19.4405 7.44822 18.9921 8.0005 18.9921Z" fill="black"/>
<path d="M3.75997 18.8182C4.0649 18.5127 3.84894 17.9905 3.4177 17.9905C3.23435 17.9905 3.06674 18.0943 2.98475 18.2585L2.89493 18.4384C2.64794 18.9332 2.04727 19.1337 1.55329 18.8864C1.05931 18.639 0.859087 18.0374 1.10608 17.5426L1.1959 17.3627C1.61667 16.5198 2.47681 15.9874 3.4177 15.9874C5.521 15.9874 6.62641 18.4081 5.38745 19.9937C6.62641 21.5793 5.521 24 3.4177 24C2.47681 24 1.61667 23.4676 1.1959 22.6247L1.10608 22.4448C0.859087 21.95 1.05931 21.3484 1.55329 21.101C2.04727 20.8536 2.64794 21.0542 2.89493 21.5489L2.98475 21.7288C3.06674 21.8931 3.23435 21.9968 3.4177 21.9968C3.84894 21.9968 4.0649 21.4746 3.75997 21.1692L3.29381 20.7023C2.90329 20.3112 2.90287 19.6766 3.2934 19.2855L3.75997 18.8182Z" fill="black"/>
<path d="M5.23931 15.1736C5.7916 15.1736 6.23931 14.7252 6.23931 14.172C6.23931 13.6188 5.7916 13.1704 5.23931 13.1704H4.13555L5.36174 11.6967C6.73625 10.0447 5.56336 7.53655 3.41632 7.53655C2.45712 7.53655 1.58025 8.07934 1.15129 8.93862L1.10608 9.02919C0.859088 9.52394 1.05931 10.1256 1.55329 10.3729C2.04727 10.6203 2.64794 10.4198 2.89493 9.92503L2.94014 9.83446C3.03032 9.65381 3.21467 9.5397 3.41632 9.5397C3.86768 9.5397 4.11426 10.067 3.8253 10.4143L1.24164 13.5196C0.695194 14.1763 1.16141 15.1736 2.01512 15.1736H5.23931Z" fill="black"/>
</g>
<defs>
<clipPath id="clip0_1607_6370">
<rect width="24" height="24" fill="white"/>
</clipPath>
</defs>
</svg>
