<svg width="24" height="24" viewBox="0 0 24 24" fill="none" xmlns="http://www.w3.org/2000/svg">
<path d="M0 4C0 3.44772 0.447715 3 1 3H23C23.5523 3 24 3.44772 24 4C24 4.55228 23.5523 5 23 5H1C0.447715 5 0 4.55228 0 4Z" fill="black"/>
<path d="M0 8C0 7.44772 0.447715 7 1 7H23C23.5523 7 24 7.44772 24 8C24 8.55228 23.5523 9 23 9H1C0.447715 9 0 8.55228 0 8Z" fill="black"/>
<path d="M1 11C0.447715 11 0 11.4477 0 12C0 12.5523 0.447715 13 1 13H23C23.5523 13 24 12.5523 24 12C24 11.4477 23.5523 11 23 11H1Z" fill="black"/>
<path d="M0 16C0 15.4477 0.447715 15 1 15H23C23.5523 15 24 15.4477 24 16C24 16.5523 23.5523 17 23 17H1C0.447715 17 0 16.5523 0 16Z" fill="black"/>
<path d="M1 19C0.447715 19 0 19.4477 0 20C0 20.5523 0.447715 21 1 21H16C16.5523 21 17 20.5523 17 20C17 19.4477 16.5523 19 16 19H1Z" fill="black"/>
</svg>
