<svg width="24" height="24" viewBox="0 0 24 24" fill="none" xmlns="http://www.w3.org/2000/svg">
<path d="M0 4C0 3.44772 0.447715 3 1 3H23C23.5523 3 24 3.44772 24 4C24 4.55228 23.5523 5 23 5H1C0.447715 5 0 4.55228 0 4Z" fill="black"/>
<path d="M3 8C3 7.44772 3.44772 7 4 7H18.7675C19.3198 7 19.7675 7.44772 19.7675 8C19.7675 8.55228 19.3198 9 18.7675 9H4C3.44772 9 3 8.55228 3 8Z" fill="black"/>
<path d="M5 15C4.44772 15 4 15.4477 4 16C4 16.5523 4.44772 17 5 17H19.7675C20.3198 17 20.7675 16.5523 20.7675 16C20.7675 15.4477 20.3198 15 19.7675 15H5Z" fill="black"/>
<path d="M0 12C0 11.4477 0.447715 11 1 11H23C23.5523 11 24 11.4477 24 12C24 12.5523 23.5523 13 23 13H1C0.447715 13 0 12.5523 0 12Z" fill="black"/>
<path d="M1 19C0.447715 19 0 19.4477 0 20C0 20.5523 0.447715 21 1 21H23C23.5523 21 24 20.5523 24 20C24 19.4477 23.5523 19 23 19H1Z" fill="black"/>
</svg>
