<svg width="24" height="24" viewBox="0 0 24 24" fill="none" xmlns="http://www.w3.org/2000/svg">
<path d="M0.252589 6.83564C-0.0841957 7.21453 -0.0841964 7.78548 0.252587 8.16436L4.25255 12.6644C4.61947 13.0772 5.25154 13.1143 5.66432 12.7474C6.07711 12.3805 6.11429 11.7484 5.74738 11.3357L3.22683 8.50001H17.25C19.8733 8.50001 22 10.6267 22 13.25C22 15.8734 19.8733 18 17.25 18H6.99997C6.44768 18 5.99997 18.4477 5.99997 19C5.99997 19.5523 6.44768 20 6.99997 20H17.25C20.9779 20 24 16.9779 24 13.25C24 9.52209 20.9779 6.50001 17.25 6.50001H3.22683L5.74738 3.66437C6.1143 3.25159 6.07712 2.61952 5.66433 2.2526C5.25155 1.88568 4.61948 1.92287 4.25256 2.33565L0.252589 6.83564Z" fill="black"/>
</svg>
