<svg width="24" height="24" viewBox="0 0 24 24" fill="none" xmlns="http://www.w3.org/2000/svg">
<path d="M1 5C1.55228 5 2 4.55228 2 4H7V20H5C4.44772 20 4 20.4477 4 21C4 21.5523 4.44772 22 5 22H11C11.5523 22 12 21.5523 12 21C12 20.4477 11.5523 20 11 20H9V4H14C14 4.55228 14.4477 5 15 5C15.5523 5 16 4.55228 16 4V3.1C16 2.49248 15.5075 2 14.9 2H1.1C0.492486 2 0 2.49249 0 3.1V4C0 4.55228 0.447715 5 1 5Z" fill="black"/>
<path d="M13 11C13.5523 11 14 10.5523 14 10H16.6667V20H15.6667C15.1145 20 14.6667 20.4477 14.6667 21C14.6667 21.5523 15.1145 22 15.6667 22H19.6667C20.219 22 20.6667 21.5523 20.6667 21C20.6667 20.4477 20.219 20 19.6667 20H18.6667V10H21C21 10.5523 21.4477 11 22 11C22.5523 11 23 10.5523 23 10V9.1C23 8.49248 22.5075 8 21.9 8H13.1C12.4925 8 12 8.49249 12 9.1V10C12 10.5523 12.4477 11 13 11Z" fill="black"/>
</svg>
