<svg width="24" height="24" viewBox="0 0 24 24" fill="none" xmlns="http://www.w3.org/2000/svg">
<path d="M14.5 12.2065C14.5 11.2065 13.5 10.2065 11.9624 10.2065C10.4249 10.2065 9.46155 11.0898 9.46155 12.022C9.46155 12.9543 10.1539 13.7649 11.9624 14.0193C13.5896 14.2482 14.7773 14.7541 14.7773 16.2065C14.7773 17.3718 13.4437 18.2065 11.9624 18.2065C10.4812 18.2065 9.3167 17.6049 9.3167 16.2065M12 9V19.5328M17.5 6.5V5C17.5 3.34315 16.1569 2 14.5 2H9.5C7.84315 2 6.5 3.34315 6.5 5V6.5M2 22H22C22.5523 22 23 21.5523 23 21V7.5C23 6.94772 22.5523 6.5 22 6.5H2C1.44772 6.5 1 6.94772 1 7.5V21C1 21.5523 1.44772 22 2 22Z" stroke="black" stroke-width="1.5" stroke-linecap="round" stroke-linejoin="round"/>
</svg>
