<svg width="24" height="24" viewBox="0 0 24 24" fill="none" xmlns="http://www.w3.org/2000/svg">
<path d="M23.0344 2H22.0355C21.5753 2 21.1743 2.31311 21.0634 2.75905L17.6101 16.647C17.2663 18.0294 16.0233 19 14.5967 19H4.00466M4.00466 19C3.17494 19 2.50231 19.6716 2.50231 20.5C2.50231 21.3284 3.17493 22 4.00465 22C4.83437 22 5.507 21.3284 5.507 20.5C5.507 19.6716 4.83438 19 4.00466 19ZM6.00779 9L7.00935 13M15.0219 13L16.0234 9M11.0156 9V13M20.11 6H1.13459C1.06749 6 1.01937 6.06457 1.03865 6.12873L3.55499 14.5034C3.82189 15.3917 4.64074 16 5.56957 16H17.688C17.7341 16 17.7742 15.9686 17.7853 15.924L20.2072 6.12396C20.2228 6.06092 20.175 6 20.11 6ZM15.0219 20.5C15.0219 21.3284 14.3492 22 13.5195 22C12.6898 22 12.0172 21.3284 12.0172 20.5C12.0172 19.6716 12.6898 19 13.5195 19C14.3492 19 15.0219 19.6716 15.0219 20.5Z" stroke="black" stroke-width="1.5" stroke-linecap="round"/>
</svg>
