<svg width="24" height="24" viewBox="0 0 24 24" fill="none" xmlns="http://www.w3.org/2000/svg">
<g clip-path="url(#clip0_1607_8062)">
<path d="M14.7712 9.6001C14.7712 7.99545 14.0345 6.6001 11.9805 6.6001C9.92659 6.6001 9.27124 7.81638 9.27124 9.1001C9.27124 10.3838 10.0212 11.5001 11.9805 11.8504C13.7433 12.1656 15.2712 12.728 15.2712 14.728C15.2712 16.3327 13.5852 17.6164 11.9805 17.6164C10.3759 17.6164 8.77124 16.6536 8.77124 14.728M11.9805 5.1001V18.9001M23 12C23 18.0751 18.0751 23 12 23C5.92487 23 1 18.0751 1 12C1 5.92487 5.92487 1 12 1C18.0751 1 23 5.92487 23 12Z" stroke="black" stroke-width="1.5" stroke-linecap="round" stroke-linejoin="round"/>
</g>
<defs>
<clipPath id="clip0_1607_8062">
<rect width="24" height="24" fill="white"/>
</clipPath>
</defs>
</svg>
