<svg width="24" height="24" viewBox="0 0 24 24" fill="none" xmlns="http://www.w3.org/2000/svg">
<path d="M5 6C5 8.20914 3.20914 10 1 10M19 6C19 8.20914 20.7909 10 23 10M1 14C3.20914 14 5 15.7909 5 18M23 14C20.7909 14 19 15.7909 19 18M2 18H22C22.5523 18 23 17.5523 23 17V7C23 6.44772 22.5523 6 22 6H2C1.44772 6 1 6.44772 1 7V17C1 17.5523 1.44772 18 2 18ZM15 12C15 13.6569 13.6569 15 12 15C10.3431 15 9 13.6569 9 12C9 10.3431 10.3431 9 12 9C13.6569 9 15 10.3431 15 12Z" stroke="black" stroke-width="1.5"/>
</svg>
