<svg width="24" height="24" viewBox="0 0 24 24" fill="none" xmlns="http://www.w3.org/2000/svg">
<path d="M8.625 8.62632H15.375M8.625 12H15.375M8.625 15.3737H15.375M3 2.77201V21.228C3 22.0654 3.93084 22.5476 4.59136 22.0524L5.40864 21.4397C5.76063 21.1758 6.23937 21.1758 6.59136 21.4397L8.40864 22.8021C8.76063 23.066 9.23937 23.066 9.59136 22.8021L11.4086 21.4397C11.7606 21.1758 12.2394 21.1758 12.5914 21.4397L14.4086 22.8021C14.7606 23.066 15.2394 23.066 15.5914 22.8021L17.4086 21.4397C17.7606 21.1758 18.2394 21.1758 18.5914 21.4397L19.4086 22.0524C20.0692 22.5476 21 22.0654 21 21.228V2.77201C21 1.93463 20.0692 1.45242 19.4086 1.94761L18.5914 2.56031C18.2394 2.8242 17.7606 2.8242 17.4086 2.56031L15.5914 1.19791C15.2394 0.934029 14.7606 0.934028 14.4086 1.19791L12.5914 2.56031C12.2394 2.8242 11.7606 2.8242 11.4086 2.56031L9.59136 1.19791C9.23937 0.934029 8.76063 0.934028 8.40864 1.19791L6.59136 2.56031C6.23937 2.8242 5.76063 2.8242 5.40864 2.56031L4.59136 1.94761C3.93084 1.45242 3 1.93463 3 2.77201Z" stroke="black" stroke-width="1.5" stroke-linecap="round" stroke-linejoin="round"/>
</svg>
