<svg width="24" height="24" viewBox="0 0 24 24" fill="none" xmlns="http://www.w3.org/2000/svg">
<g clip-path="url(#clip0_1607_8085)">
<path d="M5.50004 17H10.5M12.0928 21.3874C13.2663 20.2923 14 18.7318 14 17C14 13.6863 11.3137 11 8.00004 11C6.26824 11 4.70781 11.7337 3.61263 12.9073M12.0928 21.3874C11.0209 22.3878 9.58195 23 8.00004 23C4.68633 23 2.00004 20.3137 2.00004 17C2.00004 15.4181 2.61223 13.9792 3.61263 12.9073M12.0928 21.3874L13.4063 22.701C13.8051 23.0997 14.4515 23.0997 14.8502 22.701L22.701 14.8502C23.0997 14.4515 23.0997 13.8051 22.701 13.4063L10.5937 1.29905C10.3794 1.08479 10.081 0.976764 9.77928 1.0042L2.58279 1.65842C2.09195 1.70305 1.70305 2.09195 1.65842 2.58279L1.0042 9.77928C0.976764 10.081 1.08479 10.3794 1.29905 10.5937L3.61263 12.9073M8.00004 6.00004C8.00004 7.10461 7.10461 8.00004 6.00004 8.00004C4.89547 8.00004 4.00004 7.10461 4.00004 6.00004C4.00004 4.89547 4.89547 4.00004 6.00004 4.00004C7.10461 4.00004 8.00004 4.89547 8.00004 6.00004Z" stroke="black" stroke-width="1.5" stroke-linecap="round"/>
</g>
<defs>
<clipPath id="clip0_1607_8085">
<rect width="24" height="24" fill="white"/>
</clipPath>
</defs>
</svg>
